<svg xmlns="http://www.w3.org/2000/svg" viewBox="0 0 100 100" id="Avatar-Network--Streamline-Ux" height="100" width="100">
  <desc>
    Avatar Network Streamline Illustration: https://streamlinehq.com
  </desc>
  <path fill="#64a8a6" d="M11.176 50.611a40 40 0 1 0 80 0 40 40 0 1 0 -80 0" stroke-width="1"></path>
  <g stroke="#042f2e" stroke-linecap="round" stroke-linejoin="round">
    <path fill="none" d="m50.05 84.635 17.304 -6.545M11.661 38.722l14.653 37.887m23.051 -64.382L30.597 22.588M11.661 38.722l18.936 -16.134m34.48 -4.261 -15.712 -6.1m24.231 15.346 -8.519 -9.246M85.442 31.64l-11.846 -4.067m6.712 20.478L67.354 78.09m18.632 -8.397L67.354 78.09M30.597 22.588l34.48 -4.261M30.398 60.838l-4.084 15.771M11.661 38.722l18.737 22.116M50.05 84.635 30.398 60.838m0.405 -20.497 19.247 -3.777m15.027 -18.237L53.856 55.905m26.452 -7.854 -6.712 -20.478m-19.74 28.332L50.05 36.564l15.027 -18.237m2.277 59.763L53.856 55.905" stroke-width="1"></path>
    <path fill="none" d="M53.831 55.743 50.05 84.635l-23.736 -8.026" stroke-width="1"></path>
    <path fill="#ffffff" d="M47.212 36.564a2.838 2.838 0 1 0 5.676 0 2.838 2.838 0 1 0 -5.676 0" stroke-width="1"></path>
    <path fill="#ffffff" d="m53.856 55.905 19.74 -28.332" stroke-width="1"></path>
    <path fill="#ffffff" d="M70.758 27.573a2.838 2.838 0 1 0 5.676 0 2.838 2.838 0 1 0 -5.676 0" stroke-width="1"></path>
    <path fill="#ffffff" d="M82.604 31.64a2.838 2.838 0 1 0 5.676 0 2.838 2.838 0 1 0 -5.676 0" stroke-width="1"></path>
    <path fill="#ffffff" d="M83.148 69.693a2.838 2.838 0 1 0 5.676 0 2.838 2.838 0 1 0 -5.676 0" stroke-width="1"></path>
    <path fill="#ffffff" d="M62.239 18.327a2.838 2.838 0 1 0 5.676 0 2.838 2.838 0 1 0 -5.676 0" stroke-width="1"></path>
    <path fill="#ffffff" d="M27.748 22.588a2.838 2.838 0 1 0 5.676 0 2.838 2.838 0 1 0 -5.676 0" stroke-width="1"></path>
    <path fill="#ffffff" d="M8.823 38.84a2.838 2.838 0 1 0 5.676 0 2.838 2.838 0 1 0 -5.676 0" stroke-width="1"></path>
    <path fill="#ffffff" d="M46.527 12.227a2.838 2.838 0 1 0 5.676 0 2.838 2.838 0 1 0 -5.676 0" stroke-width="1"></path>
    <path fill="#ffffff" d="M47.212 84.509a2.838 2.838 0 1 0 5.676 0 2.838 2.838 0 1 0 -5.676 0" stroke-width="1"></path>
    <path fill="#ffffff" d="M23.476 76.609a2.838 2.838 0 1 0 5.676 0 2.838 2.838 0 1 0 -5.676 0" stroke-width="1"></path>
    <path fill="#ffffff" d="M27.56 60.838a2.838 2.838 0 1 0 5.676 0 2.838 2.838 0 1 0 -5.676 0" stroke-width="1"></path>
    <path fill="#ffffff" d="M23.612 38.453a7.191 7.191 0 1 0 14.382 0 7.191 7.191 0 1 0 -14.382 0" stroke-width="1"></path>
    <path d="M35.611 43.8a7.192 7.192 0 0 1 -9.611 0 5.206 5.206 0 0 1 9.6 0" fill="#0ec3c1" stroke-width="1"></path>
    <path fill="#ffffff" d="M43.29 55.905a10.567 10.567 0 1 0 21.134 0 10.567 10.567 0 1 0 -21.134 0" stroke-width="1"></path>
    <path d="M50.457 55.66a3.4 3.4 0 0 0 6.8 0v-1.7a3.4 3.4 0 0 0 -6.8 0z" fill="#ffffff" stroke-width="1"></path>
    <path d="M60.92 63.764a10.567 10.567 0 0 1 -14.124 0 7.649 7.649 0 0 1 14.116 -0.012" fill="#0ec3c1" stroke-width="1"></path>
    <path d="M50.485 53.521a3.4 3.4 0 0 1 6.2 -1.453 6.193 6.193 0 0 1 -6.2 1.453z" fill="#ffffff" stroke-width="1"></path>
    <path fill="#ffffff" d="M73.117 47.533a7.191 7.191 0 1 0 14.382 0 7.191 7.191 0 1 0 -14.382 0" stroke-width="1"></path>
    <path d="M77.994 47.366a2.314 2.314 0 1 0 4.628 0v-1.157a2.314 2.314 0 1 0 -4.628 0z" fill="#ffffff" stroke-width="1"></path>
    <path d="M85.115 52.881a7.191 7.191 0 0 1 -9.612 0 5.206 5.206 0 0 1 9.607 -0.008" fill="#0ec3c1" stroke-width="1"></path>
    <path d="M78.013 45.91a2.314 2.314 0 0 1 4.217 -0.989 4.217 4.217 0 0 1 -4.217 0.989z" fill="#ffffff" stroke-width="1"></path>
    <path fill="#ffffff" d="M60.163 78.065a7.191 7.191 0 1 0 14.382 0 7.191 7.191 0 1 0 -14.382 0" stroke-width="1"></path>
    <path d="M65.04 77.9a2.314 2.314 0 0 0 4.628 0v-1.158a2.314 2.314 0 0 0 -4.628 0z" fill="#ffffff" stroke-width="1"></path>
    <path d="M72.161 83.414a7.194 7.194 0 0 1 -9.612 0 5.206 5.206 0 0 1 9.607 -0.009" fill="#0ec3c1" stroke-width="1"></path>
    <path d="M65.059 76.443a2.314 2.314 0 0 1 4.217 -0.989 4.217 4.217 0 0 1 -4.217 0.989z" fill="#ffffff" stroke-width="1"></path>
    <path fill="none" d="m52.703 37.571 20.723 7.868m11.84 21.508 -3.26 -12.425M43.495 57.99l-10.323 2.245m51.423 -25.886 -1.992 6.366m-46.858 2.962 9.353 6.315m-14.4 -18.73 -0.068 -5.837m4.962 7.663 12.209 -18.493M23.727 39.743l-9.231 -0.782m16.203 6.682 -0.245 12.358m52.924 10.572 -19.808 -8.5" stroke-width="1"></path>
    <path d="M28.49 38.286a2.314 2.314 0 1 0 4.627 0v-1.157a2.314 2.314 0 1 0 -4.627 0z" fill="#ffffff" stroke-width="1"></path>
    <path d="M28.509 36.83a2.313 2.313 0 0 1 4.216 -0.989 4.213 4.213 0 0 1 -4.216 0.989z" fill="#ffffff" stroke-width="1"></path>
  </g>
</svg>