<svg xmlns="http://www.w3.org/2000/svg" fill="none" viewBox="0 0 200 200" id="Being-Productive-5--Streamline-Milano">
  <desc>
    Being Productive 5 Streamline Illustration: https://streamlinehq.com
  </desc>
  <g id="being-productive-5--work-being-productive">
    <g id="elements">
      <path id="vector" fill="#000000" d="M95.012 34.8129c2.138 2.562 2.655 3.175 3.964 4.405 0.544 0.512 1.337 0.432 1.34 -0.27 -1.372 -3.795 -26.308 -29.31001 -5.304 -4.135Z" stroke-width="1"></path>
      <path id="vector_2" fill="#000000" d="M88.668 53.5257c-1.381 -0.866 -13.17 -4.212 -17.043 -5.29 -2.213 -0.616 -1.437 0.409 -0.64 0.785 4 1.884 15.608 5.664 17.393 5.575 0.832 -0.042 0.844 -0.723 0.29 -1.07Z" stroke-width="1"></path>
      <path id="vector_3" fill="#000000" d="M112.419 15.9844c-0.274 0.361 -0.176 -0.025 -0.309 2.19 0.777 17.711 3.308 15.522 2.86 12.135 -0.025 -0.188 -1.975 -13.856 -2.551 -14.325Z" stroke-width="1"></path>
      <path id="vector_4" fill="#000000" d="M184.13 102.958c-2.935 -1.192 -12.382 -7.5105 -18.339 -9.6045 -5.503 -0.11 15.383 9.2175 15.406 9.2275 2.801 1.141 4.502 1.014 2.933 0.377Z" stroke-width="1"></path>
      <path id="vector_5" fill="#000000" d="M168.125 76.8935c-0.209 0.301 -0.032 0.763 0.313 0.889 0.951 0.347 18.552 -3.992 18.31 -4.975 -0.052 -0.213 -17.27 2.132 -18.623 4.086Z" stroke-width="1"></path>
      <path id="vector_6" fill="#000000" d="M154.808 107.991c-0.172 -0.167 -0.521 -0.219 -0.681 -0.082 -1.383 1.185 10.004 12.348 11.305 13.58 9.9 9.375 -8.517 -11.454 -10.624 -13.498Z" stroke-width="1"></path>
    </g>
    <g id="computer">
      <path id="vector_7" fill="#000000" d="M133.301 95.884c-0.819 0.836 -1.751 1.544 -2.656 2.181 -0.53 0.372 -1.4 0.122 -1.974 -0.044 -0.918 -0.265 -0.954 -0.126 -1.287 0.154 -0.394 4.182 -5.197 13.693 -6.509 14.386 -0.075 -0.229 -0.054 -0.581 -0.042 -0.909 0.039 -1.001 -0.002 -0.952 -0.31 -1.905 -0.73 0.661 -0.597 0.495 -1.011 1.105 -4.142 6.087 -7.391 7.781 -13.698 11.773 -0.46 0.291 -0.752 0.329 -0.86 0.273 -0.298 -0.152 -0.05 -1.684 0.015 -2.013 0.074 -0.37 0.15 -0.752 -0.218 -0.955 -0.389 -0.214 -0.664 0.046 -1.267 0.617 -8.009 7.589 -4.367 3.387 -11.771 11.976 -5.576 6.469 -5.549 6.142 -5.134 6.651 0.302 0.371 0.662 0.167 1.312 -0.203 0.76 -0.432 2.173 -1.236 3.745 -1.631 3.927 -0.985 6.311 0.79 5.517 4.909l-0.142 0.736c0.856 -0.177 0.681 -0.131 0.895 -0.214 0.568 -0.301 3.507 -1.744 5.585 -0.575 1.166 0.656 0.953 1.697 1.643 1.882 0.135 0.037 0.348 0.045 0.588 -0.122 2.719 -1.891 4.379 -2.545 7.039 -1.429 0.347 0.146 1.281 0.511 2.05 2.344 0.414 0.986 0.753 0.454 2.495 0.385 1.872 -0.078 2.076 2.209 3.567 2.209 2.983 0 4.769 2.009 2.955 3.039 -4.472 2.534 -16.568 3.405 -22.115 3.938 -64.272 6.167 -66.516 5.574 -67.683 0.804 -0.402 -1.637 1.418 -3.071 3.117 -3.229 0.829 -0.077 1.002 -0.587 0.699 -1.09 -0.753 -1.262 -0.948 -2.309 -0.577 -3.113 0.423 -0.918 1.656 -1.613 3.384 -1.907l0.647 -0.216c-0.247 -0.616 -0.226 -0.627 -0.545 -1.018 -0.26 -0.319 -0.652 -0.801 -1.158 -2.087 -0.393 -0.998 0.091 -2.961 1.772 -3.893 1.442 -0.797 2.446 -0.256 2.741 -0.937 0.141 -0.326 -0.026 -0.616 -0.28 -1.055 -3.917 -6.763 2.503 -13.66 8.73 -12.109 3.945 0.983 3.898 2.919 4.795 2.571 0.356 -0.138 0.362 -0.526 0.364 -0.653 0.061 -3.982 3.958 -6.946 8.535 -4.735 3.393 1.639 4.095 5.061 4.326 6.185 0.136 0.669 0.252 0.725 1.01 0.776 0.957 0.063 2.738 0.181 3.348 2.102 1.018 3.205 -1.361 3.719 0.031 4.513 1.205 0.682 1.467 1.415 1.518 2.56 0.015 0.331 0.034 0.742 0.438 0.861 0.459 0.134 0.563 -0.014 1.849 -1.825 2.672 -3.767 7.605 -10.198 10.44 -15.061 3.069 -5.264 3.185 -6.651 4.157 -10.098 3.279 -11.645 3.626 -11.021 3.369 -11.62l-0.392 -0.8c-0.796 1.185 -0.467 0.776 -0.901 1.141 -0.067 0.057 -0.068 0.058 -0.098 0.07 -0.115 0.048 -0.187 0.063 -0.209 0.079 -0.528 -1.369 5.127 -11.955 11.921 -15.822 0.181 -0.103 0.298 -0.266 0.33 -0.457 0.166 -0.996 -2.476 -1.875 -1.19 -4.519 0.17 -0.351 0.347 -0.842 0.503 -1.275 0.115 -0.318 0.271 -0.753 0.326 -0.84 0.932 -1.18 -0.715 -1.746 -1.186 -3.947 -0.053 -0.247 -0.174 -0.419 -0.359 -0.511 -0.307 -0.152 -0.578 -0.026 -1.026 0.183 -1.495 0.697 -2.408 0.923 -3.876 1.316 -2.893 0.774 -4.345 1.163 -5.731 0.705 -2.67 -0.88 -2.026 -2.908 -1.131 -5.573 -27.543 0.39 -62.799 1.599 -64.74 1.844 -8.943 1.13 -9.558 0.146 -9.558 9.895 -0.107 0 1.509 38.853 5.779 64.768 2.49 15.109 2.769 14.035 8.546 14.608 15.617 1.552 67.692 -2.473 83.336 -3.694 25.406 -1.983 21.618 -1.815 20.964 -17.063 -0.372 -8.66 -2.471 -28.704 -4.746 -44.392h-0.001Zm-91.845 19.791c-1.772 -0.139 -2.538 -0.1 -3.173 -0.605 -3.152 -2.509 10.761 -2.585 17.185 -3.123 0.727 -0.061 1.422 0.018 2.108 0.242 0.341 0.112 0.326 0.128 0.37 0.474 0.201 1.584 -2.385 2.326 -16.49 3.012Zm14.14 -13.874c-3.333 0.333 -15.996 1.601 -19.261 1.262 -1.26 -0.131 -1.525 -1.211 -0.727 -1.694 1.998 -1.208 24.896 -3.619 25.186 -1.378 0.149 1.146 -0.713 1.362 -5.199 1.811l0.001 -0.001Zm11.403 11.814c-0.789 -0.05 -1.644 -0.075 -2.492 -0.169 -1.973 -0.219 -3.027 -1.466 -0.814 -2.263 2.572 -0.926 11.067 -1.241 13.431 -1.031 1.212 0.107 4.158 2.686 -10.125 3.463Zm20.842 -15.466c-1.825 0.783 -20.269 3.14 -21.958 1.792 -1.771 -1.413 5.128 -2.137 7.72 -2.494 18.092 -2.489 15.038 0.359 14.238 0.702Zm-4.236 -10.13C83 89.905 45.367 91.65 45.345 91.65c-7.723 0.576 -4.54 0.488 -8.719 0.681 -0.693 0.032 -1.55 -0.805 -1.045 -1.596 1.2 -1.879 17.601 -1.952 35.54 -3.797 11.938 -1.229 13.104 -0.851 12.484 1.081Zm-3.477 -10.674c0.759 0.077 2.309 1.95 -3.351 2.181 -4.536 0.185 -11.122 1.722 -10.969 -0.315 0.167 -2.218 12.089 -2.092 14.32 -1.866Zm-44.785 2.664c1.381 -0.869 21.32 -2.092 26.123 -1.63 1.26 0.121 1.659 1.814 -1.628 2.069 -0.023 0.002 -22.834 2.073 -24.178 1.68 -0.981 -0.287 -1.229 -1.545 -0.317 -2.119Zm-10.461 1.04c0.11 -3.635 4.777 -4.38 6.031 -1.013 0.418 1.123 -0.244 3.144 -1.95 3.921 -2.009 0.915 -4.142 -0.89 -4.081 -2.908Zm4.52 8.434c2.323 0.353 3.254 3.441 1.264 5.45 -1.644 1.66 -5.007 0.437 -4.872 -2.366 -0.036 -1.934 1.733 -3.369 3.608 -3.084Zm1.317 11.511c1.925 0.432 2.548 3.378 0.892 5.176 -2.031 2.203 -5.416 0.535 -5.356 -2.248 0.057 -2.661 2.157 -3.445 4.464 -2.928Zm1.891 15.964c-1.71 2.105 -4.926 1.404 -5.539 -1.374 -0.474 -2.146 1.081 -3.781 2.458 -3.841 4.216 -0.184 4.695 3.228 3.081 5.215Z" stroke-width="1"></path>
      <path id="vector_8" fill="#000000" d="M76.577 68.1829c0.066 1.09 -1.109 1.356 -1.728 0.77 -1.561 -1.475 1.728 -3.281 1.728 -0.77Z" stroke-width="1"></path>
      <path id="vector_9" fill="#000000" d="M72.57 67.6686c-0.461 -0.277 -1.126 0.012 -1.129 0.71 -0.002 0.397 0.229 0.757 0.68 0.757 0.832 0 1.042 -1.11 0.449 -1.467Z" stroke-width="1"></path>
      <g id="group">
        <path id="vector_10" fill="#000000" d="M134.72 170.123c-0.236 -0.167 -0.505 -0.528 -0.37 -0.821 0.158 -0.343 -0.007 -0.247 9.005 -0.999 4.764 -0.398 4.231 -0.825 8.461 1.399 5.717 3.007 -5.932 3.574 -9.212 3.981 -2.936 0.364 -2.755 0.065 -7.884 -3.56Z" stroke-width="1"></path>
        <path id="vector_11" fill="#000000" d="M93.107 176.442c-3.52 -4.423 -3.178 -3.441 4.556 -4.209 3.525 -0.35 4.22 -0.322 5.455 0.869 5.327 5.136 5.734 4.327 -3.054 5.153 -5.59 0.525 -4.866 0.814 -6.957 -1.813Z" stroke-width="1"></path>
        <path id="vector_12" fill="#000000" d="M119.711 171.435c-1.646 -1.452 2.007 -1.211 6.778 -1.635 1.337 -0.119 3.219 -0.661 4.881 0.501 4.081 2.853 4.147 2.588 4.613 3.342 0.329 0.533 -0.181 1.018 -0.668 1.077 -12.812 1.548 -9.511 2.091 -15.604 -3.285Z" stroke-width="1"></path>
        <path id="vector_13" fill="#000000" d="M120.892 174.974c1.804 1.573 -0.11 1.224 -7.418 2.046 -3.315 0.373 -2.91 0.271 -7.464 -4.266 -1.134 -1.129 0.007 -1.271 1.724 -1.333 8.779 -0.314 6.375 -2.363 13.158 3.553Z" stroke-width="1"></path>
        <path id="vector_14" fill="#000000" d="M70.004 180.947c-1.369 0.144 -1.865 -0.597 -4.975 -3.614 -1.826 -1.772 0.37 -1.47 5.793 -2.032 4.193 -0.435 3.322 -0.839 7.844 3.889 1.845 1.929 -1.607 1.015 -8.662 1.757Z" stroke-width="1"></path>
        <path id="vector_15" fill="#000000" d="M86.155 173.46c1.376 -0.131 1.915 0.853 4.236 3.786 0.887 1.12 1.406 1.816 0.089 1.934 -3.745 0.337 -3.804 0.35 -4.632 0.373 -3.708 0.103 -2.461 1.148 -5.745 -2.398 -3.135 -3.385 -4.2 -2.72 6.051 -3.694l0.001 -0.001Z" stroke-width="1"></path>
        <path id="vector_16" fill="#000000" d="M130.55 166.747c-5.474 -3.574 -6.232 -3.256 -0.078 -3.685 7.311 -0.51 8.749 0.155 14.11 2.524 0.29 0.128 0.398 0.627 -0.123 0.786 -0.346 0.106 -7.352 0.538 -10.185 0.805 -0.102 0.01 -2.338 0.475 -3.724 -0.43Z" stroke-width="1"></path>
        <path id="vector_17" fill="#000000" d="M72.187 172.279c0.432 0.43 0.263 0.8 -0.073 0.876 -0.883 0.199 -7.777 0.976 -8.065 1.004 -0.608 0.059 -1.665 0.291 -2.41 -0.414 -4.725 -4.468 -4.485 -3.614 1.255 -4.334 6.49 -0.814 5.836 -0.569 9.293 2.869v-0.001Z" stroke-width="1"></path>
        <path id="vector_18" fill="#000000" d="M89.943 171.067c-1.047 0.087 -1.486 -0.665 -3.463 -3.034 -1.029 -1.232 0.014 -1.134 5.288 -1.63 4.799 -0.451 3.826 -0.897 7.549 2.709 1.189 1.152 0.644 1.124 -9.374 1.955Z" stroke-width="1"></path>
        <path id="vector_19" fill="#000000" d="M104.297 169.823c-1.479 -0.231 -1.275 -0.276 -4.241 -3.109 -0.553 -0.528 -0.166 -1.047 0.4 -1.116 0.023 -0.003 5.153 -0.56 5.178 -0.56 2.124 -0.135 3.55 -0.46 4.762 0.578 5.409 4.634 3.811 2.667 -6.099 4.207Z" stroke-width="1"></path>
        <path id="vector_20" fill="#000000" d="M50.424 175.683c-1.145 -0.066 -1.545 -0.565 -3.699 -2.485 -3.008 -2.682 -1.623 -2.265 2.787 -2.65 5.215 -0.455 4.117 -0.7 7.885 2.935 1.955 1.886 -0.951 1.081 -6.973 2.199v0.001Z" stroke-width="1"></path>
        <path id="vector_21" fill="#000000" d="M113.73 165.809c-0.387 -0.343 -0.766 -0.817 -0.35 -1.122 0.781 -0.573 0.351 -0.171 8.161 -1.02 0.626 -0.068 0.438 -0.104 4.639 2.709 0.665 0.446 0.83 0.67 0.748 1.09 -0.098 0.503 -0.846 0.384 -3.884 0.649 -6.701 0.585 -5.393 1.169 -9.314 -2.307v0.001Z" stroke-width="1"></path>
        <path id="vector_22" fill="#000000" d="M81.101 167.502c1.582 0.169 1.479 0.036 2.65 1.351 2.968 3.335 2.361 2.665 -3.217 3.267 -3.297 0.356 -4.264 0.768 -5.622 -0.688 -3.319 -3.56 -4.65 -3.006 6.189 -3.93Z" stroke-width="1"></path>
        <path id="vector_23" fill="#000000" d="M51.684 178.233c-0.921 -0.924 0.917 -1.042 2.028 -1.173 5.553 -0.651 6.113 -0.889 7.231 0.059 0.816 0.693 2.923 2.456 3.55 3.324 0.304 0.421 -0.64 0.789 -1.331 0.807 -9.439 0.251 -7.878 0.595 -11.479 -3.018l0.001 0.001Z" stroke-width="1"></path>
      </g>
      <path id="vector_24" fill="#000000" d="M180.243 178.246c0.021 -6.111 -2.38 -6.671 -9.615 -10.077 -30.314 -14.272 -30.776 -7.412 -28.03 -11.182 1.639 -2.25 1.331 -4.833 0.75 -15.82 -0.587 -11.099 -1.431 -23.053 -2.775 -34.741 -0.856 -0.366 -1.316 -1.223 -1.573 -2.118 1.321 10.745 2.515 23.616 3.299 38.267 0.71 13.271 1.522 14.871 -7.67 16.471 -8.918 1.554 -61.357 5.386 -61.38 5.386 -49.509 0.946 -49.578 3.92 -51.536 -5.882 -2.095 -10.489 -4.485 -33.606 -4.488 -33.626 -0.484 -4.254 -2.91 -42.1489 -2.547 -49.3939 0.259 -5.167 1.338 -6.768 7.894 -7.466 17.388 -1.853 63.424 -2.538 72.866 -2.516 0.218 -0.495 0.447 -1 0.685 -1.509 -26.116 0.033 -58.759 1.211 -70.491 2.322 -7.35 0.696 -11.821 0.69 -12.222 8.108 -1.085 20.111 3.449 84.8959 9.142 90.3089 1.157 1.1 2.028 1.237 2.869 1.77 -1.223 0.466 -2.686 0.647 -2.592 2.581 0.299 6.154 1.056 8.669 7.176 13.719 24.259 20.019 14.361 11.553 140.951 1.251 10.619 -0.864 9.274 -1.966 9.287 -5.853Zm-90.471 5.391c-10.696 1.289 -16.052 1.934 -16.067 1.936 -2.71 0.506 -19.837 0.86 -19.837 0.807 -7.197 0 -9.574 -0.839 -14.06 -3.914 -10.921 -7.487 -13.156 -10.686 -14.985 -12.771 -3.887 -4.429 6.893 0.568 99.291 -8.095 15.454 -1.449 14.867 -5.036 34.872 3.244 34.93 14.458 27.476 7.139 -69.214 18.793Z" stroke-width="1"></path>
    </g>
    <g id="rocket">
      <path id="vector_25" fill="#000000" d="M176.38 6.75721c-0.571 -2.552 -4.448 -1.873 -6.968 -1.177 -5.994 1.654 -18.012 6.08499 -28.716 13.99999 -4.378 3.237 -12.437 12.265 -14.574 15.04 -7.22 9.377 -6.76 10.863 -7.661 10.697 -2.377 -0.439 -9.238 0.7 -14.185 5.176 -5.526 5 -12.094 20.04 -11.822 22.987 0.13 1.408 1.058 2.097 2.24 2.487 1.659 0.548 3.271 0.032 6.815 -0.91 3.331 -0.885 3.726 -1.71 3.845 -1.152 0.496 2.314 1.921 2.723 1.283 3.532 -0.18 0.229 -0.558 1.529 -0.887 2.206 -1.485 3.054 1.701 4.397 1.063 4.76 -7.722 4.396 -14.747 18.1038 -11.271 16.6378 0.206 -0.087 0.183 -0.158 0.681 -0.487 0.002 -0.13 -0.011 -0.082 0.055 -0.187 0.13 0.302 -0.273 0.217 -3.39 11.287 -0.96 3.409 -1.057 4.748 -4.108 9.981 -1.482 2.542 -4.68 7.194 -6.79 10.029 -6.333 8.509 -4.577 7.114 -5.16 5.123 -0.43 -1.47 -1.765 -1.879 -1.811 -2.003 -0.073 -0.199 1.218 -1.5 0.393 -4.097 -0.887 -2.791 -3.923 -2.329 -4.264 -2.512 -0.131 -0.071 -0.434 -4.799 -4.68 -6.849 -5.013 -2.421 -9.188 0.956 -9.252 5.178 -0.013 0.876 -0.553 -1.404 -4.538 -2.396 -5.626 -1.401 -12.011 3.827 -10.237 10.64 0.494 1.897 1.527 2.775 1.125 2.869 -0.549 0.128 -1.381 0.053 -2.442 0.64 -1.95 1.079 -2.469 3.31 -1.996 4.513 0.784 1.991 1.337 2.192 1.513 2.631 -0.105 0.039 -6.24 0.743 -3.228 5.784 0.105 0.176 0.151 0.293 -0.315 0.336 -2.025 0.187 -4.033 1.902 -3.557 3.845 1.286 5.251 3.733 5.87 68.218 -0.425 6.25 -0.61 17.791 -1.438 22.312 -4.001 2.142 -1.214 0.642 -3.976 -3.203 -3.973 -1.116 0 -1.447 -2.292 -3.585 -2.208 -2.154 0.084 -1.72 0.581 -2.103 -0.288 -0.467 -1.058 -1.141 -1.946 -2.229 -2.403 -2.985 -1.254 -4.91 -0.333 -7.517 1.479 -0.487 0.338 -0.286 -0.99 -1.701 -1.785 -2.545 -1.431 -6.07 0.578 -6.092 0.583 0.885 -4.586 -1.964 -6.534 -6.129 -5.489 -4.598 1.154 -7.565 5.484 0.437 -3.843 7.549 -8.799 3.835 -4.482 11.876 -12.103 1.308 -1.239 0.373 -0.24 0.498 1.696 0.048 0.741 0.622 1.159 1.756 0.441 5.583 -3.534 6.98 -4.364 8.845 -6.088 3.562 -3.292 5.093 -6.083 5.359 -6.323 0.151 0.466 -0.046 1.438 0.082 1.966 0.778 3.205 7.1 -10.022 7.492 -14.1458 0.037 -0.389 1.918 0.83 3.073 0.018 1.136 -0.798 2.236 -1.637 3.155 -2.686 0.768 -0.878 1.8 0.34 3.329 -0.336 0.505 -0.224 -0.144 1.987 0.432 5.6278 0.164 1.038 0.516 3.295 0.985 4.232 3.753 7.494 17.922 -10.1898 21.222 -21.9078 1.127 -4.001 0.534 -8.553 -0.626 -11.485 -0.354 -0.894 14.405 -17.276 16.91 -38.898 0.899 -7.757 1.959 -17.687 0.041 -26.26299l0.002 -0.001ZM105.092 72.6892c-2.616 0.723 -11.903 4.328 -11.245 0.055 0.519 -3.374 4.356 -12.164 9.702 -19.055 5.716 -7.367 13.415 -6.888 13.415 -6.98 1.66 0 1.438 -1.017 -4.033 9.364 -1.225 2.325 -6.011 12.512 -7.316 16.135 -0.101 0.281 -0.224 0.397 -0.524 0.48l0.001 0.001Zm16.43 38.2238c-0.098 -0.341 0.235 -2.894 0.169 -4.014 -0.018 -0.304 -0.382 -1.184 -0.713 -0.75 -0.583 0.764 -4.11 10.555 -15.301 16.099 -0.16 -0.238 0.491 -4.506 -0.828 -3.546 -8.607 6.266 -21.35 22.541 -20.662 23.154 0.777 0.693 1.662 -1.505 5.183 -3.068 9.75 -4.329 6.385 4.527 7.819 4.629 0.478 0.034 1.287 -0.751 2.54 -1.081 1.601 -0.422 3.758 -0.281 4.387 1.303 1.166 2.938 1.714 -0.097 5.379 -0.978 1.863 -0.448 3.78 0.332 4.668 2.551 0.226 0.565 0.341 1.281 1.26 0.999 1.175 -0.36 2.291 -1.033 3.315 0.091 0.93 1.022 0.748 1.726 1.797 1.689 3.358 -0.118 11.213 3.123 -14.366 5.491 -39.497 3.656 -65.432 6.329 -69.663 4.257 -1.395 -0.683 -2.254 -2.636 -1.141 -4.058 1.241 -1.585 3.958 -1.056 3.543 -1.902 -0.79 -1.614 -1.279 -2.153 -1.209 -3.623 0.037 -0.782 2.11 -1.64 3.073 -1.747 0.272 -0.03 0.521 0.018 1.587 0.085 0.658 0.041 0.768 -0.432 0.336 -0.793 -1.761 -1.469 -3.66 -4.71 -1.548 -6.113 2.176 -1.445 4.323 -0.3 4.604 -0.773 0.169 -0.284 0.057 -0.277 -1.452 -2.874 -3.303 -5.684 2.396 -11.906 8.027 -10.56 4.721 1.129 4.3 3.404 5.279 3.53 0.565 0.073 0.587 -0.169 0.654 -1.719 0.267 -6.173 7.051 -7.15 10.395 -2.435 1.129 1.592 1.038 2.46 1.392 4.003 0.131 0.569 3.509 0.153 4.218 2.096 1.034 2.835 -2.009 4.153 -0.281 4.753 0.869 0.301 1.566 0.686 1.671 1.573 0.073 0.615 0.284 1.107 0.171 1.497 -0.616 2.138 -0.724 2.052 -0.56 2.234 0.966 1.067 7.814 -9.414 10.838 -13.271 3.653 -4.659 5.886 -9.298 7.704 -14.933 1.463 -4.534 4.011 -14.3018 4.014 -14.5528 0.003 -0.233 -0.217 -0.364 -0.428 -0.251 -0.407 0.217 -0.798 0.802 -1.138 0.997 -0.057 -0.649 2.33 -4.604 3.109 -5.679 3.366 -4.64 7.558 -7.617 8.061 -8.079 0.674 -0.619 6.985 7.638 18.998 12.528 1.504 0.612 -3.479 12.0068 -4.901 13.2408Zm9.434 -13.8318c-5.065 1.225 -21.445 -10.948 -23.983 -14.543 -0.894 -1.266 -0.381 -2.441 0.307 -3.73 0.519 -0.974 0.412 -0.988 0.665 -0.754 8.186 7.544 13.895 11.735 25.168 16.885 0.392 0.179 -1.213 1.913 -2.157 2.142Zm1.109 -4.007c-12.804 -6.104 -22.281 -14.854 -24.176 -17.201 -2.099 -2.599 -1.193 -3.565 0.682 -7.46 3.485 -7.236 2.565 -6.399 3.69 -5.125 7.791 8.82 24.101 18.534 31.695 22.155 1.806 0.861 2.138 -0.367 -2.325 4.517 -4.149 4.541 -4.067 5.735 -9.566 3.114Zm21.085 1.926c-3.098 4.209 -6.026 8.1158 -10.617 10.5248 -4.435 2.328 -3.678 -10.9848 -3.431 -11.2288 19.43 -19.251 17.745 -20.298 19.421 -21.4 0.379 0.617 0.809 4.988 0.837 4.991 -0.734 6.701 -1.452 10.651 -6.209 17.114l-0.001 -0.001Zm21.16 -58.739c-3.614 18.292 -15.16 34.929 -27.891 48.554 -1.617 1.73 -35.075 -21.942 -34.082 -24.094 7.499 -16.255 20.084 -35.555 35.625 -43.966 3.077 1.372 9.987 1.729 23.764 16.158 2.519 2.638 2.72 2.654 2.583 3.347l0.001 0.001Zm0.24 -1.817c-0.937 -1.184 -5.649 -9.504 -19.443 -16.071 -3.683 -1.754 -5.681 -2.085 -6.042 -2.238 0.994 -1.276 16.929 -8.77099 23.245 -9.97399 2.748 -0.523 2.559 0.025 2.935 2.359 1.394 8.64099 0.306 22.81899 -0.695 25.92399Z" stroke-width="1"></path>
      <path id="vector_26" fill="#000000" d="M109.209 90.5599c-0.638 -0.586 -0.65 -0.78 -2.378 1.653 -3.927 5.529 -6.362 11.4711 -4.618 10.3971 1.534 -0.944 0.96 -1.486 -2.268 7.153 -1.991 5.329 -1.952 5.258 -1.559 5.491 0.423 0.251 0.624 -0.224 1.927 -1.532 0.002 -0.261 0.086 -0.192 0.071 -0.053 -0.002 0.023 -2.127 4.515 -2.295 4.956 -1.39 3.64 11.732 -9.259 14.517 -11.719 0.057 0.94 -0.222 2.828 0.421 2.14 1.898 -2.034 4.58 -6.463 5.951 -9.019 1.848 -3.4451 -0.441 -0.9011 -9.769 -9.4691v0.002Z" stroke-width="1"></path>
      <path id="vector_27" fill="#000000" d="M133.737 38.1603c-4.478 5.768 -4.144 14.2 1.212 19.544 6.023 6.009 16.101 6.454 22.162 -0.855 5.615 -6.771 4.41 -15.894 -1.534 -21.121 -6.746 -5.933 -16.901 -3.929 -21.839 2.432h-0.001Zm0.112 16.478c-2.908 -4.833 -2.762 -10.439 -0.103 -14.72 4.324 -6.962 13.709 -8.627 19.786 -4.412 6.153 4.267 8.607 13.218 3.31 20.218 -6.033 7.974 -17.938 7.315 -22.993 -1.086Z" stroke-width="1"></path>
      <path id="vector_28" fill="#000000" d="M152.757 38.1624c-7.435 -5.718 -18.529 -0.512 -18.486 9.254 -0.206 2.878 1.929 7.764 6.518 10.08 11.442 5.775 22.994 -10.855 11.968 -19.334Zm-13.99 5.042c1.018 -1.188 8.146 -3.468 8.973 -3.265 0.182 0.045 0.265 0.237 0.024 0.436 -0.064 0.053 -7.125 3.636 -8.863 3.637 -0.417 0 -0.605 -0.258 -0.134 -0.808Zm14.512 6.46c-0.307 0.452 -10.625 4.865 -11.3 4.819 -0.1 -0.026 -0.589 0.013 -0.726 -0.377 -0.082 -0.229 0.03 -0.478 0.176 -0.596 2.052 -1.659 12.65 -5.045 11.85 -3.846Zm-0.735 -5.5c-14.382 5.575 -14.779 5.774 -14.954 5.685 -3.471 -1.735 14.897 -6.864 16.314 -6.759 0.189 0.009 0.243 0.095 0.255 0.167 0.023 0.142 0.043 0.265 -1.616 0.908l0.001 -0.001Z" stroke-width="1"></path>
    </g>
  </g>
</svg>