<svg xmlns="http://www.w3.org/2000/svg" fill="none" viewBox="0 0 200 200" id="Business-Strategy-New-Talent--Streamline-Bruxelles">
  <desc>
    Business Strategy New Talent Streamline Illustration: https://streamlinehq.com
  </desc>
  <path fill="#ffffff" d="M165.923 43.869c0.546 0.8103 0.782 1.79 0.665 2.76 -0.07 1.3712 -0.25 2.7346 -0.539 4.077 -6.829 25.114 -5.534 23.678 -8.633 33.56 -1.076 3.432 -0.922 3.944 -1.642 4.1 -0.358 0.08 -0.468 0.448 -0.6 0.742 -0.1 0.221 0.087 0.37 0.285 0.477 0.629 0.342 0.478 -0.17 -1.3 5.292 -1.236 3.8 -1.781 6.714 -3.153 10.181 0 0.025 -15.475 56.352 -15.481 56.382 -0.251 1.348 -1.907 5.315 -2.967 9.906 -1.176 5.095 -1.474 3.749 -2.646 9.165 -0.208 0.962 -0.512 1.905 -0.791 2.849 -0.069 0.232 -0.213 0.442 -0.3 0.67 -2.869 7.347 -3.334 10.177 -9.9 9.088 -1.856 -0.308 -9.854 -1.927 -14.659 -3.361 -0.012 0 -32.407 -8.533 -39.084 -10.478 -2.355 -0.679 -13.844 -4.279 -14.945 -4.579 -32.918 -8.977 -10.829 -2.558 -26.744 -7.934 -13.336 -4.5 -10.79 -4.059 -12.765 -4.827 -1.25799 -0.489 -1.487 -2.823 -1.251 -3.071 0.1 -0.111 0.741 0.356 2.337 1.075 6.428 2.9 24.249 7.943 43.71 13.752 26.087 7.787 55.25 16.276 65.126 16.413 0.616 0.085 1.243 0.004 1.817 -0.234 0.574 -0.237 1.075 -0.624 1.45 -1.119 1.421 -2.109 2.479 -4.442 3.131 -6.9 0.294 -1.273 0.247 0.48 2.02 -6.645 0 -0.024 10.37 -35.414 13.149 -46.6 0.531 -2.139 1.146 -5.433 5.618 -19.66 0.311 -0.988 0.78 -3.3 1.078 -4.367 1.373 -4.912 1.487 -4.569 2.1 -6.561 0.569 -1.856 0.831 -3.3 1.835 -6.382 2.892 -8.88 6.148 -19.566 8.057 -28.409 0.42 -1.946 2.838 -10.806 4.12 -16.763 0.385 -1.804 0.251 -3.861 0.902 -2.599Z" stroke-width="1"></path>
  <path fill="#ffffff" d="M163.43 40.3001c1.487 2.248 0.061 6.269 -0.66 9.149 -1.389 5.546 -1.076 5.419 -1.807 8.055 -0.137 0.494 -5.035 19.659 -5.042 19.684 -0.313 1.041 -0.718 2.055 -1.026 3.1 -1.272 4.3 -1.382 5.392 -3.277 10.656 -1.239 3.441 -1.534 6.071 -2.631 8.786 -0.91 2.5529 -1.645 5.1659 -2.2 7.8189 -6.773 22.786 -7.42 27.666 -8.575 31.523 -13.171 43.98 -12.859 49.236 -17.971 49.641 -2.806 -0.261 -5.582 -0.778 -8.294 -1.545 -2.087 -0.547 -6.2 -0.854 -11.33 -2.634 -0.028 0 -29.009 -7.661 -29.594 -7.807 -7.246 -1.808 -11.753 -3.677 -29.887 -8.655 -0.025 0 -11.707 -3.13 -13.477 -3.957 -2.721 -1.27 -6.325 -1.981 -13.584 -4.817 -8.822 -3.446 -7.65 -0.757 0.374 -26.017 8.9 -28.006 9.605 -33.3199 10.917 -36.7419 0.434 -1.122 7.834 -24.539 9.034 -29.049 0.365 -1.37 3.243 -8.788 5.1 -15.169 1.19 -4.09 2.391 -8.447 3.761 -12.238 7.71 -21.325 7.814 -27.643 12.674 -27.2 5.454 0.495 15.505 2.877 21.282 4.073 2.72 0.563 2.765 0.782 2.636 1.157 -1.1 3.2 -1.168 3.723 -1.766 3.588 -17.064 -3.825 -19.231 -4.706 -21.121 -4.589 -1.775 0.11 -2.388 1.338 -3.628 4.777 -10.519 29.2 -33.91 107.5569 -38.78 122.7919 -1.01 3.16 -1.656 4.921 -1.884 6.019 -0.494 2.384 0.93 3.128 3.373 3.843 1.827 0.534 5.192 1.782 5.453 1.909 1.215 0.59 5.875 1.615 8.333 2.811 2.157 1.05 69.585 20.069 83.31 23.03 6.2 1.338 7.542 2.4 8.863 -2.6 0.503 -1.168 0.922 -2.371 1.253 -3.6 16.546 -55.755 13.035 -49.5 27.165 -95.1349 0.99 -3.2 0.907 -1.779 4.429 -15.245 0.464 -1.776 0.845 -4.244 1.484 -6.6 0.913 -3.373 0.661 -1.978 1.454 -5.405 1.981 -8.566 2.888 -10.033 -2.1 -11.833 -2.379 -0.859 -16.4 -4.7 -22.429 -6.541 -1.909 -0.582 -1.288 -0.053 -0.274 -3.91 0.234 -0.89 0 -0.579 3.526 0.324 4.438 1.132 25.114 5.829 26.916 8.552Z" stroke-width="1"></path>
  <path fill="#ffffff" d="M150.115 41.745c5.4 1.6 8.523 1.8 7.7 5.143 -3.314 13.461 -4.8 21.687 -7.959 31.286 -7.572 23.021 -18.989 67.015 -19 67.038 -0.3 1.464 -7.979 26.618 -8.42 28.774 -0.518 2.413 -1.309 4.76 -2.357 6.994 -0.738 1.764 -2.079 0.824 -6.393 -0.109 -0.989 -0.214 -3.437 -0.561 -3.709 -0.631C50.09 164.8 62.6 167.063 50.21 163.716c-30.056 -8.118 -13.4 -3.929 -24.675 -7.349 -7.912 -2.4 -9.151 -3.454 -10.514 -3.8 -0.1899 -0.05 -0.3668 -0.141 -0.5187 -0.265 -0.152 -0.124 -0.2755 -0.28 -0.3623 -0.456 -0.0867 -0.176 -0.1346 -0.369 -0.1405 -0.565 -0.0059 -0.197 0.0305 -0.392 0.1065 -0.573 15.228 -46.9 10.185 -32.688 14.763 -48.331 1.293 -4.418 25.523 -81.777 27.166 -83.289 0.908 -0.835 -0.38 -1.116 22.008 4.08 0.629 0.146 -0.64 1.836 1.185 2.5 4.282 1.558 2.4 0.583 24.8 7 6.467 1.851 5.758 1.484 5.834 2.194 0.236 1.7649 0.042 3.5607 -0.564 5.235 -0.95 2.5 -4 2.846 -7.068 2.225 -1.824 -0.369 -10.049 -3.307 -12.918 -5.358 -0.318 -0.227 -0.538 -0.283 -0.821 0 -0.976 0.974 4.869 3.715 7.357 9.377 0.8529 2.1861 1.4102 4.4763 1.657 6.81 0.293 6.014 -5.71 9.047 -11.578 9.565 -0.591 0.053 -1.679 0.161 -1.662 0.755 0.056 2.017 13.265 -0.317 19.12 8.9 0.245 0.385 0.552 0.69 0.94 0.455 0.388 -0.235 0.09 -0.819 -0.453 -1.687 -1.472 -2.0972 -3.455 -3.7838 -5.761 -4.9 -4.249 -2.469 -8.515 -2.255 -9.514 -2.705 1.381 -0.871 8.403 -1.734 9.922 -8.164 0.6 -2.532 -1.107 -10.332 -4.308 -13.516 -5.744 -5.716 6.429 3.9 13.527 1.271 2.787 -1.032 3.363 -5.377 3.286 -7.095 -0.075 -1.7 -0.454 -1.579 2.431 -0.779 14.248 3.95 15.9 5.561 17.034 3.541 1.09 -1.941 0.665 -2.591 1.32 -2.416 9.317 2.495 18.279 5.361 18.306 5.369Z" stroke-width="1"></path>
  <path fill="#2dd4bf" d="M149.221 51.163c0.462 0.067 0.5 0.959 0.336 1.435 -0.59 1.724 -3.323 12.093 -7.021 24.826 -0.541 1.864 -0.1 -0.017 -2.49 8.368 -0.622 2.189 -0.494 3.091 -2.225 3.081 -7.773 -1.233 -24.164 -6.238 -28.139 -8.012 -1.608 -0.717 -0.559 -2.827 0.964 -8.017 8.967 -30.553 7.208 -25.515 8.6 -29.832 0.267 -0.828 -0.225 -0.734 6.121 1.16 0.933 0.278 22.904 6.853 23.854 6.991Z" stroke-width="1"></path>
  <path fill="#ffffff" d="M128.226 52.12c0.855 -0.4908 1.813 -0.7773 2.797 -0.837 0.985 -0.0597 1.97 0.1088 2.878 0.4926 0.909 0.3838 1.716 0.9723 2.36 1.7197 0.643 0.7474 1.105 1.6334 1.35 2.5888 0.245 0.9555 0.265 1.9545 0.06 2.9192 -0.206 0.9647 -0.631 1.8688 -1.243 2.6419 -0.613 0.7731 -1.396 1.3942 -2.288 1.8148 -0.892 0.4207 -1.869 0.6294 -2.855 0.61 -5.075 0.116 -7.662 -5.6 -5.915 -8.68 0.562 -0.99 0.957 -2.36 2.856 -3.27Z" stroke-width="1"></path>
  <path fill="#ffffff" d="M133.946 27.2459c0.331 0.0899 0.617 0.3009 0.801 0.5912 0.183 0.2903 0.251 0.6389 0.19 0.9768 -0.027 0.848 -0.2 1.235 -1.113 0.772 -0.355 -0.182 0.275 -0.783 -0.514 -1.148 -0.309 -0.143 -0.517 -0.126 -0.675 0.188 -0.7 1.387 -1.978 6.954 -2.955 8.977 -0.727 1.506 -0.429 0.589 -16.981 -4.019 -1.615 -0.449 -1.907 -0.247 -2.043 -0.826 -0.928 -3.94 -1.085 -3.459 0.519 -2.282 2.095 1.3232 4.529 2.0103 7.006 1.978 4.189 -0.407 5.015 -1.313 8.616 -3.356 0.424 -0.295 0.759 0.1 2.561 0.661 0.071 0.0389 0.15 0.0626 0.23 0.0698 0.081 0.0072 0.162 -0.0023 0.239 -0.0279 0.077 -0.0257 0.148 -0.0669 0.208 -0.1211 0.061 -0.0542 0.109 -0.1202 0.143 -0.194 0.033 -0.0738 0.051 -0.1537 0.053 -0.2347 0.001 -0.0811 -0.014 -0.1615 -0.046 -0.2364 -0.031 -0.0748 -0.077 -0.1425 -0.135 -0.1987 -0.059 -0.0562 -0.128 -0.0997 -0.204 -0.128 -1.724 -0.723 -1.992 -0.4 -1.551 -0.927 1.74 -2.081 0.652 -2.061 5.651 -0.515Z" stroke-width="1"></path>
  <path fill="#ffffff" d="M128.07 25.5621c0.7 0.2 0.317 0.312 -1.041 1.852 -0.072 0.1018 -0.178 0.1745 -0.299 0.205 -0.121 0.0304 -0.249 0.0166 -0.361 -0.039 -0.816 -0.356 -22.2 -6.182 -29.868 -8.034 -12.345 -2.983 -13.177 -3.857 -13.494 -3 -0.072 0.193 -0.082 0.418 0.019 0.463 1.322 0.582 6.138 1.918 19.361 5.069 5.517 1.315 22.866 6.081 23.245 6.361 -0.047 0.0621 -0.101 0.1185 -0.161 0.168 -3.781 2.292 -4.478 2.4 -8.16 2.8 -7.365 -1.353 -7.361 -3.668 -9.449 -6.366 -0.283 -0.365 -0.477 -0.424 -0.774 -0.247 -1.018 0.608 1.227 1.946 2.351 7.545 0.042 0.208 0.118 0.5 -0.19 0.415 -2.383 -0.634 -26.425 -6.984 -29 -8.143 -1.165 -0.525 -1.2 -0.031 1.026 -6.659 1.335 -3.973 1.179 -3.945 2.245 -3.811 1.38 0.167 41.041 10.434 44.55 11.421Z" stroke-width="1"></path>
  <path fill="#ffffff" d="M137.21 68.593c-0.03 -0.126 -0.5 -2.472 -2.09 -3.334 -1.5 -0.808 -4.3 -0.062 -6.13 -0.808 -3.462 -1.408 -3.974 -3.7 -6.7 -2.72 -2.52 0.908 -3.682 4.116 -4.29 5.71 -0.491 1.284 -1.52 4.541 -2.661 8.486 -0.132 0.455 0.388 0.816 0.712 0.93 11.594 4.076 5.235 1.783 15.085 4.771 3.692 1.12 2.971 0.916 3.709 -1.445 1.84 -5.899 2.985 -8.945 2.365 -11.59Z" stroke-width="1"></path>
  <path fill="#ffffff" d="M121.807 22.241c0.039 0.509 -0.277 0.261 -3.131 -0.47 -1.064 -0.272 -1.7 -0.23 -1.629 -0.932 0.343 -3.353 0.3 -5.737 -2.052 -7.367 -1.548 -1.0582 -3.343 -1.6995 -5.211 -1.862 -3.009 -0.353 -4.765 0.273 -6.8 3.942 -1.733 3.12 0.245 2.07 -5.5 0.937 -0.247 -0.049 -0.329 -0.218 -0.153 -0.391 1.511 -1.486 1.556 -4.887 5.8 -7.39996 2.651 -1.569 3.9 -1.361 5.935 -1.412 1.682 -0.06612 3.36 0.19086 4.945 0.757 11.267 4.18996 7.558 11.04896 7.796 14.19796Z" stroke-width="1"></path>
  <path fill="#1c1c1e" d="M192.9 55.551c0.6 0.171 0.742 0.966 -0.025 1.113 -1.748 0.334 -2.762 0.185 -4.834 1.167 -7.943 3.763 -16.512 3.066 -20.355 15.552 -0.791 2.572 -0.476 7.4 -0.21 9.572 0.278 2.263 1.181 3.756 2.76 6.677 0.134 0.249 0.247 0.262 0.742 1.125 0.232 0.406 -0.144 0.747 -0.547 0.532 -4.375 -2.327 -1.48 -1.553 -7.55 -3 -1.531 -0.3633 -3.133 -0.2993 -4.631 0.185 -0.238 0.0524 -0.455 0.1761 -0.621 0.3548 -0.166 0.1787 -0.274 0.4037 -0.309 0.6452 -0.463 2.28 -0.983 3 -2.735 8.747 -1.18 3.867 -0.447 2.31 -1.909 6.291 -0.774 2.144 -1.383 4.344 -1.823 6.58 -0.794 3.057 -1.975 5.778 -2.631 8.656 -0.332 1.609 -0.766 3.195 -1.3 4.748 -1.525 5.02 -1.52 7.385 -2.493 9.975 -0.066 0.176 -1.236 4.234 -1.681 6.37 -0.445 2.136 -2.581 8.225 -2.968 10.488 -0.538 3.148 -2.057 6.209 -3.022 10.6 -0.312 1.421 -2.006 5.688 -2.967 10.027 -0.626 2.825 -1.447 3.957 -2.668 9.207 -0.386 1.659 -2.806 8.248 -2.968 8.655 -3.047 7.629 -6.407 6.046 -28.559 0.22 -42.456 -11.165 -33.047 -9.4 -61.882 -17.281 -10.079 -2.754 -6.1 -1.886 -15.488 -5.059 -6.162 -2.082 -10.789 -3.484 -12.71299 -4.874 -1.924 -1.39 -1.168 -2.814 -2.421 -5.166 -0.70688 -2.013 -0.67141 -4.211 0.1 -6.2C8.82701 147.12 25.868 89.019 37.56 54.225c0 -0.027 3.381 -11.664 3.516 -12 6.7 -16.494 7.743 -28.67 13.03 -30.5 2.473 -0.856 18.356 3.067 25.782 4.636 0.676 0.143 0.371 0.088 1.543 -2.618 0.1335 -0.3005 0.3589 -0.551 0.6436 -0.7154 0.2848 -0.1644 0.6144 -0.2343 0.9414 -0.1996 2.848 0.521 9.911 2.441 10.011 2.468 4.975 1.317 2.9 -1.612 7.2 -6.13301 3.156 -3.316 7 -3.555 11.573 -3.106 2.352 0.39208 4.607 1.23157 6.643 2.473 1.575 0.89864 2.872 2.21331 3.749 3.80001 2.225 3.776 0.968 7.542 0.833 9.523 -0.086 1.254 0.67 1.147 4.926 2.278 1.348 0.358 1.37 0.425 1.548 0.183 5.525 -7.515 7.237 -18.60001 7.666 -19.10601 1.7 -2.007 1.709 14.10001 8.418 19.17501 1.885 1.426 3.479 2.866 7.151 3.1 1.525 0.2692 3.088 0.2373 4.6 -0.094 4.985 -0.9617 9.569 -3.3889 13.166 -6.971 0.576 -0.532 1.289 -1.669 1.61 -2.017 0.141 -0.154 0.735 -0.392 0.672 0.22 -0.075 0.741 -0.026 0.408 -0.885 2.322 -0.962 2.144 -2.156 9.773 -2.245 10.972 -0.469 3.777 -0.023 7.6114 1.3 11.18 2.871 7.691 15.36 10.584 21.948 12.456Zm-3.25 0.5c1.318 -0.451 -12.573 -2.176 -18.012 -9.58 -5.506 -7.495 -2.327 -18.052 -2.109 -20.906 0.086 -0.6474 0.229 -1.2861 0.425 -1.909 0.935 -3.791 -0.676 1.9 -11.694 4.7 -2.327 0.591 -3.144 0.563 -6.363 0.248 -2.916 -0.286 -4.8 -1.563 -6.991 -3.247 -2.337 -1.793 -3.613 -5 -4.436 -6.709 -1.93 -4 -2.068 -7.528 -3.047 -9.97301 -0.455 1.1 -0.352 1.91601 -1.521 4.97501 -1.5 3.937 -1.953 5.589 -2.923 7.332 -2.285 4.11 -2.8 3.769 -2.1 3.982 2.886 0.883 6.19 1.331 5.326 4.176 -0.069 0.23 -0.028 0.5 -0.091 0.725 -0.195 0.707 -0.405 -0.119 20.03 5.673 0.393 0.111 0.762 0.312 1.155 0.42 3.276 0.9 6.857 1.275 9.041 5.5 1.361 2.633 1.7 2.967 1.748 4.891 -0.824 5.9056 -2.113 11.7368 -3.857 17.439 -0.005 0.025 -4.2 17.185 -4.733 18.809 -1.741 5.3 -2.07 4.865 -0.448 4.54 4.039 -0.809 8.111 1.355 9.34 1.551 -0.366 -1.731 -2.018 -2.819 -2.226 -7.8 -0.079 -1.907 -0.377 -5.936 0.619 -8.438 4.525 -11.377 9.045 -11.134 19.59 -15.119 1.843 -0.695 1.197 -0.566 3.279 -1.278l-0.002 -0.002Zm-23.064 -9.424c0.116 -0.9699 -0.12 -1.9492 -0.665 -2.76 -0.653 -1.271 -0.516 0.793 -0.905 2.6 -1.281 5.957 -3.705 14.818 -4.12 16.763 -1.887 8.848 -5.166 19.536 -8.057 28.409 -1 3.081 -1.268 4.526 -1.835 6.382 -0.608 1.991 -0.724 1.649 -2.1 6.561 -0.3 1.066 -0.768 3.386 -1.078 4.367 -4.489 14.231 -5.087 17.521 -5.618 19.66 -2.779 11.182 -13.143 46.572 -13.149 46.6 -1.6 7.163 -1.734 5.371 -2.02 6.645 -0.648 2.46 -1.706 4.793 -3.131 6.9 -0.375 0.495 -0.876 0.882 -1.45 1.119 -0.574 0.238 -1.201 0.319 -1.817 0.234 -9.876 -0.137 -39.039 -8.626 -65.126 -16.413 -19.461 -5.809 -37.281 -10.857 -43.71 -13.752 -1.6 -0.719 -2.22699 -1.185 -2.33699 -1.075 -0.249 0.245 0 2.59 1.25099 3.071 1.978 0.76 -0.572 0.323 12.765 4.827 15.915 5.375 -6.171 -1.052 26.744 7.934 1.1 0.3 12.59 3.9 14.949 4.582 6.677 1.945 39.072 10.488 39.072 10.488 4.8 1.434 12.8 3.057 14.659 3.361 6.6 1.08 7.023 -1.756 9.894 -9.093 0.089 -0.228 0.233 -0.438 0.3 -0.67 0.279 -0.944 0.582 -1.887 0.791 -2.849 1.179 -5.417 1.469 -4.07 2.646 -9.165 1.061 -4.592 2.693 -8.563 2.968 -9.906 0 -0.027 15.47 -56.355 15.48 -56.382 1.322 -3.481 1.918 -6.38 3.153 -10.181 1.774 -5.463 1.928 -4.949 1.3 -5.292 -0.2 -0.107 -0.384 -0.248 -0.284 -0.477 0.127 -0.292 0.247 -0.661 0.6 -0.742 0.719 -0.165 0.566 -0.673 1.642 -4.105 3.1 -9.892 2.443 -8.279 8.633 -33.56 0.306 -1.3406 0.492 -2.7056 0.557 -4.079l-0.002 -0.002Zm-3.818 2.822c0.72 -2.873 2.154 -6.893 0.66 -9.149 -1.8 -2.722 -22.476 -7.435 -26.913 -8.575 -3.531 -0.907 -3.292 -1.214 -3.526 -0.324 -1.013 3.857 -1.634 3.328 0.275 3.91C139.3 37.149 153.317 41 155.7 41.854c4.989 1.8 4.081 3.266 2.1 11.832 -0.793 3.43 -0.539 2.033 -1.454 5.406 -0.64 2.359 -1.02 4.827 -1.484 6.6 -3.515 13.476 -3.437 12.048 -4.431 15.262 -14.112 45.654 -10.624 39.382 -27.165 95.135 -0.331 1.228 -0.75 2.432 -1.253 3.6 -1.32 4.99 -2.669 3.934 -8.851 2.6 -13.73 -2.966 -81.162 -21.978 -83.315 -23.028 -2.459 -1.2 -7.114 -2.227 -8.334 -2.811 -0.269 -0.129 -3.625 -1.375 -5.453 -1.909 -5.075 -1.484 -3.67 -3.027 -1.488 -9.862 4.862 -15.233 28.26 -93.591 38.767 -122.779 2.154 -5.983 2.428 -5.332 10.369 -3.519 6.3 1.438 13.2 3.068 14.38 3.331 0.6 0.134 0.667 -0.389 1.766 -3.588 0.129 -0.376 0.091 -0.593 -2.636 -1.157 -2.727 -0.564 -16.128 -3.656 -21.282 -4.067 -4.865 -0.392 -4.962 5.868 -12.674 27.2 -1.37 3.791 -2.571 8.16 -3.761 12.238 -1.857 6.365 -4.74 13.783 -5.109 15.147 -1.219 4.5 -8.6 27.928 -9.024 29.054 -1.291 3.433 -2.011 8.743 -10.908 36.754 -8.02199 25.26 -9.19999 22.575 -0.373 26.017 7.258 2.832 10.866 3.546 13.584 4.818 1.77 0.828 13.452 3.956 13.477 3.956 18.134 4.981 22.656 6.791 29.887 8.655 0.586 0.151 29.566 7.8 29.593 7.807 5.116 1.818 9.244 2.088 11.331 2.634 2.712 0.766 5.488 1.284 8.294 1.546 5.1 -0.406 4.871 -5.641 17.971 -49.641 1.151 -3.868 1.792 -8.743 8.565 -31.536 0.556 -2.653 1.291 -5.265 2.2 -7.819 1.1 -2.72 1.391 -5.345 2.631 -8.786 1.9 -5.263 2 -6.359 3.277 -10.656 0.308 -1.041 0.712 -2.055 1.026 -3.1 0 -0.025 4.906 -19.195 5.042 -19.684 0.735 -2.633 0.414 -2.504 1.805 -8.053l-0.002 -0.002Zm-4.954 -2.563c0.822 -3.338 -2.338 -3.427 -7.7 -5.143 -0.028 0 -8.98 -2.877 -18.3 -5.374 -0.655 -0.176 -0.23 0.475 -1.321 2.416 -1.135 2.021 -2.786 0.4 -17.033 -3.541 -2.886 -0.8 -2.506 -0.916 -2.431 0.779 0.076 1.718 -0.494 6.063 -3.286 7.095 -7.108 2.627 -19.271 -6.987 -13.527 -1.271 3.2 3.184 4.9 10.984 4.308 13.516 -1.513 6.43 -8.541 7.3 -9.924 8.161 0.989 0.45 5.269 0.245 9.513 2.7 2.307 1.1152 4.291 2.802 5.762 4.9 0.543 0.867 0.871 1.434 0.453 1.686s-0.7 -0.072 -0.94 -0.455c-5.768 -9.267 -19.064 -6.877 -19.12 -8.9 -0.017 -0.594 1.07 -0.7 1.661 -0.755 5.869 -0.518 11.87 -3.551 11.579 -9.565 -0.2459 -2.3338 -0.8031 -4.6242 -1.657 -6.81 -2.493 -5.673 -8.335 -8.409 -7.367 -9.372 0.287 -0.287 0.5 -0.234 0.821 0 2.865 2.058 11.093 4.992 12.918 5.358 3.064 0.616 6.12 0.268 7.068 -2.225 0.607 -1.6742 0.8 -3.4701 0.564 -5.235 -0.076 -0.713 0.633 -0.343 -5.834 -2.194 -22.4 -6.413 -20.525 -5.439 -24.8 -7 -1.825 -0.664 -0.556 -2.354 -1.185 -2.5 -22.383 -5.2 -21.1 -4.915 -22.008 -4.08 -1.652 1.51 -25.877 78.869 -27.166 83.288 -4.565 15.647 0.387 1.409 -14.763 48.331 -0.0765 0.181 -0.1133 0.376 -0.1076 0.573 0.0056 0.196 0.0534 0.389 0.1402 0.566 0.0868 0.176 0.2106 0.332 0.3628 0.456 0.1523 0.124 0.3295 0.214 0.5196 0.264 1.359 0.353 2.609 1.4 10.514 3.8 11.272 3.421 -5.381 -0.769 24.675 7.349 12.391 3.347 -0.065 0.88 59.772 16.524 0.265 0.069 2.72 0.417 3.709 0.631 4.314 0.933 5.659 1.872 6.393 0.109 1.045 -2.236 1.835 -4.582 2.357 -6.994 0.441 -2.156 8.118 -27.31 8.42 -28.774 0 -0.03 11.424 -44.017 19 -67.038 3.171 -9.617 4.61 -17.662 7.962 -31.274l-0.002 -0.002Zm-22.877 -18.072c0.065 -0.3367 0 -0.6855 -0.182 -0.9763 -0.181 -0.2908 -0.466 -0.5022 -0.797 -0.5917 -5 -1.554 -3.911 -1.566 -5.646 0.529 -0.437 0.529 -0.174 0.2 1.551 0.928 0.622 0.261 0.524 1.389 -0.487 1.07 -1.767 -0.555 -2.139 -0.955 -2.562 -0.66 -3.6 2.043 -4.427 2.952 -8.616 3.356 -2.475 0.0287 -4.906 -0.6581 -7 -1.978 -1.6 -1.171 -1.446 -1.658 -0.52 2.282 0.137 0.581 0.428 0.376 2.043 0.826 16.552 4.607 16.254 5.524 16.981 4.018 0.977 -2.022 2.256 -7.589 2.955 -8.976 0.159 -0.314 0.366 -0.331 0.675 -0.188 0.789 0.364 0.157 0.969 0.515 1.147 0.89 0.446 1.053 0.1 1.09 -0.786Zm-7.908 -1.4c1.358 -1.54 1.734 -1.657 1.041 -1.852 -2.987 -0.839 -43.092 -11.255 -44.537 -11.437 -1.064 -0.134 -0.9 -0.175 -2.245 3.811 -2.243 6.657 -2.174 6.142 -1.026 6.659 2.572 1.159 26.621 7.482 29 8.143 0.309 0.087 0.232 -0.207 0.19 -0.415 -1.128 -5.6 -3.371 -6.94 -2.352 -7.545 0.3 -0.176 0.494 -0.115 0.774 0.247 2.087 2.7 2.085 5.013 9.449 6.366 3.683 -0.4 4.38 -0.495 8.161 -2.8 0.06 -0.0495 0.114 -0.1058 0.161 -0.168 -0.384 -0.28 -17.733 -5.046 -23.245 -6.361 -13.225 -3.15 -18.054 -4.486 -19.364 -5.062 -0.1 -0.045 -0.091 -0.269 -0.02 -0.462 0.317 -0.852 1.113 0.01 13.495 3 7.666 1.852 29.06 7.659 29.868 8.034 0.11 0.0529 0.235 0.0661 0.353 0.0373 0.119 -0.0288 0.224 -0.0978 0.297 -0.1953Zm-8.366 -5.643c2.855 0.739 3.182 0.989 3.144 0.47 -0.226 -3.148 3.471 -10.008 -7.792 -14.20001 -1.585 -0.56614 -3.263 -0.82312 -4.945 -0.757 -2.032 0.051 -3.284 -0.157 -5.935 1.412 -4.248 2.51401 -4.3 5.92801 -5.8 7.40001 -0.177 0.173 -0.1 0.342 0.153 0.391 5.735 1.116 3.761 2.184 5.5 -0.937 2.04 -3.667 3.794 -4.295 6.8 -3.942 1.869 0.1629 3.664 0.8049 5.212 1.864 2.349 1.63 2.407 4.015 2.052 7.367 -0.079 0.702 0.556 0.661 1.611 0.932Zm-2.836 -3.412c0.16 -1.794 -0.667 -3.588 -3.366 -4.778 -1.486 -0.4432 -3.031 -0.6593 -4.582 -0.641 -2.117 -0.131 -3.155 2.335 -4.105 3.918 -0.7 1.16 -0.388 1.159 -0.03 1.258 2.332 0.643 3.562 0.968 7.765 1.956 4.704 1.106 4.042 1.365 4.318 -1.713Z" stroke-width="1"></path>
  <path fill="#1c1c1e" d="M149.243 49.8c3.215 0.918 2.428 -1.487 -7.481 34.868 -0.529 1.941 -0.741 3.014 -0.989 3.709 -0.248 0.695 -0.828 2.448 -2.819 1.951 -5.541 -0.8841 -10.999 -2.2219 -16.321 -4 -10.443 -3.213 -11.977 -3.669 -13.386 -4.824 -0.988 -0.81 -1 -2.062 1.914 -11.806 5.2 -17.353 6.429 -22.352 7.961 -27.338 0.759 -2.47 0.899 -1.19 31.121 7.44Zm0.314 2.8c0.168 -0.477 0.126 -1.368 -0.336 -1.435 -0.955 -0.138 -22.924 -6.714 -23.856 -6.991 -6.344 -1.889 -5.854 -1.979 -6.121 -1.16 -1.4 4.316 0.363 -0.715 -8.605 29.839 -1.525 5.193 -2.575 7.3 -0.965 8.017 3.99 1.784 20.453 6.8 28.139 8.013 1.731 0 1.607 -0.894 2.226 -3.082 2.372 -8.389 1.948 -6.5 2.49 -8.368 3.703 -12.743 6.422 -23.116 7.028 -24.833Z" stroke-width="1"></path>
  <path fill="#1c1c1e" d="M128.191 70.7c0.151 -0.188 3.754 -4.2 4.043 -5.151 -0.427 -0.119 -0.22 -0.034 -1.847 -0.1 -0.566 -0.022 -0.9 0.71 -1.365 1.024 -0.267 0.927 -0.682 4.009 -0.831 4.227Zm9.766 -2.928c1.461 3.5 -2.151 13.534 -2.51 14.852 -0.509 1.865 -1.084 1.506 -13.272 -2.4 -5.414 -1.734 -8.149 -2.151 -8.168 -3.773 -0.011 -0.9 2 -7.173 2.737 -9.15 0.588 -1.968 1.699 -3.7396 3.215 -5.126 1.928 -1.65 4.111 -1.079 4.162 -1.669 -0.485 -1.3194 -0.601 -2.7459 -0.337 -4.1266 0.264 -1.3806 0.899 -2.6633 1.837 -3.7104 0.917 -1.086 3.133 -2.812 5.213 -2.653 1.705 -0.0918 3.393 0.3797 4.804 1.3418 1.41 0.9621 2.466 2.3614 3.003 3.9823 0.537 1.6209 0.526 3.3734 -0.032 4.9875 -0.557 1.614 -1.629 3 -3.052 3.9444 -0.867 0.608 0.992 0.128 2.4 3.5Zm-0.829 -7.244c0.587 -1.2282 0.769 -2.6109 0.519 -3.9491 -0.249 -1.3382 -0.916 -2.5628 -1.906 -3.4975 -0.989 -0.9348 -2.25 -1.5315 -3.6 -1.7042 -1.35 -0.1728 -2.72 0.0873 -3.913 0.7428 -1.9 0.91 -2.3 2.273 -2.856 3.27 -1.733 3.08 0.84 8.8 5.915 8.68 1.207 0.0137 2.394 -0.3109 3.426 -0.9368 1.033 -0.626 1.869 -1.5284 2.415 -2.6052Zm-2.3 19.638c1.849 -5.9 2.77 -8.869 2.156 -11.526 -0.233 -1.012 -1.32 -3.285 -2.247 -2.827 1.838 3.183 1.761 2.81 -1.445 4.516 -0.571 0.3 -0.344 0.254 0.49 1.916 0.053 0.0731 0.09 0.1561 0.11 0.2441 0.02 0.088 0.022 0.1791 0.006 0.2678 -0.016 0.0888 -0.05 0.1733 -0.1 0.2486 -0.049 0.0753 -0.114 0.1398 -0.189 0.1895 -1.668 0.8037 -3.414 1.4343 -5.211 1.882 -2.247 0.689 -2.884 1.064 -4.112 -0.549 -2.912 -3.826 -3.283 -4.38 -3.583 -5.146 -0.126 -0.322 -0.327 -0.532 -0.272 -0.769 0.234 -1.017 2.3 -1.6 1.644 -2.312 -1.026 -1.113 -1.143 -1.881 -0.8 -2.513 0.325 -0.5743 0.76 -1.0787 1.281 -1.484 -0.767 0.144 -1.475 0.5085 -2.038 1.049 -1.172 1.1263 -2.043 2.5283 -2.534 4.078 -0.49 1.285 -1.52 4.541 -2.661 8.487 -0.132 0.454 0.388 0.816 0.712 0.929 11.594 4.077 5.232 1.8 15.085 4.771 3.7 1.117 2.966 0.907 3.706 -1.452h0.002Zm-0.977 -14.13c-0.1 -0.2 -0.261 -0.151 -0.4 0 -0.54 0.595 -4.273 4.528 -6.046 6.857 -0.858 1.128 -1.029 1.83 -0.589 1.689 2.983 -0.717 5.584 -1.632 5.846 -2.1 -0.179 -0.5929 -0.442 -1.1574 -0.779 -1.677 -0.433 -0.988 0.713 -0.918 2.54 -2.114 0.695 -0.459 0.65 -0.225 -0.574 -2.655h0.002Zm-5.945 0.218c-0.247 -1.506 -0.221 -1.594 -0.4 -1.731 -1.327 -1.015 -1.412 -1.343 -1.608 -1.393 0 0.025 0.161 7.4 0.164 7.419 0.718 -1.384 1.333 -2.8197 1.838 -4.295h0.006Zm-2.73 6.417c0.024 -0.1 -0.1 -7.941 -0.084 -9.892 0 -0.329 -0.547 -1.024 -0.774 -0.858 -1.52 1.111 -2.617 1.978 -2.339 2.678 0.306 0.662 0.724 1.2662 1.236 1.786 0.381 0.435 -0.249 1.087 -1.414 1.9 -0.369 0.258 -0.581 0.442 -0.27 0.942 0.871 1.4212 1.851 2.7729 2.931 4.043 0.538 0.83 0.699 -0.545 0.712 -0.599h0.002Z" stroke-width="1"></path>
  <path fill="#1c1c1e" d="M124.2 115.039c0.064 1.014 -0.923 1.147 -1.83 1.592 -0.907 0.445 -1.273 0.722 -4.029 1.979 -2.61 1.191 -2.719 0.934 -2.366 1.661 3.275 6.749 4.039 7.806 2.93 8.762 -0.333 0.297 -0.718 0.531 -1.135 0.69 -6.139 2.2 -4.259 4.506 -9.182 -6.252 -0.279 -0.61 -0.04 -0.413 -2.824 0.665 -1.827 0.602 -3.612 1.323 -5.344 2.159 -1.909 0.878 -2.173 -0.673 -3.62 -4.256 -0.437 -1.08 -0.357 -2.288 0.655 -2.754 1.731 -0.8 5.608 -2.542 7.144 -3.262 0.562 -0.263 0.631 0.077 -1.048 -3.93 -1.036 -2.472 -1.271 -2.546 -1.217 -3.014 0.029 -0.247 -0.586 -1.236 -0.761 -1.978 -0.161 -0.68 0 -0.908 0.571 -1.276 0.753 -0.485 1.571 -0.859 2.431 -1.111 0.91 -0.266 1.946 -1.134 3.111 -0.816 1.068 0.293 0.937 0.612 3.353 5.849 1.307 2.832 1.182 2.776 1.716 2.525 8.848 -4.166 8.512 -4.81 10.166 -0.708 0.604 1.504 1.187 2.08 1.279 3.475Z" stroke-width="1"></path>
  <path fill="#1c1c1e" d="M99.4 76.2761c1.207 0.418 2.206 0.754 1.776 1.889 -0.82 2.166 -0.442 1.979 -1.672 4.291 -1.71 3.215 -1.691 6.652 -3.63 6.259 -0.415 -0.084 -0.813 -0.249 -1.236 -0.356 -0.1611 -0.0492 -0.3089 -0.1342 -0.4325 -0.2486 -0.1235 -0.1144 -0.2196 -0.2553 -0.2809 -0.4121 -0.0614 -0.1568 -0.0865 -0.3254 -0.0734 -0.4933 0.013 -0.1679 0.0639 -0.3306 0.1488 -0.476 0.9208 -1.6699 1.7166 -3.4056 2.381 -5.193 0.064 -0.156 -0.057 -0.743 -0.529 -0.514 -1.129 0.546 -2.4 0.993 -3.538 1.58 -3.141 1.625 -3.323 2.5 -4.056 1.35 -1.234 -1.93 -0.781 -1.954 4.34 -4.629 2.394 -1.251 2.842 -0.793 -2.164 -2.322 -2.584 -0.79 -2.634 -1.022 -2.386 -1.877 0.51 -1.757 0.425 -2.157 1.338 -2.122 1.059 0.24 9.984 3.257 10.014 3.274Z" stroke-width="1"></path>
  <path fill="#1c1c1e" d="M86.929 85.379c0.381 0.649 -0.765 1.36 -1.623 2.206 -5.458 5.382 -3.281 5.132 -4.881 6.16 -0.3 0.193 -0.534 0.051 -0.8 -0.092 -0.388 -0.211 -1.7 -0.272 -1.155 -1.377 1.714 -3.448 1.2 -2.86 3.85 -5.787 0.7855 -0.8648 1.6566 -1.6478 2.6 -2.337 0.21 -0.153 0.791 -0.625 1.12 -0.094 0.3202 0.4238 0.6169 0.8648 0.889 1.321Z" stroke-width="1"></path>
  <path fill="#1c1c1e" d="M81.876 127.329c0.0827 0.976 0.0397 1.959 -0.128 2.925 -0.1832 2.258 -0.6554 4.482 -1.405 6.62 -0.5 1.131 -0.557 2.158 -1.407 1.684 -1.667 -0.928 -1.923 -1.112 -1.654 -1.76 3.762 -9.059 0.319 -10.782 4.008 -9.936 0.1306 0.018 0.2539 0.071 0.357 0.153 0.1031 0.082 0.1822 0.191 0.229 0.314Z" stroke-width="1"></path>
  <path fill="#1c1c1e" d="M81.656 121.265c0.315 3.344 0.742 3.818 -1.924 3.364 -0.793 -0.136 -0.658 -1.013 -0.766 -2.209 -1 -10.963 -2.008 -11.361 -1.039 -11.533 2.681 -0.477 2.228 -0.414 3.054 4.854 0.2581 1.322 0.4136 2.663 0.465 4.009 0.001 0.494 0.161 0.996 0.21 1.515Z" stroke-width="1"></path>
  <path fill="#1c1c1e" d="M79.708 107.759c0.022 0.9 -0.977 1.009 -1.86 0.833 -1.016 -0.2 -0.86 -1.918 -0.952 -6.034 -0.1222 -2.123 -0.0136 -4.2533 0.324 -6.353 0.281 -1.12 0.578 -1.138 1.088 -1 2.844 0.751 0.729 0.34 1.237 9.489 0.123 2.215 0.155 2.906 0.163 3.065Z" stroke-width="1"></path>
  <path fill="#1c1c1e" d="M76.342 143.873c-2.16 2.926 -5.582 4.454 -6.649 5.02 -0.189 0.045 -0.3863 0.041 -0.5732 -0.012 -0.187 -0.052 -0.3576 -0.151 -0.4958 -0.288 -0.927 -1.853 -0.482 -2.161 0.636 -2.72 6.476 -3.241 5.984 -7.172 7.317 -6.316 2.59 1.357 1.684 1.717 -0.235 4.316Z" stroke-width="1"></path>
  <path fill="#1c1c1e" d="M73.775 65.6c1.5 4.581 3.536 3.192 -5.178 7.075 -0.742 0.331 -0.735 -0.389 2.226 6.049 0.508 1.105 0.368 1.524 -0.651 2.183 -0.2383 0.1552 -0.498 0.2745 -0.771 0.354 -1.646 0.479 -3.8 2.243 -4.419 0.589 -0.522 -1.4 -0.5 -0.816 -2.622 -5.559 -0.391 -0.877 0.161 -0.822 -4.651 1.112 -3.42 1.375 -3.45 2.065 -4.988 -2.2 -1.054 -2.925 -0.372 -2.108 6.182 -5.324 0.5 -0.244 0.559 0.122 -0.892 -3.435 -1.526 -3.738 -2.029 -4.36 -1.182 -4.9 0.5804 -0.3909 1.2152 -0.6941 1.884 -0.9 0.872 -0.245 2.89 -1.731 3.684 0.067 3.123 7.064 2.879 6.238 3.324 6.029 6.456 -3.04 6.615 -3.426 7.515 -2.174 0.2316 0.3151 0.4134 0.6638 0.539 1.034Z" stroke-width="1"></path>
  <path fill="#1c1c1e" d="M66.913 149.187c0.0382 0.101 0.0532 0.21 0.0441 0.318 -0.0092 0.108 -0.0424 0.212 -0.0971 0.305 -0.0547 0.094 -0.1297 0.174 -0.2193 0.234 -0.0896 0.061 -0.1917 0.101 -0.2987 0.117 -2.2828 0.487 -4.5901 0.851 -6.912 1.091 -2.149 0 -2.2 -0.134 -2.473 0.67 -2.09 6.22 -11.438 5.186 -12.584 -0.228 -0.426 -1.335 -0.93 -2.272 -0.448 -4.159 1.052 -4.122 5.032 -6.074 7.748 -5.223 0.9725 0.122 1.8995 0.483 2.6982 1.051s1.4442 1.326 1.8788 2.204c1.4 2.473 0.65 2.757 1.511 2.992 2.075 0.566 5.67 -0.382 7.733 -1.019 1.058 -0.327 0.975 0.438 1.419 1.647Zm-11.331 0.925c0.1342 -0.881 -0.0741 -1.78 -0.582 -2.512 -0.1967 -0.685 -0.5403 -1.319 -1.0068 -1.858 -0.4665 -0.538 -1.0447 -0.969 -1.6945 -1.262 -0.6498 -0.293 -1.3556 -0.44 -2.0682 -0.433 -0.7126 0.008 -1.4151 0.171 -2.0585 0.477 -4.258 2.081 -2.81 9.545 2.473 9.817 1.2138 0.086 2.4127 -0.309 3.3368 -1.101 0.9241 -0.791 1.4991 -1.915 1.6002 -3.128Z" stroke-width="1"></path>
  <path fill="#1c1c1e" d="M65.165 112.492c0.27 1.24 -0.562 1.357 -5.567 3.709 -2.693 1.266 -2.906 0.967 -2.527 1.761 3.991 8.348 4.45 8.016 1.16 9.54 -3.352 1.553 -4.458 2.125 -5.174 0.589 -0.015 -0.032 -3.163 -6.677 -3.308 -7.023 -0.221 -0.527 0 -0.458 -6.7 2.188 -0.923 0.364 -2.491 1.428 -3.185 0.314 -0.4478 -0.699 -0.8022 -1.454 -1.054 -2.245 -0.358 -1.174 -1.161 -2.142 -0.865 -3.294 0.268 -1.044 0.548 -0.919 5.754 -3.282 2.792 -1.266 2.632 -1.113 2.376 -1.75 -3.837 -9.595 -1.906 -4.821 -2.9 -7.107 -0.9 -2.064 -0.373 -2.1 4 -3.878 2.955 -1.2 2.691 0.917 6.063 7.748 0.34 0.687 0.047 0.556 5.765 -2.122 2.9 -1.358 3.317 -1.5 4.406 0.309 0.351 0.584 0.144 0.839 1.168 2.841 0.268 0.54 0.4657 1.112 0.588 1.702Z" stroke-width="1"></path>
</svg>