<svg xmlns="http://www.w3.org/2000/svg" fill="none" viewBox="0 0 200 200" id="Code-Learning--Streamline-Bruxelles">
  <desc>
    Code Learning Streamline Illustration: https://streamlinehq.com
  </desc>
  <path fill="#ffffff" d="M6 144.07h106.58l1.15 19.46 -3.44 0.89 -8.14 24.94s-3.69 0 -6.49 -0.26c-2.8 -0.26 -10.56 0.26 -16.28 0.38 -5.72 0.12 -18.07 1.28 -25.32 0.89s-29.77 1.66 -35 0.51a68.194 68.194 0 0 0 -10.44 -1c-3.43 -0.12 -2.52 -5.15 -2.79 -10.05 -0.18 -3.2 -0.52 -6.47 -0.51 -10.3 0 -6.11 1 -13.12 0.55 -15.14A27.78 27.78 0 0 1 6 144.07Z" stroke-width="1"></path>
  <path fill="#ffffff" d="M186.91 165.1s2.34 7.38 0.88 13.22c-1.46 5.84 -6.79 10.89 -12.2 13.74 0 0 -15.57 -0.51 -20.61 -0.29 -5.04 0.22 -16.29 -0.08 -21.33 -0.3 -5.04 -0.22 -26.31 -0.36 -27.77 -0.51 -1.46 -0.15 -4.54 1 -3.73 -1.6s6.07 -19.15 6.36 -19.81c0.29 -0.66 0.31 -5.39 4.17 -5.55l12.32 -4.9 61.91 6Z" stroke-width="1"></path>
  <path fill="#2dd4bf" d="M190.06 146.1c0.28 3.3 5.2 19.2 3.21 20.49a40.99 40.99 0 0 1 -4.22 2.36c-2.81 1 -0.83 1.4 -8.56 3.06 -10.23 2.19 -14.71 4.84 -20 2.49 -0.53 -0.23 0 -4 0.05 -4.3 0.61 -7.25 -0.95 -7 -1 -11.35 0 -1.43 -0.16 -1.59 0.19 -1.59 3 0 5 -1.86 8.21 -2 7.22 -0.45 9 -5.44 9.87 -6.9 2.86 -4.53 1.61 -8.49 4.09 -17.47 1.1 -4 1.54 -3.94 1.5 -11.25 0 -4.86 3.47 -15.09 0.94 -22.81a0.477 0.477 0 0 0 -0.445 -0.3 0.477 0.477 0 0 0 -0.445 0.3 12.768 12.768 0 0 0 0.22 3.17c0.81 8.15 -0.84 14 -1.31 17.22 -0.19 1.36 -0.1 4.72 -0.14 6.13 -0.13 4.55 -1.24 5.29 -2.25 10.27 -0.53 2.63 -1.59 11.39 -2.39 12.76 -3.22 5.54 -3.12 5.17 -5.94 6.66 -2 1.08 -3.4 0.84 -5.74 1.31 -3.36 0.67 -3.35 2.22 -8.91 1.63 -2.28 -0.24 -5.22 0.29 -4.94 -7.58 0.05 -1.6 0.84 -4.37 -0.17 -4.35 -0.61 0 -0.5 0.41 -0.62 1.56 -0.12 1.15 -0.79 5.62 0.47 8.91 0.48 1.28 1.32 1.41 0.84 1.64 -2.4 1.18 -7 0.88 -7.61 -1.05a23.259 23.259 0 0 1 -1.14 -3.59c-0.07 -0.56 -0.096 -1.125 -0.08 -1.69 -0.05 -0.46 -0.73 -0.57 -0.85 -0.15a6.8 6.8 0 0 0 0.32 4.08c0.15 0.51 -0.61 0.92 -0.94 1.11a2.288 2.288 0 0 1 -1.27 0.13c-0.65 0 -3.89 -1.31 -3.71 -3.62 0.06 -0.78 -0.61 -3.8 -0.29 -6.41 0.32 -2.61 0.53 -2.22 0.31 -4.26 -0.26 -2.36 0.57 -3.51 1.63 -5.49 0.59 -1.12 0.09 -0.95 1.9 -2 0 0 2.39 -0.17 2.29 0.41 -0.29 1.66 -1 4.57 -0.31 5.21 0.31 0.3 0.89 0 0.87 -0.86 0 -2 0.38 -2.28 0.4 -3.27a3.61 3.61 0 0 1 1.22 -2.24c1.06 -1.33 2.18 -0.89 2.8 -1.17 1.12 -0.5 3.13 1.33 3.24 4 0.1 2.36 -0.28 5.84 0.76 5.79 0.55 0 0.54 -0.85 0.48 -1.23 -0.26 -1.7 -0.1 -3 -0.21 -5.24 0 -0.4 0.8 0.6 1.13 2.71 0.28 1.81 1.25 1.78 1.65 3.07 0.14 0.47 0.14 0.87 0.69 0.79 0.55 -0.08 0.41 -1.33 0 -2 -0.56 -0.95 -1.08 -0.87 -1.37 -2.56 -0.82 -4.72 -3.36 -2.91 -2.56 -4.51 0.29 -0.58 0.72 -1.09 1.35 -0.94 0.38 0.09 0.39 -0.38 2.51 0.53a7.27 7.27 0 0 0 2.34 0.87c0.57 0 1.27 0.73 1.59 0.19 0.32 -0.54 -0.46 -1.08 -1.23 -1.26 -2.38 -0.54 -1.53 -1.39 -5.77 -1.5 0 -3.53 2.09 -3.67 2.59 -6 0.565 -2.363 0.863 -4.781 0.89 -7.21 -0.19 -2.06 1 -4.43 1.35 -5.64 2.14 -7.61 1 -8.74 1.87 -11.4a40.826 40.826 0 0 0 2.18 -10.44c0.06 -0.73 -0.77 -1 -1 -0.27a31.032 31.032 0 0 0 -0.88 5.1c-0.43 2.77 -0.68 2.48 -1.62 5.66 -0.58 2 -0.16 3.08 -0.6 6.17 -0.67 4.78 -2.6 5.94 -2.49 11.47 0 1.05 -0.35 3.84 -0.37 4 -0.48 3.2 -0.84 2.85 -1.27 3.68 -0.26 0.51 -1 -4.28 -0.46 -7.29 0.52 -3.2 -0.36 -3.29 0.07 -7.28s1.92 -5 1.94 -11.14c0 -3 -0.53 -3 0.43 -6.31 0.596 -2.36 0.931 -4.777 1 -7.21 0.05 -0.52 0.68 -0.25 3.58 -2.06a12.842 12.842 0 0 0 5.21 -6.77c0.15 -0.35 4.07 -0.13 5.2 0.37 2.55 1.15 3.64 0.86 6.14 2.25 9.11 5 8.06 12.15 9.79 19.24 2.28 9.41 1.07 4.29 2.09 12.28 1.58 12.59 0.6 12.73 0.45 22.07 -0.04 6.28 0.31 1.53 1.26 12.82Z" stroke-width="1"></path>
  <path fill="#ffffff" d="M163.41 64.6a14.179 14.179 0 0 1 1.77 8.32c-0.06 1.69 -1.26 4.29 -2 5.81 -1.63 3.4 -5.1 5.18 -8.67 6.43a3.68 3.68 0 0 1 -1.44 0.09c-0.67 0 2.8 -3.71 1.34 -10.16 -0.06 -0.29 -0.26 -0.38 -0.55 -0.35 -1.05 0.13 0.92 3 -0.93 7.67 -2 5.07 -3.56 4.94 -8 7.08 -0.5 0.25 -1.81 0.64 -1.67 0.11 0.5 -1.43 0.685 -2.952 0.54 -4.46 -0.33 -6.6 -2.52 -9.74 -5.39 -12.23 -1.32 -1.15 -4.57 -1.6 -7 -2.42a5.228 5.228 0 0 1 -2.62 -1.92c-0.37 -0.25 0.53 -0.66 0.38 -2.94 -0.22 -3.25 -1 -7.21 -4.27 -7.26 -4.32 -0.07 -4.08 2.74 -5.55 3.63 -3.63 2.19 -3 1.83 -3.2 1.93 -0.71 0.32 -1.94 0.65 -2 0.72a9.16 9.16 0 0 1 -6.49 0.35 7.124 7.124 0 0 1 -1.53 -0.83c-0.63 -0.38 0.77 -1.6 0.71 -2.21 -0.06 -0.61 -0.59 -0.59 -1 -0.21 -1 0.93 -0.87 1.46 -1.06 1.16 -3 -4.93 -1.88 -6.18 -4.22 -8.42 -3.45 -3.29 -6.2 -0.57 -7.19 0.69 -0.58 0.74 -0.11 1.25 0.5 0.82 0.45 -0.33 1.09 -1 1.62 -1.35 0.53 -0.35 -0.28 1.49 -0.43 3.11 -0.09 1.1 0.08 3.23 0.08 3.5C95 64.88 97 68.65 97 68.75c0 0.28 -1.14 0.83 -0.6 2.19 0.16 0.42 0.56 0.54 0.84 0.25 0.28 -0.29 0.14 -1.2 0.33 -1.16 0.19 0.04 0.07 0.39 1.32 2.09 0.39 0.53 -0.76 0.59 -0.41 2.54 0.47 2.66 2.78 4.3 4.3 4.33 0.24 0 0.32 0.07 0.36 0.33 0.18 1.26 2.17 1.58 3.1 1.12 0.52 -0.25 0.38 -0.77 2.14 2.41 1.2 2.17 2.83 2 5.09 3.93 2 1.69 3.88 3.57 6.24 2.1 6.41 -4 6.07 -8.66 8.39 -7.1 4.28 2.86 4.16 2.7 3 3.43 -1.16 0.73 -1 1.23 -2.22 2.06 -6.77 4.72 -6.54 2.52 -7.29 3.18 -0.46 0.4 1.63 3.89 -0.37 5.85 -0.34 0.34 0 0.27 -1.38 -1.76 -2.26 -3.2 -8.89 1.24 -12.59 -4.37 -0.44 -0.68 -0.63 -0.57 -0.86 -0.42 -0.65 0.43 1.22 2.42 1.77 2.88 0.55 0.46 -0.8 3.87 -2.2 4.51a8.999 8.999 0 0 1 -2.71 1.36c-1.36 0.3 -0.11 0.09 0 -2.22 0.25 -4.31 0.42 -4 -2.28 -8a0.47 0.47 0 0 0 -0.84 0.28c0 4.87 -1.7 5.68 -3.57 7.11a2 2 0 0 1 -0.88 0.18 6.15 6.15 0 0 0 1 -4.58 5 5 0 0 0 -2.94 -4.17 6.36 6.36 0 0 1 -3.46 -3.9c-0.74 -3.8 2.44 -5.48 1.73 -9.63 -0.35 -2 -0.77 -1.42 -3.94 -4.49 -1.44 -1.4 -1.74 -5.35 -1.27 -7.73 1 -5 2.48 -5.94 4.15 -7.54 1 -0.94 1.28 -1.3 1.9 -1.35 1.7 -0.15 2 -0.08 1.9 -0.82a2.33 2.33 0 0 0 -1.84 -2c-1.86 -0.32 -2.51 -0.53 -3.25 -0.25a10.45 10.45 0 0 1 -1.52 0.43c0.09 -1.54 3.79 -2.9 5.78 -1.11 2.19 2 1.75 -1.47 0.31 -3.45 -0.25 -0.35 -0.52 -0.59 -0.7 -0.85 1.4 -0.16 1.68 0.34 2.73 1.4a5.6 5.6 0 0 1 0.87 2.48 0.46 0.46 0 0 0 0.81 0.19c2.56 -3.59 -0.13 -1.78 8.31 -8.69 5.7 -4.66 3.46 -3 10.64 -6.4a12.94 12.94 0 0 1 5.77 -1.11c5.34 0.06 5.34 0.68 8.19 2.32a48.555 48.555 0 0 1 6.75 5c1.43 1 3.55 4.69 3.79 8.31 0.38 5.64 1.22 8.34 7.78 9 2.52 0.27 2.06 -0.09 4.81 0.92 4.29 1.64 7.12 2.84 9.43 6.77Zm-3.92 14.81a15.076 15.076 0 0 0 1.67 -5.61c-0.66 -6.23 -2.17 -9.41 -8.27 -12.26 -1.72 -0.8 -1.68 -0.34 -3.17 -1 -1.1 -0.5 -1.22 0.79 0.92 1.38 9.45 2.61 10.31 11.53 9 14.47 -0.423 0.815 -0.784 1.66 -1.08 2.53 -0.15 0.33 0.26 1.21 0.93 0.49Zm-7.39 -9.11c0.24 0.48 0.81 0.4 0.86 -0.22 -2 -7.47 -11.22 -7.62 -13 -8.76 -0.77 -0.48 -1.37 0.86 1.21 1.56 3.55 1 7.26 1.69 9.59 4.78 0.573 0.81 1.024 1.7 1.34 2.64Zm-2.52 12.5c0 -2 0.21 -1 0.21 -3.11 0 -4.21 -3.46 -9.11 -4.55 -10 -4.46 -3.71 -8.1 -2.94 -10.07 -4 -0.45 -0.26 -0.91 -0.58 -1.18 -0.18 -0.38 0.57 1.5 1.56 2.27 1.72 0.61 0.13 4.17 0.6 6.13 1.8a8.688 8.688 0 0 1 3.21 2.66c1.43 2.31 2.57 3.88 3 6.78 0.29 1.73 -0.75 5.1 0.43 5.09a0.633 0.633 0 0 0 0.551 -0.497 0.628 0.628 0 0 0 -0.001 -0.263Zm-11.26 -28.91c0.5 -0.25 0.15 -0.93 0.08 -1.25 -1.47 -7.87 -3.4 -8.69 -8.92 -10.46 -5.08 -1.63 -5.82 -4.74 -10.19 -4.87 -0.65 0.11 -3.2 0.68 -3.16 1 0.15 1.72 2 -1.16 5.92 0.75 0.39 0.19 3.43 2.35 3.73 2.57 0.93 0.68 1.67 1.22 5.55 2.29 7.12 2.01 5.15 10.88 6.99 9.97ZM134 60.51c0 1.13 1.16 1.35 1.06 -0.11 0 0 -0.17 -8.47 -8.36 -11 -2.23 -0.69 -5.73 -0.85 -7.51 -2.35 -4 -3.43 -6.21 -5.23 -11.19 -3.3 -0.25 0.09 -0.07 0.51 0 0.53 1.51 0.22 3.87 -1.19 7.12 0.88 2.88 1.83 3.44 3.33 5.65 3.93 4.58 1.27 6.26 1 9.68 3.56 1.37 1.04 3.49 4.81 3.55 7.86Zm-16.27 -0.37c0.54 -0.35 0.17 -1 -0.41 -0.81 -10 2.68 -8.06 -5.52 -13.84 -9.07 -2.07 -1.26 -2.18 -1.26 -2.48 -0.84 -0.3 0.42 0.27 0.75 0.64 0.91 5.66 2.37 5.07 10.1 11.95 10.71 1.05 -0.13 3.06 -0.2 4.14 -0.9Zm-0.41 -4.83c0.13 -0.46 -0.55 -0.46 -3 -1.52 -1.76 -0.74 -5.54 -6.32 -8.53 -6.48 -0.74 0 -0.36 0.59 0 0.69 2.4 0.74 5.52 4.83 7.38 6.24a10.437 10.437 0 0 0 3.77 1.53c0.21 -0.03 0.29 -0.16 0.38 -0.46Zm-13.13 32c0.38 0.83 2 -0.2 -0.49 -2.76 -1.88 -1.93 -1.24 -2.74 -2 -2.59 -0.33 0.07 -0.39 0.46 -0.32 0.7 0.87 2.79 1.3 1.34 2.81 4.68v-0.03Zm-5.62 -1.21c0.66 0.76 2 0.38 0.7 -0.91A5.66 5.66 0 0 0 95.79 83a1.92 1.92 0 0 1 -1.67 -1.47c-0.33 -2.3 3.38 -5.34 1.19 -10 -0.5 -1.07 -0.4 -1.73 -1.79 -3.11 -5.85 -5.81 -0.14 -10.17 -1.78 -10.43 -0.8 -0.12 -1.62 2.4 -1.68 3.12 0 0.52 -0.54 3.12 0.26 4.66 1.88 3.7 2.36 2.83 3.31 4.56 3.2 5.82 -0.59 8.08 -0.59 10.52a3 3 0 0 0 2.75 3.33 4.74 4.74 0 0 1 2.78 1.95v-0.03Z" stroke-width="1"></path>
  <path fill="#ffffff" d="M158.52 159.88c0.91 7.91 1.41 2.84 0.66 11.31 -0.13 1.51 0 1.54 -0.44 1.52a35.906 35.906 0 0 1 -6.58 -1.25c-1.08 -0.2 -3.7 -0.15 -5.64 -1.38 -3 -1.9 -3.29 -3 -6.07 -4.88 -1.84 -1.24 -2.41 -1 -2.17 -1.27 2.49 -2.82 2.31 -2.11 3.66 -7 0.28 -1 -0.12 -0.66 1.44 -1.33 0.44 -0.19 0.52 0.14 0.6 0.31 1 2.14 5.89 2.5 7.85 1.78 3.19 -1.19 0.72 -1.23 6.25 -0.59 0.58 0.11 0.18 0.52 0.44 2.78Z" stroke-width="1"></path>
  <path fill="#ffffff" d="M155.14 86.16c0.33 -0.1 0.25 0 0.12 1.68 -0.42 5.22 -1.74 6.75 -1.5 8.89 0.93 8.24 -2.62 11.28 -1.89 17.79 0.39 3.46 -0.71 4.8 0 8.84 0.058 0.735 0.175 1.464 0.35 2.18 0.2 0.59 0.4 0.83 0.15 1.28a5.78 5.78 0 0 0 -0.68 3.63c0.06 0.31 0.1 0.13 -0.55 1a6.394 6.394 0 0 0 -1.76 -1.22c-1 -0.39 -1.05 -0.07 -2.32 0 -2.1 0.16 -2.56 1.69 -3.35 2.21 -1.43 -2.35 0.23 -6.21 -2.26 -11.21 -2.1 -4.21 -0.42 -4.13 -3 -10.82a57.29 57.29 0 0 1 -3.3 -10.41c-0.3 -1.56 -1.5 -5.82 -1.32 -8.69 0.45 -7.09 0.62 -2.07 2.48 1.35 2.28 4.18 1 1.47 2.06 4.46s2.1 3.47 3.06 4.12c1.44 1 1.16 1.37 1.73 2.31a4.505 4.505 0 0 0 3.57 1.74c3 0 4.45 -3.45 4.62 -6.4 0.06 -1 -0.83 -1.4 -0.14 -2.9 0.543 -2.04 0.825 -4.14 0.84 -6.25 0 -1.44 -0.71 -3.57 0.74 -3.49a4.9 4.9 0 0 0 2.35 -0.09Zm-7.2 27.59c0.4 0.27 1 0.23 1.06 -0.23 -0.76 -1.5 -3.29 -2.2 -4.55 -3.7 -1.88 -2.24 -1.91 -3.45 -3.36 -4.59 -2.23 -1.75 -1.57 -1.32 -3.32 -3.43a0.371 0.371 0 0 0 -0.566 -0.03 0.372 0.372 0 0 0 -0.094 0.19c-0.1 0.6 1.12 2.15 1.56 2.58 1.23 1.24 2.28 1.68 3.07 3.18 2 3.79 3.26 4.01 6.2 6.03Zm-0.82 4.84c0.07 -0.39 -0.22 -0.34 -0.54 -0.65 -4.79 -4.66 -4.81 -6.62 -5.69 -6.12 -0.88 0.5 6.4 9.65 6.23 6.77Z" stroke-width="1"></path>
  <path fill="#ffffff" d="M150.58 88c0.84 -0.78 0.17 6.15 -0.52 7.75a4.311 4.311 0 0 0 0.13 2.82c0.22 1.13 -0.67 3.06 -1 3.82 -1.06 2.43 -4.57 1.86 -5.33 0 -1.18 -2.83 -2.48 -1.58 -3.93 -4.44 -1.08 -2.12 -0.33 -1.8 -1.71 -4.26 -1.66 -2.94 -1.52 -2.55 -1.87 -3.54 -1.53 -4.34 -0.9 -2.36 -0.18 -2.83 0.87 -0.57 -5.68 -5.39 -6.37 -5.86 -3.45 -2.37 -3.49 -1.39 -5.69 1.42 -7.32 9.38 -7.28 3.42 -12.53 1.14 -2.83 -1.23 -2.38 -2.89 -4 -4.4 -0.22 -0.21 0 -0.22 0.48 -1.38 0.13 -0.35 0.07 -1.1 -0.36 -1.1 -0.64 0 -0.67 0.35 -1.08 1.2 -0.75 1.52 -3.07 1.09 -2.37 0.07 0.344 -0.413 0.6 -0.893 0.75 -1.41 0.53 -2.8 -1.6 -3 -0.75 -3.37a0.38 0.38 0 0 1 0.53 0.15c3.28 4.17 9.15 0.72 6.47 -4.16 -0.2 -0.36 -0.11 -0.15 1.36 -0.63 0.63 -0.21 1 -0.58 3.88 -3.12 0.24 -0.22 0.24 -0.16 0.77 0.22a2.88 2.88 0 0 0 3.29 -0.25c2 -1.62 -0.74 -2.69 1.35 -5.21 1 -1.24 2.7 -1.08 3.52 -1.06 0.4 0 1.37 1 1.55 1.37a11.637 11.637 0 0 1 1.12 4.52c0.33 2.3 -1.41 3.78 -2.57 3.58 -1.58 -0.27 -1 2.55 2.38 0.32 0.61 -0.41 0.27 1.12 3 2.12 2.92 1.09 6 1.43 7.25 2.77a9.18 9.18 0 0 1 2.63 3.21c5 12.07 -1.77 13.72 3.11 13.48 2.357 -0.66 4.61 -1.65 6.69 -2.94Zm-25.17 -20.58a1.492 1.492 0 0 0 1 -2c-0.35 -1.23 -1.25 -1.18 -2.45 -1.26 -1 -0.06 -1 -2.9 1.19 -2.12 0.43 0.16 0.88 -0.17 0.85 -0.26 -0.03 -0.09 -0.12 -1.14 -1.69 -1 -3 0.25 -2.46 4.35 -0.59 4.53 0.75 0.07 2.3 0.15 1.31 1.09 -0.29 0.27 -0.25 1.17 0.38 1.02Zm-6.35 9.93c0.2 0 0.26 -0.17 0.25 -0.39 -0.47 -2.23 -1.4 -1.28 -1.34 -1.1 0.75 2.2 0.79 1.52 1.09 1.49Zm-1 1.41c0.22 -0.14 0.17 -0.36 0.19 -0.57 -0.28 -2.74 -2.58 -2.5 -1.89 -1.4 0.16 0.25 0.85 0.52 0.85 1.57 0.02 0.5 0.45 0.64 0.87 0.4h-0.02Zm-3.83 1.84c0.65 -0.31 2 -1.56 2 -2.27 0 -0.22 -0.18 -0.36 -0.37 -0.26 -0.19 0.1 -1.57 1.61 -2.95 1.87 -3.88 0.72 -2.45 4.47 -1.64 2.51 0.67 -1.57 1.47 -1.13 2.98 -1.85h-0.02Z" stroke-width="1"></path>
  <path fill="#2dd4bf" d="M141.91 128.4c0 4.1 1.2 3.64 -0.47 3.64 -1.32 -0.29 -3.24 1.28 -3.62 2.43 -0.21 0.65 -3.72 0.77 -3.76 0.44a28.848 28.848 0 0 1 -0.11 -3.66c-0.67 -6.07 0.18 -5.49 -1.36 -9.64 -1.17 -3.18 -1.26 -8.67 -1.26 -8.69a36.908 36.908 0 0 0 -0.81 -6.29 7.608 7.608 0 0 0 -0.54 -1.71c-0.26 -0.51 -0.75 -0.21 -0.85 0.08 -0.34 1 0.71 0.67 1.14 8.2 0.68 11.85 3.32 10.19 0.19 9.51 -0.62 -0.13 -0.5 0.14 -1.5 -0.25 -2.32 -0.89 -2.35 -0.48 -2.31 -2.1 0.31 -12.77 -2 -13.2 -0.78 -18.26 0.24 -1 0 -6.17 0.86 -8.27a48.651 48.651 0 0 1 3 -5.55 11.663 11.663 0 0 1 3 -2.85c0.15 -0.12 0.39 0.1 0.54 0.2 1.14 0.78 -0.6 1 -0.44 7.39 0.09 3.12 2.58 12.07 2.59 12.09 0.62 2.51 2.66 6.54 3.12 8.75 0.81 3.94 0.7 4.92 1.16 6.17 0.86 2.4 2.17 2.97 2.21 8.37Z" stroke-width="1"></path>
  <path fill="#2dd4bf" d="M140.94 156.31c0.21 0 0.21 0.12 -0.1 1.08 -1.86 5.8 -3.4 4.28 -4.41 7.64 -0.19 0.64 0 0.75 -0.8 0.37 -0.33 -0.17 -3 -2.26 -4.79 -2.3 -6.85 -0.14 -6.06 -2.48 -9.4 -2.63 -0.88 0 -0.74 -0.2 -0.75 -0.95 -0.3 -3.22 5.89 -6 6.64 -7.84 0 -0.13 0.21 -0.2 0.7 -0.14 0.69 0.09 6.77 1.27 7.43 1.38 1.06 0.18 0.93 0.25 1 0.33 0.6 1.75 2.8 2.75 4.48 3.06Z" stroke-width="1"></path>
  <path fill="#ffffff" d="M136.46 136c1.72 -0.23 0.25 0.3 -0.26 2.68 -0.51 2.38 0.35 2.5 -0.32 5.8 -1.65 8.18 5.62 8.44 -10.86 5.33 -7.85 -1.48 -14.38 -2.22 -14.87 -2.74 -0.49 -0.52 -1.46 -4.61 -0.68 -4.86a4.34 4.34 0 0 0 2.37 -2.23c0.6 -1.22 -1.17 -0.16 21.09 -3.58 0.32 -0.09 3.01 -0.4 3.53 -0.4Z" stroke-width="1"></path>
  <path fill="#2dd4bf" d="M132.59 127.78c-0.11 1.78 0.53 3.42 0.27 5 -0.23 1.35 0.13 2.48 -0.32 2.55 -0.95 0.14 -1.87 0.4 -2.83 0.46 -3.68 0.23 -1.57 0.93 -3.23 -1.35 -2.9 -4 -3 -4.55 -5.63 -5.8 -0.55 -0.26 -0.86 -0.75 -0.45 -1.77 0.7 -1.73 4.34 -1.08 6.21 0.1 1.62 1 1.2 1.51 2.24 1.33 0.23 0 0.51 -0.56 0 -1 -0.28 -0.23 -0.83 -0.84 -1.07 -1 -2.5 -1.47 -1 -0.46 -3.49 -1.65 -0.34 -0.16 0.66 -2.11 1.53 -1.87 0.33 0.1 0.7 0 1 0.12 2.2 0.59 0.92 0.55 2.7 0.86a2.666 2.666 0 0 1 2.16 0.82c0.78 0.63 0.91 -0.06 0.91 3.2Z" stroke-width="1"></path>
  <path fill="#ffffff" d="M124.37 133.18c2.72 4.24 2.64 2.36 -3.49 4 -0.82 0.21 -8.26 1 -8.29 1 -0.76 0.09 -0.22 -1 -1.64 -1.63 -1.8 -0.77 -5.24 -0.32 -6.73 0.43 -2.14 1.08 -1.29 2.29 -2.81 2.85 -0.79 0.28 -13.29 1.3 -14.86 1.34 -0.39 0 0.38 -0.68 0.57 -1.52 0.14 -0.67 -0.53 -1 -0.84 -0.7 -0.15 0.13 -0.44 0.57 -0.69 0.65 -3.06 0.85 -4.06 0.57 -5.18 1.7 -2.37 2.37 -1.91 2.28 -2.47 2.44 -0.475 0.191 -0.963 0.348 -1.46 0.47a6.464 6.464 0 0 1 1.23 -2 8.327 8.327 0 0 0 1.65 -2.4c0.82 -1.18 1 -0.53 4.5 -1.68 2.7 -0.9 2.59 -0.78 2.69 -1.09 0.24 -0.76 -1.07 -0.49 -1.83 -0.24 -4 1.31 -3.32 0.52 -5.27 1.68a14.75 14.75 0 0 0 -2.16 1.44c-0.85 0.68 -2.13 1.38 -3.63 2.35a4.478 4.478 0 0 1 -2.49 1c-0.49 0 -0.92 -0.54 -0.17 -1 0.57 -0.39 1.83 -1.08 2.92 -1.77 1.51 -1 1.13 -1.61 2.93 -2.45 2.4 -1.12 2 -1.56 4.49 -2.11 1.33 -0.3 3.41 -0.77 3.27 -1.4 -0.2 -0.94 -8.76 2.09 -10.32 3.31 -0.73 0.358 -1.482 0.672 -2.25 0.94 -1.31 0.33 -1.52 -1 -0.2 -1.54 2 -0.77 2.32 -1.59 4.67 -2.21 2.57 -0.67 1.95 -0.85 4.52 -2 2.57 -1.15 9.53 -1.47 10.42 -1.43 2.94 0.16 6.06 0.12 8.42 0.06 10.15 -0.25 15.46 -1.87 18.83 -2.07 2.55 -0.15 3.71 0.54 5.67 3.58Z" stroke-width="1"></path>
  <path fill="#ffffff" d="M120.25 64.11c0.27 0.67 -0.94 1.46 -1.64 1.31 -0.56 0 -1.34 -0.22 -1.07 -0.43 3.25 -2.56 2.11 -2.38 2.71 -0.88Z" stroke-width="1"></path>
  <path fill="#ffffff" d="M111.11 66.58c2.65 -0.23 4.68 -1.49 3.86 -0.79 -3.28 2.84 -2.29 2 -4.23 2.61 -0.71 0.23 -1.68 -1.4 -3.31 -1.23 -2.1 -0.27 -1.91 1.63 -1.81 -1.58 0.03 -0.91 1.15 1.41 5.49 0.99Z" stroke-width="1"></path>
  <path fill="#ffffff" d="M104.7 70.75c0.47 -5.61 8.77 -0.69 5.3 3 -1.74 1.9 -5.53 -0.3 -5.3 -3Zm3.17 1.94c0.74 -0.71 -0.79 -2.7 -1.83 -1.18 0.22 1.31 1.29 1.7 1.83 1.18Z" stroke-width="1"></path>
  <path fill="#ffffff" d="M109.68 137.05c1 0.25 0.38 1.4 -0.38 1.4 -1.18 0.01 -0.86 -1.72 0.38 -1.4Z" stroke-width="1"></path>
  <path fill="#ffffff" d="M109 147.07c0 0.13 0.07 0.3 -0.21 0.42a5.38 5.38 0 0 1 -2.67 0.32c-0.17 0 -0.25 -0.2 -0.3 -0.36 -0.05 -0.16 -0.07 -0.35 0.14 -0.35 0.914 -0.003 1.826 -0.1 2.72 -0.29a0.31 0.31 0 0 1 0.32 0.26Z" stroke-width="1"></path>
  <path fill="#ffffff" d="M108.56 146.22a9.77 9.77 0 0 1 -2.74 0.3 0.358 0.358 0 0 1 -0.149 -0.014 0.386 0.386 0 0 1 -0.132 -0.072 0.366 0.366 0 0 1 -0.129 -0.264c0 -0.22 0.11 -0.31 0.37 -0.32 0.92 -0.06 2.2 -0.27 2.62 -0.27 0.42 0 0.37 0.59 0.16 0.64Z" stroke-width="1"></path>
  <path fill="#ffffff" d="M106.35 139.05c0.85 -1 2.24 -0.54 2.07 0.48a1.328 1.328 0 0 1 -1.48 1.16 1.002 1.002 0 0 1 -0.817 -1.169c0.033 -0.174 0.111 -0.337 0.227 -0.471Z" stroke-width="1"></path>
  <path fill="#ffffff" d="M108.21 144.16c0.18 0 0.36 0.48 0.07 0.74a5.444 5.444 0 0 1 -1.1 0.15c-0.6 0.08 -1.205 0.11 -1.81 0.09 -0.22 0 -0.28 -0.2 -0.29 -0.39 -0.01 -0.19 0 -0.34 0.15 -0.38 0.15 -0.04 2.93 -0.21 2.98 -0.21Z" stroke-width="1"></path>
  <path fill="#ffffff" d="M108.17 142.85c0.07 0.14 0.15 0.41 0 0.5a6.92 6.92 0 0 1 -3 0.3c-0.23 0 -0.22 -0.22 -0.21 -0.38 0.01 -0.16 0.09 -0.39 0.41 -0.42l2 -0.13c0.31 -0.03 0.63 -0.19 0.8 0.13Z" stroke-width="1"></path>
  <path fill="#ffffff" d="M107.39 137.82c-0.66 0 -0.57 -0.87 0 -1s0.61 0.93 0 1Z" stroke-width="1"></path>
  <path fill="#2dd4bf" d="M105.8 137.65a0.63 0.63 0 0 1 0.165 0.539 0.636 0.636 0 0 1 -0.325 0.461 0.695 0.695 0 0 1 -0.756 0.007 0.697 0.697 0 0 1 -0.308 -0.69 0.685 0.685 0 0 1 0.902 -0.545 0.69 0.69 0 0 1 0.322 0.228Z" stroke-width="1"></path>
  <path fill="#ffffff" d="M104.28 141a0.683 0.683 0 0 1 -0.52 -0.25 0.682 0.682 0 0 1 -0.14 -0.56c0.07 -0.22 0.14 -0.58 0.81 -0.66 0.87 -0.03 1.27 1.47 -0.15 1.47Z" stroke-width="1"></path>
  <path fill="#ffffff" d="M104.35 144.67c0.34 3.11 1.19 2.91 0.62 3.18 -4.75 2.26 -8.18 1.79 -10.77 2.15 -1.54 0.21 -2.63 0.84 -4.66 1.87a18.18 18.18 0 0 0 -2.34 1.65c-1.2 0.79 -1.6 1.7 -2.66 2.42 -1.27 0.88 -2.56 0.37 -1.5 -0.67 0.72 -0.71 2.11 -2 2.33 -2.2 1.52 -1.58 1 -1.48 2.59 -2.53 0.61 -0.426 1.198 -0.883 1.76 -1.37 0.28 -0.36 0 -0.95 -0.47 -0.7 -1.74 0.89 -5.9 1.14 -7.46 2.86 -1.81 2 -2.58 3.64 -4.18 3.67 -0.16 0 -0.46 0 -0.24 -0.62 0.284 -0.562 0.601 -1.106 0.95 -1.63 0.65 -1.07 1.45 -1.06 2.15 -2.61 0.83 -1.84 1 -1.07 6.59 -3 0.44 -0.15 1 -0.34 0.89 -0.78 -0.11 -0.44 -1.14 -0.14 -2 0.1 -7.4 2.09 -4.1 1.1 -6.46 2.71 -3.45 2.35 -4.82 3.48 -5.67 3.86 -0.66 0.3 -1.91 0.51 -1.79 -0.28 0.12 -0.79 3.42 -2.05 4.44 -3.43 1.02 -1.38 1.71 -0.68 4.22 -2.85 1.16 -1 4.14 -1.06 5.15 -1.9a0.37 0.37 0 0 0 -0.32 -0.63 31.495 31.495 0 0 0 -8.69 3.25 21.159 21.159 0 0 1 -4.6 1.9c-0.49 0.09 -1.38 0.2 -1.59 -0.34 -0.21 -0.54 1.4 -1.1 1.69 -1.21 2.15 -0.78 3.45 -2.1 6.22 -2.82 1.56 -0.41 2.75 -1.48 3.55 -1.79 2 -0.76 18.27 -1.75 19.32 -1.93 1.05 -0.18 -0.1 1.4 2.36 1.78 0.52 0.04 0.35 -0.18 0.57 1.89Z" stroke-width="1"></path>
  <path fill="#ffffff" d="M103.21 62.46c1.3 2.17 1.33 1.72 1.29 2.1 -0.22 1.86 0.09 4.33 -1.83 4.55 -0.39 0 -0.69 0.18 -0.71 0.63 -0.02 0.45 0.25 0.81 1.7 0.43 0.11 2.63 0.61 2.25 0 2.53 -0.2 0.1 -0.4 0.3 -0.58 0.27a4.12 4.12 0 0 0 -2.89 -1.11c-0.47 0 -1.47 -1.83 -1.67 -2.26 -0.2 -0.43 0.27 -0.34 0.44 -0.36 0.17 -0.02 0.5 0 0.58 -0.53 0.08 -0.53 -0.33 -0.62 -0.57 -0.65 -0.73 -0.1 -1 0.51 -1.19 0a17.195 17.195 0 0 1 -1.27 -3.43c-1.38 -7.3 0.54 -10.06 0.48 -10.46 4.06 -0.17 4.12 4.83 6.22 8.29Z" stroke-width="1"></path>
  <path fill="#ffffff" d="M103.88 75.41a2.993 2.993 0 0 1 -0.51 2.26c-0.15 0.21 -0.49 0.17 -0.67 0.18 -1 0.26 -3 -1.56 -3.26 -3.59 -0.12 -1 0.9 -2.17 3.14 -0.41 0.529 0.433 0.97 0.962 1.3 1.56Zm-1.18 1.09c0.86 0.12 0.89 -1.53 -0.36 -1.88 -0.93 -0.26 -1.29 1.38 0.36 1.88Z" stroke-width="1"></path>
  <path fill="#ffffff" d="M100.22 150.45c0.26 0 0 0.08 -2.86 4.13 -9 12.65 -7.94 12.72 -8.5 8.22 0.11 -0.24 4.67 -6.53 4.69 -6.55 4.19 -5.79 3.91 -5.6 6.67 -5.8Z" stroke-width="1"></path>
  <path fill="#ffffff" d="M95.55 150.83c0.76 -0.05 0.45 0.31 0.25 0.61 -1.42 2.11 -7.08 9.38 -7.1 9.39 -0.77 1 -0.71 1.21 -1.41 1.11 -12.05 -1.59 -5.42 -1.05 -17.46 -2.75 -1.43 -0.21 -5.85 -3.44 -8.06 -3.36a23.913 23.913 0 0 0 -3.14 1.24c-0.06 0 -27.36 -3.89 -27.84 -4.2 0.92 -1.22 33.34 -15.06 34.85 -15.69 4.68 -1.94 4.85 -2.83 8.38 -2.29 -1.34 1.17 -2.91 1.41 -3.6 2.17a1.48 1.48 0 0 0 1.32 2.55c0.776 -0.15 1.537 -0.374 2.27 -0.67 1.26 -0.35 -3.81 2.77 -4.1 3.07 -1.1 1.16 0.24 2.77 2.6 1.94 1.38 -0.48 2.13 -1.25 4 -2.33 0.59 -0.35 -0.45 0.64 -1.5 2.58 -0.74 1.37 0.22 1 -3.44 2.8 -0.91 0.44 -1.85 0.72 -1.81 1.67 0.06 1.27 1.35 1.35 2.67 1.17 1.71 -0.23 3 -1.45 3.55 -1.44 -0.09 0.78 -4 2.94 -4.55 3.59 -1.06 1.23 0.38 2.79 2.81 1.79 1.3 -0.53 1.86 -1.18 3.91 -2.46 0 0 0.18 0 0.07 0.09 -0.41 0.37 -0.31 0.36 -1.68 2.67 -0.7 1.19 0.12 1.81 1 1.81 3.37 0 3.75 -4 6.13 -4.75a12.91 12.91 0 0 1 2.31 -0.48c-0.9 1.39 -3 3.19 -3.92 4.54a1.208 1.208 0 0 0 0 1.78 2.002 2.002 0 0 0 1.85 0.28c3.45 -0.95 1.64 -3.19 10.23 -6.27a7.427 7.427 0 0 1 1.41 -0.16ZM70 154.26c0.25 -0.12 0.57 -0.75 0.33 -0.85 -1.34 -0.61 -1.78 0.84 -3.45 0.78 -1.25 0 1.28 0.16 -25.05 -3.47 -0.45 -0.06 0.38 -0.29 3.8 -2 2.94 -1.5 12.06 -5 22.17 -9.62 0.4 -0.18 0.67 -0.48 0.51 -0.59a0.804 0.804 0 0 0 -0.74 -0.09c-4.09 1.35 -10.74 4.4 -16.61 7 -5.87 2.6 -10.73 4.77 -10.93 4.92 -2.11 1.51 4.81 1.6 12.69 2.85 16.66 2.65 13.42 2.94 17.28 1.07Zm-0.76 -4.06a0.453 0.453 0 0 0 -0.076 -0.831 0.452 0.452 0 0 0 -0.344 0.031 7.07 7.07 0 0 0 -1.67 1c-1.15 0.75 -2.42 1.63 -2.52 1.67a0.352 0.352 0 0 0 -0.12 0.43c0.07 0.13 0.27 0.52 0.51 0.43 0.24 -0.09 4.22 -2.72 4.24 -2.73h-0.02Z" stroke-width="1"></path>
  <path fill="#ffffff" d="M85.72 174.72c0.82 -0.35 4.51 -2.15 4.37 -1.53 -0.41 1.76 -0.09 0.79 -3.71 2.59a0.39 0.39 0 0 0 -0.23 0.5 0.338 0.338 0 0 0 0.41 0.17c1.68 -0.53 2.59 -1 3 -1.08 0.41 -0.08 0.21 0.17 0.27 0.59 0.09 0.63 -7.42 3.27 -8.3 3.88 -0.5 0.35 0.1 0.88 0.43 0.7a7.12 7.12 0 0 1 1 -0.48c0.8 -0.33 6.11 -2.51 6.45 -2.69 0.8 -0.42 0.87 -0.08 1.26 0.53 -0.11 0 -15.22 7.56 -23.24 10.27 -0.39 0.14 -0.71 0.17 -0.83 -0.77a7.16 7.16 0 0 1 0.81 -4.34c1.06 -1.62 3.87 -2.16 18.31 -8.34Zm-2.63 3.1c1.17 -0.57 1.92 -0.81 1.85 -1.07 -0.25 -0.8 -1.15 0.07 -8.47 3.06 -6.37 2.61 -8.35 3 -7.91 3.67 0.24 0.35 0.57 0.14 0.88 0 1.96 -0.72 9.34 -3.56 13.65 -5.66Zm-3.89 3.73c0 -0.15 -0.1 -0.27 -0.45 -0.26 -0.77 0 -7.33 2.68 -7.35 2.69 -0.56 0.23 -3.57 1.28 -3.17 1.91 0.25 0.38 0.59 0.05 1.85 -0.45a6.418 6.418 0 0 1 1.42 -0.44c7.86 -3.11 7.6 -2.82 7.7 -3.45Z" stroke-width="1"></path>
  <path fill="#2dd4bf" d="M89.91 171.28c0.38 0.25 -0.22 0.69 -0.47 0.8 -3.83 1.77 -7.61 3.36 -10.75 4.63 -11.22 4.53 -12.31 4.19 -13.15 7.93 -0.45 2 0 2 -0.12 2.7 -0.87 -0.36 -8.83 -5 -15.5 -9.07 -4.67 -2.82 -8.69 -5.44 -9.25 -5.66 -2.22 -0.87 -2.82 -4.17 -0.9 -6.47 0.86 -1 1.36 -0.56 3.85 -1.52 1.63 -0.63 17.46 -7.43 18 -7.65a1.405 1.405 0 0 1 1.29 0.06c4.46 2.2 23.63 12.02 27 14.25Zm-18.46 -4.12c2.63 -1.35 3.79 -1.56 3.4 -2.12a3.48 3.48 0 0 0 -0.84 -0.69c-1.45 -0.91 -9.88 -5.34 -10.71 -5.78 -0.83 -0.44 -0.9 -0.29 -1.16 -0.13 -0.26 0.16 -11 4.61 -15.57 7.49 -0.48 0.3 -0.63 0.72 -0.34 1.14 0.14 0.2 2.91 1.68 5.75 3.26 1.86 1 3.78 2.15 4.93 2.73a1.847 1.847 0 0 0 2 0c4.92 -1.91 12.53 -5.89 12.54 -5.9Zm-5.94 13.41c0.39 -0.56 -0.8 -1 -0.84 -1.07 -2.42 -1.51 -20.83 -11.78 -21.19 -11.91 -0.36 -0.13 -1 0.22 -0.48 0.74s18.93 10.8 19 10.81c2.61 1.56 3 2.11 3.51 1.43Z" stroke-width="1"></path>
  <path fill="#ffffff" d="M87.85 164.21c0.19 1.64 1 1.37 -4.09 0.75 -3.82 -0.47 -3.63 -0.3 -5 -1 -4.52 -2.43 -6.34 -2.9 -5.68 -3.09 15.7 3.13 14.52 1.13 14.77 3.34Z" stroke-width="1"></path>
  <path fill="#ffffff" d="M73.52 11.48c1.41 2 9.37 23.75 8.87 25.86 -0.19 0.83 -1.49 0.56 -2.13 2a8.546 8.546 0 0 0 -0.23 2c-0.23 2.39 -6.19 3.08 -31.36 13.07 -2.75 1.09 -4.1 2.31 -5.18 -0.45a1.85 1.85 0 0 0 -2 -1.24c-1.08 0.18 -1.07 0.73 -2.15 0.55 -0.89 -0.14 -4.9 -11.62 -10 -23.86 -1 -2.37 1.84 -1.31 2.53 -3 1.3 -3.21 -2.32 -3.17 1.57 -5.16 0.89 -0.45 0.24 0.18 10.88 -4.62 6.63 -3 2.75 -1.45 10.83 -4.18 12.28 -4.21 13.33 -5.45 14 -2.54 0.62 2.73 3.52 0.33 4.37 1.57ZM66 28.67c0.34 -6.11 -4.2 -10.76 -8.87 -10.9A16.6 16.6 0 0 0 48.89 20 18.886 18.886 0 0 0 46 22.28a8.45 8.45 0 0 0 -2.87 6.37c0.6 10.23 7.71 9 9.63 9.57 1.56 0.44 1.77 2.13 2 2.48 0.47 0.68 -0.47 1.06 0 2.08 0.21 0.44 0.29 0.81 0.42 1 0.13 0.19 0.43 0.22 0.4 0.5 -0.14 1.22 1.43 2.4 2.7 2.1 1.55 -0.37 0.85 0.77 3.36 0.11 1.76 -0.45 1.33 -1.76 2.06 -2.12a2.1 2.1 0 0 0 1.16 -2.21c-0.09 -0.76 -0.52 -0.84 -0.58 -1a4.118 4.118 0 0 1 -0.1 -1.18c0 -0.55 -0.19 -1 -1.09 -1.19 -0.42 -0.1 -0.31 0.06 -0.59 -0.52 -0.28 -0.58 -0.69 -2.45 -0.15 -3 0.97 -0.99 3.51 -3.44 3.65 -6.6Z" stroke-width="1"></path>
  <path fill="#ffffff" d="M79.75 65.3c0.88 0.26 0.11 1.11 -0.51 1.19 -0.73 -0.08 -1 -0.51 -0.79 -1.06 0.21 -0.55 0.71 -0.3 1.3 -0.13Z" stroke-width="1"></path>
  <path fill="#ffffff" d="M73.6 63.31c0.07 0.87 -1 1.37 -1.63 1.26 -1 0.09 -2.09 -1.06 -1.12 -1.91 0.97 -0.85 2.67 -0.37 2.75 0.65Z" stroke-width="1"></path>
  <path fill="#ffffff" d="M69.92 132.57c0.77 2.07 0.51 1.17 -15 8.15 -8.75 3.93 -22.77 10 -24.65 11.32 -0.39 0.28 -16.12 -42.2 -18.31 -48.53 -0.57 -1.64 0.09 -2.05 0.58 -2.19 32.88 -9.33 41.62 -12 44 -12.28 1 -0.12 1.12 1 1.17 1.18 2.43 8.52 12.05 41.91 12.21 42.35Zm-16.53 6.73c15.13 -6.28 15.15 -5.94 15.15 -7.13 -0.06 -0.35 -10.36 -35.23 -12.38 -40.43a0.732 0.732 0 0 0 -0.92 -0.52c-4.44 1 -31.72 8.85 -32.19 9 -9.12 2.61 -9 2.32 -9 3.44 0 1.58 16.3 43.76 16.36 43.88a1.172 1.172 0 0 0 1.62 0.55c1.68 -0.62 6.64 -2.69 21.36 -8.79Z" stroke-width="1"></path>
  <path fill="#ffffff" d="M65.68 53.82c3.49 0.6 2.75 2.11 2.56 4.16a0.73 0.73 0 0 1 -0.29 0.54c-1.52 1.1 -1.4 0.85 -1.8 0.92 -0.8 0 -3 -0.29 -3.53 -0.93 -0.79 -1 -1 -1.39 -0.72 -2.09s0.18 -1.41 0.91 -1.79a4.53 4.53 0 0 1 2.87 -0.81Z" stroke-width="1"></path>
  <path fill="#ffffff" d="M63 159.57c0.48 0.18 8.84 4.53 10.33 5.49 -0.18 0.22 -11.64 6 -14.77 7.07a1.224 1.224 0 0 1 -1.16 0 56.64 56.64 0 0 1 -5.17 -2.73l-4.78 -2.64c-0.17 -0.07 0.17 -0.25 0.29 -0.32a33.12 33.12 0 0 1 4.53 -2.35c0.51 -0.21 8.19 -3.83 8.87 -4.13 0.94 -0.43 0.97 -0.73 1.86 -0.39Zm5.25 7.09c0.71 -0.57 0.85 -2.65 -1.92 -2.65 0 0 -1.52 0.16 -1.36 -0.47 0.1 -0.43 0.85 -0.18 1 -0.51a0.712 0.712 0 0 0 0 -0.62c-0.11 -0.33 -0.27 -0.32 -0.61 -0.33a1.435 1.435 0 0 0 -1.44 0.71 1.42 1.42 0 0 0 0.3 1.93c0.51 0.48 1.49 0.35 2.43 0.44 0.24 0 1.09 0.25 0.68 0.64 -0.85 0.81 -1.41 0.35 -1.36 0.92a0.687 0.687 0 0 0 0.63 0.63 2.693 2.693 0 0 0 1.62 -0.69h0.03Zm-3.38 1.11c0.29 -0.87 -0.43 -2 -2.2 -3a8.461 8.461 0 0 0 -1.38 -0.81c-0.28 -0.07 -0.63 0.23 -0.74 0.62 -0.18 0.73 2.34 1.42 2.9 2.49 0.19 0.37 0 0.68 -0.75 0.93s-0.34 1.37 0.52 1c0.86 -0.37 1.44 -0.71 1.62 -1.23h0.03Z" stroke-width="1"></path>
  <path fill="#ffffff" d="M67.22 131.35c0.37 1.35 1.43 0.46 -9.4 5 -28.55 11.82 -26.4 11.38 -26.71 10.49 -1.09 -3.14 -13.65 -36.14 -16 -42.31 -0.2 -0.52 -0.09 -0.94 0.31 -1.06 4.69 -1.43 34.95 -9.92 39.4 -11.19 0.35 -0.1 0.59 0 0.68 0.28 1.26 3.9 10.29 33.54 11.72 38.79Zm-5.86 -9c0.77 -1.74 1 -2.25 0.18 -2.48 -0.82 -0.23 -3.7 -1 -3.95 -0.67 -0.84 1 1.73 1.08 2.66 1.52 0.68 0.32 0.22 0.75 -1 3.52a0.677 0.677 0 0 0 0.53 0.62c0.44 0.14 1.35 -2.02 1.58 -2.55v0.04Zm-2 10.61c1.22 -3 3 -3.85 1.23 -4.43 -6.25 -2.07 -4.41 0.18 -2.72 0.32a9.373 9.373 0 0 1 2 0.6c0.54 0.17 -1.49 2.19 -1.53 3.41 -0.03 0.62 0.76 0.66 0.99 0.06l0.03 0.04Zm-1.7 -10.1c0.29 -0.16 0.36 -0.71 0.1 -0.84 -0.6 -0.3 -0.2 -0.22 -3.55 1.11a26.62 26.62 0 0 0 -3.36 1.5c-10.35 4.12 -11.46 3.69 -10.2 4.71 2.71 -0.51 14.69 -5.29 16.98 -6.52l0.03 0.04Zm-0.09 -6.41c2.57 -5.32 2.47 -4 -2.4 -5.31a0.538 0.538 0 0 0 -0.536 0.278 0.54 0.54 0 0 0 0.214 0.738 0.553 0.553 0 0 0 0.202 0.064c3.53 0.95 3.27 0.17 2 2.75 -0.53 1.09 -1.34 2.21 -0.13 2.18 0.18 -0.15 0.32 -0.15 0.62 -0.74l0.03 0.04ZM55.9 132c0.52 -0.28 0.83 -1.05 -0.1 -1 0 0 -12.61 4.56 -13.74 5 -1.13 0.44 -0.36 0.83 0 1.13 0.09 0.06 2.89 -1 6.44 -2.27 2.529 -0.785 5 -1.74 7.4 -2.86Zm-7.75 -14.29c7.18 -2.86 7 -2.26 7 -3 -0.72 -0.86 -3 0.24 -7 1.79 -4.62 1.75 -12.71 3.5 -10.46 4.5 0.29 0.13 0.32 0 3.13 -0.91 5.88 -2.02 5.51 -1.66 7.33 -2.38Zm3.79 -17.92c0.36 -0.14 1.58 -0.32 1.34 -1.1 -0.14 -0.5 -0.6 -0.3 -2.21 0.16 -0.55 0.16 -4.51 1.63 -8.7 3 -4.72 1.55 -9.75 3 -10.94 3.4 -0.4 0.13 -0.9 0.16 -0.9 0.65 0.04 0.192 0.1 0.38 0.18 0.56 0.1 0.27 0.73 -0.14 1.92 -0.4 4.82 -1.06 16.66 -5.3 19.31 -6.27ZM46 111.8c1.63 -2.75 2.11 -2.14 -1.48 -3.4a6.688 6.688 0 0 0 -1.19 -0.42c-0.42 0 -0.75 0.64 -0.3 0.9 3.48 2 3.32 -0.23 1.14 4a0.561 0.561 0 0 0 0.52 0.84c0.43 0.03 0.52 -0.56 1.31 -1.92Zm-3.72 0.19c0.34 -0.55 0 -0.73 -1.16 -0.47 -2.11 0.46 -14.92 5.16 -15.08 5.41 -0.33 0.49 -0.16 0.79 0.31 0.76 0.47 -0.03 5.55 -2 8.56 -3.08 4.76 -1.61 7.09 -2.2 7.38 -2.61l-0.01 -0.01Zm-2.56 27.36c0.05 -0.46 -0.16 -4 -0.22 -4.36 -0.06 -0.36 -0.16 -0.34 -0.48 -0.46 -0.32 -0.12 -0.42 0.33 -0.42 0.63 0 1.79 0.26 3.31 0.12 4.66 0 0.23 0.14 0.57 0.48 0.48 0.6 -0.14 0.46 -0.3 0.53 -0.95h-0.01ZM38.61 132c-0.18 -1.87 1.09 -5.62 0.06 -5.74 -0.42 0 -0.5 0.57 -0.56 1 -0.59 4.47 -0.63 4.11 -0.48 5.15 0.06 0.38 1.06 0.43 0.98 -0.41Zm-1.27 9.13c1.08 -0.5 0.45 -1.12 0 -1.15 -0.45 -0.03 -2.27 -0.62 -2.73 -0.76 -0.81 -0.26 2.27 -3 1.34 -3.51 -0.45 -0.23 -0.55 -0.13 -2.1 2.23 -0.57 0.87 -0.91 1.71 -0.06 2.06 1.146 0.472 2.335 0.834 3.55 1.08v0.05Zm-1.81 -17.57c0.56 -2.9 1.16 -4.91 1.13 -5.7 0 -0.36 -0.23 -0.32 -0.54 -0.38 -0.31 -0.06 -0.35 0.32 -1.49 5.28 -0.19 0.83 -0.38 1.45 0.31 1.59 0.45 0.04 0.51 -0.35 0.59 -0.84v0.05Zm0.29 9.9a0.479 0.479 0 0 0 -0.37 -0.66c-3.07 -1 -3.18 -0.73 -2.74 -1.53 0.22 -0.38 1.61 -2.55 1.68 -2.71 0.29 -0.62 0 -0.7 -0.32 -0.83s-0.53 0.1 -0.71 0.4c-2 3.15 -2.65 4 -1.93 4.4 1.233 0.524 2.495 0.979 3.78 1.36 0.4 0.04 0.53 -0.24 0.61 -0.48v0.05Zm-2.68 -9c0 -0.16 -0.1 -0.25 -0.42 -0.38 -0.81 -0.3 -2.43 -0.55 -3 -0.84 -0.23 -0.11 -0.19 -0.25 0 -0.46 1.48 -2 2.65 -2.85 1.65 -3.29 -0.34 -0.15 -0.44 0 -0.57 0.22 -1.86 2.48 -3.11 3.43 -2 4.19 1.078 0.503 2.213 0.873 3.38 1.1 0.68 0 0.88 -0.12 0.96 -0.64v0.1Zm-2.7 14.7a0.763 0.763 0 0 0 0.9 0.6 0.765 0.765 0 0 0 0.6 -0.9c-0.1 -1.23 -1.94 -1.02 -1.5 0.2v0.1Zm-1.54 -6.34a1.158 1.158 0 0 0 0.24 -1.35c-1.33 -1.35 -2.15 1.42 -0.57 1.46a1.17 1.17 0 0 0 0.33 -0.21v0.1Zm-0.63 -23.14c0.12 -0.55 0 -5 0 -5a0.463 0.463 0 0 0 -0.404 -0.434 0.462 0.462 0 0 0 -0.496 0.324c-0.06 0.29 0 4.92 0 5.11a0.483 0.483 0 0 0 0.485 0.269 0.481 0.481 0 0 0 0.415 -0.369v0.1Zm-2.38 0c-0.34 -0.15 -1.87 -0.56 -2.05 -0.64 -0.36 -0.13 0.08 -0.43 0.78 -2.52 0.1 -0.29 0.17 -0.59 -0.33 -0.77 -0.5 -0.18 -0.7 0.48 -1.34 2 -0.64 1.52 -1.18 2 2.6 2.81 0.68 0.03 0.98 -0.74 0.34 -1.02v0.14Zm0.19 15.5a1.001 1.001 0 0 0 -0.71 -1.77 1.16 1.16 0 0 0 -0.49 1.41 0.873 0.873 0 0 0 1.2 0.18v0.18Zm-3.08 -7.8c1.42 -0.18 0 -3.29 -0.94 -0.85a0.83 0.83 0 0 0 0.94 0.85Zm-3.76 -7.52a0.82 0.82 0 1 0 1.61 0c-0.07 -0.86 -1.45 -1.49 -1.64 0h0.03Z" stroke-width="1"></path>
  <path fill="#2dd4bf" d="M64.79 27.41c0.33 1.55 -0.34 2.83 -1.28 4.81 -0.19 0.4 -0.71 0.7 -1.9 2.3 -1.54 2.06 0.42 4.46 0 4.6 -0.67 0.21 -0.94 -0.78 -1.16 -1.48 0 -0.09 -1 -3.47 -1.89 -8.14 -0.13 -0.67 0 -0.66 0.32 -0.78 1.88 -0.66 3.38 -1.06 3.74 -2.79 0.69 -3.4 -4.9 -3.1 -5.15 1.84 0 0.19 -0.18 0.3 -0.46 0.4 -0.46 0.18 -2.49 1.18 -4.72 2 -0.44 0.16 -0.1 -0.13 -1.63 -1.3 -3.11 -2.38 -5.47 2.61 -1.66 3.19 3.81 0.58 1.22 -4 7.61 7.52 0.13 0.24 0.68 1.17 0.62 1.4 0 0 -0.08 0.07 -0.14 0.08 -0.79 0.13 -0.84 0.06 -1 -0.27 -2.73 -6.45 -5 -2.39 -9 -5.44 -2.12 -1.65 -5.26 -7.6 -0.34 -12.24 4.37 -4.12 12.11 -6 15.73 -1.27 1.46 1.84 1.72 2.75 2.31 5.57Z" stroke-width="1"></path>
  <path fill="#ffffff" d="M63.79 42.36a1.1 1.1 0 0 1 -0.36 1c-0.74 0.8 -3.17 1.67 -4.43 1.92a1.86 1.86 0 0 1 -2.23 -0.71c-0.19 -0.32 0.31 0 1.6 -0.45 1.55 -0.57 3.21 -1.06 4.14 -1.53 0.65 -0.36 1.28 -0.98 1.28 -0.23Z" stroke-width="1"></path>
  <path fill="#ffffff" d="M63 40c0.21 0.2 0.4 0.78 0 1.06a13.53 13.53 0 0 1 -6.22 2.17c-0.52 0 -0.68 0 -0.91 -0.47 -0.1 -0.19 0 -0.6 0.22 -0.61 3.06 -0.23 6.17 -2.92 6.91 -2.15Z" stroke-width="1"></path>
  <path fill="#2dd4bf" d="M60.47 24.69a0.88 0.88 0 0 1 1.09 1.22c-0.32 0.84 -0.85 0.93 -2.86 1.74a0.251 0.251 0 0 1 -0.17 -0.11 0.883 0.883 0 0 1 0 -0.28c0.18 -1.43 0.6 -2.2 1.94 -2.57Z" stroke-width="1"></path>
  <path fill="#2dd4bf" d="M60 39.47c0.05 0.14 0 0.25 -0.11 0.32 -3.32 1.47 0 1.26 -7 -8.47 -0.22 -0.29 0.29 -0.39 0.68 -0.56 2.16 -0.94 1.79 -0.86 3.83 -1.61 0.14 0.34 1.02 6.17 2.6 10.32Z" stroke-width="1"></path>
  <path fill="#ffffff" d="M54.43 157.61c0.573 0.071 1.13 0.237 1.65 0.49 0 0 -4.93 2.14 -5.09 2.06 -13.39 -2 -17.7 -2.52 -19.1 -2.88 -0.88 -0.22 -0.7 -0.45 -0.79 -1.13a13.24 13.24 0 0 1 -0.18 -2.07c0.11 -0.21 0.49 0 0.84 0 0.54 0.18 19.12 2.82 22.67 3.53Z" stroke-width="1"></path>
  <path fill="#ffffff" d="M50.75 180c0.15 0.06 0.52 0.18 0.22 0.5 -1.59 1.71 -8.94 6.75 -9.79 7.35 -2 1.4 -2.24 2 -3 -2.12 0.6 -3.3 0.14 -2.21 3.69 -4.91 1.13 -0.86 4.46 -3.24 4.72 -3.27 0.26 -0.03 -0.18 -0.17 3 1.58 0.29 0.16 0.37 0.3 -0.29 0.75 -0.31 0.2 -2.28 1.65 -4.34 2.95 -1.72 1.1 -3.52 2 -4.32 2.67 -0.8 0.67 -1.09 0.81 -1 1 0.38 0.84 0.77 0.07 10.59 -6.18 0.1 -0.09 0.31 -0.41 0.52 -0.32Zm-3 -0.76c0.32 -0.45 -0.1 -0.87 -0.49 -0.65a15.456 15.456 0 0 0 -3.4 2.43c-1.5 1.16 -2.59 1.23 -4 2.64 -0.55 0.58 -0.31 0.88 0.13 0.87 1 -0.6 1.22 -1.11 2 -1.45a14.52 14.52 0 0 0 2.79 -1.88c1.09 -0.99 2.49 -1.35 2.93 -1.97l0.04 0.01Z" stroke-width="1"></path>
  <path fill="#2dd4bf" d="M50.9 30.45c0.1 0.09 0.15 0.21 0 0.25a2.37 2.37 0 0 1 -2.22 0.23c-1.39 -0.48 -0.52 -3.03 2.22 -0.48Z" stroke-width="1"></path>
  <path fill="#2dd4bf" d="M43.16 175.43c2 1.48 2.65 1.37 2.21 1.67 -3.24 2.22 -4.89 3.48 -5.74 4.12 -1.26 0.95 -1 0.67 -3.89 -0.07 -10 -2.53 -15.54 -4.42 -18.83 -5.44 -6.14 -1.91 -7.17 -2.32 -6.6 -1.11 0 0.05 0.14 0.06 0.21 0.09 25.38 8.36 27.51 7.6 27.14 8.38 -1.55 3.28 0.46 5.63 -0.19 5.44 -25.21 -7.48 -17.81 -5.63 -24 -7.7 -5.3 -1.77 -4.42 -1 -5.1 -5.4 1.31 -3.94 0.71 -1.19 3.52 -3.74 0.65 -0.59 3.86 -2.57 11.42 -8.13 2.7 -2 1.84 -1.07 4 -2.47 1.16 -0.76 1.24 -1.11 2.16 -0.85 4.5 1.25 9.25 2.55 13.19 3.54 -0.84 0.6 -3.26 0.26 -4.38 2.63 -0.91 1.94 -1.12 4.08 0.17 5.79s1.55 0.95 4.71 3.25Zm-13.37 -3.18c1.11 -1.31 8.43 -6.66 8.2 -7.5 -0.11 -0.4 -0.12 -0.5 -3.77 -1.42 -0.48 -0.13 -3 -0.94 -4.52 -1.29a2.007 2.007 0 0 0 -1.77 0.3c-4.24 3 -12.94 9.48 -13 9.6 -0.54 0.59 -0.15 0.8 0.47 1 0.83 0.3 6.5 2.14 8.68 2.89a1.523 1.523 0 0 0 1.52 -0.14 30.744 30.744 0 0 0 4.19 -3.44Z" stroke-width="1"></path>
  <path fill="#ffffff" d="M36.25 164.74c0.48 0.2 0.13 0.4 0 0.54s-9.16 8.05 -11.14 9.64a0.815 0.815 0 0 1 -0.76 0.14 56.543 56.543 0 0 1 -8.09 -2.74c-0.41 -0.1 0.24 -0.34 1.13 -1 7.09 -5.3 9.87 -7.74 11.25 -8.46a1.192 1.192 0 0 1 1.11 0c0.48 0.08 6.25 1.79 6.5 1.88Zm-5.05 1.68c0.2 -0.33 -0.46 -0.7 -0.61 -0.81 -0.15 -0.11 0.42 -0.47 0.37 -0.81a0.543 0.543 0 0 0 -0.336 -0.436 0.548 0.548 0 0 0 -0.544 0.086c-0.32 0.27 -0.43 0.42 -0.53 0.45 -0.1 0.03 -0.33 -0.23 -0.86 -0.41 -0.53 -0.18 -0.82 0.18 -0.56 0.6 0.11 0.17 0.59 0.3 0.64 0.47 0.05 0.17 -0.53 0.46 -0.52 0.8 0.01 0.34 0.41 0.52 0.62 0.48a1.41 1.41 0 0 0 0.45 -0.35c0.62 -0.58 0.22 -0.26 1.21 0.18 0.37 0.17 0.47 0.1 0.67 -0.25Zm-3.82 2.88c0.31 0.23 1 -0.18 0.73 -0.61a2.843 2.843 0 0 0 -0.59 -0.63c-0.08 -0.09 0.07 -0.19 0.24 -0.31 0.17 -0.12 0.34 -0.32 0 -0.68 -0.17 -0.18 -0.49 -0.24 -0.94 0.18 -0.45 0.42 -0.35 0 -0.71 -0.12 -0.15 -0.06 -0.37 -0.23 -0.51 -0.2a0.754 0.754 0 0 0 -0.44 0.48c0 0.18 0.17 0.33 0.4 0.53s0.22 0.28 0.08 0.42c-0.14 0.14 -0.21 0.24 -0.25 0.3a0.447 0.447 0 0 0 0.055 0.606c0.056 0.05 0.122 0.086 0.195 0.104 0.4 0.16 0.48 0 0.56 -0.1 0.26 -0.17 0.37 -0.35 0.49 -0.38 0.12 -0.03 0.31 0.16 0.69 0.41Zm-1.89 4.07c2 -0.55 1.53 -3.23 0.61 -3 -0.92 0.23 0.77 2.12 -1.88 2a2 2 0 0 1 -1.82 -1.66c-0.1 -0.65 0.62 -0.77 0.87 -0.93a0.498 0.498 0 0 0 -0.13 -0.837 0.499 0.499 0 0 0 -0.33 -0.023c-3.03 0.38 -1.11 5.49 2.68 4.45Z" stroke-width="1"></path>
  <path fill="#ffffff" d="M30.16 156.28c0.12 0.81 -1 0.08 -1.31 -0.88a1.191 1.191 0 0 1 0.43 -1.41c0.16 -0.131 0.34 -0.239 0.53 -0.32 0.191 0.858 0.309 1.732 0.35 2.61Z" stroke-width="1"></path>
  <path fill="#ffffff" d="M24.54 140.57c5.47 14.64 5.14 10.75 3.51 13.21 -0.29 -0.47 -18 -47.23 -18 -47.26 -0.49 -1.31 -0.11 -1.76 0.54 -3.09 0.17 -0.29 -0.84 -2.43 13.95 37.14Z" stroke-width="1"></path>
  <path fill="#1c1c1e" d="M105.35 142.85c-0.32 0 -0.41 0.2 -0.41 0.42 0 0.22 0 0.38 0.21 0.38a7.077 7.077 0 0 0 3 -0.3c0.12 -0.09 0 -0.36 0 -0.5 -0.14 -0.32 -0.49 -0.16 -0.84 -0.13l-1.96 0.13ZM91 165.45c-1.34 1.92 -1.66 1.29 -3.16 1.1 -6 -0.75 -5.12 -0.68 -5.39 -0.64 2.31 1.59 6.85 3.53 8.48 4.91 0.65 0.55 1.05 1 0.4 1.54s-0.73 2 -0.54 3.6c0.19 1.6 2.32 1.8 0.72 2.64 -0.26 0.14 -5.3 2.21 -8.11 3.59 -3.24 1.59 -6.89 3.41 -10.19 4.75 -0.52 0.21 -5 2 -5.38 2.14 -1 0.57 -2.28 -0.17 -6.44 -2.66L52.48 181c-0.49 -0.34 -0.46 0.14 -5.31 3.73 0 0 -5.77 4.3 -7.42 5.14 -2 1 -26.51 -7.88 -26.59 -7.91 -4.11 -1.46 -5.11 -1.29 -5.65 -3.55 -0.18 -0.73 -0.24 -2 -0.28 -2.16 -0.33 -1.07 0.35 -2.15 1.14 -3.5 0.61 -1 1.2 -0.43 2.66 -1.71 0.24 -0.22 12.49 -8.94 12.51 -8.95 1.51 -1.05 1.24 -0.68 3.87 -2.33 1.64 -1 -0.58 -1 14.37 2.57 3.5 0.83 2.12 1.11 6.79 -1 1.27 -0.56 2.39 0 -16.49 -3.05 -4 -0.64 -4.43 -2.55 -5.91 -6.38 -3.24 -8.44 -2.5 -6.43 -2.76 -7.16 -0.17 -0.46 0.09 -0.3 -6.17 -0.3 -13.16 0 -12.17 0 -12.23 -0.53 -0.11 -0.95 0.89 -0.51 17.61 -0.57 0.65 0 -13 -34.3 -13.82 -37.75 -0.22 -0.88 1.35 -3.47 2.1 -4.4 0.75 -0.93 -2.57 0.19 44.47 -13.06 3.07 -0.86 2.93 0.32 3.81 3.44 8.67 30.8 11.12 38.9 11.78 41 0.35 1.12 0.72 1.18 1.11 1.21 1.45 0.09 3.27 0 4.17 0.09 1.27 0.1 2.72 -1 4.29 -1.79a12.237 12.237 0 0 1 3.49 -0.79c14.24 -1.51 10 1.3 34.58 -2.65 1 -0.16 0.68 0 0.62 -1a2.634 2.634 0 0 1 2.48 -2.76c0.92 -0.11 1.3 0 1.43 -0.52a3.266 3.266 0 0 1 2.24 -2.67c0.36 -0.09 0.18 0.1 0.23 -3.7 0.1 -7.7 -1.77 -11.69 -1 -15.06 0.53 -2.24 0.11 -7.34 1.27 -10 2 -4.51 2 -3.07 0.38 -2.57a8.406 8.406 0 0 1 -3.39 1.27c0.16 0.81 0.07 0.67 0.12 0.82a4.6 4.6 0 0 1 -1.26 4.78 4.69 4.69 0 0 1 -0.72 0.77 0.658 0.658 0 0 1 -1.002 -0.169 0.66 0.66 0 0 1 -0.088 -0.371 4.002 4.002 0 0 0 -0.76 -2 2.002 2.002 0 0 0 -2 -1.07c-7.47 0.25 -7.57 -1.29 -7.77 -0.73 -0.197 0.85 -0.503 1.67 -0.91 2.44 -2.89 4.33 -8.65 4.4 -7 2.06 0.358 -0.378 0.6 -0.85 0.7 -1.36 0.25 -2.48 0.63 -3.7 -0.46 -5.53 -1.25 -2.08 0.68 2 -4.36 5.34 -0.95 0.64 -1.64 0.39 -2.9 0.2a0.72 0.72 0 0 1 -0.27 -1.29 4.459 4.459 0 0 0 -0.79 -7.27c-4.53 -2.14 -5.26 -6.12 -3.27 -10.3 1 -2.1 1 -2.23 0.86 -3.88a2.1 2.1 0 0 0 -0.69 -1.49c-0.81 -0.63 -3.15 -2.57 -3.61 -3.49 -2 -3.91 -1.19 -9.55 0.93 -13.3 0.39 -0.68 0.68 -1.06 3 -3.25 1.18 -1.11 1.05 -1 3 -1.25 -0.35 -0.71 -2.59 -1 -3.57 -0.89a7.57 7.57 0 0 0 -2.68 1.09c-1.11 0.35 -0.81 -1.06 -0.13 -2.13 3.32 -5.17 7.49 -0.85 7 -2 -0.86 -1.92 -1 -1.78 -2.18 -2.6a0.69 0.69 0 0 1 -0.05 -1.22 5.75 5.75 0 0 1 2.43 -0.12c1.1 0 1.69 0.74 2.52 1.59a3 3 0 0 1 0.83 1.56c0.17 0.44 0.58 -1.82 3.91 -4.28 2.21 -1.63 1.31 -1.6 8.1 -6.67 1.26 -0.94 3.23 -1.66 6.12 -2.91a11.078 11.078 0 0 1 4.92 -1.46c5.24 -0.24 8 -0.53 15.89 6.06 2.07 1.74 3.94 2.92 5.67 8.63 0.63 2.05 -0.87 8.34 4.39 9.48 4.22 0.92 7.45 0.19 14.21 4.72 2.3 1.54 3.64 4.44 4.6 7 0.687 2.039 0.889 4.21 0.59 6.34 -0.17 2.17 -0.84 2.37 -0.23 2.36 1.683 -0.112 3.374 0.06 5 0.51 3.35 1.32 5.21 0.75 10.64 5.28 2.48 2.08 4.48 7.83 4.85 11.06 0.78 6.74 2.07 7.37 3 16.25 0.93 8.88 1.39 4.65 0.79 20.65 -0.59 15.64 4.38 28.18 4.68 34.24 0.11 2.2 0.21 3.21 -1.62 4.27 -6.71 3.86 -3.92 1 -4.53 5.59 -0.17 1.3 0.88 0.33 2.22 2.71 2.89 5.12 2.06 14.11 1 14.26 -0.75 0.11 -0.65 -0.57 -0.49 -1.26 0.83 -3.64 0.39 -11.53 -2.69 -13.84 0 0.11 -0.4 6.93 -3.33 9.39 0 0 -8.44 8.43 -10.9 7.91 -2.06 -0.44 4.24 -3.43 7.3 -6.47 2.35 -2.33 5.19 -3.61 5.6 -11.21 0.22 -3.94 0.3 -4.07 -0.08 -3.91 -5.69 2.56 -4.16 0.84 -17 4.53a17.758 17.758 0 0 1 -6.95 0.75c-2.56 -0.45 -4.29 -0.66 -4.37 -2.32 0 -0.22 -0.11 -0.27 -0.31 -0.26 -2 0.12 -6.17 -1.15 -6.44 -1.19 -2.48 -0.44 -4 -0.3 -5.71 -1.18 -3.08 -1.58 -3.55 -3.67 -8.59 -6.2 -0.29 -0.15 -0.25 0.3 -0.26 0.43 -0.3 3.3 -5 -1.53 -7.05 -1.63a12.712 12.712 0 0 1 -5 -0.77c-0.78 -0.35 -4.21 -2.61 -5 -2 -0.42 0.3 -3.65 1.25 -4.73 1.95 -2 1.29 -5.37 1.17 -5.66 2.56 -0.1 0.48 -5.51 16.08 -5.49 16.69 2.34 -2 1.64 -3.1 12 -6.1 0.85 -0.25 2.46 -0.93 3.46 -1.29a14.52 14.52 0 0 0 3.4 -1.25 16.638 16.638 0 0 1 5.16 -1.6c2 -0.31 1.57 -1.77 4.32 -2.7 3.09 -1 3 0.61 2.22 0.76a5.537 5.537 0 0 0 -3.75 1.89c-1.17 1.43 -2.88 1.34 -4.55 1.54 -0.55 0.07 -3.2 1.32 -7.83 3 -4.82 1.76 -10.83 1.89 -15.52 9.54 -0.87 1.43 -0.69 4.06 -1.79 4 -0.65 0 -0.39 -1.1 1.6 -7.14 7.14 -21.68 1.48 -6.41 9.31 -27.44a55.06 55.06 0 0 0 0.14 -7c-1.59 -0.81 0.47 -1.23 -13.39 32.2a13.336 13.336 0 0 0 -1.08 3.25 9.652 9.652 0 0 1 -0.92 2.42c-0.09 0.32 -0.64 1.84 -0.65 1.87a0.449 0.449 0 0 1 -0.788 0.107 0.45 0.45 0 0 1 -0.082 -0.307c0.22 -0.985 0.534 -1.946 0.94 -2.87 1 -3 0.27 -1.46 1.27 -4.18 1 -2.72 0.78 -1.13 4.51 -11.23 7 -19 9.48 -21.73 7.94 -21.83 -1.31 -0.09 -0.87 -0.4 -1.51 -0.1a7.265 7.265 0 0 1 -2.92 0.34c-1.32 -0.18 -1.9 0.71 -3.88 1.23a2.612 2.612 0 0 0 -1.12 0.92c-0.41 0.6 1.95 -2.74 -10.32 14.79Zm102.24 1.14c2 -1.29 -2.93 -17.19 -3.21 -20.49 -0.95 -11.29 -1.3 -6.54 -1.21 -12.68 0.15 -9.34 1.13 -9.48 -0.45 -22.07 -1 -8 0.19 -2.87 -2.09 -12.28 -1.73 -7.09 -0.68 -14.19 -9.79 -19.24 -2.5 -1.39 -3.59 -1.1 -6.14 -2.25 -1.13 -0.5 -5 -0.72 -5.2 -0.37A12.84 12.84 0 0 1 160 84c-2.9 1.81 -3.53 1.54 -3.58 2.06a33.294 33.294 0 0 1 -1 7.21c-1 3.32 -0.42 3.31 -0.43 6.31 0 6.13 -1.52 7.16 -1.94 11.14 -0.42 3.98 0.45 4.08 -0.07 7.28 -0.49 3 0.2 7.8 0.46 7.29 0.43 -0.83 0.79 -0.48 1.27 -3.68 0 -0.18 0.39 -3 0.37 -4 -0.11 -5.53 1.82 -6.69 2.49 -11.47 0.44 -3.09 0 -4.2 0.6 -6.17 0.94 -3.18 1.19 -2.89 1.62 -5.66 0.151 -1.722 0.445 -3.428 0.88 -5.1 0.2 -0.68 1 -0.46 1 0.27 -0.267 3.56 -1 7.07 -2.18 10.44 -0.83 2.66 0.27 3.79 -1.87 11.4 -0.34 1.21 -1.54 3.58 -1.35 5.64a32.557 32.557 0 0 1 -0.89 7.21c-0.5 2.28 -2.63 2.42 -2.59 6 4.24 0.11 3.39 1 5.77 1.5 0.77 0.18 1.64 0.59 1.23 1.26 -0.41 0.67 -1 -0.14 -1.59 -0.19a7.27 7.27 0 0 1 -2.34 -0.87c-2.12 -0.91 -2.13 -0.44 -2.51 -0.53 -0.63 -0.15 -1.06 0.36 -1.35 0.94 -0.8 1.6 1.74 -0.21 2.56 4.51 0.29 1.69 0.81 1.61 1.37 2.56 0.39 0.66 0.65 1.9 0 2 -0.65 0.1 -0.55 -0.32 -0.69 -0.79 -0.4 -1.29 -1.37 -1.26 -1.65 -3.07 -0.33 -2.11 -1.15 -3.11 -1.13 -2.71 0.11 2.2 -0.05 3.54 0.21 5.24 0.06 0.38 0.07 1.2 -0.48 1.23 -1 0 -0.66 -3.43 -0.76 -5.79 -0.11 -2.69 -2.12 -4.52 -3.24 -4 -0.62 0.28 -1.74 -0.16 -2.8 1.17a3.61 3.61 0 0 0 -1.22 2.24c0 1 -0.44 1.23 -0.4 3.27 0 0.84 -0.56 1.16 -0.87 0.86 -0.66 -0.64 0 -3.55 0.31 -5.21 0.1 -0.58 -2.27 -0.41 -2.29 -0.41 -1.81 1 -1.31 0.85 -1.9 2 -1.06 2 -1.89 3.13 -1.63 5.49 0.22 2 0 1.66 -0.31 4.26 -0.31 2.6 0.35 5.63 0.29 6.41 -0.18 2.31 3.06 3.57 3.71 3.62 0.432 0.048 0.869 -0.028 1.26 -0.22 0.33 -0.19 1.09 -0.6 0.94 -1.11a6.8 6.8 0 0 1 -0.32 -4.08c0.12 -0.42 0.8 -0.31 0.85 0.15 -0.016 0.565 0.01 1.13 0.08 1.69A23.287 23.287 0 0 0 145 155c0.57 1.93 5.21 2.23 7.61 1.05 0.48 -0.23 -0.36 -0.36 -0.84 -1.64 -1.26 -3.29 -0.58 -7.73 -0.47 -8.91 0.11 -1.18 0 -1.55 0.62 -1.56 1 0 0.22 2.75 0.17 4.35 -0.28 7.87 2.66 7.34 4.94 7.58 5.56 0.59 5.55 -1 8.91 -1.63 2.34 -0.47 3.7 -0.23 5.74 -1.31 2.82 -1.49 2.72 -1.12 5.94 -6.66 0.8 -1.37 1.86 -10.13 2.39 -12.76 1 -5 2.12 -5.72 2.25 -10.27 0 -1.41 0 -4.77 0.14 -6.13 0.47 -3.2 2.12 -9.07 1.31 -17.22a12.768 12.768 0 0 1 -0.22 -3.17 0.477 0.477 0 0 1 0.445 -0.3 0.477 0.477 0 0 1 0.445 0.3c2.53 7.72 -1 18 -0.94 22.81 0 7.31 -0.4 7.27 -1.5 11.25 -2.48 9 -1.23 12.94 -4.09 17.47 -0.92 1.46 -2.65 6.45 -9.87 6.9 -3.18 0.19 -5.24 2 -8.21 2 -0.35 0 -0.2 0.16 -0.19 1.59 0.06 4.37 1.62 4.1 1 11.35 0 0.3 -0.58 4.07 -0.05 4.3 5.27 2.35 9.75 -0.3 20 -2.49 7.73 -1.66 5.75 -2.07 8.56 -3.06a42.22 42.22 0 0 0 4.18 -2.25h-0.03Zm-28.06 -93.67a14.179 14.179 0 0 0 -1.77 -8.32c-2.31 -3.93 -5.14 -5.13 -9.42 -6.71 -2.75 -1 -2.29 -0.65 -4.81 -0.92 -6.56 -0.7 -7.4 -3.4 -7.78 -9 -0.24 -3.62 -2.36 -7.33 -3.79 -8.31a48.555 48.555 0 0 0 -6.75 -5C128 33 128 32.38 122.67 32.32a12.94 12.94 0 0 0 -5.77 1.11c-7.18 3.41 -4.94 1.74 -10.64 6.4 -8.44 6.91 -5.75 5.1 -8.31 8.69a0.461 0.461 0 0 1 -0.81 -0.19 5.6 5.6 0 0 0 -0.87 -2.48c-1 -1.06 -1.33 -1.56 -2.73 -1.4 0.18 0.26 0.45 0.5 0.7 0.85 1.44 2 1.88 5.42 -0.31 3.45 -2 -1.79 -5.69 -0.43 -5.78 1.11a10.45 10.45 0 0 0 1.52 -0.43c0.74 -0.28 1.39 -0.07 3.25 0.25a2.33 2.33 0 0 1 1.84 2c0.12 0.74 -0.2 0.67 -1.9 0.82 -0.62 0 -0.91 0.41 -1.9 1.35 -1.67 1.6 -3.16 2.51 -4.15 7.54 -0.47 2.38 -0.17 6.33 1.27 7.73 3.17 3.07 3.59 2.51 3.94 4.49 0.71 4.15 -2.47 5.83 -1.73 9.63a6.36 6.36 0 0 0 3.46 3.9 5 5 0 0 1 2.94 4.17 6.15 6.15 0 0 1 -1 4.58 2 2 0 0 0 0.88 -0.18c1.87 -1.43 3.54 -2.24 3.57 -7.11a0.473 0.473 0 0 1 0.321 -0.436 0.47 0.47 0 0 1 0.519 0.156c2.7 4 2.53 3.66 2.28 8 -0.13 2.31 -1.37 2.52 0 2.22a9.165 9.165 0 0 0 2.74 -1.4c1.4 -0.64 2.81 -4 2.2 -4.51 -0.61 -0.51 -2.42 -2.45 -1.77 -2.88 0.23 -0.15 0.42 -0.26 0.86 0.42 3.7 5.61 10.33 1.17 12.59 4.37 1.42 2 1 2.1 1.38 1.76 2 -2 -0.09 -5.45 0.37 -5.85 0.75 -0.66 0.52 1.54 7.29 -3.18 1.19 -0.83 1.13 -1.35 2.22 -2.06 1.09 -0.71 1.23 -0.57 -3 -3.43 -2.31 -1.56 -2 3.13 -8.39 7.1 -2.36 1.47 -4.26 -0.41 -6.24 -2.1 -2.26 -1.92 -3.89 -1.76 -5.09 -3.93 -1.76 -3.18 -1.62 -2.66 -2.14 -2.41 -0.93 0.46 -2.92 0.14 -3.1 -1.12 0 -0.26 -0.12 -0.33 -0.36 -0.33 -1.52 0 -3.83 -1.67 -4.3 -4.33 -0.35 -2 0.8 -2 0.41 -2.54 -1.25 -1.7 -1.07 -2.05 -1.32 -2.09 -0.25 -0.04 -0.13 1 -0.33 1.16 -0.2 0.16 -0.68 0.17 -0.84 -0.25 -0.54 -1.36 0.57 -1.91 0.6 -2.19 0 -0.1 -2 -3.87 -1.89 -7.49 0 -0.27 -0.17 -2.4 -0.08 -3.5 0.15 -1.62 1 -3.42 0.43 -3.11 -0.57 0.31 -1.13 1 -1.59 1.32 -0.46 0.32 -1.22 0.09 -0.52 -0.8 1 -1.27 3.75 -4 7.18 -0.68 2.34 2.24 1.2 3.49 4.22 8.42 0.19 0.3 0 -0.23 1.06 -1.16 0.42 -0.38 0.94 -0.4 1 0.21 0.06 0.61 -1.34 1.83 -0.71 2.21 0.474 0.338 0.988 0.617 1.53 0.83a9.16 9.16 0 0 0 6.49 -0.35c0.11 -0.07 1.34 -0.4 2 -0.72 0.22 -0.1 -0.43 0.26 3.2 -1.93 1.47 -0.89 1.23 -3.7 5.55 -3.63 3.25 0.05 4.05 4 4.27 7.26 0.15 2.28 -0.75 2.69 -0.38 2.94a5.228 5.228 0 0 0 2.62 1.92c2.43 0.82 5.68 1.27 7 2.42 2.87 2.49 5.06 5.63 5.39 12.23 0.144 1.508 -0.04 3.03 -0.54 4.46 -0.14 0.53 1.17 0.14 1.67 -0.11 4.44 -2.14 6 -2 8 -7.08 1.85 -4.68 -0.12 -7.54 0.93 -7.67 0.29 0 0.49 0.06 0.55 0.35 1.46 6.45 -2 10.13 -1.34 10.16a3.68 3.68 0 0 0 1.44 -0.09c3.57 -1.25 7 -3 8.67 -6.43 0.73 -1.52 1.93 -4.12 1.99 -5.81Zm-6 98.27c0.75 -8.47 0.25 -3.4 -0.66 -11.31 -0.26 -2.26 0.14 -2.67 -0.44 -2.73 -5.53 -0.64 -3.06 -0.6 -6.25 0.59 -2 0.72 -6.89 0.36 -7.85 -1.78 -0.08 -0.17 -0.16 -0.5 -0.6 -0.31 -1.56 0.67 -1.16 0.32 -1.44 1.33 -1.35 4.84 -1.17 4.13 -3.66 7 -0.25 0.28 0.33 0 2.17 1.27 2.78 1.86 3.08 3 6.07 4.88 1.94 1.23 4.56 1.18 5.64 1.38a35.906 35.906 0 0 0 6.58 1.25c0.47 -0.03 0.31 -0.06 0.44 -1.57Zm-3.92 -83.35c0.13 -1.63 0.21 -1.78 -0.12 -1.68a4.78 4.78 0 0 1 -2.35 0.09c-1.45 -0.08 -0.71 2 -0.74 3.49a24.983 24.983 0 0 1 -0.84 6.25c-0.69 1.5 0.2 1.85 0.14 2.9 -0.17 2.94 -1.67 6.38 -4.62 6.4a4.503 4.503 0 0 1 -3.57 -1.74c-0.57 -0.94 -0.29 -1.33 -1.73 -2.31 -1 -0.65 -2 -1.06 -3.06 -4.12s0.22 -0.28 -2.06 -4.46c-1.86 -3.42 -2 -8.44 -2.48 -1.35 -0.18 2.87 1 7.13 1.32 8.69a57.226 57.226 0 0 0 3.32 10.41c2.54 6.69 0.86 6.61 3 10.82 2.49 5 0.83 8.86 2.26 11.21 0.79 -0.52 1.26 -2.05 3.35 -2.21 1.27 -0.1 1.3 -0.42 2.32 0a6.394 6.394 0 0 1 1.76 1.22c0.65 -0.84 0.61 -0.66 0.55 -1a5.78 5.78 0 0 1 0.68 -3.63c0.25 -0.45 0.05 -0.69 -0.15 -1.28a13.731 13.731 0 0 1 -0.35 -2.18c-0.69 -4 0.41 -5.38 0 -8.84 -0.73 -6.51 2.82 -9.55 1.89 -17.79 -0.26 -2.14 1.06 -3.67 1.48 -8.89Zm-5.2 7.94c0.69 -1.6 1.36 -8.53 0.52 -7.75a26.002 26.002 0 0 1 -6.76 2.91c-4.88 0.24 1.92 -1.41 -3.11 -13.48a9.18 9.18 0 0 0 -2.63 -3.21c-1.23 -1.34 -4.33 -1.68 -7.25 -2.77 -2.7 -1 -2.36 -2.53 -3 -2.12 -3.37 2.23 -4 -0.59 -2.38 -0.32 1.16 0.2 2.9 -1.28 2.57 -3.58a11.637 11.637 0 0 0 -1.12 -4.52c-0.18 -0.36 -1.15 -1.36 -1.55 -1.37 -0.82 0 -2.49 -0.18 -3.52 1.06 -2.09 2.52 0.69 3.59 -1.35 5.21a2.88 2.88 0 0 1 -3.29 0.25c-0.53 -0.38 -0.53 -0.44 -0.77 -0.22 -2.89 2.54 -3.25 2.91 -3.88 3.12 -1.47 0.48 -1.56 0.27 -1.36 0.63 2.68 4.88 -3.19 8.33 -6.47 4.16a0.381 0.381 0 0 0 -0.53 -0.15c-0.85 0.35 1.28 0.57 0.75 3.37a3.906 3.906 0 0 1 -0.68 1.48c-0.7 1 1.62 1.45 2.37 -0.07 0.41 -0.85 0.44 -1.19 1.08 -1.2 0.43 0 0.49 0.75 0.36 1.1 -0.45 1.16 -0.7 1.17 -0.48 1.38 1.59 1.51 1.14 3.17 4 4.4 5.25 2.28 5.21 8.24 12.53 -1.14 2.2 -2.81 2.24 -3.79 5.69 -1.42 0.69 0.47 7.24 5.29 6.37 5.86 -0.72 0.47 -1.35 -1.51 0.18 2.83 0.35 1 0.21 0.6 1.87 3.54 1.38 2.46 0.63 2.14 1.71 4.26 1.45 2.86 2.75 1.61 3.93 4.44 0.76 1.82 4.27 2.39 5.33 0 0.33 -0.76 1.22 -2.69 1 -3.82a4.309 4.309 0 0 1 -0.13 -2.86ZM141.44 132c1.67 0 0.49 0.46 0.47 -3.64 0 -5.43 -1.35 -6 -2.25 -8.37 -0.46 -1.25 -0.35 -2.23 -1.16 -6.17 -0.46 -2.21 -2.5 -6.24 -3.12 -8.75 0 0 -2.5 -9 -2.59 -12.09 -0.16 -6.4 1.58 -6.61 0.44 -7.39 -0.15 -0.1 -0.39 -0.32 -0.54 -0.2a11.663 11.663 0 0 0 -3 2.85 48.651 48.651 0 0 0 -3 5.55c-0.81 2.1 -0.62 7.26 -0.86 8.27 -1.21 5.06 1.09 5.49 0.78 18.26 0 1.62 0 1.21 2.31 2.1 1 0.39 0.88 0.12 1.5 0.25 3.13 0.68 0.49 2.34 -0.19 -9.51 -0.43 -7.53 -1.48 -7.23 -1.14 -8.2 0.1 -0.29 0.59 -0.59 0.85 -0.08 0.247 0.547 0.428 1.121 0.54 1.71 0.45 2.07 0.721 4.174 0.81 6.29 0 0 0.09 5.51 1.26 8.69 1.54 4.15 0.69 3.57 1.36 9.64a28.848 28.848 0 0 0 0.11 3.66c0 0.33 3.55 0.21 3.76 -0.44 0.42 -1.11 2.34 -2.68 3.66 -2.43Zm-0.6 25.35c0.31 -1 0.31 -1 0.1 -1.08 -1.68 -0.27 -3.88 -1.33 -4.52 -3.06 0 -0.08 0.1 -0.15 -1 -0.33 -0.66 -0.11 -6.74 -1.29 -7.43 -1.38 -0.49 -0.06 -0.65 0 -0.7 0.14 -0.75 1.82 -6.94 4.62 -6.64 7.84 0 0.75 -0.13 0.91 0.75 0.95 3.34 0.15 2.55 2.49 9.4 2.63 1.74 0 4.46 2.13 4.79 2.3 0.76 0.38 0.61 0.27 0.8 -0.37 1.05 -3.32 2.61 -1.8 4.45 -7.6v-0.04Zm-4.64 -18.75c0.51 -2.38 2 -2.91 0.26 -2.68 -0.52 0.06 -3.21 0.35 -3.53 0.4 -22.26 3.42 -20.49 2.36 -21.09 3.58a4.34 4.34 0 0 1 -2.37 2.23c-0.78 0.25 0.27 4.42 0.68 4.86 0.41 0.44 7 1.26 14.87 2.74 16.48 3.11 9.21 2.85 10.86 -5.33 0.67 -3.26 -0.17 -3.4 0.32 -5.76v-0.04Zm-3.34 -5.84c0.26 -1.6 -0.38 -3.24 -0.27 -5 0 -3.26 -0.13 -2.57 -0.84 -3.12a2.67 2.67 0 0 0 -2.16 -0.82c-1.78 -0.31 -0.5 -0.27 -2.7 -0.86 -0.34 -0.09 -0.71 0 -1 -0.12 -0.87 -0.24 -1.87 1.71 -1.53 1.87 2.46 1.19 1 0.18 3.49 1.65 0.24 0.14 0.79 0.75 1.07 1 0.48 0.4 0.2 0.93 0 1 -1 0.18 -0.62 -0.3 -2.24 -1.33 -1.87 -1.18 -5.51 -1.83 -6.21 -0.1 -0.41 1 -0.1 1.51 0.45 1.77 2.68 1.29 2.86 2 5.63 5.8 1.66 2.28 -0.45 1.58 3.23 1.35 1 -0.06 1.88 -0.32 2.83 -0.46 0.39 -0.11 0.02 -1.24 0.25 -2.59v-0.04Zm-6.63 18.53c-0.93 -0.47 -10.65 -2.12 -11.12 -2.24 -1.54 -0.4 -1.17 -0.12 -1.1 3.31 0.2 11.64 -0.41 10.9 0.91 10.26 4.26 -2 4.6 -1.5 4.61 -2.15 0 -1.64 0.08 -2.55 0.63 -3.43 2.08 -3.22 4.45 -3.81 6.07 -5.71v-0.04Zm-5.35 -14.18c6.13 -1.61 6.21 0.27 3.49 -4 -2 -3 -3.12 -3.73 -5.67 -3.58 -3.37 0.2 -8.68 1.82 -18.83 2.07 -2.36 0.06 -5.48 0.1 -8.42 -0.06 -0.89 0 -7.87 0.33 -10.42 1.43 -2.55 1.1 -2 1.28 -4.52 2 -2.35 0.62 -2.67 1.44 -4.67 2.21 -1.32 0.5 -1.11 1.87 0.2 1.54 0.768 -0.268 1.52 -0.582 2.25 -0.94 1.56 -1.22 10.12 -4.25 10.32 -3.31 0.14 0.63 -1.94 1.1 -3.27 1.4 -2.48 0.55 -2.09 1 -4.49 2.11 -1.8 0.84 -1.42 1.49 -2.93 2.45 -1.09 0.69 -2.35 1.38 -2.92 1.77 -0.75 0.5 -0.32 1 0.17 1a4.478 4.478 0 0 0 2.49 -1c1.5 -1 2.78 -1.67 3.63 -2.35a14.75 14.75 0 0 1 2.16 -1.44c2 -1.16 1.29 -0.37 5.27 -1.68 0.76 -0.25 2.07 -0.52 1.83 0.24 -0.1 0.31 0 0.19 -2.69 1.09 -3.46 1.15 -3.68 0.5 -4.5 1.68a8.327 8.327 0 0 1 -1.65 2.4 6.464 6.464 0 0 0 -1.23 2c0.497 -0.122 0.985 -0.279 1.46 -0.47 0.56 -0.16 0.1 -0.07 2.47 -2.44 1.12 -1.13 2.12 -0.85 5.18 -1.7 0.25 -0.07 0.54 -0.52 0.69 -0.65 0.31 -0.27 1 0 0.84 0.7 -0.19 0.84 -1 1.53 -0.57 1.52 1.57 0 14.07 -1.06 14.86 -1.34 1.52 -0.56 0.67 -1.77 2.81 -2.85 1.49 -0.75 4.93 -1.2 6.73 -0.43 1.42 0.62 0.88 1.72 1.64 1.63 0.03 0.05 7.47 -0.75 8.29 -0.96v-0.04Zm-2.27 -71.73c0.7 0.15 1.91 -0.64 1.64 -1.31 -0.6 -1.5 0.54 -1.68 -2.71 0.88 -0.27 0.25 0.51 0.52 1.07 0.47v-0.04Zm-3.64 0.37c0.82 -0.7 -1.21 0.56 -3.86 0.79 -4.34 0.38 -5.46 -1.9 -5.49 -1 -0.1 3.21 -0.29 1.31 1.81 1.58 1.63 -0.17 2.6 1.46 3.31 1.23 1.94 -0.57 0.95 0.28 4.26 -2.56l-0.03 -0.04Zm-3.59 98c1.92 -0.56 1.88 0.17 1.68 -4.11 0 0 0 -1.63 -0.09 -1.18 -0.03 0.14 -2.14 5.54 -1.59 5.33v-0.04Zm-0.87 -23.75a0.808 0.808 0 0 0 -0.68 -0.8 0.868 0.868 0 0 0 -0.89 0.82 0.712 0.712 0 0 0 0.186 0.669 0.712 0.712 0 0 0 0.664 0.201 0.938 0.938 0 0 0 0.72 -0.89ZM110 73.79c3.47 -3.73 -4.83 -8.65 -5.3 -3 -0.23 2.66 3.56 4.86 5.3 3Zm-0.7 64.66c0.76 0 1.36 -1.15 0.38 -1.4 -1.24 -0.32 -1.56 1.41 -0.38 1.4Zm-0.48 9a0.298 0.298 0 0 0 0.238 -0.289 0.297 0.297 0 0 0 -0.028 -0.131 0.31 0.31 0 0 0 -0.32 -0.26c-0.894 0.19 -1.806 0.287 -2.72 0.29 -0.21 0 -0.2 0.16 -0.14 0.35 0.06 0.19 0.13 0.34 0.3 0.36a5.27 5.27 0 0 0 2.67 -0.28v-0.04Zm-0.26 -1.27c0.22 -0.06 0.18 -0.63 -0.16 -0.64 -0.34 -0.01 -1.7 0.21 -2.62 0.27 -0.31 0 -0.38 0.14 -0.37 0.31a0.387 0.387 0 0 0 0.253 0.339 0.367 0.367 0 0 0 0.147 0.021 9.864 9.864 0 0 0 2.75 -0.26v-0.04Zm-0.14 -6.69c0.15 -1 -1.22 -1.48 -2.07 -0.48a0.999 0.999 0 0 0 0.55 1.63 1.327 1.327 0 0 0 1.52 -1.11v-0.04Zm-0.14 5.37c0.29 -0.26 0.11 -0.74 -0.07 -0.74s-2.82 0.16 -3 0.21c-0.18 0.05 -0.16 0.21 -0.15 0.38 0.01 0.17 0.07 0.38 0.29 0.39 0.605 0.02 1.21 -0.01 1.81 -0.09 0.376 0.002 0.751 -0.035 1.12 -0.11v-0.04Zm-0.89 -7.08c0.65 -0.07 0.65 -1.14 0 -1 -0.65 0.14 -0.66 1.08 0 1.04v-0.04Zm-1.75 0.84a0.636 0.636 0 0 0 0.325 -0.461 0.63 0.63 0 0 0 -0.165 -0.539 0.704 0.704 0 0 0 -0.881 -0.148 0.697 0.697 0 0 0 -0.309 0.838 0.662 0.662 0 0 0 1.03 0.35v-0.04Zm-1.36 2.38c1.43 -0.07 1 -1.52 0.15 -1.47 -0.67 0.08 -0.74 0.44 -0.81 0.66a0.683 0.683 0 0 0 0.66 0.81Zm0.69 6.83c0.57 -0.27 -0.28 -0.07 -0.62 -3.18 -0.22 -2.07 0 -1.85 -0.55 -1.93 -2.45 -0.37 -1.4 -1.94 -2.36 -1.78 -0.96 0.16 -17.33 1.18 -19.32 1.93 -0.8 0.31 -2 1.38 -3.55 1.79 -2.77 0.72 -4.07 2 -6.22 2.82 -0.29 0.11 -1.94 0.59 -1.69 1.21s1.1 0.43 1.59 0.34a21.157 21.157 0 0 0 4.6 -1.9 31.495 31.495 0 0 1 8.69 -3.25 0.375 0.375 0 0 1 0.228 0.034 0.375 0.375 0 0 1 0.199 0.391 0.37 0.37 0 0 1 -0.107 0.205c-1 0.84 -4 0.9 -5.15 1.9 -2.51 2.17 -3.11 1.37 -4.22 2.85 -1.11 1.48 -4.32 2.63 -4.44 3.43 -0.12 0.8 1.13 0.58 1.79 0.28 0.85 -0.38 2.22 -1.51 5.67 -3.86 2.36 -1.61 -0.94 -0.62 6.46 -2.71 0.84 -0.24 1.85 -0.59 2 -0.1 0.15 0.49 -0.45 0.63 -0.89 0.78 -5.59 2 -5.76 1.2 -6.59 3 -0.7 1.55 -1.5 1.54 -2.15 2.61a15.718 15.718 0 0 0 -0.95 1.63c-0.22 0.59 0.08 0.62 0.24 0.62 1.6 0 2.37 -1.67 4.18 -3.67 1.56 -1.72 5.72 -2 7.46 -2.86 0.47 -0.25 0.75 0.34 0.47 0.7a21.35 21.35 0 0 1 -1.74 1.43c-1.54 1.05 -1.07 1 -2.59 2.53 -0.22 0.23 -1.61 1.49 -2.33 2.2 -1.06 1 0.23 1.55 1.5 0.67 1.06 -0.72 1.46 -1.63 2.66 -2.42a18.18 18.18 0 0 1 2.34 -1.65c2 -1 3.12 -1.66 4.66 -1.87 2.55 -0.36 5.98 0.11 10.76 -2.15l-0.03 -0.02Zm-0.47 -83.29c0 -0.38 0 0.07 -1.29 -2.1 -2.1 -3.44 -2.16 -8.44 -6.21 -8.31 0.06 0.4 -1.86 3.16 -0.48 10.46 0.308 1.18 0.74 2.322 1.29 3.41 0.2 0.55 0.46 -0.06 1.19 0 0.24 0 0.64 0.13 0.57 0.65 -0.07 0.52 -0.36 0.5 -0.58 0.53 -0.22 0.03 -0.65 -0.08 -0.44 0.36 0.21 0.44 1.2 2.31 1.67 2.26a4.12 4.12 0 0 1 2.89 1.2c0.18 0 0.38 -0.17 0.58 -0.27 0.58 -0.28 0.08 0.1 0 -2.53 -1.45 0.38 -1.72 0 -1.7 -0.43 0.02 -0.43 0.32 -0.58 0.71 -0.63 1.89 -0.25 1.57 -2.72 1.8 -4.58v-0.02Zm-1.13 13.11a3 3 0 0 0 0.51 -2.26 5.224 5.224 0 0 0 -1.3 -1.56c-2.24 -1.76 -3.26 -0.62 -3.14 0.41 0.25 2 2.22 3.85 3.26 3.59 0.18 0.01 0.52 0.04 0.67 -0.16v-0.02Zm-6 76.91c2.88 -4.05 3.12 -4.15 2.86 -4.13 -2.76 0.2 -2.48 0 -6.67 5.8 0 0 -4.58 6.31 -4.69 6.55 0.55 4.52 -0.52 4.46 8.49 -8.2l0.01 -0.02Zm-1.56 -3.14c0.2 -0.3 0.51 -0.66 -0.25 -0.61 -0.47 0.009 -0.94 0.062 -1.4 0.16 -8.59 3.08 -6.78 5.32 -10.23 6.27a2.006 2.006 0 0 1 -1.85 -0.28 1.21 1.21 0 0 1 0 -1.78c0.93 -1.35 3 -3.15 3.92 -4.54a12.91 12.91 0 0 0 -2.31 0.48c-2.38 0.71 -2.76 4.72 -6.13 4.75 -0.87 0 -1.69 -0.62 -1 -1.81 1.37 -2.31 1.27 -2.3 1.68 -2.67 0.11 -0.1 0 -0.11 -0.07 -0.09 -2 1.28 -2.61 1.93 -3.91 2.46 -2.43 1 -3.87 -0.56 -2.81 -1.79 0.57 -0.65 4.46 -2.81 4.55 -3.59 -0.53 0 -1.84 1.21 -3.55 1.44 -1.32 0.18 -2.61 0.1 -2.67 -1.17 0 -0.95 0.9 -1.23 1.81 -1.67 3.66 -1.77 2.7 -1.43 3.44 -2.8 1.05 -1.94 2.09 -2.93 1.5 -2.58 -1.85 1.08 -2.6 1.85 -4 2.33 -2.36 0.83 -3.7 -0.78 -2.6 -1.94 0.29 -0.3 5.36 -3.42 4.1 -3.07 -0.733 0.296 -1.494 0.52 -2.27 0.67a1.484 1.484 0 0 1 -1.655 -0.76 1.48 1.48 0 0 1 0.335 -1.79c0.69 -0.76 2.26 -1 3.6 -2.17 -3.53 -0.54 -3.7 0.35 -8.38 2.29 -1.51 0.63 -33.93 14.47 -34.85 15.69 0.48 0.31 27.78 4.22 27.84 4.2a23.919 23.919 0 0 1 3.14 -1.24c2.21 -0.08 6.63 3.15 8.06 3.36 12 1.7 5.41 1.16 17.46 2.75a0.725 0.725 0 0 0 0.67 -0.14c0.07 -0.08 6.42 -8.26 7.82 -10.34l0.01 -0.02Zm-5.71 21.75c0.14 -0.62 -3.55 1.18 -4.37 1.53 -14.44 6.18 -17.25 6.72 -18.32 8.34a7.16 7.16 0 0 0 -0.81 4.34c0.12 0.93 0.44 0.91 0.83 0.77 7.86 -2.66 23.14 -10.23 23.24 -10.27 -0.39 -0.61 -0.46 -1 -1.26 -0.53 -0.34 0.18 -5.65 2.36 -6.45 2.69a7.12 7.12 0 0 0 -1 0.48c-0.33 0.18 -0.93 -0.35 -0.43 -0.7 0.88 -0.62 8.39 -3.25 8.3 -3.88 -0.06 -0.42 0.21 -0.72 -0.27 -0.59s-1.3 0.55 -3 1.08a0.333 0.333 0 0 1 -0.229 -0.009 0.337 0.337 0 0 1 -0.171 -0.151 0.389 0.389 0 0 1 0.21 -0.51 27.351 27.351 0 0 1 2.88 -1.23c0.65 -0.23 0.63 -0.43 0.84 -1.34l0.01 -0.02Zm-0.65 -1.11c0.25 -0.11 0.85 -0.54 0.47 -0.8 -3.37 -2.22 -22.54 -12.05 -27 -14.25a1.405 1.405 0 0 0 -1.29 -0.06c-0.55 0.22 -16.38 7 -18 7.65 -2.49 1 -3 0.5 -3.85 1.52 -1.92 2.3 -1.32 5.6 0.9 6.47 0.56 0.22 4.58 2.84 9.25 5.66 6.67 4 14.63 8.71 15.5 9.07 0.11 -0.69 -0.33 -0.72 0.12 -2.7a4.591 4.591 0 0 1 2.28 -3.46c2.89 -1.58 10.78 -4.06 21.61 -9.08l0.01 -0.02ZM83.76 165c5.07 0.62 4.28 0.89 4.09 -0.75 -0.26 -2.22 0.93 -0.2 -14.72 -3.34 -0.66 0.19 1.16 0.66 5.68 3.09 1.32 0.66 1.13 0.49 4.95 1Zm0.7 -23.87c-0.22 -0.08 -2.74 0.28 -3.31 0.95 -0.29 0.34 0.31 -0.27 2.46 -0.39a0.996 0.996 0 0 0 0.85 -0.6v0.04Zm-14.54 -8.52c-0.16 -0.44 -9.78 -33.83 -12.22 -42.35 -0.05 -0.17 -0.12 -1.3 -1.17 -1.18 -2.41 0.27 -11.15 2.95 -44 12.28 -0.49 0.14 -1.15 0.55 -0.58 2.19 2.19 6.33 17.92 48.81 18.31 48.53 1.88 -1.33 15.9 -7.39 24.65 -11.32 15.52 -7.02 15.78 -6.12 15.01 -8.19v0.04ZM56.08 158.1a5.238 5.238 0 0 0 -1.65 -0.49c-3.55 -0.72 -22.13 -3.35 -22.67 -3.48 -0.35 -0.08 -0.73 -0.26 -0.84 0 0.01 0.693 0.07 1.385 0.18 2.07 0.09 0.68 -0.09 0.91 0.79 1.13 1.4 0.36 5.71 0.91 19.1 2.88 0.16 0.03 5.07 -2.1 5.09 -2.11ZM51 180.49c0.3 -0.32 -0.07 -0.44 -0.22 -0.5s-0.42 0.24 -0.61 0.37c-9.82 6.25 -10.21 7 -10.59 6.18 -0.1 -0.24 0.31 -0.52 1 -1s2.6 -1.57 4.32 -2.67c2.06 -1.3 4 -2.75 4.34 -2.95 0.66 -0.45 0.58 -0.59 0.29 -0.75 -3.13 -1.75 -2.84 -1.59 -3 -1.58 -0.16 0.01 -3.53 2.41 -4.71 3.22 -3.55 2.7 -3.09 1.61 -3.69 4.91 0.81 4.1 1.06 3.52 3 2.12 0.87 -0.6 8.25 -5.64 9.87 -7.35Zm-5.6 -3.39c0.44 -0.3 -0.2 -0.18 -2.21 -1.67 -3.13 -2.3 -3.48 -1.56 -4.75 -3.25s-1.08 -3.85 -0.17 -5.79c1.12 -2.37 3.54 -2 4.38 -2.63 -3.94 -1 -8.69 -2.29 -13.19 -3.54 -0.92 -0.26 -1 0.09 -2.16 0.85 -2.14 1.4 -1.28 0.48 -4 2.47 -7.56 5.56 -10.77 7.54 -11.42 8.13 -2.81 2.55 -2.21 -0.2 -3.52 3.74 0.68 4.4 -0.2 3.63 5.1 5.4 6.21 2.07 -1.19 0.22 24 7.7 0.65 0.19 -1.36 -2.16 0.19 -5.44 0.37 -0.78 -1.76 0 -27.14 -8.38 -0.07 0 -0.18 0 -0.21 -0.09 -0.31 -0.65 -0.11 -0.8 0.8 -0.6 3.63 0.76 10.33 3.55 24.63 7.15 2.94 0.74 2.63 1 3.89 0.07 0.86 -0.64 2.52 -1.9 5.75 -4.12h0.03Zm-16.55 -21.7c0.31 1 1.43 1.69 1.31 0.88a15.313 15.313 0 0 0 -0.35 -2.61c-0.19 0.081 -0.37 0.189 -0.53 0.32a1.194 1.194 0 0 0 -0.43 1.41Zm-4.31 -14.83C9.75 101 10.76 103.14 10.62 103.43c-0.65 1.33 -1 1.78 -0.54 3.09 0 0 17.68 46.79 18 47.26 1.61 -2.46 1.92 1.43 -3.54 -13.21Z" stroke-width="1"></path>
  <path fill="#1c1c1e" d="M161.16 73.8a15.076 15.076 0 0 1 -1.67 5.61c-0.68 0.72 -1.08 -0.16 -1 -0.49 0.296 -0.87 0.657 -1.715 1.08 -2.53 1.36 -2.94 0.5 -11.86 -9 -14.47 -2.15 -0.59 -2 -1.86 -0.92 -1.38 1.49 0.66 1.45 0.2 3.17 1 6.18 2.85 7.68 6.03 8.34 12.26Z" stroke-width="1"></path>
  <path fill="#1c1c1e" d="M153 70.08c-0.05 0.62 -0.62 0.7 -0.86 0.22 -1.76 -5.17 -6 -6.07 -10.95 -7.42 -2.58 -0.7 -2 -2 -1.21 -1.56 1.76 1.14 11.02 1.29 13.02 8.76Z" stroke-width="1"></path>
  <path fill="#1c1c1e" d="M149.79 79.69c0 2.15 -0.25 1.14 -0.21 3.11a0.632 0.632 0 0 1 -0.51 0.71c-1.18 0 -0.14 -3.36 -0.43 -5.09 -0.47 -2.9 -1.61 -4.47 -3 -6.78a8.693 8.693 0 0 0 -3.25 -2.64c-2 -1.2 -5.52 -1.67 -6.13 -1.8 -0.77 -0.2 -2.66 -1.2 -2.26 -1.74 0.27 -0.4 0.73 -0.08 1.18 0.18 2 1.09 5.61 0.32 10.07 4 1.08 0.94 4.53 5.84 4.54 10.05Z" stroke-width="1"></path>
  <path fill="#1c1c1e" d="M149 113.52c-0.06 0.46 -0.66 0.5 -1.06 0.23 -2.91 -2 -4.2 -2.24 -6.2 -6 -0.79 -1.5 -1.84 -1.94 -3.07 -3.18 -0.44 -0.43 -1.66 -2 -1.56 -2.58a0.372 0.372 0 0 1 0.489 -0.286 0.371 0.371 0 0 1 0.171 0.126c1.75 2.11 1.09 1.68 3.32 3.43 1.45 1.14 1.48 2.35 3.36 4.59 1.26 1.47 3.79 2.15 4.55 3.67Z" stroke-width="1"></path>
  <path fill="#1c1c1e" d="M146.58 117.94c0.32 0.31 0.61 0.26 0.54 0.65 0.17 2.88 -7.25 -6.18 -6.23 -6.77 1.02 -0.59 0.9 1.46 5.69 6.12Z" stroke-width="1"></path>
  <path fill="#1c1c1e" d="M138.4 52.64c0.07 0.32 0.42 1 -0.08 1.25 -1.84 0.91 0.13 -8 -7 -9.93 -3.88 -1.07 -4.62 -1.61 -5.55 -2.29 -0.3 -0.22 -3.34 -2.38 -3.73 -2.57 -3.94 -1.91 -5.77 1 -5.92 -0.75 0 -0.36 2.51 -0.93 3.16 -1 4.37 0.13 5.11 3.24 10.19 4.87 5.53 1.78 7.45 2.55 8.93 10.42Z" stroke-width="1"></path>
  <path fill="#1c1c1e" d="M135.06 60.4c0.1 1.46 -1 1.24 -1.06 0.11 -0.05 -3 -2.18 -6.82 -3.53 -7.83 -3.42 -2.55 -5.1 -2.29 -9.68 -3.56 -2.21 -0.6 -2.77 -2.1 -5.65 -3.93 -3.25 -2.07 -5.61 -0.66 -7.12 -0.88 -0.09 0 -0.27 -0.44 0 -0.53 5 -1.93 7.14 -0.13 11.19 3.3 1.78 1.5 5.28 1.66 7.51 2.35 8.17 2.5 8.36 10.96 8.34 10.97Z" stroke-width="1"></path>
  <path fill="#1c1c1e" d="M126.41 65.42a1.502 1.502 0 0 1 -0.048 1.226 1.497 1.497 0 0 1 -0.952 0.774c-0.63 0.15 -0.67 -0.75 -0.38 -1 1 -0.94 -0.56 -1 -1.31 -1.09 -1.87 -0.18 -2.38 -4.28 0.59 -4.53 1.57 -0.13 1.66 0.91 1.69 1 0.03 0.09 -0.42 0.42 -0.85 0.26 -2.15 -0.8 -2.15 2.04 -1.15 2.1 1.16 0.08 2.05 0.03 2.41 1.26Z" stroke-width="1"></path>
  <path fill="#1c1c1e" d="M119.31 77c0 0.22 0 0.37 -0.25 0.39 -0.25 0.02 -0.34 0.71 -1.09 -1.49 -0.06 -0.22 0.87 -1.17 1.34 1.1Z" stroke-width="1"></path>
  <path fill="#1c1c1e" d="M118.27 78.19c0 0.21 0 0.43 -0.19 0.57 -0.42 0.28 -0.85 0.1 -0.85 -0.4 0 -1 -0.69 -1.32 -0.85 -1.57 -0.69 -1.1 1.62 -1.34 1.89 1.4Z" stroke-width="1"></path>
  <path fill="#1c1c1e" d="M117.32 59.33c0.58 -0.15 1 0.46 0.41 0.81 -1.08 0.7 -3.09 0.77 -4.16 0.9 -6.88 -0.61 -6.29 -8.34 -11.95 -10.71 -0.37 -0.16 -0.93 -0.58 -0.64 -0.91 0.29 -0.33 0.43 -0.43 2.5 0.84 5.78 3.55 3.81 11.74 13.84 9.07Z" stroke-width="1"></path>
  <path fill="#1c1c1e" d="M114.29 53.79c2.48 1.06 3.16 1.06 3 1.52 -0.09 0.3 -0.17 0.43 -0.43 0.46a10.437 10.437 0 0 1 -3.77 -1.53c-1.86 -1.41 -5 -5.5 -7.38 -6.24 -0.34 -0.1 -0.72 -0.72 0 -0.69 3.04 0.16 6.82 5.74 8.58 6.48Z" stroke-width="1"></path>
  <path fill="#1c1c1e" d="M116.25 78.33c0 0.71 -1.35 2 -2 2.27 -1.51 0.72 -2.31 0.28 -3 1.85 -0.81 2 -2.24 -1.79 1.64 -2.51 1.38 -0.26 2.68 -1.71 2.95 -1.87 0.27 -0.16 0.4 0.04 0.41 0.26Z" stroke-width="1"></path>
  <path fill="#1c1c1e" d="M106 71.51c1 -1.52 2.57 0.47 1.83 1.18 -0.5 0.51 -1.57 0.13 -1.83 -1.18Z" stroke-width="1"></path>
  <path fill="#1c1c1e" d="M107 126.63a0.66 0.66 0 0 1 -0.8 0.84c-1.29 0.11 -1 -1.5 -4.24 0.13a1.793 1.793 0 0 1 -2.36 -0.6c-0.68 -1.21 -0.76 -1.29 -3.14 0.18a0.447 0.447 0 0 1 -0.721 -0.29 0.45 0.45 0 0 1 0.061 -0.3c0.27 -0.46 3.12 -3 4.63 -0.34 0.91 1.58 2.4 -1.76 5.42 0 0.42 0.23 1.05 0.03 1.15 0.38Z" stroke-width="1"></path>
  <path fill="#1c1c1e" d="M103.7 84.58c2.49 2.56 0.86 3.59 0.49 2.76 -1.51 -3.35 -1.94 -1.89 -2.76 -4.65 -0.07 -0.24 0 -0.63 0.32 -0.7 0.71 -0.15 0.07 0.66 1.95 2.59Z" stroke-width="1"></path>
  <path fill="#1c1c1e" d="M102.34 74.62c1.25 0.35 1.22 2 0.36 1.88 -1.65 -0.5 -1.29 -2.14 -0.36 -1.88Z" stroke-width="1"></path>
  <path fill="#1c1c1e" d="M99.27 85.22c1.28 1.3 0 1.67 -0.7 0.91a4.71 4.71 0 0 0 -2.78 -2 2.999 2.999 0 0 1 -2.79 -3.3c0 -2.44 3.79 -4.7 0.59 -10.52 -0.95 -1.73 -1.43 -0.86 -3.31 -4.56 -0.81 -1.57 -0.29 -4.23 -0.26 -4.66 0.06 -0.72 0.88 -3.24 1.68 -3.12 1.64 0.26 -4.07 4.62 1.78 10.43 1.39 1.38 1.29 2 1.79 3.11 2.19 4.69 -1.52 7.73 -1.19 10A1.92 1.92 0 0 0 95.79 83a5.66 5.66 0 0 1 3.48 2.22Z" stroke-width="1"></path>
  <path fill="#1c1c1e" d="M91.28 125.94c0 0.46 -0.26 0.72 -0.71 0.61a4.37 4.37 0 0 1 -1.89 -0.71c-0.54 -0.47 -1 -0.08 -1.51 0.28a2.167 2.167 0 0 1 -2.66 -0.52c-0.52 -0.56 -1.15 0.06 -2.1 0.59 -0.47 0.27 -0.47 0.73 -0.88 1.58 -1.17 2.44 -4.27 -1.23 -5.2 3.12 -0.09 0.42 -1 0.62 -0.85 -0.08 0.39 -1.91 0.63 -3.19 3.24 -3.35 1.59 0.17 1.63 0.26 2 -0.45 0.38 -0.88 0.46 -1.49 1.23 -1.91a3.713 3.713 0 0 1 2.53 -0.85c1.07 0.18 1.21 1.48 2.34 0.68a2.37 2.37 0 0 1 2.46 -0.19c0.72 0.85 1.98 0.37 2 1.2Z" stroke-width="1"></path>
  <path fill="#1c1c1e" d="M84.94 176.75c0.07 0.26 -0.68 0.5 -1.85 1.07 -4.31 2.1 -11.69 4.94 -13.65 5.68 -0.31 0.12 -0.64 0.33 -0.88 0 -0.44 -0.64 1.52 -1 7.91 -3.67 7.3 -3 8.23 -3.83 8.47 -3.08Z" stroke-width="1"></path>
  <path fill="#1c1c1e" d="M83.6 119.89a0.519 0.519 0 0 1 0.15 1c-1.36 0.55 -1.2 0.34 -1.71 0.74 -1.4 1.13 -1.58 1.08 -2.1 1 -1.22 -0.19 -1.3 -0.57 -2 -0.11 -1.28 0.78 -0.65 1.15 -1.67 1.56 -0.8 0.33 -0.17 -2.68 2.39 -2.84 1.51 0.31 1.55 0.4 1.81 0.18 0.39 -0.259 0.754 -0.554 1.09 -0.88a4.399 4.399 0 0 1 2.04 -0.65Z" stroke-width="1"></path>
  <path fill="#1c1c1e" d="M75.92 13.66C79.54 24.83 86.13 38 82.6 38.91c-0.51 0.13 -0.79 0.57 -1.2 0.82 -0.41 0.25 0.57 2.2 -1.9 4 -0.6 0.44 -8.2 3.39 -15.26 6.1 -5.46 2.1 -12.8 4.64 -15.53 5.8 -1.38 0.58 -2.66 1.29 -4.32 1 -1.88 -0.29 -1.82 -3.54 -3.12 -2.66 -0.92 0.62 -2.75 0.72 -3.3 -0.39a52.598 52.598 0 0 1 -2.52 -6c-0.648 -1.16 -1.2 -2.37 -1.65 -3.62 0 0 -3.73 -10.2 -5.49 -14.45a2.16 2.16 0 0 1 0.69 -2.69c1.14 -0.61 2.2 -0.6 2 -1.76 -0.3 -1.91 -2.28 -3.59 3.85 -5.72C36.39 18.82 42.81 16 45 15c6.57 -3 1.35 -0.87 11.3 -4.26 0 0 9.77 -3.64 11.14 -3.64 3.59 0.22 2.43 3.12 3.47 3.07 1.46 -0.06 3.33 -1.68 5.01 3.49Zm6.47 23.68c0.5 -2.11 -7.46 -23.83 -8.87 -25.86 -0.85 -1.24 -3.75 1.16 -4.37 -1.57 -0.67 -2.9 -1.72 -1.67 -14 2.46 -8.08 2.73 -4.2 1.19 -10.83 4.18 -10.64 4.8 -10 4.17 -10.88 4.62 -3.89 2 -0.27 1.95 -1.57 5.16 -0.69 1.72 -3.51 0.66 -2.53 3 5.07 12.24 9.08 23.72 10 23.86 1.08 0.18 1.07 -0.37 2.15 -0.55a1.85 1.85 0 0 1 2 1.24c1.08 2.76 2.43 1.54 5.18 0.45C73.84 44.37 79.8 43.68 80 41.29a8.546 8.546 0 0 1 0.23 -2c0.67 -1.39 1.97 -1.12 2.16 -1.95Z" stroke-width="1"></path>
  <path fill="#1c1c1e" d="M81.17 65.31c0.43 2.64 -3.76 3.23 -3.76 0.37 0.14 -1 0.13 -1.5 1.33 -1.59 0.86 -0.09 2.26 0.19 2.43 1.22Zm-1.93 1.18c0.62 -0.08 1.39 -0.93 0.51 -1.19 -0.59 -0.17 -1.13 -0.32 -1.3 0.13 -0.17 0.45 0.06 0.98 0.79 1.06Z" stroke-width="1"></path>
  <path fill="#1c1c1e" d="M78.75 181.29c0.35 0 0.47 0.11 0.45 0.26 -0.1 0.63 0.16 0.34 -7.7 3.41 -0.49 0.104 -0.967 0.265 -1.42 0.48 -1.26 0.5 -1.6 0.83 -1.85 0.45 -0.4 -0.62 2.61 -1.68 3.17 -1.91 0.02 0.02 6.6 -2.68 7.35 -2.69Z" stroke-width="1"></path>
  <path fill="#1c1c1e" d="M74.85 165c0.39 0.56 -0.73 0.83 -3.4 2.12 0 0 -7.62 4 -12.57 5.92 -1.42 0.55 -0.92 0.57 -6.9 -2.75 -2.84 -1.58 -5.61 -3.06 -5.75 -3.26 -0.29 -0.42 -0.14 -0.84 0.34 -1.14 4.57 -2.88 15.22 -7.29 15.57 -7.49 0.35 -0.2 0.32 -0.3 1.16 0.13 0.84 0.43 9.26 4.87 10.71 5.78 0.314 0.185 0.598 0.417 0.84 0.69Zm-1.55 0c-1.49 -1 -9.85 -5.31 -10.33 -5.49 -0.86 -0.34 -0.89 0 -1.86 0.38 -0.68 0.3 -8.36 3.92 -8.87 4.13a33.12 33.12 0 0 0 -4.53 2.35c-0.12 0.07 -0.46 0.25 -0.29 0.32 0.17 0.07 0.77 0.43 1.07 0.6 9.51 5.26 9.07 5.11 10 4.78 3.17 -1.07 14.63 -6.79 14.81 -7.01V165Z" stroke-width="1"></path>
  <path fill="#1c1c1e" d="M69.76 62.12c1.31 -2.07 5.43 -1.11 4.91 1.44a1.74 1.74 0 0 1 -1 1.82c-1 0.57 -1.23 0.34 -2.41 0.26 -1.18 -0.08 -2.42 -2.06 -1.5 -3.52ZM72 64.57c0.64 0.11 1.7 -0.39 1.63 -1.26 -0.07 -0.87 -1.73 -1.55 -2.75 -0.65s0.12 2 1.12 1.91Z" stroke-width="1"></path>
  <path fill="#1c1c1e" d="M72 144.68c0.51 0 0.7 0.37 0.66 0.62 -0.1 0.61 -1.16 0.4 -2.17 0.29 -0.3 0 -0.2 -0.06 -2.68 1.11 -5.76 2.73 -3.08 1.43 -1 2.22a0.48 0.48 0 0 1 -0.31 0.9 11.74 11.74 0 0 0 -2.21 -0.27c-1.25 -0.17 -1.63 -0.37 -2.22 0 -2.07 1.25 -3.18 1.7 -3.69 2 -0.71 0.4 -0.83 0.05 -0.88 -0.05 -0.31 -0.75 2.81 -1.71 3.19 -2.37 -0.2 -0.08 -4 -0.81 -4.06 -0.81 -1.5 -0.29 -1.16 -0.22 -4.59 1.26 -2.7 1.16 -2.11 1.23 -2.7 0.79 -0.59 -0.44 0 -0.47 3.92 -2.32 0.53 -0.24 -1.47 -0.26 -1.76 -0.27 -0.29 -0.01 -0.53 0 -0.44 -0.35 0.09 -0.35 0.65 -0.38 0.85 -0.38 0.91 0 3 0.17 3.31 0a34.696 34.696 0 0 0 3.32 -1.4c1 -0.55 2.53 -1 1.48 -1.11a3.873 3.873 0 0 1 -1.37 -0.27c-0.37 -0.18 -0.29 -0.76 1.07 -0.66 2.5 0.19 2.65 0.36 3.22 0.08 4.19 -2 2.37 -1.37 4.15 -2 0.95 -0.33 0.83 0.75 0.23 0.89a12.68 12.68 0 0 0 -2.62 1.33c0.12 0.09 5.3 0.61 7.3 0.77Zm-8 2.82c5.42 -2.68 5.89 -2.13 -1 -2.66 -0.54 -0.07 -5.84 2.54 -5.86 2.55 0.37 0.34 4.53 0.78 4.84 0.83 0.61 0.11 0.75 -0.11 2.02 -0.72Z" stroke-width="1"></path>
  <path fill="#1c1c1e" d="M70.35 153.41c0.24 0.11 -0.08 0.73 -0.33 0.85 -3.88 1.87 -0.64 1.58 -17.28 -1.07 -7.88 -1.25 -14.8 -1.34 -12.69 -2.85 0.2 -0.15 5.2 -2.34 10.93 -4.92 5.73 -2.58 12.52 -5.69 16.61 -7a0.81 0.81 0 0 1 0.74 0.09c0.16 0.11 -0.11 0.41 -0.51 0.59 -10.11 4.65 -19.23 8.12 -22.17 9.62 -3.45 1.76 -4.25 2 -3.8 2 26.33 3.63 23.8 3.43 25.05 3.47 1.67 0.06 2.1 -1.39 3.45 -0.78Z" stroke-width="1"></path>
  <path fill="#1c1c1e" d="M66.28 52.71c3.19 0.86 3.44 1.89 3.09 5.34a3.17 3.17 0 0 1 -2.22 2.35c-1.7 0.49 -4.71 -0.37 -5.08 -0.84 -1.27 -1.62 -1.37 -2.06 -1.27 -3.09 0.13 -1.3 0.47 -2.5 1.65 -3a5.102 5.102 0 0 1 3.83 -0.76Zm2 5.27c0.15 -2 0.93 -3.56 -2.56 -4.16a4.53 4.53 0 0 0 -2.87 0.81c-0.73 0.38 -0.54 0.95 -0.91 1.79 -0.37 0.84 -0.07 1 0.72 2.09 0.49 0.64 2.73 0.9 3.53 0.93 0.4 -0.07 0.28 0.18 1.8 -0.92a0.77 0.77 0 0 0 0.25 -0.52l0.04 -0.02Z" stroke-width="1"></path>
  <path fill="#1c1c1e" d="M68.84 149.4a0.449 0.449 0 0 1 0.61 0.19 0.45 0.45 0 0 1 -0.19 0.61s-4 2.59 -4.22 2.69c-0.22 0.1 -0.44 -0.3 -0.51 -0.43a0.35 0.35 0 0 1 0.12 -0.43c0.1 0 1.37 -0.92 2.52 -1.67a7.048 7.048 0 0 1 1.67 -0.96Z" stroke-width="1"></path>
  <path fill="#1c1c1e" d="M66.3 164c2.77 0 2.63 2.08 1.92 2.65a2.69 2.69 0 0 1 -1.6 0.69 0.689 0.689 0 0 1 -0.63 -0.63c0 -0.57 0.51 -0.11 1.36 -0.92 0.41 -0.39 -0.44 -0.62 -0.68 -0.64 -0.94 -0.09 -1.92 0 -2.43 -0.44a1.419 1.419 0 0 1 -0.3 -1.93 1.436 1.436 0 0 1 1.44 -0.71c0.34 0 0.5 0 0.61 0.33a0.712 0.712 0 0 1 0 0.62c-0.18 0.33 -0.93 0.08 -1 0.51 -0.21 0.64 1.31 0.47 1.31 0.47Z" stroke-width="1"></path>
  <path fill="#1c1c1e" d="M68.54 132.17c0 1.19 0 0.86 -15.15 7.13 -14.72 6.1 -19.68 8.17 -21.4 8.78a1.164 1.164 0 0 1 -0.93 0.077 1.174 1.174 0 0 1 -0.69 -0.627c-0.06 -0.12 -16.38 -42.3 -16.36 -43.88 0 -1.12 -0.08 -0.83 9 -3.44 0.47 -0.14 27.75 -8 32.19 -9a0.73 0.73 0 0 1 0.92 0.52c2.06 5.21 12.36 40.09 12.42 40.44Zm-10.72 4.13c10.83 -4.49 9.77 -3.6 9.4 -5 -1.43 -5.25 -10.46 -34.89 -11.68 -38.84 -0.09 -0.27 -0.33 -0.38 -0.68 -0.28 -4.45 1.27 -34.71 9.76 -39.4 11.19 -0.4 0.12 -0.51 0.54 -0.31 1.06 2.31 6.17 14.87 39.17 16 42.31 0.27 0.94 -1.88 1.38 26.67 -10.44Z" stroke-width="1"></path>
  <path fill="#1c1c1e" d="M57.17 17.77c4.67 0.14 9.21 4.79 8.87 10.9 -0.18 3.16 -2.72 5.61 -3.64 6.59 -0.54 0.56 -0.19 2.31 0.15 3 0.34 0.69 0.17 0.42 0.59 0.52 0.9 0.23 1 0.64 1.09 1.19 -0.024 0.396 0.01 0.794 0.1 1.18 0.06 0.15 0.49 0.23 0.58 1a2.1 2.1 0 0 1 -1.16 2.21c-0.73 0.36 -0.3 1.67 -2.06 2.12 -2.51 0.66 -1.81 -0.48 -3.36 -0.11 -1.27 0.3 -2.84 -0.88 -2.7 -2.1 0 -0.28 -0.17 -0.19 -0.4 -0.5s-0.21 -0.55 -0.42 -1c-0.49 -1 0.45 -1.4 0 -2.08 -0.23 -0.35 -0.44 -2 -2 -2.48 -1.92 -0.54 -9 0.66 -9.63 -9.57A8.45 8.45 0 0 1 46 22.28 18.886 18.886 0 0 1 48.89 20a16.6 16.6 0 0 1 8.28 -2.23Zm6.34 14.45c0.94 -2 1.61 -3.26 1.28 -4.81 -0.59 -2.82 -0.85 -3.73 -2.27 -5.56 -3.62 -4.77 -11.36 -2.85 -15.73 1.27 -4.92 4.64 -1.78 10.59 0.34 12.24 3.94 3 6.23 -1 9 5.44 0.14 0.33 0.19 0.4 1 0.27 0.06 0 0.13 0 0.14 -0.08 0.06 -0.23 -0.49 -1.16 -0.62 -1.4C50.2 28 52.73 32.63 49 32.07c-3.73 -0.56 -1.45 -5.57 1.66 -3.19 1.53 1.17 1.19 1.46 1.63 1.3 2.23 -0.83 4.26 -1.83 4.72 -2 0.28 -0.1 0.46 -0.21 0.46 -0.4 0.25 -4.94 5.84 -5.24 5.15 -1.84 -0.36 1.73 -1.86 2.13 -3.74 2.79 -0.35 0.12 -0.45 0.11 -0.32 0.78 0.89 4.67 1.86 8 1.89 8.14 0.22 0.7 0.49 1.69 1.16 1.48 0.44 -0.14 -1.52 -2.54 0 -4.6 1.19 -1.61 1.71 -1.91 1.9 -2.31Zm-0.08 11.11a1.1 1.1 0 0 0 0.36 -1c0 -0.75 -0.63 -0.13 -1.28 0.2 -0.87 0.44 -2.77 1 -4.14 1.53 -1.37 0.53 -1.79 0.13 -1.6 0.45a1.86 1.86 0 0 0 2.23 0.71c1.26 -0.22 3.69 -1.09 4.43 -1.89ZM63.07 41c0.36 -0.29 0.17 -0.86 0 -1.06 -0.77 -0.72 -3.88 2 -6.87 2.15 -0.2 0 -0.32 0.42 -0.22 0.61 0.23 0.44 0.39 0.42 0.91 0.47A13.53 13.53 0 0 0 63.07 41Zm-1.51 -15.1a0.88 0.88 0 0 0 -1.09 -1.22c-1.34 0.37 -1.76 1.14 -1.94 2.57a0.877 0.877 0 0 0 0 0.28 0.251 0.251 0 0 0 0.17 0.11c2.01 -0.8 2.54 -0.89 2.86 -1.73v-0.01Zm-1.69 13.89a0.21 0.21 0 0 0 0.11 -0.32c-1.54 -4.15 -2.44 -10 -2.61 -10.32 -2 0.75 -1.67 0.67 -3.83 1.61 -0.39 0.17 -0.9 0.27 -0.68 0.56 7.02 9.73 3.69 9.94 7.01 8.47Zm-9 -9.09c0.17 0 0.12 -0.16 0 -0.25 -2.75 -2.54 -3.61 0 -2.24 0.48a2.37 2.37 0 0 0 2.25 -0.23h-0.01Z" stroke-width="1"></path>
  <path fill="#1c1c1e" d="M64.67 179.5s1.23 0.51 0.84 1.07 -0.9 0.13 -3.56 -1.43c0 0 -18.34 -10.2 -19 -10.81 -0.66 -0.61 0.1 -0.88 0.48 -0.74S62.24 178 64.67 179.5Z" stroke-width="1"></path>
  <path fill="#1c1c1e" d="M62.64 164.8c1.77 1 2.49 2.1 2.2 3 -0.18 0.52 -0.81 0.9 -1.65 1.26 -0.84 0.36 -1.17 -0.83 -0.52 -1 0.65 -0.17 0.94 -0.56 0.75 -0.93 -0.56 -1.07 -3.08 -1.76 -2.9 -2.49 0.11 -0.39 0.46 -0.69 0.74 -0.62 0.483 0.216 0.946 0.477 1.38 0.78Z" stroke-width="1"></path>
  <path fill="#1c1c1e" d="M61.54 119.83c0.77 0.23 0.59 0.74 -0.18 2.48 -0.23 0.53 -1.14 2.66 -1.58 2.51a0.679 0.679 0 0 1 -0.53 -0.62c1.22 -2.77 1.68 -3.2 1 -3.52 -0.93 -0.44 -3.5 -0.48 -2.66 -1.52 0.27 -0.33 3.33 0.48 3.95 0.67Z" stroke-width="1"></path>
  <path fill="#1c1c1e" d="M60.56 128.49c1.74 0.58 0 1.39 -1.23 4.43 -0.23 0.6 -1 0.56 -1 -0.1 0 -1.22 2.07 -3.24 1.53 -3.41a9.373 9.373 0 0 0 -2 -0.6c-1.71 -0.14 -3.55 -2.4 2.7 -0.32Z" stroke-width="1"></path>
  <path fill="#1c1c1e" d="M57.73 122c0.26 0.13 0.19 0.68 -0.1 0.84 -2.29 1.24 -14.27 6 -17 6.48 -1.26 -1 -0.15 -0.59 10.2 -4.71a26.62 26.62 0 0 1 3.36 -1.5c3.34 -1.35 2.93 -1.43 3.54 -1.11Z" stroke-width="1"></path>
  <path fill="#1c1c1e" d="M55.14 111.1c4.86 1.37 5 0 2.4 5.31 -0.29 0.61 -0.44 0.58 -0.63 0.7 -1.21 0 -0.4 -1.09 0.13 -2.18 1.25 -2.58 1.51 -1.8 -2 -2.75a0.538 0.538 0 0 1 -0.468 -0.38 0.539 0.539 0 0 1 0.171 -0.577 0.534 0.534 0 0 1 0.397 -0.123Z" stroke-width="1"></path>
  <path fill="#1c1c1e" d="M55.8 131c0.93 0 0.62 0.74 0.1 1a58.508 58.508 0 0 1 -7.43 2.83c-3.55 1.25 -6.35 2.33 -6.44 2.27 -0.33 -0.3 -1 -0.75 0 -1.13 1 -0.38 13.75 -4.97 13.77 -4.97Z" stroke-width="1"></path>
  <path fill="#1c1c1e" d="M55.16 114.67c0 0.78 0.17 0.18 -7 3 -1.82 0.72 -1.45 0.36 -7.33 2.38 -2.81 1 -2.84 1 -3.13 0.91 -2.25 -1 5.84 -2.75 10.48 -4.54 4 -1.51 6.26 -2.61 6.98 -1.75Z" stroke-width="1"></path>
  <path fill="#1c1c1e" d="M53.28 98.69c0.24 0.78 -1 1 -1.34 1.1 -2.65 1 -14.49 5.2 -19.31 6.27 -1.19 0.26 -1.82 0.67 -1.92 0.4a2.77 2.77 0 0 1 -0.18 -0.56c0 -0.48 0.5 -0.52 0.9 -0.65 1.19 -0.37 6.22 -1.85 10.94 -3.4 4.19 -1.37 8.15 -2.84 8.7 -3 1.61 -0.46 2.07 -0.66 2.21 -0.16Z" stroke-width="1"></path>
  <path fill="#1c1c1e" d="M47.22 178.58c0.39 -0.22 0.81 0.2 0.49 0.65 -0.44 0.62 -1.84 1 -2.87 2a14.532 14.532 0 0 1 -2.79 1.88c-0.83 0.34 -1 0.85 -2 1.45 -0.44 0 -0.68 -0.29 -0.13 -0.87 1.36 -1.41 2.45 -1.48 4 -2.64a15.45 15.45 0 0 1 3.3 -2.47Z" stroke-width="1"></path>
  <path fill="#1c1c1e" d="M44.53 108.4c3.59 1.26 3.11 0.65 1.48 3.4 -0.8 1.36 -0.89 2 -1.31 1.9a0.565 0.565 0 0 1 -0.596 -0.551 0.561 0.561 0 0 1 0.076 -0.289c2.18 -4.21 2.34 -1.94 -1.14 -4 -0.45 -0.26 -0.12 -0.91 0.3 -0.9 0.41 0.109 0.808 0.256 1.19 0.44Z" stroke-width="1"></path>
  <path fill="#1c1c1e" d="M41.13 111.52c1.18 -0.26 1.5 -0.08 1.16 0.47 -0.34 0.55 -2.64 1 -7.37 2.62 -3.06 1.08 -8.12 3 -8.56 3.08 -0.44 0.08 -0.64 -0.27 -0.31 -0.76 0.15 -0.22 12.74 -4.93 15.08 -5.41Z" stroke-width="1"></path>
  <path fill="#1c1c1e" d="M39.51 135c0.06 0.36 0.26 3.9 0.22 4.36 -0.07 0.64 0.07 0.81 -0.52 1 -0.34 0.09 -0.5 -0.25 -0.48 -0.48 0.14 -1.35 -0.13 -2.87 -0.12 -4.66 0 -0.3 0.18 -0.73 0.42 -0.63 0.24 0.1 0.41 -0.04 0.48 0.41Z" stroke-width="1"></path>
  <path fill="#1c1c1e" d="M38.67 126.21c1 0.12 -0.24 3.87 -0.06 5.74 0.08 0.89 -0.92 0.84 -1 0.41 -0.15 -1 -0.11 -0.68 0.48 -5.15 0.08 -0.43 0.16 -1.05 0.58 -1Z" stroke-width="1"></path>
  <path fill="#1c1c1e" d="M38 164.75c0.23 0.84 -7.09 6.19 -8.2 7.5a30.796 30.796 0 0 1 -4.23 3.47 1.528 1.528 0 0 1 -1.52 0.14c-2.18 -0.75 -7.85 -2.59 -8.68 -2.89 -0.62 -0.23 -1 -0.44 -0.47 -1 0.1 -0.12 8.8 -6.58 13 -9.6a2.005 2.005 0 0 1 1.77 -0.3c1.53 0.35 4 1.16 4.52 1.29 3.68 0.89 3.69 0.99 3.81 1.39Zm-1.73 0.53c0.12 -0.14 0.47 -0.34 0 -0.54 -0.23 -0.09 -6 -1.8 -6.49 -1.89a1.192 1.192 0 0 0 -1.11 0c-1.38 0.72 -4.16 3.16 -11.25 8.46 -0.89 0.66 -1.54 0.9 -1.13 1a56.254 56.254 0 0 0 8.09 2.74 0.812 0.812 0 0 0 0.76 -0.14c1.96 -1.58 10.98 -9.47 11.12 -9.63h0.01Z" stroke-width="1"></path>
  <path fill="#1c1c1e" d="M37.35 139.93c0.44 0 1.07 0.65 0 1.15A19.475 19.475 0 0 1 33.8 140c-0.85 -0.35 -0.51 -1.19 0.06 -2.06 1.55 -2.36 1.65 -2.46 2.1 -2.23 0.93 0.47 -2.15 3.25 -1.34 3.51 0.46 0.09 2.26 0.66 2.73 0.71Z" stroke-width="1"></path>
  <path fill="#1c1c1e" d="M36.66 117.81c0 0.79 -0.57 2.8 -1.13 5.7 -0.08 0.44 -0.14 0.88 -0.59 0.79 -0.69 -0.14 -0.5 -0.76 -0.31 -1.59 1.14 -5 1 -5.38 1.49 -5.28 0.49 0.1 0.52 0.02 0.54 0.38Z" stroke-width="1"></path>
  <path fill="#1c1c1e" d="M35.45 132.75a0.474 0.474 0 0 1 0.346 0.24 0.474 0.474 0 0 1 0.024 0.42c-0.08 0.24 -0.21 0.52 -0.61 0.43a35.421 35.421 0 0 1 -3.78 -1.36c-0.72 -0.38 0 -1.25 1.93 -4.4 0.18 -0.3 0.41 -0.53 0.71 -0.4s0.61 0.21 0.32 0.83c-0.07 0.16 -1.46 2.33 -1.68 2.71 -0.44 0.78 -0.34 0.54 2.74 1.53Z" stroke-width="1"></path>
  <path fill="#1c1c1e" d="M32.72 124c0.32 0.13 0.45 0.22 0.42 0.38 -0.08 0.52 -0.28 0.64 -1 0.54a14.563 14.563 0 0 1 -3.38 -1.1c-1.14 -0.76 0.11 -1.71 2 -4.19 0.13 -0.17 0.23 -0.37 0.57 -0.22 1 0.44 -0.16 1.3 -1.65 3.29 -0.16 0.21 -0.2 0.35 0 0.46 0.61 0.27 2.23 0.52 3.04 0.84Z" stroke-width="1"></path>
  <path fill="#1c1c1e" d="M31.94 138.76a0.764 0.764 0 1 1 -1.5 0.3c-0.44 -1.22 1.4 -1.43 1.5 -0.3Z" stroke-width="1"></path>
  <path fill="#1c1c1e" d="M30.59 165.61c0.15 0.11 0.81 0.48 0.61 0.81 -0.2 0.33 -0.3 0.42 -0.67 0.25 -1 -0.44 -0.59 -0.76 -1.21 -0.18a1.41 1.41 0 0 1 -0.45 0.35c-0.21 0 -0.62 -0.17 -0.62 -0.48 0 -0.31 0.57 -0.63 0.52 -0.8 -0.05 -0.17 -0.53 -0.3 -0.64 -0.47 -0.26 -0.42 0.07 -0.77 0.56 -0.6 0.49 0.17 0.68 0.45 0.86 0.41 0.18 -0.04 0.21 -0.18 0.53 -0.45a0.536 0.536 0 0 1 0.544 -0.086 0.548 0.548 0 0 1 0.336 0.436c0.04 0.34 -0.6 0.63 -0.37 0.81Z" stroke-width="1"></path>
  <path fill="#1c1c1e" d="M29.14 131.37a0.89 0.89 0 0 1 -0.57 1.46c-1.57 -0.04 -0.76 -2.83 0.57 -1.46Z" stroke-width="1"></path>
  <path fill="#1c1c1e" d="M28.26 104.58s0.13 4.45 0 5a0.482 0.482 0 0 1 -0.773 0.275 0.482 0.482 0 0 1 -0.167 -0.275l0 -5.11c0.2 -0.61 0.9 -0.37 0.94 0.11Z" stroke-width="1"></path>
  <path fill="#1c1c1e" d="M28.11 168.69c0.24 0.43 -0.42 0.84 -0.73 0.61 -0.31 -0.23 -0.49 -0.46 -0.69 -0.41 -0.2 0.05 -0.23 0.21 -0.49 0.38 -0.08 0.06 -0.16 0.26 -0.56 0.1a0.454 0.454 0 0 1 -0.337 -0.507 0.447 0.447 0 0 1 0.087 -0.203c0 -0.06 0.2 -0.24 0.25 -0.3 0.05 -0.06 0.23 -0.14 -0.08 -0.42 -0.31 -0.28 -0.42 -0.35 -0.4 -0.53a0.747 0.747 0 0 1 0.44 -0.48c0.14 0 0.36 0.14 0.51 0.2 0.36 0.16 0.41 0.4 0.71 0.12s0.77 -0.36 0.94 -0.18c0.34 0.36 0.19 0.56 0 0.68s-0.32 0.22 -0.24 0.31c0.228 0.179 0.427 0.391 0.59 0.63Z" stroke-width="1"></path>
  <path fill="#1c1c1e" d="M26.1 170.33c0.92 -0.19 1.42 2.49 -0.61 3 -3.79 1 -5.71 -4.07 -2.68 -4.51a0.499 0.499 0 0 1 0.46 0.86c-0.25 0.16 -1 0.28 -0.87 0.93a1.997 1.997 0 0 0 1.82 1.66c2.65 0.18 0.86 -1.72 1.88 -1.94Z" stroke-width="1"></path>
  <path fill="#1c1c1e" d="M25.89 109.54c0.64 0.28 0.34 1 -0.34 0.9 -3.78 -0.86 -3.28 -1.19 -2.6 -2.81 0.68 -1.62 0.84 -2.21 1.34 -2 0.5 0.21 0.43 0.48 0.33 0.77 -0.7 2.08 -1.14 2.39 -0.78 2.52 0.16 0.08 1.71 0.47 2.05 0.62Z" stroke-width="1"></path>
  <path fill="#1c1c1e" d="M25.37 123.27a1.003 1.003 0 0 1 1.003 0.625 1 1 0 0 1 -0.293 1.145 0.86 0.86 0 0 1 -0.676 0.075 0.872 0.872 0 0 1 -0.524 -0.435 1.158 1.158 0 0 1 0.49 -1.41Z" stroke-width="1"></path>
  <path fill="#1c1c1e" d="M22 116.53c0.9 -2.44 2.36 0.67 0.94 0.85a0.827 0.827 0 0 1 -0.875 -0.498 0.83 0.83 0 0 1 -0.065 -0.352Z" stroke-width="1"></path>
  <path fill="#1c1c1e" d="M20.82 109.9a0.82 0.82 0 1 1 -1.61 0c0.19 -1.53 1.57 -0.9 1.61 0Z" stroke-width="1"></path>
</svg>