<svg xmlns="http://www.w3.org/2000/svg" fill="none" viewBox="0 0 100 100" id="Coworkers-1--Streamline-Ux">
  <desc>
    Coworkers 1 Streamline Illustration: https://streamlinehq.com
  </desc>
  <path fill="#64a8a60a" d="M49.555 87.023c22.091 0 40 -17.909 40 -40s-17.909 -40 -40 -40 -40 17.909 -40 40 17.909 40 40 40Z" stroke-width="1"></path>
  <path fill="#0ec3c1" d="M49.539 92.978c5.78 0 10.464 -0.975 10.464 -2.178 0 -1.203 -4.685 -2.178 -10.464 -2.178 -5.78 0 -10.464 0.975 -10.464 2.178 0 1.203 4.685 2.178 10.464 2.178Z" stroke-width="1"></path>
  <path fill="#0ec3c1" d="M50.289 85.398c5.808 0 10.517 -1 10.517 -2.233s-4.709 -2.233 -10.517 -2.233 -10.517 1 -10.517 2.233 4.709 2.233 10.517 2.233Z" stroke-width="1"></path>
  <path fill="#0ec3c1" d="m42.305 56.953 0.722 12.561H56.97l0.672 -12.561 0.025 -2.078H42.33l-0.025 2.078Z" stroke-width="1"></path>
  <path fill="#0ec3c1" stroke="#042f2e" stroke-linecap="round" stroke-linejoin="round" d="m42.305 56.953 0.722 12.561H56.97l0.672 -12.561 0.025 -2.078H42.33l-0.025 2.078Z" stroke-width="1"></path>
  <path fill="#0ec3c1" d="M62.547 43.721a12.56 12.56 0 0 0 -25.121 0v3.486h4.9v10.456l6.274 0.7 1.4 -4.185 1.4 4.182 6.274 -0.7V45.115h4.88l-0.007 -1.394Z" stroke-width="1"></path>
  <path stroke="#042f2e" stroke-linecap="round" stroke-linejoin="round" d="M62.547 43.721a12.56 12.56 0 0 0 -25.121 0v3.486h4.9v10.456l6.274 0.7 1.4 -4.185 1.4 4.182 6.274 -0.7V45.115h4.88l-0.007 -1.394Z" stroke-width="1"></path>
  <path fill="#ffffff" stroke="#042f2e" stroke-linecap="round" stroke-linejoin="round" d="M57.67 43.73v14.277a2.453 2.453 0 0 0 4.905 0L62.55 43.73h-4.88Z" stroke-width="1"></path>
  <path stroke="#042f2e" stroke-linecap="round" stroke-linejoin="round" d="M57.67 43.73v14.277a2.453 2.453 0 0 0 4.905 0L62.55 43.73h-4.88Z" stroke-width="1"></path>
  <path stroke="#042f2e" stroke-linecap="round" stroke-linejoin="round" d="M42.3 43.735a4.166 4.166 0 0 0 -0.739 -1.925 4.18 4.18 0 0 1 -0.626 -2.285" stroke-width="1"></path>
  <path stroke="#042f2e" stroke-linecap="round" stroke-linejoin="round" d="M49.974 45.812v8.366" stroke-width="1"></path>
  <path stroke="#042f2e" stroke-linecap="round" stroke-linejoin="round" d="M57.673 43.715a4.18 4.18 0 0 1 0.737 -1.905 4.178 4.178 0 0 0 0.626 -2.285" stroke-width="1"></path>
  <path stroke="#042f2e" stroke-linecap="round" stroke-linejoin="round" d="m57.671 33.791 -0.171 2.652a0.855 0.855 0 0 1 -0.906 0.8l-0.807 -0.049a0.932 0.932 0 0 0 -0.986 0.995l0.16 2.274a0.932 0.932 0 0 1 -0.277 0.731l-4.712 4.62 4.24 -13.914" stroke-width="1"></path>
  <path fill="#ffffff" d="m54.212 31.9 -4.238 13.912 -3.751 -11.279 -0.825 -2.49a12.6 12.6 0 0 1 8.837 -0.137" stroke-width="1"></path>
  <path stroke="#042f2e" stroke-linecap="round" stroke-linejoin="round" d="m54.212 31.9 -4.238 13.912 -3.751 -11.279 -0.825 -2.49a12.6 12.6 0 0 1 8.837 -0.137" stroke-width="1"></path>
  <path stroke="#042f2e" stroke-linecap="round" stroke-linejoin="round" d="m52.259 38.312 -2.442 -4.379 -2.465 3.993" stroke-width="1"></path>
  <path stroke="#042f2e" stroke-linecap="round" stroke-linejoin="round" d="M41.9 34.134a12.565 12.565 0 0 1 3.5 -2.091l4.576 13.769 -5.1 -4.657a0.854 0.854 0 0 1 -0.277 -0.69l0.158 -2.382a0.853 0.853 0 0 0 -0.906 -0.911l-0.894 0.055a0.856 0.856 0 0 1 -0.907 -0.8l-0.15 -2.293Z" stroke-width="1"></path>
  <path fill="#ffffff" stroke="#042f2e" stroke-linecap="round" stroke-linejoin="round" d="M37.426 43.734v14.278a2.452 2.452 0 0 0 4.9 0l-0.024 -14.278h-4.876Z" stroke-width="1"></path>
  <path stroke="#042f2e" stroke-linecap="round" stroke-linejoin="round" d="M37.426 43.734v14.278a2.452 2.452 0 0 0 4.9 0l-0.024 -14.278h-4.876Z" stroke-width="1"></path>
  <path fill="#ffffff" stroke="#042f2e" stroke-linecap="round" stroke-linejoin="round" d="m52.278 31.38 -2.461 2.553 -2.467 -2.496 0.005 -5.337h4.928l-0.005 5.28Z" stroke-width="1"></path>
  <path fill="#0ec3c1" d="M23.5 81.365c6.032 0 10.922 -0.733 10.922 -1.638 0 -0.905 -4.89 -1.638 -10.922 -1.638 -6.032 0 -10.922 0.733 -10.922 1.638 0 0.905 4.89 1.638 10.922 1.638Z" stroke-width="1"></path>
  <path fill="#ffffff" stroke="#042f2e" stroke-linecap="round" stroke-linejoin="round" d="M32.289 62.8a1.966 1.966 0 1 1 -3.932 0v-2.624h3.932V62.8Z" stroke-width="1"></path>
  <path fill="#0ec3c1" d="M27.184 75.905a5.9 5.9 0 0 1 2.484 0.517V57.555H15.25v18.35h2.886a5.922 5.922 0 0 1 2.449 0.5l0.507 -11.643a1.368 1.368 0 0 1 2.734 0l0.485 11.143h2.873Z" stroke-width="1"></path>
  <path stroke="#042f2e" stroke-linecap="round" stroke-linejoin="round" d="M27.184 75.905a5.9 5.9 0 0 1 2.484 0.517V57.555H15.25v18.35h2.886a5.922 5.922 0 0 1 2.449 0.5l0.507 -11.643a1.368 1.368 0 0 1 2.734 0l0.485 11.143h2.873Z" stroke-width="1"></path>
  <path fill="#ffffff" stroke="#042f2e" stroke-linecap="round" stroke-linejoin="round" d="M31.506 79.181c0 -2.347 -2.294 -3.276 -4.322 -3.276H24.3v2.184a1.092 1.092 0 0 0 1.092 1.092h6.114Z" stroke-width="1"></path>
  <path fill="#ffffff" stroke="#042f2e" stroke-linecap="round" stroke-linejoin="round" d="M22.459 79.181c0 -2.347 -2.294 -3.276 -4.323 -3.276H15.25v2.184a1.092 1.092 0 0 0 1.092 1.092h6.117Z" stroke-width="1"></path>
  <path fill="#ffffff" stroke="#042f2e" stroke-linecap="round" stroke-linejoin="round" d="M7.386 66.729h11.8a1.31 1.31 0 0 1 1.311 1.311v7.86a1.31 1.31 0 0 1 -1.311 1.311h-11.8A1.31 1.31 0 0 1 6.075 75.9v-7.86a1.31 1.31 0 0 1 1.311 -1.311v0Z" stroke-width="1"></path>
  <path stroke="#042f2e" stroke-linecap="round" stroke-linejoin="round" d="M9.352 66.729v10.437" stroke-width="1"></path>
  <path stroke="#042f2e" stroke-linecap="round" stroke-linejoin="round" d="M17.216 66.779v10.436" stroke-width="1"></path>
  <path stroke="#042f2e" stroke-linecap="round" stroke-linejoin="round" d="M10.663 66.729v-1.671a1.606 1.606 0 0 1 1.605 -1.605H14.3a1.606 1.606 0 0 1 1.606 1.605v1.671" stroke-width="1"></path>
  <path stroke="#042f2e" stroke-linecap="round" stroke-linejoin="round" d="M7.386 66.729h11.8a1.31 1.31 0 0 1 1.311 1.311v7.86a1.31 1.31 0 0 1 -1.311 1.311h-11.8A1.31 1.31 0 0 1 6.075 75.9v-7.86a1.31 1.31 0 0 1 1.311 -1.311v0Z" stroke-width="1"></path>
  <path fill="#ffffff" stroke="#042f2e" stroke-linecap="round" stroke-linejoin="round" d="M15.25 62.8a1.966 1.966 0 1 1 -3.932 0v-2.624h3.932V62.8Z" stroke-width="1"></path>
  <path fill="#0ec3c1" d="M32.945 49.691a11.141 11.141 0 0 0 -22.282 0v9.393a1.092 1.092 0 0 0 1.092 1.092h3.495v4.915h3.536a4.416 4.416 0 0 0 3.673 -1.966 4.416 4.416 0 0 0 3.673 1.966h3.536v-4.915h2.184a1.093 1.093 0 0 0 1.093 -1.092v-9.393Z" stroke-width="1"></path>
  <path stroke="#042f2e" stroke-linecap="round" stroke-linejoin="round" d="M32.945 49.691a11.141 11.141 0 0 0 -22.282 0v9.393a1.092 1.092 0 0 0 1.092 1.092h3.495v4.915h3.536a4.416 4.416 0 0 0 3.673 -1.966 4.416 4.416 0 0 0 3.673 1.966h3.536v-4.915h2.184a1.093 1.093 0 0 0 1.093 -1.092v-9.393Z" stroke-width="1"></path>
  <path stroke="#042f2e" stroke-linecap="round" stroke-linejoin="round" d="M29.668 60.176V49.035" stroke-width="1"></path>
  <path stroke="#042f2e" stroke-linecap="round" stroke-linejoin="round" d="M15.25 60.176V49.035" stroke-width="1"></path>
  <path fill="#ffffff" stroke="#042f2e" stroke-linecap="round" stroke-linejoin="round" d="m22.459 55.589 4.553 -15.743a11.079 11.079 0 0 0 -9.258 -0.526l4.705 16.269Z" stroke-width="1"></path>
  <path fill="#ffffff" stroke="#042f2e" stroke-linecap="round" stroke-linejoin="round" d="m27.012 39.846 -4.553 15.743 5.051 -6.946a1 1 0 0 0 0.191 -0.588v-2.6a0.857 0.857 0 0 1 0.251 -0.6l2.354 -2.355a11.175 11.175 0 0 0 -3.294 -2.654v0Z" stroke-width="1"></path>
  <path fill="#0ec3c1" stroke="#042f2e" stroke-linecap="round" stroke-linejoin="round" d="m22.47 38.57 -1.958 10.286 1.947 6.733 1.959 -6.752L22.47 38.57Z" stroke-width="1"></path>
  <path stroke="#042f2e" stroke-linecap="round" stroke-linejoin="round" d="M22.459 63.125v-7.536" stroke-width="1"></path>
  <path stroke="#042f2e" stroke-linecap="round" stroke-linejoin="round" d="m25.967 43.461 -3.497 -2.293 -3.519 2.291" stroke-width="1"></path>
  <path fill="#ffffff" stroke="#042f2e" stroke-linecap="round" stroke-linejoin="round" d="M22.459 55.589 17.751 39.31a11.17 11.17 0 0 0 -3.838 2.516l3.05 3.026a0.859 0.859 0 0 1 0.253 0.608v2.64c0 0.18 0.058 0.355 0.164 0.5l5.079 6.989Z" stroke-width="1"></path>
  <path fill="#ffffff" stroke="#042f2e" stroke-linecap="round" stroke-linejoin="round" d="m24.766 38.948 -2.296 2.22 -2.301 -2.499 0.005 -4.736h4.597l-0.005 5.015Z" stroke-width="1"></path>
  <path fill="#ffffff" stroke="#042f2e" stroke-linecap="round" stroke-linejoin="round" d="M22.47 21.822a6.552 6.552 0 0 0 -6.553 6.554v1.311c-1.872 0 -1.744 3.276 0.327 3.276h0.006A6.536 6.536 0 0 0 29.023 31v-2.624a6.55 6.55 0 0 0 -6.553 -6.554v0Z" stroke-width="1"></path>
  <path fill="#042f2e" d="M21.323 30.669a0.819 0.819 0 1 0 0 -1.638 0.819 0.819 0 0 0 0 1.638Z" stroke-width="1"></path>
  <path fill="#042f2e" d="M26.238 30.669a0.819 0.819 0 1 0 0 -1.638 0.819 0.819 0 0 0 0 1.638Z" stroke-width="1"></path>
  <path fill="#0ec3c1" d="M20.5 32.472a0.656 0.656 0 1 1 -1.311 0 0.656 0.656 0 0 1 1.311 0Z" stroke-width="1"></path>
  <path stroke="#042f2e" stroke-linecap="round" stroke-linejoin="round" d="M22.142 33.556a2.457 2.457 0 0 0 2.892 0.272 2.94 2.94 0 0 0 0.385 -0.272" stroke-width="1"></path>
  <path fill="#ffffff" d="M18.865 25.737c2.873 2.788 7.83 2.328 10.814 1.318a7.21 7.21 0 0 0 -14.418 0.01v2.277s3.6 -0.9 3.6 -3.605" stroke-width="1"></path>
  <path stroke="#042f2e" stroke-linecap="round" stroke-linejoin="round" d="M18.865 25.737c2.873 2.788 7.83 2.328 10.814 1.318a7.21 7.21 0 0 0 -14.418 0.01v2.277s3.6 -0.9 3.6 -3.605" stroke-width="1"></path>
  <path stroke="#042f2e" stroke-linecap="round" stroke-linejoin="round" d="M18.865 25.737c2.873 2.788 7.83 2.328 10.814 1.318a7.21 7.21 0 0 0 -14.418 0.01v2.277s3.6 -0.9 3.6 -3.605" stroke-width="1"></path>
  <path stroke="#042f2e" stroke-linecap="round" stroke-linejoin="round" d="M18.865 25.737c-0.332 -0.322 -0.38 -0.271 -0.65 -0.684" stroke-width="1"></path>
  <path fill="#0ec3c1" d="M76.5 81.365c6.032 0 10.922 -0.733 10.922 -1.638 0 -0.905 -4.89 -1.638 -10.922 -1.638 -6.032 0 -10.922 0.733 -10.922 1.638 0 0.905 4.89 1.638 10.922 1.638Z" stroke-width="1"></path>
  <path fill="#ffffff" stroke="#042f2e" stroke-linecap="round" stroke-linejoin="round" d="M67.711 62.8a1.966 1.966 0 1 0 3.932 0v-2.624h-3.932V62.8Z" stroke-width="1"></path>
  <path fill="#0ec3c1" d="M72.816 75.905a5.9 5.9 0 0 0 -2.484 0.517V57.555H84.75v18.35h-2.886a5.922 5.922 0 0 0 -2.449 0.5l-0.507 -11.643a1.368 1.368 0 0 0 -2.734 0l-0.485 11.143h-2.873Z" stroke-width="1"></path>
  <path stroke="#042f2e" stroke-linecap="round" stroke-linejoin="round" d="M72.816 75.905a5.9 5.9 0 0 0 -2.484 0.517V57.555H84.75v18.35h-2.886a5.922 5.922 0 0 0 -2.449 0.5l-0.507 -11.643a1.368 1.368 0 0 0 -2.734 0l-0.485 11.143h-2.873Z" stroke-width="1"></path>
  <path fill="#ffffff" stroke="#042f2e" stroke-linecap="round" stroke-linejoin="round" d="M68.494 79.181c0 -2.347 2.294 -3.276 4.322 -3.276H75.7v2.184a1.092 1.092 0 0 1 -1.092 1.092h-6.114Z" stroke-width="1"></path>
  <path fill="#ffffff" stroke="#042f2e" stroke-linecap="round" stroke-linejoin="round" d="M77.541 79.181c0 -2.347 2.294 -3.276 4.323 -3.276h2.886v2.184a1.092 1.092 0 0 1 -1.092 1.092h-6.117Z" stroke-width="1"></path>
  <path fill="#ffffff" stroke="#042f2e" stroke-linecap="round" stroke-linejoin="round" d="M92.614 66.729H80.818c-0.724 0 -1.311 0.587 -1.311 1.311v7.864c0 0.724 0.587 1.311 1.311 1.311h11.796a1.31 1.31 0 0 0 1.311 -1.311V68.04c0 -0.724 -0.587 -1.311 -1.311 -1.311Z" stroke-width="1"></path>
  <path stroke="#042f2e" stroke-linecap="round" stroke-linejoin="round" d="M90.648 66.729v10.437" stroke-width="1"></path>
  <path stroke="#042f2e" stroke-linecap="round" stroke-linejoin="round" d="M82.784 66.779v10.436" stroke-width="1"></path>
  <path stroke="#042f2e" stroke-linecap="round" stroke-linejoin="round" d="M89.337 66.729v-1.671a1.606 1.606 0 0 0 -1.605 -1.605H85.7a1.606 1.606 0 0 0 -1.606 1.605v1.671" stroke-width="1"></path>
  <path stroke="#042f2e" stroke-linecap="round" stroke-linejoin="round" d="M92.614 66.729H80.818c-0.724 0 -1.311 0.587 -1.311 1.311v7.864c0 0.724 0.587 1.311 1.311 1.311h11.796a1.31 1.31 0 0 0 1.311 -1.311V68.04c0 -0.724 -0.587 -1.311 -1.311 -1.311Z" stroke-width="1"></path>
  <path fill="#ffffff" stroke="#042f2e" stroke-linecap="round" stroke-linejoin="round" d="M84.75 62.8a1.966 1.966 0 1 0 3.932 0v-2.624H84.75V62.8Z" stroke-width="1"></path>
  <path fill="#0ec3c1" d="M67.055 49.691a11.14 11.14 0 0 1 22.282 0v9.393a1.092 1.092 0 0 1 -1.092 1.092h-3.5v4.915h-3.531a4.416 4.416 0 0 1 -3.673 -1.966 4.415 4.415 0 0 1 -3.673 1.966h-3.536v-4.915h-2.184a1.093 1.093 0 0 1 -1.093 -1.092v-9.393Z" stroke-width="1"></path>
  <path stroke="#042f2e" stroke-linecap="round" stroke-linejoin="round" d="M67.055 49.691a11.14 11.14 0 0 1 22.282 0v9.393a1.092 1.092 0 0 1 -1.092 1.092h-3.5v4.915h-3.531a4.416 4.416 0 0 1 -3.673 -1.966 4.415 4.415 0 0 1 -3.673 1.966h-3.536v-4.915h-2.184a1.093 1.093 0 0 1 -1.093 -1.092v-9.393Z" stroke-width="1"></path>
  <path stroke="#042f2e" stroke-linecap="round" stroke-linejoin="round" d="M70.332 60.176V49.035" stroke-width="1"></path>
  <path stroke="#042f2e" stroke-linecap="round" stroke-linejoin="round" d="M84.75 60.176V49.035" stroke-width="1"></path>
  <path fill="#ffffff" stroke="#042f2e" stroke-linecap="round" stroke-linejoin="round" d="m77.541 55.589 -4.553 -15.743a11.079 11.079 0 0 1 9.258 -0.526l-4.705 16.269Z" stroke-width="1"></path>
  <path fill="#ffffff" stroke="#042f2e" stroke-linecap="round" stroke-linejoin="round" d="m72.988 39.846 4.553 15.743 -5.064 -6.964a0.929 0.929 0 0 1 -0.178 -0.548v-2.588a0.936 0.936 0 0 0 -0.273 -0.659l-2.332 -2.33a11.175 11.175 0 0 1 3.294 -2.654Z" stroke-width="1"></path>
  <path fill="#0ec3c1" stroke="#042f2e" stroke-linecap="round" stroke-linejoin="round" d="m77.53 38.57 1.958 10.286 -1.947 6.733 -1.959 -6.752L77.53 38.57Z" stroke-width="1"></path>
  <path stroke="#042f2e" stroke-linecap="round" stroke-linejoin="round" d="M77.541 63.125v-7.536" stroke-width="1"></path>
  <path stroke="#042f2e" stroke-linecap="round" stroke-linejoin="round" d="m74.033 43.461 3.497 -4.891 3.519 4.889" stroke-width="1"></path>
  <path fill="#ffffff" stroke="#042f2e" stroke-linecap="round" stroke-linejoin="round" d="m77.541 55.589 4.708 -16.279a11.17 11.17 0 0 1 3.838 2.516l-3.028 3a0.933 0.933 0 0 0 -0.275 0.661v2.586a0.93 0.93 0 0 1 -0.179 0.548l-5.064 6.968Z" stroke-width="1"></path>
  <path fill="#ffffff" stroke="#042f2e" stroke-linecap="round" stroke-linejoin="round" d="m75.245 38.939 2.296 2.219 2.301 -2.499 -0.005 -4.736H75.24l0.005 5.016Z" stroke-width="1"></path>
  <path fill="#ffffff" stroke="#042f2e" stroke-linecap="round" stroke-linejoin="round" d="M77.53 21.784a6.552 6.552 0 0 1 6.553 6.554v1.311c1.872 0 1.744 3.276 -0.327 3.276h-0.006a6.535 6.535 0 0 1 -12.773 -1.965v-2.622a6.55 6.55 0 0 1 6.553 -6.554v0Z" stroke-width="1"></path>
  <path fill="#042f2e" d="M78.677 30.631a0.819 0.819 0 1 0 0 -1.638 0.819 0.819 0 0 0 0 1.638Z" stroke-width="1"></path>
  <path fill="#042f2e" d="M73.762 30.631a0.819 0.819 0 1 0 0 -1.638 0.819 0.819 0 0 0 0 1.638Z" stroke-width="1"></path>
  <path fill="#0ec3c1" d="M79.5 32.434a0.656 0.656 0 1 0 1.312 0 0.656 0.656 0 0 0 -1.312 0Z" stroke-width="1"></path>
  <path stroke="#042f2e" stroke-linecap="round" stroke-linejoin="round" d="M77.858 33.518a2.457 2.457 0 0 1 -2.892 0.272 2.955 2.955 0 0 1 -0.385 -0.272" stroke-width="1"></path>
  <path fill="#ffffff" d="M81.135 25.7c-2.873 2.788 -7.83 2.328 -10.814 1.318a7.209 7.209 0 1 1 14.418 0.01V29.3s-3.6 -0.9 -3.6 -3.6" stroke-width="1"></path>
  <path stroke="#042f2e" stroke-linecap="round" stroke-linejoin="round" d="M81.135 25.7c-2.873 2.788 -7.83 2.328 -10.814 1.318a7.209 7.209 0 1 1 14.418 0.01V29.3s-3.6 -0.9 -3.6 -3.6" stroke-width="1"></path>
  <path stroke="#042f2e" stroke-linecap="round" stroke-linejoin="round" d="M81.135 25.7c0.332 -0.322 0.38 -0.271 0.65 -0.684" stroke-width="1"></path>
  <path fill="#ffffff" d="M49.538 90.477c9.803 0 17.75 -7.947 17.75 -17.75s-7.947 -17.75 -17.75 -17.75 -17.75 7.947 -17.75 17.75 7.947 17.75 17.75 17.75Z" stroke-width="1"></path>
  <path stroke="#042f2e" stroke-linecap="round" stroke-linejoin="round" d="M49.538 90.477c9.803 0 17.75 -7.947 17.75 -17.75s-7.947 -17.75 -17.75 -17.75 -17.75 7.947 -17.75 17.75 7.947 17.75 17.75 17.75Z" stroke-width="1"></path>
  <path fill="#0ec3c1" stroke="#042f2e" stroke-linecap="round" stroke-linejoin="round" d="M46.46 81.487a2.575 2.575 0 0 1 -1.828 -0.758l-5.169 -5.169a2.584 2.584 0 0 1 3.654 -3.654l3.342 3.342 10.523 -10.523a2.584 2.584 0 0 1 3.654 3.655l-12.35 12.349a2.574 2.574 0 0 1 -1.827 0.758Z" stroke-width="1"></path>
  <path fill="#ffffff" stroke="#042f2e" stroke-linecap="round" stroke-linejoin="round" d="M60.288 21.369a1.806 1.806 0 0 0 -1.466 -1.758v-1.173a8.793 8.793 0 0 0 -17.585 0v1.173a1.795 1.795 0 0 0 0.185 3.553 8.793 8.793 0 0 0 17.216 0 1.813 1.813 0 0 0 1.65 -1.795v0Z" stroke-width="1"></path>
  <path fill="#0ec3c1" d="M45.267 23.567a1.099 1.099 0 1 0 0 -2.198 1.099 1.099 0 0 0 0 2.198Z" stroke-width="1"></path>
  <path fill="#0ec3c1" d="M54.792 23.567a1.099 1.099 0 1 0 0 -2.198 1.099 1.099 0 0 0 0 2.198Z" stroke-width="1"></path>
  <path stroke="#042f2e" stroke-linecap="round" stroke-linejoin="round" d="M47.832 25.1a3.964 3.964 0 0 0 4.4 0" stroke-width="1"></path>
  <path fill="#ffffff" d="M50.8 8.322a1.535 1.535 0 0 1 -1.546 0c-1.622 -0.935 -5.8 -0.511 -7.891 4.209A35.584 35.584 0 0 0 38.3 26.94a4.344 4.344 0 0 0 0.865 2.992 4.74 4.74 0 0 0 3.78 1.832 0.9 0.9 0 0 0 0.713 -1.449 3.928 3.928 0 0 1 -0.848 -2.574c0 -5.646 1.584 -11.594 2.454 -13.059a2.482 2.482 0 0 1 2.142 -1.182c0.895 0.081 1.734 0.47 2.374 1.1a0.439 0.439 0 0 0 0.5 0c0.865 -0.591 1.335 -1.1 2.37 -1.1a2.482 2.482 0 0 1 2.139 1.181c0.871 1.466 2.455 7.414 2.455 13.059a3.95 3.95 0 0 1 -0.853 2.572 0.901 0.901 0 0 0 0.717 1.451 4.735 4.735 0 0 0 3.779 -1.832c0.65 -0.856 0.958 -1.922 0.865 -2.992A35.584 35.584 0 0 0 58.7 12.53c-2.074 -4.681 -6.252 -5.157 -7.9 -4.208Z" stroke-width="1"></path>
  <path stroke="#042f2e" stroke-linecap="round" stroke-linejoin="round" d="M50.8 8.322a1.535 1.535 0 0 1 -1.546 0c-1.622 -0.935 -5.8 -0.511 -7.891 4.209A35.584 35.584 0 0 0 38.3 26.94a4.344 4.344 0 0 0 0.865 2.992 4.74 4.74 0 0 0 3.78 1.832 0.9 0.9 0 0 0 0.713 -1.449 3.928 3.928 0 0 1 -0.848 -2.574c0 -5.646 1.584 -11.594 2.454 -13.059a2.482 2.482 0 0 1 2.142 -1.182c0.895 0.081 1.734 0.47 2.374 1.1a0.439 0.439 0 0 0 0.5 0c0.865 -0.591 1.335 -1.1 2.37 -1.1a2.482 2.482 0 0 1 2.139 1.181c0.871 1.466 2.455 7.414 2.455 13.059a3.95 3.95 0 0 1 -0.853 2.572 0.901 0.901 0 0 0 0.717 1.451 4.735 4.735 0 0 0 3.779 -1.832c0.65 -0.856 0.958 -1.922 0.865 -2.992A35.584 35.584 0 0 0 58.7 12.53c-2.074 -4.681 -6.252 -5.157 -7.9 -4.208Z" stroke-width="1"></path>
  <path stroke="#042f2e" stroke-linecap="round" stroke-linejoin="round" d="M53.991 19.9a1.246 1.246 0 0 0 -1.763 0" stroke-width="1"></path>
  <path stroke="#042f2e" stroke-linecap="round" stroke-linejoin="round" d="M47.832 19.9a1.248 1.248 0 0 0 -1.764 0" stroke-width="1"></path>
</svg>