<svg viewBox="0 0 100 100" xmlns="http://www.w3.org/2000/svg" id="Digital-Handshake-1--Streamline-Ux">
  <desc>
    Digital Handshake 1 Streamline Illustration: https://streamlinehq.com
  </desc>
  <path d="M9.995 50a40 40 0 1 0 80 0 40 40 0 1 0 -80 0Z" fill="#64a8a60a" stroke-width="1"></path>
  <path d="m84.732 30.155 0 38.436" fill="none" stroke="#ffffff" stroke-linecap="round" stroke-linejoin="round" stroke-width="1"></path>
  <path d="m51.748 45.867 0 17.414" fill="none" stroke="#0ec3c1" stroke-linecap="round" stroke-linejoin="round" stroke-width="1"></path>
  <path d="m46.011 88.804 0 -8.762 29.05 0" fill="none" stroke="#ffffff" stroke-linecap="round" stroke-linejoin="round" stroke-width="1"></path>
  <path d="m14.921 30.753 0 32.528 54.42 0" fill="none" stroke="#ffffff" stroke-linecap="round" stroke-linejoin="round" stroke-width="1"></path>
  <path d="m51.748 45.867 23.313 0 0 34.164" fill="none" stroke="#ffffff" stroke-linecap="round" stroke-linejoin="round" stroke-width="1"></path>
  <path d="m11.14 53.436 40.608 0 0 -28.099 -32.499 0" fill="none" stroke="#ffffff" stroke-linecap="round" stroke-linejoin="round" stroke-width="1"></path>
  <path d="m84.065 29.032 -22.939 0" fill="none" stroke="#64a8a60a" stroke-linecap="round" stroke-linejoin="round" stroke-width="1"></path>
  <path d="m15.312 68.094 40.063 0 0 20.547" fill="none" stroke="#ffffff" stroke-linecap="round" stroke-linejoin="round" stroke-width="1"></path>
  <path d="m40.648 38.406 0 -24.125 15.728 0 0 17.696 -9.25 0 -0.099 -12.562 -12.738 0 0 11.866 -6.788 0 0 48.75 10 0 0 -16.75 42.375 0 0 9.25 -9.625 0 0 -54.5 -9.125 0 0 20.375 -33.686 0" fill="none" stroke="#ffffff" stroke-linecap="round" stroke-linejoin="round" stroke-width="1"></path>
  <path d="M25 63.279a2.5 2.5 0 1 1 2.5 2.5 2.5 2.5 0 0 1 -2.5 -2.5Z" fill="#ffffff" stroke="#042f2e" stroke-linecap="round" stroke-linejoin="round" stroke-width="1"></path>
  <path d="M59.4 17.742a1.839 1.839 0 1 1 1.837 1.84 1.838 1.838 0 0 1 -1.837 -1.84Z" fill="#ffffff" stroke="#042f2e" stroke-linecap="round" stroke-linejoin="round" stroke-width="1"></path>
  <path d="M35.228 79.513a1.839 1.839 0 1 1 1.837 1.84 1.839 1.839 0 0 1 -1.837 -1.84Z" fill="#ffffff" stroke="#042f2e" stroke-linecap="round" stroke-linejoin="round" stroke-width="1"></path>
  <path d="M53.741 31.742a2.5 2.5 0 1 1 2.5 2.5 2.5 2.5 0 0 1 -2.5 -2.5Z" fill="#ffffff" stroke="#042f2e" stroke-linecap="round" stroke-linejoin="round" stroke-width="1"></path>
  <path d="M77.005 63.278a2.5 2.5 0 1 1 2.5 2.5 2.517 2.517 0 0 1 -2.5 -2.5Z" fill="#ffffff" stroke="#042f2e" stroke-linecap="round" stroke-linejoin="round" stroke-width="1"></path>
  <path d="M46.013 78.2a1.839 1.839 0 1 1 -1.84 1.837 1.838 1.838 0 0 1 1.84 -1.837Z" fill="#ffffff" stroke="#042f2e" stroke-linecap="round" stroke-linejoin="round" stroke-width="1"></path>
  <path d="M55.513 77.542a2.5 2.5 0 1 1 -2.5 2.5 2.5 2.5 0 0 1 2.5 -2.5Z" fill="#0ec3c1" stroke="#042f2e" stroke-linecap="round" stroke-linejoin="round" stroke-width="1"></path>
  <path d="M51.75 35.223a3.183 3.183 0 1 1 -3.185 3.18 3.182 3.182 0 0 1 3.185 -3.18Z" fill="#0ec3c1" stroke="#042f2e" stroke-linecap="round" stroke-linejoin="round" stroke-width="1"></path>
  <path d="M14.923 50.848a3.183 3.183 0 1 1 -3.184 3.18 3.183 3.183 0 0 1 3.184 -3.18Z" fill="#0ec3c1" stroke="#042f2e" stroke-linecap="round" stroke-linejoin="round" stroke-width="1"></path>
  <path d="M70.626 67.906a4.5 4.5 0 1 1 -4.5 4.5 4.5 4.5 0 0 1 4.5 -4.5Z" fill="#0ec3c1" stroke="#042f2e" stroke-linecap="round" stroke-linejoin="round" stroke-width="1"></path>
  <path d="M46.7 16.741a3 3 0 1 1 -3 3 3 3 0 0 1 3 -3Z" fill="#0ec3c1" stroke="#042f2e" stroke-linecap="round" stroke-linejoin="round" stroke-width="1"></path>
  <path d="m75.061 54.677 13.663 0" fill="none" stroke="#ffffff" stroke-linecap="round" stroke-linejoin="round" stroke-width="1"></path>
  <path d="m31.15 52.776 -15.7 -15.7a1.14 1.14 0 0 1 0 -1.61l9.6 -7.585a1.138 1.138 0 0 1 1.61 0L41.176 42.75a1.141 1.141 0 0 1 0 1.611l-8.416 8.415a1.138 1.138 0 0 1 -1.61 0Z" fill="#ffffff" stroke="#042f2e" stroke-linecap="round" stroke-linejoin="round" stroke-width="1"></path>
  <path d="m25.674 24.433 14.517 14.873a1.138 1.138 0 0 1 0 1.61L29.323 51.784a1.14 1.14 0 0 1 -1.61 0L13.2 36.911" fill="#0ec3c1" stroke="#042f2e" stroke-linecap="round" stroke-linejoin="round" stroke-width="1"></path>
  <path d="m70.177 52.745 14.268 -14.551a1.138 1.138 0 0 0 0 -1.61l-8.325 -8.325a1.138 1.138 0 0 0 -1.61 0L60.242 42.81a1.138 1.138 0 0 0 0 1.61l8.325 8.325a1.138 1.138 0 0 0 1.61 0Z" fill="#ffffff" stroke="#042f2e" stroke-linecap="round" stroke-linejoin="round" stroke-width="1"></path>
  <path d="m75.486 24.741 -14.269 14.55a1.14 1.14 0 0 0 0 1.61L72.085 51.77a1.141 1.141 0 0 0 1.611 0l14.268 -14.551" fill="#0ec3c1" stroke="#042f2e" stroke-linecap="round" stroke-linejoin="round" stroke-width="1"></path>
  <path d="M41.57 43.968c3.2 2.907 6.265 -0.516 9.3 3.6 0.782 1.062 -1.1 -0.085 0.095 2.514L63.927 62.3a2.277 2.277 0 0 1 -3.22 3.22l-0.079 -0.078a2.277 2.277 0 0 1 -3.22 3.22l-0.8 -0.8a2.277 2.277 0 0 1 -3.22 3.22l-0.8 -0.805a2.277 2.277 0 1 1 -3.22 3.22l-6.975 -6.975c-4.148 -4.147 -3.265 -6.484 -5.636 -8.855L32.3 53.241Z" fill="#ffffff" stroke="#042f2e" stroke-linecap="round" stroke-linejoin="round" stroke-width="1"></path>
  <path d="m69.1 53.277 -9.131 -9.129 -1.294 0.594a6.924 6.924 0 0 1 -4.25 0.478l-0.028 -0.006a6.917 6.917 0 0 0 -4.566 0.63l-5.351 2.765a2.277 2.277 0 0 0 2.1 4.04l4.527 -2.425 10.819 10.2Z" fill="#ffffff" stroke-width="1"></path>
  <path d="M39.718 58.1a2.277 2.277 0 0 1 -0.151 3.217l-2 1.82a2.277 2.277 0 0 1 -3.067 -3.369l2 -1.82a2.276 2.276 0 0 1 3.218 0.152Z" fill="#ffffff" stroke="#042f2e" stroke-linecap="round" stroke-linejoin="round" stroke-width="1"></path>
  <path d="M45.711 64.971a2.277 2.277 0 0 1 -0.151 3.216L43.35 70.2a2.277 2.277 0 0 1 -3.066 -3.368l2.21 -2.011a2.277 2.277 0 0 1 3.217 0.15Z" fill="#ffffff" stroke="#042f2e" stroke-linecap="round" stroke-linejoin="round" stroke-width="1"></path>
  <path d="M48.683 68.5a2.277 2.277 0 0 1 -0.151 3.217l-0.947 0.862a2.277 2.277 0 0 1 -3.065 -3.368l0.947 -0.862a2.277 2.277 0 0 1 3.216 0.151Z" fill="#ffffff" stroke="#042f2e" stroke-linecap="round" stroke-linejoin="round" stroke-width="1"></path>
  <path d="M42.833 61.44a2.277 2.277 0 0 1 -0.151 3.217l-3.052 2.778a2.277 2.277 0 0 1 -3.065 -3.368l3.052 -2.778a2.276 2.276 0 0 1 3.216 0.151Z" fill="#ffffff" stroke="#042f2e" stroke-linecap="round" stroke-linejoin="round" stroke-width="1"></path>
  <path d="m54.859 66.116 1.744 1.745" fill="#ffffff" stroke="#042f2e" stroke-linecap="round" stroke-linejoin="round" stroke-width="1"></path>
  <path d="m58.213 63.03 2.415 2.416" fill="#ffffff" stroke="#042f2e" stroke-linecap="round" stroke-linejoin="round" stroke-width="1"></path>
  <path d="m51.639 69.337 1.744 1.744" fill="#ffffff" stroke="#042f2e" stroke-linecap="round" stroke-linejoin="round" stroke-width="1"></path>
  <path d="m69.1 53.277 -9.131 -9.129 -1.294 0.594a6.924 6.924 0 0 1 -4.25 0.478l-0.028 -0.006a6.917 6.917 0 0 0 -4.566 0.63l-5.351 2.765a2.277 2.277 0 0 0 2.1 4.04l4.527 -2.425 10.819 10.2Z" fill="none" stroke="#042f2e" stroke-linecap="round" stroke-linejoin="round" stroke-width="1"></path>
  <path d="M47.2 29.913a1.831 1.831 0 1 1 -1.832 1.829 1.83 1.83 0 0 1 1.832 -1.829Z" fill="#ffffff" stroke="#042f2e" stroke-linecap="round" stroke-linejoin="round" stroke-width="1"></path>
  <path d="M34.454 17.873a1.83 1.83 0 1 1 -1.832 1.827 1.83 1.83 0 0 1 1.832 -1.827Z" fill="#ffffff" stroke="#042f2e" stroke-linecap="round" stroke-linejoin="round" stroke-width="1"></path>
</svg>