<svg xmlns="http://www.w3.org/2000/svg" fill="none" viewBox="0 0 100 100" id="Document-Sign-1--Streamline-Ux">
  <desc>
    Document Sign 1 Streamline Illustration: https://streamlinehq.com
  </desc>
  <path fill="#64a8a60a" d="M48.135 90c22.0914 0 40 -17.9086 40 -40s-17.9086 -40 -40 -40S8.13499 27.9086 8.13499 50 26.0436 90 48.135 90Z" stroke-width="1"></path>
  <path fill="#0ec3c1" d="M67 75.306H29.7c-0.6678 0 -1.3083 -0.2653 -1.7805 -0.7375 -0.4722 -0.4722 -0.7375 -1.1127 -0.7375 -1.7805V24.5c0 -0.6962 0.2766 -1.3639 0.7689 -1.8562 0.4922 -0.4922 1.1599 -0.7688 1.8561 -0.7688h37.08c0.6962 0 1.3639 0.2766 1.8562 0.7688 0.4922 0.4923 0.7688 1.16 0.7688 1.8562v48.288c0.0003 0.6669 -0.2641 1.3066 -0.7351 1.7787 -0.471 0.4721 -1.11 0.738 -1.7769 0.7393Z" stroke-width="1"></path>
  <path stroke="#042f2e" stroke-linecap="round" stroke-linejoin="round" d="M67 75.306H29.7c-0.6678 0 -1.3083 -0.2653 -1.7805 -0.7375 -0.4722 -0.4722 -0.7375 -1.1127 -0.7375 -1.7805V24.5c0 -0.6962 0.2766 -1.3639 0.7689 -1.8562 0.4922 -0.4922 1.1599 -0.7688 1.8561 -0.7688h37.08c0.6962 0 1.3639 0.2766 1.8562 0.7688 0.4922 0.4923 0.7688 1.16 0.7688 1.8562v48.288c0.0003 0.6669 -0.2641 1.3066 -0.7351 1.7787 -0.471 0.4721 -1.11 0.738 -1.7769 0.7393v0Z" stroke-width="1"></path>
  <path fill="#ffffff" d="M64.09 26.037H32.606c-0.6953 0 -1.259 0.5637 -1.259 1.259v42.587c0 0.6953 0.5637 1.259 1.259 1.259H64.09c0.6953 0 1.259 -0.5637 1.259 -1.259V27.296c0 -0.6953 -0.5637 -1.259 -1.259 -1.259Z" stroke-width="1"></path>
  <path fill="#0ec3c1" d="m65.349 41.489 -9.874 10.7c-0.6227 0.6766 -0.9514 1.5727 -0.9139 2.4914 0.0375 0.9187 0.4381 1.785 1.1139 2.4086 0.424 0.3909 0.94 0.6682 1.5 0.806l-3.21 3.211 0.491 0.491 -4.336 4.335c-0.1941 0.1933 -0.3268 0.4396 -0.3814 0.708 -0.0546 0.2685 -0.0287 0.5471 0.0745 0.8008 0.1032 0.2537 0.2791 0.4713 0.5056 0.6254 0.2264 0.1542 0.4934 0.2379 0.7673 0.2408 0.1008 -0.0002 0.2013 -0.0106 0.3 -0.031 3.8 -0.808 5.733 -1.975 5.755 -3.473l0.262 -0.263 0.982 0.982L60.8 63.1c0.1711 0.137 0.3546 0.2578 0.548 0.361 0.6386 0.3399 1.3674 0.4718 2.0846 0.3771 0.7172 -0.0946 1.3869 -0.4111 1.9154 -0.9051l0.001 -21.444Z" stroke-width="1"></path>
  <path stroke="#042f2e" stroke-linecap="round" stroke-linejoin="round" d="M64.09 26.037H32.606c-0.6953 0 -1.259 0.5637 -1.259 1.259v42.587c0 0.6953 0.5637 1.259 1.259 1.259H64.09c0.6953 0 1.259 -0.5637 1.259 -1.259V27.296c0 -0.6953 -0.5637 -1.259 -1.259 -1.259Z" stroke-width="1"></path>
  <path stroke="#042f2e" stroke-linecap="round" stroke-linejoin="round" d="M36.194 37.14h21.203" stroke-width="1"></path>
  <path stroke="#042f2e" stroke-linecap="round" stroke-linejoin="round" d="M36.194 43.385h21.203" stroke-width="1"></path>
  <path stroke="#042f2e" stroke-linecap="round" stroke-linejoin="round" d="M36.194 50.325h14.778" stroke-width="1"></path>
  <path fill="#ffffff" d="M38.851 19.792h18.994c0.3332 0.0011 0.6524 0.1342 0.8877 0.3702 0.2352 0.236 0.3673 0.5556 0.3673 0.8888v6.5c0 0.3342 -0.1328 0.6547 -0.3691 0.8909 -0.2362 0.2363 -0.5567 0.3691 -0.8909 0.3691H38.852c-0.3342 0 -0.6547 -0.1328 -0.891 -0.3691 -0.2363 -0.2362 -0.369 -0.5567 -0.369 -0.8909v-6.5c0 -0.3339 0.1326 -0.6541 0.3688 -0.8903 0.2361 -0.2361 0.5563 -0.3687 0.8902 -0.3687Z" stroke-width="1"></path>
  <path stroke="#042f2e" stroke-linecap="round" stroke-linejoin="round" d="M38.851 19.792h18.994c0.3332 0.0011 0.6524 0.1342 0.8877 0.3702 0.2352 0.236 0.3673 0.5556 0.3673 0.8888v6.5c0 0.3342 -0.1328 0.6547 -0.3691 0.8909 -0.2362 0.2363 -0.5567 0.3691 -0.8909 0.3691H38.852c-0.3342 0 -0.6547 -0.1328 -0.891 -0.3691 -0.2363 -0.2362 -0.369 -0.5567 -0.369 -0.8909v-6.5c0 -0.3339 0.1326 -0.6541 0.3688 -0.8903 0.2361 -0.2361 0.5563 -0.3687 0.8902 -0.3687v0Z" stroke-width="1"></path>
  <path stroke="#042f2e" stroke-linecap="round" stroke-linejoin="round" d="M42.449 26.037h11.797" stroke-width="1"></path>
  <path fill="#ffffff" d="M48.695 22.568c1.9164 0 3.47 -1.5536 3.47 -3.47s-1.5536 -3.47 -3.47 -3.47 -3.47 1.5536 -3.47 3.47 1.5536 3.47 3.47 3.47Z" stroke-width="1"></path>
  <path stroke="#042f2e" stroke-linecap="round" stroke-linejoin="round" d="M48.695 22.568c1.9164 0 3.47 -1.5536 3.47 -3.47s-1.5536 -3.47 -3.47 -3.47 -3.47 1.5536 -3.47 3.47 1.5536 3.47 3.47 3.47Z" stroke-width="1"></path>
  <path fill="#64a8a60a" d="m62.957 49.893 12.155 4.534 5.113 -8.2 -13.216 -3.569 -4.052 7.235Z" stroke-width="1"></path>
  <path fill="#ffffff" d="m82.335 63.729 9.414 -9.414c0.0368 -0.0354 0.0755 -0.0688 0.116 -0.1 -3.151 -2.734 -3.928 -8.526 -9.988 -11.69 -7.977 -4.166 -17.843 -3.172 -26.509 7.65 -0.1984 0.2356 -0.3478 0.5083 -0.4395 0.8023 -0.0917 0.294 -0.1238 0.6033 -0.0944 0.9099 0.0293 0.3065 0.1195 0.6041 0.2653 0.8754 0.1459 0.2712 0.3443 0.5107 0.5838 0.7043s0.5152 0.3374 0.811 0.4231c0.2958 0.0857 0.6057 0.1116 0.9116 0.076 0.3059 -0.0355 0.6017 -0.1318 0.8699 -0.2831 0.2682 -0.1512 0.5036 -0.3545 0.6923 -0.5979 0.5747 -0.7106 1.152 -1.3723 1.732 -1.985 0.2038 0.2177 0.448 0.3936 0.719 0.518 9.067 6.865 10.9 7.737 13.118 8.6 3.43 1.333 4.944 1.977 7.466 4.26 0.0152 -0.2819 0.1334 -0.5484 0.332 -0.749Zm-6.212 -14.653c-0.764 0.9244 -1.827 1.5527 -3.0051 1.7762 -1.1782 0.2235 -2.3975 0.0282 -3.4469 -0.5522l-5.362 -2.452c3.129 -2.29 6.286 -3.246 9.43 -2.836 2.675 0.344 3.294 2.71 2.384 4.064Z" stroke-width="1"></path>
  <path fill="#0ec3c1" d="M48.125 85.076c8.3113 0 15.049 -0.7772 15.049 -1.736s-6.7377 -1.736 -15.049 -1.736 -15.049 0.7772 -15.049 1.736 6.7377 1.736 15.049 1.736Z" stroke-width="1"></path>
  <path stroke="#042f2e" stroke-linecap="round" stroke-linejoin="round" d="M38.312 57.536c-0.3588 0.3586 -0.6236 0.8001 -0.771 1.2854 -0.1473 0.4854 -0.1727 0.9996 -0.0739 1.4971 0.0989 0.4975 0.3189 0.9629 0.6406 1.355 0.3218 0.3922 0.7352 0.6989 1.2038 0.8931 0.4686 0.1941 0.9779 0.2697 1.4827 0.22 0.5048 -0.0497 0.9895 -0.2231 1.4112 -0.5049 0.4218 -0.2819 0.7675 -0.6633 1.0066 -1.1107 0.239 -0.4473 0.3641 -0.9468 0.364 -1.454v0.616c-0.0066 0.3282 0.0523 0.6545 0.1734 0.9596 0.121 0.3052 0.3017 0.5831 0.5315 0.8176 0.2298 0.2344 0.504 0.4207 0.8067 0.5478 0.3026 0.1272 0.6276 0.1927 0.9559 0.1927 0.3283 0 0.6533 -0.0655 0.9559 -0.1927 0.3027 -0.1271 0.5769 -0.3134 0.8067 -0.5478 0.2298 -0.2345 0.4105 -0.5124 0.5315 -0.8176 0.1211 -0.3051 0.18 -0.6314 0.1734 -0.9596 0 0.6543 0.2599 1.2818 0.7226 1.7444 0.4626 0.4627 1.0901 0.7226 1.7444 0.7226h1.85" stroke-width="1"></path>
  <path fill="#64a8a60a" stroke="#042f2e" stroke-linecap="round" stroke-linejoin="round" d="M68.911 50.839c0.3038 0.0162 0.6014 0.0922 0.8758 0.2234 0.2744 0.1313 0.5202 0.3153 0.7235 0.5416 0.2033 0.2263 0.36 0.4905 0.4612 0.7774 0.1012 0.2868 0.1448 0.5908 0.1285 0.8946l-0.407 7.514c-0.0165 0.3036 -0.0926 0.601 -0.224 0.8752 -0.1314 0.2742 -0.3156 0.5198 -0.5419 0.7229 -0.2264 0.203 -0.4905 0.3595 -0.7773 0.4604 -0.2868 0.101 -0.5907 0.1445 -0.8943 0.128 -0.3036 -0.0165 -0.601 -0.0926 -0.8752 -0.224 -0.2742 -0.1314 -0.5198 -0.3156 -0.7229 -0.5419 -0.203 -0.2264 -0.3595 -0.4905 -0.4604 -0.7773 -0.101 -0.2868 -0.1445 -0.5907 -0.128 -0.8943l0.407 -7.513c0.0331 -0.6129 0.3081 -1.1875 0.7647 -1.5976 0.4567 -0.4101 1.0574 -0.6221 1.6703 -0.5894v0Z" stroke-width="1"></path>
  <path fill="#64a8a60a" stroke="#042f2e" stroke-linecap="round" stroke-linejoin="round" d="M66.519 50.117c0.5418 0.2888 0.9468 0.781 1.1259 1.3683 0.1791 0.5873 0.1176 1.2217 -0.1709 1.7637l-2.763 5.378c-0.2887 0.542 -0.7808 0.947 -1.3682 1.1261 -0.5874 0.1791 -1.2218 0.1176 -1.7638 -0.1711s-0.9471 -0.7809 -1.1262 -1.3682c-0.1791 -0.5874 -0.1175 -1.2218 0.1712 -1.7638l2.763 -5.378c0.2888 -0.5419 0.781 -0.9468 1.3683 -1.1259 0.5873 -0.1791 1.2217 -0.1176 1.7637 0.1709v0Z" stroke-width="1"></path>
  <path stroke="#042f2e" stroke-linecap="round" stroke-linejoin="round" d="M91.865 54.215c-3.151 -2.734 -3.928 -8.526 -9.988 -11.69 -7.977 -4.166 -17.843 -3.172 -26.509 7.65 -0.1984 0.2356 -0.3478 0.5083 -0.4395 0.8023 -0.0917 0.294 -0.1238 0.6033 -0.0944 0.9099 0.0293 0.3065 0.1195 0.6041 0.2653 0.8754 0.1459 0.2712 0.3443 0.5107 0.5838 0.7043s0.5152 0.3374 0.811 0.4231c0.2958 0.0857 0.6057 0.1116 0.9116 0.076 0.3059 -0.0355 0.6017 -0.1318 0.8699 -0.2831 0.2682 -0.1512 0.5036 -0.3545 0.6923 -0.5979 0.5747 -0.7106 1.152 -1.3723 1.732 -1.985 0.2038 0.2177 0.448 0.3936 0.719 0.518 9.067 6.865 10.9 7.737 13.118 8.6 3.43 1.333 4.944 1.977 7.466 4.26m-5.876 -15.4c-0.7644 0.925 -1.8283 1.5535 -3.0074 1.7767 -1.179 0.2232 -2.399 0.027 -3.4486 -0.5547l-5.362 -2.452c3.129 -2.29 6.286 -3.246 9.43 -2.836 2.675 0.344 3.294 2.71 2.384 4.064l0.004 0.002Z" stroke-width="1"></path>
  <path fill="#0ec3c1" d="M74.118 49.536 71.1 45.289l9.4 -6.677c0.2529 -0.1797 0.5387 -0.3078 0.8412 -0.377 0.3024 -0.0692 0.6155 -0.0782 0.9214 -0.0263 0.3059 0.0518 0.5986 0.1633 0.8613 0.3283 0.2628 0.1649 0.4905 0.3801 0.6701 0.633l0.281 0.395c0.1797 0.2529 0.3078 0.5388 0.377 0.8412 0.0692 0.3024 0.0782 0.6155 0.0264 0.9214 -0.0518 0.3059 -0.1634 0.5986 -0.3284 0.8614 -0.1649 0.2627 -0.38 0.4904 -0.633 0.67l-9.399 6.677Z" stroke-width="1"></path>
  <path stroke="#042f2e" stroke-linecap="round" stroke-linejoin="round" d="M74.118 49.536 71.1 45.289l9.4 -6.677c0.2529 -0.1797 0.5387 -0.3078 0.8412 -0.377 0.3024 -0.0692 0.6155 -0.0782 0.9214 -0.0263 0.3059 0.0518 0.5986 0.1633 0.8613 0.3283 0.2628 0.1649 0.4905 0.3801 0.6701 0.633l0.281 0.395c0.1797 0.2529 0.3078 0.5388 0.377 0.8412 0.0692 0.3024 0.0782 0.6155 0.0264 0.9214 -0.0518 0.3059 -0.1634 0.5986 -0.3284 0.8614 -0.1649 0.2627 -0.38 0.4904 -0.633 0.67l-9.399 6.677Z" stroke-width="1"></path>
  <path stroke="#042f2e" stroke-linecap="round" stroke-linejoin="round" d="m71.511 42.868 6.607 -4.693c0.1841 -0.1369 0.394 -0.235 0.6171 -0.2886 0.2231 -0.0536 0.4547 -0.0615 0.6809 -0.0232 0.2262 0.0383 0.4423 0.122 0.6353 0.2461 0.193 0.124 0.3589 0.2858 0.4877 0.4757" stroke-width="1"></path>
  <path fill="#0ec3c1" stroke="#042f2e" stroke-linecap="round" stroke-linejoin="round" d="m56.321 57.208 -4.641 3.3c-0.1025 0.0714 -0.1792 0.174 -0.2185 0.2926 -0.0393 0.1186 -0.0391 0.2468 0.0005 0.3652 0.0397 0.1185 0.1166 0.2209 0.2194 0.292 0.1027 0.0711 0.2258 0.1069 0.3506 0.1022 1.946 -0.08 4.727 -0.433 4.686 -1.791l0.944 -0.67 -1.341 -1.891Z" stroke-width="1"></path>
  <path fill="#ffffff" d="m58 59.568 -1.676 -2.36c-0.0888 -0.1252 -0.1243 -0.2806 -0.0986 -0.4319s0.1105 -0.2862 0.2356 -0.3751l2.359 -1.676 2.347 3.3L58.8 59.7c-0.1241 0.0871 -0.2774 0.1221 -0.427 0.0974s-0.2835 -0.1071 -0.373 -0.2294Z" stroke-width="1"></path>
  <path stroke="#042f2e" stroke-linecap="round" stroke-linejoin="round" d="m58 59.568 -1.676 -2.36c-0.0888 -0.1252 -0.1243 -0.2806 -0.0986 -0.4319s0.1105 -0.2862 0.2356 -0.3751l2.359 -1.676 2.347 3.3L58.8 59.7c-0.1241 0.0871 -0.2774 0.1221 -0.427 0.0974s-0.2835 -0.1071 -0.373 -0.2294v0Z" stroke-width="1"></path>
  <path fill="#0ec3c1" d="M60.829 57.556 59.153 55.2c-0.0881 -0.1239 -0.151 -0.2639 -0.1849 -0.4121 -0.034 -0.1482 -0.0384 -0.3016 -0.0131 -0.4515 0.0254 -0.1499 0.08 -0.2933 0.1608 -0.4221 0.0809 -0.1287 0.1862 -0.2403 0.3102 -0.3283L71.1 45.289l3.017 4.247 -11.674 8.294c-0.1239 0.0881 -0.264 0.1508 -0.4122 0.1847 -0.1483 0.0339 -0.3017 0.0383 -0.4516 0.0128 -0.1499 -0.0254 -0.2933 -0.0802 -0.422 -0.1611 -0.1288 -0.0809 -0.2403 -0.1864 -0.3282 -0.3104Z" stroke-width="1"></path>
  <path stroke="#042f2e" stroke-linecap="round" stroke-linejoin="round" d="M60.829 57.556 59.153 55.2c-0.0881 -0.1239 -0.151 -0.2639 -0.1849 -0.4121 -0.034 -0.1482 -0.0384 -0.3016 -0.0131 -0.4515 0.0254 -0.1499 0.08 -0.2933 0.1608 -0.4221 0.0809 -0.1287 0.1862 -0.2403 0.3102 -0.3283L71.1 45.289l3.017 4.247 -11.674 8.294c-0.1239 0.0881 -0.264 0.1508 -0.4122 0.1847 -0.1483 0.0339 -0.3017 0.0383 -0.4516 0.0128 -0.1499 -0.0254 -0.2933 -0.0802 -0.422 -0.1611 -0.1288 -0.0809 -0.2403 -0.1864 -0.3282 -0.3104Z" stroke-width="1"></path>
  <path fill="#ffffff" d="M76.123 49.076c-0.764 0.9244 -1.827 1.5526 -3.0052 1.7762 -1.1781 0.2235 -2.3974 0.0282 -3.4468 -0.5522l-6.33 -2.9c-0.2773 -0.132 -0.5781 -0.2075 -0.8849 -0.2221 -0.3068 -0.0146 -0.6134 0.0319 -0.902 0.1369 -0.2886 0.105 -0.5535 0.2664 -0.7791 0.4747 -0.2257 0.2083 -0.4077 0.4594 -0.5354 0.7387 -0.1277 0.2793 -0.1986 0.5812 -0.2086 0.8882 -0.0099 0.3069 0.0413 0.6128 0.1507 0.8998 0.1094 0.2869 0.2748 0.5493 0.4865 0.7718 0.2117 0.2224 0.4656 0.4006 0.7468 0.524 9.067 6.866 10.9 7.737 13.118 8.6" stroke-width="1"></path>
  <path stroke="#042f2e" stroke-linecap="round" stroke-linejoin="round" d="M76.123 49.076c-0.764 0.9244 -1.827 1.5526 -3.0052 1.7762 -1.1781 0.2235 -2.3974 0.0282 -3.4468 -0.5522l-6.33 -2.9c-0.2773 -0.132 -0.5781 -0.2075 -0.8849 -0.2221 -0.3068 -0.0146 -0.6134 0.0319 -0.902 0.1369 -0.2886 0.105 -0.5535 0.2664 -0.7791 0.4747 -0.2257 0.2083 -0.4077 0.4594 -0.5354 0.7387 -0.1277 0.2793 -0.1986 0.5812 -0.2086 0.8882 -0.0099 0.3069 0.0413 0.6128 0.1507 0.8998 0.1094 0.2869 0.2748 0.5493 0.4865 0.7718 0.2117 0.2224 0.4656 0.4006 0.7468 0.524 9.067 6.866 10.9 7.737 13.118 8.6" stroke-width="1"></path>
  <path fill="#ffffff" d="M76.123 49.076c-0.764 0.9244 -1.827 1.5526 -3.0052 1.7762 -1.1781 0.2235 -2.3974 0.0282 -3.4468 -0.5522l-6.33 -2.9c-0.2773 -0.132 -0.5781 -0.2075 -0.8849 -0.2221 -0.3068 -0.0146 -0.6134 0.0319 -0.902 0.1369 -0.2886 0.105 -0.5535 0.2664 -0.7791 0.4747 -0.2257 0.2083 -0.4077 0.4594 -0.5354 0.7387 -0.1277 0.2793 -0.1986 0.5812 -0.2086 0.8882 -0.0099 0.3069 0.0413 0.6128 0.1507 0.8998 0.1094 0.2869 0.2748 0.5493 0.4865 0.7718 0.2117 0.2224 0.4656 0.4006 0.7468 0.524 9.067 6.866 10.9 7.737 13.118 8.6" stroke-width="1"></path>
  <path stroke="#042f2e" stroke-linecap="round" stroke-linejoin="round" d="M76.123 49.076c-0.764 0.9244 -1.827 1.5526 -3.0052 1.7762 -1.1781 0.2235 -2.3974 0.0282 -3.4468 -0.5522l-6.33 -2.9c-0.2773 -0.132 -0.5781 -0.2075 -0.8849 -0.2221 -0.3068 -0.0146 -0.6134 0.0319 -0.902 0.1369 -0.2886 0.105 -0.5535 0.2664 -0.7791 0.4747 -0.2257 0.2083 -0.4077 0.4594 -0.5354 0.7387 -0.1277 0.2793 -0.1986 0.5812 -0.2086 0.8882 -0.0099 0.3069 0.0413 0.6128 0.1507 0.8998 0.1094 0.2869 0.2748 0.5493 0.4865 0.7718 0.2117 0.2224 0.4656 0.4006 0.7468 0.524 9.067 6.866 10.9 7.737 13.118 8.6" stroke-width="1"></path>
</svg>