<svg xmlns="http://www.w3.org/2000/svg" fill="none" viewBox="0 0 100 100" id="Employee-Checklist-1--Streamline-Ux">
  <desc>
    Employee Checklist 1 Streamline Illustration: https://streamlinehq.com
  </desc>
  <path fill="#64a8a60a" d="M50 82.5441c22.0914 0 40 -17.9086 40 -40S72.0914 2.54407 50 2.54407 10 20.4527 10 42.5441c0 22.0914 17.9086 40 40 40Z" stroke-width="1"></path>
  <path fill="#0ec3c1" stroke="#042f2e" stroke-linecap="round" stroke-linejoin="round" d="M65 8.54407H21c-0.5523 0 -1 0.44771 -1 1V71.5441c0 0.5523 0.4477 1 1 1h44c0.5523 0 1 -0.4477 1 -1V9.54407c0 -0.55229 -0.4477 -1 -1 -1Z" stroke-width="1"></path>
  <path fill="#ffffff" stroke="#042f2e" stroke-linecap="round" stroke-linejoin="round" d="M60 13.5441H26c-0.5523 0 -1 0.4477 -1 1v52c0 0.5523 0.4477 1 1 1h34c0.5523 0 1 -0.4477 1 -1v-52c0 -0.5523 -0.4477 -1 -1 -1Z" stroke-width="1"></path>
  <path fill="#ffffff" stroke="#042f2e" stroke-linecap="round" stroke-linejoin="round" d="M48.4551 7.00004c0 -0.71636 -0.1411 -1.4257 -0.4153 -2.08753 -0.2741 -0.66184 -0.6759 -1.26319 -1.1825 -1.76973 -0.5065 -0.50655 -1.1079 -0.90836 -1.7697 -1.1825 -0.6618 -0.27414 -1.3712 -0.41524 -2.0875 -0.41524 -0.7164 0 -1.4258 0.1411 -2.0876 0.41524 -0.6618 0.27414 -1.2632 0.67595 -1.7697 1.1825 -0.5066 0.50654 -0.9084 1.10789 -1.1825 1.76973 -0.2741 0.66183 -0.4152 1.37117 -0.4152 2.08753h-5.636c-0.5305 0 -1.0392 0.21072 -1.4143 0.58579 -0.375 0.37507 -0.5857 0.88378 -0.5857 1.41421V13.545c0 0.2653 0.1053 0.5196 0.2929 0.7072 0.1875 0.1875 0.4418 0.2928 0.7071 0.2928h24.182c0.2652 0 0.5195 -0.1053 0.7071 -0.2928 0.1875 -0.1876 0.2929 -0.4419 0.2929 -0.7072V9.00004c0 -0.53043 -0.2108 -1.03914 -0.5858 -1.41421 -0.3751 -0.37507 -0.8838 -0.58579 -1.4142 -0.58579h-5.636Z" stroke-width="1"></path>
  <path stroke="#0ec3c1" stroke-linecap="round" stroke-linejoin="round" d="M41 27.082v3.422H29v-12h8.75" stroke-width="1"></path>
  <path stroke="#0ec3c1" stroke-linecap="round" stroke-linejoin="round" d="M40.96 34.5441H29v11.96h11.96v-11.96Z" stroke-width="1"></path>
  <path stroke="#0ec3c1" stroke-linecap="round" stroke-linejoin="round" d="M40.96 50.5441H29v11.96h11.96v-11.96Z" stroke-width="1"></path>
  <path fill="#0ec3c1" stroke="#042f2e" stroke-linecap="round" stroke-linejoin="round" d="M36.235 27.7511c-0.3223 -0.0177 -0.6247 -0.1614 -0.842 -0.4l-3.65 -3.85c-0.1179 -0.1182 -0.2109 -0.2588 -0.2735 -0.4135 -0.0627 -0.1546 -0.0937 -0.3203 -0.0913 -0.4872 0.0024 -0.1669 0.0382 -0.3316 0.1053 -0.4844 0.067 -0.1528 0.1641 -0.2907 0.2853 -0.4054 0.1212 -0.1147 0.2641 -0.204 0.4204 -0.2626 0.1563 -0.0586 0.3227 -0.0853 0.4894 -0.0786 0.1668 0.0068 0.3305 0.0469 0.4815 0.1179 0.1511 0.0711 0.2863 0.1716 0.3979 0.2958l2.753 2.9 7.542 -7.767c0.2318 -0.234 0.5466 -0.3671 0.876 -0.3703 0.3295 -0.0031 0.6468 0.1239 0.8831 0.3534 0.2362 0.2296 0.3723 0.5431 0.3787 0.8725 0.0063 0.3293 -0.1176 0.6479 -0.3448 0.8864l-8.449 8.7c-0.2224 0.2268 -0.5219 0.3617 -0.839 0.378l-0.123 0.015Z" stroke-width="1"></path>
  <path stroke="#0ec3c1" stroke-linecap="round" stroke-linejoin="round" d="M48 25.504h9" stroke-width="1"></path>
  <path stroke="#0ec3c1" stroke-linecap="round" stroke-linejoin="round" d="M48 28.504h5.786" stroke-width="1"></path>
  <path stroke="#0ec3c1" stroke-linecap="round" stroke-linejoin="round" d="M48 36.504h6.923" stroke-width="1"></path>
  <path stroke="#0ec3c1" stroke-linecap="round" stroke-linejoin="round" d="M48 39.504h8.182" stroke-width="1"></path>
  <path fill="#ffffff" stroke="#042f2e" stroke-linecap="round" stroke-linejoin="round" d="m59.534 71.5649 -4.258 23.835h6.935l5.049 -18.117c0.0272 -0.416 0.2117 -0.8061 0.516 -1.0912 0.3042 -0.285 0.7056 -0.4436 1.1225 -0.4436 0.4169 0 0.8183 0.1586 1.1225 0.4436 0.3043 0.2851 0.4888 0.6752 0.516 1.0912l5.05 18.117h6.935l-4.259 -23.835H59.534Z" stroke-width="1"></path>
  <path fill="#0ec3c1" d="M68.9461 98.4549c7.9567 0 14.407 -0.9675 14.407 -2.161s-6.4503 -2.161 -14.407 -2.161c-7.9568 0 -14.407 0.9675 -14.407 2.161s6.4502 2.161 14.407 2.161Z" stroke-width="1"></path>
  <path fill="#0ec3c1" stroke="#042f2e" stroke-linecap="round" stroke-linejoin="round" d="M55.891 96.057c-0.247 0.0023 -0.4905 -0.0591 -0.7069 -0.1784 -0.2163 -0.1193 -0.3982 -0.2923 -0.5281 -0.5025 -0.13 -0.2101 -0.2034 -0.4502 -0.2134 -0.6971 -0.01 -0.2468 0.0439 -0.4921 0.1564 -0.712 0.3735 -0.6765 0.9216 -1.2404 1.5871 -1.6329 0.6656 -0.3926 1.4242 -0.5995 2.1969 -0.5991h0.72c0.7729 -0.0005 1.5317 0.2064 2.1974 0.5989 0.6657 0.3926 1.214 0.9566 1.5876 1.6331 0.1126 0.22 0.1665 0.4653 0.1564 0.7123 -0.01 0.2469 -0.0836 0.4871 -0.2136 0.6973 -0.13 0.2101 -0.3121 0.3832 -0.5286 0.5024 -0.2165 0.1192 -0.4601 0.1805 -0.7072 0.178h-5.704Z" stroke-width="1"></path>
  <path fill="#0ec3c1" stroke="#042f2e" stroke-linecap="round" stroke-linejoin="round" d="M81.906 96.057c0.2472 0.0025 0.4908 -0.0588 0.7073 -0.178 0.2165 -0.1192 0.3985 -0.2923 0.5285 -0.5024 0.1301 -0.2102 0.2037 -0.4504 0.2137 -0.6973 0.01 -0.247 -0.0439 -0.4923 -0.1565 -0.7123 -0.3736 -0.6765 -0.9218 -1.2405 -1.5876 -1.6331 -0.6657 -0.3925 -1.4245 -0.5994 -2.1973 -0.5989h-0.7201c-0.7727 -0.0004 -1.5313 0.2065 -2.1969 0.5991 -0.6655 0.3925 -1.2136 0.9564 -1.587 1.6329 -0.1126 0.2199 -0.1665 0.4652 -0.1565 0.712 0.01 0.2469 0.0835 0.487 0.2134 0.6971 0.1299 0.2102 0.3118 0.3832 0.5282 0.5025 0.2163 0.1193 0.4598 0.1807 0.7069 0.1784h5.7039Z" stroke-width="1"></path>
  <path fill="#0ec3c1" stroke="#042f2e" stroke-linecap="round" stroke-linejoin="round" d="M78.263 68.0219v3.543H59.538v-20.544c-3.317 1.2 -5.875 5.011 -9.216 15.347l-5.011 -2.017c3.341 -13.4 10.231 -21.6 23.588 -21.6 1.8601 -0.0464 3.7107 0.2791 5.4432 0.9574 1.7326 0.6784 3.3122 1.696 4.6461 2.9931 1.334 1.297 2.3955 2.8475 3.1221 4.5604 0.7267 1.7128 1.104 3.5535 1.1096 5.4141v6.389c0 1.3147 -0.5222 2.5756 -1.4518 3.5052 -0.9297 0.9296 -2.1905 1.4518 -3.5052 1.4518Z" stroke-width="1"></path>
  <path stroke="#042f2e" stroke-linecap="round" stroke-linejoin="round" d="M78.2631 68.022h-8.641v-5.236h7.028c0.3713 0 0.7274 -0.1475 0.9899 -0.4101 0.2626 -0.2625 0.4101 -0.6186 0.4101 -0.9899v-6.76" stroke-width="1"></path>
  <path stroke="#042f2e" stroke-linecap="round" stroke-linejoin="round" d="M59.5341 68.684c0.008 -2.5 0 -8.109 0 -15.755" stroke-width="1"></path>
  <path fill="#ffffff" stroke="#042f2e" stroke-linecap="round" stroke-linejoin="round" d="m69.7481 43.511 2.033 17.539 -2.882 3.301 -2.882 -3.301 2.033 -17.539h1.698Z" stroke-width="1"></path>
  <path fill="#ffffff" stroke="#042f2e" stroke-linecap="round" stroke-linejoin="round" d="M67.123 62.9799c-0.6686 0.0035 -1.3084 0.2724 -1.7788 0.7476 -0.4703 0.4752 -0.7326 1.1178 -0.7292 1.7864 0.0035 0.6686 0.2724 1.3085 0.7476 1.7788 0.4752 0.4704 1.1178 0.7327 1.7864 0.7292l2.521 -0.013 -0.025 -5.042 -2.522 0.013Z" stroke-width="1"></path>
  <path fill="#0ec3c1" stroke="#042f2e" stroke-linecap="round" stroke-linejoin="round" d="M78.2631 68.684h-18.729v2.881h18.729v-2.881Z" stroke-width="1"></path>
  <path fill="#ffffff" stroke="#042f2e" stroke-linecap="round" stroke-linejoin="round" d="m65.9141 43.016 2.985 2.985 2.985 -2.985v-3.754h-5.97v3.754Z" stroke-width="1"></path>
  <path fill="#ffffff" stroke="#042f2e" stroke-linecap="round" stroke-linejoin="round" d="m62.8521 43.4 1.808 4.1c0.0596 0.1346 0.1482 0.2544 0.2595 0.3509 0.1113 0.0964 0.2425 0.1671 0.3843 0.2069 0.1418 0.0398 0.2906 0.0479 0.4358 0.0235 0.1453 -0.0243 0.2833 -0.0804 0.4043 -0.1643L68.9001 46l-3.0931 -3.093c-0.994 0.1047 -1.9808 0.2693 -2.9549 0.493v0Z" stroke-width="1"></path>
  <path fill="#ffffff" stroke="#042f2e" stroke-linecap="round" stroke-linejoin="round" d="m71.866 43.0349 -2.966 2.965 2.754 1.911c0.1211 0.0843 0.2593 0.1407 0.4048 0.1652 0.1455 0.0246 0.2945 0.0166 0.4366 -0.0232 0.142 -0.0399 0.2735 -0.1107 0.3849 -0.2073 0.1115 -0.0966 0.2002 -0.2167 0.2597 -0.3517l1.583 -3.594c-0.9199 -0.3861 -1.8774 -0.676 -2.857 -0.865Z" stroke-width="1"></path>
  <path fill="#ffffff" stroke="#042f2e" stroke-linecap="round" stroke-linejoin="round" d="m35.531 46.1451 4.723 -4.34 2.208 1.455 -5.668 5.208 -1.263 -2.323Z" stroke-width="1"></path>
  <path fill="#0ec3c1" stroke="#042f2e" stroke-linecap="round" stroke-linejoin="round" d="M30.47 42.005c-0.5731 -0.4692 -1.035 -1.0597 -1.3525 -1.7289 -0.3174 -0.6692 -0.4826 -1.4004 -0.4835 -2.1411 0.0872 -1.9004 -0.3117 -3.7917 -1.159 -5.495 1.6279 0.9851 3.4788 1.5417 5.38 1.618 0.7378 0.0628 1.4525 0.2887 2.0923 0.6614 0.6399 0.3727 1.189 0.8828 1.6077 1.4936l3.7 5.392 -4.723 4.34 -5.062 -4.14Z" stroke-width="1"></path>
  <path fill="#0ec3c1" stroke="#042f2e" stroke-linecap="round" stroke-linejoin="round" d="m36.7939 48.468 5.668 -5.208 6.153 4.799 -7.557 6.945 -4.264 -6.536Z" stroke-width="1"></path>
  <path fill="#ffffff" stroke="#042f2e" stroke-linecap="round" stroke-linejoin="round" d="M32.173 39.648c-0.1718 -0.1868 -0.2842 -0.4203 -0.3233 -0.671 -0.039 -0.2507 -0.0028 -0.5074 0.1041 -0.7375 0.1068 -0.2302 0.2795 -0.4235 0.4962 -0.5555 0.2167 -0.132 0.4677 -0.1968 0.7212 -0.1862 0.2535 0.0107 0.4982 0.0962 0.7031 0.2459 0.2049 0.1497 0.3608 0.3568 0.448 0.595 0.0872 0.2383 0.1018 0.4971 0.042 0.7437 -0.0599 0.2466 -0.1916 0.4699 -0.3783 0.6416 -0.124 0.1141 -0.2693 0.2026 -0.4276 0.2605 -0.1582 0.058 -0.3263 0.0841 -0.4947 0.0771 -0.1683 -0.0071 -0.3336 -0.0472 -0.4865 -0.1182 -0.1528 -0.0709 -0.2902 -0.1713 -0.4042 -0.2954Z" stroke-width="1"></path>
  <path stroke="#042f2e" stroke-linecap="round" stroke-linejoin="round" d="m32.2489 37.8351 -4.34 -4.723" stroke-width="1"></path>
  <path stroke="#042f2e" stroke-linecap="round" stroke-linejoin="round" d="m58.7469 72.722 -0.847 0.778c-0.486 0.4468 -1.1257 0.689 -1.7858 0.6761 -0.6601 -0.0128 -1.2899 -0.2797 -1.7582 -0.7451l-8.28 -8.231" stroke-width="1"></path>
  <path fill="#0ec3c1" stroke="#042f2e" stroke-linecap="round" stroke-linejoin="round" d="m48.615 48.059 17.441 20.627c0.668 0.7921 1.0042 1.8117 0.9384 2.8459 -0.0658 1.0341 -0.5284 2.0029 -1.2914 2.704 -0.763 0.7012 -1.7673 1.0806 -2.8033 1.059 -1.036 -0.0216 -2.0236 -0.4426 -2.7567 -1.1749L41.058 55l7.557 -6.941Z" stroke-width="1"></path>
  <path fill="#0ec3c1" stroke="#042f2e" stroke-linecap="round" stroke-linejoin="round" d="m48.615 48.059 17.441 20.627c0.668 0.7921 1.0042 1.8117 0.9384 2.8459 -0.0658 1.0341 -0.5284 2.0029 -1.2914 2.704 -0.763 0.7012 -1.7673 1.0806 -2.8033 1.059 -1.036 -0.0216 -2.0236 -0.4426 -2.7567 -1.1749L41.058 55l7.557 -6.941Z" stroke-width="1"></path>
  <path fill="#ffffff" stroke="#042f2e" stroke-linecap="round" stroke-linejoin="round" d="m42.873 56.821 7.4 -6.801 -1.658 -1.961 -7.557 6.945 1.815 1.817Z" stroke-width="1"></path>
  <path fill="#ffffff" stroke="#042f2e" stroke-linecap="round" stroke-linejoin="round" d="m47.159 67.171 -2.051 -2.492c-0.269 -0.3128 -0.4197 -0.71 -0.4257 -1.1225 -0.006 -0.4125 0.133 -0.814 0.3927 -1.1345l1.112 -1.3c0.1695 -0.1861 0.3779 -0.3326 0.6102 -0.4294 0.2324 -0.0967 0.4832 -0.1413 0.7347 -0.1305 0.2515 0.0108 0.4975 0.0766 0.7208 0.1929 0.2232 0.1163 0.4183 0.2801 0.5713 0.48l2.43 2.951c0.1667 0.1885 0.2899 0.4113 0.3611 0.6526 0.0712 0.2414 0.0886 0.4954 0.051 0.7442 -0.0377 0.2488 -0.1295 0.4863 -0.269 0.6957 -0.1394 0.2095 -0.3231 0.3858 -0.5381 0.5165l-1.492 0.842c-0.3644 0.1931 -0.785 0.2523 -1.1885 0.1671 -0.4035 -0.0851 -0.7643 -0.3092 -1.0195 -0.6331v0Z" stroke-width="1"></path>
  <path fill="#ffffff" stroke="#042f2e" stroke-linecap="round" stroke-linejoin="round" d="M69.3889 41.5611c1.774 -0.3853 3.3789 -1.3261 4.5816 -2.6858 1.2028 -1.3597 1.9406 -3.0675 2.1064 -4.8752h0.007c2.647 -0.567 1.909 -4.787 -0.48 -4.275l-0.359 -1.673c-0.4755 -2.2205 -1.8137 -4.1612 -3.7201 -5.3951 -1.9064 -1.2339 -4.2248 -1.6599 -6.4454 -1.1844 -2.2205 0.4755 -4.1612 1.8137 -5.3951 3.7201 -1.2339 1.9064 -1.6599 4.2249 -1.1844 6.4454l0.359 1.673c-2.389 0.513 -1.329 4.664 1.317 4.1h0.007c0.8931 1.5814 2.2675 2.8366 3.9232 3.583 1.6558 0.7464 3.5064 0.945 5.2828 0.567Z" stroke-width="1"></path>
  <path fill="#0ec3c1" d="M63.584 34.9261c0.0353 0.1655 0.0208 0.3378 -0.0417 0.4951s-0.1703 0.2925 -0.3096 0.3885c-0.1394 0.0961 -0.3041 0.1487 -0.4733 0.1512 -0.1692 0.0025 -0.3354 -0.0453 -0.4775 -0.1372 -0.1421 -0.092 -0.2538 -0.224 -0.3209 -0.3794 -0.0671 -0.1554 -0.0866 -0.3272 -0.0561 -0.4936 0.0305 -0.1665 0.1097 -0.3202 0.2275 -0.4417 0.1179 -0.1215 0.2691 -0.2053 0.4346 -0.2409 0.11 -0.0238 0.2236 -0.0256 0.3343 -0.0054 0.1107 0.0202 0.2163 0.0621 0.3108 0.1232 0.0945 0.0612 0.176 0.1403 0.2398 0.233 0.0638 0.0927 0.1087 0.1971 0.1321 0.3072Z" stroke-width="1"></path>
  <path fill="#0ec3c1" d="M73.6299 32.7711c0.0356 0.1658 0.0213 0.3384 -0.0412 0.496 -0.0625 0.1576 -0.1703 0.2931 -0.3098 0.3894 -0.1396 0.0963 -0.3045 0.1491 -0.4741 0.1516 -0.1695 0.0025 -0.3359 -0.0453 -0.4783 -0.1374 -0.1423 -0.0921 -0.2542 -0.2243 -0.3213 -0.38 -0.0672 -0.1557 -0.0867 -0.3278 -0.056 -0.4945 0.0306 -0.1667 0.1101 -0.3206 0.2282 -0.4422 0.1182 -0.1216 0.2697 -0.2055 0.4355 -0.2409 0.11 -0.0236 0.2236 -0.0254 0.3342 -0.0051 0.1107 0.0203 0.2163 0.0622 0.3107 0.1233 0.0945 0.0611 0.1759 0.1402 0.2398 0.2329 0.0638 0.0926 0.1088 0.1969 0.1323 0.3069Z" stroke-width="1"></path>
  <path fill="#ffffff" d="M61.5599 27.4561c4.246 2.655 10.114 0.985 13.708 -1.011 0.1371 -0.077 0.2446 -0.1974 0.3054 -0.3423 0.0609 -0.1449 0.0717 -0.306 0.0306 -0.4577 -0.6556 -2.3625 -2.2066 -4.3762 -4.3234 -5.6133 -2.1167 -1.2371 -4.6324 -1.6 -7.0126 -1.0117 -2.4078 0.6617 -4.4668 2.2283 -5.7467 4.3725 -1.2798 2.1442 -1.6816 4.7 -1.1213 7.1335l0.331 1.546c0.0245 0.1145 0.0768 0.2212 0.1522 0.3107 0.0754 0.0896 0.1717 0.1592 0.2804 0.2028 0.1086 0.0435 0.2264 0.0597 0.3428 0.0471 0.1164 -0.0127 0.2279 -0.0538 0.3246 -0.1196 1.232 -0.838 3.247 -2.621 2.724 -5.057" stroke-width="1"></path>
  <path stroke="#042f2e" stroke-linecap="round" stroke-linejoin="round" d="M61.5599 27.4561c4.246 2.655 10.114 0.985 13.708 -1.011 0.1371 -0.077 0.2446 -0.1974 0.3054 -0.3423 0.0609 -0.1449 0.0717 -0.306 0.0306 -0.4577 -0.6556 -2.3625 -2.2066 -4.3762 -4.3234 -5.6133 -2.1167 -1.2371 -4.6324 -1.6 -7.0126 -1.0117 -2.4078 0.6617 -4.4668 2.2283 -5.7467 4.3725 -1.2798 2.1442 -1.6816 4.7 -1.1213 7.1335l0.331 1.546c0.0245 0.1145 0.0768 0.2212 0.1522 0.3107 0.0754 0.0896 0.1717 0.1592 0.2804 0.2028 0.1086 0.0435 0.2264 0.0597 0.3428 0.0471 0.1164 -0.0127 0.2279 -0.0538 0.3246 -0.1196 1.232 -0.838 3.247 -2.621 2.724 -5.057" stroke-width="1"></path>
  <path stroke="#042f2e" stroke-linecap="round" stroke-linejoin="round" d="M61.56 27.4561c-0.377 -0.1732 -0.7213 -0.41 -1.018 -0.7" stroke-width="1"></path>
  <path stroke="#042f2e" stroke-linecap="round" stroke-linejoin="round" d="M66.2 36.9131c0.7085 0.2805 1.4843 0.3447 2.2294 0.1845 0.745 -0.1601 1.4259 -0.5376 1.9566 -1.0845" stroke-width="1"></path>
  <path stroke="#042f2e" stroke-linecap="round" stroke-linejoin="round" d="M63.4919 32.5171c0.0866 -0.1339 0.1987 -0.2495 0.33 -0.34 0.1312 -0.0906 0.279 -0.1544 0.435 -0.1878 0.1559 -0.0335 0.3169 -0.0359 0.4737 -0.0071s0.3065 0.0882 0.4403 0.1749" stroke-width="1"></path>
  <path stroke="#042f2e" stroke-linecap="round" stroke-linejoin="round" d="M69.5099 31.2261c0.0866 -0.1339 0.1987 -0.2495 0.3299 -0.34 0.1313 -0.0906 0.2791 -0.1544 0.435 -0.1879 0.1559 -0.0334 0.3169 -0.0358 0.4737 -0.007 0.1569 0.0288 0.3065 0.0882 0.4404 0.1749" stroke-width="1"></path>
</svg>