<svg xmlns="http://www.w3.org/2000/svg" fill="none" viewBox="0 0 200 200" id="Empty-Inbox--Streamline-Bruxelles">
  <desc>
    Empty Inbox Streamline Illustration: https://streamlinehq.com
  </desc>
  <g id="Empty-Inbox--Social-Media-Empty-Inbox">
    <g id="Colour">
      <path id="Vector" fill="#ffffff" d="M93.637 174.64c-0.0186 0.507 -0.0958 1.01 -0.23 1.5l0 0.33c0 0.11 -0.18 0.24 -0.15 0.28 0.54 0.66 -1.54 5.09 -1.65 5.13 -0.209 0.171 -0.3622 0.401 -0.44 0.66 0.11 1.27 -3.79 5.56 -4.52 6 -0.1 0.06 -2.42 3.21 -9.14 4.57 -18 3.66 -31.58 -17.56 -19.49 -32.22 0.4731 -0.697 1.0123 -1.347 1.61 -1.94 0.56 -0.49 3.71 -3 5.61 -3.64 1 -0.32 0.83 -1 4.41 -1.45 2 -0.27 1.07 -0.51 3.91 -0.43 2.8003 -0.076 5.581 0.488 8.13 1.65 1.1686 0.423 2.27 1.012 3.27 1.75 3.63 2 5.41 5.56 6.76 7.87 0.36 0.61 0.58 1.74 1.26 3.42 0.77 1.85 0.61 5.85 0.66 6.52Z" stroke-width="1"></path>
      <path id="Vector_2" fill="#ffffff" d="M68.5469 23.24c2.92 -4.64 5.67 -5.19 4.93 -6 -1.19 -1.35 -4.2001 3.32 -4.7801 3.41 0.08 -1 2.18 -5.45 4.74 -7.72 1.51 -1.33 3.8001 -2.89 5.8001 -2.94003 2.16 -0.05 2.45 2.33003 1.32 4.15003 -2.7 4.34 -5.28 5.67 -9.75 8.17 -0.82 0.46 -1.79 1.15 -2 1.23 -0.21 0.08 -0.36 -0.12 -0.26 -0.3Z" stroke-width="1"></path>
      <path id="Vector_3" fill="#ffffff" d="M66.3368 15.1599c-1.42 -1.61 -2.38 4.75 -1.45 6.47 0.07 0.13 0.14 0.26 -0.06 0.34 -0.2 0.08 -0.24 0 -0.32 -0.15 -1 -2 -0.87 -2 -1.27 -5.21 0.38 -9.15996 8.37 -11.59997 8.66 -9.35997 0.1399 0.7132 0.1399 1.4468 0 2.16 -0.13 0.57 0 0.75997 -0.41 3.08997 -0.14 0.8 -1.12 1.61 -2 3.16 -1.034 1.7146 -1.8218 3.566 -2.34 5.5 -0.18 0.89 -1.78 1 -1.1 -3.86 0.17 -1.23 0.63 -1.76 0.29 -2.14Z" stroke-width="1"></path>
      <path id="Vector_4" fill="#ffffff" d="M68.297 24.91c1 0.16 2.55 -1.34 3.32 -1.21 0.4879 0.0721 0.947 0.2759 1.3276 0.5895 0.3806 0.3137 0.6684 0.7253 0.8324 1.1905 0.1361 0.5288 0.0939 1.0877 -0.12 1.59 -0.7 2.24 -3 2.88 -5.28 3.15 -1.8345 0.3164 -3.7212 0.1049 -5.44 -0.61 -0.53 -0.27 -0.56 -0.3 -0.09 -0.69 0.4888 -0.4909 0.826 -1.1121 0.9714 -1.7895 0.1454 -0.6773 0.0929 -1.3822 -0.1514 -2.0305 -0.47 -1 -1.06 -1.1 2.52 -2 1.27 -0.32 0.16 1.09 0.87 1.43 0.34 0.17 0.75 0.62 1.13 0.41 0.0152 -0.0124 0.0328 -0.0215 0.0518 -0.0267 0.0189 -0.0052 0.0388 -0.0063 0.0582 -0.0033Z" stroke-width="1"></path>
      <path id="Vector_5" fill="#ffffff" d="M60.1568 24.16c1.69 0 2.6199 1.91 2.1699 2.78 -2.11 4.12 -6.8599 -1.86 -2.1699 -2.78Z" stroke-width="1"></path>
      <path id="Vector_6" fill="#ffffff" d="M135.497 167.47c0.085 -0.406 0.085 -0.824 0 -1.23 -0.018 -0.205 -0.078 -0.405 -0.174 -0.587 -0.096 -0.182 -0.228 -0.343 -0.387 -0.475 -0.159 -0.131 -0.342 -0.229 -0.539 -0.289 -0.198 -0.06 -0.405 -0.08 -0.61 -0.059 -1 0.1 -1.76 1.38 -2.41 1 -0.82 -0.52 -1.08 -0.66 -1.59 -0.49 -2 0.67 -2.31 1.7 -2.47 1.21 -0.113 -0.243 -0.278 -0.459 -0.484 -0.632 -0.206 -0.173 -0.446 -0.298 -0.706 -0.368 -0.91 -0.41 -1.32 0.15 -2.58 1.3 -0.371 0.336 -0.679 0.735 -0.91 1.18 -0.17 0.33 -0.15 0.38 0.14 0.79 0.29 0.41 0.76 0.26 1.15 -0.24 0.441 -0.512 0.926 -0.984 1.45 -1.41 0.09 -0.08 0.21 -0.19 0.38 -0.09 0.43 0.28 -0.32 1.62 0.38 2.13 1.08 0.78 1.22 -0.73 3.06 -1.8 2.43 -1.41 0.17 1.32 1.57 1.4 0.23 0 0.45 0.15 0.66 -0.08 0.21 -0.23 0.28 -0.22 0.39 -0.36 0.441 -0.633 1.014 -1.162 1.68 -1.55 0.09 -0.05 0.13 -0.24 0.27 -0.13 0.46 0.5 -0.44 1.89 -0.06 2.34 0.093 0.145 0.222 0.264 0.375 0.344 0.152 0.081 0.323 0.121 0.495 0.116 0.697 -0.05 1.388 -0.15 2.07 -0.3 1.83 -0.58 2.06 0.66 2.94 -0.35 0.88 -1.01 -0.71 -1.25 -1.84 -1.59 -0.675 0.107 -1.343 0.257 -2 0.45 -0.14 -0.01 -0.31 -0.06 -0.25 -0.23Zm7.32 4.7c0.07 0.65 -0.13 0.58 -0.91 0.58 -0.968 -0.012 -1.936 0.032 -2.9 0.13 -4.53 -0.14 -8.27 0.36 -8.56 0.24 -0.29 -0.12 -9.35 -0.3 -9.48 -0.13 -0.64 0.84 -0.28 -6.58 -0.27 -7.72 0 -0.38 -0.36 -1.85 0.58 -1.76 2.566 0.008 5.13 -0.133 7.68 -0.42 0.405 -0.016 0.81 0.008 1.21 0.07 1.69 0 3 -0.23 4.12 -0.06 1.32 0.21 7.43 -0.07 8.35 -0.05 0.92 0.02 -0.18 2.08 0.17 6.42 0.18 2.32 -0.13 1.31 0.01 2.7Z" stroke-width="1"></path>
      <path id="Vector_7" fill="#ffffff" d="M117.557 94.15c0.34 0 0.64 -0.19 0.58 0.2 -1.21 8.12 -2.37 10.1 -1.15 10.22 0.72 0.07 0.82 -0.37 0.92 -1.18 0.45 -3.86 1.35 -6.79 1.48 -8.61 0.06 -0.89 -0.38 -0.9 5.58 -0.56 0.43 0 0.32 -0.25 7.43 -0.14 1.263 0.0337 2.526 -0.0231 3.78 -0.17 5.39 0.18 7.67 0.2 7.87 0.41 3 3.21 1.79 2.36 3.28 4.32 4.8 6.35 3.26 6.17 7.25 11.54 0.494 0.56 0.942 1.159 1.34 1.79 1.92 3.73 2.59 4 1.67 4 -5.17 0.24 -5.82 0.23 -12.24 0.22 -0.8 0 -0.76 0.2 -0.75 -3.73 0 -15.79 0.44 -15.61 -0.89 -15.74 -0.84 -0.09 -0.46 1.67 -0.58 5.9 0 1.55 0.05 13.32 0.06 13.34 0.12 0.63 -8.73 0.26 -15.72 0.69 -3.3 0.2 -4.22 4.64 -8.83 11.87 -0.15 0.24 -1.44 3.12 -3.37 6.39 -0.28 0.47 -0.56 0.49 -1.23 0.89 -0.48 0.29 -1.13 0 -2.48 0.21 -0.77 0.09 -1.49 -0.12 -2.81 -0.12 -10.2798 0 -11.2098 -0.57 -12.7698 -0.24 -0.3 0.06 -4.37 0 -4.72 -0.06 -1.37 -0.06 -3.92 0.42 -4.58 -0.86 -10.34 -19.74 -7.77 -16.77 -9.73 -18.47 -0.49 -0.42 -8.63 -0.32 -13.44 -0.42 -1.63 0 -1.73 0.12 -1.76 -0.31 -0.12 -1.48 -0.32 -15.16 -0.45 -16.65 -0.35 -1.19 -1.29 -0.4 -1.2 0.24 0.17 1.18 -0.17 0.31 -0.06 8.92 0.11 8.4 0.63 7.81 -0.16 7.8 -2.84 -0.05 -9.36 0.35 -12.36 0.27 -2.78 -0.07 -3.06 0.3 -2.25 -0.63 2 -2.26 1 -1.3 1.62 -2.18 6.92 -9.62 2.48 -2.67 7.21 -9.6 2.08 -3.05 1.66 -2 3.6 -4.72 2.18 -3 2.44 -4.5 3.75 -5 1.0443 -0.2942 2.1416 -0.3489 3.21 -0.16 0.62 0.12 14.8 0.74 14.87 0.73 4 -0.42 8.52 0 10.42 -0.17 2.95 -0.25 1.85 0.27 5.7 0.18 5.2798 -0.11 3.81 0.1 4.7098 0l5.41 -0.27c1.37 -0.1406 2.75 -0.1406 4.12 0 2.33 0 2.74 -0.38 4.52 -0.21 0.97 0.19 2.17 0.03 3.15 0.07Z" stroke-width="1"></path>
      <path id="Vector_8" fill="#2dd4bf" d="M158.757 132.03c0.13 8.42 -0.63 14.06 -0.27 33.32 0.167 1.908 0.224 3.825 0.17 5.74 -0.16 3.57 0.31 11.14 -0.43 11.92 -1.52 1.6 -4.2 0.79 -5.93 1 -0.75 0.07 -60.1601 0.41 -59.8501 -0.1 2.0766 -3.767 2.9426 -8.083 2.48 -12.36 -0.14 -1.62 0.25 -4 -3.19 -9.91 -0.6885 -1.371 -1.6599 -2.581 -2.85 -3.55 -2.1354 -2.217 -4.773 -3.887 -7.69 -4.87 -3.35 -1.37 -2.94 -0.72 -3.38 -1.05 -1.0358 -0.154 -2.0834 -0.214 -3.13 -0.18 -0.63 0.13 -0.37 -0.36 -2.82 -0.1 -1.9645 0.325 -3.9054 0.779 -5.81 1.36 -3.91 1.48 -3.61 1.49 -6.68 3.95 -2.3579 2.18 -4.2376 4.826 -5.52 7.77 -0.9587 2.148 -1.5761 4.432 -1.83 6.77 -0.3969 3.964 0.3638 7.959 2.19 11.5 0.32 0.52 0.31 0.51 -0.29 0.56 -0.5845 0.033 -1.1709 0.006 -1.75 -0.08 -5.28 0.23 -3.45 -0.36 -5.17 -0.29 -0.82 0 -0.88 -0.53 -1.26 -1 -1 -1.24 -0.34 -3.81 -0.37 -4.88 -0.24 -8.35 -0.62 -2.8 -0.12 -13.18 0.05 -1 -0.36 -4.17 -0.32 -5.43 0.27 -8.1 -0.14 -15.35 -0.13 -15.45 0.2059 -1.077 0.2059 -2.183 0 -3.26 -0.45 -3.4 0 -7.7 -0.06 -9.9 -0.1551 -1.249 -0.1551 -2.512 0 -3.76 0.1548 -1.205 0.1548 -2.425 0 -3.63 -0.27 -1.33 0.14 -1.11 -0.2 -2.7 -0.1301 -0.611 -0.0815 -1.246 0.14 -1.83 0.11 -0.57 0 -0.47 0.5 -0.5 2.31 -0.17 23.21 -0.82 30.44 -0.24 1.31 0.1 1.6 1.88 4.56 7.87 5.41 10.92 5 10.35 6.75 11.42 1 0.59 26.2701 0.21 27.0001 -0.07 2.13 -0.91 0.38 1.41 6.09 -9.17 0.48 -0.89 1.74 -2.43 2.56 -4 3 -5.7 3.15 -6.27 5.18 -6.4 1.4 -0.09 29.88 -0.18 30.31 -0.28 1.31 -0.28 0.44 -0.96 0.68 14.99Zm-14.38 32.49c0.07 -3.36 -0.64 -3.1 -3.88 -3 -9.39 0.24 -4.84 -0.19 -8.43 0.07 -2.91 0.22 -2.25 -0.22 -5 0.17 -2.021 0.192 -4.051 0.262 -6.08 0.21 -0.49 -0.11 -0.87 0.3 -1.34 0.28 -0.82 0 -0.67 11.63 -0.12 11.83 2.45 0.87 20 0.42 23.72 0.23 0.228 -0.02 0.446 -0.108 0.624 -0.252 0.178 -0.144 0.309 -0.339 0.376 -0.558 0.125 -1.508 0.115 -3.024 -0.03 -4.53 -0.07 -1 0.14 -3.33 0.16 -4.45Z" stroke-width="1"></path>
      <path id="Vector_9" fill="#2dd4bf" d="M80.0671 172.97c-0.5163 -3.341 -1.4329 -6.608 -2.73 -9.73 -1.5 -3.44 -11.41 -2.87 -11.86 2.87 -0.155 1.215 -0.155 2.445 0 3.66 0.87 4.72 2.4 15.67 7.27 15.74 8.86 -0.81 8.84 -4.32 7.32 -12.54Zm-9.79 -4.52c-0.23 -2.25 -0.31 -2.79 0.43 -3.44 0.2947 -0.207 0.6481 -0.314 1.0082 -0.305 0.3601 0.009 0.7078 0.133 0.9918 0.355 1.78 2.46 3.74 15.35 3 16.35 -0.61 0.66 -1.65 0.73 -1.79 0.48 -0.9306 -1.315 -1.5651 -2.816 -1.86 -4.4 -0.7505 -2.997 -1.3447 -6.031 -1.78 -9.09v0.05Z" stroke-width="1"></path>
    </g>
    <g id="Ink">
      <path id="Vector_10" fill="#1c1c1e" d="M140.497 161.51c3.25 -0.09 4 -0.35 3.88 3 0 1.12 -0.24 3.45 -0.14 4.42 0.114 1.519 0.09 3.045 -0.07 4.56 -0.065 0.221 -0.195 0.417 -0.373 0.561 -0.179 0.145 -0.398 0.232 -0.627 0.249 -10.9 0.57 -19.49 0.11 -21.45 0.15 -1.13 0 -1.3 -0.34 -1.73 -0.19 -0.14 0.05 -0.35 -0.12 -0.53 -0.19 -0.56 -0.2 -0.71 -11.87 0.12 -11.83 0.46 0 0.83 -0.38 1.33 -0.28 0.24 0.06 3.26 0 3.75 0 0.23 0 0.47 -0.06 0.7 -0.07 0.55 0.027 1.101 -0.017 1.64 -0.13 2.76 -0.4 2.1 0 5 -0.18 3.65 -0.26 -0.89 0.18 8.5 -0.07Zm1.41 11.24c0.78 0 1 0.07 0.91 -0.58 -0.12 -1.39 0.16 -0.38 0 -2.69 -0.37 -4.34 0.75 -6.4 -0.17 -6.42 -0.92 -0.02 -7 0.27 -8.35 0.06 -1.373 -0.061 -2.749 -0.044 -4.12 0.05 -0.4 -0.062 -0.805 -0.086 -1.21 -0.07 -0.799 0.034 -1.594 0.125 -2.38 0.27 -0.18 0.06 -5.28 0.15 -5.31 0.15 -0.93 -0.09 -0.57 1.38 -0.57 1.76 0 1.14 -0.37 8.56 0.27 7.72 0.13 -0.17 9.14 0 9.48 0.13 0.34 0.13 4 -0.36 8.56 -0.24 0.96 -0.105 1.925 -0.152 2.89 -0.14Z" stroke-width="1"></path>
      <path id="Vector_11" fill="#1c1c1e" d="M137.737 167.2c1.14 0.33 2.62 0.68 1.84 1.58s-1.1 -0.23 -2.93 0.35c-0.684 0.154 -1.38 0.254 -2.08 0.3 -0.169 0.004 -0.337 -0.035 -0.488 -0.114 -0.15 -0.078 -0.278 -0.194 -0.372 -0.336 -0.38 -0.44 0.17 -0.77 0.18 -2 0 -0.119 -0.046 -0.234 -0.13 -0.32 -0.14 -0.13 -0.17 0.08 -0.26 0.12 -0.668 0.389 -1.242 0.922 -1.68 1.56 -0.11 0.14 -0.28 0.22 -0.4 0.35 -0.12 0.13 -0.43 0.1 -0.66 0.08 -1.4 -0.08 0.85 -2.8 -1.56 -1.4 -1.84 1.08 -2 2.58 -3.06 1.8 -0.7 -0.5 0 -1.84 -0.39 -2.12 -0.059 -0.038 -0.132 -0.051 -0.201 -0.036s-0.13 0.057 -0.169 0.116c-0.522 0.431 -1.01 0.903 -1.46 1.41 -0.38 0.51 -0.77 0.77 -1.15 0.24 -0.38 -0.53 -0.31 -0.45 -0.13 -0.79 0.233 -0.443 0.541 -0.842 0.91 -1.18 1.26 -1.15 1.67 -1.7 2.58 -1.29 0.259 0.068 0.5 0.193 0.704 0.366 0.204 0.173 0.367 0.39 0.476 0.634 0.17 0.5 0.46 -0.54 2.47 -1.21 0.52 -0.18 0.77 0 1.6 0.48 0.3 0.19 0.19 0.26 1.73 -0.74 0.175 -0.11 0.369 -0.184 0.572 -0.219 0.204 -0.034 0.412 -0.028 0.613 0.019 0.2 0.046 0.39 0.132 0.558 0.252 0.167 0.12 0.309 0.273 0.417 0.448 0.122 0.208 0.198 0.44 0.22 0.68 0.091 0.405 0.091 0.825 0 1.23 0 0.17 0.11 0.21 0.22 0.17 0.666 -0.189 1.345 -0.333 2.03 -0.43Z" stroke-width="1"></path>
      <path id="Vector_12" fill="#1c1c1e" d="M68.2974 24.91c-0.036 -0.0103 -0.0741 -0.0103 -0.1101 0 -0.38 0.22 -0.7899 -0.24 -1.1299 -0.41 -0.71 -0.34 0.3999 -1.75 -0.8701 -1.43 -3.58 0.92 -2.9999 1 -2.5199 2 0.2442 0.6483 0.2968 1.3532 0.1514 2.0305 -0.1454 0.6774 -0.4826 1.2986 -0.9714 1.7895 -0.47 0.39 -0.4401 0.42 0.0899 0.69 1.7176 0.7197 3.6057 0.9314 5.44 0.61 2.33 -0.28 4.5801 -0.92 5.2801 -3.15 0.2146 -0.5022 0.2568 -1.0613 0.12 -1.59 -0.1659 -0.464 -0.4543 -0.8745 -0.8346 -1.1879 -0.3803 -0.3134 -0.8382 -0.518 -1.3254 -0.5921 -0.76 -0.09 -2.32 1.4 -3.32 1.24Zm14.29 -13.44c0.34 2.66 -2.18 5.32 -4.06 7.37 -2.12 2.33 -5.6701 3.7 -5.1501 4.08 0.7368 0.4491 1.3355 1.0927 1.7301 1.86 0.69 1.48 -0.09 3.28 -1.13 4.56 -0.14 0.17 -0.6201 0.5 -0.5401 0.64 0.08 0.14 1.0601 0.1 1.2101 0.07 0.42 -0.1 0.51 0.25 0.72 0.43 0.21 0.18 0.07 0.35 -0.12 0.59 -0.61 0.78 -2.21 0.61 -3 -0.07 -0.29 -0.26 -0.2501 -0.15 -2.0601 0.44 0 0 -0.5099 0.07 -0.5899 0.22 -0.08 0.15 0.48 0.69 0.63 0.7 0.4887 0.1089 0.9897 0.1526 1.49 0.13 0.57 -0.12 1.05 0.55 1 0.66 -0.05 0.11 -0.28 0.62 -0.68 0.72 -0.5619 0.1577 -1.1545 0.1707 -1.7228 0.0378 -0.5682 -0.1329 -1.0936 -0.4073 -1.5272 -0.7978 -0.82 -0.9 -0.36 -1.21 -0.92 -1.21 -2.07 0 -2.4 -0.09 -2.25 0.29 0.29 0.72 1.1899 0.91 1.4599 1.07 0.71 0.4 -0.17 1.53 -0.94 1.16 -0.5886 -0.1946 -1.1039 -0.564 -1.4773 -1.0588 -0.3733 -0.4949 -0.587 -1.0918 -0.6126 -1.7112 -0.33 -0.11 -0.67 -0.24 -1 -0.33 -0.33 -0.09 -1.2401 1.14 0.4599 2.35 0.1055 0.0711 0.1896 0.1695 0.2433 0.2847 0.0538 0.1152 0.0751 0.2429 0.0617 0.3694 -0.0133 0.1264 -0.0608 0.2469 -0.1375 0.3483 -0.0766 0.1015 -0.1795 0.1802 -0.2975 0.2276 -0.55 0.32 -3.1799 -1.36 -1.8499 -3.76 0.22 -0.4 0.22 -0.4 -0.11 -0.68 -0.69 -0.57 -0.75 -0.68 -1.06 -0.7 -0.6431 0.0835 -1.2954 -0.0541 -1.8501 -0.39 -0.6534 -0.3534 -1.1795 -0.9028 -1.5042 -1.5709 -0.3247 -0.6681 -0.4316 -1.4212 -0.3058 -2.1533 0.1259 -0.7321 0.4783 -1.4063 1.0075 -1.9276 0.5292 -0.5213 1.2086 -0.8634 1.9426 -0.9782 1.87 -0.27 1.9999 0.71 2.8599 0.2 0.86 -0.51 1 -0.27 0.51 -1 -4 -6.75 2.59 -18.49 8.61 -16.77 2.71 0.78 1.5001 3.46 1.9201 3.5 -0.33 3 -0.6901 2.91 1.3999 1.4 2.98 -2.19 7.1501 -2.44001 7.6401 1.4Zm-2 2.64c1.13 -1.82 0.8399 -4.20002 -1.3201 -4.15002 -2 0.05002 -4.2899 1.61002 -5.7999 2.94002 -2.57 2.27 -4.66 6.68 -4.74 7.72 0.58 -0.09 3.5899 -4.76 4.7799 -3.41 0.74 0.84 -2 1.39 -4.93 6 -0.1 0.18 0.0001 0.38 0.2801 0.27 0.28 -0.11 1.16 -0.77 2 -1.23 4.43 -2.47 7.01 -3.8 9.7 -8.14h0.03Zm-8.62 -4.70001c0.1201 -0.71708 0.0997 -1.45069 -0.06 -2.16 -0.29 -2.24 -8.28 0.20002 -8.66 9.36001 0.4 3.17 0.2799 3.23 1.2699 5.21 0.07 0.15 0.1601 0.22 0.3201 0.15s0.13 -0.21 0.06 -0.34c-0.92 -1.71 0 -8.07 1.45 -6.47 0.34 0.38 -0.11 0.9 -0.29 2.14 -0.69 4.86 0.92 4.75 1.1 3.86 0.5182 -1.934 1.306 -3.7855 2.34 -5.5 0.91 -1.55 1.89 -2.36 2 -3.16 0.43 -2.33 0.3099 -2.53001 0.4399 -3.09001h0.0301ZM62.3273 26.97c0.45 -0.88 -0.49 -2.77 -2.19 -2.78 -0.4571 0.0287 -0.9001 0.1695 -1.2899 0.41 -2.31 1.72 1.6099 5.99 3.4799 2.37Z" stroke-width="1"></path>
      <path id="Vector_13" fill="#1c1c1e" d="M40.3869 65.83c-0.84 7.91 -3.15 12.73 -9.8899 17 -0.74 0.54 -7.0001 2.93 -7.8001 3.39 -2.3313 1.1088 -4.7253 2.0805 -7.17 2.91 0.61 0.52 7.21 1.91 13.85 9.24 3.27 3.61 6.0701 14.72 4.1201 22.33 -0.2901 1.11 -1.0001 1.15 -1.4001 0.68 -0.4 -0.47 0 -1.18 0.26 -2 0.77 -2.47 0.76 -8.75 -1.74 -16 -0.7069 -2.047 -1.9214 -3.8805 -3.53 -5.33 -2.55 -2.32 -2.9 -2.86 -5.12 -4.23 -7.85 -4.85 -8.84 -3.09 -11 -3.89 -0.34 -0.13 -0.58 0.23 -0.9 -0.41 -0.14 -0.29 -0.08001 -0.83 0.37 -0.91 1.55 -0.29 1 1 10.61 -3.09 10.72 -4.53 17.3 -7.21 18.09 -20.49 -0.063 -2.3176 -0.7542 -4.5746 -2 -6.53 -3 -5.33 -5.94 -11.91 -9 -14.63 -0.77 -0.68 -1.82 -1.26 -1.24 -2 0.13 -0.18 0.77 -0.21 1.57 0.2 9.51 5 12.56 7.13 21.41 7.57 4.29 0.21 9.67 -1.9 11.09 -2.25 6.84 -1.68 8.28 -6.42 8.87 -6.54 1.2 -0.24 0 3.81 7 4.9 0.4842 0.1201 0.9812 0.1805 1.48 0.18 0.5057 0.0449 1.0143 0.0449 1.52 0 3.54 -0.81 7.48 -0.35 17.07 -11.85 0.0324 -0.0336 0.0505 -0.0784 0.0505 -0.125s-0.0181 -0.0915 -0.0505 -0.125c-3.1567 -2.0348 -6.548 -3.6801 -10.1 -4.9 -2.1107 -0.6806 -4.2574 -1.2448 -6.43 -1.69 -0.1492 -0.0904 -0.2767 -0.2125 -0.3735 -0.3577 -0.0968 -0.1451 -0.1604 -0.3098 -0.1865 -0.4823 0.26 -1.43 7.34 1.29 8.71 1.78 2.86 0.84 8.61 4.19 9 4.45 0.75 0.48 9.2801 -13 14.0001 -25.47 0.042 -0.13666 0.127 -0.25617 0.242 -0.34106 0.116 -0.08489 0.255 -0.13071 0.398 -0.13071 0.143 0 0.282 0.04582 0.397 0.13071 0.116 0.08489 0.201 0.2044 0.243 0.34106 0.27 1.95 -2.63 6.63 1.49 16.3 3.78 8.88 8.35 11.9 14.41 13.64 20.1 5.79 30.79 -9.14 33.3 -7.85 2.51 1.29 -8.6 9.12 -4.79 22.72 1.45 5.09 3.27 8.12 14 12 3.482 1.2117 7.023 2.2463 10.61 3.1 3.74 1.13 5.8 0.91 5.25 1.84 -0.168 0.3567 -0.418 0.6685 -0.73 0.91 -7 5 -9.3 15.11 -7.38 19.66 2.83 6.73 11.59 4.45 11.63 6.48 0 0.22 0.13 0.58 -0.6 0.7 -5.11 0.85 -2.11 0.16 -8.41 3.27 -5.23 2.57 -9.36 7.51 -11.7 13 -0.38 0.91 -1.42 4.61 -1.66 5.47 -0.24 0.86 -0.12 1.29 -0.43 1.72 -0.068 0.109 -0.168 0.194 -0.287 0.242 -0.12 0.048 -0.251 0.056 -0.375 0.023 -0.125 -0.032 -0.235 -0.104 -0.316 -0.204 -0.08 -0.1 -0.127 -0.223 -0.132 -0.351 0.397 -2.393 1.041 -4.739 1.92 -7 1.78 -4.62 3.58 -6.83 6.76 -10.09 4.07 -4.19 12 -6.65 10.62 -6.75 -3.72 -0.3 -7.91 -3 -8.78 -7.41 -0.408 -2.231 -0.326 -4.5238 0.24 -6.72 2.17 -9.73 7.46 -12.44 6.8 -12.63 -21.74 -6.05 -24.73 -8.48 -27.38 -14.09 -1.644 -3.7156 -2.179 -7.8274 -1.54 -11.84 1.35 -9.42 7.29 -12.83 2.63 -10 -7.4 4.43 -8.22 4.59 -11.63 5.61 -7.77 2.34 -19.61 0.87 -26 -4.17 -3.64 -2.88 -8.06 -10 -9.32 -17.53 -0.53 -3.15 0.16 -4.89 -0.53 -3.42 -2.592 5.5256 -5.552 10.871 -8.86 16 -3.0601 4.92 -3.0801 3.52 -1.46 4.89 4.67 4 7.81 6.93 11 12.71 3.19 5.78 3.15 7.27 3.43 11.35 0.25 3.67 -1.76 9.52 -2.31 10.05 -0.736 1.581 -1.649 3.0738 -2.72 4.45 -0.73 0.64 3.79 2.08 5.72 4.53 3.079 4.2176 4.589 9.3778 4.27 14.59 -0.06 0.64 -0.1 0.11 4.78 0.22 23.55 0.53 19 -1.77 24.48 5.9 1.322 1.858 2.541 3.787 3.65 5.78 3.28 5.91 3.85 5.57 4.52 6.9 3.32 6.59 2.76 3.6 2.86 8.3 0.137 2.618 0.137 5.242 0 7.86 -0.09 1.06 0.52 7.1 0 17.32 -0.36 6.54 -0.09 17.39 -0.08 17.41 0.05 0.28 0 0.29 0.33 0.29l10.6 -0.1c0.41 0 0.93 -0.14 1 -0.13 0.32 0.05 9.35 0.21 10 0.1 0.65 -0.11 1.32 0.41 1.09 0.89 -0.48 1 -0.77 0.79 -4.42 0.78 -7.81 0 -6.35 -0.33 -7.69 0 -0.777 0.09 -1.563 0.09 -2.34 0l-8.44 0c-0.3 0.09 0.09 1.79 0 9.49 -0.1 6.29 1.51 12.64 -4.13 12.32 -0.435 -0.09 -0.885 -0.069 -1.31 0.06 -1.38 -0.14 0 0.22 -10.89 0 -5.76 -0.1 -5.78 -0.13 -7.41 0.11 0 0 -3.53 -0.21 -7.94 -0.11 -1.38 0 -12.26 0.42 -17.25 0 -1.34 -0.12 -1.06 0.12 -4.1 0.13H92.3169c-1.32 -0.06 -1 -0.5 -2.21 1.29 -1.33 2 -4.66 4.38 -6.72 5.48 -3.44 1.83 -4.74 1.51 -6 1.94 -1.6453 0.333 -3.3216 0.487 -5 0.46 -3.777 0.001 -7.462 -1.165 -10.55 -3.34 -0.9257 -0.56 -1.7788 -1.231 -2.54 -2 -5.54 -4.88 -1.71 -3.9 -6.26 -4 -1.1535 -0.151 -2.3192 -0.188 -3.48 -0.11 -0.8745 -0.033 -1.7429 -0.16 -2.59 -0.38 -0.6626 -0.058 -1.3028 -0.268 -1.8702 -0.615 -0.5674 -0.348 -1.0466 -0.821 -1.3998 -1.385 -0.1683 -0.656 -0.2787 -1.325 -0.33 -2 0.33 -6.26 -0.3 -7.89 -0.25 -11.18 0.09 -5.21 0.52 -6.62 -0.07 -6.56 -5.56 0.56 -8.28 -0.46 -14.48 -0.25 -0.9547 -0.057 -1.9127 0.01 -2.85 0.2 -1.1874 0.111 -2.3826 0.111 -3.57 0 -3.09 -0.24 -1.52 -1.7 1 -1.56 2.93 0.16 2.79 -0.35 4.52 -0.2 0.86 0.07 0.8 -0.22 3.46 -0.15l9.18 0.55c0.8225 -0.012 1.6437 -0.069 2.46 -0.17 0.34 0 0.43 -0.29 0.42 -1.34 -0.06 -3.42 0 -5.55 0 -7.79 -0.06 -11.33 0.15 -9.82 0.07 -10.64 -0.3722 -3.875 -0.4657 -7.772 -0.28 -11.66 -0.1228 -1.267 -0.1228 -2.543 0 -3.81 0.57 -4.69 -0.74 -5.69 0.08 -9.21 0.15 -0.61 -0.27 -0.52 0.28 -1.85 0.7 -1.67 2 -2 2.87 -3.78 0.24 -0.49 -0.25 0.41 2.38 -3.3 2.2 -3.1 1 -1.11 2.82 -3.47 0.35 -0.46 4.72 -6.38 7.29 -9.64 1.49 -1.91 2.85 -2.51 5.52 -2.25 1.72 0.18 1.34 0 2.16 0.09 1.0283 0.0718 2.0597 0.0918 3.09 0.06 2.4411 -0.1491 4.889 -0.1491 7.33 0 0.66 0.15 9.52 -0.33 11.39 -0.12 1.15 0.12 4.1 0 7.62 -0.12 2.2 -0.05 4.6401 0.3 6.1101 0.16 3 -0.3 5.63 0 7.57 -0.08 2.64 -0.05 7.1 -0.49 8.42 -0.35 0.054 0.0087 0.11 -0.0042 0.155 -0.036 0.045 -0.0317 0.075 -0.0799 0.085 -0.134 0.173 -1.9699 0.031 -3.9547 -0.42 -5.88 -1.54 -7.41 -4.56 -9 -7.93 -11.22 -1.87 -1.21 -0.69 -0.72 -4.25 2.47 -3.56 3.19 -5.5901 3.65 -6.7201 4.1 -3.9 1.53 -10.13 1.37 -10.48 -2.48 -0.1072 -1.1391 0.0665 -2.2872 0.5058 -3.3436 0.4393 -1.0565 1.1309 -1.9892 2.0142 -2.7164 1.41 -1.16 4.25 -1.63 5.19 -2.06 0.595 -0.2104 1.2073 -0.3677 1.83 -0.47 2.1801 -0.6 5.1401 0.24 6.5401 0.51 3.09 0.58 3.43 1.81 3.94 1 6.16 -9.66 7.35 -17 -0.63 -27.73 -0.77 -1 -0.23 -0.25 -3.1 -3.73 -1.282 -1.5334 -2.705 -2.9429 -4.25 -4.21 -2.4301 -2 -2.1301 -2 -2.4801 -1.59 -4.5 5.46 -10.16 11.29 -17.06 12.15 -3.9 0.49 -8 -0.31 -10.69 -3.19 -0.51 -0.55 -0.44 -0.73 -0.64 -0.49 -1.2676 1.7673 -2.9976 3.1512 -5 4 -2.4955 1.0131 -5.0583 1.8518 -7.67 2.51 -1.8513 0.4067 -3.7357 0.6443 -5.63 0.71 -2.55 0.36 -8.64 -0.93 -8.66 -0.94 -7.09 -2.15 -9.9 -4.55 -11.55 -5.12 0.5498 1.044 1.1748 2.0466 1.87 3 1.5 2.44 0.73 1.35 3.08 5.61 2.88 5.14 4.89 7.95 4.43 12.31Zm118.0701 79.76c-0.23 -1.4 0.49 -1.39 0.3 -13.56 -0.22 -14.4 0.08 -15 -0.94 -14.66 -0.39 0.12 -12.05 0.25 -16 0.18 -3.95 -0.07 -7.93 0 -11.91 0.08 -3.2 0 -3.51 -0.24 -4.91 2.44 -0.5 1 -3.85 6.89 -4.32 7.78 -5.68 10.61 -4.59 8.57 -6 9.41 -0.89 0.38 -23.0701 0 -23.1001 0 -1.12 -0.34 -3.44 0.4 -4.58 -0.3 -1.72 -1.07 -1.33 -0.49 -6.75 -11.42 -3 -6 -3.25 -7.77 -4.56 -7.87 -7.23 -0.58 -28.13 0.07 -30.44 0.24 -0.5 0 -0.39 -0.07 -0.5 0.5 -0.2209 0.584 -0.2695 1.219 -0.14 1.83 0.34 1.59 -0.06 1.37 0.2 2.7 0.1497 1.205 0.1497 2.425 0 3.63 -0.1601 1.248 -0.1601 2.512 0 3.76 0 2.2 -0.39 6.51 0.06 9.9 0.2059 1.077 0.2059 2.183 0 3.26 0.0775 0.664 0.1209 1.332 0.13 2 -0.1 8.57 0.32 3.59 0 13.47 0 1.26 0.37 4.44 0.32 5.43 -0.5 10.38 -0.12 4.83 0.12 13.18 0 1.07 -0.6 3.63 0.37 4.88 0.38 0.5 0.44 1.07 1.26 1 1.72 -0.07 -0.11 0.52 5.17 0.29 0.5791 0.086 1.1655 0.113 1.75 0.08 0.6 -0.05 0.61 0 0.29 -0.56 -1.8274 -3.551 -2.5847 -7.557 -2.18 -11.53 0.2564 -2.338 0.8738 -4.621 1.83 -6.77 1.2825 -2.944 3.1621 -5.59 5.52 -7.77 3.06 -2.46 2.76 -2.47 6.67 -3.95 1.9051 -0.579 3.8459 -1.033 5.81 -1.36 2.45 -0.26 2.18 0.24 2.82 0.1 1.0467 -0.034 2.0942 0.026 3.13 0.18 0.45 0.34 0 -0.31 3.38 1.05 2.9169 0.989 5.5563 2.658 7.7 4.87 1.1802 0.976 2.147 2.184 2.84 3.55 3.45 5.92 3 8.29 3.19 9.91 0.4652 4.277 -0.4009 8.593 -2.48 12.36 -0.31 0.52 59.1101 0.18 59.8501 0.1 1.73 -0.18 4.41 0.63 5.93 -1 0.74 -0.78 0.27 -8.35 0.43 -11.91 0.053 -1.918 -0.003 -3.838 -0.17 -5.75 -0.2 -6.84 -0.05 -19.51 -0.09 -19.75Zm-0.87 -29.61c0.92 -0.05 0.25 -0.29 -1.67 -4 -0.399 -0.628 -0.847 -1.223 -1.34 -1.78 -4 -5.37 -2.45 -5.19 -7.25 -11.54 -1.49 -2 -0.31 -1.11 -3.28 -4.32 -0.2 -0.21 -2.48 -0.23 -7.87 -0.41 -1.254 0.147 -2.518 0.2038 -3.78 0.17 -7.11 -0.12 -7 0.16 -7.43 0.14 -6 -0.34 -5.52 -0.33 -5.58 0.56 -0.13 1.82 -1 4.75 -1.48 8.61 -0.1 0.81 -0.2 1.24 -0.92 1.18 -0.54 -0.05 -0.56 -0.5 -0.48 -1 1.13 -7.67 0.52 -1.74 1.63 -9.19 0.06 -0.39 -0.24 -0.18 -0.58 -0.2 -1 0 -2.18 0.12 -3.13 0 -1.77 -0.17 -2.18 0.24 -4.51 0.22 -1.37 -0.1317 -2.75 -0.1317 -4.12 0l-5.42 0.28c-0.8901 0.07 0.57 -0.14 -4.7001 0 -3.86 0.08 -2.76 -0.43 -5.7 -0.18 -1.9 0.16 -6.42 -0.26 -10.42 0.16 -0.6984 -0.065 -1.4015 -0.065 -2.1 0 -2.3 -0.48 -11.28 0 -13.1 -0.3 -0.9129 -0.1494 -1.8493 -0.0492 -2.71 0.29 -1.3 0.48 -1.74 1.35 -3.93 4.39 -1.94 2.7 -1.52 1.67 -3.6 4.72 -4.73 6.94 -0.3 0 -7.2 9.6 -0.64 0.88 0.35 -0.07 -1.63 2.18 -0.81 0.93 -0.52 0.57 2.25 0.64 3 0.07 9.51 -0.33 12.36 -0.28 0.8 0 0.27 0.61 0.16 -7.8 -0.1 -8.61 0.23 -7.75 0.06 -8.91 -0.11 -0.82 0.88 -1.35 1.2 -0.25 0.13 1.5 0.33 15.17 0.45 16.66 0 0.42 0.14 0.26 1.76 0.3 4.81 0.11 13 0 13.44 0.42 2 1.69 -0.61 -1.27 9.73 18.48 0.67 1.27 3.21 0.8 4.59 0.85 0.34 0 4.41 0.12 4.71 0.06 1.56 -0.33 2.5 0.24 12.7701 0.24 1.32 0 2 0.21 2.81 0.12 1.35 -0.16 2 0.08 2.48 -0.21 0.67 -0.4 1 -0.42 1.23 -0.89 1.94 -3.27 3.22 -6.15 3.37 -6.39 3.07 -4.77 4.63 -9.05 6.19 -11.08 0.79 -1 1.41 -1 2.53 -1.06 7 -0.43 16 0.22 15.83 -0.42 0 0 -0.1 -11.78 -0.06 -13.34 0.13 -4.23 -0.22 -6 0.58 -5.9 0.8 0.1 0.82 0.33 0.84 0.63 0.1 1.54 0 15.09 0 15.12 0 3.92 0 3.72 0.76 3.72 6.47 -0.04 7.09 -0.05 12.26 -0.3v0.01Zm-51.59 -40.5c1.6 -1.77 1.3 -1.7 1 -1.88 -2.326 -1.0104 -4.825 -1.5638 -7.3601 -1.63 -1.19 -0.05 -4.85 1.13 -5.91 1.51 -1.1816 0.309 -2.2184 1.0203 -2.9321 2.0114 -0.7137 0.9911 -1.0595 2.2 -0.9779 3.4186 0.08 3.32 5 2.68 8.26 1.84 3.0801 -0.984 5.8231 -2.8093 7.9201 -5.27Zm-12.3601 99.16c-0.06 -0.63 0.13 -4.63 -0.63 -6.54 -0.67 -1.68 -0.91 -2.81 -1.27 -3.42 -1.35 -2.31 -3.13 -5.85 -6.76 -7.87 -0.9927 -0.749 -2.0959 -1.34 -3.27 -1.75 -2.5469 -1.158 -5.3233 -1.722 -8.12 -1.65 -2.84 -0.08 -1.92 0.17 -3.91 0.43 -3.59 0.47 -3.39 1.12 -4.41 1.45 -1.91 0.62 -5 3.15 -5.61 3.64 -0.5977 0.593 -1.1368 1.243 -1.61 1.94 -2.6356 3.16 -4.2285 7.058 -4.56 11.16 -0.67 6 2.06 11.08 6 15.6 1.4589 1.585 3.1767 2.911 5.08 3.92 2.29 1.34 8.5 2.44 12.94 1.54 11.96 -2.4 16.49 -14.36 16.13 -18.45Z" stroke-width="1"></path>
      <path id="Vector_14" fill="#1c1c1e" d="M73.477 164.56c-0.4701 -0.447 -1.0826 -0.714 -1.73 -0.754 -0.6473 -0.04 -1.2882 0.149 -1.81 0.534 -0.92 0.81 -0.85 1.47 -0.62 3.69l0.06 0.61c0.18 1.82 1.33 7.26 1.59 8.48l0 0.14c0.0488 0.236 0.1191 0.467 0.21 0.69 0.0943 0.236 0.1646 0.48 0.21 0.73 0.2925 1.261 0.8072 2.46 1.52 3.54 0.1335 0.186 0.3089 0.339 0.5122 0.445 0.2032 0.106 0.4286 0.162 0.6578 0.165 0.4423 0.043 0.8884 -0.023 1.3 -0.19 0.5226 -0.15 0.9707 -0.489 1.2572 -0.951 0.2865 -0.462 0.3909 -1.014 0.2928 -1.549 -0.36 -5.09 -1.86 -13.37 -3.45 -15.58Zm1.5 17.08c-0.42 0.18 -0.93 0.16 -1 0 -0.6921 -1.027 -1.2154 -2.158 -1.55 -3.35 -0.056 -0.325 -0.1465 -0.644 -0.27 -0.95 -0.0731 -0.185 -0.1299 -0.375 -0.17 -0.57 -0.17 -0.7 -1.42 -6.4 -1.61 -8.25l-0.06 -0.62c-0.23 -2.18 0 -2.33 0.48 -2.74 0.2939 -0.21 0.6488 -0.319 1.0102 -0.308 0.3613 0.011 0.7091 0.14 0.9898 0.368 1.29 1.79 2.66 8.92 3.15 14.28l0 1.1c-0.0194 0.197 -0.0882 0.386 -0.2 0.55 -0.2106 0.226 -0.4757 0.395 -0.77 0.49Z" stroke-width="1"></path>
      <path id="Vector_15" fill="#1c1c1e" d="m80.4369 172.33 -0.06 -0.35c-0.4161 -2.888 -1.22 -5.707 -2.39 -8.38 -0.2547 -0.68 -0.6678 -1.29 -1.2052 -1.779 -0.5374 -0.488 -1.1835 -0.842 -1.8848 -1.031 -0.6257 -0.201 -1.2865 -0.269 -1.94 -0.2 -0.7432 -0.054 -1.4902 0.017 -2.21 0.21 -1.5401 0.358 -2.9967 1.01 -4.29 1.92 -0.8774 0.89 -1.4091 2.063 -1.5 3.31 -0.1187 1.244 -0.0717 2.498 0.14 3.73 0.06 0.37 0.14 0.79 0.21 1.23 1 5.46 2.5 14.61 7.24 15h0.28c3.66 -0.31 5.94 -1.22 7.2 -2.87 1.84 -2.45 1.28 -6.07 0.41 -10.79Zm-1.22 10.11c-1.06 1.39 -3.1 2.17 -6.41 2.45h-0.13c-3.91 -0.29 -5.51 -9.2 -6.35 -14 -0.08 -0.46 -0.16 -0.87 -0.23 -1.25 -0.1548 -1.168 -0.1548 -2.352 0 -3.52 0.0532 -0.772 0.316 -1.516 0.76 -2.15 0.1292 -0.169 0.2695 -0.33 0.42 -0.48 1.1417 -0.762 2.4123 -1.311 3.75 -1.62 0.6208 -0.174 1.2666 -0.241 1.91 -0.2 1.09 0.08 1.13 -0.18 2.36 0.4 0.8141 0.426 1.4412 1.138 1.76 2 1.1409 2.551 1.9411 5.24 2.38 8l0.06 0.35c0.72 4.39 1.26 7.97 -0.28 10.02Z" stroke-width="1"></path>
    </g>
  </g>
</svg>