<svg xmlns="http://www.w3.org/2000/svg" fill="none" viewBox="0 0 200 200" id="Empty-Contact-No-Contacts-Added--Streamline-Bruxelles">
  <desc>
    Empty Contact No Contacts Added Streamline Illustration: https://streamlinehq.com
  </desc>
  <g id="Empty-Contact-No-Contacts-Added--Social-Media-Empty-Contact-No">
    <g id="Colour">
      <path id="Vector" fill="#ffffff" d="M42.6201 22.24c0.0106 -0.2652 0.1262 -0.5154 0.3212 -0.6954 0.195 -0.1801 0.4536 -0.2752 0.7188 -0.2646 0.2652 0.0106 0.5154 0.1261 0.6954 0.3212 0.18 0.195 0.2752 0.4536 0.2646 0.7188 -0.047 0.2334 -0.1712 0.4442 -0.3526 0.5984 -0.1814 0.1542 -0.4095 0.2428 -0.6474 0.2516 -0.242 -0.0336 -0.4678 -0.1409 -0.6467 -0.3073 -0.1789 -0.1664 -0.3022 -0.3838 -0.3533 -0.6227Z" stroke-width="1"></path>
      <path id="Vector_2" fill="#2dd4bf" d="M60.11 94.69c0.42 1.2 1 2.13 -0.36 2.57 -7.61 2.4 -6.59 1.16 -11.21 4.54 -0.72 0.53 0.05 1.74 1 1 1.36 -1 1.59 -1.09 1.82 -0.83 0.2983 0.607 0.5072 1.253 0.62 1.92 -0.5898 0.331 -1.2666 0.474 -1.94 0.41 -3.69 0.32 -5.48 -4.76 -2.3 -6.66 3.271 -1.8392 6.7859 -3.2061 10.44 -4.06 0.1996 -0.0602 0.4095 -0.079 0.6166 -0.0551 0.2071 0.0238 0.4072 0.0897 0.5879 0.1936 0.1808 0.104 0.3384 0.2438 0.4631 0.4108 0.1248 0.1671 0.2141 0.3579 0.2624 0.5607Z" stroke-width="1"></path>
      <path id="Vector_3" fill="#2dd4bf" d="M76.5201 141.11c0 0.69 -1.39 0.88 -4 1.72 -4.34 1.4 -3.63 0.4 -8 3.58 -0.0773 0.055 -0.1423 0.125 -0.1908 0.207 -0.0485 0.081 -0.0793 0.172 -0.0906 0.266 -0.0114 0.095 -0.0028 0.19 0.025 0.281 0.0278 0.09 0.0743 0.174 0.1364 0.246 0.1499 0.141 0.3453 0.223 0.5507 0.233 0.2055 0.009 0.4075 -0.056 0.5693 -0.183 0.71 -0.66 0.81 -0.57 1 0.06 0.53 1.53 0.58 1.42 -0.18 1.4 -3.8 0.69 -5.91 -4.7 -2.64 -6.63 3.2786 -1.833 6.7954 -3.203 10.45 -4.07 1.68 -0.45 2.24 1.2 2.37 2.89Z" stroke-width="1"></path>
      <path id="Vector_4" fill="#2dd4bf" d="M70.55 124.06c0.34 1 1 2.16 -0.24 2.55 -8.87 2.78 -7 1.53 -11.34 4.62 -0.0767 0.059 -0.1389 0.135 -0.1816 0.221 -0.0428 0.087 -0.0651 0.182 -0.0651 0.279 0 0.097 0.0223 0.192 0.0651 0.279 0.0427 0.087 0.1049 0.162 0.1816 0.221 1.41 1.11 1.71 -2.14 2.57 0.38 0.38 1.12 0.42 1.14 -1 1.14 -3.6 0.4 -5.47 -4.76 -2.37 -6.63 3.3058 -1.82 6.8406 -3.189 10.51 -4.07 0.3818 -0.104 0.789 -0.057 1.1372 0.131 0.3482 0.188 0.6106 0.503 0.7328 0.879Z" stroke-width="1"></path>
      <path id="Vector_5" fill="#2dd4bf" d="M65.3501 109.28c0.25 0.82 1.05 2 -0.24 2.46 -8 2.55 -7.16 1.54 -11.35 4.6 -0.0759 0.056 -0.1392 0.128 -0.1858 0.21 -0.0466 0.083 -0.0756 0.174 -0.085 0.268 -0.0094 0.094 0.001 0.189 0.0304 0.279 0.0294 0.09 0.0772 0.173 0.1404 0.243 0.45 0.63 1.57 -0.29 2.39 -0.83 1 2.64 1.05 2.34 -0.66 2.34 -3.82 0.43 -5.58 -4.94 -2.41 -6.62 0.54 -0.28 1.13 -0.47 1.68 -0.76 0.456 -0.317 0.9301 -0.608 1.42 -0.87 1.7442 -0.78 3.5547 -1.403 5.41 -1.86 0.6231 -0.137 1.2324 -0.331 1.82 -0.58 0.2073 -0.07 0.4268 -0.096 0.6447 -0.077 0.218 0.019 0.4295 0.084 0.6213 0.189 0.1918 0.105 0.3596 0.249 0.4928 0.423 0.1333 0.173 0.229 0.373 0.2812 0.585Z" stroke-width="1"></path>
      <path id="Vector_6" fill="#2dd4bf" d="M161.7 130.02c-0.21 0.35 0.39 0.08 -3.22 1.81 -0.21 0.1 -0.34 -0.26 -3.91 -10.6 -2.67 -7.72 -2.88 -7.51 -2.13 -7.81 2.3 -0.9 2.67 -1.38 3 -0.67 0.56 1.09 5.16 13.26 6.26 17.27Z" stroke-width="1"></path>
      <path id="Vector_7" fill="#ffffff" d="M146.76 101.84c-3.24 -10.74 0 0 -8.22 -23.45 -2.49 -7.13 -2.61 -6.64 -1.13 -7.53 1.48 -0.89 3.05 -1.68 4.6 -2.45 0.447 -0.2269 0.805 -0.598 1.016 -1.0535 0.21 -0.4555 0.261 -0.9686 0.144 -1.4565 -0.86 -2.85 -3 -8.15 -4.13 -11.06 -3.75 -9.51 -2.73 -9.29 -9.18 -6.68 -0.224 0.1103 -0.467 0.1743 -0.716 0.1881 -0.249 0.0138 -0.499 -0.023 -0.733 -0.108 -0.235 -0.085 -0.449 -0.2165 -0.632 -0.3866 -0.182 -0.1702 -0.328 -0.3755 -0.429 -0.6035 -3.87 -7.88 -3.23 -10 -12 -7.64 -1 0.27 -4.15 1.1 -5.16 1.48 -12.8001 4.71 -9.06 2.89 -10.9001 3.53l-26 9.09c-31.09 10.72 -30.35 9.82 -25.69 24.31 2.46 7.62 1.67 4.51 3.51 9.51 1.75 4.69 1.83 6 2.28 5.88 0.78 -0.24 1.63 -0.51 1.68 -0.81 0.1243 -0.701 0.442 -1.3534 0.9173 -1.8835s1.0893 -0.9168 1.7727 -1.1165c3 -1.17 5 -0.13 6.34 2.44 1.16 2.23 1.46 5.6 -0.45 7.29 -1.38 1.22 -4.85 2.41 -6 0.63 -0.58 -0.87 -1.14 -0.24 -1.72 -0.14 -0.58 0.1 -0.32 0.43 0.25 2.26 1.94 6.2 1.7 6.14 2.28 5.91 1.34 -0.54 1.81 -0.63 1.86 -0.91 0.1141 -0.7 0.4245 -1.354 0.8954 -1.885 0.4709 -0.531 1.0828 -0.918 1.7646 -1.115 6.48 -2.54 9.14 6.94 5.87 9.76 -0.9685 0.783 -2.1351 1.281 -3.37 1.44 -0.5374 0.164 -1.1149 0.138 -1.6356 -0.073 -0.5207 -0.211 -0.953 -0.595 -1.2244 -1.087 -0.22 -0.37 -1 0.1 -1.91 0.32 -0.91 0.22 -0.67 0.1 2.15 8.26 0.15 0.44 0.2 0.38 2.45 -0.52 0.52 -0.2 0 -2.06 2.85 -3.2 4.57 -1.81 7.32 2.08 7.29 6.24 0 3 -1.7 4.38 -4.79 4.93 -3.09 0.55 -1.79 -1.93 -4.07 -1 -1.11 0.43 -1.45 0.36 -1.26 0.9 3.08 8.6 2.76 8.44 3.32 8.22 2 -0.79 2.4 -0.79 2.45 -1.1 0.1203 -0.706 0.439 -1.363 0.9189 -1.894 0.4799 -0.531 1.1012 -0.915 1.7911 -1.106 6.64 -2.55 9 7.1 5.83 9.8 -1.47 1.25 -5 2.47 -6.23 0.21 -0.17 -0.31 -1 0.1 -2.55 0.64 -0.65 0.22 -0.8 -1.07 7.3 22.3 0.33 1 0.82 1.86 1.12 2.82 0.3983 1.111 1.0446 2.116 1.89 2.94 2.5 2.66 5.49 1.36 7.36 0.77 7.84 -2.45 4.32 -1.58 7.13 -2.58 15.0001 -5.36 33.8201 -11.7 34.6401 -12 40.52 -14.21 32.44 -4.08 16.46 -57.23ZM80.9199 56.31c1.0334 -1.1242 2.2825 -2.0289 3.6729 -2.6603 1.3904 -0.6314 2.8936 -0.9765 4.4202 -1.0147 1.5265 -0.0383 3.0451 0.2311 4.4654 0.792 1.4202 0.5609 2.7131 1.402 3.8015 2.473 7.0501 6.87 2.72 19.63 -8.12 19.63 -9.41 0 -14.98 -11.43 -8.24 -19.22Z" stroke-width="1"></path>
      <path id="Vector_8" fill="#2dd4bf" d="M155.19 109.78c0.34 1 -0.46 1.07 -3.29 2.3 -0.28 0.12 -0.44 0.07 -0.55 -0.25 -5.25 -15.68 -1.76 -7.09 -5.83 -18.11 -0.39 -1 -0.52 -0.84 2.61 -2.06 1.31 1.17 0.52 -0.57 7.06 18.12Z" stroke-width="1"></path>
      <path id="Vector_9" fill="#2dd4bf" d="M148.07 89.26c-0.19 0.4 0.4 0.15 -3.17 2.07 -0.48 0.25 -5.19 -14.47 -6.94 -18.9 -0.22 -0.57 -0.19 -0.3 3.35 -1.86 0.23 -0.1 0.38 -0.19 0.5 0.15 0 0.03 5.31 14.68 6.26 18.54Z" stroke-width="1"></path>
      <path id="Vector_10" fill="#2dd4bf" d="M78 136.12c1.15 1.21 1.27 2.75 1.56 4 0.0087 0.566 -0.1089 1.127 -0.3443 1.642 -0.2354 0.516 -0.5828 0.972 -1.0167 1.336 -0.4339 0.364 -0.9435 0.626 -1.4917 0.769 -0.5482 0.142 -1.1212 0.16 -1.6773 0.053 -0.7 -0.35 -0.48 -0.23 1.84 -1.12 0.3414 -0.156 0.6322 -0.404 0.8391 -0.717 0.2068 -0.313 0.3215 -0.678 0.3309 -1.053 -0.1002 -0.801 -0.2606 -1.593 -0.48 -2.37 -0.1524 -0.395 -0.383 -0.755 -0.6781 -1.058 -0.295 -0.304 -0.6484 -0.545 -1.0388 -0.708 -0.3905 -0.164 -0.8099 -0.246 -1.2332 -0.244 -0.4233 0.003 -0.8416 0.091 -1.2299 0.26 -0.2918 0.07 -0.59 0.11 -0.89 0.12 0.0764 -0.314 0.2085 -0.612 0.39 -0.88 0.6837 -0.666 1.5992 -1.042 2.5539 -1.048 0.9548 -0.005 1.8746 0.36 2.5661 1.018Z" stroke-width="1"></path>
      <path id="Vector_11" fill="#2dd4bf" d="M70.7801 119.92c3 0.63 4.93 7.13 0.84 8.53 -1.11 0.37 -1.57 0.55 -2.49 0 1.88 -1.18 4.34 -0.34 2.81 -5.2 -1.1 -2.83 -4.32 -1.49 -4.58 -1.43 -0.86 0.2 -0.27 -0.86 0.07 -1 0.97 -0.698 2.161 -1.018 3.35 -0.9Z" stroke-width="1"></path>
      <path id="Vector_12" fill="#2dd4bf" d="M68.79 110.01c-0.18 2.19 -0.81 2.91 -2.53 3.62 -0.3608 0.212 -0.7716 0.324 -1.19 0.324s-0.8292 -0.112 -1.19 -0.324c1.41 -0.93 4.63 -0.35 2.81 -5.23 -0.2529 -0.592 -0.6935 -1.083 -1.2538 -1.4 -0.5603 -0.316 -1.2091 -0.439 -1.8462 -0.35 -1 0.15 -1.22 0.48 -1.88 0.32 0 -0.16 0 -0.39 0.07 -0.48 0.2799 -0.327 0.6192 -0.599 1 -0.8 0.7335 -0.361 1.5332 -0.569 2.35 -0.61 2.72 0.13 3.14 2.63 3.66 4.93Z" stroke-width="1"></path>
      <path id="Vector_13" fill="#2dd4bf" d="M63.64 95.85c-0.1696 0.6679 -0.4041 1.3176 -0.7 1.94 -0.39 0.68 -2.69 2.18 -4.28 1.29 1.71 -1 4.36 -0.42 2.92 -5 -0.1524 -0.4011 -0.3847 -0.7671 -0.6827 -1.0758 -0.298 -0.3087 -0.6556 -0.5537 -1.0511 -0.7201 -0.3955 -0.1665 -0.8207 -0.2509 -1.2497 -0.2481 -0.4291 0.0027 -0.8532 0.0925 -1.2465 0.264 -0.2849 0.0683 -0.577 0.1019 -0.87 0.1 0.0761 -0.2985 0.2011 -0.5824 0.37 -0.84 0.6875 -0.6707 1.6084 -1.0486 2.5689 -1.0542 0.9605 -0.0056 1.8857 0.3615 2.5811 1.0242 1.14 1.19 1.27 2.71 1.64 4.32Z" stroke-width="1"></path>
      <path id="Vector_14" fill="#ffffff" d="M48.4099 16.94c-0.06 -11.22001 5.71 -12.00001 5.27 -9.17001 -0.195 2.11184 -0.8798 4.14911 -2 5.95001 -3.43 4.89 -2.89 5.36 -3.27 3.22Z" stroke-width="1"></path>
      <path id="Vector_15" fill="#ffffff" d="M52.94 20.1c0.044 0.3992 0.0073 0.8032 -0.1078 1.188 -0.115 0.3847 -0.3062 0.7425 -0.5622 1.052 -1.77 2.17 -3.7 2.77 -6.24 1 -0.33 -0.22 -0.32 -0.54 -0.49 -2.59 -0.07 -0.9 1.55 -3.24 1.79 -2.54 0.09 0.26 0.12 0.55 0.21 0.81 0.0582 0.1897 0.1675 0.3597 0.3159 0.4913 0.1484 0.1317 0.3302 0.2199 0.5255 0.255 0.1952 0.0351 0.3964 0.0158 0.5814 -0.0559 0.185 -0.0717 0.3466 -0.1929 0.4672 -0.3504 1.1 -1.19 1.14 -1.81 1.86 -1.36 0.4277 0.1857 0.8024 0.4748 1.0905 0.8414 0.288 0.3666 0.4803 0.7992 0.5595 1.2586Z" stroke-width="1"></path>
      <path id="Vector_16" fill="#2dd4bf" d="M156.11 151.65c-2.19 1.23 -19.43 7 -19.46 7 -4.86 1.29 -0.62 -0.06 -12.18 4.08 -7.5 2.68 -9.9 2.94 -20.52 7 -9.4901 3.65 -6.6601 2.18 -8.6601 3.1 -1.568 0.73 -3.1978 1.319 -4.87 1.76 -2.72 0.68 -5.94 2.6 -9.55 -0.2 -3.61 -2.8 -3.72 -6.19 -6.28 -13.5 -1 -3 -0.49 -0.53 -3.58 -9.86 -1.64 -4.94 -1.91 -5.79 -2 -5.73 -0.78 0.42 -1.38 0.68 -1.22 1.17 3 9.73 9.87 27.14 9.88 27.17 0.5239 1.444 1.4734 2.695 2.7233 3.587 1.2498 0.893 2.741 1.386 4.2767 1.413 4.24 -0.32 9.13 -2.85 9.95 -3.14 61.7901 -22.18 59.5401 -18.1 64.2201 -25.56 0.51 -1.06 -0.9 0.69 -2.73 1.71Z" stroke-width="1"></path>
      <path id="Vector_17" fill="#2dd4bf" d="M63.62 130.12c-0.82 0 -1.32 0.53 -1.13 1.07 2.88 8.35 2.61 8.13 3.17 8.25 0.37 -0.35 1.1 -0.17 1.21 -0.86 0 -0.06 -0.07 -0.12 -0.53 -1.43 -2.76 -7.92 -2.16 -6.42 -2.72 -7.03Z" stroke-width="1"></path>
      <path id="Vector_18" fill="#2dd4bf" d="M58.51 115.3c-0.94 0 -1.25 0.23 -1.06 0.86 2.72 8.94 2.22 8.22 3.62 7.62 0.91 -0.38 0.94 0.66 -2 -8 -0.07 -0.37 -0.15 -0.68 -0.56 -0.48Z" stroke-width="1"></path>
      <path id="Vector_19" fill="#2dd4bf" d="M53.1599 100.79c-1 -0.06 -0.95 -0.75 1.68 7.3 0.37 1.13 0.37 1.11 1.47 0.68 0.33 -0.13 0.37 -0.29 0.27 -0.6 -2.86 -9.11 -1.98 -7.64 -3.42 -7.38Z" stroke-width="1"></path>
      <path id="Vector_20" fill="#2dd4bf" d="M48.8501 85.31c-0.42 -1.2 -1 -2.33 -1.45 -3.54 -4.07 -12 -3.29 -14.53 -4.28 -9.32 0.1672 1.8482 0.5739 3.6667 1.21 5.41 2.87 9.28 2.72 7.7 3.57 10 2.71 7.16 2 6.9 3.55 6.26 0.3 -0.12 0.35 -0.24 0.24 -0.54 -0.95 -2.77 -1.86 -5.54 -2.84 -8.27Z" stroke-width="1"></path>
      <path id="Vector_21" fill="#ffffff" d="M46.21 9.76998c0.4643 0.58532 0.8004 1.26162 0.9865 1.98522 0.186 0.7235 0.2179 1.4781 0.0935 2.2148 -0.11 0.68 0 1.39 -0.06 2.08 -0.06 0.69 -0.84 0.82 -1.18 1.19 -0.75 0.82 -1 -0.15 -3.29 -2.43 -1.77 -1.8 -2.1 -4.73 -0.74 -5.89002 0.98 -0.96 3.3 -0.27 4.19 0.85Z" stroke-width="1"></path>
      <path id="Vector_22" fill="#ffffff" d="M99.32 63.53c0.22 -1.51 -0.89 -5.27 -4.24 -7.59 -1.3666 -0.9397 -2.9454 -1.5247 -4.5943 -1.7025 -1.6489 -0.1777 -3.3162 0.0574 -4.8516 0.6843 -1.5354 0.6269 -2.8908 1.6258 -3.9442 2.9068 -1.0533 1.281 -1.7715 2.8038 -2.0899 4.4314 -2.6 13.79 19.1 17.05 19.72 1.27Z" stroke-width="1"></path>
    </g>
    <g id="Ink">
      <path id="Vector_23" fill="#1c1c1e" d="M44.4699 18.53c0.19 0.15 0.56 0.15 0.33 0.55 -0.23 0.4 0 0.88 -0.75 0.8 -0.429 -0.0792 -0.8717 -0.0359 -1.2772 0.1251 -0.4055 0.161 -0.7573 0.433 -1.0152 0.7849 -0.2579 0.3518 -0.4114 0.7693 -0.4428 1.2044 -0.0314 0.4352 0.0605 0.8703 0.2652 1.2556 0.2601 0.5198 0.7145 0.9162 1.2648 1.1034 0.5502 0.1872 1.1521 0.15 1.6752 -0.1034 0.63 -0.29 1.51 1.32 4 1.46 0.79 0 0.17 1.84 3.17 2.41 0.54 0.1 0.71 -0.27 0.83 -0.65 0.24 -0.79 -1.24 -0.56 -2.25 -1.79 0.2777 -0.1209 0.5482 -0.2578 0.81 -0.41 0.71 -0.53 0.17 0.78 2.49 1.08 0.81 0.11 1.31 -1 0.23 -1.35 -2.13 -0.77 -1 -1.16 -0.85 -1.39 0.15 -0.23 1 0.73 2.51 0.33 0.42 -0.11 0.8 -0.72 0.58 -1 -0.42 -0.51 -2.25 -0.3 -2.17 -0.86 0.17 -1.17 0.83 -2.94 -0.57 -4.38 -1 -1 -2 -0.9 -1.61 -1.46 2 -3.13 2.75 -4.41 3.25 -8.61 0.3 -2.74 -4.06 -5 -6.72 1.9 -0.17 0.35 -0.17 0.37 -0.39 0.06 -1.54 -2.74 -5.34 -3.15 -6.72 -1.73 -0.774 0.90087 -1.2217 2.0364 -1.2707 3.2231 -0.049 1.1867 0.3036 2.3553 1.0007 3.3169 1.0576 1.5035 2.2747 2.8882 3.63 4.13Zm0.1 3.8c-0.0453 0.2342 -0.1691 0.446 -0.3508 0.6005 -0.1818 0.1545 -0.4107 0.2425 -0.6492 0.2495 -0.225 -0.0511 -0.4306 -0.166 -0.592 -0.331 -0.1614 -0.1649 -0.2718 -0.3729 -0.318 -0.599 -0.0406 -0.1512 -0.0451 -0.3098 -0.0132 -0.463 0.0318 -0.1533 0.0992 -0.2969 0.1968 -0.4193 0.0975 -0.1225 0.2224 -0.2203 0.3646 -0.2857 0.1422 -0.0653 0.2978 -0.0964 0.4542 -0.0907 0.1564 0.0058 0.3093 0.0481 0.4464 0.1237 0.137 0.0756 0.2544 0.1824 0.3427 0.3116 0.0883 0.1293 0.145 0.2774 0.1656 0.4326 0.0206 0.1552 0.0045 0.313 -0.0471 0.4608v0.01Zm9.11 -14.56c-0.195 2.11185 -0.8798 4.1491 -2 5.95 -3.42 4.89 -2.89 5.36 -3.26 3.22 -0.07 -11.22 5.71 -12.05 5.26 -9.17Zm-5.77 11.81c1 0.72 1.78 -0.4 2.47 -1.37 0.0384 -0.0802 0.0948 -0.1504 0.1647 -0.2053 0.0699 -0.055 0.1515 -0.0931 0.2385 -0.1114 0.087 -0.0184 0.177 -0.0165 0.2632 0.0055 0.0861 0.0219 0.166 0.0634 0.2336 0.1212 0.426 0.184 0.8003 0.47 1.0897 0.8327 0.2895 0.3627 0.4854 0.7911 0.5703 1.2473 0.0481 0.3994 0.0134 0.8043 -0.1019 1.1897 -0.1153 0.3854 -0.3086 0.7429 -0.5681 1.0503 -1.55 2 -2.08 1.84 -3.54 2 -0.982 -0.0447 -1.9258 -0.3942 -2.7 -1 -0.33 -0.22 -0.32 -0.55 -0.49 -2.59 -0.07 -0.91 1.55 -3.24 1.79 -2.54 0.17 0.54 0.13 1.02 0.58 1.37Zm-5.91 -10.66c0.95 -1 3.29 -0.29 4.19 0.85 0.4638 0.5856 0.7995 1.262 0.9855 1.9854 0.1861 0.7235 0.2183 1.4779 0.0945 2.2146 -0.11 0.67 0 1.37 -0.06 2.08s-0.84 0.82 -1.18 1.19c-0.75 0.82 -1 -0.15 -3.29 -2.43 -1.47 -1.53 -2.28 -4.55 -0.74 -5.89Z" stroke-width="1"></path>
      <path id="Vector_24" fill="#1c1c1e" d="M194.76 102.53c-0.84 -0.59 -1.07 0.55 -1.8 0.69 -3 0.62 -6.62 -5.09 -9.65 -2.48 -0.615 0.552 -1.397 0.883 -2.222 0.939 -0.824 0.057 -1.644 -0.165 -2.328 -0.629 -1.67 -1 -4.36 -2.14 -5.63 -0.64 -1.27 1.5 -2.31 0.74 -6.72 -0.09 -0.89 -0.17 -1.08 1.09 -0.26 1.4 0.31 0.11 2.08 0.54 3.54 0.94 4.56 1.26 3.9 -2 6 -1.31s5.2 3.42 8.63 0.56c0.228 -0.223 0.528 -0.355 0.846 -0.374 0.318 -0.018 0.632 0.079 0.884 0.274 3.3 1.89 4.68 2.87 6.37 2.78 2.41 -0.01 2.92 -1.68 2.34 -2.06Z" stroke-width="1"></path>
      <path id="Vector_25" fill="#1c1c1e" d="M186.84 137.64c-1.61 -1.6 -2.49 -1.2 -6.15 -1.71 -1.35 -0.19 -2.45 -3.08 -6.56 -2.64 -2.72 0.28 -3.31 -2.23 -4 -1.27 -0.122 0.108 -0.197 0.259 -0.21 0.421 -0.013 0.162 0.037 0.323 0.14 0.449 0.533 0.72 1.26 1.273 2.096 1.594 0.836 0.32 1.747 0.395 2.624 0.216 3.94 0.23 3.33 2.56 5.66 2.85 3.85 0.48 4.49 0.17 5.76 1.8 0.46 0.58 2.17 1.73 2.58 0.61 0.27 -0.66 -0.29 -0.66 -1.94 -2.32Z" stroke-width="1"></path>
      <path id="Vector_26" fill="#1c1c1e" d="M160.39 76.11c0.91 -0.55 1.92 -2 6.09 -1.79 1.63 0.1 2.77 -1.17 4.58 -2.14 4.37 -2.34 7.91 2.89 12.38 -3.06 2.25 -3 4.77 -1.68 4.62 -2.88 -0.06 -0.45 -0.43 -0.82 -0.82 -0.72 -0.859 0.1803 -1.705 0.4208 -2.53 0.72 -2.3 0.89 -3 3.55 -5.19 4.19 -1.73 0.49 -4.78 -0.67 -6.56 -0.43 -4.05 0.55 -4.72 2.81 -6.51 2.71 -1.313 -0.1383 -2.64 -0.0035 -3.898 0.3957 -1.258 0.3993 -2.419 1.0544 -3.412 1.9243 -0.51 0.38 -0.22 1.99 1.25 1.08Z" stroke-width="1"></path>
      <path id="Vector_27" fill="#1c1c1e" d="M149.62 48.69c4.75 -4.09 -0.77 -3.85 8.15 -11.11 1.68 -1.37 1.61 -2.74 1.74 -4.9 0.19 -3.26 2.56 -2.73 4.61 -4.62 -0.73 -0.72 -0.61 -1.08 -2.49 0 -2.66 1.49 -3.5 2 -3.64 5.27 -0.18 4.11 -2.49 3.34 -5.24 6.94 -2.27 3 -2 2.86 -2.6 5.46 -0.136 0.5078 -0.457 0.9464 -0.9 1.23 -1.53 0.94 -0.31 2.15 0.37 1.73Z" stroke-width="1"></path>
      <path id="Vector_28" fill="#1c1c1e" d="M156.41 111.67c-0.21 -0.5 0.57 -0.61 0.12 -2 -0.61 -1.82 -5.61 -17 -6.81 -18.47 -0.208 -0.1732 -0.353 -0.4101 -0.413 -0.674 -0.059 -0.264 -0.03 -0.5403 0.083 -0.786 0.19 -0.41 -0.14 -1.25 -0.72 -3 -4.61 -14.2 -3.73 -11.64 -3.9 -12.09 -2 -5.18 -2.19 -4.77 -1.57 -5.3 0.477 -0.3284 0.87 -0.7632 1.15 -1.27 0.246 -0.6318 0.353 -1.3096 0.311 -1.9864 -0.041 -0.6769 -0.229 -1.3366 -0.551 -1.9336 -1.77 -5.7706 -3.956 -11.4053 -6.54 -16.86 -1.21 -2.51 -2.76 -2.78 -4.83 -2 -3 1.12 -3.65 1.54 -3.85 1.26 -0.588 -0.8457 -1.044 -1.7765 -1.35 -2.76 -2.54 -5.88 -4.6 -8 -11.23 -6 -2.43 0.75 -2.44 0.85 -2.71 0.36 -3.35 -6 -5 -7.47 -11.93 -10.71 -4.55 -2.12 -9.79 -3.06 -13.89 -2.34 -0.81 0.14 -0.44 -0.11 -1.49 -3.41 -2.71 -8.51 -12.5 -12.17003 -19.58 -11.17 -4.77 0.7 -7.41 3.36 -9.29 5 -0.35 0.31 -0.35 1.17 0 1.36 1.15 0.66 0.78 -1.25 5.76 -3.75 3.56 -1.78 4.57 -1.13 7.08 -1.21 1.518 -0.0009 3.029 0.2077 4.49 0.62 2.1144 0.5986 4.0641 1.6726 5.7 3.14 4.1 3.31 4.91 8 5.31 9.18 0.3 0.89 -1.59 0.61 -3.46 1.79 -2.3819 1.4217 -4.4586 3.3012 -6.11 5.53 -1.62 2.43 -1.74 6.93 1.28 8.1 1.64 0.64 2.08 1.14 4 0.89 2.92 -0.38 3.82 -2.15 4.85 -4.21 0.8233 -1.4432 1.3438 -3.039 1.53 -4.69 0.41 -5.91 -0.67 -5.57 0.1 -5.69 1.6402 -0.3985 3.3492 -0.4224 5 -0.07 1.13 0.36 3 0.46 4.43 0.81 7.67 1.85 11.44 5.51 14.88 11 0.36 0.57 0.36 0.57 -0.29 0.77 -18.14 5.5 -21.64 7.36 -38.45 13 -13.05 4.43 -5.03 1.43 -18.52 6.72 -0.21 0.08 -8 2.61 -9.68 5.22 -4.65 7.4 -5 6.67 0.41 22.06 3.15 9 3.69 8.91 2.64 9.4 -6.71 3.12 -3.49 12.08 3.61 10 0.87 -0.25 0.56 0.2 1.74 3.8 0.31 1 -1.41 1.12 -2.77 2.79 -2.23 2.72 -1 9.19 5.77 8 0.4 -0.07 0.42 0 0.51 0.31 1.57 4.58 1.7 4.26 1.18 4.67 -1.37 1.08 -4.09 2.63 -3.06 6.25 0.91 3.17 3.08 4.07 6.33 3.68 0.79 -0.09 0.54 0 2.28 4.78 0.28 0.75 -1.17 0.92 -2.3 2.49 -0.4325 0.627 -0.7223 1.341 -0.8489 2.092 -0.1266 0.751 -0.0869 1.521 0.1161 2.255 0.2031 0.734 0.5647 1.415 1.0593 1.994 0.4946 0.58 1.1102 1.043 1.8035 1.359 2.22 0.87 3.52 -0.28 3.85 0.76 3.81 11.94 3.43 9.42 8.34 22.3 0.8 2.11 1.68 4.14 3.68 5.45 3 2 4.7 2 7.47 1.35 3.08 -0.75 27.39 -10 29.74 -10.56 4 -0.92 12.09 -4.08 14.87 -5.07 0.74 -0.26 4.16 -1 16.91 -5.61 6 -2.14 8.67 -2.61 11.66 -8 0.686 -1.181 0.904 -2.576 0.61 -3.91 -0.14 -0.65 1.22 -1.55 0 -6.69 -1.47 -6 -2.71 -6.44 -1.68 -6.88 3.37 -1.42 4.35 -1.86 3.77 -3.64 -1.835 -6.062 -4.039 -12.007 -6.6 -17.8ZM82.59 39.22c-2.06 1.11 -3.66 0 -4.51 -0.36 -2.57 -0.95 -1.84 -5.34 0.93 -7.7 4.89 -4.16 5.3 -3.67 6.73 -4.21 0.63 -0.24 0.52 0.17 0.84 3.07 0.12 2.97 -1.92 8.07 -3.99 9.2Zm72.6 70.56c0.34 1 -0.46 1 -3.29 2.3 -0.27 0.12 -0.44 0.07 -0.55 -0.24 -5.27 -15.68 -1.76 -7.1 -5.84 -18.11 -0.38 -1 -0.51 -0.84 2.62 -2.06 1.31 1.16 0.52 -0.58 7.06 18.11Zm-7.14 -20.53c-0.18 0.4 0.41 0.15 -3.17 2.07 -0.52 0.1 -5.18 -14.49 -6.95 -18.89 -0.22 -0.58 -0.2 -0.33 3.35 -1.86 0.23 -0.11 0.37 -0.18 0.5 0.15 0.01 0.02 5.32 14.69 6.27 18.53ZM47.92 87.82c-0.85 -2.26 -0.71 -0.68 -3.57 -10 -0.6316 -1.7452 -1.0415 -3.5627 -1.22 -5.41 1 -5.21 0.21 -2.73 4.29 9.32 0.4 1.21 1 2.34 1.45 3.54 1 2.73 1.89 5.49 2.84 8.24 0.1 0.3 0 0.42 -0.25 0.54 -1.58 0.68 -0.84 0.94 -3.54 -6.23Zm0.62 14c-0.72 0.53 0.06 1.75 1 1 1.35 -1 1.58 -1.1 1.81 -0.83 0.3159 0.609 0.5352 1.264 0.65 1.94 -4.59 2.38 -8.12 -3.93 -4.25 -6.25 3.2839 -1.8192 6.7992 -3.185 10.45 -4.06 0.1956 -0.0591 0.4012 -0.0782 0.6043 -0.056 0.2032 0.0221 0.3998 0.085 0.5781 0.1849 0.1783 0.0999 0.3347 0.2347 0.4597 0.3964 0.125 0.1617 0.2161 0.347 0.2679 0.5447 0.42 1.2 1 2.13 -0.36 2.57 -7.37 2.32 -6.59 1.18 -11.21 4.55v0.01Zm13 -7.74c-0.1524 -0.4011 -0.3847 -0.7671 -0.6827 -1.0758 -0.298 -0.3087 -0.6556 -0.5537 -1.0511 -0.7201 -0.3955 -0.1665 -0.8207 -0.2509 -1.2498 -0.2481 -0.429 0.0027 -0.8531 0.0925 -1.2464 0.264 -0.2849 0.0683 -0.5771 0.1019 -0.87 0.1 0.0779 -0.2979 0.2028 -0.5814 0.37 -0.84 0.6894 -0.6826 1.6187 -1.068 2.5889 -1.0736 0.9701 -0.0056 1.9038 0.369 2.6011 1.0436 1.13 1.2 1.26 2.71 1.63 4.32 -0.1696 0.6679 -0.4041 1.3176 -0.7 1.94 -0.39 0.69 -2.69 2.18 -4.28 1.29 1.72 -1.04 4.35 -0.42 2.93 -5.01l-0.04 0.01Zm-8.41 6.72c1.44 -0.23 0.55 -1.73 3.42 7.37 0.1 0.32 0.07 0.47 -0.26 0.6 -1.11 0.44 -1.12 0.46 -1.47 -0.67 -2.6 -8.06 -2.61 -7.37 -1.65 -7.31l-0.04 0.01Zm0.59 15.55c-0.0759 0.056 -0.1392 0.128 -0.1858 0.21 -0.0466 0.083 -0.0756 0.174 -0.085 0.268 -0.0094 0.094 0.0009 0.189 0.0303 0.279 0.0294 0.09 0.0773 0.173 0.1405 0.243 0.46 0.64 1.57 -0.29 2.39 -0.83 1 2.64 1.05 2.34 -0.66 2.34 -3.82 0.43 -5.58 -4.94 -2.41 -6.62 0.55 -0.28 1.14 -0.47 1.68 -0.76 0.4545 -0.32 0.9288 -0.61 1.42 -0.87 7 -2.61 4.84 -1.5 7.23 -2.44 0.2041 -0.062 0.4188 -0.083 0.631 -0.06 0.2123 0.022 0.4179 0.087 0.6045 0.191 0.1867 0.103 0.3506 0.243 0.4819 0.411 0.1313 0.169 0.2274 0.362 0.2826 0.568 0.25 0.82 1.05 2 -0.24 2.46 -7.98 2.53 -7.09 1.54 -11.27 4.6l-0.04 0.01Zm12.93 -8c-0.2529 -0.592 -0.6935 -1.084 -1.2538 -1.4 -0.5603 -0.316 -1.2091 -0.439 -1.8462 -0.35 -1 0.16 -1.22 0.48 -1.88 0.32 0 -0.16 0 -0.39 0.07 -0.48 0.28 -0.327 0.6192 -0.599 1 -0.8 0.7336 -0.361 1.5333 -0.569 2.35 -0.61 2.68 0.17 3.1 2.67 3.62 5 -0.18 2.19 -0.81 2.91 -2.53 3.62 -0.3601 0.214 -0.7712 0.327 -1.19 0.327 -0.4189 0 -0.8299 -0.113 -1.19 -0.327 1.49 -0.99 4.71 -0.41 2.89 -5.29l-0.04 -0.01Zm-9.24 7.8c-0.19 -0.63 0.12 -0.89 1.06 -0.86 0.41 -0.19 0.45 0.12 0.56 0.45 2.87 8.71 2.91 7.65 2 8 -1.36 0.64 -0.87 1.37 -3.58 -7.58l-0.04 -0.01ZM59 131.21c-0.0805 0.054 -0.1474 0.126 -0.1955 0.21 -0.0481 0.084 -0.0762 0.178 -0.082 0.275 -0.0058 0.097 0.0108 0.194 0.0485 0.283 0.0377 0.089 0.0956 0.169 0.169 0.232 1.42 1.11 1.72 -2.14 2.58 0.38 0.39 1.13 0.42 1.13 -1 1.13 -3.6 0.41 -5.47 -4.74 -2.37 -6.62 3.3077 -1.816 6.8419 -3.185 10.51 -4.07 0.3832 -0.116 0.7967 -0.076 1.1505 0.111 0.3539 0.188 0.6196 0.507 0.7395 0.889 0.36 1 1 2.16 -0.24 2.55 -8.83 2.8 -6.76 1.39 -11.31 4.63Zm13 -7.92c-1.11 -2.85 -4.2 -1.52 -4.58 -1.43 -0.86 0.2 -0.26 -0.87 0.07 -1 0.9687 -0.7 2.1608 -1.02 3.35 -0.9 3 0.62 5 7.1 0.84 8.54 -1.1 0.37 -1.56 0.55 -2.49 0 1.81 -1.19 4.29 -0.35 2.75 -5.21H72Zm-9.45 7.9c-0.19 -0.54 0.31 -1.09 1.13 -1.07 0.55 0.61 0 -0.89 2.72 7 0.46 1.31 0.53 1.37 0.53 1.43 -0.11 0.69 -0.86 0.51 -1.21 0.86 -0.6 -0.09 -0.32 0.2 -3.23 -8.22h0.06Zm2.07 15.22c-0.0761 0.056 -0.14 0.127 -0.1876 0.208 -0.0476 0.082 -0.0779 0.172 -0.0892 0.266 -0.0112 0.094 -0.0031 0.189 0.0238 0.279 0.027 0.091 0.0723 0.175 0.133 0.247 0.1498 0.141 0.3452 0.223 0.5507 0.233 0.2055 0.009 0.4075 -0.056 0.5693 -0.183 0.71 -0.66 0.8 -0.57 1 0.06 0.53 1.53 0.58 1.42 -0.18 1.4 -3.8 0.69 -5.91 -4.7 -2.64 -6.63 3.2785 -1.833 6.7953 -3.203 10.45 -4.07 1.63 -0.45 2.17 1.2 2.31 2.89 0 0.69 -1.39 0.89 -4 1.72 -4.37 1.41 -3.67 0.38 -8 3.58h0.06Zm13 -7.78c-0.1524 -0.395 -0.383 -0.755 -0.6781 -1.058 -0.295 -0.304 -0.6484 -0.545 -1.0388 -0.708 -0.3905 -0.164 -0.81 -0.246 -1.2332 -0.244 -0.4233 0.003 -0.8416 0.091 -1.2299 0.26 -0.2919 0.07 -0.5901 0.11 -0.89 0.12 0.0764 -0.314 0.2085 -0.612 0.39 -0.88 0.6852 -0.667 1.6037 -1.04 2.56 -1.04 0.9563 0 1.8748 0.373 2.56 1.04 1.15 1.21 1.27 2.75 1.56 4 0.0106 0.567 -0.1058 1.129 -0.3407 1.645 -0.2348 0.516 -0.5821 0.973 -1.0165 1.337 -0.4344 0.365 -0.9447 0.627 -1.4937 0.769 -0.549 0.141 -1.1228 0.158 -1.6791 0.049 -0.74 -0.37 -0.41 -0.24 1.84 -1.12 0.3414 -0.156 0.6321 -0.404 0.839 -0.717 0.2069 -0.313 0.3216 -0.678 0.331 -1.053 -0.1118 -0.812 -0.2856 -1.614 -0.52 -2.4h0.04Zm81.27 11.42c-4.7 7.49 -2.48 3.39 -64.22 25.56 -0.61 0.22 -5.92 2.84 -9.95 3.14 -1.536 -0.026 -3.0279 -0.518 -4.278 -1.411 -1.2501 -0.893 -2.1994 -2.144 -2.722 -3.589 0 0 -6.93 -17.48 -9.95 -27.22 -0.16 -0.49 0.44 -0.75 1.22 -1.17 0.11 -0.06 0.38 0.79 2 5.73 3.09 9.33 2.55 6.9 3.58 9.86 2.56 7.31 2.82 10.8 6.28 13.5 3.46 2.7 6.83 0.86 9.55 0.2 1.6736 -0.437 3.3038 -1.026 4.87 -1.76 5.21 -2.33 57.12 -19.18 60.82 -21.25 1.85 -1.01 3.26 -2.75 2.76 -1.59h0.04Zm-28.56 9.06c-0.52 0.18 -22.89 7.73 -34.65 11.94 -2.81 1 0.71 0.14 -7.13 2.58 -1.87 0.59 -4.87 1.9 -7.36 -0.77 -0.8476 -0.822 -1.4944 -1.828 -1.89 -2.94 -0.3 -1 -0.79 -1.87 -1.12 -2.82 -8.09 -23.37 -8 -22.08 -7.3 -22.3 1.57 -0.54 2.38 -1 2.55 -0.64 1.25 2.23 4.78 1 6.23 -0.21 3.28 -2.81 0.62 -12.27 -5.83 -9.8 -0.6905 0.19 -1.3124 0.573 -1.7925 1.105 -0.4801 0.531 -0.7984 1.189 -0.9175 1.895 0 0.31 -0.45 0.31 -2.45 1.1 -0.56 0.22 -0.25 0.38 -3.32 -8.22 -0.19 -0.54 0.15 -0.47 1.26 -0.9 2.28 -0.88 0.9 1.62 4.07 1 3.17 -0.62 4.74 -1.91 4.79 -4.93 0 -4.16 -2.72 -8.06 -7.29 -6.24 -2.89 1.13 -2.33 3 -2.85 3.2 -2.25 0.9 -2.3 1 -2.45 0.52 -2.83 -8.16 -3 -8 -2.15 -8.26 0.85 -0.26 1.69 -0.69 1.91 -0.32 0.2714 0.492 0.7037 0.876 1.2244 1.087 0.5207 0.211 1.0981 0.237 1.6356 0.073 1.2349 -0.159 2.4015 -0.658 3.37 -1.44 3.27 -2.82 0.61 -12.3 -5.87 -9.76 -0.6819 0.197 -1.2938 0.584 -1.7646 1.115 -0.4709 0.531 -0.7814 1.184 -0.8954 1.885 0 0.28 -0.52 0.37 -1.86 0.91 -0.58 0.23 -0.34 0.29 -2.28 -5.91 -0.58 -1.83 -0.89 -2.17 -0.25 -2.26 0.64 -0.09 1.14 -0.73 1.72 0.14 1.17 1.78 4.64 0.59 6 -0.63 3.22 -2.84 0.54 -12.26 -5.89 -9.73 -0.6834 0.1997 -1.2974 0.5864 -1.7727 1.1165 -0.4754 0.53 -0.7931 1.1824 -0.9173 1.8835 0 0.3 -0.9 0.58 -1.68 0.81 -0.44 0.15 -0.53 -1.2 -2.28 -5.88 -1.84 -4.92 -1 -1.84 -3.51 -9.46 -4.7 -14.52 -6.03 -13.52 29.79 -25.89 35.77 -12.14 35.36 -12.53 36.1 -11.07 4.76 9.45 3.5 18.7 1.66 31.19 -0.23 1.49 -2.75 1.27 -23 8.91 -0.28 0.1 -2.84 0.73 -4.55 1.29 -1.16 0.37 -2.29 0.84 -3.44 1.23 -0.73 0.25 -1.48 0.39 -2.2 0.64 -10.19 3.52 -7.74 2.43 -11.41 4.52 -0.65 0.38 0.08 1.61 0.7 1.11 2.92 -1.76 14.57 -5.37 14.59 -5.37 9.51 -3.08 26.34 -9.28 28.52 -9.64 -0.92 3.1546 -2.412 6.1136 -4.4 8.73 -0.45 0.58 -0.36 1.09 -0.09 1.32 0.74 0.63 1.26 -0.67 3.43 -3.94 1.29 -1.93 1.84 -4.17 2.64 -6.3 0.17 -0.46 0.51 -0.54 0.84 -0.66 9.36 -3.6 8.47 -3.18 11.18 -4 0.52 -0.17 0.76 -0.54 0.59 -1 -0.58 -1.45 -2.83 0.73 -11.27 2.92 -0.33 0.09 -0.65 0.4 -0.68 -0.17 -0.09 -1.78 3.71 -14.2 -0.23 -27.54 -1.08 -3.65 -2.22 -4.4 -1.13 -4.63 3.86 -0.78 7.66 -2.37 9.39 1.85 0.8 1.94 1.78 3.81 2.7 5.7 0.102 0.2284 0.249 0.4339 0.432 0.6038 0.184 0.17 0.4 0.3011 0.635 0.3852 0.236 0.0841 0.486 0.1196 0.736 0.1043 0.249 -0.0153 0.493 -0.0811 0.717 -0.1933 6.45 -2.6 5.43 -2.82 9.18 6.69 1.15 2.91 3.27 8.21 4.13 11.06 0.113 0.4887 0.058 1.0012 -0.156 1.4549 -0.214 0.4536 -0.575 0.8218 -1.024 1.0451 -1.56 0.77 -3.13 1.56 -4.6 2.45 -1.47 0.89 -1.36 0.4 1.13 7.53 8.19 23.43 5 12.7 8.21 23.45 16 53.16 24.08 43.05 -16.45 57.28h0.04Zm28.19 -27.28c-0.21 0.1 -0.34 -0.25 -3.91 -10.59 -2.67 -7.72 -2.88 -7.51 -2.13 -7.8 2.3 -0.91 2.67 -1.39 3 -0.68 0.55 1.09 5.14 13.25 6.24 17.26 -0.23 0.34 0.38 0.07 -3.24 1.81h0.04Z" stroke-width="1"></path>
      <path id="Vector_29" fill="#1c1c1e" d="M112 149.12c-5.49 1.55 -18.45 5.78 -19.72 6.73 -0.0514 0.039 -0.0946 0.088 -0.127 0.144 -0.0324 0.056 -0.0534 0.118 -0.0617 0.182 -0.0084 0.064 -0.004 0.13 0.013 0.192 0.0169 0.062 0.0461 0.121 0.0857 0.172 0.89 1.12 0.15 0.32 8.34 -2.3 6.1 -2 34.21 -11.46 44.77 -15.37 3 -1.12 4 -1 4 -2 0.11 -2.06 -4.39 1.28 -20.56 6.36 -11.63 3.66 -14.91 5.38 -16.74 5.89Z" stroke-width="1"></path>
      <path id="Vector_30" fill="#1c1c1e" d="M120.84 128.53c2 -0.67 3.2 -0.63 19.54 -6.72 3 -1.14 4 -1 4 -2 0 -0.48 -0.31 -0.74 -0.91 -0.55 -1.36 0.44 -2.69 0.89 -4 1.38 -18.37 6.77 -16.46 5.68 -19.11 6.59 -9.32 3.16 -7.64 3.06 -18.94 6.63 -16.36 5.18 -14.83 5.18 -14.45 6.09 0.38 0.91 0.72 -0.17 3.64 -1 0.89 -0.26 -0.13 -0.12 8.34 -2.88 19.22 -6.3 8.62 -3.14 21.89 -7.54Z" stroke-width="1"></path>
      <path id="Vector_31" fill="#1c1c1e" d="M139.58 103.64c0.221 -0.258 0.332 -0.591 0.31 -0.93 0 -0.12 -0.34 -0.27 -0.45 -0.35 -0.73 0.1 -3.82 1.21 -4.45 1.43 -37.6101 13.9 -54.3901 17.6 -53.4001 19.56 0.63 1.25 1.71 -0.54 4.78 -1.35 0.1 -0.02 51.9801 -17.36 53.2101 -18.36Z" stroke-width="1"></path>
      <path id="Vector_32" fill="#1c1c1e" d="M134.43 86.19c0.1 -1.67 -2.34 0.19 -17.25 5.28 -10 3.42 -0.79 -0.25 -19.37 6.76 0 0 -16.17 4.68 -21 7.31 -0.0857 0.039 -0.1624 0.095 -0.2257 0.164 -0.0633 0.07 -0.1117 0.151 -0.1422 0.24 -0.0306 0.089 -0.0427 0.183 -0.0356 0.277 0.0072 0.094 0.0334 0.185 0.077 0.268 0.0437 0.083 0.1039 0.157 0.1769 0.216 0.0731 0.059 0.1574 0.103 0.2479 0.128 0.0905 0.025 0.1852 0.032 0.2784 0.019 0.0931 -0.012 0.1827 -0.044 0.2633 -0.092 3.75 -2.39 56.98 -18.72 56.98 -20.57Z" stroke-width="1"></path>
      <path id="Vector_33" fill="#1c1c1e" d="M115.63 143.74c0 1.32 1.62 1.42 1.64 -0.13 0.01 -1.08 -1.62 -1.21 -1.64 0.13Z" stroke-width="1"></path>
      <path id="Vector_34" fill="#1c1c1e" d="M115.35 133.37c-3.66 0 -4.14 4.13 -2.56 4.07 0.83 0 0.35 -1 1.24 -2.12 0.083 -0.144 0.198 -0.267 0.336 -0.359 0.138 -0.092 0.296 -0.151 0.461 -0.171 0.165 -0.021 0.333 -0.002 0.49 0.053 0.156 0.056 0.298 0.147 0.413 0.267 1.22 1.15 -0.34 2 -1.15 3 -0.354 0.441 -0.561 0.982 -0.593 1.546 -0.033 0.565 0.112 1.125 0.413 1.604 0.67 0.86 1.9 0.12 1.26 -0.85 -0.64 -0.97 0.1 -1.32 1.06 -2.26 1.91 -1.88 0.47 -4.81 -1.37 -4.78Z" stroke-width="1"></path>
      <path id="Vector_35" fill="#1c1c1e" d="M110.42 127.15c0 1.22 1.63 1.43 1.65 -0.15 0.01 -1.09 -1.62 -1.24 -1.65 0.15Z" stroke-width="1"></path>
      <path id="Vector_36" fill="#1c1c1e" d="M108.88 116.88c-2.5 0.79 -2.61 4.08 -1.24 4 0.93 -0.08 0.16 -1.12 1.21 -2.18 0.104 -0.115 0.23 -0.208 0.371 -0.274 0.14 -0.067 0.292 -0.104 0.447 -0.112 0.155 -0.007 0.31 0.016 0.457 0.068 0.146 0.053 0.28 0.134 0.395 0.238 0.115 0.104 0.208 0.23 0.274 0.371 0.066 0.14 0.104 0.292 0.112 0.447 0.007 0.156 -0.016 0.311 -0.068 0.457 -0.053 0.146 -0.134 0.28 -0.238 0.395 -0.56 0.61 -1.81 1.36 -1.9 3.06 0.143 0.506 0.348 0.993 0.61 1.45 0.139 0.123 0.318 0.191 0.504 0.191 0.186 0.001 0.365 -0.067 0.504 -0.19s0.228 -0.293 0.251 -0.478c0.022 -0.184 -0.024 -0.37 -0.129 -0.523 -0.64 -0.82 0.27 -1.42 1.08 -2.22 0.508 -0.404 0.856 -0.975 0.981 -1.612 0.125 -0.636 0.019 -1.297 -0.299 -1.863 -0.318 -0.565 -0.827 -0.999 -1.435 -1.224 -0.609 -0.225 -1.278 -0.225 -1.887 -0.001Z" stroke-width="1"></path>
      <path id="Vector_37" fill="#1c1c1e" d="M105.34 110.53c0 1.23 1.61 1.45 1.64 -0.11 0 -0.57 -0.25 -0.85 -0.8 -0.85s-0.83 0.31 -0.84 0.96Z" stroke-width="1"></path>
      <path id="Vector_38" fill="#1c1c1e" d="M104.72 100.16c-3.17 -0.06 -3.77 4.13 -2.2 4.08 1 0 0.16 -1.12 1.3 -2.24 0.218 -0.204 0.504 -0.319 0.803 -0.322 0.298 -0.003 0.587 0.107 0.809 0.307 0.221 0.2 0.359 0.476 0.387 0.774 0.027 0.297 -0.058 0.594 -0.239 0.831 -0.61 0.7 -1.83 1.35 -2 3.1 0.15 0.469 0.341 0.924 0.57 1.36 0.057 0.079 0.129 0.146 0.212 0.197 0.083 0.05 0.175 0.085 0.271 0.1 0.096 0.015 0.195 0.011 0.289 -0.011 0.095 -0.023 0.184 -0.064 0.263 -0.121 0.079 -0.057 0.145 -0.129 0.196 -0.212 0.051 -0.083 0.085 -0.175 0.101 -0.271 0.015 -0.096 0.011 -0.195 -0.011 -0.289 -0.023 -0.095 -0.064 -0.184 -0.121 -0.263 -0.63 -1 0.21 -1.31 1.08 -2.27 1.73 -1.89 0.86 -4.7 -1.71 -4.75Z" stroke-width="1"></path>
      <path id="Vector_39" fill="#1c1c1e" d="M98.0601 85.36c0.07 -1.23 1.37 -2.4 2.2899 -1.53 1.21 1.14 -0.26 1.9 -1.1299 2.92 -1.36 1.6 -0.26 4.3 0.9999 3.47 0.152 -0.1444 0.244 -0.3404 0.259 -0.5495 0.015 -0.2091 -0.049 -0.4161 -0.179 -0.5805 -1.0699 -1.56 1.9 -1.56 1.95 -4.56 0.21 -3 -5.5699 -3.85 -5.6899 0.8 -0.01 0.81 1.44 1.45 1.5 0.03Z" stroke-width="1"></path>
      <path id="Vector_40" fill="#1c1c1e" d="M100.23 92.41c0 1.31 1.64 1.57 1.67 -0.08 0.02 -1.2 -1.65 -1.25 -1.67 0.08Z" stroke-width="1"></path>
      <path id="Vector_41" fill="#1c1c1e" d="M89.1601 75.53c10.8399 0 15.1699 -12.78 8.12 -19.65 -1.0892 -1.0698 -2.3822 -1.9097 -3.8024 -2.4699 -1.4201 -0.5601 -2.9384 -0.829 -4.4645 -0.7908 -1.5261 0.0382 -3.029 0.3829 -4.4193 1.0135 -1.3903 0.6306 -2.6397 1.5342 -3.6738 2.6572 -6.75 7.81 -1.17 19.24 8.24 19.24Zm-9.56 -13.27c0.3197 -1.6268 1.0389 -3.1485 2.0928 -4.4283 1.0539 -1.2798 2.4095 -2.2774 3.9447 -2.9032 1.5352 -0.6258 3.202 -0.8601 4.8502 -0.6818 1.6483 0.1783 3.2264 0.7636 4.5923 1.7033 3.21 2.23 4.47 6 4.24 7.59 -0.62 15.78 -22.32 12.51 -19.72 -1.28Z" stroke-width="1"></path>
      <path id="Vector_42" fill="#1c1c1e" d="M87.44 66.92c1.14 0.37 -0.84 0.82 -1.16 4.08 0.07 0.47 0.0599 1.32 0.7399 1.36 0.92 0 0.67 -1.1 0.79 -1.42 0.2118 -0.858 0.5487 -1.6802 1 -2.44 0.68 -0.813 1.6108 -1.377 2.6463 -1.6032 1.0354 -0.2263 2.1167 -0.102 3.0738 0.3532 0.67 0.39 1.3 0.88 2 1.3 0.7 0.42 1.18 -0.56 0.51 -1.41 -3.22 -3.06 -5.32 -1 -4.57 -2.45 2 -3.67 -1.16 -7.49 -4.47 -6.79 -1.0396 0.1654 -1.9918 0.68 -2.6996 1.459 -0.7079 0.7791 -1.1291 1.7761 -1.1943 2.8267 -0.0653 1.0505 0.2294 2.092 0.8355 2.9526 0.606 0.8606 1.4872 1.4891 2.4984 1.7817Zm1.3999 -7.68c0.7703 0.0515 1.4941 0.3867 2.0316 0.9408 0.5375 0.5541 0.8505 1.2878 0.8785 2.0592 -0.08 1.82 -1.57 3.61 -3 3.48 -4.84 -0.43 -3.8301 -6.81 0.0899 -6.48Z" stroke-width="1"></path>
      <path id="Vector_43" fill="#1c1c1e" d="M68.3499 174.53c-1.88 1.1 -0.39 2.37 -4.6 5.83 -2.7 2.21 -0.8 3.54 -3.09 5.87 -2.79 2.83 -3.2 2.9 -3.3 3.76 -0.19 1.58 -1 2.3 -1.73 3.46 0.19 0.22 0.52 1 1.28 0.54 2 -1.73 1.8 -3.57 2.39 -4.2 1.94 -2 4.11 -3.67 4.3 -6.2 0.18 -2.35 2.62 -2.53 4.39 -6 0.41 -0.79 0.5 -1.73 1.22 -2.38 0.13 -0.09 -0.07 -1.1 -0.86 -0.68Z" stroke-width="1"></path>
      <path id="Vector_44" fill="#1c1c1e" d="M48.5001 150.35c-1.42 3 -4.7 0.81 -7.11 5.68 -0.33 0.66 -0.52 0.7 -3.7 2.06 -3.48 1.47 -1.88 4.65 -5.68 5 -1.13 0.11 -2.44 2 -3.16 2.95 -1.32 1.71 -0.32 2 0.18 1.74 0.7815 -0.609 1.4956 -1.299 2.13 -2.06 1.38 -1.86 1.63 -0.7 4.16 -2.59 1.28 -0.94 1.44 -2.77 2.31 -3.21 3.75 -1.88 4.69 -1.74 5.44 -3.8 0.3405 -0.66 0.8308 -1.23 1.4317 -1.666 0.6009 -0.436 1.2956 -0.725 2.0283 -0.844 0.8038 -0.201 1.54 -0.611 2.1337 -1.189 0.5937 -0.578 1.0237 -1.303 1.2463 -2.101 -0.28 -0.79 -0.91 -0.94 -1.41 0.03Z" stroke-width="1"></path>
      <path id="Vector_45" fill="#1c1c1e" d="M32.9399 122.53c0.5192 0.199 1.0545 0.353 1.6 0.46 1.68 -0.57 0.19 0.44 5.53 -3.54 0.85 -0.63 0.11 -1.85 -0.79 -1.22 -0.9952 0.645 -1.9503 1.349 -2.86 2.11 -2.58 2.31 -3.55 -0.77 -5.37 0.76 -0.9552 0.699 -1.8187 1.515 -2.57 2.43 -2.91 4.12 -5.11 -0.5 -7.71 2.86 -3.07 4 -3.5 5.37 -5.59 4.71 -0.1545 -0.03 -0.3138 -0.023 -0.4649 0.021 -0.1512 0.043 -0.29 0.122 -0.4051 0.229 -0.0453 0.137 -0.0544 0.284 -0.0264 0.426 0.028 0.142 0.0922 0.274 0.1864 0.384 4.49 2.76 6.43 -6.17 9.12 -5.5 6.16 1.54 6.67 -5.49 9.35 -4.13Z" stroke-width="1"></path>
      <path id="Vector_46" fill="#1c1c1e" d="M28.39 93.17c0.7668 -0.4841 1.6256 -0.8042 2.5223 -0.9402 0.8966 -0.136 1.8117 -0.0848 2.6877 0.1502 2.38 0.76 2.5 -1.25 1.09 -1.45 -1.6 -0.21 -3.36 -1 -7.64 1 -0.79 0.38 -2.28 -0.32 -4.26 -0.34 -2.6 0 -3.36 0.41 -5.9 2.24 -3.81 2.75 -5.44 -0.76 -8.92005 -0.84 -0.83 0.14 -1.67 0.26 -2.49 0.43 -0.62 0.13 -0.76 1.62 0.33 1.29 2.73 -0.84 4.20005 0.34 5.54005 1 3.78 1.76 5.74 -0.3 8.17 -1.68 4.14 -2.36 6.03 0.64 8.87 -0.86Z" stroke-width="1"></path>
      <path id="Vector_47" fill="#1c1c1e" d="M16.0001 50.47c1.09 0.2 1.88 1.65 2.64 3.17 2.06 4.26 7.16 1.36 11.54 7.56 0.87 1.23 1.81 1.35 3 1.81 1.19 0.46 1.22 -1.61 -0.05 -1.71 -2.79 -0.2 -0.53 -3.74 -10.93 -6.47 -1.91 -0.5 -1.9 -1.51 -3.46 -4 -1.17 -1.84 -2.38 -1.72 -5.14 -2.11 0 0.2 -1.69 -0.3 -1.75 0.88 0.02 0.87 0.75 0.25 4.15 0.87Z" stroke-width="1"></path>
    </g>
  </g>
</svg>