<svg xmlns="http://www.w3.org/2000/svg" fill="none" viewBox="0 0 200 200" id="No-Drafts--Streamline-Bruxelles">
  <desc>
    No Drafts Streamline Illustration: https://streamlinehq.com
  </desc>
  <g id="no-drafts--social-media-no-drafts">
    <g id="document 3">
      <path id="vector" fill="#ffffff" fill-rule="evenodd" d="M106.393 117.483c-1.119 8.951 -3.26 14.939 -3.984 22.451 -0.391 4.058 -1.913 8.091 -0.843 12.522 0.963 3.988 9.954 6.228 14.002 6.894 2.152 0.354 4.273 0.919 6.432 1.254 9.132 1.417 24.404 3.213 28.694 3.804 3.508 0.484 7.084 1.348 10.605 1.791 2.232 0.281 5.027 1.113 7.306 1.022 2.885 -0.115 4.714 -0.172 6.702 -2.97 2.996 -4.217 3.067 -9.988 4.039 -14.987 0.972 -4.999 2.497 -9.88 3.603 -14.843 0.628 -2.817 0.741 -5.671 1.582 -8.459 1.99 -6.598 2.453 -13.867 3.669 -20.63 0.782 -4.348 2.202 -9.041 3.412 -17.918 0.146 -1.072 0.602 -2.245 0.494 -3.32 -0.175 -1.748 -1.591 -3.683 -2.313 -5.201 -2.495 -5.243 -7.627 -18.39 -9.135 -20.193 -1.464 -1.752 -13.16 -3.162 -15.365 -3.548 -5.911 -1.035 -11.685 -1.944 -17.602 -2.932 -5.089 -0.85 -10.01 -2.533 -15.188 -2.892 -2.171 -0.151 -10.401 -1.9 -12.653 1.113 -2.089 2.795 -3.088 7.657 -3.644 11.133 -0.487 3.046 -1.264 5.484 -1.859 8.516 -0.527 2.685 -0.815 6.269 -1.37 8.947 -1.72 8.288 -5.678 31.198 -6.584 38.446Z" clip-rule="evenodd" stroke-width="1"></path>
      <path id="vector_2" fill="#2dd4bf" fill-rule="evenodd" d="M149.357 84.914c-11.683 -1.872 -20.099 -3.053 -21.132 -3.213 -0.88 -0.136 -2.021 -0.336 -2.828 0.164 -0.885 0.548 -1.167 2.309 -1.138 3.265 0.049 1.659 1.489 1.837 2.842 2.064 2.01 0.337 43.949 7.135 45.96 7.443 1.36 0.208 2.784 0.491 3.348 -1.072 0.324 -0.898 0.605 -2.657 -0.065 -3.457 -0.608 -0.726 -1.758 -0.896 -2.635 -1.042 -1.03 -0.171 -12.677 -2.281 -24.351 -4.151l-0.001 -0.001Z" clip-rule="evenodd" stroke-width="1"></path>
      <path id="vector_3" fill="#2dd4bf" fill-rule="evenodd" d="M147.184 100.303c-11.683 -1.872 -20.099 -3.053 -21.132 -3.213 -0.88 -0.136 -2.021 -0.336 -2.828 0.164 -0.885 0.548 -1.167 2.309 -1.138 3.265 0.049 1.659 1.489 1.837 2.842 2.064 2.01 0.337 43.949 7.135 45.96 7.443 1.36 0.208 2.784 0.491 3.348 -1.072 0.324 -0.898 0.605 -2.657 -0.065 -3.457 -0.608 -0.726 -1.758 -0.896 -2.635 -1.042 -1.03 -0.171 -12.677 -2.281 -24.351 -4.151l-0.001 -0.001Z" clip-rule="evenodd" stroke-width="1"></path>
      <path id="vector_4" fill="#2dd4bf" fill-rule="evenodd" d="M142.735 132.805c-11.683 -1.872 -20.099 -3.053 -21.132 -3.213 -0.88 -0.136 -2.021 -0.336 -2.828 0.164 -0.885 0.548 -1.167 2.309 -1.138 3.265 0.049 1.659 1.489 1.837 2.842 2.064 2.01 0.337 43.949 7.135 45.96 7.443 1.36 0.208 2.784 0.491 3.348 -1.072 0.324 -0.898 0.605 -2.657 -0.065 -3.457 -0.608 -0.726 -1.758 -0.896 -2.635 -1.042 -1.03 -0.171 -12.677 -2.281 -24.351 -4.151l-0.001 -0.001Z" clip-rule="evenodd" stroke-width="1"></path>
      <path id="vector_5" fill="#2dd4bf" fill-rule="evenodd" d="M144.672 116.592c-11.683 -1.872 -20.099 -3.053 -21.132 -3.213 -0.88 -0.136 -2.021 -0.336 -2.828 0.164 -0.885 0.548 -1.167 2.309 -1.138 3.265 0.049 1.659 1.489 1.837 2.842 2.064 2.01 0.337 43.949 7.135 45.96 7.443 1.36 0.208 2.784 0.491 3.348 -1.072 0.324 -0.898 0.605 -2.657 -0.065 -3.457 -0.608 -0.726 -1.758 -0.896 -2.635 -1.042 -1.03 -0.171 -12.677 -2.281 -24.351 -4.151l-0.001 -0.001Z" clip-rule="evenodd" stroke-width="1"></path>
      <path id="vector_6" fill="#1c1c1e" fill-rule="evenodd" d="M155.568 165.505c1.48 -0.011 1.156 0.02 2.992 0.534a0.692 0.692 0 0 0 0.15 -1.374c-1.998 0.11 -1.866 0.068 -2.995 -0.251a0.549 0.549 0 1 0 -0.147 1.09v0.001Z" clip-rule="evenodd" stroke-width="1"></path>
      <path id="vector_7" fill="#1c1c1e" fill-rule="evenodd" d="M163.186 166.875c1.177 0.008 0.923 0.015 2.349 0.558a0.691 0.691 0 0 0 0.218 -1.365c-1.59 0.074 -1.443 0.073 -2.367 -0.276a0.551 0.551 0 0 0 -0.201 1.083h0.001Z" clip-rule="evenodd" stroke-width="1"></path>
      <path id="vector_8" fill="#1c1c1e" fill-rule="evenodd" d="M170.799 167.724c2.21 -0.444 4.675 -2.306 6.108 -5.901a0.692 0.692 0 0 0 -1.311 -0.437c-0.357 1.323 -0.851 2.566 -1.663 3.524 -0.929 1.097 -1.926 1.516 -3.326 1.729a0.546 0.546 0 0 0 -0.446 0.638c0.053 0.3 0.34 0.507 0.638 0.447Z" clip-rule="evenodd" stroke-width="1"></path>
      <path id="vector_9" fill="#1c1c1e" fill-rule="evenodd" d="M177.715 157.668c0.152 -0.61 0.273 -1.325 0.461 -2.05 0.113 -0.437 0.587 -2.002 0.851 -3.015a0.69 0.69 0 1 0 -1.364 -0.216c-0.16 2.681 -0.245 3.225 -0.989 4.927a0.55 0.55 0 1 0 1.042 0.354h-0.001Z" clip-rule="evenodd" stroke-width="1"></path>
      <path id="vector_10" fill="#1c1c1e" fill-rule="evenodd" d="M180.022 148.052c0.369 -2.565 0.267 -2.082 1.398 -5.761a0.692 0.692 0 0 0 -1.35 -0.294c-0.462 3.525 -0.35 3.204 -1.124 5.819a0.55 0.55 0 1 0 1.076 0.235v0.001Z" clip-rule="evenodd" stroke-width="1"></path>
      <path id="vector_11" fill="#1c1c1e" fill-rule="evenodd" d="M182.798 136.035c0.242 -3.532 0.504 -3.613 1.327 -7.403a0.69 0.69 0 0 0 -1.366 -0.204c-0.41 4.994 -0.675 5.424 -1.053 7.468a0.551 0.551 0 0 0 1.092 0.138v0.001Z" clip-rule="evenodd" stroke-width="1"></path>
      <path id="vector_12" fill="#1c1c1e" fill-rule="evenodd" d="M185.433 123.44c0.326 -3.332 0.515 -3.12 1.35 -6.61a0.69 0.69 0 0 0 -1.362 -0.222c-0.376 4.303 -0.623 4.69 -1.074 6.654a0.55 0.55 0 0 0 1.086 0.178Z" clip-rule="evenodd" stroke-width="1"></path>
      <path id="vector_13" fill="#1c1c1e" fill-rule="evenodd" d="M188.265 109.677c0.161 -1.773 0.07 -2.592 1.024 -6.541a0.692 0.692 0 0 0 -1.364 -0.222c-0.291 3.368 -0.016 3.325 -0.747 6.592a0.55 0.55 0 1 0 1.087 0.171Z" clip-rule="evenodd" stroke-width="1"></path>
      <path id="vector_14" fill="#1c1c1e" fill-rule="evenodd" d="M190.666 97.3c0.002 -1.961 0.036 -1.927 0.701 -4.562a0.692 0.692 0 0 0 -1.368 -0.192c-0.108 3.318 -0.009 2.408 -0.429 4.652a0.55 0.55 0 1 0 1.096 0.102Z" clip-rule="evenodd" stroke-width="1"></path>
      <path id="vector_15" fill="#1c1c1e" fill-rule="evenodd" d="M192.257 85.69c-0.182 -1.398 -0.146 -1.181 0.194 -3.12a0.691 0.691 0 0 0 -1.381 -0.018c0.3 2.07 0.279 1.828 0.087 3.13a0.55 0.55 0 1 0 1.1 0.008Z" clip-rule="evenodd" stroke-width="1"></path>
      <path id="vector_16" fill="#1c1c1e" fill-rule="evenodd" d="M190.042 77.949c-0.821 -1.396 -0.948 -1.424 -1.759 -4.095a0.69 0.69 0 1 0 -1.269 0.544c1.319 2.326 1.245 1.797 2.03 4.015a0.55 0.55 0 1 0 0.997 -0.464h0.001Z" clip-rule="evenodd" stroke-width="1"></path>
      <path id="vector_17" fill="#1c1c1e" fill-rule="evenodd" d="M186.291 68.923c-0.933 -1.806 -0.784 -1.2 -2.022 -4.62a0.692 0.692 0 0 0 -1.246 0.597c1.339 2.207 1.572 2.286 2.249 4.442a0.55 0.55 0 0 0 1.018 -0.42h0.001Z" clip-rule="evenodd" stroke-width="1"></path>
      <path id="vector_18" fill="#1c1c1e" fill-rule="evenodd" d="M182.384 60.547c-0.559 -1.313 -0.469 -2.534 -4.007 -3.547 -1.571 -0.45 -3.334 -0.69 -4.618 -0.887a0.685 0.685 0 0 0 -0.773 0.597 0.687 0.687 0 0 0 0.598 0.773c2.096 0.217 5.542 -0.03 7.108 1.632 0.378 0.4 0.463 1.282 0.67 1.838 0.105 0.285 0.433 0.42 0.715 0.308a0.547 0.547 0 0 0 0.308 -0.715l-0.001 0Z" clip-rule="evenodd" stroke-width="1"></path>
      <path id="vector_19" fill="#1c1c1e" fill-rule="evenodd" d="M170.692 55.398c-2.067 -0.34 -1.027 -0.104 -3.603 -0.96a0.69 0.69 0 1 0 -0.254 1.357c2.132 0.106 2.22 0.102 3.555 0.66a0.55 0.55 0 1 0 0.303 -1.058l-0.001 0Z" clip-rule="evenodd" stroke-width="1"></path>
      <path id="vector_20" fill="#1c1c1e" fill-rule="evenodd" d="M161.212 53.806c-1.387 -0.185 -2.289 -0.128 -5.498 -1.148a0.691 0.691 0 0 0 -0.301 1.348c2.81 0.368 2.83 0.076 5.571 0.877a0.55 0.55 0 1 0 0.227 -1.077h0.001Z" clip-rule="evenodd" stroke-width="1"></path>
      <path id="vector_21" fill="#1c1c1e" fill-rule="evenodd" d="M149.183 51.552c-2.048 -0.254 -1.625 -0.073 -5.081 -1.017a0.69 0.69 0 0 0 -0.797 0.564 0.693 0.693 0 0 0 0.564 0.798c2.795 0.205 2.848 0.061 5.087 0.733a0.552 0.552 0 0 0 0.227 -1.077v-0.001Z" clip-rule="evenodd" stroke-width="1"></path>
      <path id="vector_22" fill="#1c1c1e" fill-rule="evenodd" d="M137.868 49.272c-1.639 -0.195 -2.401 -0.104 -6.124 -1.117a0.69 0.69 0 0 0 -0.255 1.358c3.129 0.33 3.184 0.057 6.173 0.84a0.55 0.55 0 0 0 0.206 -1.081Z" clip-rule="evenodd" stroke-width="1"></path>
      <path id="vector_23" fill="#1c1c1e" fill-rule="evenodd" d="M127.137 48.018c-2.865 0.16 -4.208 -0.1 -5.69 0.648a0.69 0.69 0 1 0 0.736 1.169c0.604 -0.46 1.407 -0.728 2.256 -0.83 1.096 -0.13 1.764 0.023 2.665 0.114a0.55 0.55 0 1 0 0.032 -1.1l0.001 -0.001Z" clip-rule="evenodd" stroke-width="1"></path>
      <path id="vector_24" fill="#1c1c1e" fill-rule="evenodd" d="M118.494 51.24c-0.598 1.126 -1.161 3.272 -1.969 5.222a0.69 0.69 0 1 0 1.32 0.406c0.469 -2.227 0.292 -3.348 1.575 -5.032a0.55 0.55 0 0 0 -0.926 -0.595Z" clip-rule="evenodd" stroke-width="1"></path>
      <path id="vector_25" fill="#1c1c1e" fill-rule="evenodd" d="M115.63 61.442c-0.275 1.575 -0.116 1.595 -1.203 4.66a0.69 0.69 0 0 0 1.342 0.324c0.341 -2.548 0.145 -2.58 0.923 -4.7a0.55 0.55 0 0 0 -1.062 -0.284Z" clip-rule="evenodd" stroke-width="1"></path>
      <path id="vector_26" fill="#1c1c1e" fill-rule="evenodd" d="M113.798 69.987c-0.226 1.479 -0.253 3.326 -1.437 6.92a0.69 0.69 0 1 0 1.338 0.343c0.551 -3.015 0.207 -3.513 1.176 -7.037a0.552 0.552 0 0 0 -1.078 -0.227l0.001 0Z" clip-rule="evenodd" stroke-width="1"></path>
      <path id="vector_27" fill="#1c1c1e" fill-rule="evenodd" d="M111.962 80.752c-0.067 1.313 0.044 1.798 -0.802 3.922a0.69 0.69 0 1 0 1.334 0.358c0.291 -2.068 -0.054 -1.75 0.557 -4.118a0.55 0.55 0 1 0 -1.089 -0.162Z" clip-rule="evenodd" stroke-width="1"></path>
      <path id="vector_28" fill="#1c1c1e" fill-rule="evenodd" d="M110.299 89.014c-0.025 1.917 -0.15 2.003 -0.888 4.436a0.69 0.69 0 0 0 1.357 0.255c0.276 -3.577 0.208 -2.551 0.625 -4.572a0.552 0.552 0 0 0 -1.095 -0.119h0.001Z" clip-rule="evenodd" stroke-width="1"></path>
      <path id="vector_29" fill="#1c1c1e" fill-rule="evenodd" d="M109.03 96.938c-0.08 1.64 -0.015 1.94 -0.842 4.613a0.691 0.691 0 1 0 1.355 0.268c0.25 -2.773 -0.031 -2.16 0.578 -4.727a0.551 0.551 0 0 0 -1.091 -0.154Z" clip-rule="evenodd" stroke-width="1"></path>
      <path id="vector_30" fill="#1c1c1e" fill-rule="evenodd" d="M107.468 105.552c-0.103 1.959 -0.165 2.104 -1.03 4.755a0.691 0.691 0 0 0 1.35 0.294c0.404 -3.565 0.134 -2.167 0.771 -4.895a0.551 0.551 0 0 0 -1.091 -0.154Z" clip-rule="evenodd" stroke-width="1"></path>
      <path id="vector_31" fill="#1c1c1e" fill-rule="evenodd" d="M106.166 114.559c-0.258 2.434 -0.222 2.125 -1.193 5.495a0.691 0.691 0 0 0 1.356 0.264c0.367 -3.524 0.247 -3.013 0.92 -5.558a0.55 0.55 0 0 0 -1.082 -0.2l-0.001 -0.001Z" clip-rule="evenodd" stroke-width="1"></path>
      <path id="vector_32" fill="#1c1c1e" fill-rule="evenodd" d="M104.463 124.747c-0.24 2.75 -0.261 2.508 -1.209 6.126a0.691 0.691 0 0 0 1.36 0.242c0.433 -4.467 0.363 -3.691 0.936 -6.198a0.551 0.551 0 0 0 -1.088 -0.171l0.001 0.001Z" clip-rule="evenodd" stroke-width="1"></path>
      <path id="vector_33" fill="#1c1c1e" fill-rule="evenodd" d="M102.503 135.145c-0.133 1.982 -0.128 2.392 -1.216 5.772a0.69 0.69 0 1 0 1.346 0.312c0.629 -4.354 0.073 -1.775 0.96 -5.932a0.55 0.55 0 0 0 -1.09 -0.152Z" clip-rule="evenodd" stroke-width="1"></path>
      <path id="vector_34" fill="#1c1c1e" fill-rule="evenodd" d="M100.937 144.036c-0.052 0.44 -0.082 0.995 -0.198 1.582 -0.119 0.607 -0.353 1.353 -0.514 2.381a0.691 0.691 0 0 0 1.381 0.039c-0.207 -2.075 -0.017 -2.551 0.403 -3.754a0.55 0.55 0 0 0 -1.072 -0.248Z" clip-rule="evenodd" stroke-width="1"></path>
      <path id="vector_35" fill="#1c1c1e" fill-rule="evenodd" d="M100.5 150.655c0.306 2.415 1.963 4.857 4.7 6.141a0.69 0.69 0 1 0 0.505 -1.285c-2.498 -0.801 -4.053 -2.342 -4.107 -4.935a0.55 0.55 0 0 0 -1.098 0.08v-0.001Z" clip-rule="evenodd" stroke-width="1"></path>
      <path id="vector_36" fill="#1c1c1e" fill-rule="evenodd" d="M109.404 157.909c1.738 0.272 1.65 0.21 4.495 1.386a0.691 0.691 0 0 0 0.391 -1.325c-3.154 -0.576 -2.431 -0.36 -4.616 -1.128a0.55 0.55 0 0 0 -0.269 1.068l-0.001 -0.001Z" clip-rule="evenodd" stroke-width="1"></path>
      <path id="vector_37" fill="#1c1c1e" fill-rule="evenodd" d="M118.187 160.482c1.246 -0.063 1.735 -0.118 3.587 0.679a0.69 0.69 0 0 0 0.377 -1.329c-0.99 -0.144 -1.841 -0.14 -2.368 -0.192 -0.596 -0.058 -1.076 -0.177 -1.528 -0.257a0.551 0.551 0 0 0 -0.067 1.099h-0.001Z" clip-rule="evenodd" stroke-width="1"></path>
      <path id="vector_38" fill="#1c1c1e" fill-rule="evenodd" d="M126.588 162.001c1.013 -0.02 1.238 -0.084 2.692 0.62a0.691 0.691 0 0 0 0.377 -1.329c-1.786 -0.184 -1.201 0.112 -2.928 -0.383a0.55 0.55 0 1 0 -0.141 1.091v0.001Z" clip-rule="evenodd" stroke-width="1"></path>
      <path id="vector_39" fill="#1c1c1e" fill-rule="evenodd" d="M134.193 163.1c1.192 0.054 1.664 -0.041 3.575 0.757a0.691 0.691 0 0 0 0.357 -1.335c-1.975 -0.254 -1.693 0.08 -3.755 -0.51a0.55 0.55 0 0 0 -0.177 1.087v0.001Z" clip-rule="evenodd" stroke-width="1"></path>
      <path id="vector_40" fill="#1c1c1e" fill-rule="evenodd" d="M141.893 164.327c1.274 -0.164 1.71 -0.241 3.671 0.378a0.69 0.69 0 1 0 0.242 -1.36c-1.027 -0.048 -1.842 0.026 -2.379 0.018 -0.571 -0.009 -1.139 -0.097 -1.552 -0.136a0.55 0.55 0 0 0 0.018 1.1Z" clip-rule="evenodd" stroke-width="1"></path>
      <path id="vector_41" fill="#1c1c1e" fill-rule="evenodd" d="M151.187 165.18c0.591 -0.157 0.632 -0.228 1.466 0.228a0.692 0.692 0 0 0 0.261 -1.357c-1.21 0.138 -0.856 0.261 -1.724 0.028a0.551 0.551 0 0 0 -0.003 1.101Z" clip-rule="evenodd" stroke-width="1"></path>
      <path id="vector_42" fill="#1c1c1e" fill-rule="evenodd" d="M185.814 78.39c-1.74 -0.003 -1.353 0.084 -4.415 -0.556a0.692 0.692 0 0 0 -0.13 1.375c2.709 -0.047 2.439 -0.12 4.437 0.277a0.55 0.55 0 0 0 0.109 -1.095h-0.001Z" clip-rule="evenodd" stroke-width="1"></path>
      <path id="vector_43" fill="#1c1c1e" fill-rule="evenodd" d="M177.053 77.296a45.891 45.891 0 0 1 -2.723 -0.171l0.666 -4.673a0.691 0.691 0 0 0 -1.381 -0.039c0.043 1.312 -0.071 3.725 -0.195 5.045a0.428 0.428 0 0 0 0.377 0.47c1.362 0.149 2.55 0.374 3.149 0.464a0.551 0.551 0 0 0 0.107 -1.096Z" clip-rule="evenodd" stroke-width="1"></path>
      <path id="vector_44" fill="#1c1c1e" fill-rule="evenodd" d="M175.11 68.8c0.068 -0.939 -0.134 -1.467 0.434 -3.666a0.692 0.692 0 0 0 -1.371 -0.17c0.02 1.637 0.329 2.081 -0.147 3.642a0.552 0.552 0 0 0 1.084 0.194Z" clip-rule="evenodd" stroke-width="1"></path>
      <path id="vector_45" fill="#1c1c1e" fill-rule="evenodd" d="M175.753 61.617c-0.071 -0.897 -0.053 -0.669 0.388 -1.845a0.692 0.692 0 0 0 -1.375 -0.131c0.21 1.22 0.169 1.131 -0.101 1.811a0.55 0.55 0 1 0 1.088 0.165Z" clip-rule="evenodd" stroke-width="1"></path>
      <path id="vector_46" fill="#1c1c1e" fill-rule="evenodd" d="M149.416 84.195c-22.491 -3.585 -21.997 -3.572 -22.969 -3.51 -1.299 0.085 -2.018 0.707 -2.436 1.876a6.787 6.787 0 0 0 -0.356 2.332c0.031 0.87 0.36 1.425 0.849 1.804 0.981 0.759 0.439 0.54 48.417 8.32 1.808 0.293 3.221 0.378 3.862 -1.347 0.417 -1.122 0.64 -2.994 -0.126 -3.922 -0.688 -0.833 -1.85 -1.04 -2.913 -1.223l-24.329 -4.33h0.001Zm-0.18 1.117c25.75 4.162 25.242 4.258 25.938 4.537 0.798 0.319 1.024 0.723 1.048 1.563a5.66 5.66 0 0 1 -0.313 1.937c-0.448 1.226 -1.558 0.969 -2.842 0.77 0 0 -44.657 -7.474 -45.911 -7.701 -1.231 -0.222 -2.327 -0.322 -2.346 -1.555 -0.012 -0.773 0.249 -2.33 0.894 -2.725 0.78 -0.48 0.395 -0.565 23.532 3.174Z" clip-rule="evenodd" stroke-width="1"></path>
      <path id="vector_47" fill="#1c1c1e" fill-rule="evenodd" d="M147.187 99.577c-22.491 -3.585 -21.997 -3.572 -22.969 -3.509 -1.299 0.084 -2.018 0.706 -2.436 1.875a6.787 6.787 0 0 0 -0.356 2.332c0.031 0.87 0.36 1.425 0.849 1.804 0.981 0.759 0.439 0.541 48.417 8.32 1.808 0.293 3.221 0.378 3.862 -1.347 0.417 -1.122 0.64 -2.994 -0.126 -3.922 -0.688 -0.833 -1.85 -1.039 -2.913 -1.223l-24.328 -4.33Zm-0.18 1.117c25.75 4.162 25.242 4.258 25.938 4.537 0.798 0.319 1.024 0.723 1.048 1.563a5.66 5.66 0 0 1 -0.313 1.937c-0.448 1.226 -1.558 0.969 -2.842 0.771 0 0 -44.657 -7.475 -45.911 -7.702 -1.231 -0.222 -2.327 -0.322 -2.346 -1.555 -0.012 -0.773 0.249 -2.329 0.894 -2.725 0.78 -0.479 0.394 -0.565 23.531 3.174h0.001Z" clip-rule="evenodd" stroke-width="1"></path>
      <path id="vector_48" fill="#1c1c1e" fill-rule="evenodd" d="M144.611 115.856c-22.491 -3.585 -21.997 -3.572 -22.969 -3.509 -1.299 0.084 -2.018 0.706 -2.436 1.875a6.787 6.787 0 0 0 -0.356 2.332c0.031 0.87 0.36 1.425 0.849 1.804 0.981 0.759 0.439 0.541 48.417 8.32 1.808 0.293 3.221 0.378 3.862 -1.347 0.417 -1.122 0.64 -2.994 -0.126 -3.922 -0.688 -0.833 -1.85 -1.039 -2.913 -1.223l-24.328 -4.33Zm-0.18 1.117c25.75 4.162 25.242 4.258 25.938 4.537 0.798 0.319 1.024 0.723 1.048 1.563a5.66 5.66 0 0 1 -0.313 1.937c-0.448 1.226 -1.558 0.969 -2.842 0.771 0 0 -44.657 -7.475 -45.911 -7.702 -1.231 -0.222 -2.327 -0.322 -2.346 -1.555 -0.012 -0.773 0.249 -2.329 0.894 -2.725 0.78 -0.479 0.394 -0.565 23.531 3.174h0.001Z" clip-rule="evenodd" stroke-width="1"></path>
      <path id="vector_49" fill="#1c1c1e" fill-rule="evenodd" d="M142.612 132.062c-22.491 -3.585 -21.997 -3.572 -22.969 -3.509 -1.299 0.084 -2.018 0.706 -2.436 1.875a6.787 6.787 0 0 0 -0.356 2.332c0.031 0.87 0.36 1.425 0.849 1.804 0.981 0.759 0.439 0.541 48.417 8.32 1.808 0.293 3.221 0.378 3.862 -1.347 0.417 -1.122 0.64 -2.994 -0.126 -3.922 -0.688 -0.833 -1.85 -1.039 -2.913 -1.223l-24.329 -4.33h0.001Zm-0.18 1.117c25.75 4.162 25.242 4.258 25.938 4.537 0.798 0.319 1.024 0.723 1.048 1.563a5.66 5.66 0 0 1 -0.313 1.937c-0.448 1.226 -1.558 0.969 -2.842 0.771 0 0 -44.657 -7.475 -45.911 -7.702 -1.231 -0.222 -2.327 -0.322 -2.346 -1.555 -0.012 -0.773 0.249 -2.329 0.894 -2.725 0.78 -0.479 0.394 -0.565 23.531 3.174h0.001Z" clip-rule="evenodd" stroke-width="1"></path>
    </g>
    <g id="document 2">
      <path id="vector_50" fill="#ffffff" fill-rule="evenodd" d="M79.829 123.672c-1.887 8.821 -4.537 14.602 -5.906 22.023 -0.74 4.009 -2.604 7.895 -1.92 12.403 0.615 4.056 9.379 7.063 13.355 8.076 2.114 0.538 4.178 1.284 6.3 1.804 8.976 2.2 24.036 5.306 28.258 6.265 3.453 0.785 6.941 1.954 10.411 2.699 2.2 0.472 4.912 1.542 7.191 1.648 2.885 0.134 4.711 0.236 6.934 -2.381 3.348 -3.942 3.917 -9.686 5.317 -14.583 1.4 -4.897 3.34 -9.628 4.87 -14.477 0.869 -2.752 1.228 -5.586 2.306 -8.291 2.551 -6.401 3.64 -13.604 5.435 -20.236 1.154 -4.265 2.973 -8.817 4.945 -17.557 0.238 -1.056 0.793 -2.184 0.779 -3.264 -0.023 -1.758 -1.267 -3.808 -1.856 -5.382 -2.033 -5.438 -6.679 -19.129 -8.026 -21.056 -1.308 -1.871 -12.171 -4.135 -14.335 -4.71 -5.799 -1.541 -11.473 -2.945 -17.283 -4.439 -4.997 -1.285 -9.754 -3.387 -14.882 -4.192 -2.15 -0.337 -10.199 -2.79 -12.702 0.017 -2.322 2.604 -3.737 7.363 -4.591 10.777 -0.748 2.993 -1.733 5.355 -2.587 8.324 -0.756 2.63 -1.352 6.176 -2.137 8.796 -2.429 8.109 -8.349 30.592 -9.878 37.735l0.002 0.001Z" clip-rule="evenodd" stroke-width="1"></path>
      <path id="vector_51" fill="#2dd4bf" fill-rule="evenodd" d="M124.501 92.523c-11.436 -3.037 -19.69 -5.058 -20.703 -5.321 -0.862 -0.224 -1.977 -0.537 -2.83 -0.121 -0.936 0.457 -1.393 2.18 -1.461 3.134 -0.118 1.656 1.297 1.977 2.621 2.339 1.966 0.537 43.009 11.516 44.98 12.024 1.332 0.343 2.72 0.768 3.439 -0.73 0.413 -0.861 0.869 -2.583 0.282 -3.446 -0.532 -0.783 -1.659 -1.068 -2.517 -1.302 -1.007 -0.274 -12.383 -3.544 -23.81 -6.578l-0.001 0.001Z" clip-rule="evenodd" stroke-width="1"></path>
      <path id="vector_52" fill="#2dd4bf" fill-rule="evenodd" d="M120.793 107.616c-11.436 -3.037 -19.69 -5.058 -20.703 -5.321 -0.862 -0.224 -1.977 -0.537 -2.83 -0.121 -0.936 0.457 -1.393 2.18 -1.461 3.134 -0.118 1.656 1.297 1.977 2.621 2.339 1.966 0.537 43.009 11.516 44.98 12.024 1.332 0.343 2.72 0.768 3.439 -0.73 0.413 -0.861 0.869 -2.583 0.282 -3.446 -0.532 -0.783 -1.659 -1.068 -2.517 -1.302 -1.007 -0.274 -12.383 -3.544 -23.81 -6.578l-0.001 0.001Z" clip-rule="evenodd" stroke-width="1"></path>
      <path id="vector_53" fill="#2dd4bf" fill-rule="evenodd" d="M113.099 139.506c-11.436 -3.037 -19.69 -5.058 -20.703 -5.321 -0.862 -0.224 -1.977 -0.537 -2.83 -0.121 -0.936 0.457 -1.393 2.18 -1.461 3.134 -0.118 1.656 1.297 1.977 2.621 2.339 1.966 0.537 43.009 11.516 44.98 12.024 1.332 0.343 2.72 0.768 3.439 -0.73 0.413 -0.861 0.869 -2.583 0.282 -3.446 -0.532 -0.783 -1.659 -1.068 -2.517 -1.302 -1.007 -0.274 -12.383 -3.544 -23.81 -6.578l-0.001 0.001Z" clip-rule="evenodd" stroke-width="1"></path>
      <path id="vector_54" fill="#2dd4bf" fill-rule="evenodd" d="M116.657 123.57c-11.436 -3.037 -19.69 -5.058 -20.703 -5.321 -0.862 -0.224 -1.977 -0.537 -2.83 -0.121 -0.936 0.457 -1.393 2.18 -1.461 3.134 -0.118 1.656 1.297 1.977 2.621 2.339 1.966 0.537 43.009 11.516 44.98 12.024 1.332 0.343 2.72 0.768 3.439 -0.73 0.413 -0.861 0.869 -2.583 0.282 -3.446 -0.532 -0.783 -1.659 -1.068 -2.517 -1.302 -1.007 -0.274 -12.383 -3.544 -23.81 -6.578l-0.001 0.001Z" clip-rule="evenodd" stroke-width="1"></path>
      <path id="vector_55" fill="#1c1c1e" fill-rule="evenodd" d="M124.999 175.917c1.476 0.111 1.151 0.115 2.937 0.779a0.692 0.692 0 0 0 0.263 -1.357c-2 -0.055 -1.866 -0.087 -2.964 -0.497a0.55 0.55 0 1 0 -0.236 1.075Z" clip-rule="evenodd" stroke-width="1"></path>
      <path id="vector_56" fill="#1c1c1e" fill-rule="evenodd" d="M132.478 177.911c1.173 0.105 0.919 0.091 2.295 0.75a0.69 0.69 0 1 0 0.33 -1.341c-1.59 -0.058 -1.444 -0.047 -2.336 -0.47a0.551 0.551 0 0 0 -0.289 1.062v-0.001Z" clip-rule="evenodd" stroke-width="1"></path>
      <path id="vector_57" fill="#1c1c1e" fill-rule="evenodd" d="M139.995 179.385c2.239 -0.26 4.85 -1.912 6.574 -5.377a0.691 0.691 0 0 0 -1.271 -0.543c-0.465 1.289 -1.06 2.487 -1.948 3.375 -1.017 1.016 -2.044 1.352 -3.457 1.449a0.546 0.546 0 0 0 -0.497 0.599 0.545 0.545 0 0 0 0.599 0.497Z" clip-rule="evenodd" stroke-width="1"></path>
      <path id="vector_58" fill="#1c1c1e" fill-rule="evenodd" d="M147.717 169.934c0.202 -0.596 0.381 -1.298 0.628 -2.005 0.149 -0.426 0.75 -1.947 1.096 -2.934a0.691 0.691 0 0 0 -1.342 -0.328c-0.381 2.659 -0.51 3.194 -1.392 4.828a0.55 0.55 0 1 0 1.01 0.439Z" clip-rule="evenodd" stroke-width="1"></path>
      <path id="vector_59" fill="#1c1c1e" fill-rule="evenodd" d="M150.81 160.541c0.579 -2.526 0.438 -2.053 1.869 -5.626a0.69 0.69 0 0 0 -1.321 -0.403c-0.751 3.475 -0.613 3.165 -1.6 5.706a0.55 0.55 0 0 0 1.052 0.323Z" clip-rule="evenodd" stroke-width="1"></path>
      <path id="vector_60" fill="#1c1c1e" fill-rule="evenodd" d="M154.567 148.794c0.532 -3.5 0.8 -3.559 1.933 -7.268a0.69 0.69 0 1 0 -1.345 -0.315c-0.82 4.943 -1.12 5.35 -1.666 7.356a0.55 0.55 0 1 0 1.077 0.227h0.001Z" clip-rule="evenodd" stroke-width="1"></path>
      <path id="vector_61" fill="#1c1c1e" fill-rule="evenodd" d="M158.232 136.459c0.599 -3.293 0.77 -3.067 1.891 -6.476a0.691 0.691 0 0 0 -1.34 -0.334c-0.73 4.257 -1.008 4.623 -1.619 6.543a0.55 0.55 0 0 0 1.068 0.267Z" clip-rule="evenodd" stroke-width="1"></path>
      <path id="vector_62" fill="#1c1c1e" fill-rule="evenodd" d="M162.19 122.977c0.307 -1.754 0.284 -2.577 1.56 -6.434a0.691 0.691 0 0 0 -1.341 -0.333c-0.567 3.332 -0.291 3.312 -1.288 6.508a0.55 0.55 0 1 0 1.069 0.259Z" clip-rule="evenodd" stroke-width="1"></path>
      <path id="vector_63" fill="#1c1c1e" fill-rule="evenodd" d="M165.603 110.84c0.164 -1.954 0.195 -1.918 1.075 -4.489a0.69 0.69 0 1 0 -1.348 -0.304c-0.382 3.298 -0.208 2.399 -0.811 4.601a0.55 0.55 0 1 0 1.084 0.192Z" clip-rule="evenodd" stroke-width="1"></path>
      <path id="vector_64" fill="#1c1c1e" fill-rule="evenodd" d="M168.147 99.402c-0.066 -1.409 -0.048 -1.19 0.451 -3.094a0.69 0.69 0 1 0 -1.375 -0.133c0.128 2.089 0.127 1.845 -0.172 3.127a0.551 0.551 0 0 0 1.096 0.1Z" clip-rule="evenodd" stroke-width="1"></path>
      <path id="vector_65" fill="#1c1c1e" fill-rule="evenodd" d="M166.356 90.788c-0.64 -1.487 -0.763 -1.531 -1.235 -4.282a0.692 0.692 0 0 0 -1.327 0.382c1.019 2.472 1.012 1.938 1.514 4.237a0.55 0.55 0 1 0 1.047 -0.337h0.001Z" clip-rule="evenodd" stroke-width="1"></path>
      <path id="vector_66" fill="#1c1c1e" fill-rule="evenodd" d="M163.584 82.199c-0.781 -1.876 -0.682 -1.261 -1.634 -4.77a0.69 0.69 0 1 0 -1.291 0.49c1.152 2.31 1.378 2.409 1.875 4.613a0.55 0.55 0 0 0 1.049 -0.333h0.001Z" clip-rule="evenodd" stroke-width="1"></path>
      <path id="vector_67" fill="#1c1c1e" fill-rule="evenodd" d="M160.381 73.529c-0.449 -1.355 -0.258 -2.564 -3.701 -3.865 -1.529 -0.578 -3.265 -0.962 -4.529 -1.265a0.686 0.686 0 0 0 -0.82 0.531 0.686 0.686 0 0 0 0.532 0.82c2.071 0.389 5.525 0.427 6.949 2.213 0.344 0.431 0.356 1.316 0.516 1.887a0.547 0.547 0 0 0 0.687 0.366 0.547 0.547 0 0 0 0.366 -0.687Z" clip-rule="evenodd" stroke-width="1"></path>
      <path id="vector_68" fill="#1c1c1e" fill-rule="evenodd" d="M149.154 67.433c-2.032 -0.508 -1.014 -0.188 -3.512 -1.254a0.69 0.69 0 1 0 -0.365 1.332c2.116 0.282 2.204 0.285 3.488 0.951a0.55 0.55 0 1 0 0.389 -1.029Z" clip-rule="evenodd" stroke-width="1"></path>
      <path id="vector_69" fill="#1c1c1e" fill-rule="evenodd" d="M139.837 65.065c-1.367 -0.3 -2.27 -0.316 -5.384 -1.598a0.69 0.69 0 1 0 -0.411 1.319c2.77 0.598 2.814 0.309 5.48 1.333a0.55 0.55 0 1 0 0.315 -1.054Z" clip-rule="evenodd" stroke-width="1"></path>
      <path id="vector_70" fill="#1c1c1e" fill-rule="evenodd" d="M128.036 61.826c-2.02 -0.422 -1.614 -0.207 -4.979 -1.432a0.69 0.69 0 1 0 -0.344 1.337c2.768 0.435 2.833 0.296 5.009 1.15a0.552 0.552 0 0 0 0.316 -1.055h-0.002Z" clip-rule="evenodd" stroke-width="1"></path>
      <path id="vector_71" fill="#1c1c1e" fill-rule="evenodd" d="M116.947 58.62c-1.618 -0.33 -2.385 -0.301 -6.011 -1.618a0.691 0.691 0 0 0 -0.366 1.332c3.091 0.587 3.169 0.32 6.083 1.347a0.55 0.55 0 0 0 0.294 -1.06Z" clip-rule="evenodd" stroke-width="1"></path>
      <path id="vector_72" fill="#1c1c1e" fill-rule="evenodd" d="M106.356 56.486c-2.868 -0.076 -4.186 -0.447 -5.724 0.176a0.69 0.69 0 1 0 0.637 1.226c0.639 -0.407 1.462 -0.609 2.317 -0.64 1.103 -0.04 1.756 0.168 2.647 0.333a0.55 0.55 0 1 0 0.123 -1.093v-0.002Z" clip-rule="evenodd" stroke-width="1"></path>
      <path id="vector_73" fill="#1c1c1e" fill-rule="evenodd" d="M97.477 58.985c-0.689 1.072 -1.427 3.164 -2.393 5.041a0.69 0.69 0 0 0 1.282 0.514c0.651 -2.18 0.567 -3.312 1.984 -4.885a0.55 0.55 0 0 0 -0.874 -0.669l0.001 -0.001Z" clip-rule="evenodd" stroke-width="1"></path>
      <path id="vector_74" fill="#1c1c1e" fill-rule="evenodd" d="M93.781 68.914c-0.404 1.547 -0.247 1.58 -1.583 4.545a0.692 0.692 0 0 0 1.312 0.434c0.55 -2.511 0.358 -2.559 1.308 -4.607a0.55 0.55 0 0 0 -1.037 -0.372Z" clip-rule="evenodd" stroke-width="1"></path>
      <path id="vector_75" fill="#1c1c1e" fill-rule="evenodd" d="M91.25 77.279c-0.348 1.455 -0.526 3.294 -2.003 6.779a0.69 0.69 0 1 0 1.306 0.452c0.798 -2.959 0.496 -3.484 1.753 -6.916a0.55 0.55 0 0 0 -1.056 -0.315Z" clip-rule="evenodd" stroke-width="1"></path>
      <path id="vector_76" fill="#1c1c1e" fill-rule="evenodd" d="M88.533 87.856c-0.175 1.303 -0.105 1.795 -1.123 3.843a0.691 0.691 0 0 0 1.301 0.467c0.461 -2.037 0.09 -1.749 0.894 -4.058a0.549 0.549 0 1 0 -1.071 -0.251l-0.001 -0.001Z" clip-rule="evenodd" stroke-width="1"></path>
      <path id="vector_77" fill="#1c1c1e" fill-rule="evenodd" d="M86.195 95.952c-0.183 1.908 -0.315 1.984 -1.251 4.348a0.69 0.69 0 0 0 1.332 0.366c0.57 -3.542 0.418 -2.525 1 -4.505a0.551 0.551 0 0 0 -1.081 -0.209Z" clip-rule="evenodd" stroke-width="1"></path>
      <path id="vector_78" fill="#1c1c1e" fill-rule="evenodd" d="M84.276 103.745c-0.215 1.629 -0.175 1.933 -1.22 4.527a0.692 0.692 0 0 0 1.328 0.379c0.477 -2.743 0.147 -2.154 0.966 -4.663a0.55 0.55 0 1 0 -1.074 -0.243Z" clip-rule="evenodd" stroke-width="1"></path>
      <path id="vector_79" fill="#1c1c1e" fill-rule="evenodd" d="M82.008 112.2c-0.264 1.944 -0.338 2.083 -1.419 4.654a0.69 0.69 0 1 0 1.32 0.404c0.697 -3.519 0.312 -2.149 1.172 -4.815a0.55 0.55 0 0 0 -1.073 -0.243Z" clip-rule="evenodd" stroke-width="1"></path>
      <path id="vector_80" fill="#1c1c1e" fill-rule="evenodd" d="M79.968 121.069c-0.458 2.405 -0.396 2.099 -1.642 5.378a0.692 0.692 0 0 0 1.33 0.374c0.656 -3.482 0.495 -2.982 1.375 -5.464a0.55 0.55 0 1 0 -1.063 -0.288Z" clip-rule="evenodd" stroke-width="1"></path>
      <path id="vector_81" fill="#1c1c1e" fill-rule="evenodd" d="M77.431 131.083c-0.466 2.721 -0.467 2.478 -1.71 6.006a0.69 0.69 0 0 0 1.336 0.353c0.8 -4.416 0.666 -3.648 1.444 -6.099a0.55 0.55 0 0 0 -1.07 -0.26Z" clip-rule="evenodd" stroke-width="1"></path>
      <path id="vector_82" fill="#1c1c1e" fill-rule="evenodd" d="M74.619 141.284c-0.296 1.965 -0.325 2.373 -1.688 5.652a0.69 0.69 0 1 0 1.316 0.422c0.986 -4.288 0.219 -1.762 1.446 -5.833a0.55 0.55 0 1 0 -1.074 -0.241Z" clip-rule="evenodd" stroke-width="1"></path>
      <path id="vector_83" fill="#1c1c1e" fill-rule="evenodd" d="M72.325 150.015c-0.088 0.434 -0.164 0.985 -0.327 1.56 -0.169 0.595 -0.463 1.319 -0.709 2.331a0.692 0.692 0 0 0 1.373 0.153c-0.035 -2.085 0.193 -2.543 0.711 -3.707a0.551 0.551 0 0 0 -1.049 -0.336l0.001 -0.001Z" clip-rule="evenodd" stroke-width="1"></path>
      <path id="vector_84" fill="#1c1c1e" fill-rule="evenodd" d="M71.344 156.575c0.106 2.432 1.556 5.003 4.177 6.508a0.692 0.692 0 0 0 0.61 -1.24c-2.424 -1.005 -3.846 -2.669 -3.686 -5.257a0.55 0.55 0 0 0 -1.101 -0.011Z" clip-rule="evenodd" stroke-width="1"></path>
      <path id="vector_85" fill="#1c1c1e" fill-rule="evenodd" d="M79.619 164.539c1.71 0.415 1.627 0.346 4.365 1.752a0.69 0.69 0 1 0 0.498 -1.288c-3.095 -0.834 -2.393 -0.559 -4.507 -1.505a0.551 0.551 0 0 0 -0.356 1.041Z" clip-rule="evenodd" stroke-width="1"></path>
      <path id="vector_86" fill="#1c1c1e" fill-rule="evenodd" d="M88.16 167.828c1.246 0.04 1.739 0.026 3.519 0.973a0.69 0.69 0 0 0 0.485 -1.293c-0.975 -0.225 -1.823 -0.292 -2.345 -0.386 -0.589 -0.107 -1.057 -0.266 -1.502 -0.382a0.55 0.55 0 1 0 -0.158 1.089l0.001 -0.001Z" clip-rule="evenodd" stroke-width="1"></path>
      <path id="vector_87" fill="#1c1c1e" fill-rule="evenodd" d="M96.407 170.035c1.011 0.064 1.241 0.018 2.632 0.84a0.692 0.692 0 0 0 0.485 -1.293c-1.765 -0.331 -1.206 0.012 -2.886 -0.623a0.55 0.55 0 0 0 -0.231 1.076Z" clip-rule="evenodd" stroke-width="1"></path>
      <path id="vector_88" fill="#1c1c1e" fill-rule="evenodd" d="M103.895 171.757c1.183 0.152 1.662 0.096 3.5 1.049a0.691 0.691 0 0 0 0.465 -1.301c-1.947 -0.416 -1.694 -0.059 -3.7 -0.817a0.551 0.551 0 0 0 -0.265 1.069Z" clip-rule="evenodd" stroke-width="1"></path>
      <path id="vector_89" fill="#1c1c1e" fill-rule="evenodd" d="M111.467 173.615c1.283 -0.059 1.724 -0.1 3.627 0.679a0.69 0.69 0 1 0 0.353 -1.335c-1.02 -0.132 -1.838 -0.126 -2.373 -0.179 -0.568 -0.056 -1.128 -0.19 -1.536 -0.264a0.55 0.55 0 0 0 -0.072 1.098l0.001 0.001Z" clip-rule="evenodd" stroke-width="1"></path>
      <path id="vector_90" fill="#1c1c1e" fill-rule="evenodd" d="M120.659 175.232c0.602 -0.108 0.649 -0.175 1.442 0.348a0.69 0.69 0 1 0 0.372 -1.33c-1.217 0.038 -0.875 0.189 -1.72 -0.115a0.55 0.55 0 1 0 -0.093 1.097h-0.001Z" clip-rule="evenodd" stroke-width="1"></path>
      <path id="vector_91" fill="#1c1c1e" fill-rule="evenodd" d="M162.012 91.349c-1.734 -0.147 -1.355 -0.029 -4.354 -0.919a0.692 0.692 0 0 0 -0.244 1.36c2.704 0.177 2.44 0.083 4.399 0.642a0.55 0.55 0 0 0 0.199 -1.083Z" clip-rule="evenodd" stroke-width="1"></path>
      <path id="vector_92" fill="#1c1c1e" fill-rule="evenodd" d="M153.687 89.782a46.283 46.283 0 0 1 -2.699 -0.395l1.05 -4.602a0.691 0.691 0 0 0 -1.373 -0.153c-0.065 1.311 -0.378 3.707 -0.61 5.012a0.43 0.43 0 0 0 0.337 0.5c1.345 0.261 2.511 0.583 3.1 0.722a0.55 0.55 0 1 0 0.195 -1.084Z" clip-rule="evenodd" stroke-width="1"></path>
      <path id="vector_93" fill="#1c1c1e" fill-rule="evenodd" d="M152.35 81.251c0.145 -0.93 -0.013 -1.473 0.735 -3.618a0.691 0.691 0 0 0 -1.352 -0.283c-0.115 1.633 0.156 2.101 -0.447 3.617a0.55 0.55 0 0 0 1.064 0.284Z" clip-rule="evenodd" stroke-width="1"></path>
      <path id="vector_94" fill="#1c1c1e" fill-rule="evenodd" d="M153.691 74.414c0.003 -0.9 0.002 -0.672 0.539 -1.806a0.692 0.692 0 0 0 -1.36 -0.244c0.109 1.234 0.075 1.141 -0.25 1.796a0.551 0.551 0 0 0 1.071 0.254Z" clip-rule="evenodd" stroke-width="1"></path>
      <path id="vector_95" fill="#1c1c1e" fill-rule="evenodd" d="M124.645 91.972c-22.039 -5.743 -21.549 -5.683 -22.522 -5.714 -1.301 -0.042 -2.076 0.507 -2.605 1.631a6.793 6.793 0 0 0 -0.58 2.287c-0.053 0.869 0.22 1.453 0.67 1.877 0.903 0.85 0.384 0.581 47.386 12.964 1.771 0.467 3.169 0.687 3.974 -0.967 0.524 -1.076 0.926 -2.919 0.254 -3.915 -0.604 -0.896 -1.741 -1.213 -2.781 -1.499l-23.796 -6.664Zm-0.288 1.094c25.227 6.633 24.712 6.68 25.377 7.025 0.763 0.395 0.949 0.819 0.892 1.657a5.67 5.67 0 0 1 -0.499 1.898c-0.564 1.176 -1.645 0.814 -2.903 0.493 0 0 -43.725 -11.76 -44.951 -12.106 -1.203 -0.34 -2.285 -0.545 -2.185 -1.775 0.063 -0.771 0.473 -2.294 1.154 -2.626 0.823 -0.401 0.447 -0.524 23.114 5.435l0.001 -0.001Z" clip-rule="evenodd" stroke-width="1"></path>
      <path id="vector_96" fill="#1c1c1e" fill-rule="evenodd" d="M120.937 107.066c-22.039 -5.743 -21.549 -5.683 -22.522 -5.714 -1.301 -0.042 -2.076 0.507 -2.605 1.631a6.793 6.793 0 0 0 -0.58 2.287c-0.053 0.869 0.22 1.453 0.67 1.877 0.903 0.85 0.384 0.581 47.386 12.964 1.771 0.467 3.169 0.687 3.974 -0.967 0.524 -1.076 0.926 -2.919 0.254 -3.915 -0.604 -0.896 -1.741 -1.213 -2.781 -1.499l-23.796 -6.664Zm-0.288 1.094c25.227 6.633 24.712 6.68 25.377 7.025 0.763 0.395 0.949 0.819 0.892 1.657a5.67 5.67 0 0 1 -0.499 1.898c-0.564 1.176 -1.645 0.814 -2.903 0.493 0 0 -43.725 -11.76 -44.951 -12.106 -1.203 -0.34 -2.285 -0.545 -2.185 -1.775 0.063 -0.771 0.473 -2.294 1.154 -2.626 0.823 -0.401 0.447 -0.524 23.114 5.435l0.001 -0.001Z" clip-rule="evenodd" stroke-width="1"></path>
      <path id="vector_97" fill="#1c1c1e" fill-rule="evenodd" d="M116.804 123.018c-22.039 -5.743 -21.549 -5.683 -22.522 -5.714 -1.301 -0.042 -2.076 0.507 -2.605 1.631a6.793 6.793 0 0 0 -0.58 2.287c-0.053 0.869 0.22 1.453 0.67 1.877 0.903 0.85 0.384 0.581 47.386 12.964 1.771 0.467 3.169 0.687 3.974 -0.967 0.524 -1.076 0.926 -2.919 0.254 -3.915 -0.604 -0.896 -1.741 -1.213 -2.781 -1.499l-23.796 -6.664Zm-0.288 1.094c25.227 6.633 24.712 6.68 25.377 7.025 0.763 0.395 0.949 0.819 0.892 1.657a5.67 5.67 0 0 1 -0.499 1.898c-0.564 1.176 -1.645 0.814 -2.903 0.493 0 0 -43.725 -11.76 -44.951 -12.106 -1.203 -0.34 -2.285 -0.545 -2.185 -1.775 0.063 -0.771 0.473 -2.294 1.154 -2.626 0.823 -0.401 0.447 -0.524 23.114 5.435l0.001 -0.001Z" clip-rule="evenodd" stroke-width="1"></path>
      <path id="vector_98" fill="#1c1c1e" fill-rule="evenodd" d="M113.242 138.957c-22.039 -5.743 -21.549 -5.683 -22.522 -5.714 -1.301 -0.042 -2.076 0.507 -2.605 1.631a6.793 6.793 0 0 0 -0.58 2.287c-0.053 0.869 0.22 1.453 0.67 1.877 0.903 0.85 0.384 0.581 47.386 12.964 1.771 0.467 3.169 0.687 3.974 -0.967 0.524 -1.076 0.926 -2.919 0.254 -3.915 -0.604 -0.896 -1.741 -1.213 -2.781 -1.499l-23.796 -6.664Zm-0.288 1.094c25.227 6.633 24.712 6.68 25.377 7.025 0.763 0.395 0.949 0.819 0.892 1.657a5.67 5.67 0 0 1 -0.499 1.898c-0.564 1.176 -1.645 0.814 -2.903 0.493 0 0 -43.725 -11.76 -44.951 -12.106 -1.203 -0.34 -2.285 -0.545 -2.185 -1.775 0.063 -0.771 0.473 -2.294 1.154 -2.626 0.823 -0.401 0.447 -0.524 23.114 5.435l0.001 -0.001Z" clip-rule="evenodd" stroke-width="1"></path>
    </g>
    <g id="board">
      <path id="vector_99" fill="#2dd4bf" fill-rule="evenodd" d="M65.971 32.416c-3.333 -0.072 -12.728 0.411 -16.054 0.55 -3.977 0.166 -8.931 -0.345 -11.824 2.993 -1.736 2.002 -1.901 4.92 -2.02 7.442 -0.262 5.56 0.127 11.183 0.489 16.668 1.442 21.887 1.031 42.971 2.188 64.874 0.426 8.059 0.515 29.821 2.438 38.839 1.506 7.061 14.884 4.412 21.006 4.32 14.23 -0.214 28.442 -0.251 42.673 -0.633 5.35 -0.144 10.724 0.087 16.061 -0.429 5.463 -0.529 11.597 1.096 14.59 -4.526 1.686 -3.167 2.171 -6.438 1.722 -9.869 -1.624 -12.428 -3.304 -69.899 -3.307 -82.925 -0.002 -8.16 -0.368 -16.365 -1.009 -24.498 -0.258 -3.272 -0.081 -7.74 -2.071 -10.53 -3.65 -5.12 -12.475 -3.17 -17.841 -3.066 -15.604 0.304 -31.471 -0.282 -47.041 0.79Z" clip-rule="evenodd" stroke-width="1"></path>
      <path id="vector_100" fill="#1c1c1e" fill-rule="evenodd" d="M65.98 31.995c-3.385 -0.075 -12.752 0.401 -16.081 0.537 -4.331 0.178 -9.138 -0.317 -12.137 3.139 -1.796 2.069 -2 4.972 -2.131 7.708 -0.264 5.534 0.113 11.203 0.468 16.72 1.327 20.636 1.054 43.174 2.221 64.866 0.437 8.118 0.527 29.846 2.459 38.903 1.578 7.402 14.812 4.753 21.421 4.656 9.962 -0.147 57.159 -0.893 58.77 -1.048 5.524 -0.533 11.57 0.22 14.362 -4.825 1.889 -3.414 2.026 -5.508 1.884 -9.667 -3.183 -93.193 -3.555 -110.121 -4.316 -114.352 -0.794 -4.415 -3.117 -7.131 -8.506 -7.808 -3.822 -0.48 -8.21 0.223 -11.391 0.288 -15.56 0.314 -33.066 -0.28 -47.059 0.898l0.036 -0.015Zm0.019 0.827c17.83 -0.965 31.433 -0.392 47.023 -0.683 5.564 -0.104 13.978 -1.949 17.402 2.859 1.889 2.653 1.717 7.061 1.967 10.266 0.631 8.071 0.996 16.294 0.995 24.456 0 4.305 2.815 80.029 2.93 83.296 0.138 3.941 0.049 5.923 -1.763 9.206 -2.537 4.596 -8.298 3.859 -13.667 4.381 -4.271 0.415 -2.249 0.221 -58.698 1.078 -6.222 0.094 -19.175 2.644 -20.59 -3.985 -1.918 -8.989 -2.002 -30.74 -2.419 -38.774 -1.158 -22.304 -0.596 -41.791 -2.154 -64.881 -0.374 -5.532 -0.769 -11.044 -0.509 -16.617 0.116 -2.479 0.276 -5.289 1.91 -7.175 2.729 -3.15 7.418 -2.673 11.51 -2.847 3.315 -0.14 12.702 -0.631 16.027 -0.563l0.037 -0.015 -0.001 -0.002Z" clip-rule="evenodd" stroke-width="1"></path>
    </g>
    <g id="document 1">
      <path id="vector_101" fill="#ffffff" fill-rule="evenodd" d="M125.222 75.424c-0.66 -8.997 0.263 -15.289 -0.501 -22.796 -0.413 -4.056 0.288 -8.309 -1.632 -12.444 -1.727 -3.72 -10.983 -4.152 -15.083 -4.01 -2.18 0.074 -4.37 -0.063 -6.553 0.032 -9.233 0.403 -24.56 1.641 -28.882 1.903 -3.535 0.214 -7.21 0.07 -10.751 0.326 -2.244 0.163 -5.148 -0.104 -7.364 0.433 -2.807 0.68 -4.589 1.094 -5.989 4.228 -2.11 4.723 -1.046 10.396 -1.018 15.488 0.028 5.085 -0.508 10.178 -0.619 15.262 -0.063 2.886 0.387 5.706 0.11 8.605 -0.656 6.86 0.318 14.08 0.452 20.949 0.087 4.417 -0.384 9.297 0.172 18.239 0.067 1.08 -0.149 2.319 0.167 3.352 0.515 1.681 2.283 3.3 3.289 4.646 3.476 4.651 11.771 16.491 13.604 17.964 1.78 1.43 12.842 0.559 15.081 0.505 5.999 -0.145 11.839 -0.388 17.835 -0.581 5.157 -0.166 10.313 0.518 15.46 -0.146 2.159 -0.279 10.572 -0.18 12.188 -3.576 1.5 -3.151 1.525 -8.115 1.387 -11.631 -0.12 -3.083 0.163 -5.626 0.151 -8.716 -0.011 -2.736 -0.432 -6.307 -0.413 -9.042 0.059 -8.465 -0.557 -31.706 -1.091 -38.99Z" clip-rule="evenodd" stroke-width="1"></path>
      <path id="vector_102" fill="#2dd4bf" fill-rule="evenodd" d="M84.822 58.542c-11.83 0.226 -20.322 0.554 -21.367 0.579 -0.891 0.022 -2.049 0.028 -2.754 0.662 -0.774 0.696 -0.739 2.479 -0.542 3.415 0.342 1.624 1.791 1.544 3.163 1.528 2.038 -0.024 44.518 -0.758 46.552 -0.812 1.375 -0.036 2.827 -0.01 3.105 -1.648 0.16 -0.942 0.125 -2.722 -0.677 -3.391 -0.727 -0.606 -1.889 -0.571 -2.778 -0.559 -1.044 0.014 -12.88 0 -24.701 0.225l-0.001 0.001Z" clip-rule="evenodd" stroke-width="1"></path>
      <path id="vector_103" fill="#2dd4bf" fill-rule="evenodd" d="M85.408 74.072c-11.83 0.226 -20.322 0.554 -21.367 0.579 -0.891 0.022 -2.049 0.028 -2.754 0.662 -0.774 0.696 -0.739 2.479 -0.542 3.415 0.342 1.624 1.791 1.544 3.163 1.528 2.038 -0.024 44.518 -0.758 46.552 -0.812 1.375 -0.036 2.827 -0.01 3.105 -1.648 0.16 -0.942 0.125 -2.722 -0.677 -3.391 -0.727 -0.606 -1.889 -0.571 -2.778 -0.559 -1.044 0.014 -12.88 0 -24.701 0.225l-0.001 0.001Z" clip-rule="evenodd" stroke-width="1"></path>
      <path id="vector_104" fill="#2dd4bf" fill-rule="evenodd" d="M86.783 106.849c-11.83 0.226 -20.322 0.554 -21.367 0.579 -0.891 0.022 -2.049 0.028 -2.754 0.662 -0.774 0.696 -0.739 2.479 -0.542 3.415 0.342 1.624 1.791 1.544 3.163 1.528 2.038 -0.024 44.518 -0.758 46.552 -0.812 1.375 -0.036 2.827 -0.01 3.105 -1.648 0.16 -0.942 0.125 -2.722 -0.677 -3.391 -0.727 -0.606 -1.889 -0.571 -2.778 -0.559 -1.044 0.014 -12.88 0 -24.701 0.225l-0.001 0.001Z" clip-rule="evenodd" stroke-width="1"></path>
      <path id="vector_105" fill="#2dd4bf" fill-rule="evenodd" d="M85.82 90.549c-11.83 0.226 -20.322 0.554 -21.367 0.579 -0.891 0.022 -2.049 0.028 -2.754 0.662 -0.774 0.696 -0.739 2.479 -0.542 3.415 0.342 1.624 1.791 1.544 3.163 1.528 2.038 -0.024 44.518 -0.758 46.552 -0.812 1.375 -0.036 2.827 -0.01 3.105 -1.648 0.16 -0.942 0.125 -2.722 -0.677 -3.391 -0.727 -0.606 -1.889 -0.571 -2.778 -0.559 -1.044 0.014 -12.88 0 -24.701 0.225l-0.001 0.001Z" clip-rule="evenodd" stroke-width="1"></path>
      <path id="vector_106" fill="#1c1c1e" fill-rule="evenodd" d="M67.223 37.928c-1.448 0.307 -1.137 0.212 -3.038 0.075a0.692 0.692 0 0 0 0.128 1.376c1.935 -0.507 1.815 -0.44 2.984 -0.353a0.55 0.55 0 1 0 -0.074 -1.098Z" clip-rule="evenodd" stroke-width="1"></path>
      <path id="vector_107" fill="#1c1c1e" fill-rule="evenodd" d="M59.485 38.109c-1.155 0.228 -0.907 0.17 -2.413 -0.077a0.69 0.69 0 0 0 0.06 1.38c1.543 -0.39 1.4 -0.36 2.374 -0.203a0.55 0.55 0 0 0 -0.021 -1.1Z" clip-rule="evenodd" stroke-width="1"></path>
      <path id="vector_108" fill="#1c1c1e" fill-rule="evenodd" d="M51.856 38.801c-2.076 0.877 -4.12 3.195 -4.804 7.004a0.69 0.69 0 0 0 1.371 0.165c0.085 -1.368 0.32 -2.684 0.924 -3.786 0.691 -1.261 1.583 -1.871 2.912 -2.36a0.546 0.546 0 0 0 0.31 -0.714 0.546 0.546 0 0 0 -0.714 -0.31l0.001 0.001Z" clip-rule="evenodd" stroke-width="1"></path>
      <path id="vector_109" fill="#1c1c1e" fill-rule="evenodd" d="M47.091 50.037c-0.027 0.628 -0.002 1.352 -0.041 2.101 -0.023 0.451 -0.175 2.079 -0.23 3.124a0.692 0.692 0 0 0 1.381 -0.06c-0.38 -2.659 -0.405 -3.209 -0.017 -5.025a0.552 0.552 0 0 0 -1.093 -0.14Z" clip-rule="evenodd" stroke-width="1"></path>
      <path id="vector_110" fill="#1c1c1e" fill-rule="evenodd" d="M46.754 59.92c0.152 2.587 0.155 2.093 -0.218 5.924a0.691 0.691 0 0 0 1.381 0.017c-0.253 -3.546 -0.298 -3.21 -0.063 -5.926a0.551 0.551 0 0 0 -1.1 -0.015Z" clip-rule="evenodd" stroke-width="1"></path>
      <path id="vector_111" fill="#1c1c1e" fill-rule="evenodd" d="M46.439 72.25c0.47 3.509 0.229 3.641 0.181 7.519a0.691 0.691 0 0 0 1.38 -0.074c-0.597 -4.975 -0.424 -5.45 -0.462 -7.528a0.55 0.55 0 0 0 -1.097 0.083h-0.002Z" clip-rule="evenodd" stroke-width="1"></path>
      <path id="vector_112" fill="#1c1c1e" fill-rule="evenodd" d="M46.376 85.117c0.347 3.329 0.12 3.16 0 6.746a0.69 0.69 0 1 0 1.379 -0.055c-0.492 -4.291 -0.328 -4.72 -0.279 -6.734a0.55 0.55 0 0 0 -1.1 0.043Z" clip-rule="evenodd" stroke-width="1"></path>
      <path id="vector_113" fill="#1c1c1e" fill-rule="evenodd" d="M46.355 99.168c0.197 1.77 0.45 2.554 0.306 6.613a0.69 0.69 0 1 0 1.38 -0.056c-0.389 -3.358 -0.649 -3.261 -0.587 -6.609a0.55 0.55 0 1 0 -1.099 0.052Z" clip-rule="evenodd" stroke-width="1"></path>
      <path id="vector_114" fill="#1c1c1e" fill-rule="evenodd" d="M46.479 111.776c0.39 1.922 0.35 1.895 0.226 4.61a0.691 0.691 0 0 0 1.379 -0.086c-0.558 -3.272 -0.473 -2.361 -0.511 -4.644a0.55 0.55 0 1 0 -1.094 0.12Z" clip-rule="evenodd" stroke-width="1"></path>
      <path id="vector_115" fill="#1c1c1e" fill-rule="evenodd" d="M47.243 123.468c0.458 1.334 0.379 1.129 0.434 3.096a0.691 0.691 0 0 0 1.358 -0.257c-0.708 -1.969 -0.639 -1.735 -0.711 -3.05a0.55 0.55 0 0 0 -1.08 0.212l-0.001 -0.001Z" clip-rule="evenodd" stroke-width="1"></path>
      <path id="vector_116" fill="#1c1c1e" fill-rule="evenodd" d="M50.974 132.232c1.25 1.029 1.379 1.012 3.058 3.243a0.69 0.69 0 0 0 1.005 -0.947c-2.037 -1.732 -1.787 -1.261 -3.285 -3.074a0.55 0.55 0 0 0 -0.778 0.778Z" clip-rule="evenodd" stroke-width="1"></path>
      <path id="vector_117" fill="#1c1c1e" fill-rule="evenodd" d="M56.442 138.703c1.276 1.582 1.008 1.019 2.905 4.121a0.69 0.69 0 1 0 1.101 -0.833c-1.753 -1.895 -1.997 -1.925 -3.092 -3.902a0.55 0.55 0 1 0 -0.913 0.615l-0.001 -0.001Z" clip-rule="evenodd" stroke-width="1"></path>
      <path id="vector_118" fill="#1c1c1e" fill-rule="evenodd" d="M61.946 146.129c0.811 1.175 0.966 2.389 4.636 2.674 1.63 0.127 3.404 0.009 4.702 -0.055a0.686 0.686 0 0 0 0.638 -0.74 0.686 0.686 0 0 0 -0.74 -0.638c-2.097 0.207 -5.424 1.138 -7.29 -0.177 -0.451 -0.318 -0.711 -1.163 -1.024 -1.667a0.545 0.545 0 0 0 -0.762 -0.158 0.546 0.546 0 0 0 -0.158 0.762l-0.002 -0.001Z" clip-rule="evenodd" stroke-width="1"></path>
      <path id="vector_119" fill="#1c1c1e" fill-rule="evenodd" d="M74.432 148.834c2.093 -0.082 1.027 -0.103 3.723 0.22a0.691 0.691 0 1 0 -0.022 -1.381c-2.11 0.322 -2.195 0.344 -3.615 0.064a0.55 0.55 0 0 0 -0.086 1.097Z" clip-rule="evenodd" stroke-width="1"></path>
      <path id="vector_120" fill="#1c1c1e" fill-rule="evenodd" d="M84.039 148.497c1.396 -0.096 2.268 -0.332 5.616 0.025a0.69 0.69 0 1 0 0.025 -1.381c-2.827 0.202 -2.788 0.492 -5.634 0.255a0.55 0.55 0 1 0 -0.008 1.1l0.001 0.001Z" clip-rule="evenodd" stroke-width="1"></path>
      <path id="vector_121" fill="#1c1c1e" fill-rule="evenodd" d="M96.275 148.3c2.057 -0.161 1.607 -0.254 5.181 -0.02a0.692 0.692 0 0 0 -0.044 -1.381c-2.779 0.358 -2.802 0.51 -5.13 0.299a0.55 0.55 0 0 0 -0.007 1.101v0.001Z" clip-rule="evenodd" stroke-width="1"></path>
      <path id="vector_122" fill="#1c1c1e" fill-rule="evenodd" d="M107.818 148.27c1.645 -0.137 2.374 -0.378 6.224 -0.13a0.691 0.691 0 0 0 -0.022 -1.381c-3.132 0.302 -3.131 0.581 -6.216 0.411a0.55 0.55 0 0 0 0.015 1.101l-0.001 -0.001Z" clip-rule="evenodd" stroke-width="1"></path>
      <path id="vector_123" fill="#1c1c1e" fill-rule="evenodd" d="M118.583 147.351c2.775 -0.731 4.143 -0.744 5.445 -1.773a0.69 0.69 0 1 0 -0.955 -0.998c-0.5 0.57 -1.233 0.994 -2.045 1.264 -1.048 0.348 -1.733 0.331 -2.634 0.422a0.551 0.551 0 0 0 0.189 1.085Z" clip-rule="evenodd" stroke-width="1"></path>
      <path id="vector_124" fill="#1c1c1e" fill-rule="evenodd" d="M126.406 142.464c0.361 -1.222 0.483 -3.437 0.884 -5.509a0.69 0.69 0 0 0 -1.374 -0.134c-0.014 2.275 0.384 3.339 -0.536 5.246a0.55 0.55 0 0 0 1.027 0.398l-0.001 -0.001Z" clip-rule="evenodd" stroke-width="1"></path>
      <path id="vector_125" fill="#1c1c1e" fill-rule="evenodd" d="M127.172 131.897c-0.045 -1.599 -0.205 -1.586 0.246 -4.807a0.692 0.692 0 0 0 -1.381 -0.049c0.175 2.565 0.374 2.557 0.036 4.789a0.551 0.551 0 0 0 1.099 0.067Z" clip-rule="evenodd" stroke-width="1"></path>
      <path id="vector_126" fill="#1c1c1e" fill-rule="evenodd" d="M127.257 123.159c-0.074 -1.494 -0.417 -3.309 0.023 -7.069a0.692 0.692 0 0 0 -1.38 -0.068c0.063 3.064 0.5 3.483 0.255 7.13a0.55 0.55 0 0 0 1.101 0.006l0.001 0.001Z" clip-rule="evenodd" stroke-width="1"></path>
      <path id="vector_127" fill="#1c1c1e" fill-rule="evenodd" d="M126.902 112.244c-0.197 -1.299 -0.402 -1.753 0.001 -4.003a0.691 0.691 0 0 0 -1.379 -0.083c0.128 2.085 0.403 1.704 0.278 4.146a0.55 0.55 0 1 0 1.099 -0.059l0.001 -0.001Z" clip-rule="evenodd" stroke-width="1"></path>
      <path id="vector_128" fill="#1c1c1e" fill-rule="evenodd" d="M126.878 103.817c-0.359 -1.883 -0.254 -1.992 -0.017 -4.524a0.691 0.691 0 0 0 -1.381 0.021c0.445 3.559 0.306 2.541 0.302 4.605a0.552 0.552 0 0 0 1.097 -0.103l-0.001 0.001Z" clip-rule="evenodd" stroke-width="1"></path>
      <path id="vector_129" fill="#1c1c1e" fill-rule="evenodd" d="M126.536 95.798c-0.25 -1.624 -0.374 -1.905 -0.098 -4.688a0.691 0.691 0 1 0 -1.381 0.008c0.31 2.767 0.462 2.109 0.38 4.747a0.551 0.551 0 0 0 1.099 -0.067Z" clip-rule="evenodd" stroke-width="1"></path>
      <path id="vector_130" fill="#1c1c1e" fill-rule="evenodd" d="M126.345 87.046c-0.291 -1.94 -0.26 -2.095 0.058 -4.865a0.691 0.691 0 0 0 -1.381 -0.018c0.317 3.573 0.302 2.15 0.224 4.95a0.55 0.55 0 1 0 1.099 -0.067Z" clip-rule="evenodd" stroke-width="1"></path>
      <path id="vector_131" fill="#1c1c1e" fill-rule="evenodd" d="M125.818 77.961c-0.234 -2.437 -0.208 -2.126 0.07 -5.622a0.69 0.69 0 0 0 -1.381 0.013c0.346 3.526 0.361 3.002 0.211 5.63a0.55 0.55 0 1 0 1.1 -0.02Z" clip-rule="evenodd" stroke-width="1"></path>
      <path id="vector_132" fill="#1c1c1e" fill-rule="evenodd" d="M125.448 67.638c-0.315 -2.742 -0.245 -2.509 -0.041 -6.244a0.692 0.692 0 0 0 -1.381 0.035c0.469 4.463 0.383 3.689 0.322 6.26a0.55 0.55 0 0 0 1.1 -0.051Z" clip-rule="evenodd" stroke-width="1"></path>
      <path id="vector_133" fill="#1c1c1e" fill-rule="evenodd" d="M125.324 58.147c-0.266 -1.969 -0.353 -2.369 0.036 -5.899a0.69 0.69 0 1 0 -1.381 -0.036c0.255 4.392 0.283 1.753 0.246 6.004a0.551 0.551 0 0 0 1.099 -0.069Z" clip-rule="evenodd" stroke-width="1"></path>
      <path id="vector_134" fill="#1c1c1e" fill-rule="evenodd" d="M125.079 48.631c-0.037 -0.44 -0.118 -0.992 -0.123 -1.589 -0.005 -0.618 0.075 -1.396 0.027 -2.436a0.691 0.691 0 0 0 -1.361 0.24c0.618 1.991 0.527 2.495 0.356 3.757a0.55 0.55 0 1 0 1.101 0.028Z" clip-rule="evenodd" stroke-width="1"></path>
      <path id="vector_135" fill="#1c1c1e" fill-rule="evenodd" d="M124.148 41.461c-0.783 -2.305 -2.895 -4.366 -5.833 -5.077a0.692 0.692 0 0 0 -0.238 1.361c2.608 0.285 4.44 1.484 5.011 4.014a0.552 0.552 0 0 0 1.06 -0.298Z" clip-rule="evenodd" stroke-width="1"></path>
      <path id="vector_136" fill="#1c1c1e" fill-rule="evenodd" d="M113.973 36.135c-1.757 0.081 -1.659 0.124 -4.681 -0.459a0.69 0.69 0 1 0 -0.117 1.377c3.205 -0.067 2.454 -0.134 4.749 0.182a0.55 0.55 0 0 0 0.049 -1.1Z" clip-rule="evenodd" stroke-width="1"></path>
      <path id="vector_137" fill="#1c1c1e" fill-rule="evenodd" d="M104.853 35.371c-1.208 0.311 -1.676 0.462 -3.651 0.052a0.69 0.69 0 1 0 -0.103 1.377c0.999 -0.057 1.832 -0.231 2.359 -0.286 0.596 -0.063 1.09 -0.041 1.549 -0.054a0.551 0.551 0 0 0 -0.154 -1.091v0.002Z" clip-rule="evenodd" stroke-width="1"></path>
      <path id="vector_138" fill="#1c1c1e" fill-rule="evenodd" d="M96.317 35.563c-0.988 0.222 -1.196 0.33 -2.762 -0.069a0.691 0.691 0 0 0 -0.103 1.377c1.787 -0.177 1.155 -0.35 2.945 -0.211a0.55 0.55 0 0 0 -0.08 -1.097Z" clip-rule="evenodd" stroke-width="1"></path>
      <path id="vector_139" fill="#1c1c1e" fill-rule="evenodd" d="M88.646 36.008c-1.178 0.186 -1.622 0.373 -3.654 -0.026a0.692 0.692 0 0 0 -0.083 1.379c1.986 -0.146 1.643 -0.418 3.781 -0.252a0.551 0.551 0 0 0 -0.044 -1.101Z" clip-rule="evenodd" stroke-width="1"></path>
      <path id="vector_140" fill="#1c1c1e" fill-rule="evenodd" d="M80.857 36.346c-1.215 0.416 -1.627 0.58 -3.672 0.364a0.69 0.69 0 1 0 0.035 1.381c1.016 -0.159 1.8 -0.395 2.328 -0.493 0.561 -0.105 1.136 -0.133 1.548 -0.177a0.55 0.55 0 1 0 -0.239 -1.075Z" clip-rule="evenodd" stroke-width="1"></path>
      <path id="vector_141" fill="#1c1c1e" fill-rule="evenodd" d="M71.58 37.37c-0.547 0.272 -0.574 0.35 -1.482 0.07a0.692 0.692 0 0 0 0.016 1.382c1.158 -0.378 0.786 -0.427 1.683 -0.372a0.55 0.55 0 0 0 -0.217 -1.08Z" clip-rule="evenodd" stroke-width="1"></path>
      <path id="vector_142" fill="#1c1c1e" fill-rule="evenodd" d="M84.804 57.975c-22.769 0.54 -22.281 0.463 -23.225 0.701 -1.262 0.318 -1.857 1.059 -2.056 2.284a6.786 6.786 0 0 0 0.071 2.358c0.188 0.85 0.612 1.337 1.161 1.621 1.102 0.569 0.529 0.453 49.124 -0.57 1.831 -0.039 3.236 -0.211 3.555 -2.023 0.207 -1.178 0.088 -3.061 -0.833 -3.834 -0.827 -0.695 -2.007 -0.688 -3.086 -0.676l-24.711 0.14v-0.001Zm0.025 1.131c26.078 -0.562 25.596 -0.375 26.331 -0.227 0.842 0.17 1.138 0.526 1.313 1.348a5.64 5.64 0 0 1 0.042 1.962c-0.219 1.286 -1.357 1.235 -2.656 1.272 0 0 -45.273 0.721 -46.547 0.725 -1.251 0.004 -2.347 0.104 -2.589 -1.106 -0.152 -0.759 -0.176 -2.335 0.387 -2.842 0.68 -0.612 0.286 -0.627 23.719 -1.132Z" clip-rule="evenodd" stroke-width="1"></path>
      <path id="vector_143" fill="#1c1c1e" fill-rule="evenodd" d="M85.397 73.506c-22.769 0.54 -22.281 0.463 -23.225 0.701 -1.262 0.318 -1.857 1.059 -2.056 2.284a6.786 6.786 0 0 0 0.071 2.358c0.188 0.85 0.612 1.337 1.161 1.621 1.102 0.569 0.529 0.453 49.124 -0.57 1.831 -0.039 3.236 -0.211 3.555 -2.023 0.207 -1.178 0.088 -3.061 -0.833 -3.834 -0.827 -0.695 -2.007 -0.688 -3.086 -0.676l-24.711 0.14v-0.001Zm0.025 1.131c26.078 -0.562 25.596 -0.375 26.331 -0.227 0.842 0.17 1.138 0.526 1.313 1.348a5.64 5.64 0 0 1 0.042 1.962c-0.219 1.286 -1.357 1.235 -2.656 1.272 0 0 -45.273 0.721 -46.547 0.725 -1.251 0.004 -2.347 0.104 -2.589 -1.106 -0.152 -0.759 -0.176 -2.335 0.387 -2.842 0.68 -0.612 0.286 -0.627 23.719 -1.132Z" clip-rule="evenodd" stroke-width="1"></path>
      <path id="vector_144" fill="#1c1c1e" fill-rule="evenodd" d="M85.809 89.982c-22.769 0.54 -22.281 0.463 -23.225 0.701 -1.262 0.318 -1.857 1.059 -2.056 2.284a6.786 6.786 0 0 0 0.071 2.358c0.188 0.85 0.612 1.337 1.161 1.621 1.102 0.569 0.529 0.453 49.124 -0.57 1.831 -0.039 3.236 -0.211 3.555 -2.023 0.207 -1.178 0.088 -3.061 -0.833 -3.834 -0.827 -0.695 -2.007 -0.688 -3.086 -0.676l-24.711 0.139Zm0.025 1.131c26.078 -0.562 25.596 -0.375 26.331 -0.227 0.842 0.17 1.138 0.526 1.313 1.348a5.64 5.64 0 0 1 0.042 1.962c-0.219 1.286 -1.357 1.235 -2.656 1.272 0 0 -45.273 0.721 -46.547 0.725 -1.251 0.004 -2.347 0.104 -2.589 -1.106 -0.152 -0.759 -0.176 -2.335 0.387 -2.842 0.68 -0.612 0.286 -0.627 23.719 -1.132Z" clip-rule="evenodd" stroke-width="1"></path>
      <path id="vector_145" fill="#1c1c1e" fill-rule="evenodd" d="M86.772 106.282c-22.769 0.54 -22.281 0.463 -23.225 0.701 -1.262 0.318 -1.857 1.059 -2.056 2.284a6.786 6.786 0 0 0 0.071 2.358c0.188 0.85 0.612 1.337 1.161 1.621 1.102 0.569 0.529 0.453 49.124 -0.57 1.831 -0.039 3.236 -0.211 3.555 -2.023 0.207 -1.178 0.088 -3.061 -0.833 -3.834 -0.827 -0.695 -2.007 -0.688 -3.086 -0.676l-24.711 0.139Zm0.025 1.131c26.078 -0.562 25.596 -0.375 26.331 -0.227 0.842 0.17 1.138 0.526 1.313 1.348a5.64 5.64 0 0 1 0.042 1.962c-0.219 1.286 -1.357 1.235 -2.656 1.272 0 0 -45.273 0.721 -46.547 0.725 -1.251 0.004 -2.347 0.104 -2.589 -1.106 -0.152 -0.759 -0.176 -2.335 0.387 -2.842 0.68 -0.612 0.286 -0.627 23.719 -1.132Z" clip-rule="evenodd" stroke-width="1"></path>
      <path id="vector_146" fill="#1c1c1e" fill-rule="evenodd" d="M54.782 129.684c1.706 -0.345 1.309 -0.352 4.437 -0.338a0.69 0.69 0 1 0 -0.148 -1.373c-2.645 0.588 -2.366 0.604 -4.402 0.616a0.55 0.55 0 0 0 0.113 1.095Z" clip-rule="evenodd" stroke-width="1"></path>
      <path id="vector_147" fill="#1c1c1e" fill-rule="evenodd" d="M63.819 128.651c1.003 -0.16 1.692 -0.27 2.702 -0.378l0.282 4.712a0.691 0.691 0 0 0 1.361 -0.237c-0.305 -1.277 -0.675 -3.664 -0.819 -4.982a0.428 0.428 0 0 0 -0.463 -0.385c-1.364 0.127 -2.574 0.144 -3.178 0.176a0.551 0.551 0 0 0 0.116 1.095l-0.001 -0.001Z" clip-rule="evenodd" stroke-width="1"></path>
      <path id="vector_148" fill="#1c1c1e" fill-rule="evenodd" d="M67.333 136.116c0.121 0.933 0.425 1.411 0.308 3.679a0.69 0.69 0 1 0 1.377 -0.108c-0.347 -1.6 -0.739 -1.973 -0.584 -3.598a0.551 0.551 0 0 0 -1.101 0.027Z" clip-rule="evenodd" stroke-width="1"></path>
      <path id="vector_149" fill="#1c1c1e" fill-rule="evenodd" d="M68.106 143.357c0.249 0.865 0.186 0.645 -0.011 1.885a0.69 0.69 0 1 0 1.373 -0.147c-0.45 -1.154 -0.392 -1.074 -0.263 -1.794a0.55 0.55 0 1 0 -1.099 0.056Z" clip-rule="evenodd" stroke-width="1"></path>
    </g>
    <g id="clip">
      <path id="vector_150" fill="#ffffff" fill-rule="evenodd" d="M68.141 32.236c-1.184 0.498 -0.577 5.179 -0.672 7.445 -0.039 0.934 -0.359 2.277 0.482 2.98 2.069 1.727 5.979 0.863 27.88 -0.721 2.164 -0.157 4.608 0.278 5.388 -2.049 0.354 -1.056 0.574 -2.345 0.74 -3.446 0.13 -0.865 0.445 -1.909 0.25 -2.785 -0.195 -0.876 -0.237 -1.846 -1.024 -1.989 -2.291 -0.415 -11.332 -0.238 -11.332 -0.238s1.602 -3.93 1.567 -5.376c-0.089 -3.675 -3.87 -6.389 -8.454 -5.311 -2.923 0.687 -4.49 3.493 -4.547 6.238 -0.031 1.479 1.246 4.567 1.246 4.567s-10.254 0.152 -11.523 0.686l-0.001 -0.001Z" clip-rule="evenodd" stroke-width="1"></path>
      <path id="vector_151" fill="#1c1c1e" fill-rule="evenodd" d="M67.977 31.848c-1.542 0.645 -0.832 5.161 -0.949 7.815 -0.046 1.034 -0.386 2.482 0.633 3.344 2.169 1.833 8.066 0.893 11.091 0.699 0.916 -0.059 17.108 -1.348 17.108 -1.348 1.307 -0.093 2.713 0.011 3.814 -0.361 2.019 -0.683 2.209 -2.458 2.707 -5.488 0.148 -0.9 0.463 -1.967 0.247 -2.943 -0.226 -1.021 -0.297 -2.127 -1.367 -2.323 -1.967 -0.361 -8.734 -0.3 -10.737 -0.274 0.428 -1.105 1.401 -3.731 1.381 -4.924 -0.067 -3.974 -4.105 -6.996 -9.066 -5.831 -3.079 0.723 -4.894 3.662 -4.95 6.759 -0.02 1.136 0.623 3.014 1.025 4.077 -1.772 0.038 -9.661 0.179 -10.932 0.811l-0.005 -0.013Zm4.779 0.409c7.207 -0.321 7.063 -0.007 7.338 -0.424 0.28 -0.426 -0.172 -0.611 -0.854 -3.119 -0.172 -0.632 -0.305 -1.261 -0.294 -1.72 0.061 -2.627 1.569 -5.111 4.144 -5.717 4.314 -1.015 7.734 1.515 7.842 4.79 0.016 0.48 -0.166 1.254 -0.401 2.052 -0.879 2.999 -1.329 3.171 -1.054 3.57 0.264 0.384 0.29 0.068 7.173 0.165 1.871 0.026 3.62 0.092 4.456 0.243 0.471 0.085 0.517 0.924 0.68 1.655 0.171 0.765 -0.039 1.654 -0.591 4.572 -0.088 0.467 -0.225 0.97 -0.379 1.43 -0.679 2.031 -2.903 1.61 -5.016 1.766 -22.733 1.677 -25.861 2.195 -27.561 0.793 -0.651 -0.537 -0.363 -1.788 -0.33 -2.615 0.062 -1.536 -0.394 -6.74 0.394 -7.075 -0.041 -0.113 4.027 -0.348 4.452 -0.367l0.001 0.001Z" clip-rule="evenodd" stroke-width="1"></path>
    </g>
    <path id="bliss" fill="#1c1c1e" fill-rule="evenodd" d="M12.425 47.105c4.336 -0.806 9.05 -2.808 9.465 -7.235 0.072 -0.771 -0.127 -1.585 -0.462 -2.376 -1.62 -3.819 -7.026 -10.039 -10 -13.028 4.982 2.482 9.117 4.731 12.643 5.276 2.302 0.356 4.473 0.021 6.038 -1.642 5.163 -5.489 -2.499 -15.352 -4.305 -21.479 0.377 0.445 0.773 0.941 1.03 1.197 7.647 7.617 9.274 10.661 13.241 13.899 1.647 1.344 3.336 2.328 4.988 2.616 4.584 0.8 5.778 -8.576 6.254 -13.219 0.583 3.515 1.476 6.883 3.588 9.59 0.456 0.584 1.214 0.159 0.756 -0.43 -0.806 -1.037 -1.407 -2.152 -1.894 -3.333 -1.846 -4.475 -1.975 -9.37 -2.094 -10.074 -0.092 -0.543 -0.818 -0.601 -0.871 0.085 -0.322 4.203 -1.079 17.364 -5.598 16.575 -1.528 -0.267 -3.084 -1.199 -4.611 -2.444 -3.963 -3.231 -5.552 -6.254 -13.168 -13.853 -0.565 -0.564 -1.557 -2.012 -2.053 -2.19 -0.391 -0.14 -0.751 0.147 -0.651 0.707 1.041 5.822 9.489 16.547 4.65 21.658 -3.142 3.318 -9.302 0.14 -13.408 -1.86l-4.614 -2.311c-0.479 -0.23 -1.313 -1.005 -1.776 -1.202 -0.563 -0.24 -1.111 0.049 -1.076 0.744 0.105 0.746 2.982 2.755 7.601 8.582 1.204 1.518 3.613 4.869 4.342 6.56 0.267 0.619 0.447 1.253 0.395 1.858 -0.36 4.136 -5.386 5.849 -9.485 6.507 -2.096 0.337 -1.797 0.203 -2.923 0.173 -0.499 -0.014 -0.936 0.085 -0.892 0.6 0.049 0.579 1.185 0.833 1.762 0.907 1 0.129 2.161 0.021 2.988 0.173 4.735 0.867 9.735 2.764 10.782 7.462 0.152 0.683 1.174 0.487 1.046 -0.217 -0.973 -5.327 -6.387 -7.296 -11.686 -8.275l-0.002 -0.001Z" clip-rule="evenodd" stroke-width="1"></path>
    <g id="pencil">
      <path id="vector_152" fill="#ffffff" fill-rule="evenodd" d="M16.602 183.982c0.667 -1.604 1.46 -3.156 2.096 -4.56 4.6 -10.155 1.005 -0.309 34.668 -72.141l12.813 -13.94s-3.221 14.971 -4.392 19.733c-4.979 11.715 -12.074 24.49 -17.38 36.012 -3.295 7.154 -14.91 31.816 -17.367 37.015 -1.227 2.597 -2.19 5.602 -4.144 7.52 -2.446 2.401 -7.553 -0.008 -7.659 -3.805 -0.053 -1.91 0.565 -3.911 1.366 -5.836l-0.001 0.002Z" clip-rule="evenodd" stroke-width="1"></path>
      <path id="vector_153" fill="#2dd4bf" fill-rule="evenodd" d="M16.655 183.972c1.851 1.357 8.68 5.914 8.68 5.914s-1.738 5.948 -6.269 4.676c-2.669 -0.75 -4.063 -2.903 -3.973 -5.814 0.039 -1.249 1.012 -3.629 1.561 -4.777l0.001 0.001Z" clip-rule="evenodd" stroke-width="1"></path>
      <path id="vector_154" fill="#ffffff" fill-rule="evenodd" d="M53.11 107.336s3.605 -3.714 5.308 -5.449c4.322 -4.4 5.372 -6.287 7.757 -8.5 -0.973 6.168 -0.641 4.277 -4.361 19.432 0 0 -2.274 1.561 -2.363 1.549 -0.288 -0.04 -0.42 -3.647 -0.42 -3.647s-1.977 1.316 -2.462 1.606c-0.153 0.091 -0.452 -3.016 -0.452 -3.016l-2.289 1.251 -0.718 -3.226Z" clip-rule="evenodd" stroke-width="1"></path>
      <path id="vector_155" fill="#1c1c1e" fill-rule="evenodd" d="m65.802 92.997 -12.831 13.922 -34.668 72.324c-1.463 3.235 -3.597 6.995 -3.495 10.585 0.116 4.156 5.666 6.756 8.379 4.091 0.832 -0.817 1.492 -1.821 2.068 -2.91 0.909 -1.72 -0.074 -0.042 7.277 -15.676 22.802 -48.467 16.632 -34.64 24.634 -51.169 0.462 -0.955 4.944 -10.395 5.014 -10.993 1.047 -3.725 3.679 -15.94 4.493 -19.723 0.109 -0.506 -0.523 -0.829 -0.871 -0.451ZM22.596 193.318c-2.172 2.13 -6.844 -0.072 -6.938 -3.513 -0.047 -1.726 0.482 -3.508 1.119 -5.125 1.233 0.849 6.319 4.323 8.01 5.396 -0.575 1.165 -1.264 2.334 -2.191 3.242Zm2.561 -4.019c-1.065 -0.763 -6.741 -4.806 -7.995 -5.549 0.382 -0.888 0.797 -1.757 1.195 -2.591 0.468 0.333 6.629 4.741 7.896 5.651 -0.365 0.822 -0.718 1.666 -1.096 2.489Zm18.802 -40.418c-1.962 4.295 -16.123 34.562 -17.341 37.129 -1.506 -1.169 -6.76 -5.171 -7.84 -5.736l34.38 -71.291c0.088 0.889 0.218 1.895 1.124 1.862 0.607 -0.02 1.194 -0.727 1.635 -1.084 0.002 0.504 0.029 1.438 0.103 1.981 0.045 0.361 0.138 0.768 0.487 0.87 0.428 0.125 0.741 -0.389 1.01 -0.598 0.323 -0.25 0.893 -0.759 1.363 -0.968 -0.004 0.216 0.034 0.469 0.03 0.514 -0.04 0.427 -0.187 1.275 -0.125 1.919 0.053 0.555 0.354 1.232 0.886 1.146 0.303 -0.047 0.534 -0.264 0.72 -0.386 0.204 -0.128 0.406 -0.261 0.606 -0.398 -4.993 11.509 -11.839 23.809 -17.037 35.041l-0.001 -0.001Zm17.549 -36.482c-0.911 0.703 -1.509 0.997 -1.717 1.182 -0.143 -0.63 -0.068 -1.307 -0.042 -1.957 0.032 -0.473 0.262 -1.15 -0.15 -1.379 -0.799 -0.447 -1.886 0.541 -2.606 1.087a2.79 2.79 0 0 0 -0.118 0.102c-0.083 -1.019 0.042 -2.344 0.043 -2.241 -0.002 -0.446 -0.577 -0.903 -1.384 -0.471 -0.53 0.284 -1.093 0.94 -1.193 1.03 -0.216 -0.497 -0.282 -2.326 -0.292 -2.43l11.226 -12.246c-0.638 2.899 -3.229 14.661 -3.765 17.322l-0.002 0.001Z" clip-rule="evenodd" stroke-width="1"></path>
    </g>
  </g>
</svg>