<svg xmlns="http://www.w3.org/2000/svg" fill="none" viewBox="0 0 200 200" id="Overworked-Employee--Streamline-Bruxelles">
  <desc>
    Overworked Employee Streamline Illustration: https://streamlinehq.com
  </desc>
  <path fill="#ffffff" d="M194.94 162.73c-1.6 -17.26 -2.08 -25.34 -1.64 -26.21H6.91s-4.35 14 4.5 22 -17.7 15.24 4.79 26.26c22.49 11.02 59.48 7.4 75 3.92 15.52 -3.48 40.91 -0.87 58.32 0.58 17.41 1.45 47.01 -9.28 45.42 -26.55Z" stroke-width="1"></path>
  <path fill="#ffffff" d="M189.73 99.73c-0.028 0.0582 -0.069 0.1094 -0.12 0.15 -1.92 1.15 -11.58 6.82 -13.11 7.7 -0.132 0.075 -0.279 0.123 -0.43 0.14 -0.151 0.017 -0.304 0.003 -0.45 -0.04 -1.44 -0.34 -28.39 -3.61 -30.23 -3.88 -0.052 -0.016 -0.102 -0.036 -0.15 -0.06 0.29 -0.26 11.65 -6.55 12.58 -7.06 0.159 -0.0791 0.327 -0.1395 0.5 -0.18 1.92 0.22 31.21 3.13 31.41 3.23Z" stroke-width="1"></path>
  <path fill="#ffffff" d="M174.66 136.06h0.59l-0.06 2.87c0 0.34 0 0.41 -0.35 0.34 -38.54 -6.93 -26.71 -4.82 -29 -5.23 -0.58 -0.1 -0.27 0 -0.46 -2.27 0 -0.22 0.06 -0.28 0.26 -0.25 4.86 0.79 28.61 4.85 28.77 4.81 0.119 -0.051 0.215 -0.143 0.27 -0.26l-0.02 -0.01Z" stroke-width="1"></path>
  <path fill="#ffffff" d="M189.34 135.56c0 0.13 -0.07 1.2 -0.07 1.55 0.011 0.115 -0.013 0.231 -0.068 0.332 -0.055 0.102 -0.139 0.185 -0.242 0.238 -0.82 0.52 -13.11 8.36 -13.33 8.48 -0.045 -0.736 -0.045 -1.474 0 -2.21h0.29c0 0.4 0.89 -0.12 1.19 -0.31 5.22 -3.48 12.11 -8.04 12.23 -8.08Z" stroke-width="1"></path>
  <path fill="#ffffff" d="M189.45 130.23s0.05 0.11 0.05 0.17c0 0.06 -0.16 4.38 -0.19 4.46 -0.03 0.08 -0.46 0.41 -0.75 0.6 -13 8.63 -12.64 8.09 -12.67 8.49h-0.29l0 -1.7c0 -0.27 0.11 -0.32 0.35 -0.47 2.22 -1.38 12.49 -7.89 12.55 -7.93 0.03 -0.021 0.056 -0.048 0.076 -0.079 0.02 -0.031 0.033 -0.065 0.04 -0.101 0.006 -0.037 0.006 -0.074 -0.002 -0.11 -0.008 -0.036 -0.023 -0.07 -0.044 -0.1 -0.021 -0.03 -0.048 -0.056 -0.079 -0.076 -0.031 -0.02 -0.065 -0.033 -0.102 -0.04 -0.036 -0.006 -0.073 -0.006 -0.109 0.002 -0.036 0.008 -0.07 0.023 -0.1 0.044 -1.08 0.72 2.55 -1.59 -12.35 7.84 -0.16 0.1 -0.17 0.12 -0.15 -0.09 0.11 -1.41 -0.13 -1.21 0.3 -1.5 13.76 -9.64 13.34 -9.49 13.47 -9.41Z" stroke-width="1"></path>
  <path fill="#ffffff" d="M189.56 129.27c0.016 0.081 0.001 0.164 -0.041 0.234 -0.043 0.071 -0.11 0.123 -0.189 0.146 -0.53 0.25 0.51 -0.38 -12 8.33 -0.501 0.407 -1.04 0.765 -1.61 1.07 -0.06 -1 0 -1.79 0 -2.46 -0.009 -0.099 0.012 -0.199 0.06 -0.286 0.048 -0.088 0.121 -0.159 0.21 -0.204 5.16 -3.2 9.22 -5.85 13.33 -8.41 0.35 -0.22 0.23 -0.16 0.24 1.58Z" stroke-width="1"></path>
  <path fill="#ffffff" d="m175.08 144.7 0 1.33c0 0.16 -0.06 0.21 -0.22 0.18s-24 -3 -28.65 -3.52c-0.12 0 -0.23 -0.08 -0.35 -0.09 -0.12 -0.01 -0.21 -0.13 -0.21 -0.29 0 -1.71 -0.13 -1.81 0.36 -1.74 0.07 0 12.47 1.74 29 4 0.02 0.016 0.036 0.036 0.048 0.058 0.012 0.022 0.02 0.047 0.022 0.072Z" stroke-width="1"></path>
  <path fill="#ffffff" d="m175.08 142.3 0 1.58s-0.11 0.12 -0.16 0.11c-0.05 -0.01 -28.71 -4 -29.13 -4 -0.19 0 -0.21 -0.12 -0.21 -0.26l0 -0.86V138c0 -0.18 0 -0.25 0.24 -0.23 6.77 1 28.56 4.17 29.18 4.27 0 0.03 0.08 0.19 0.08 0.26Z" stroke-width="1"></path>
  <path fill="#ffffff" d="M174.94 139.84c0.2 0 0.25 0.12 0.25 0.3l0 1.44c-0.27 0 -26.2 -3.78 -29.13 -4.32 -0.45 -0.06 -0.48 -0.07 -0.5 -0.53 0 -0.63 -0.05 -1.26 -0.08 -1.89 0 -0.21 0 -0.32 0.29 -0.25s25.3 4.6 29.17 5.25Z" stroke-width="1"></path>
  <path fill="#ffffff" d="M39.33 180.35h-0.14c-1.35 -0.14 -20.09 -1.93 -20.37 -2 -0.28 -0.07 -0.21 -0.13 -0.09 -0.27 0.43 -0.49 2.34 -2.71 2.86 -3.34 0.0528 -0.093 0.1385 -0.163 0.2402 -0.196 0.1017 -0.034 0.2122 -0.028 0.3098 0.016 5.54 1.93 16.37 5.44 17.19 5.79Z" stroke-width="1"></path>
  <path fill="#ffffff" d="M67.94 172c0 0.26 0.2 -0.59 -3 10.46 -0.15 0.49 -0.11 0.39 -0.49 0.4 -2.72 -0.25 -2.42 -0.24 -4.18 -0.4 -0.16 0 -0.16 -0.07 -0.08 -0.18 0.08 -0.11 7.54 -10.12 7.75 -10.28Z" stroke-width="1"></path>
  <path fill="#ffffff" d="M71.85 157.22c0.37 0 0.4 0 0.3 0.37 -0.24 0.88 -0.44 1.51 -1 3.47 -0.08 0.3 -0.12 0.32 -0.45 0.27 -0.66 -0.1 -21.42 -3.21 -21.71 -3.37 0.36 -0.05 22.75 -0.74 22.86 -0.74Z" stroke-width="1"></path>
  <path fill="#ffffff" d="M74.1 162.46c0.24 0 0.25 0 0.09 0.25l-16.91 22.58c-0.0992 0.111 -0.2061 0.214 -0.32 0.31 -3.18 -1 -19.3 -6.51 -40.6 -13.51 -0.31 -0.11 -0.32 -0.12 -0.07 -0.33 5 -4.16 17.07 -14.16 18.26 -15.14 0.0854 -0.086 0.1892 -0.151 0.3036 -0.191 0.1143 -0.04 0.2362 -0.053 0.3564 -0.039 8.96 1.49 37.7 5.89 38.89 6.07Zm-4.36 1.7c0.0366 -0.068 0.0558 -0.145 0.0558 -0.222 0 -0.078 -0.0192 -0.154 -0.0558 -0.222 -0.0366 -0.068 -0.0896 -0.127 -0.1541 -0.17 -0.0646 -0.042 -0.1387 -0.069 -0.2159 -0.076 -0.76 -0.18 -5.94 -1 -6.05 -1 -0.1147 -0.015 -0.2314 0 -0.3384 0.043 -0.1071 0.044 -0.2008 0.116 -0.2716 0.207 -0.87 0.93 -0.75 0.8 -3.82 4.32 -0.28 0.32 -0.25 0.49 0.17 0.61 0.42 0.12 4.44 1.07 6.61 1.63 0.1238 0.048 0.2605 0.051 0.3865 0.009 0.1259 -0.042 0.2333 -0.126 0.3035 -0.239 0.48 -0.64 2.36 -3.23 2.81 -3.89 0.2166 -0.317 0.4072 -0.652 0.57 -1Zm-5.52 7.22c0 -0.41 0 -0.44 -0.39 -0.31 -0.1004 0.068 -0.1855 0.157 -0.25 0.26 -0.84 1.09 -3 3.83 -3.17 4.12 -0.17 0.29 0.05 0.79 0.56 0.23 3.43 -4.42 3.23 -4.16 3.25 -4.3Zm-1.78 -0.44c-0.08 -0.09 -0.13 -0.22 -0.22 -0.25 -0.0544 -0.009 -0.1101 -0.004 -0.1623 0.013 -0.0523 0.017 -0.0995 0.047 -0.1377 0.087 -0.69 0.86 -1.38 1.72 -2.06 2.59 -0.0689 0.077 -0.1069 0.177 -0.1069 0.28 0 0.103 0.038 0.203 0.1069 0.28 0.12 0.1 0.34 0 0.51 -0.2 0.7392 -0.896 1.4301 -1.831 2.07 -2.8Zm-1.85 -0.76c0.06 -0.23 -0.09 -0.46 -0.38 -0.29 -0.29 0.17 0.06 -0.12 -3.39 4.2 -0.0654 0.081 -0.1161 0.172 -0.15 0.27 -0.06 0.17 0.08 0.36 0.32 0.34 0.29 -0.2 0.32 -0.26 1.12 -1.29 2.5 -3.18 2.38 -2.99 2.48 -3.23Zm-3.27 -8c0.0263 -0.046 0.0402 -0.097 0.0402 -0.15 0 -0.053 -0.0139 -0.104 -0.0402 -0.15 -0.06 -0.06 -0.21 0 -0.32 0 -0.0622 0.022 -0.1151 0.064 -0.15 0.12 -0.12 0.14 -10.63 13.14 -10.86 13.54 -0.13 0.23 0 0.45 0.31 0.45 0.1006 -0.082 0.1942 -0.172 0.28 -0.27 0 0 10.42 -12.99 10.74 -13.5v-0.04Zm-3.26 -0.91c0 -0.08 0.06 -0.28 0 -0.31 -0.1135 -0.06 -0.2434 -0.081 -0.37 -0.06 -0.07 0 -0.13 0.09 -0.18 0.16 -7.42 9.52 -7.23 9.2 -7.37 9.59 -0.06 0.18 0.09 0.36 0.33 0.34 0.53 -0.48 7.39 -9.36 7.59 -9.68v-0.04Zm-3.57 -0.41c0.0809 -0.129 0.1543 -0.263 0.22 -0.4 -0.0738 -0.063 -0.1654 -0.102 -0.2621 -0.111 -0.0967 -0.009 -0.1938 0.013 -0.2779 0.061 -0.29 0.29 -6.75 8.73 -10.37 13.34 -0.41 0.53 0 1 0.47 0.43 0.47 -0.57 7.31 -9.41 10.22 -13.28v-0.04Zm-3.55 -0.79c0.0236 -0.041 0.0339 -0.088 0.0296 -0.135 -0.0043 -0.048 -0.023 -0.092 -0.0537 -0.128 -0.0306 -0.036 -0.0716 -0.062 -0.1174 -0.074 -0.0458 -0.012 -0.0942 -0.01 -0.1385 0.007 -0.25 0.09 -0.07 -0.11 -6.21 7 -0.1607 0.174 -0.311 0.358 -0.45 0.55 -0.0364 0.047 -0.0578 0.104 -0.0617 0.164 -0.0038 0.059 0.0102 0.119 0.0403 0.17 0.03 0.052 0.0748 0.093 0.1285 0.119 0.0536 0.026 0.1139 0.035 0.1729 0.027 0.36 -0.18 5.27 -5.94 6.25 -7.08 0.1531 -0.181 0.2902 -0.375 0.41 -0.58v-0.04Zm-7.27 -1.26c0 -0.27 -0.21 -0.38 -0.38 -0.27 -0.17 0.11 0 -0.12 -3.41 4.13 0 0.06 -0.11 0.11 -0.11 0.17l0 0.37c0.26 0.13 0.5 0 0.66 -0.27 1.1498 -1.307 2.2312 -2.672 3.24 -4.09v-0.04Zm-2 -0.45c0 -0.21 -0.18 -0.31 -0.33 -0.21 -0.15 0.1 -0.16 0.08 -2.53 2.79 0 0.07 -0.14 0.13 -0.15 0.2 -0.01 0.07 0 0.3 0.05 0.37s0.25 0 0.36 0c0.0916 -0.048 0.1679 -0.121 0.22 -0.21 2.2 -2.53 2.26 -2.61 2.37 -2.9l0.01 -0.04ZM36 158c0 -0.23 -0.14 -0.31 -0.28 -0.26 -0.1428 0.056 -0.2723 0.141 -0.38 0.25 -3.28 3.22 -3.14 3.1 -3.19 3.22 -0.0162 0.098 0.0052 0.198 0.06 0.28 0.29 0.24 0.72 -0.24 3.55 -3.17 0.091 -0.098 0.1714 -0.205 0.24 -0.32Zm-9.84 11.12c0.145 -1.116 0.0737 -2.25 -0.21 -3.34 -0.1 -0.31 -0.58 -0.28 -0.47 0.15 0.2281 1.1 0.2518 2.232 0.07 3.34 0 0.16 -0.12 0.16 -0.21 0.06 -0.4762 -0.49 -0.9237 -1.008 -1.34 -1.55 -0.3 -0.32 -0.6 -0.27 -0.72 0.16 -0.12 0.43 0 1.71 -0.12 3 0 0.42 -0.46 0 -0.78 -0.28 -0.52 -0.48 -1.2 0.16 -0.68 1.5 0 0.1 0.28 0.36 0.39 -0.07 0 -0.13 -0.21 -0.82 0.06 -0.9 0.27 -0.08 0.5 0.35 0.84 0.54 0.34 0.19 0.38 0 0.55 -0.2 0.17 -0.2 0.17 -0.79 0.18 -2.76 0 -0.05 0 -0.37 0.09 -0.44s2.1 3.21 2.38 0.78l-0.03 0.01Z" stroke-width="1"></path>
  <path fill="#ffffff" d="M132.92 163.52c0.02 0.096 0.02 0.194 0 0.29 -1.3 4.84 -8.09 4.57 -8.48 -1.32 -0.016 -0.087 0.001 -0.177 0.047 -0.253 0.046 -0.075 0.118 -0.131 0.203 -0.157 3.4 -0.93 3.25 1.87 6 2.09 0.786 -0.029 1.552 -0.253 2.23 -0.65Z" stroke-width="1"></path>
  <path fill="#ffffff" d="M132.94 162.15c0 0.19 0.1 0.42 -0.13 0.56 -0.592 0.415 -1.281 0.669 -2 0.74 -2.05 0.08 -2.79 -2.89 -5.78 -2.16 -0.08 0.01 -0.16 0.01 -0.24 0 -0.015 -0.093 -0.015 -0.187 0 -0.28 0.397 -0.825 1.046 -1.503 1.853 -1.935 0.808 -0.432 1.731 -0.597 2.638 -0.47 0.907 0.127 1.75 0.539 2.408 1.176 0.657 0.637 1.096 1.467 1.251 2.369Z" stroke-width="1"></path>
  <path fill="#ffffff" d="M140.08 145.28c0.073 0.064 0.13 0.144 0.167 0.234 0.037 0.089 0.052 0.187 0.046 0.283 -0.007 0.097 -0.036 0.191 -0.085 0.275 -0.049 0.083 -0.117 0.155 -0.198 0.208 -0.348 0.27 -0.719 0.508 -1.11 0.71 -0.14 0.08 -0.17 0 -0.18 -0.14 -0.025 -0.198 -0.091 -0.389 -0.192 -0.561 -0.102 -0.172 -0.237 -0.321 -0.398 -0.439 -1.89 -1.72 -7.36 -2.41 -11.11 -2.14 -0.91 0.06 -1 0.66 0.34 0.62 2.94 -0.09 8.61 0.48 10.19 1.91 0.69 0.62 0.23 1.21 -0.23 1.32 -4.69 1.15 -16.45 1.37 -20.06 -1.49 -2.81 -2.77 9.17 -4.31 17 -2.95 1.54 0.23 4.74 0.88 5.82 2.16Zm-16 0.6c0 -0.26 -0.22 -0.39 -0.45 -0.5 -0.302 -0.12 -0.638 -0.12 -0.94 0 -0.137 0.047 -0.259 0.131 -0.352 0.242 -0.094 0.111 -0.155 0.245 -0.178 0.388 0.028 0.152 0.101 0.291 0.21 0.4 0.109 0.109 0.248 0.182 0.4 0.21 0.113 0.01 0.227 0.01 0.34 0 0.186 -0.046 0.37 -0.103 0.55 -0.17 0.128 -0.035 0.241 -0.108 0.326 -0.21 0.084 -0.102 0.134 -0.228 0.144 -0.36h-0.05Z" stroke-width="1"></path>
  <path fill="#ffffff" d="M141.14 151.57c0 0.19 -0.12 0.25 -0.26 0.33 -0.551 0.31 -1.149 0.53 -1.77 0.65 -3.025 0.683 -6.119 1.019 -9.22 1 -3.28 -0.12 -11.46 -0.42 -13.66 -2.85 -0.19 -0.28 0 -0.29 0.33 -4.14 0 -0.1 0 -0.24 0.16 -0.11 3.8 3.06 17.08 3.43 22.36 1.19 1.34 -0.67 1.45 -1.14 1.52 -0.81 0.07 0.33 0.02 0.01 0.54 4.74Z" stroke-width="1"></path>
  <path fill="#ffffff" d="M180.56 164.62c0.024 0.029 0.039 0.065 0.043 0.103 0.004 0.038 -0.004 0.076 -0.022 0.11 -0.019 0.033 -0.047 0.06 -0.081 0.078 -0.034 0.017 -0.072 0.024 -0.11 0.019 -0.36 0 -19.6 0.74 -23.54 1 -0.114 0.025 -0.233 0.006 -0.333 -0.054 -0.1 -0.059 -0.174 -0.154 -0.207 -0.266 -0.31 -0.74 -2.7 -5.87 -3.39 -7.45 -0.12 -0.27 -0.08 -0.33 0.23 -0.34 21.46 -0.1 5.32 0 22.11 -0.09 0.132 -0.01 0.264 0.018 0.381 0.08 0.116 0.062 0.213 0.155 0.279 0.27 0.64 0.92 4.6 6.47 4.64 6.54Zm-2.92 -1.37c-0.03 -0.332 -0.183 -0.642 -0.429 -0.867 -0.246 -0.226 -0.567 -0.352 -0.901 -0.353 -0.148 -0.003 -0.296 0.024 -0.434 0.078 -0.138 0.055 -0.264 0.136 -0.371 0.239 -0.107 0.103 -0.192 0.226 -0.251 0.362 -0.06 0.136 -0.091 0.283 -0.094 0.431 0.11 1.52 2.49 1.61 2.48 0.11ZM175 161c0.184 -0.014 0.361 -0.079 0.511 -0.188 0.149 -0.109 0.266 -0.257 0.336 -0.428 0.071 -0.171 0.092 -0.358 0.063 -0.541 -0.03 -0.182 -0.109 -0.353 -0.23 -0.493 -0.81 -1.09 -2.79 -0.38 -2 1 0.122 0.235 0.316 0.425 0.553 0.542 0.238 0.117 0.506 0.155 0.767 0.108Zm-11 3.71c4.93 1 7.5 -3.3 3.34 -5.61 -0.961 -0.554 -2.048 -0.854 -3.157 -0.871 -1.109 -0.018 -2.205 0.248 -3.183 0.771 -0.283 0.173 -0.528 0.403 -0.719 0.674 -0.191 0.272 -0.325 0.58 -0.392 0.905 -0.068 0.325 -0.068 0.661 0 0.986 0.067 0.325 0.2 0.633 0.391 0.905 0.913 1.181 2.245 1.965 3.72 2.19v0.05Z" stroke-width="1"></path>
  <path fill="#ffffff" d="M183.26 166.93c-1.07 0 -24 1 -26.66 1 -0.89 0 -1.19 0.12 -1.68 -1.07 -0.66 -1.6 -3.24 -7.24 -3.62 -8.58 -0.27 -0.93 -0.94 -1.91 0 -2.14 0.94 -0.23 19.29 0 23.27 0 0.608 -0.02 1.217 0.01 1.82 0.09 0.7 0.13 0.8 0.4 1.13 0.81 0.58 0.72 5.91 8.15 6.18 8.52 0.54 0.8 0.22 1.34 -0.44 1.37Zm-1.68 -1.64c0.18 -0.21 -0.05 -0.44 -0.19 -0.63 -2 -2.9 -5.17 -7.22 -5.18 -7.24 -0.105 -0.137 -0.242 -0.247 -0.399 -0.32 -0.156 -0.073 -0.328 -0.107 -0.501 -0.1 -1.28 0.08 -22.39 0.15 -22.41 0.15 -0.9 0 -1 0.23 -0.64 1.06 1.173 2.607 2.347 5.21 3.52 7.81 0.059 0.209 0.195 0.388 0.38 0.502 0.186 0.113 0.407 0.151 0.62 0.108 5.18 -0.32 19.12 -0.82 24.13 -1.11 0.244 0.008 0.482 -0.074 0.67 -0.23Z" stroke-width="1"></path>
  <path fill="#2dd4bf" d="M167.68 160c2.13 1.65 0.76 4.43 -2.72 4.15 -1.51 -0.12 -3.26 -0.6 -4.07 -1.88 -1.82 -2.87 3.11 -5.11 6.79 -2.27Zm0.24 3c0.167 -0.29 0.224 -0.632 0.16 -0.96 -0.065 -0.329 -0.246 -0.624 -0.51 -0.83 -0.86 -0.71 -5.13 -2.4 -6 -1 -0.128 0.239 -0.232 0.49 -0.31 0.75 -0.11 0.4 0 0.66 0.31 0.79 0.419 0.139 0.846 0.249 1.28 0.33 0.057 0.018 0.117 0.024 0.176 0.015 0.06 -0.008 0.116 -0.031 0.165 -0.064 0.05 -0.034 0.09 -0.079 0.12 -0.131 0.029 -0.052 0.046 -0.11 0.049 -0.17 0.08 -0.32 0.25 -0.41 0.56 -0.32 2.43 0.72 2.33 0.69 2.29 1 -0.019 0.053 -0.027 0.109 -0.023 0.166 0.004 0.056 0.018 0.111 0.044 0.161 0.025 0.051 0.06 0.095 0.103 0.132 0.043 0.037 0.092 0.064 0.146 0.081 0.52 0.05 1.17 0.5 1.44 0.05Z" stroke-width="1"></path>
  <path fill="#2dd4bf" d="M141.07 122.87c0.53 3 2.7 7.24 -2.34 12.55 -0.19 0.225 -0.428 0.406 -0.696 0.528 -0.268 0.123 -0.559 0.185 -0.854 0.182H84c-0.4 0 -0.4 0 -0.39 -0.39 0.15 -6.55 0.48 -17.46 0.29 -20.15 -0.11 -1.58 -1 -2.29 -2.43 -2.88 -1.1686 -0.392 -2.3753 -0.66 -3.6 -0.8 -0.0049 -0.04 -0.0049 -0.08 0 -0.12 -1.07 -15.65 -0.48 -11.33 -0.8 -17.15 -0.0151 -0.0987 0.0045 -0.1995 0.0556 -0.2853 0.0511 -0.0857 0.1304 -0.151 0.2244 -0.1847 3 -1.43 2.82 -1.46 10.54 -4.59 0.12 0 0.2 -0.07 0.18 0.15 -0.44 3.91 -0.6 4.38 0.92 8.46 1 2.62 2.51 4 6.75 8 1.18 1.12 4.86 3.71 6.39 3.16 3.64 -1.72 7.009 -3.964 10 -6.66 5.23 -5.38 5.36 -9.31 4.85 -12.77l0 -0.15c0 -0.2 0 -0.19 0.18 -0.12 4.91 2.09 -0.1 -0.23 6.81 2.88 0.109 0.0437 0.199 0.1228 0.257 0.2244 0.058 0.1016 0.08 0.2199 0.063 0.3356 0 3.11 -1.22 11.45 -1.93 21 -0.31 4 -0.86 9.16 0.74 11.86 1.28 2.15 3 4.26 5.82 4.77 6.31 1.15 8.68 -5.15 8.51 -11.1 -0.13 -4.51 -2.14 -15.16 -3.1 -19.6 -0.15 -0.68 -0.18 -0.69 -0.12 -0.84 0 0 0.11 0 0.14 0.05 0.85 0.725 1.545 1.614 2.044 2.614 0.498 1 0.789 2.091 0.856 3.206 0 0.14 0.75 5.07 0.78 6.57 0.06 3.06 2.13 6.67 2.6 8.64 0.211 0.858 0.358 1.73 0.44 2.61Z" stroke-width="1"></path>
  <path fill="#ffffff" d="M136.63 119.92c0.21 4.78 -2 10.29 -6.47 10 -2.34 -0.15 -4.12 -0.7 -6.16 -4.13 -1.65 -2.76 -1.32 -6.86 -1 -11.21 1.29 -15.11 1.63 -14.79 2.2 -27.39 0 -0.35 -0.11 -0.13 3.2 -0.81 0.088 -0.0206 0.181 -0.0185 0.268 0.006 0.087 0.0244 0.167 0.0705 0.232 0.134 1 0.8 1.36 0.63 1.47 1.13 0.11 0.5 1.63 5.82 2.57 9.54 1.901 7.452 3.136 15.059 3.69 22.73Z" stroke-width="1"></path>
  <path fill="#2dd4bf" d="M135.63 176.63c0.022 0.192 -0.019 0.387 -0.116 0.555 -0.097 0.167 -0.246 0.299 -0.424 0.375 -3 1.4 -9.91 1.38 -14 -0.46 -0.18 -0.08 -0.31 -0.17 -0.32 -0.4 0 -0.68 -0.22 -1.08 0.11 -0.91 2.68 1.44 11 1.86 14.53 0.68 0.15 -0.06 0.21 -0.05 0.22 0.16Z" stroke-width="1"></path>
  <path fill="#ffffff" d="M128.49 81.33c-0.78 -1.63 -0.56 -2.06 -1.55 -8.38 -0.059 -0.6803 -0.196 -1.3515 -0.41 -2 -0.177 -0.4424 -0.272 -0.9135 -0.28 -1.39 0.001 -0.3018 -0.059 -0.6008 -0.175 -0.8791 -0.117 -0.2783 -0.289 -0.5303 -0.505 -0.7409 -1.404 -1.1371 -2.869 -2.1954 -4.39 -3.17 -0.962 -0.3593 -1.884 -0.8185 -2.75 -1.37 -0.162 -0.1289 -0.349 -0.2211 -0.55 -0.27 -0.039 -0.0097 -0.081 -0.0097 -0.12 0 0 0 -0.3 0.16 0 0.36 1.77 1.45 2.64 1.18 4.46 3.16 0 0 2.11 2.4 1.6 2.06 -0.51 -0.34 -1.69 -1.42 -1.81 -1.55 -0.683 -0.7999 -1.538 -1.4357 -2.5 -1.86 -2.12 -1 -3.16 -2.69 -3.48 -1.91 -0.13 0.26 0.11 0.63 0.28 0.77 0.563 0.4903 1.176 0.9194 1.83 1.28 0.963 0.4993 1.857 1.1211 2.66 1.85 0.74 0.9 1 1.19 1.66 2 0.3 0.38 0.41 0.68 0.74 1 0.33 0.32 0 0.39 -0.06 0.3 -0.258 -0.2192 -0.489 -0.4675 -0.69 -0.74 -0.85 -1.28 -1.4 -1.27 -1.83 -1.82 -1 -1.33 -2.14 -1.51 -4.17 -3.09 -0.53 -0.41 -0.73 -0.46 -0.79 -0.36 -0.06 0.1 0 0.53 0.22 0.77 0.306 0.3595 0.64 0.694 1 1 0.84 0.8951 1.739 1.7336 2.69 2.51 0.501 0.2914 0.939 0.6788 1.29 1.14 1.07 1.34 1 0.91 1.56 1.62 0.14 0.16 0.15 0.53 0 0.38 -0.67 -0.4656 -1.261 -1.0362 -1.75 -1.69 -0.29 -0.46 -0.58 -0.61 -1.69 -1.46 -0.62 -0.47 -2.24 -2 -2.6 -2.18 -0.09 -0.07 -0.24 0.11 -0.21 0.41 0.063 0.5789 0.35 1.1101 0.8 1.48 0.392 0.0979 0.746 0.3082 1.02 0.6049 0.273 0.2967 0.454 0.6669 0.52 1.0651 3 3.48 3.25 2.35 4.42 9 0.103 0.576 0.33 1.1228 0.665 1.6028 0.335 0.4799 0.77 0.8815 1.275 1.1772 0.12 0.12 0.11 0.72 -0.32 0.48 -0.712 -0.306 -1.31 -0.827 -1.71 -1.49 -1.67 -3.27 -1.3 -4.47 -1.84 -4.7 -1.11 -0.4851 -2.125 -1.1621 -3 -2l-0.21 -0.14c-0.13 0.17 0 0 -0.22 0.42s-0.21 0.46 0.21 0.76c0.33 0.205 0.613 0.4777 0.83 0.8 0.33 0.54 1.3 1.5 1.49 1.93 0.183 0.4903 0.337 0.9912 0.46 1.5 0.176 0.7142 0.519 1.3764 1.001 1.9326 0.481 0.5562 1.087 0.9905 1.769 1.2674 0.77 0.4274 1.362 1.1153 1.67 1.94 0.2 0.42 0.41 -0.07 2.5 -0.73 0.8 -0.25 0.08 -0.89 0.84 -1.83 0.114 -0.0996 0.191 -0.2349 0.218 -0.3838 0.027 -0.1489 0.003 -0.3027 -0.068 -0.4362Zm-3.1 -11.78c-0.63 0.28 -0.09 0.92 -0.82 1.47 -0.124 0.0699 -0.228 0.1697 -0.303 0.2903 -0.075 0.1205 -0.119 0.2579 -0.127 0.3997 -0.12 0.56 -0.74 0.78 -1.06 2 -0.1 0.34 -0.2 0.3 -0.28 0.17 -0.049 -0.1048 -0.075 -0.2192 -0.075 -0.335 0 -0.1158 0.026 -0.2301 0.075 -0.335 0.118 -0.4119 0.322 -0.7938 0.6 -1.12 0.48 -0.57 0.31 -0.69 0.47 -1 0.16 -0.31 0.48 -0.45 0.59 -0.61 0.127 -0.2416 0.202 -0.5074 0.22 -0.78 0.17 -0.92 1.25 -0.45 0.71 -0.15Z" stroke-width="1"></path>
  <path fill="#1c1c1e" d="M121.6 54.23c0 0.94 -0.67 0.82 -1.07 0.87 -0.067 0.0046 -0.132 0.0287 -0.186 0.0693 -0.054 0.0406 -0.095 0.0959 -0.119 0.1594 -0.023 0.0634 -0.027 0.1322 -0.012 0.1981 0.015 0.0659 0.049 0.1261 0.097 0.1732 0.22 0.23 1.55 0.89 0.94 1.39 -0.61 0.5 -2.07 0.76 -1.47 1.83 0.3 0.52 0.83 1.53 0.29 1.78 -1.12 0.51 -0.95 1 -1.72 1.18 -0.282 0.0441 -0.549 0.1517 -0.783 0.3145 -0.234 0.1629 -0.428 0.3767 -0.567 0.6255 0 0.17 -0.08 0.14 -0.22 0.07 -0.69 -0.44 -1.63 0.14 -1.17 1.15 0 0.08 -0.23 0 -0.4 0.2s-0.19 0.58 -0.08 0.87c0.36 0.91 0.67 1 0.5 1.26 -0.101 0.2107 -0.154 0.4413 -0.154 0.675 0 0.2337 0.053 0.4643 0.154 0.675 0.117 0.2437 0.247 0.4808 0.39 0.71 0 0.08 0.23 0.24 0 0.3 -1.34 0.29 -1.7 1.17 -1.91 1.17 0 0 -0.09 -0.07 -0.11 -0.26 0.008 -0.622 0.051 -1.243 0.13 -1.86 0.26 -1.92 -0.7 -2.12 -0.23 -3.79 0.31 -1.06 0.23 -2 -0.75 -2.49 -0.65 -0.34 -1.38 -0.63 -1.49 -1.39 -0.06 -0.49 -0.28 -0.61 -0.73 -0.4 -0.406 0.2013 -0.864 0.27 -1.311 0.1964 -0.447 -0.0735 -0.859 -0.2857 -1.179 -0.6064 -0.29 -0.26 -0.55 -0.27 -0.7 0.07 -0.47 1.08 -2.86 0.19 -2.84 -1 0 -0.39 -0.42 -0.76 -0.7 -0.31 -0.91 1.55 -3.7 1.39 -4.17 -0.37 -0.09 -0.36 -0.53 -0.65 -0.7 -0.19 -0.1676 0.4016 -0.47 0.7322 -0.8552 0.9349 -0.3851 0.2026 -0.8289 0.2645 -1.2548 0.1751 -0.47 -0.07 -0.67 0.09 -0.67 0.57 -0.0114 0.1701 -0.0629 0.3351 -0.1503 0.4815 -0.0875 0.1464 -0.2083 0.27 -0.3527 0.3607 -0.1443 0.0907 -0.3081 0.146 -0.4779 0.1612 -0.1699 0.0153 -0.3409 -0.0099 -0.4991 -0.0734 -0.1346 -0.0434 -0.2804 -0.037 -0.4108 0.018 -0.1303 0.0551 -0.2365 0.1552 -0.2992 0.282 -0.2675 0.3922 -0.6536 0.6883 -1.1018 0.8449 -0.4481 0.1566 -0.9347 0.1654 -1.3882 0.0251 0 0 -0.53 -0.06 -0.51 0.39 0.16 2 -0.85 1.62 -1.07 3.68 -0.0644 0.7296 -0.1916 1.4522 -0.38 2.16 -0.1789 -0.1123 -0.3237 -0.2713 -0.4189 -0.4599 -0.0952 -0.1885 -0.137 -0.3995 -0.1211 -0.6101 -0.0135 -0.5402 0.0335 -1.0802 0.14 -1.61 0.28 -1.74 0 -2.41 0 -4.78 0.0013 -0.0407 -0.0054 -0.0813 -0.0197 -0.1194 -0.0144 -0.0381 -0.0361 -0.0731 -0.064 -0.1028 -0.0278 -0.0297 -0.0613 -0.0536 -0.0984 -0.0704 -0.0371 -0.0168 -0.0772 -0.0261 -0.1179 -0.0274 -0.4307 0.0195 -0.862 -0.0243 -1.28 -0.13 -1 -0.3 -0.78 -1 -0.67 -2.3 0.07 -1 -0.31 -1.17 -0.92 -1.18 -1.37 0 -0.14 -1.9 0.51 -3.08 0 0 0.48 -0.68 -0.07 -0.72 -0.55 -0.04 -0.81 -0.53 -1 -1 -0.33 -0.77 1.15 -1 2.16 -1.33 0.38 -0.13 0.39 -0.42 0.11 -0.64 -0.5129 -0.4993 -0.8168 -1.175 -0.85 -1.89 0.17 -1.27 2.66 -0.58 2.9 -0.57 0.4 0 0.32 -0.38 0.21 -0.76 -0.23 -0.82 0.25 -2 1 -1.57 0.75 0.43 2.14 2.12 2.19 0.87 0 -0.52 -0.57 -3 1.48 -1.49 0.2 0.14 0.38 0.33 0.6 0.46 0.54 0.33 0.89 0.13 0.9 -0.49 0 -2 1.65 -3.8 2.74 -2.39 0.29 0.37 0.63 1.07 0.85 1.33 0.029 0.0493 0.072 0.0889 0.123 0.114 0.051 0.0251 0.109 0.0345 0.165 0.027 0.057 -0.0075 0.11 -0.0315 0.153 -0.069 0.043 -0.0376 0.074 -0.0869 0.089 -0.142 0.043 -0.1444 0.076 -0.2913 0.1 -0.44 0.78 -2.9 2.13 -1 2.25 -0.43 0.07 0.43 0.11 0.66 0.42 0.66s0.24 -0.39 0.49 -1c0.32 -0.81 2 -1.75 2.46 -0.83 0.46 0.92 0.52 1.72 0.92 1.62 0.4 -0.1 0.36 -0.78 0.76 -1.55 0.199 -0.307 0.488 -0.5446 0.828 -0.6797 0.339 -0.135 0.713 -0.1609 1.068 -0.0741 0.355 0.0869 0.674 0.2822 0.914 0.5589 0.239 0.2766 0.386 0.6209 0.42 0.9849 0 0 0 0.55 0.25 0.66 0.25 0.11 0.42 -0.36 0.84 -0.83 1.5 -1.64 3.93 -1.94 3.08 1.78 -0.1 0.45 0.07 0.62 0.54 0.57 2.16 -0.21 1.91 1.21 1.27 2.17 -0.14 0.22 -0.35 0.4 -0.2 0.69 0.15 0.29 0.44 0.18 0.69 0.19 0.63 0 2.22 -0.13 1.29 1.83 -0.23 0.49 -0.1 0.7 0.46 0.74 1.6 0.11 1.78 1.42 0.84 2.16 -0.062 0.0386 -0.113 0.0924 -0.149 0.1562 -0.035 0.0639 -0.054 0.1358 -0.054 0.2088 0 0.073 0.019 0.1449 0.054 0.2087 0.036 0.0639 0.087 0.1177 0.149 0.1563 0.349 0.2049 0.649 0.4855 0.875 0.8213 0.227 0.3357 0.376 0.718 0.435 1.1187Z" stroke-width="1"></path>
  <path fill="#ffffff" d="M117.81 70.73c0.084 1.2911 -0.215 2.5783 -0.86 3.7 -0.182 0.423 -0.44 0.8093 -0.76 1.14 -0.19 0.2026 -0.428 0.3532 -0.692 0.4372 -0.265 0.0841 -0.546 0.0988 -0.818 0.0428 -0.61 -0.18 -1.05 -0.54 -1.26 0.19 -0.464 2.3222 -1.426 4.516 -2.82 6.43 -4.16 5.42 -10.7 6.23 -14.24 3.57 -2.46 -1.83 -5.11 -6.11 -5.91 -10.94 -0.2187 -3.443 -0.0341 -6.8998 0.55 -10.3 0.26 -1.14 1.11 -1.52 1 -2.85 0 -0.18 0 -0.23 0.23 -0.18 0.4647 0.1243 0.9562 0.1048 1.4096 -0.0559 0.4535 -0.1606 0.8476 -0.4549 1.1304 -0.8441 0.18 -0.23 0.38 -0.19 0.59 -0.18 0.83 0.07 1.82 -0.54 1.85 -1.32 -0.0027 -0.0306 0.002 -0.0614 0.0138 -0.0897 0.0117 -0.0284 0.0302 -0.0535 0.0538 -0.0731 0.0236 -0.0197 0.0516 -0.0334 0.0816 -0.0398 0.0301 -0.0065 0.0612 -0.0056 0.0908 0.0026 0.3684 0.0244 0.7377 -0.0308 1.0828 -0.162 0.3452 -0.1311 0.658 -0.3351 0.9172 -0.598 0.13 -0.12 0.19 -0.16 0.28 0 0.252 0.3318 0.568 0.6101 0.928 0.8187 0.361 0.2086 0.759 0.3434 1.173 0.3964 0.413 0.0531 0.832 0.0234 1.234 -0.0874 0.402 -0.1108 0.777 -0.3003 1.105 -0.5577 0.12 -0.08 0.14 -0.13 0.24 0 0.82 1.43 3.08 1.57 3.48 1.11 0.25 -0.29 0.41 -0.16 0.66 -0.05 0.333 0.1913 0.701 0.3138 1.083 0.3601 0.381 0.0464 0.768 0.0158 1.137 -0.0901 0.21 -0.07 0.27 0 0.34 0.15 0.76 1.81 2.82 0.82 2.2 3 -0.55 2 0.4 2.09 0.16 4.21 -0.084 0.6264 -0.104 1.2596 -0.06 1.89 0.13 0.72 0.55 0.87 1 0.54 0.385 -0.3183 0.796 -0.6027 1.23 -0.85 0.223 -0.1207 0.473 -0.1818 0.727 -0.1771 0.253 0.0046 0.501 0.0747 0.72 0.2036 0.218 0.1288 0.4 0.312 0.526 0.5316 0.127 0.2197 0.195 0.4684 0.197 0.7219Z" stroke-width="1"></path>
  <path fill="#2dd4bf" d="M116.36 90.29c0.86 5 -1.43 8.31 -4.8 12 -2.12 2.34 -8.89 6.06 -8.94 6.09 -1.85 1.11 -5.6 -2 -6.7 -3 -2.73 -2.68 -5 -4.54 -6 -6.8 -1.2872 -2.4847 -1.7496 -5.3148 -1.32 -8.08 0.1653 -1.2049 0.6141 -2.3534 1.3094 -3.3512 0.6954 -0.9979 1.6175 -1.8165 2.6906 -2.3888l0.77 -0.37c0.12 -0.06 0.17 0 0.25 0.07 0.26 0.33 1.09 1.27 1.2 1.37 0.1342 0.1258 0.2348 0.2832 0.2924 0.4579 0.0577 0.1747 0.0706 0.3611 0.0376 0.5421 0 3.33 -1.42 5.54 1.74 9.33 1.432 1.889 3.0836 3.601 4.92 5.1 0.3 0.25 0.36 0.23 0.62 0 1 -0.83 1.94 -1.65 2.88 -2.51 3 -2.7 6.93 -7.59 4.58 -10.87 -0.279 -0.5115 -0.713 -0.9212 -1.24 -1.17 -0.1 0 -0.08 -0.16 -0.1 -0.25 -0.17 -0.63 0.21 -1 0.62 -1.29 0.41 -0.29 0.86 -0.83 1.27 -1.26 0.047 -0.0587 0.109 -0.1043 0.179 -0.1323 0.07 -0.028 0.146 -0.0376 0.221 -0.0277 2.87 0.17 5.05 3.8 5.52 6.54Z" stroke-width="1"></path>
  <path fill="#ffffff" d="M109.9 90.15c0.39 3 -5.26 8.53 -7.67 10.25 -0.02 0.022 -0.044 0.039 -0.07 0.05 -0.027 0.012 -0.056 0.018 -0.085 0.018 -0.029 0 -0.058 -0.006 -0.085 -0.018 -0.026 -0.011 -0.05 -0.028 -0.07 -0.05 -1.881 -1.3964 -3.5026 -3.1125 -4.79 -5.07 -0.4679 -0.6656 -0.8986 -1.3567 -1.29 -2.07 -0.53 -1.17 -0.21 -2 -0.08 -5.17l0 -0.3c0.0428 0.0139 0.0832 0.0341 0.12 0.06 2.88 4 9.15 3.35 11.66 -0.78 0.057 -0.0837 0.137 -0.1495 0.23 -0.19 0.005 0.0466 0.005 0.0935 0 0.14 0.001 0.86 0.126 1.7154 0.37 2.54 0.024 0.049 0.059 0.0916 0.103 0.1246 0.043 0.033 0.093 0.0554 0.147 0.0654 0.08 0 0.19 -0.14 0.22 -0.23 0.11 -0.39 0.11 -0.4 0.47 -0.35 0.83 0.17 0.82 0 0.82 0.98Z" stroke-width="1"></path>
  <path fill="#2dd4bf" d="M109.7 176.91c0 -0.47 0 -2.15 -0.07 -3.11 -3.34 0.15 -9.32 0.65 -9.56 0.65 -0.24 0 -0.26 0.12 -0.24 0.29 0.1591 0.813 0.203 1.645 0.13 2.47 -0.0141 0.054 -0.0434 0.102 -0.0844 0.14 -0.0409 0.038 -0.0919 0.063 -0.1467 0.072 -0.0548 0.01 -0.1111 0.003 -0.1624 -0.018 -0.0512 -0.022 -0.0951 -0.058 -0.1265 -0.104 -0.1532 -0.909 -0.2367 -1.828 -0.25 -2.75 -0.0009 -0.074 -0.0206 -0.147 -0.0573 -0.212 -0.0367 -0.065 -0.0893 -0.119 -0.1527 -0.158 -0.8 -0.64 -1.52 -1.26 -1.77 -1.43 -0.1 0.39 0 1 -0.07 1.83 -0.0228 0.278 0.0227 0.557 0.1326 0.813 0.1098 0.256 0.2805 0.482 0.4974 0.657 1.63 1.54 1.74 1.9 2.42 1.86 3.035 0.005 6.067 -0.175 9.08 -0.54 0.39 -0.05 0.45 -0.09 0.43 -0.46Z" stroke-width="1"></path>
  <path fill="#2dd4bf" d="M108.58 173c0.028 0.039 0.048 0.083 0.06 0.13h-0.14c-9.11 0.65 -8.81 1 -9.48 0.2 -0.4052 -0.379 -0.8362 -0.73 -1.29 -1.05 -0.0485 -0.046 -0.0891 -0.1 -0.12 -0.16l0.19 -0.08c0.32 -0.05 6.44 -0.49 8.84 -0.63 0.21 0.03 0.15 0.06 1.94 1.59Z" stroke-width="1"></path>
  <path fill="#2dd4bf" d="M106.92 160c0 0.28 -0.15 0.43 -0.42 0.51 -0.66 0.2 -1.33 0.41 -2 0.64 -0.25 0.08 -0.27 0 -0.27 -0.22 -0.018 -0.593 -0.161 -1.176 -0.42 -1.71 -0.53 -1.09 -0.87 -1.16 -0.51 -1.28l2.08 -0.68c0.26 -0.1 0.38 -0.15 0.62 0.15 0.562 0.75 0.883 1.653 0.92 2.59Z" stroke-width="1"></path>
  <path fill="#ffffff" d="M101 162.64c-1.35 0.43 -14.14 4.47 -15.67 4.94 -0.22 0.07 -0.58 0.25 -0.61 0.16 -0.03 -0.09 -0.48 -0.79 -0.2 -1.24 0.14 -0.24 0.51 -0.43 1.28 -0.57 5.37 -1.65 12.62 -4 15.35 -4.88 0.21 0.29 0.08 1.51 -0.15 1.59Z" stroke-width="1"></path>
  <path fill="#2dd4bf" d="M91.81 140.18c0 1.3 0 1.67 -0.46 2.12 -6.16 6.38 -7.53 7.93 -8.07 8.38 0 -0.29 0.1 -2 0.14 -2.37 0.009 -0.101 0.0385 -0.199 0.0867 -0.289 0.0481 -0.089 0.1139 -0.168 0.1933 -0.231 0.71 -0.67 5.9 -5.75 6.09 -6 0.19 -0.25 0 -0.91 -0.46 -0.46 -5.42 5.36 -3.76 3.69 -5.74 5.76l-0.08 0.06c-0.025 -0.036 -0.042 -0.077 -0.05 -0.12 0.17 -3.75 0 0.06 0.18 -7.16 0 -0.35 0 -0.36 0.32 -0.36l7.42 0.21c0.32 0.05 0.43 0.15 0.43 0.46Z" stroke-width="1"></path>
  <path fill="#ffffff" d="M100.74 160c0.094 0.197 0.148 0.412 0.16 0.63 0 0.07 0 0.32 -0.15 0.36 -0.15 0.04 -14.61 4.84 -15.75 5.21 -0.1566 0.049 -0.3258 0.035 -0.4728 -0.037 -0.147 -0.073 -0.2605 -0.199 -0.3172 -0.353 -0.1942 -0.504 -0.5023 -0.955 -0.9 -1.32 -0.07 -0.06 -0.09 -0.33 0 -0.38 0.48 -0.17 14.81 -4.75 16.35 -5.26 0.16 0 0.3 0.15 0.74 0.57l-0.28 0.12C85 164.42 84.39 164.77 84.51 165c0.12 0.23 0.82 -0.21 0.93 -0.24 3.83 -1.07 7.4 -2.36 14.82 -4.68 0.151 -0.066 0.316 -0.093 0.48 -0.08Z" stroke-width="1"></path>
  <path fill="#ffffff" d="M89.79 68.81c0.0249 0.4263 0.0249 0.8537 0 1.28 -0.0042 -0.0466 -0.0042 -0.0934 0 -0.14 -0.19 -0.87 -1.21 -1.67 -1.86 -1.12 -0.1682 0.1201 -0.2951 0.2894 -0.3631 0.4846 -0.0681 0.1952 -0.074 0.4067 -0.0169 0.6054 0.09 0.37 0.51 0.39 0.58 0l0 -0.15c0 -0.04 0.15 -0.33 0.27 -0.39 0.12 -0.06 0.3 0.08 0.38 0.18 0.2265 0.3167 0.4272 0.6511 0.6 1 0.33 0.66 -0.71 0 -1.13 1.38 -0.21 0.71 0.51 1.29 0.91 0.88 0 -0.08 0 -0.28 -0.07 -0.4s-0.33 -0.16 -0.21 -0.34c0.1162 -0.1864 0.2736 -0.3438 0.46 -0.46 0.21 -0.11 0.4 0 0.4 0.3l0 2.39c0 0.32 -0.22 0.45 -0.53 0.42 -0.9 -0.09 -1.58 -1 -2 -3.24 -0.47 -2.48 0.08 -3.82 1.61 -3.72 0.2495 0.0516 0.4768 0.1793 0.6506 0.3656 0.1737 0.1863 0.2853 0.4219 0.3194 0.6744Z" stroke-width="1"></path>
  <path fill="#ffffff" d="M86.91 64.65c0.82 -0.18 0 0.72 -0.44 0.84 -2.13 0.56 -0.61 0.05 -4.18 1.46 -2 0.79 -1.11 0.31 -3.81 2 -0.1 0.06 -0.59 0.26 -0.49 0.54 0.1 0.28 0.49 0.14 0.76 0 1.71 -0.78 0.55 -0.67 4.16 -2.11 0.9984 -0.4421 2.032 -0.8 3.09 -1.07 0.24 -0.06 0.27 0 0.25 0.19 -0.0151 0.1693 -0.0645 0.3339 -0.1453 0.4834 -0.0808 0.1496 -0.1913 0.2812 -0.3247 0.3866 -0.16 0.13 -0.29 0.2 -0.46 0 -0.17 -0.2 -0.48 -0.13 -0.71 -0.07 -0.23 0.06 -3.07 1.38 -3.19 1.47 -1.1344 0.9176 -2.3493 1.7309 -3.63 2.43 -0.46 0.28 -0.1 0.81 0.34 0.55 1.2959 -0.675 2.5162 -1.4862 3.64 -2.42 1.0061 -0.519 2.0411 -0.9797 3.1 -1.38 -0.078 0.4154 -0.2538 0.8062 -0.5129 1.1401 -0.2591 0.3339 -0.5941 0.6012 -0.9771 0.7799 -1.5219 0.8971 -2.9491 1.9458 -4.26 3.13 -0.5 0.51 -0.09 0.27 -1.36 4.8 -0.4215 1.092 -0.9022 2.1603 -1.44 3.2 -0.6345 0.9885 -1.5312 1.7813 -2.59 2.29 -0.25 0.41 0.1 0.48 0.19 0.46 1.31 -0.22 3 -2 3.49 -2.72 1.72 -2.46 1.65 -2.51 2.29 -3 1.48 -1 2.5 -1.84 5.2 -3.94 0.23 -0.18 0.31 -0.13 0.36 0.15 0.16 1 -3.18 4 -4 5 -0.2105 0.2216 -0.3798 0.4789 -0.5 0.76 -0.8853 2.2162 -2.2755 4.1954 -4.06 5.78 -0.42 0.39 -0.36 1 -0.37 1.85 -0.0787 1.8199 -0.0553 3.6427 0.07 5.46 0.31 7.36 0.08 9.86 0.92 18.72 -3.55 -0.46 -8.05 -0.69 -10.37 -0.85 -0.12 0 -0.23 -0.07 -0.35 -0.08 -0.12 -0.01 -0.14 -0.07 -0.11 -0.2 0.03 -0.13 -0.1 0.61 2.9 -11.81 1.25 -5.17 2.09 -11.11 2.64 -12.81 0.77 -2.4 -0.44 -2.3 1.09 -5.64 0.63 -1.37 0.52 -1.66 2.18 -5.91 0.6889 -1.5712 1.2572 -3.1926 1.7 -4.85 0.28 -1 2.21 -2.09 3.08 -2.57 1.1583 -0.4335 2.2902 -0.9344 3.39 -1.5 0.58 -0.39 1.03 -0.43 3.44 -0.94Z" stroke-width="1"></path>
  <path fill="#ffffff" d="M82.91 136.54c0 3 0.07 7.78 -0.4 14.77 -0.0057 0.1 -0.035 0.198 -0.0853 0.285 -0.0504 0.086 -0.1205 0.16 -0.2047 0.215 -0.36 0.32 -0.74 1.09 -1.58 1.12 -0.58 0 -50.51 -1.83 -51.09 -2 -0.58 -0.17 -0.6 -0.56 -0.72 -1.28 -0.8761 -4.342 -1.4872 -8.734 -1.83 -13.15 -0.07 -0.74 -0.07 -1.49 -0.13 -2.23 0 0 -0.68 -9.12 -0.68 -10.25 0 -1.94 -0.27 -2.43 -0.16 -9 0.06 -3.07 1.63 -3.36 3.52 -3.64 5.3132 -0.567 10.6601 -0.754 16 -0.56 0.1 0 11.59 0 19.85 0.69 7.74 0.66 14.26 0.81 16.58 2.32 2.32 1.51 1.1 4.57 0.93 22.71ZM79.33 152c0.23 0 0.72 -0.05 0.71 -0.24 -0.01 -0.19 -0.16 -0.22 -0.71 -0.3 -1.18 -0.16 -49.28 -1.93 -49.49 -1.92 -0.21 0.01 -0.29 0.11 -0.25 0.22 0.04 0.11 0.11 0.27 0.44 0.27S79.32 152 79.33 152Zm-25.48 -25.22s4.15 0.61 3.42 4.44c-0.1944 1.087 -0.8087 2.053 -1.71 2.69 -0.6783 0.546 -1.5246 0.84 -2.3952 0.833 -0.8706 -0.007 -1.7119 -0.316 -2.381 -0.873 -0.669 -0.557 -1.1246 -1.329 -1.2894 -2.184 -0.1647 -0.855 -0.0285 -1.74 0.3856 -2.506 0.38 -0.8 0.47 -1 0.4 -1.07 -0.0277 -0.015 -0.0586 -0.023 -0.09 -0.023s-0.0623 0.008 -0.09 0.023c-1 0.63 -1.31 2.15 -1.23 3.41 0.0579 0.743 0.3066 1.458 0.722 2.077s0.9834 1.12 1.6491 1.455c0.6657 0.334 1.4066 0.492 2.1509 0.456 0.7443 -0.035 1.467 -0.262 2.098 -0.658 3.65 -2 3.49 -8 -1.5 -8.61 -0.0632 0.009 -0.1231 0.033 -0.1739 0.072 -0.0508 0.038 -0.0908 0.089 -0.1161 0.148 0.0155 0.12 0.0679 0.232 0.15 0.32Z" stroke-width="1"></path>
  <path fill="#ffffff" d="M84.09 166.93c0.08 0.39 -0.06 0.65 -0.47 0.67 -0.41 0.02 -1.59 0.05 -1.77 0.05 -0.18 0 -0.39 0.13 -0.45 0.09 0.0031 -0.161 -0.0418 -0.319 -0.1291 -0.455 -0.0873 -0.135 -0.2129 -0.241 -0.3609 -0.305 -0.0401 -0.171 -0.0401 -0.349 0 -0.52 0.45 -0.54 1.26 -1 1.7 -1.5 0.13 -0.16 0.22 -0.12 0.33 0 0.5867 0.515 0.9903 1.206 1.15 1.97Z" stroke-width="1"></path>
  <path fill="#2dd4bf" d="M68 101.29c0.0049 0.05 0.0049 0.1 0 0.15 -0.25 1 -2 8.28 -2.15 9.11 -0.06 0.3 -0.24 0.32 -0.33 0.32 -0.49 0 -1 -0.08 -1.47 -0.1 -0.17 0 -0.17 -0.1 -0.13 -0.2 0.6591 -1.226 1.1534 -2.534 1.47 -3.89 0.31 -1.61 1.18 -3 2.49 -5.28 0.034 -0.043 0.0745 -0.08 0.12 -0.11Z" stroke-width="1"></path>
  <path fill="#2dd4bf" d="M68.81 163.9c0.4 0.08 0.44 0.16 0.2 0.49 -1.86 2.58 -2.87 3.93 -2.91 4 -0.0425 0.106 -0.1247 0.192 -0.2293 0.239 -0.1045 0.046 -0.2232 0.05 -0.3307 0.011 -0.36 -0.14 -5.43 -1.23 -5.86 -1.41 -0.0115 -0.023 -0.0174 -0.049 -0.0174 -0.075 0 -0.026 0.0059 -0.052 0.0174 -0.075 0.0586 -0.086 0.1256 -0.167 0.2 -0.24 3.31 -3.84 3.12 -3.68 3.41 -3.84 0.55 0.05 5.16 0.82 5.52 0.9Z" stroke-width="1"></path>
  <path fill="#ffffff" d="M57.56 130.51c-0.0065 1.156 -0.447 2.267 -1.2341 3.114 -0.7872 0.846 -1.8636 1.366 -3.0159 1.456 -2.3 0 -4.08 -2.29 -4.08 -4.57 0.0524 -1.069 0.5141 -2.078 1.2894 -2.816 0.7754 -0.738 1.805 -1.15 2.8756 -1.15s2.1002 0.412 2.8755 1.15c0.7754 0.738 1.2371 1.747 1.2895 2.816Z" stroke-width="1"></path>
  <path fill="#2dd4bf" d="M138.7 154.67c-5.53 1.8 -17 1.13 -20.81 -0.79 -0.17 -0.09 -0.22 -0.07 -0.2 0.1 0 0.41 1.56 14.47 2 18.86 0.06 0.71 1 1 1.92 1.37 4.32 1.236 8.88 1.381 13.27 0.42 0.599 -0.188 1.181 -0.426 1.74 -0.71 0.065 -0.035 0.121 -0.084 0.166 -0.143 0.045 -0.058 0.077 -0.125 0.094 -0.197 0 0 2.08 -18.66 2.08 -18.68 0.04 -0.29 -0.02 -0.3 -0.26 -0.23Zm-2.29 5.33c-0.757 1.008 -1.608 1.942 -2.54 2.79 -0.102 0.108 -0.159 0.251 -0.16 0.4 -0.019 0.982 -0.336 1.936 -0.908 2.734 -0.571 0.799 -1.372 1.406 -2.296 1.74 -0.923 0.335 -1.927 0.382 -2.878 0.135 -0.951 -0.247 -1.804 -0.777 -2.448 -1.519 -0.876 -0.947 -1.362 -2.19 -1.36 -3.48 0 -0.26 0 -0.27 -0.22 -0.13 -1.95 1.32 -1.27 1.14 -2 1.52 -0.11 0.06 -0.31 0 -0.24 -0.24 0.2 -0.73 0.81 -1.14 2.33 -2.12 0.075 -0.04 0.141 -0.095 0.193 -0.162 0.051 -0.068 0.088 -0.145 0.107 -0.228 1.25 -4.56 7.86 -4.84 9.47 0.17 -0.006 0.067 -0.006 0.133 0 0.2 0 0.14 0.1 0.26 0.26 0.09 2.15 -2.29 2 -2.32 2.19 -2.34 0.51 -0.1 0.79 -0.01 0.5 0.44Z" stroke-width="1"></path>
  <path fill="#ffffff" d="M91.81 140.18c0 1.3 0 1.67 -0.46 2.12 -6.16 6.38 -7.53 7.93 -8.07 8.38 0 -0.29 0.1 -2 0.14 -2.37 0.009 -0.101 0.0385 -0.199 0.0867 -0.289 0.0481 -0.089 0.1139 -0.168 0.1933 -0.231 0.71 -0.67 5.9 -5.75 6.09 -6 0.19 -0.25 0 -0.91 -0.46 -0.46 -5.42 5.36 -3.76 3.69 -5.74 5.76l-0.08 0.06c-0.025 -0.036 -0.042 -0.077 -0.05 -0.12 0.17 -3.75 0 0.06 0.18 -7.16 0 -0.35 0 -0.36 0.32 -0.36l7.42 0.21c0.32 0.05 0.43 0.15 0.43 0.46Z" stroke-width="1"></path>
  <path fill="#1c1c1e" d="M193.69 136.1c-0.22 -0.1 -0.34 0 -3.47 -0.08 -0.33 0 -0.34 0 -0.33 -0.35 0.11 -4 1.12 -31.39 1.16 -35.75 0.017 -0.0967 0.011 -0.1959 -0.016 -0.2902 -0.027 -0.0943 -0.075 -0.1813 -0.14 -0.2544 -0.065 -0.0731 -0.147 -0.1305 -0.237 -0.1678 -0.091 -0.0373 -0.189 -0.0536 -0.287 -0.0476 -7.32 -0.77 -24.85 -2.43 -31.3 -3.16 -0.624 -0.1237 -1.272 -0.0134 -1.82 0.31 -0.61 0.41 0.68 -0.37 -12.91 7.22 -0.102 0.047 -0.188 0.124 -0.247 0.22s-0.087 0.207 -0.083 0.32c0.36 8.54 0.79 26.92 0.91 31.74 0 0.23 -0.07 0.31 -0.3 0.3l-5.24 0c-0.18 0 -0.16 -0.07 0 -0.2 5.56 -5.91 2.62 -11.89 2.44 -13.13 -0.084 -1.27 -0.367 -2.519 -0.84 -3.7 -1.202 -2.304 -1.972 -4.809 -2.27 -7.39 -0.41 -3.67 -0.39 -4.59 -0.93 -7.44 -0.15 -1.165 -0.536 -2.288 -1.134 -3.299 -0.598 -1.0106 -1.397 -1.889 -2.346 -2.581 -0.278 -0.1899 -0.472 -0.4803 -0.54 -0.81 -0.78 -3.15 -1.92 -7.32 -2.64 -10 -0.041 -0.0903 -0.046 -0.1932 -0.012 -0.2867s0.103 -0.17 0.192 -0.2133c1.86 -0.9 0.79 -5.91 -1.85 -5.61 -0.22 0 -0.24 -0.12 -0.31 -0.25 -0.71 -1.47 -0.51 -2.13 -1.56 -8.69 -0.042 -0.6589 -0.177 -1.3085 -0.4 -1.93 -0.133 -0.3168 -0.205 -0.6563 -0.21 -1 0.018 -0.5033 -0.137 -0.9974 -0.44 -1.4 -1.649 -1.4862 -3.426 -2.8247 -5.31 -4 -0.31 -0.13 -0.82 -0.24 -1.11 -0.4 -0.54 -0.3 -1 -0.51 -1.51 -0.82 -0.188 -0.0925 -0.382 -0.1726 -0.58 -0.24 0.82 -0.4 1.29 -0.49 1.45 -0.77 0.16 -0.28 0.57 -0.37 1.08 -0.68 0.71 -0.44 0.37 -1.77 0 -2.42 -0.033 -0.0332 -0.057 -0.0741 -0.071 -0.119 -0.013 -0.045 -0.014 -0.0925 -0.004 -0.1383 0.01 -0.0457 0.031 -0.0883 0.061 -0.1237 0.031 -0.0354 0.07 -0.0626 0.114 -0.079 0.38 -0.22 0.79 -0.41 1 -0.57 0.144 -0.0942 0.264 -0.2198 0.353 -0.3672 0.088 -0.1474 0.142 -0.3129 0.157 -0.4841 0.016 -0.1712 -0.008 -0.3437 -0.068 -0.5045 -0.061 -0.1608 -0.157 -0.3058 -0.282 -0.4242 -0.53 -0.55 0.69 -0.32 0.5 -1.84 -0.079 -0.766 -0.435 -1.4769 -1 -2 -0.26 -0.26 -0.26 -0.26 -0.07 -0.56 0.177 -0.2518 0.289 -0.5439 0.325 -0.8498 0.036 -0.3059 -0.005 -0.616 -0.119 -0.902 -0.114 -0.2861 -0.298 -0.5391 -0.535 -0.7361 -0.237 -0.197 -0.519 -0.3318 -0.821 -0.3921 -0.2 -0.06 -0.25 -0.13 -0.22 -0.35 0.2 -1.42 -0.12 -2.27 -1.57 -2.29 -0.24 0 -0.26 -0.07 -0.17 -0.27 0.52 -1.18 0.41 -2.85 -1.69 -2.82 -0.17 0 -0.23 -0.06 -0.19 -0.25 0.64 -3.28 -2.06 -4.17 -4.2 -2.06 -0.2 0.19 -0.26 0.11 -0.34 -0.07 -0.196 -0.386 -0.49 -0.7142 -0.851 -0.9521 -0.362 -0.2379 -0.78 -0.3774 -1.212 -0.4047 -0.432 -0.0272 -0.864 0.0587 -1.253 0.2493 -0.388 0.1905 -0.721 0.4792 -0.964 0.8375l-0.24 0.37c-0.09 -0.11 -0.18 -0.23 -0.26 -0.35 -0.81 -1.31 -2.59 -0.62 -3.42 0.4 -0.21 0.26 -0.2 0.27 -0.42 0 -1.42 -1.68 -2.52 -0.12 -2.75 0.61 -0.15 0.51 -0.26 0.16 -0.32 0.07 -1.61 -2.39 -4 -0.47 -4.15 2.05 0 0.17 -0.07 0.22 -0.21 0.11 -0.64 -0.48 -1.57 -1.17 -2.26 -0.71 -0.69 0.46 -0.57 1.58 -0.68 1.87 -0.2713 -0.1992 -0.5316 -0.4129 -0.78 -0.64 -1 -0.7 -2.37 -0.3 -2.33 1.82 0 0.15 0 0.21 -0.21 0.16 -1.53 -0.5 -2.63 0.12 -2.78 1.3 -0.0496 0.6273 0.0823 1.2556 0.38 1.81 0.16 0.3 0.12 0.33 -0.22 0.43 -1.22 0.36 -2 0.66 -1.63 1.88 0.1183 0.4658 0.3808 0.8823 0.75 1.19 0.18 0.15 0.17 0.23 0.07 0.41 -0.4039 0.6948 -0.6784 1.4572 -0.81 2.25 -0.11 1 0.35 1.47 0.84 1.47 1.42 0 -0.17 1.42 0.81 2.8 0.2192 0.2826 0.5102 0.5012 0.8426 0.6331 0.3324 0.1319 0.6941 0.1723 1.0474 0.1169 0.23 0 0.22 0 0.21 0.2 0 1.43 0.26 2.61 0.12 3.79 -0.1248 0.6929 -0.1851 1.3959 -0.18 2.1 0 0.31 0.1 0.5 -0.3 0.52 -0.2966 -0.004 -0.591 0.0514 -0.8658 0.163 -0.2748 0.1117 -0.5245 0.2773 -0.7342 0.487 -0.69 0.73 -0.81 2 -0.55 3.63s1.27 4.38 3 4.06c0.33 -0.06 0.33 0 0.42 0.34 0.5688 2.7427 1.6255 5.3609 3.12 7.73 0.18 0.31 0.16 0.39 -0.16 0.51 -0.987 0.3977 -1.8787 0.9999 -2.6164 1.7668 -0.7376 0.767 -1.3046 1.6814 -1.6636 2.6832 -0.0228 0.0989 -0.0736 0.1892 -0.1463 0.2602 -0.0727 0.0709 -0.1642 0.1194 -0.2637 0.1398 -0.52 0.14 -6.49 2.49 -10.68 4.52 -0.29 0.14 -0.3 0.12 -0.36 -0.18s-0.19 -3.71 -0.13 -6.15c0 -0.79 0.54 -0.91 1 -1.42 1.3459 -1.4886 2.4555 -3.1749 3.29 -5 0.42 -1.07 1.12 -1.1 4.09 -4.67 0.2623 -0.2534 0.4503 -0.5736 0.5437 -0.9261 0.0934 -0.3525 0.0887 -0.7239 -0.0137 -1.0739 -0.16 -0.48 -0.47 -0.66 -0.93 -0.48 -0.1905 0.0777 -0.3689 0.1821 -0.53 0.31 -0.62 0.48 -3.68 3 -5 3.83 -0.0859 0.0707 -0.1937 0.1094 -0.305 0.1094 -0.1113 0 -0.2191 -0.0387 -0.305 -0.1094 -0.2 -0.16 -0.17 -0.32 -0.11 -0.55 0.8 -3 0.59 -3.23 1.4 -3.92 1.1623 -0.9226 2.3888 -1.7613 3.67 -2.51 0.7093 -0.4062 1.2726 -1.0255 1.61 -1.77 0.1 -0.2515 0.2885 -0.4577 0.53 -0.58 0.2916 -0.1565 0.5372 -0.3865 0.7126 -0.6671s0.2745 -0.6022 0.2874 -0.9329c0.0042 -0.1527 0.0434 -0.3024 0.1144 -0.4376 0.0711 -0.1352 0.1722 -0.2523 0.2956 -0.3424 0.2196 -0.1343 0.3976 -0.327 0.5141 -0.5565 0.1166 -0.2296 0.1671 -0.487 0.1459 -0.7435 -0.06 -0.37 -0.26 -0.65 -1 -0.48 -2.09 0.45 -3.18 0.52 -3.79 1.06 -0.61 0.54 -2.6 0.89 -4 1.88 -3.74 2.63 -1.89 1.4 -4.38 7.06 -1 2.19 -1.6 4.46 -2 5.4 -0.4 0.94 -0.69 1.66 -1 2.5 -0.4 1 0 2 -0.32 3.23 -3.87 18.12 -2.22 12.53 -4.29 16.21 -1 1.85 -2.14 3.52 -2.44 5.29 -0.3 1.77 -1 2.56 -1.46 3.89 0 0.15 -0.12 0.19 -0.25 0.18 -3 -0.22 -3.12 0 -17.3 -0.62 0 0 -10.47 0 -16.45 0.64 -4.27 0.49 -4 3.17 -4 4.39 0 2.32 0.19 7.53 0.25 9.09 0 0.92 0.72 11.62 0.73 11.64 0 0.36 0 0.39 -0.38 0.41 -0.1 0 -19.87 -0.06 -20.66 0 -0.31 0 -0.3 0.39 0 0.53l20.68 0c0.49 0 0.49 0 0.54 0.5 0.31 2.69 1.11 10.48 2 13.35 0.0579 0.243 0.182 0.465 0.3586 0.641 0.1765 0.177 0.3985 0.301 0.6414 0.359 1.86 0.51 49.17 2 51.07 2 0.2398 0.037 0.4849 0.019 0.7169 -0.052 0.2321 -0.071 0.4451 -0.193 0.6231 -0.358 0.45 -0.45 2.16 -2.22 10.32 -10.8 0.0835 -0.082 0.1483 -0.181 0.19 -0.29 0.1927 -0.72 0.257 -1.468 0.19 -2.21 0 -0.55 0 -0.65 -0.94 -0.68 -0.28 0 -6.93 -0.28 -7.65 -0.25 -0.23 0 -0.3 -0.13 -0.29 -0.39 0.12 -1.84 -0.22 -1.82 0.58 -1.82 10.64 0 60.51 -0.09 60.51 -0.09 0.24 0 0.31 0.1 0.3 0.31 0 1 -0.06 -0.75 0.11 4.83 0 1 -0.13 1.24 0.45 1.32 2.4 0.35 28.74 3.67 29.36 3.77 0.265 0.072 0.548 0.039 0.79 -0.09l13.48 -8.55c0.6 -0.38 0.6 -0.39 0.6 -1.14 0 -0.54 0.06 -0.46 0.5 -0.46 3.08 0 3.13 0 3.38 -0.06 0.08 -0.001 0.155 -0.034 0.211 -0.091 0.055 -0.058 0.085 -0.134 0.084 -0.214 -0.001 -0.08 -0.034 -0.155 -0.091 -0.211 -0.058 -0.055 -0.134 -0.085 -0.214 -0.084ZM129 82.52c1.07 -1.36 2.95 1.21 2.45 3 -0.32 1.13 -1.15 1.2 -1.64 0.83 -1.13 -0.85 -1.59 -2.82 -0.81 -3.83Zm-0.05 4c1 0.8 1.36 0.63 1.47 1.13 0.11 0.5 1.63 5.82 2.57 9.54 1.883 7.447 3.102 15.047 3.64 22.71 0.21 4.78 -2 10.29 -6.47 10 -2.34 -0.15 -4.12 -0.7 -6.16 -4.13 -1.65 -2.76 -1.32 -6.86 -1 -11.21 1.29 -15.17 1.63 -14.78 2.2 -27.39 0 -0.35 -0.11 -0.13 3.2 -0.81 0.106 -0.0361 0.221 -0.0382 0.329 -0.0059 0.107 0.0323 0.202 0.0972 0.271 0.1859l-0.05 -0.02Zm-4.7 -0.79c0.044 0.4476 0.166 0.8841 0.36 1.29 0 0.46 -0.16 3.77 -0.23 4.35 -0.07 0.58 -0.29 0.45 -0.87 0.17 -2.06 -1 -5.73 -2.38 -6 -2.46 -0.288 -0.0703 -0.552 -0.2185 -0.762 -0.4284 -0.21 -0.2098 -0.358 -0.4733 -0.428 -0.7616 -0.2 -0.63 -2 -4.21 -4.92 -4.85 -0.37 -0.08 -0.28 0 0.48 -1.19 0.95 -1.6027 1.664 -3.3338 2.12 -5.14 0.11 -0.36 0.17 -0.08 1.13 0 0.315 -0.003 0.625 -0.0723 0.911 -0.2032 0.286 -0.1309 0.541 -0.3207 0.749 -0.5568 0.14 -0.12 0.19 -0.1 0.32 0 0.435 0.246 0.808 0.588 1.09 1 0.57 0.94 1 0.85 1.35 1.93 0.8 2.35 1.24 3.83 3.58 4.7 0.309 0.1531 0.583 0.3692 0.803 0.6345 0.221 0.2652 0.383 0.5737 0.477 0.9055 0.06 0.28 -0.21 0.03 -0.16 0.63v-0.02Zm-5.82 -22.39c0.866 0.5515 1.788 1.0106 2.75 1.37 1.521 0.9746 2.986 2.0329 4.39 3.17 0.216 0.2106 0.388 0.4626 0.505 0.7409 0.116 0.2783 0.176 0.5773 0.175 0.8791 0.008 0.4765 0.103 0.9475 0.28 1.39 0.214 0.6485 0.351 1.3197 0.41 2 1 6.32 0.77 6.75 1.55 8.38 0.076 0.1293 0.107 0.2803 0.087 0.429 -0.02 0.1487 -0.09 0.2864 -0.197 0.391 -0.75 0.93 0 1.58 -0.84 1.83 -2.08 0.66 -2.3 1.15 -2.5 0.73 -0.362 -0.7798 -0.984 -1.4092 -1.76 -1.78 -0.682 -0.2769 -1.288 -0.7112 -1.769 -1.2674 -0.482 -0.5562 -0.825 -1.2184 -1.001 -1.9326 -0.123 -0.5088 -0.277 -1.0097 -0.46 -1.5 -0.19 -0.43 -1.16 -1.39 -1.49 -1.93 -0.217 -0.3223 -0.5 -0.595 -0.83 -0.8 -0.42 -0.3 -0.42 -0.29 -0.21 -0.76 0.21 -0.47 0.09 -0.25 0.22 -0.42l0.21 0.14c0.875 0.8379 1.89 1.5149 3 2 0.54 0.23 0.17 1.43 1.84 4.7 0.4 0.663 0.998 1.184 1.71 1.49 0.43 0.24 0.44 -0.36 0.32 -0.48 -0.505 -0.2957 -0.94 -0.6973 -1.275 -1.1773 -0.335 -0.4799 -0.562 -1.0267 -0.665 -1.6027 -1.17 -6.7 -1.43 -5.57 -4.42 -9 -0.066 -0.3982 -0.247 -0.7684 -0.52 -1.0651 -0.274 -0.2967 -0.628 -0.507 -1.02 -0.6049 -0.449 -0.3706 -0.736 -0.9015 -0.8 -1.48 0 -0.3 0.12 -0.48 0.21 -0.41 0.34 0.22 2 1.7 2.6 2.18 1.11 0.85 1.4 1 1.69 1.46 0.489 0.6538 1.08 1.2244 1.75 1.69 0.18 0.15 0.48 0 0.34 -0.21 -0.59 -0.71 -0.55 -0.49 -1.62 -1.82 -0.395 -0.5101 -0.879 -0.9439 -1.43 -1.28 -1.37 -1.0012 -2.639 -2.1332 -3.79 -3.38 -0.19 -0.25 -0.3 -0.65 -0.22 -0.77 0.08 -0.12 0.26 0 0.79 0.36 2 1.58 3.14 1.76 4.17 3.09 0.43 0.55 1 0.54 1.83 1.82 0.201 0.2724 0.432 0.5208 0.69 0.74 0.22 0.23 0.66 0 0.28 -0.38s-0.58 -0.83 -0.89 -1.21c-0.62 -0.79 -1 -0.84 -1.73 -1.74 -0.803 -0.7289 -1.697 -1.3508 -2.66 -1.85 -0.654 -0.3607 -1.267 -0.7897 -1.83 -1.28 -0.17 -0.14 -0.41 -0.51 -0.28 -0.77 0.32 -0.77 1.39 1 3.48 1.91 0.962 0.4243 1.817 1.06 2.5 1.86 0.12 0.13 1.43 1.3 1.81 1.55 0.38 0.25 0.81 -0.12 0.26 -0.45 -0.24 -0.14 -1.82 -1.8 -1.87 -1.85 -1.37 -1.49 -2.65 -1.45 -4.45 -2.92 -0.26 -0.2 0 -0.33 0 -0.36 0.039 -0.0097 0.081 -0.0097 0.12 0 0.199 0.0264 0.39 0.0946 0.56 0.2v-0.02ZM118 73.48c0.25 -0.5593 0.399 -1.1586 0.44 -1.77 0.025 -0.0737 0.059 -0.1441 0.1 -0.21l0.14 0.14c1.3 1.4 2 1.57 2.84 4.24 -1.243 -0.5013 -2.395 -1.204 -3.41 -2.08 -0.11 -0.1 -0.11 -0.17 -0.11 -0.32Zm-28.25 -3.39c-0.0042 -0.0466 -0.0042 -0.0934 0 -0.14 -0.19 -0.87 -1.21 -1.67 -1.86 -1.12 -0.1682 0.1201 -0.2951 0.2894 -0.3632 0.4846 -0.068 0.1952 -0.0739 0.4067 -0.0168 0.6054 0.09 0.37 0.51 0.39 0.58 0l0 -0.15c0 -0.04 0.15 -0.33 0.27 -0.39 0.12 -0.06 0.3 0.08 0.38 0.18 0.2265 0.3167 0.4272 0.6511 0.6 1 0.33 0.66 -0.71 0 -1.13 1.38 -0.21 0.69 0.5 1.3 0.91 0.88 0 -0.08 0 -0.28 -0.07 -0.4s-0.33 -0.16 -0.21 -0.34c0.1162 -0.1864 0.2736 -0.3438 0.46 -0.46 0.21 -0.11 0.4 0 0.4 0.3l0 2.39c0 0.32 -0.22 0.45 -0.53 0.42 -0.9 -0.09 -1.58 -1 -2 -3.24 -0.47 -2.48 0.08 -3.82 1.61 -3.72 0.2757 0.0294 0.5334 0.1511 0.7312 0.3453 0.1979 0.1942 0.3243 0.4496 0.3588 0.7247 -0.0159 0.4186 -0.056 0.836 -0.12 1.25Zm0.15 -2.55c-0.1789 -0.1123 -0.3237 -0.2713 -0.4189 -0.4599 -0.0952 -0.1885 -0.137 -0.3995 -0.1211 -0.6101 -0.0135 -0.5402 0.0335 -1.0802 0.14 -1.61 0.28 -1.74 0 -2.41 0 -4.78 0.0013 -0.0407 -0.0054 -0.0813 -0.0197 -0.1194 -0.0144 -0.0381 -0.0361 -0.0731 -0.064 -0.1028 -0.0278 -0.0297 -0.0613 -0.0536 -0.0984 -0.0704 -0.0371 -0.0168 -0.0772 -0.0261 -0.1179 -0.0274 -0.4307 0.0195 -0.862 -0.0243 -1.28 -0.13 -1 -0.3 -0.78 -1 -0.67 -2.3 0.07 -1 -0.31 -1.17 -0.92 -1.18 -1.37 0 -0.14 -1.9 0.51 -3.08 0 0 0.48 -0.68 -0.07 -0.72 -0.55 -0.04 -0.81 -0.53 -1 -1 -0.33 -0.77 1.15 -1 2.16 -1.33 0.38 -0.13 0.39 -0.42 0.11 -0.64 -0.5129 -0.4993 -0.8168 -1.175 -0.85 -1.89 0.17 -1.27 2.67 -0.58 2.9 -0.57 0.4 0 0.32 -0.38 0.21 -0.76 -0.23 -0.82 0.25 -2 1 -1.57 0.75 0.43 2.14 2.12 2.19 0.87 0 -0.52 -0.57 -3 1.48 -1.49 0.2 0.14 0.38 0.33 0.6 0.46 0.54 0.33 0.89 0.13 0.9 -0.49 0 -2 1.65 -3.8 2.74 -2.39 0.29 0.37 0.63 1.07 0.85 1.33 0.029 0.0493 0.072 0.0889 0.123 0.114 0.051 0.0251 0.109 0.0345 0.165 0.027 0.057 -0.0075 0.11 -0.0315 0.153 -0.069 0.043 -0.0375 0.074 -0.0869 0.089 -0.142 0.043 -0.1443 0.076 -0.2913 0.1 -0.44 0.78 -2.9 2.13 -1 2.25 -0.43 0.07 0.43 0.11 0.66 0.42 0.66s0.24 -0.39 0.49 -1c0.32 -0.81 2 -1.75 2.46 -0.83 0.46 0.92 0.52 1.72 0.92 1.62 0.4 -0.1 0.36 -0.78 0.76 -1.55 0.199 -0.307 0.488 -0.5446 0.828 -0.6797 0.339 -0.135 0.713 -0.1609 1.068 -0.0741 0.355 0.0869 0.674 0.2822 0.914 0.5589 0.239 0.2766 0.386 0.6209 0.42 0.9849 0 0 0 0.55 0.25 0.66 0.25 0.11 0.42 -0.36 0.84 -0.83 1.5 -1.64 3.93 -1.94 3.08 1.78 -0.1 0.45 0.07 0.62 0.54 0.57 2.16 -0.21 1.91 1.21 1.27 2.17 -0.14 0.22 -0.35 0.4 -0.2 0.69 0.15 0.29 0.44 0.18 0.69 0.19 0.63 0 2.22 -0.13 1.29 1.83 -0.23 0.49 -0.1 0.7 0.46 0.74 1.6 0.11 1.79 1.42 0.84 2.16 -0.062 0.0386 -0.113 0.0924 -0.149 0.1563 -0.035 0.0638 -0.054 0.1357 -0.054 0.2087 0 0.073 0.019 0.1449 0.054 0.2087 0.036 0.0639 0.087 0.1177 0.149 0.1563 0.357 0.2004 0.664 0.4791 0.898 0.8151 0.233 0.336 0.388 0.7206 0.452 1.1249 0 0.94 -0.67 0.82 -1.07 0.87 -0.067 0.0047 -0.132 0.0287 -0.186 0.0693 -0.054 0.0406 -0.095 0.0959 -0.119 0.1594 -0.023 0.0634 -0.027 0.1322 -0.012 0.1981 0.015 0.0659 0.049 0.1261 0.097 0.1732 0.22 0.23 1.55 0.89 0.94 1.39 -0.61 0.5 -2.07 0.76 -1.47 1.83 0.3 0.52 0.83 1.53 0.29 1.78 -1.12 0.51 -0.95 1 -1.72 1.18 -0.282 0.0441 -0.549 0.1517 -0.783 0.3145 -0.234 0.1629 -0.428 0.3767 -0.567 0.6255 0 0.17 -0.08 0.14 -0.22 0.07 -0.69 -0.44 -1.63 0.14 -1.17 1.15 0 0.08 -0.23 0 -0.4 0.2s-0.19 0.58 -0.08 0.87c0.36 0.91 0.67 1 0.5 1.26 -0.099 0.2112 -0.15 0.4417 -0.15 0.675 0 0.2333 0.051 0.4638 0.15 0.675 0.112 0.246 0.243 0.4833 0.39 0.71 0 0.08 0.23 0.24 0 0.3 -1.34 0.29 -1.7 1.17 -1.91 1.17 0 0 -0.09 -0.07 -0.11 -0.26 0.008 -0.622 0.051 -1.243 0.13 -1.86 0.26 -1.92 -0.7 -2.12 -0.23 -3.79 0.31 -1.06 0.23 -2 -0.75 -2.49 -0.65 -0.34 -1.38 -0.63 -1.49 -1.39 -0.06 -0.49 -0.28 -0.61 -0.73 -0.4 -0.406 0.2013 -0.864 0.27 -1.311 0.1964 -0.447 -0.0735 -0.859 -0.2857 -1.179 -0.6064 -0.29 -0.26 -0.55 -0.27 -0.7 0.07 -0.47 1.08 -2.86 0.19 -2.84 -1 0 -0.39 -0.42 -0.76 -0.7 -0.31 -0.91 1.55 -3.7 1.39 -4.17 -0.37 -0.09 -0.36 -0.53 -0.65 -0.7 -0.19 -0.1676 0.4016 -0.47 0.7322 -0.8552 0.9349 -0.3851 0.2026 -0.8289 0.2645 -1.2548 0.1751 -0.47 -0.07 -0.67 0.09 -0.67 0.57 -0.0114 0.1701 -0.0629 0.3351 -0.1503 0.4815 -0.0875 0.1464 -0.2083 0.27 -0.3527 0.3607 -0.1443 0.0907 -0.3081 0.146 -0.4779 0.1612 -0.1699 0.0153 -0.3409 -0.0099 -0.4991 -0.0734 -0.1347 -0.0434 -0.2804 -0.037 -0.4108 0.018 -0.1303 0.0551 -0.2365 0.1552 -0.2992 0.282 -0.2664 0.3934 -0.6525 0.6905 -1.101 0.8472 -0.4485 0.1567 -0.9356 0.1647 -1.389 0.0228 0 0 -0.53 -0.06 -0.51 0.39 0.16 2 -0.85 1.62 -1.07 3.68 -0.0775 0.7307 -0.2181 1.4534 -0.42 2.16Zm0.55 7.76c-0.2187 -3.443 -0.0341 -6.8998 0.55 -10.3 0.26 -1.14 1.11 -1.52 1 -2.85 0 -0.18 0 -0.23 0.23 -0.18 0.4647 0.1243 0.9562 0.1048 1.4096 -0.0559 0.4535 -0.1607 0.8476 -0.455 1.1304 -0.8441 0.18 -0.23 0.38 -0.19 0.59 -0.18 0.83 0.07 1.82 -0.54 1.85 -1.32 -0.0027 -0.0306 0.002 -0.0614 0.0138 -0.0898 0.0117 -0.0283 0.0302 -0.0534 0.0538 -0.0731 0.0236 -0.0196 0.0516 -0.0333 0.0816 -0.0397 0.0301 -0.0065 0.0612 -0.0056 0.0908 0.0026 0.3684 0.0244 0.7377 -0.0308 1.0828 -0.162 0.3452 -0.1311 0.658 -0.3351 0.9172 -0.598 0.13 -0.12 0.19 -0.16 0.28 0 0.252 0.3318 0.568 0.6101 0.928 0.8187 0.361 0.2086 0.759 0.3433 1.173 0.3964 0.413 0.0531 0.832 0.0233 1.234 -0.0874 0.402 -0.1108 0.777 -0.3003 1.105 -0.5577 0.12 -0.08 0.14 -0.13 0.24 0 0.82 1.43 3.08 1.57 3.48 1.11 0.25 -0.29 0.41 -0.16 0.66 -0.05 0.333 0.1913 0.701 0.3137 1.083 0.3601 0.381 0.0464 0.768 0.0158 1.137 -0.0901 0.21 -0.07 0.27 0 0.34 0.15 0.76 1.81 2.82 0.82 2.2 3 -0.55 2 0.4 2.09 0.16 4.21 -0.084 0.6264 -0.104 1.2596 -0.06 1.89 0.13 0.72 0.55 0.87 1 0.54 0.383 -0.32 0.795 -0.6045 1.23 -0.85 0.219 -0.1159 0.464 -0.1751 0.711 -0.172 0.248 0.0032 0.491 0.0684 0.707 0.1898 0.216 0.1215 0.398 0.2951 0.529 0.5052 0.132 0.21 0.208 0.4497 0.223 0.697 0.085 1.2912 -0.214 2.5787 -0.86 3.7 -0.182 0.423 -0.44 0.8093 -0.76 1.14 -0.19 0.2026 -0.428 0.3532 -0.692 0.4372 -0.265 0.0841 -0.546 0.0988 -0.818 0.0428 -0.61 -0.18 -1.05 -0.54 -1.26 0.19 -0.464 2.3222 -1.426 4.516 -2.82 6.43 -4.15 5.41 -10.7 6.23 -14.24 3.57 -3.05 -2.18 -5.26 -6.99 -5.91 -10.88Zm18 14.42c0.053 -0.0175 0.1 -0.0476 0.139 -0.0877 0.038 -0.0401 0.066 -0.0889 0.081 -0.1423 0.11 -0.39 0.11 -0.4 0.47 -0.35 0.71 0.18 0.7 0 0.7 1 0.39 3 -5.26 8.53 -7.67 10.25 -0.02 0.022 -0.044 0.039 -0.07 0.05 -0.027 0.012 -0.056 0.018 -0.085 0.018 -0.029 0 -0.058 -0.006 -0.085 -0.018 -0.026 -0.011 -0.05 -0.028 -0.07 -0.05 -1.8837 -1.3937 -3.5054 -3.1103 -4.79 -5.07 -0.4679 -0.6656 -0.8986 -1.3567 -1.29 -2.07 -0.53 -1.17 -0.21 -2 -0.08 -5.17l0 -0.3c0.0428 0.0139 0.0832 0.0341 0.12 0.06 2.88 4 9.15 3.35 11.66 -0.78 0.055 -0.0862 0.135 -0.1527 0.23 -0.19 0.009 0.0462 0.009 0.0938 0 0.14 0.001 0.86 0.126 1.7154 0.37 2.54 0.037 0.0653 0.094 0.117 0.162 0.1476 0.068 0.0306 0.145 0.0385 0.218 0.0224h-0.01Zm-19.87 0.76c0.1653 -1.2049 0.6141 -2.3534 1.3094 -3.3512 0.6954 -0.9978 1.6175 -1.8165 2.6906 -2.3888l0.77 -0.37c0.12 -0.06 0.17 0 0.25 0.07 0.26 0.33 1.09 1.27 1.2 1.37 0.1342 0.1258 0.2348 0.2832 0.2924 0.4579 0.0577 0.1747 0.0706 0.3611 0.0376 0.5421 0 3.33 -1.42 5.54 1.74 9.33 1.4373 1.8845 3.0883 3.5959 4.92 5.1 0.3 0.25 0.36 0.23 0.62 0 1 -0.83 1.94 -1.65 2.88 -2.51 3 -2.7 6.93 -7.59 4.58 -10.87 -0.279 -0.5115 -0.713 -0.9212 -1.24 -1.17 -0.1 0 -0.08 -0.16 -0.1 -0.25 -0.17 -0.63 0.21 -1 0.62 -1.29 0.41 -0.29 0.86 -0.83 1.27 -1.26 0.047 -0.0587 0.109 -0.1043 0.179 -0.1323 0.07 -0.028 0.146 -0.0376 0.221 -0.0277 2.88 0.24 5.06 3.87 5.53 6.61 0.86 5 -1.43 8.31 -4.8 12 -2.12 2.34 -8.88 6.06 -8.94 6.09 -1.85 1.11 -5.6 -2 -6.7 -3 -2.73 -2.68 -5 -4.54 -6 -6.8 -1.3008 -2.5054 -1.7635 -5.3621 -1.32 -8.15h-0.01Zm-19.23 8.4c1.25 -5.17 2.09 -11.11 2.64 -12.81 0.77 -2.4 -0.44 -2.3 1.09 -5.64 0.63 -1.37 0.52 -1.66 2.18 -5.91 0.7047 -1.5726 1.2864 -3.1975 1.74 -4.86 0.28 -1 2.21 -2.09 3.08 -2.57 1.1583 -0.4335 2.2902 -0.9344 3.39 -1.5 0.54 -0.39 1 -0.43 3.4 -0.94 0.82 -0.18 0 0.72 -0.44 0.84 -2.13 0.56 -0.59 0 -4.18 1.46 -2 0.79 -1.11 0.31 -3.81 2 -0.1 0.06 -0.59 0.26 -0.49 0.54 0.1 0.28 0.49 0.14 0.76 0 1.72 -0.78 0.55 -0.67 4.16 -2.11 1.0113 -0.4442 2.0584 -0.8021 3.13 -1.07 0.24 -0.06 0.27 0 0.25 0.19 -0.0151 0.1694 -0.0645 0.3339 -0.1453 0.4835 -0.0808 0.1495 -0.1913 0.2811 -0.3247 0.3865 -0.16 0.13 -0.29 0.2 -0.46 0 -0.17 -0.2 -0.48 -0.13 -0.71 -0.07 -0.23 0.06 -3.07 1.38 -3.19 1.47 -1.1344 0.9176 -2.3493 1.7309 -3.63 2.43 -0.45 0.28 -0.1 0.81 0.34 0.55 1.2959 -0.675 2.5161 -1.4862 3.64 -2.42 1.0061 -0.519 2.0411 -0.9797 3.1 -1.38 -0.078 0.4154 -0.2538 0.8062 -0.5129 1.1401 -0.2591 0.3339 -0.5941 0.6013 -0.9771 0.7799 -1.5219 0.8971 -2.9491 1.9458 -4.26 3.13 -0.5 0.51 -0.09 0.27 -1.36 4.8 -0.4215 1.092 -0.9022 2.1603 -1.44 3.2 -0.6345 0.9885 -1.5312 1.7813 -2.59 2.29 -0.25 0.41 0.1 0.48 0.19 0.46 1.31 -0.22 3 -2 3.49 -2.72 1.72 -2.46 1.65 -2.51 2.29 -3 1.48 -1 2.5 -1.84 5.2 -3.94 0.23 -0.18 0.31 -0.13 0.36 0.15 0.16 1 -3.18 4 -4 5 -0.2105 0.2216 -0.3799 0.4789 -0.5 0.76 -0.8853 2.2163 -2.2755 4.1954 -4.06 5.78 -0.1429 0.1743 -0.2485 0.376 -0.3105 0.5927 -0.0619 0.2167 -0.0787 0.4438 -0.0495 0.6673 -0.0986 1.9994 -0.0786 4.0029 0.06 6 0.31 7.34 0.08 9.87 0.92 18.72 -3.55 -0.46 -8.05 -0.69 -10.37 -0.85 -0.12 0 -0.23 -0.07 -0.35 -0.08 -0.12 -0.01 -0.14 -0.07 -0.11 -0.2 0.03 -0.13 -0.13 0.67 2.87 -11.75h-0.01Zm-5.43 11.69c0.6591 -1.226 1.1534 -2.534 1.47 -3.89 0.31 -1.61 1.17 -3 2.49 -5.28 0.0279 -0.041 0.0616 -0.078 0.1 -0.11 0.0049 0.05 0.0049 0.1 0 0.15 -0.25 1 -2 8.28 -2.15 9.11 -0.06 0.3 -0.24 0.32 -0.33 0.32 -0.49 0 -1 -0.08 -1.47 -0.1 -0.14 -0.01 -0.14 -0.1 -0.1 -0.2h-0.01Zm18.58 40.74c-0.0057 0.1 -0.035 0.198 -0.0853 0.285 -0.0504 0.086 -0.1205 0.16 -0.2047 0.215 -0.36 0.33 -0.74 1.09 -1.58 1.12 -0.58 0 -50.51 -1.83 -51.09 -2 -0.58 -0.17 -0.6 -0.56 -0.72 -1.28 -0.8727 -4.342 -1.4805 -8.734 -1.82 -13.15 -0.07 -0.74 -0.07 -1.49 -0.13 -2.23 0 0 -0.68 -9.12 -0.68 -10.25 0 -1.94 -0.27 -2.43 -0.16 -9 0.06 -3.07 1.63 -3.36 3.52 -3.64 5.3132 -0.567 10.6601 -0.754 16 -0.56 0.1 0 11.56 0 19.85 0.69 7.74 0.66 14.26 0.81 16.58 2.32 2.32 1.51 1.14 4.55 1 22.7 -0.1 3.04 0.02 7.84 -0.47 14.78h-0.01Zm1.13 -11.41c0 -0.35 0 -0.36 0.32 -0.36l7.42 0.21c0.32 0 0.43 0.12 0.43 0.43 0 1.3 0 1.67 -0.46 2.12 -5.68 5.89 -7.55 7.95 -8.07 8.38 0 -0.29 0.1 -2 0.14 -2.37 0.0091 -0.101 0.0385 -0.199 0.0867 -0.289 0.0481 -0.089 0.1139 -0.168 0.1933 -0.231 0.71 -0.67 5.9 -5.75 6.09 -6 0.19 -0.25 0 -0.91 -0.46 -0.46 -5.42 5.36 -3.76 3.69 -5.74 5.76l-0.08 0.06c-0.025 -0.036 -0.042 -0.077 -0.05 -0.12 0.18 -3.72 -0.05 0.09 0.19 -7.13h-0.01Zm53.54 -3.77H122c-0.323 0.008 -0.638 -0.098 -0.89 -0.3 -1.541 -1.32 -2.669 -3.056 -3.25 -5 -1.16 -4.34 0.26 -4.24 0.78 -9.73 0 -0.42 -0.3 -0.42 -0.43 -0.07 -0.6 4.39 -2.19 5.53 -1.26 9.46 0.508 2.127 1.595 4.072 3.14 5.62 -0.27 0.09 -28 0 -36.09 0.05 -0.4 0 -0.4 0 -0.39 -0.39 0.15 -6.55 0.48 -17.46 0.29 -20.15 -0.11 -1.58 -1 -2.29 -2.43 -2.88 -1.1686 -0.392 -2.3753 -0.66 -3.6 -0.8 -0.0049 -0.04 -0.0049 -0.08 0 -0.12 -1.07 -15.65 -0.48 -11.33 -0.8 -17.15 -0.0151 -0.0987 0.0045 -0.1995 0.0556 -0.2853 0.0511 -0.0857 0.1304 -0.151 0.2244 -0.1847 3 -1.43 2.82 -1.46 10.54 -4.59 0.12 0 0.2 -0.07 0.18 0.15 -0.44 3.91 -0.6 4.38 0.92 8.46 1 2.62 2.51 4 6.75 8 1.18 1.12 4.86 3.71 6.39 3.16 3.64 -1.72 7.009 -3.964 10 -6.66 5.23 -5.38 5.36 -9.31 4.85 -12.77l0 -0.15c0 -0.2 0 -0.19 0.18 -0.12 4.91 2.09 -0.1 -0.23 6.81 2.88 0.109 0.0437 0.199 0.1228 0.257 0.2244 0.058 0.1016 0.08 0.2199 0.063 0.3356 0 3.11 -1.22 11.45 -1.93 21 -0.31 4 -0.86 9.16 0.74 11.86 1.28 2.15 3 4.26 5.82 4.77 6.31 1.15 8.68 -5.15 8.51 -11.1 -0.13 -4.51 -2.14 -15.16 -3.1 -19.6 -0.14 -0.65 -0.18 -0.69 -0.12 -0.84 0 0 0.11 0 0.14 0.05 0.85 0.725 1.545 1.614 2.044 2.614 0.498 1 0.789 2.091 0.856 3.206 0 0.14 0.75 5.07 0.78 6.57 0.06 3.06 2.32 7.16 2.6 8.64 0.28 1.48 0.31 1.75 0.45 2.58 0.53 3 2.7 7.24 -2.34 12.55 -0.191 0.227 -0.43 0.408 -0.7 0.531 -0.27 0.122 -0.564 0.184 -0.86 0.179h-0.01Zm53.31 -35.86 -0.21 7c0.006 0.073 -0.011 0.146 -0.049 0.209 -0.037 0.063 -0.094 0.112 -0.161 0.141 0 0 -12.82 7.65 -13.17 8 -0.19 0.17 -0.11 0.42 0.25 0.37 0.15 0 13 -7.8 13.08 -7.82 0.08 -0.02 -0.06 1.54 0 2.07 0.011 0.092 -0.007 0.185 -0.052 0.265 -0.045 0.081 -0.114 0.146 -0.198 0.185 -1.45 0.85 -11.55 6.89 -13 7.79 -0.2 0.13 -0.28 0.35 -0.16 0.46 0.067 0.062 0.154 0.096 0.245 0.096s0.178 -0.034 0.245 -0.096l12.84 -7.77c0 0.2 -0.14 4.27 -0.15 4.45 0.002 0.078 -0.027 0.153 -0.08 0.21 -4.71 2.79 4.2 -2.6 -13.31 8 -0.59 0.37 -0.61 0.27 -0.62 -0.14 -0.01 -0.41 0 -1 0.07 -1.58 0.002 -0.075 0.026 -0.148 0.068 -0.211 0.043 -0.062 0.102 -0.11 0.172 -0.139 5.34 -3.19 13.22 -8 13.36 -8.1 0.058 -0.04 0.097 -0.102 0.11 -0.171 0.013 -0.069 -0.001 -0.14 -0.04 -0.199 -0.1 -0.17 -0.24 -0.15 -0.4 -0.07 -1.68 1 -10.94 6.68 -13.13 8 -0.27 0.17 -0.07 0.18 0 -7.27 -0.013 -0.156 0.024 -0.313 0.104 -0.447 0.081 -0.135 0.202 -0.241 0.346 -0.303 0.14 -0.08 12.8 -7.5 12.94 -7.66 0.14 -0.16 0.21 -0.2 0.09 -0.35 -0.034 -0.062 -0.09 -0.108 -0.157 -0.13 -0.066 -0.023 -0.139 -0.019 -0.203 0.01l-12.91 7.64c-0.38 0.24 -0.06 -0.16 -0.11 -4.06 -0.008 -0.1 0.016 -0.201 0.068 -0.287 0.052 -0.086 0.129 -0.153 0.222 -0.193 14.42 -8.33 13.92 -8.4 13.91 -7.9h-0.01Zm-32.67 -3.59c0.159 -0.0791 0.327 -0.1395 0.5 -0.18 1.92 0.22 31.21 3.13 31.41 3.23 -0.028 0.0582 -0.069 0.1094 -0.12 0.15 -1.92 1.15 -11.58 6.82 -13.11 7.7 -0.132 0.075 -0.279 0.123 -0.43 0.14 -0.151 0.017 -0.304 0.003 -0.45 -0.04 -1.44 -0.34 -28.38 -3.61 -30.23 -3.88 -0.052 -0.016 -0.102 -0.036 -0.15 -0.06 0.29 -0.26 11.67 -6.56 12.59 -7.06h-0.01ZM175.08 146c0 0.16 -0.06 0.21 -0.22 0.18s-24 -3 -28.65 -3.52c-0.12 0 -0.23 -0.08 -0.35 -0.09 -0.12 -0.01 -0.21 -0.13 -0.21 -0.29 0 -1.7 -0.14 -1.81 0.36 -1.74 0.07 0 12.47 1.74 29 4 0.032 0.012 0.059 0.032 0.08 0.059 0.021 0.026 0.035 0.058 0.04 0.091 -0.04 0.45 -0.05 0.9 -0.05 1.31Zm0 -2.15s-0.11 0.12 -0.16 0.11c-0.05 -0.01 -28.7 -4 -29.13 -4 -0.19 0 -0.21 -0.12 -0.21 -0.26l0 -0.86V138c0 -0.18 0 -0.25 0.24 -0.23 6.77 1 28.56 4.17 29.18 4.27 0.06 0 0.11 0.18 0.11 0.25 -0.02 0.54 -0.03 1.06 -0.03 1.59v-0.03Zm0.07 -2.3c-0.27 0 -26.2 -3.78 -29.13 -4.32 -0.45 -0.06 -0.48 -0.07 -0.5 -0.53 0 -0.63 -0.05 -1.26 -0.08 -1.89 0 -0.21 0 -0.32 0.29 -0.25s25.35 4.59 29.21 5.25c0.2 0 0.25 0.12 0.25 0.3s0 1.2 -0.04 1.47v-0.03Zm0.19 -12.05c0 1.28 -0.13 8.45 -0.15 9.41 0 0.34 0 0.41 -0.35 0.34 -38.54 -6.93 -26.71 -4.82 -29 -5.23 -0.58 -0.1 -0.27 0 -0.46 -2.27 0 -0.22 0.06 -0.28 0.26 -0.25 0.2 0.03 26 4.36 28.47 4.81 0.11 0.037 0.23 0.03 0.336 -0.018 0.106 -0.048 0.189 -0.135 0.234 -0.242 -0.03 -0.099 -0.099 -0.182 -0.19 -0.23 -0.5 -0.14 -27.29 -4.6 -28.77 -4.82 -0.24 0 -0.36 -0.1 -0.36 -0.37 0 -2.17 -0.23 -2.35 0.19 -2.27 7.65 1.44 29.09 5.26 29.26 5.23 0.061 -0.014 0.118 -0.043 0.167 -0.082 0.048 -0.04 0.087 -0.091 0.113 -0.148 0 -0.09 -0.21 -0.2 -0.31 -0.23 -0.34 -0.1 -28.66 -5.14 -29.18 -5.23 -0.52 -0.09 -0.33 -0.18 -0.34 -0.56 0 -1.63 -0.09 -1.61 0.27 -1.54 26.93 4.56 26.47 4.46 26.32 4.46l2 0.33c0.35 0.05 0.51 0 0.55 -0.23 0.04 -0.23 -0.16 -0.23 -0.5 -0.29 -11.32 -1.88 -25.54 -4.39 -28.48 -4.83 -0.23 0 -0.3 -0.09 -0.29 -0.35 0.08 -1.29 -0.23 -1.75 0.25 -1.67 5 0.79 29.47 4.58 29.74 4.61 0.031 0 0.062 0.006 0.09 0.018 0.029 0.013 0.055 0.03 0.076 0.053 0.022 0.022 0.039 0.049 0.049 0.078 0.011 0.029 0.016 0.06 0.015 0.091 0.03 0.11 0 0.63 -0.01 1.46v-0.03Zm0 -2.56c0 0.52 0.05 0.36 -2.47 0 -14.28 -2.21 -5 -0.82 -27.52 -4.27 -0.19 0 -0.28 -0.1 -0.28 -0.32 0 -2.14 -0.22 -7.18 -0.22 -7.28 0 -0.1 0.1 -0.31 0.34 -0.28 4.78 0.67 27.9 4 30 4.22 0.22 0 0.3 0.12 0.29 0.33 0.01 0.5 -0.06 5.58 -0.09 7.66l-0.05 -0.06Zm0.12 -8.77c0 0.23 -0.11 0.29 -0.31 0.26 -3.14 -0.43 -5 -0.6 -30 -4.15 -0.1 -0.019 -0.189 -0.077 -0.247 -0.162 -0.058 -0.084 -0.081 -0.187 -0.063 -0.288 0 -0.07 -0.22 -8.12 -0.24 -9.31 0 -0.18 0.07 -0.25 0.24 -0.23 0.17 0.02 26.22 3.33 30.46 3.82 0.05 -0.001 0.1 0.008 0.147 0.026 0.047 0.019 0.089 0.047 0.125 0.082 0.035 0.036 0.063 0.078 0.082 0.125 0.019 0.047 0.027 0.097 0.026 0.147 0 1.83 0 2.6 -0.08 3.93 0 0.37 0 0.49 -0.36 0.45 0 0 -23.71 -3.07 -29.63 -3.7 -0.21 0 -0.35 0.08 -0.35 0.25 0 0.17 0.18 0.26 0.3 0.29 2.76 0.35 22.84 2.82 29.81 3.7 0.17 0 0.22 0.11 0.22 0.27 0 2.09 0 2.15 -0.13 2.18 -0.13 0.03 2.33 0.19 -28.91 -3.69 -0.54 -0.07 -0.75 0.44 0 0.54 4.37 0.62 22.22 2.84 28.29 3.67 0.232 0.034 0.468 0.034 0.7 0 0.01 0.3 -0.03 1.3 -0.03 1.82l-0.05 -0.03Zm0.41 25.86c0.13 0.19 0.9 -0.26 1.16 -0.42 5.25 -3.48 12.14 -8 12.26 -8.08 0 0.13 -0.07 1.2 -0.07 1.55 0.011 0.115 -0.013 0.231 -0.068 0.332 -0.055 0.102 -0.139 0.185 -0.242 0.238 -0.84 0.53 -13.11 8.36 -13.33 8.48 -0.06 -0.3 0 -3.23 0 -3.91 0 -0.27 0.11 -0.32 0.35 -0.47 2.22 -1.38 12.49 -7.88 12.55 -7.93 0.061 -0.042 0.103 -0.107 0.116 -0.181 0.013 -0.073 -0.004 -0.148 -0.046 -0.209 -0.042 -0.061 -0.107 -0.103 -0.181 -0.116 -0.073 -0.013 -0.148 0.004 -0.209 0.046 -1.08 0.72 2.55 -1.59 -12.35 7.84 -0.16 0.1 -0.18 0.12 -0.15 -0.09 0.12 -1.42 -0.13 -1.21 0.3 -1.5 14 -9.79 13.36 -9.49 13.48 -9.41 0.12 0.08 0.05 0.11 0.05 0.17 0 0.06 -0.16 4.38 -0.19 4.46 -0.03 0.08 -0.46 0.41 -0.75 0.6 -12.67 8.44 -12.9 8.24 -12.63 8.63l-0.05 -0.03Zm13.64 -14.79c0.016 0.081 0.001 0.164 -0.041 0.234 -0.043 0.071 -0.11 0.123 -0.189 0.146 -0.244 0.116 -0.475 0.257 -0.69 0.42 -13.57 9.54 -12.55 8.83 -12.89 9 -0.06 -0.94 0 -1.75 0 -2.46 -0.009 -0.099 0.012 -0.199 0.06 -0.286 0.048 -0.088 0.121 -0.159 0.21 -0.204 5.16 -3.2 9.22 -5.85 13.33 -8.41 0.37 -0.21 0.26 -0.16 0.26 1.59l-0.05 -0.03Zm0 -5.28c-3.73 2.39 -5.64 3.7 -13.25 8.73 -0.14 0.09 -0.32 0.26 -0.26 0.4s0.45 0.12 0.6 0c7.61 -5.06 12.47 -8.26 12.8 -8.48 0.33 -0.22 0.3 -0.24 0.3 0 0.031 0.716 -0.012 1.433 -0.13 2.14 -0.074 0.156 -0.202 0.28 -0.36 0.35 -0.11 0.06 -12.77 8.19 -13.37 8.41 -0.22 -0.53 0 0.52 0 -4.72 -0.005 -0.117 0.023 -0.232 0.081 -0.333 0.059 -0.101 0.145 -0.184 0.249 -0.237 13.77 -8.36 13.63 -8.71 13.61 -8.17 -0.06 1.61 0.04 1.77 -0.26 1.95l-0.01 -0.04Zm0.29 -3c0 0.32 0.95 -0.35 -13.55 8.58 -0.052 0.046 -0.109 0.086 -0.17 0.12 -0.14 0.08 -0.25 0 -0.24 -0.12 0 -0.6 0 -1.2 0.09 -1.79 0 -0.14 0.18 -0.29 0.31 -0.37 0.13 -0.08 12.59 -7.9 13.59 -8.39 0.02 0.3 -0.02 1.7 -0.02 2.01l-0.01 -0.04Zm-0.18 -2.49c-14 8.49 -13.73 8.71 -13.73 8.25 0 -2.31 -0.18 -1.83 0.86 -2.43 2.17 -1.23 11.56 -7 13 -7.85 0.23 -0.15 0.21 0 0.2 0.12 0 0.49 0 1 -0.05 1.47 0.01 0.101 -0.011 0.202 -0.059 0.291 -0.048 0.089 -0.121 0.162 -0.211 0.209l-0.01 -0.06Z" stroke-width="1"></path>
  <path fill="#1c1c1e" d="M176.79 111.12c0.16 0 10.36 -6 12.65 -7.58 0.24 -0.16 0.35 -0.18 0.38 -0.42 0.03 -0.24 -0.28 -0.33 -0.48 -0.2 0 0 -12.24 7.38 -12.76 7.85 -0.031 0.051 -0.049 0.11 -0.05 0.17 -0.01 0.06 0.15 0.18 0.26 0.18Z" stroke-width="1"></path>
  <path fill="#1c1c1e" d="M178 156.56c-0.141 -0.235 -0.332 -0.437 -0.557 -0.592 -0.226 -0.155 -0.483 -0.26 -0.753 -0.308 -0.541 -0.064 -1.085 -0.097 -1.63 -0.1 -2.07 0 -22.05 -0.3 -24.13 0.07 -0.61 0.11 -0.82 0.56 -0.92 1.09 -0.192 0.898 -0.154 1.83 0.11 2.71 0.08 0.2 3.9 9.5 4 9.7 0.097 0.267 0.281 0.494 0.522 0.645 0.241 0.15 0.525 0.215 0.808 0.185 4.77 -0.27 26.46 -0.79 27.67 -0.91 0.55 -0.05 1.36 -0.08 1.44 -0.84 0.075 -0.685 0.075 -1.375 0 -2.06 -0.03 -0.56 0.01 -0.47 -6.56 -9.59Zm5.26 10.37c-1.07 0 -24 1 -26.66 1 -0.89 0 -1.19 0.12 -1.68 -1.07 -0.66 -1.6 -3.24 -7.24 -3.62 -8.58 -0.27 -0.93 -0.94 -1.91 0 -2.14 0.94 -0.23 19.29 0 23.27 0 0.608 -0.02 1.217 0.01 1.82 0.09 0.7 0.13 0.8 0.4 1.13 0.81 0.58 0.72 5.91 8.15 6.18 8.52 0.143 0.19 0.246 0.408 0.3 0.64 0 0.43 -0.29 0.71 -0.74 0.73Z" stroke-width="1"></path>
  <path fill="#1c1c1e" d="M176.21 157.42c-0.106 -0.136 -0.243 -0.245 -0.399 -0.318 -0.157 -0.073 -0.328 -0.108 -0.501 -0.102 -1.28 0.08 -22.39 0.15 -22.41 0.15 -0.9 0 -1 0.23 -0.64 1.06 1.173 2.607 2.347 5.21 3.52 7.81 0.059 0.209 0.195 0.388 0.38 0.502 0.186 0.113 0.407 0.151 0.62 0.108 5.18 -0.32 19.12 -0.82 24.13 -1.11 0.234 0 0.46 -0.081 0.64 -0.23 0.18 -0.21 -0.05 -0.44 -0.19 -0.63 -1.98 -2.9 -5.14 -7.22 -5.15 -7.24Zm4.18 7.51c-0.36 0 -19.6 0.74 -23.54 1 -0.114 0.025 -0.233 0.006 -0.333 -0.054 -0.1 -0.059 -0.174 -0.154 -0.207 -0.266 -0.31 -0.74 -2.7 -5.87 -3.39 -7.45 -0.12 -0.27 -0.08 -0.33 0.23 -0.34 21.46 -0.1 5.32 0 22.11 -0.09 0.132 -0.01 0.264 0.018 0.381 0.08 0.116 0.062 0.213 0.155 0.279 0.27 0.64 0.94 4.6 6.47 4.64 6.54 0.04 0.07 0.02 0.3 -0.17 0.31Z" stroke-width="1"></path>
  <path fill="#1c1c1e" d="M176.31 162c-0.148 -0.003 -0.296 0.024 -0.434 0.078 -0.138 0.055 -0.264 0.136 -0.371 0.239 -0.107 0.103 -0.192 0.226 -0.251 0.362 -0.06 0.136 -0.091 0.283 -0.094 0.431 0.11 1.52 2.49 1.62 2.48 0.11 -0.03 -0.332 -0.183 -0.642 -0.429 -0.867 -0.246 -0.226 -0.567 -0.352 -0.901 -0.353Zm0.75 1.41c-0.061 0.101 -0.146 0.186 -0.248 0.247 -0.101 0.061 -0.216 0.096 -0.334 0.103 -0.118 0.007 -0.236 -0.015 -0.343 -0.064 -0.108 -0.048 -0.202 -0.123 -0.275 -0.216 -0.4 -0.44 0 -0.84 0.37 -0.89 0.77 -0.07 0.97 0.48 0.83 0.85v-0.03Z" stroke-width="1"></path>
  <path fill="#1c1c1e" d="M175.71 159.3c-0.8 -1.09 -2.79 -0.38 -2 1 0.131 0.234 0.335 0.418 0.58 0.526 0.245 0.109 0.519 0.134 0.78 0.074 0.172 -0.026 0.334 -0.097 0.471 -0.205 0.136 -0.109 0.242 -0.251 0.306 -0.412 0.065 -0.162 0.086 -0.337 0.062 -0.51 -0.024 -0.172 -0.093 -0.335 -0.199 -0.473Zm-0.31 0.71c-0.13 0.7 -1.3 0.51 -1.39 -0.15 -0.01 -0.86 1.56 -0.71 1.39 0.14v0.01Z" stroke-width="1"></path>
  <path fill="#1c1c1e" d="M146.07 107.53c25.55 3.27 28.17 3.7 28.4 3.58 0.051 -0.022 0.098 -0.055 0.136 -0.097 0.037 -0.041 0.066 -0.09 0.084 -0.143 0 -0.06 -0.08 -0.17 -0.15 -0.24 -0.07 -0.07 -28.37 -3.63 -28.63 -3.63 -0.26 0 -0.36 0 -0.38 0.22 -0.02 0.22 0.32 0.28 0.54 0.31Z" stroke-width="1"></path>
  <path fill="#1c1c1e" d="M174.62 122c-0.17 -0.24 2.19 0.11 -28.71 -4.31 -0.23 0 -0.41 0 -0.4 0.1 0.01 0.1 0 0.39 0.49 0.46s27.56 4 28.19 4.07c0.63 0.07 0.42 -0.13 0.43 -0.32Z" stroke-width="1"></path>
  <path fill="#1c1c1e" d="M146.4 120.61c-0.23 0 -0.3 0.06 -0.34 0.17 -0.04 0.11 0.11 0.27 0.27 0.3 0.84 0.16 27 4.15 27.31 4.14 0.063 -0.015 0.12 -0.046 0.167 -0.09 0.048 -0.044 0.083 -0.099 0.103 -0.16 0 -0.09 -0.11 -0.21 -0.2 -0.3 -0.09 -0.09 -27.2 -4.04 -27.31 -4.06Z" stroke-width="1"></path>
  <path fill="#1c1c1e" d="M167.57 161.21c-0.87 -0.7 -5.13 -2.4 -6 -1 -0.128 0.239 -0.232 0.49 -0.31 0.75 -0.11 0.4 0 0.66 0.31 0.79 0.419 0.139 0.846 0.249 1.28 0.33 0.057 0.018 0.117 0.024 0.176 0.015 0.06 -0.008 0.116 -0.031 0.165 -0.064 0.05 -0.034 0.09 -0.079 0.12 -0.131 0.029 -0.052 0.046 -0.11 0.049 -0.17 0.08 -0.32 0.25 -0.41 0.56 -0.32 2.43 0.72 2.33 0.69 2.29 1 -0.019 0.053 -0.026 0.109 -0.023 0.166 0.004 0.056 0.018 0.111 0.044 0.161 0.025 0.051 0.06 0.095 0.103 0.132 0.043 0.037 0.092 0.064 0.146 0.081 0.46 0.15 1.13 0.56 1.41 0.11 0.183 -0.294 0.252 -0.645 0.193 -0.986 -0.059 -0.341 -0.242 -0.649 -0.513 -0.864Zm-0.12 1.46c-0.22 0 -0.74 -0.14 -0.7 -0.39 0.09 -0.42 -0.06 -0.43 -0.28 -0.54 -0.935 -0.477 -1.954 -0.766 -3 -0.85 -0.06 -0.008 -0.12 -0.004 -0.178 0.012 -0.058 0.017 -0.112 0.045 -0.158 0.084 -0.046 0.039 -0.084 0.087 -0.11 0.141 -0.027 0.054 -0.042 0.113 -0.044 0.173 0 0.35 -0.35 0.18 -0.86 0s-0.36 -0.1 -0.25 -0.42c0.064 -0.242 0.217 -0.452 0.428 -0.587 0.211 -0.135 0.465 -0.186 0.712 -0.143 0.336 0.019 0.67 0.062 1 0.13 0.74 0.2 3.3 0.8 3.56 1.77 0.05 0.3 0.02 0.6 -0.12 0.62Z" stroke-width="1"></path>
  <path fill="#1c1c1e" d="M167.33 159.05c-0.964 -0.544 -2.051 -0.835 -3.159 -0.843 -1.107 -0.009 -2.198 0.264 -3.171 0.793 -0.551 0.337 -0.946 0.88 -1.098 1.508 -0.151 0.628 -0.048 1.29 0.288 1.842 0.45 0.619 1.019 1.143 1.673 1.542 0.654 0.398 1.38 0.662 2.137 0.778 4.92 0.95 7.49 -3.31 3.33 -5.62Zm-2.37 5.1c-1.51 -0.12 -3.26 -0.6 -4.07 -1.88 -1.82 -2.87 3.14 -5.11 6.79 -2.27 2.13 1.65 0.76 4.43 -2.68 4.15h-0.04Z" stroke-width="1"></path>
  <path fill="#1c1c1e" d="M141.15 146.1c-0.047 -0.527 -0.268 -1.024 -0.63 -1.41 -1.19 -1.21 -3.82 -1.86 -5.48 -2.16 -3.192 -0.547 -6.436 -0.731 -9.67 -0.55 -2.59 0.1 -9.08 0.76 -9.28 3.35 0 0 -0.61 5 -0.64 5.21 -0.035 0.182 -0.011 0.37 0.068 0.537 0.079 0.167 0.209 0.305 0.372 0.393 1.2 0.84 1 0.31 1.16 2.18 0.45 4.65 0.62 6.53 2 19.31 0.15 1.41 0.81 0.7 0.9 1.77 0.17 2 0.08 2.67 0.63 2.86 0.77 0.28 2.16 1.34 7.8 1.56 2.478 0.214 4.971 -0.17 7.27 -1.12 0.188 -0.08 0.348 -0.212 0.464 -0.38 0.115 -0.168 0.179 -0.366 0.186 -0.57 0.11 -1.85 0.12 -2.5 0.93 -2.78 0.093 -0.043 0.17 -0.113 0.224 -0.2 0.053 -0.087 0.08 -0.188 0.076 -0.29 0.16 -1.7 2.21 -19.66 2.23 -20.39 0 -0.21 0.1 -0.28 0.29 -0.34 0.39 -0.13 0.76 -0.29 1.14 -0.44 0.6 -0.25 0.7 -0.58 0.64 -1.21 -0.14 -1.12 -0.54 -4.01 -0.68 -5.33Zm-6.91 -3c1.56 0.27 4.75 0.89 5.84 2.2 0.073 0.064 0.13 0.144 0.167 0.234 0.037 0.09 0.052 0.187 0.046 0.283 -0.007 0.097 -0.036 0.191 -0.085 0.275 -0.049 0.083 -0.117 0.155 -0.198 0.208 -0.348 0.27 -0.719 0.508 -1.11 0.71 -0.14 0.08 -0.17 0 -0.18 -0.14 -0.025 -0.198 -0.091 -0.389 -0.192 -0.561 -0.102 -0.172 -0.237 -0.321 -0.398 -0.439 -1.89 -1.72 -7.36 -2.41 -11.11 -2.14 -0.91 0.06 -1 0.66 0.34 0.62 2.94 -0.09 8.61 0.48 10.19 1.91 0.69 0.62 0.23 1.21 -0.23 1.32 -4.69 1.15 -16.42 1.37 -20.06 -1.49 -2.83 -2.85 9.24 -4.36 16.98 -3.01v0.02Zm0.85 34.48c-3 1.4 -9.92 1.37 -14 -0.46 -0.18 -0.08 -0.31 -0.17 -0.32 -0.4 0 -0.68 -0.22 -1.08 0.11 -0.91 2.68 1.43 11 1.86 14.53 0.68 0.18 -0.06 0.24 -0.05 0.25 0.16 0.019 0.193 -0.027 0.387 -0.13 0.552 -0.103 0.165 -0.258 0.29 -0.44 0.358v0.02Zm3.83 -22.66s-2.08 18.66 -2.08 18.68c-0.017 0.072 -0.049 0.139 -0.094 0.197 -0.045 0.059 -0.101 0.108 -0.166 0.143 -0.559 0.284 -1.141 0.522 -1.74 0.71 -4.39 0.961 -8.95 0.816 -13.27 -0.42 -0.89 -0.32 -1.86 -0.66 -1.92 -1.37 -0.4 -4.39 -1.92 -18.45 -2 -18.86 0 -0.17 0 -0.19 0.2 -0.1 3.83 1.94 15.31 2.57 20.81 0.79 0.28 -0.09 0.34 -0.08 0.26 0.21v0.02Zm2 -3c-0.549 0.315 -1.148 0.534 -1.77 0.65 -3.025 0.683 -6.119 1.019 -9.22 1 -3.26 -0.12 -11.46 -0.42 -13.66 -2.85 -0.19 -0.27 0 -0.29 0.33 -4.14 0 -0.09 0 -0.24 0.16 -0.11 3.8 3.06 17.08 3.43 22.36 1.19 1.34 -0.67 1.45 -1.14 1.52 -0.81 0.07 0.33 0 0.3 0.54 4.76 -0.02 0.15 -0.18 0.21 -0.3 0.29l0.04 0.02Z" stroke-width="1"></path>
  <path fill="#1c1c1e" d="M136 159.52c-0.15 0 0 0 -2.19 2.34 -0.16 0.17 -0.22 0 -0.26 -0.09 -0.006 -0.067 -0.006 -0.133 0 -0.2 -1.61 -5 -8.22 -4.73 -9.47 -0.17 -0.019 0.083 -0.056 0.16 -0.107 0.228 -0.052 0.067 -0.118 0.122 -0.193 0.162 -1.52 1 -2.13 1.39 -2.33 2.12 -0.07 0.26 0.13 0.3 0.24 0.24 0.7 -0.38 0 -0.2 2 -1.52 0.21 -0.14 0.22 -0.13 0.22 0.13 -0.002 1.29 0.484 2.533 1.36 3.48 0.644 0.742 1.497 1.272 2.448 1.519 0.951 0.247 1.955 0.2 2.878 -0.135 0.924 -0.334 1.725 -0.941 2.296 -1.74 0.572 -0.798 0.889 -1.752 0.908 -2.734 0.001 -0.149 0.058 -0.292 0.16 -0.4 0.932 -0.848 1.783 -1.782 2.54 -2.79 0.2 -0.41 -0.08 -0.5 -0.5 -0.44Zm-3 4.29c-1.3 4.84 -8.09 4.57 -8.48 -1.32 -0.016 -0.087 0.001 -0.177 0.047 -0.253 0.046 -0.075 0.118 -0.131 0.203 -0.157 3.4 -0.93 3.25 1.87 6 2.09 0.782 -0.031 1.545 -0.254 2.22 -0.65 0.024 0.095 0.027 0.194 0.01 0.29Zm-0.14 -1.1c-0.591 0.416 -1.28 0.671 -2 0.74 -2.05 0.08 -2.79 -2.89 -5.78 -2.16 -0.08 0.01 -0.16 0.01 -0.24 0 -0.015 -0.093 -0.015 -0.187 0 -0.28 0.403 -0.809 1.049 -1.472 1.848 -1.894 0.799 -0.423 1.71 -0.584 2.605 -0.461 0.896 0.122 1.73 0.522 2.386 1.144 0.656 0.622 1.101 1.433 1.271 2.321 0.05 0.22 0.05 0.45 -0.14 0.59h0.05Z" stroke-width="1"></path>
  <path fill="#1c1c1e" d="M123.94 70.92c-0.24 0.29 -0.12 0.48 -0.33 0.83 -0.378 0.4157 -0.664 0.9063 -0.84 1.44 -0.049 0.1049 -0.075 0.2192 -0.075 0.335 0 0.1158 0.026 0.2301 0.075 0.335 0.08 0.13 0.18 0.17 0.28 -0.17 0.32 -1.2 0.94 -1.42 1.06 -2 0.008 -0.1418 0.052 -0.2792 0.127 -0.3997 0.075 -0.1206 0.179 -0.2204 0.303 -0.2903 0.71 -0.54 0.2 -1.19 0.82 -1.47 0.62 -0.28 -0.54 -0.77 -0.74 0.13 -0.018 0.2726 -0.093 0.5384 -0.22 0.78 -0.06 0.15 -0.29 0.28 -0.46 0.48Z" stroke-width="1"></path>
  <path fill="#1c1c1e" d="M122.82 146.61c0.113 0.01 0.227 0.01 0.34 0 0.186 -0.046 0.37 -0.103 0.55 -0.17 0.121 -0.044 0.227 -0.125 0.301 -0.23 0.075 -0.105 0.117 -0.231 0.119 -0.36 0 -0.26 -0.22 -0.39 -0.45 -0.5 -0.302 -0.12 -0.638 -0.12 -0.94 0 -0.137 0.047 -0.259 0.131 -0.352 0.242 -0.094 0.111 -0.155 0.245 -0.178 0.388 0.021 0.156 0.092 0.302 0.202 0.415 0.109 0.113 0.252 0.189 0.408 0.215Z" stroke-width="1"></path>
  <path fill="#1c1c1e" d="M114.93 73.48c0.76 0 0.33 0.36 0.28 0.64 -0.027 0.0725 -0.028 0.1523 -0.003 0.2255 0.026 0.0731 0.076 0.1349 0.143 0.1745 0.067 0.0392 0.147 0.0516 0.223 0.035 0.075 -0.0167 0.142 -0.0613 0.187 -0.125 0.101 -0.1306 0.182 -0.2755 0.24 -0.43 0.24 -0.69 -0.12 -0.91 -0.79 -1 -0.43 0 0 -0.93 0.28 -1.18 1.21 -1 1.17 0.26 1.62 0 0.45 -0.26 -0.1 -1.21 -0.93 -1.07 -0.389 0.0466 -0.755 0.2102 -1.05 0.469 -0.295 0.2589 -0.504 0.6009 -0.6 0.981 -0.39 1.16 -0.16 1.25 0.4 1.28Z" stroke-width="1"></path>
  <path fill="#1c1c1e" d="m113.09 124.48 -0.25 0c-4.671 -0.744 -9.407 -0.995 -14.13 -0.75 -1 0 -0.85 0.33 -0.64 0.47 0.55 0.39 6.37 -0.08 11.89 0.57 1.63 0.19 2.74 0.43 3.07 0.39 0.16 0 0.35 -0.06 0.32 -0.26 -0.033 -0.167 -0.125 -0.316 -0.26 -0.42Z" stroke-width="1"></path>
  <path fill="#1c1c1e" d="M103.59 70.87c0.88 0 1.38 -0.4 3.16 -1.29 3.44 -1.7 3.31 -1.61 4.12 -0.24 0.036 0.0597 0.092 0.1046 0.158 0.1264 0.066 0.0219 0.138 0.0192 0.202 -0.0075 0.064 -0.0267 0.117 -0.0756 0.148 -0.1378 0.031 -0.0622 0.039 -0.1336 0.022 -0.2011 -0.63 -2 -1.23 -2.32 -4.5 -0.56 -2.72 1.46 -3.45 1.79 -4.38 1 -0.16 -0.14 -0.33 -0.08 -0.4 0.13 -0.22 0.64 0.58 1.16 1.47 1.18Z" stroke-width="1"></path>
  <path fill="#1c1c1e" d="M110.83 128.78c-1.72 -0.32 -5.85 -0.86 -9.19 -1.52 -2.22 -0.44 -1.06 -0.09 -12 -3.21 -0.16 0 -0.32 0 -0.38 0.18s0.14 0.26 0.25 0.31c4.2411 1.419 8.5577 2.601 12.93 3.54 6 1.12 4.26 0.65 8.21 1.37 0.106 0.028 0.219 0.018 0.319 -0.028 0.1 -0.045 0.182 -0.124 0.231 -0.222 0.001 -0.103 -0.037 -0.203 -0.105 -0.281 -0.068 -0.077 -0.162 -0.127 -0.265 -0.139Z" stroke-width="1"></path>
  <path fill="#1c1c1e" d="M110 173.05c-0.906 -0.605 -1.768 -1.273 -2.58 -2 -0.096 -0.098 -0.211 -0.175 -0.339 -0.227 -0.127 -0.052 -0.264 -0.076 -0.401 -0.073 -1.18 0.09 -0.21 -0.05 -9.57 0.71 -0.36 0 -0.43 0.1 -0.45 0.47 -0.16 2.5 0 2.67 -0.11 3.27 -0.0188 0.152 -0.0005 0.305 0.0535 0.448 0.0541 0.143 0.1421 0.271 0.2565 0.372 2.52 2.48 2.41 2.59 2.9 2.55 3.422 0.045 6.844 -0.145 10.24 -0.57 0.27 0 0.34 -0.2 0.34 -0.42 0 -0.52 -0.09 -2.39 -0.15 -4 0.025 -0.097 0.021 -0.2 -0.013 -0.294 -0.034 -0.095 -0.096 -0.177 -0.177 -0.236Zm-12.15 -1c0.32 -0.05 6.44 -0.49 8.84 -0.63 0.081 0.007 0.157 0.038 0.22 0.09 1.94 1.62 1.92 1.57 1.64 1.63 -9.11 0.65 -8.81 1 -9.48 0.2 -0.4052 -0.379 -0.8362 -0.73 -1.29 -1.05 -0.0485 -0.046 -0.0891 -0.1 -0.12 -0.16l0.19 -0.08Zm11.47 5.32c-3.013 0.365 -6.045 0.545 -9.08 0.54 -0.68 0 -0.79 -0.32 -2.42 -1.86 -0.2169 -0.175 -0.3876 -0.401 -0.4975 -0.657 -0.1098 -0.256 -0.1553 -0.535 -0.1325 -0.813 0.07 -0.8 0 -1.44 0.07 -1.83 0.27 0.18 0.91 0.74 1.77 1.43 0.0634 0.039 0.116 0.093 0.1527 0.158 0.0367 0.065 0.0564 0.138 0.0573 0.212 0.0113 0.87 0.0781 1.738 0.2 2.6 0 0.077 0.0305 0.151 0.0849 0.205 0.0544 0.054 0.1282 0.085 0.2051 0.085s0.1507 -0.031 0.2051 -0.085c0.0543 -0.054 0.0849 -0.128 0.0849 -0.205 0.052 -0.809 0.005 -1.622 -0.14 -2.42 0 -0.17 0 -0.28 0.24 -0.29 0.24 -0.01 6 -0.49 9.56 -0.65 0 1 0.05 2.64 0.07 3.11 0.02 0.47 -0.09 0.42 -0.48 0.47h0.05Z" stroke-width="1"></path>
  <path fill="#1c1c1e" d="M107.8 72.49c-4.09 0.94 -3.92 -0.55 -4.44 0.3 -0.27 0.45 2.52 1.66 4.71 0.32 0.41 -0.25 0.21 -0.73 -0.27 -0.62Z" stroke-width="1"></path>
  <path fill="#1c1c1e" d="M103.42 80c-2.11 -0.08 -3.33 1.38 -5.68 1.26 0.093 -0.1788 0.1571 -0.3712 0.19 -0.57 0.0089 -0.0581 -0.0048 -0.1175 -0.0382 -0.1658 -0.0335 -0.0484 -0.0842 -0.0821 -0.1418 -0.0942 -0.39 -0.06 -1.1 1.17 -0.68 2.21 0.0135 0.0477 0.0367 0.092 0.0681 0.1303 0.0314 0.0383 0.0704 0.0697 0.1146 0.0922 0.0441 0.0225 0.0924 0.0357 0.1418 0.0387 0.0494 0.003 0.099 -0.0042 0.1455 -0.0212 0.27 -0.17 0 -0.46 -0.09 -0.81 0 -0.13 0 -0.16 0.18 -0.17 2.77 -0.18 3.7 -1 5.07 -1.19 0.946 -0.1198 1.902 0.1193 2.68 0.67 0.4 0.18 0.52 -0.33 0.37 -0.49 -0.654 -0.5511 -1.475 -0.8647 -2.33 -0.89Z" stroke-width="1"></path>
  <path fill="#1c1c1e" d="M97.54 75.06c0 1 2.17 2.84 3.63 1.32 0.32 -0.33 0.25 -1 -0.43 -0.57 -0.195 0.152 -0.423 0.2552 -0.666 0.3011 -0.2426 0.0458 -0.4927 0.033 -0.7295 -0.0374 -0.2368 -0.0705 -0.4534 -0.1965 -0.6316 -0.3676 -0.1782 -0.1711 -0.3129 -0.3824 -0.3929 -0.6161 0 -0.57 1 -0.83 1.88 -1.41 0.48 -0.29 0.06 -0.82 -0.4 -0.48 -0.98 0.73 -2.25 0.92 -2.26 1.86Z" stroke-width="1"></path>
  <path fill="#1c1c1e" d="M100.73 69.73c-0.13 -1.28 0.65 -3.07 0.21 -3.25 -0.24 -0.1 -0.39 0.07 -0.5 0.47 -0.219 0.9267 -0.27 1.8853 -0.15 2.83 0.06 0.52 0.48 0.32 0.44 -0.05Z" stroke-width="1"></path>
  <path fill="#1c1c1e" d="M99.18 70c0.25 0.52 0.71 0.34 0.46 -0.21 -0.2481 -0.6725 -0.4225 -1.3699 -0.52 -2.08 -0.06 -0.35 -0.25 -0.53 -0.44 -0.46s-0.24 0.23 -0.18 0.61c0.0996 0.7477 0.3298 1.472 0.68 2.14Z" stroke-width="1"></path>
  <path fill="#1c1c1e" d="M107.59 160.17c-0.11 -1.49 -0.34 -2.57 -1.31 -3.35 -0.137 -0.138 -0.311 -0.234 -0.501 -0.274 -0.19 -0.041 -0.388 -0.026 -0.569 0.044 -23.79 7.87 -22.37 7.19 -22.76 7.66 -0.39 0.47 -2.16 2.49 -2.49 3 -0.33 0.51 -0.14 0.85 0.45 0.88 1.4757 0.075 2.9543 0.075 4.43 0 8.78 -2.7 15.16 -4.79 15.9 -5 0.26 -0.08 0.53 -0.11 0.79 -0.2l2.2 -0.77c3.32 -1.16 3.92 -1.16 3.86 -1.99Zm-24 7.43c-0.27 0 -1.59 0.05 -1.77 0.05 -0.0865 0.009 -0.1736 -0.008 -0.25 -0.05 -0.0096 -0.183 -0.0639 -0.36 -0.158 -0.517 -0.0942 -0.157 -0.2253 -0.289 -0.382 -0.383 0 -0.06 1.11 -1.19 1.55 -1.74 0.13 -0.16 0.22 -0.12 0.33 0 0.6015 0.515 1.0075 1.221 1.15 2 0.12 0.36 -0.06 0.62 -0.44 0.64h-0.03Zm-0.14 -3.1c-0.07 -0.05 -0.14 -0.15 0 -0.2 0.48 -0.18 14.61 -4.75 16.15 -5.26 0.38 -0.08 0.58 0.2 0.77 0.38 -0.64 0.27 -14.14 4.56 -15.46 5.08 -0.45 0.17 -0.52 0.31 -0.42 0.46 0.1 0.15 0.45 0 0.55 0 3.83 -1.07 7.93 -2.55 15.36 -4.88 0.1 0 0.28 -0.1 0.33 0.07 0.093 0.158 0.145 0.337 0.15 0.52 0 0.07 -0.19 0.16 -0.31 0.21 -0.12 0.05 -14.47 4.7 -15.65 5.12 -0.71 0.17 -0.38 -0.64 -1.44 -1.5h-0.03Zm17.33 -2.06c-1.35 0.43 -14.16 4.47 -15.69 4.94 -0.22 0.06 -0.33 0 -0.36 -0.1 0 -0.69 -0.18 -0.65 0.34 -0.81 5.37 -1.65 13 -4.19 15.7 -5 0.086 -0.006 0.171 0.019 0.24 0.07 0.19 0.14 0.04 0.82 -0.2 0.9h-0.03Zm1.55 -0.77c0 0.09 0 0.12 -0.15 0.17 -0.159 0.07 -0.323 0.13 -0.49 0.18 0.087 -1.059 -0.188 -2.117 -0.78 -3 -0.068 -0.066 -0.129 -0.14 -0.18 -0.22 0.13 -0.067 0.274 -0.105 0.42 -0.11 0.42 0.368 0.748 0.829 0.958 1.346 0.211 0.518 0.297 1.077 0.252 1.634h-0.03Zm0.79 -0.08c-0.25 0 0 -0.68 -0.48 -1.92 -0.173 -0.456 -0.424 -0.879 -0.74 -1.25 0.137 -0.072 0.286 -0.116 0.44 -0.13 0.19 0 0.24 0.09 0.35 0.21 0.647 0.809 0.999 1.814 1 2.85 -0.163 0.114 -0.346 0.195 -0.54 0.24h-0.03Zm1.37 -0.44c-0.25 0.08 -0.27 0 -0.27 -0.22 -0.018 -0.593 -0.161 -1.176 -0.42 -1.71 -0.53 -1.09 -0.87 -1.16 -0.51 -1.28l2.08 -0.68c0.26 -0.1 0.38 -0.15 0.62 0.15 0.555 0.753 0.868 1.656 0.9 2.59 0 0.28 -0.15 0.43 -0.42 0.51 -0.63 0.2 -1.3 0.41 -1.95 0.64h-0.03Z" stroke-width="1"></path>
  <path fill="#1c1c1e" d="M94.24 68.55c0.7721 0.7536 1.6774 1.3572 2.67 1.78 0.3485 0.1407 0.7274 0.1889 1.1 0.14 0.0897 -0.0206 0.1688 -0.0731 0.2227 -0.1477s0.0789 -0.1663 0.0704 -0.2579c-0.0086 -0.0916 -0.0501 -0.1771 -0.1169 -0.2404s-0.1542 -0.1003 -0.2462 -0.104c-1.0078 -0.1438 -1.9378 -0.6229 -2.64 -1.36 -0.2535 -0.2842 -0.5622 -0.5139 -0.9072 -0.6751 -0.3451 -0.1612 -0.7193 -0.2506 -1.0999 -0.2628 -0.3807 -0.0121 -0.7598 0.0532 -1.1144 0.1921 -0.3547 0.1389 -0.6773 0.3484 -0.9485 0.6158 -0.38 0.33 -0.4 0.62 -0.22 0.78 0.56 0.49 1.62 -1.69 3.23 -0.46Z" stroke-width="1"></path>
  <path fill="#1c1c1e" d="M96.66 73.16c0.46 -0.1 0.79 -0.83 0 -0.75 -1.0727 0.0776 -2.1491 -0.0864 -3.15 -0.48 -0.57 -0.24 -0.58 0.43 -0.31 0.64 1.0331 0.6381 2.2738 0.8497 3.46 0.59Z" stroke-width="1"></path>
  <path fill="#1c1c1e" d="M79.71 22.61c0.37 0.07 -0.06 0.3 0 1.61 0.2 2.42 2.58 4.51 9 3.57 0.12 0 0.1 0.12 0.07 0.16 -1.78 2.43 -3 4.87 0 4.62H89c-0.07 0.17 -0.52 1.21 -0.7 1.68 -0.1033 0.2532 -0.1241 0.5325 -0.0594 0.7983 0.0646 0.2657 0.2114 0.5042 0.4194 0.6817 0.2811 0.2539 0.6341 0.4143 1.0102 0.4591 0.3762 0.0447 0.7569 -0.0283 1.0898 -0.2091 0.32 -0.09 0.32 -0.09 0.33 0.26 -0.0067 0.2747 0.07 0.545 0.2199 0.7753 0.15 0.2303 0.3662 0.4097 0.6201 0.5147 0.3916 0.1657 0.7923 0.3093 1.2 0.43 0.4 0.13 0.73 -0.46 0.19 -0.63 -1 -0.31 -1.58 -0.18 -1.64 -1.36 -0.0052 -0.2037 0.0253 -0.4068 0.09 -0.6 0.13 -0.34 -0.13 -0.63 -0.53 -0.36 -0.75 0.48 -1.54 0.85 -2.19 0.23 -0.34 -0.33 -0.22 -0.72 -0.1 -1.1 0.2689 -0.864 0.7227 -1.6591 1.33 -2.33 0.42 -0.45 0.15 -0.82 -0.18 -0.65 -0.2222 0.2754 -0.5022 0.4988 -0.8201 0.6543 -0.3179 0.1555 -0.666 0.2394 -1.0199 0.2457 -0.27 0 -0.46 -0.11 -0.53 -0.3 -0.3 -0.8 0.85 -3 3 -4.5 0.46 -0.32 0.21 -0.9 -0.34 -0.68 -5.51 2.23 -11.12 0.18 -10 -3.52 0.1 -0.33 0.15 -0.37 0.46 -0.32 3 0.54 9.79 -0.58 11.18 -3.61 1.85 -4 -9.54 -1.72 -11.77 2.65 -0.13 0.26 -0.36 0.23 -0.57 0.2 -2.91 -0.45 -5.13 -1.56 -4.74 -4.48 0.51 -3.77 3.3 -6.22 6.73 -7.92999 1.66 -0.82 5 -1.55 6.51 -0.92 0.9 0.39 0.69 1.07 0.78 1.23 0.18 0.31999 0.46 0.25999 0.49 -0.06 0.26 -3 -5.37 -2.09 -8.08 -0.75 -3.65 1.80999 -6.67 4.48999 -7 8.54999 -0.3 3.38 2.1 4.38 5.33 4.99Zm1.12 -0.6c3.42 -4.7 12.43 -5.45 10.55 -2.92 -2 2.71 -7.13 3.41 -10.49 3.1 -0.15 -0.02 -0.11 -0.12 -0.06 -0.19v0.01Z" stroke-width="1"></path>
  <path fill="#1c1c1e" d="M79.59 102.13c-0.27 0.14 -0.09 0.72 0.06 1.06 0.6537 1.528 1.1593 3.115 1.51 4.74 0.27 1.15 0.16 2.43 0.68 2.35 1.02 -0.15 -1.77 -8.4 -2.25 -8.15Z" stroke-width="1"></path>
  <path fill="#1c1c1e" d="M79.33 151.48c-1.18 -0.16 -49.28 -1.93 -49.49 -1.92 -0.21 0.01 -0.29 0.11 -0.25 0.22 0.04 0.11 0.11 0.27 0.44 0.27s49.29 2 49.3 2c0.23 0.06 0.72 -0.05 0.71 -0.24 -0.01 -0.19 -0.16 -0.25 -0.71 -0.33Z" stroke-width="1"></path>
  <path fill="#1c1c1e" d="M74.36 161.91c-0.17 0 -1.62 -0.25 -2.36 -0.38 -0.32 -0.05 -0.36 -0.1 -0.28 -0.4 0 0 0 -0.14 0.93 -3.28 0.118 -0.302 0.1424 -0.633 0.07 -0.95 -0.06 -0.22 -0.31 -0.24 -0.68 -0.24 -0.37 0 -26.24 0.78 -26.86 0.75 -0.09 0 -5.64 -0.83 -10 -1.53 -0.1327 -0.03 -0.2706 -0.028 -0.4026 0.005s-0.2544 0.096 -0.3574 0.185c-17.73 14.85 -19.51 15.72 -19 16.21 0.27 0.24 0.47 0.25 1.65 0.64l3.95 1.33c0.17 0.06 0.23 0.07 0.07 0.25 -0.47 0.5 -0.54 0.72 -3 3.51 -0.0693 0.074 -0.1156 0.166 -0.1334 0.265 -0.0177 0.1 -0.0061 0.202 0.0334 0.295 0.13 0.45 0.33 0.38 2.92 0.61 16.29 1.47 9.17 0.89 19.4 1.86 1.29 0.06 0.93 -0.06 16.42 5.11 0.38 0.13 0.49 0.06 0.72 -0.27l2 -2.79c0.0356 -0.043 0.0799 -0.077 0.1299 -0.101 0.05 -0.024 0.1046 -0.038 0.1601 -0.039 0.87 0.07 0.55 0.07 4.56 0.42 0.73 0.07 0.92 0.1 1.12 -0.74 0.13 -0.51 3.29 -11.46 3.32 -11.56 0.26 -0.92 0.38 -0.79 5.88 -8.19 0.5 -0.52 0.38 -0.82 -0.26 -0.97Zm-2.51 -4.69c0.37 0 0.4 0 0.3 0.37 -0.24 0.88 -0.44 1.51 -1 3.47 -0.08 0.3 -0.12 0.32 -0.45 0.27 -0.87 -0.13 -21.42 -3.21 -21.71 -3.37 0.37 -0.05 22.76 -0.73 22.86 -0.74Zm-32.66 23.16c-1.35 -0.14 -20.09 -1.93 -20.37 -2 -0.28 -0.07 -0.21 -0.13 -0.09 -0.27 0.42 -0.49 2.34 -2.71 2.86 -3.34 0.0528 -0.093 0.1385 -0.163 0.2402 -0.196 0.1017 -0.034 0.2122 -0.028 0.3098 0.016 6 2.06 16.33 5.43 17.19 5.76l-0.14 0.03ZM65 182.45c-0.15 0.49 -0.11 0.39 -0.49 0.4 -2.72 -0.25 -2.42 -0.24 -4.18 -0.4 -0.16 0 -0.16 -0.07 -0.08 -0.18 0.08 -0.11 7.52 -10.11 7.73 -10.28 0.02 0.26 0.16 -0.59 -2.98 10.46Zm9.23 -19.74c-0.08 0.1 -16.81 22.54 -17.23 22.89 -2 -0.61 -24.28 -8.15 -40.6 -13.51 -0.31 -0.11 -0.32 -0.12 -0.07 -0.33 5 -4.16 17.07 -14.16 18.26 -15.14 0.0854 -0.086 0.1892 -0.151 0.3036 -0.191 0.1143 -0.04 0.2362 -0.053 0.3564 -0.039 9 1.49 37.7 5.89 38.89 6.07 0.2 0.03 0.21 0.04 0.05 0.25h0.04Z" stroke-width="1"></path>
  <path fill="#1c1c1e" d="M69.37 163.47c-0.75 -0.17 -6 -1 -6.05 -1 -0.1147 -0.015 -0.2314 -0.001 -0.3384 0.043 -0.1071 0.044 -0.2008 0.116 -0.2716 0.207 -0.87 0.94 -0.75 0.8 -3.82 4.32 -0.28 0.32 -0.25 0.49 0.17 0.61 0.42 0.12 4.28 1 6.61 1.63 0.1238 0.048 0.2605 0.051 0.3865 0.009 0.1259 -0.042 0.2333 -0.126 0.3035 -0.239 0.48 -0.64 2.36 -3.23 2.81 -3.89 0.2228 -0.314 0.4138 -0.649 0.57 -1 0.0366 -0.068 0.0558 -0.145 0.0558 -0.222 0 -0.078 -0.0192 -0.154 -0.0558 -0.222 -0.0366 -0.068 -0.0896 -0.127 -0.1541 -0.17 -0.0646 -0.042 -0.1387 -0.069 -0.2159 -0.076Zm-0.36 0.92c-3.54 4.93 -2.68 3.61 -2.91 4 -0.0425 0.106 -0.1247 0.192 -0.2293 0.239 -0.1045 0.046 -0.2232 0.05 -0.3307 0.011 -0.27 -0.11 -5.51 -1.27 -5.86 -1.41 -0.0115 -0.023 -0.0174 -0.049 -0.0174 -0.075 0 -0.026 0.0059 -0.052 0.0174 -0.075 0.06 -0.09 3.23 -3.75 3.3 -3.84 0.1097 -0.102 0.2267 -0.195 0.35 -0.28 0.55 0.08 5.16 0.85 5.52 0.93 0.36 0.08 0.4 0.17 0.15 0.5h0.01Z" stroke-width="1"></path>
  <path fill="#1c1c1e" d="M55.49 134.82c3.66 -2 3.49 -8 -1.5 -8.61 -0.0632 0.009 -0.1231 0.033 -0.1739 0.072 -0.0508 0.038 -0.0908 0.089 -0.1161 0.148 0.0092 0.13 0.062 0.254 0.15 0.35 0 0 4.15 0.61 3.42 4.44 -0.1944 1.087 -0.8087 2.053 -1.71 2.69 -0.6783 0.546 -1.5246 0.84 -2.3952 0.833 -0.8706 -0.007 -1.7119 -0.316 -2.381 -0.873 -0.669 -0.557 -1.1246 -1.329 -1.2893 -2.184 -0.1648 -0.855 -0.0286 -1.74 0.3855 -2.506 0.38 -0.8 0.47 -1 0.4 -1.07 -0.0277 -0.015 -0.0586 -0.023 -0.09 -0.023s-0.0623 0.008 -0.09 0.023c-1 0.63 -1.31 2.15 -1.23 3.41 0.0627 0.74 0.3148 1.452 0.7321 2.067 0.4173 0.615 0.9858 1.112 1.6507 1.443 0.665 0.331 1.404 0.486 2.1461 0.449 0.7421 -0.036 1.4622 -0.263 2.0911 -0.659Z" stroke-width="1"></path>
  <path fill="#1c1c1e" d="M63.83 171.07c-0.1004 0.068 -0.1855 0.157 -0.25 0.26 -0.84 1.09 -3 3.83 -3.17 4.12 -0.17 0.29 0.05 0.79 0.56 0.23 3.42 -4.41 3.23 -4.16 3.25 -4.3 0.01 -0.38 -0.01 -0.44 -0.39 -0.31Z" stroke-width="1"></path>
  <path fill="#1c1c1e" d="M62.44 170.94c-0.08 -0.09 -0.13 -0.22 -0.22 -0.25 -0.0544 -0.009 -0.1101 -0.004 -0.1623 0.013 -0.0523 0.017 -0.0995 0.047 -0.1377 0.087 -0.69 0.86 -1.38 1.72 -2.06 2.59 -0.0689 0.077 -0.1069 0.177 -0.1069 0.28 0 0.103 0.038 0.203 0.1069 0.28 0.12 0.1 0.34 0 0.51 -0.2 1.74 -2.29 1.93 -2.55 2.07 -2.8Z" stroke-width="1"></path>
  <path fill="#1c1c1e" d="M60.59 170.18c0.06 -0.24 -0.1 -0.46 -0.38 -0.29 -0.28 0.17 0 -0.11 -3.39 4.2 -0.0654 0.081 -0.1161 0.172 -0.15 0.27 -0.06 0.17 0.08 0.36 0.32 0.34 0.29 -0.2 0.31 -0.26 1.12 -1.29 2.49 -3.18 2.38 -2.99 2.48 -3.23Z" stroke-width="1"></path>
  <path fill="#1c1c1e" d="M57.29 161.92c-0.06 -0.06 -0.21 0 -0.32 0 -0.0622 0.022 -0.1151 0.064 -0.15 0.12 -0.12 0.14 -10.63 13.14 -10.86 13.54 -0.13 0.23 0 0.45 0.31 0.45 0.1006 -0.082 0.1942 -0.173 0.28 -0.27 0 0 10.44 -13 10.77 -13.52 0.0259 -0.051 0.0368 -0.108 0.0315 -0.164 -0.0053 -0.057 -0.0267 -0.111 -0.0615 -0.156Z" stroke-width="1"></path>
  <path fill="#1c1c1e" d="M46.48 171c0.52 -0.52 7.39 -9.42 7.58 -9.72 0 -0.08 0.06 -0.28 0 -0.31 -0.1135 -0.06 -0.2434 -0.081 -0.37 -0.06 -0.07 0 -0.13 0.09 -0.18 0.16 -7.42 9.52 -7.23 9.2 -7.37 9.59 -0.0153 0.047 -0.0172 0.098 -0.0056 0.146 0.0116 0.049 0.0364 0.093 0.0716 0.128 0.0351 0.035 0.0793 0.06 0.1277 0.072 0.0483 0.011 0.099 0.009 0.1463 -0.006Z" stroke-width="1"></path>
  <path fill="#1c1c1e" d="M50.71 160.5c-0.0738 -0.063 -0.1654 -0.102 -0.2621 -0.111 -0.0967 -0.009 -0.1938 0.013 -0.2779 0.061 -0.29 0.3 -6.74 8.72 -10.37 13.34 -0.41 0.53 0 1 0.47 0.43 0.47 -0.57 7.31 -9.45 10.22 -13.32 0.0809 -0.129 0.1543 -0.263 0.22 -0.4Z" stroke-width="1"></path>
  <path fill="#1c1c1e" d="M40.28 167.78c0.36 -0.18 5.27 -5.94 6.25 -7.08 0.1535 -0.184 0.2907 -0.382 0.41 -0.59 0.0296 -0.052 0.0377 -0.113 0.0228 -0.171 -0.0149 -0.058 -0.0518 -0.108 -0.1028 -0.139 -0.16 -0.1 -0.38 0 -0.49 0.18 -1.07 1.17 -6 6.89 -6.37 7.32 -0.0364 0.047 -0.0578 0.104 -0.0617 0.164 -0.0038 0.059 0.0102 0.119 0.0403 0.17 0.03 0.052 0.0748 0.093 0.1285 0.119 0.0536 0.026 0.1139 0.035 0.1729 0.027Z" stroke-width="1"></path>
  <path fill="#1c1c1e" d="M39.29 158.58c-0.18 0.12 0 -0.12 -3.41 4.13 0 0.06 -0.11 0.11 -0.11 0.17l0 0.37c0.26 0.13 0.5 0 0.66 -0.27 1.1521 -1.311 2.2241 -2.69 3.21 -4.13 0.02 -0.27 -0.18 -0.38 -0.35 -0.27Z" stroke-width="1"></path>
  <path fill="#1c1c1e" d="M37.66 158.4c0 -0.21 -0.18 -0.31 -0.33 -0.21 -0.15 0.1 -0.16 0.08 -2.53 2.79 0 0.07 -0.14 0.13 -0.15 0.2 -0.01 0.07 0 0.3 0.05 0.37s0.25 0 0.36 0c0.0916 -0.048 0.1679 -0.121 0.22 -0.21 2.18 -2.54 2.26 -2.64 2.38 -2.94Z" stroke-width="1"></path>
  <path fill="#1c1c1e" d="M36 158c0 -0.23 -0.14 -0.31 -0.28 -0.26 -0.1428 0.056 -0.2723 0.141 -0.38 0.25 -3.28 3.22 -3.14 3.1 -3.19 3.22 -0.0162 0.098 0.0052 0.198 0.06 0.28 0.29 0.24 0.72 -0.24 3.55 -3.17 0.091 -0.098 0.1714 -0.205 0.24 -0.32Z" stroke-width="1"></path>
  <path fill="#1c1c1e" d="M25.51 165.92c0.2381 1.098 0.2619 2.233 0.07 3.34 0 0.16 -0.12 0.16 -0.21 0.06 -0.4862 -0.486 -0.9436 -1 -1.37 -1.54 -0.3 -0.32 -0.6 -0.27 -0.72 0.16 -0.12 0.43 0 1.71 -0.12 3 0 0.42 -0.46 0 -0.78 -0.28 -0.52 -0.49 -1.2 0.16 -0.68 1.5 0 0.1 0.28 0.36 0.39 -0.07 0 -0.13 -0.21 -0.82 0.06 -0.9 0.27 -0.08 0.5 0.35 0.84 0.54 0.34 0.19 0.38 0 0.55 -0.2 0.17 -0.2 0.17 -0.79 0.18 -2.76 0 -0.05 0 -0.37 0.09 -0.44s2.06 3.18 2.34 0.75c0.145 -1.116 0.0737 -2.25 -0.21 -3.34 -0.06 -0.28 -0.53 -0.25 -0.43 0.18Z" stroke-width="1"></path>
</svg>