<svg xmlns="http://www.w3.org/2000/svg" fill="none" viewBox="0 0 100 100" id="Searching-Network--Streamline-Ux">
  <desc>
    Searching Network Streamline Illustration: https://streamlinehq.com
  </desc>
  <path fill="#64a8a60a" d="M48.7992 89.4251c21.9986 0 39.8319 -17.8334 39.8319 -39.8319 0 -21.9986 -17.8333 -39.83194 -39.8319 -39.83194 -21.9986 0 -39.83191 17.83334 -39.83191 39.83194 0 21.9985 17.83331 39.8319 39.83191 39.8319Z" stroke-width="1"></path>
  <path stroke="#042f2e" stroke-linecap="round" stroke-linejoin="round" d="m24.0685 26.4717 -13.726 30.9594" stroke-width="1"></path>
  <path stroke="#042f2e" stroke-linecap="round" stroke-linejoin="round" d="M36.6604 77.8709 10.3425 57.4311" stroke-width="1"></path>
  <path stroke="#042f2e" stroke-linecap="round" stroke-linejoin="round" d="m24.0686 26.4717 35.7004 -7.6009" stroke-width="1"></path>
  <path stroke="#042f2e" stroke-linecap="round" stroke-linejoin="round" d="M77.7251 47.26 59.7689 18.8708" stroke-width="1"></path>
  <path stroke="#042f2e" stroke-linecap="round" stroke-linejoin="round" d="m77.7251 47.26 -29.2117 6.5325 -38.1709 3.6386" stroke-width="1"></path>
  <path stroke="#042f2e" stroke-linecap="round" stroke-linejoin="round" d="m24.0686 26.4717 12.5919 51.3991" stroke-width="1"></path>
  <path stroke="#042f2e" stroke-linecap="round" stroke-linejoin="round" d="M59.7689 18.8708 48.5134 53.7925" stroke-width="1"></path>
  <path stroke="#042f2e" stroke-linecap="round" stroke-linejoin="round" d="M24.0686 26.4717 64.0848 71.195" stroke-width="1"></path>
  <path stroke="#042f2e" stroke-linecap="round" stroke-linejoin="round" d="m64.0847 71.195 -27.4243 6.6759" stroke-width="1"></path>
  <path stroke="#042f2e" stroke-linecap="round" stroke-linejoin="round" d="m10.3425 57.4311 49.4264 -38.5603" stroke-width="1"></path>
  <path fill="#ffffff" stroke="#042f2e" stroke-linecap="round" stroke-linejoin="round" d="M11.4757 66.5626c6.0617 0 10.9757 -4.914 10.9757 -10.9757s-4.914 -10.9757 -10.9757 -10.9757C5.41398 44.6112 0.5 49.5252 0.5 55.5869s4.91398 10.9757 10.9757 10.9757Z" stroke-width="1"></path>
  <path fill="#ffffff" stroke="#042f2e" stroke-linecap="round" stroke-linejoin="round" d="M17.336 58.3821c-0.0022 -0.2384 -0.0867 -0.4687 -0.2394 -0.6519 -0.1526 -0.1831 -0.364 -0.3078 -0.5981 -0.3528v-0.6702c0.0094 -0.666 -0.1137 -1.3273 -0.3621 -1.9453 -0.2484 -0.618 -0.6171 -1.1805 -1.0848 -1.6548 -0.4676 -0.4743 -1.0249 -0.8509 -1.6394 -1.108 -0.6145 -0.2571 -1.2739 -0.3895 -1.94 -0.3895 -0.6661 0 -1.3255 0.1324 -1.93997 0.3895 -0.61448 0.2571 -1.17174 0.6337 -1.6394 1.108 -0.46767 0.4743 -0.83641 1.0368 -1.0848 1.6548 -0.24839 0.618 -0.37147 1.2793 -0.36209 1.9453v0.6702c-0.24419 0.0457 -0.46348 0.1785 -0.61714 0.3737 -0.15366 0.1952 -0.23124 0.4396 -0.21835 0.6877 0.0129 0.248 0.11541 0.483 0.28848 0.6613 0.17307 0.1782 0.40495 0.2875 0.65256 0.3077 0.23597 1.1305 0.85398 2.1452 1.75013 2.8736 0.89614 0.7284 2.01578 1.1261 3.17058 1.1261 1.1549 0 2.2745 -0.3977 3.1706 -1.1261 0.8962 -0.7284 1.5142 -1.7431 1.7502 -2.8736 0.2566 -0.023 0.4954 -0.1409 0.6697 -0.3306 0.1744 -0.1896 0.2718 -0.4375 0.2733 -0.6951v0Z" stroke-width="1"></path>
  <path fill="#0ec3c1" d="M8.7542 59.6388c0.34703 0 0.62835 -0.2813 0.62835 -0.6284 0 -0.347 -0.28132 -0.6283 -0.62835 -0.6283 -0.34702 0 -0.62835 0.2813 -0.62835 0.6283 0 0.3471 0.28133 0.6284 0.62835 0.6284Z" stroke-width="1"></path>
  <path fill="#0ec3c1" d="M14.1982 59.6388c0.347 0 0.6283 -0.2813 0.6283 -0.6284 0 -0.347 -0.2813 -0.6283 -0.6283 -0.6283 -0.3471 0 -0.6284 0.2813 -0.6284 0.6283 0 0.3471 0.2813 0.6284 0.6284 0.6284Z" stroke-width="1"></path>
  <path stroke="#042f2e" stroke-linecap="round" stroke-linejoin="round" d="M10.22 60.5141c0.3718 0.2484 0.809 0.381 1.2562 0.381 0.4472 0 0.8843 -0.1326 1.2562 -0.381" stroke-width="1"></path>
  <path fill="#ffffff" stroke="#042f2e" stroke-linecap="round" stroke-linejoin="round" d="M16.9207 55.4505c0.0098 -0.7212 -0.1238 -1.4371 -0.3931 -2.1062 -0.2692 -0.6692 -0.6687 -1.2781 -1.1752 -1.7915 -0.5066 -0.5135 -1.1101 -0.9212 -1.7755 -1.1994 -0.6654 -0.2783 -1.3794 -0.4216 -2.1007 -0.4216 -0.7212 0 -1.4353 0.1433 -2.1007 0.4216 -0.66541 0.2782 -1.26891 0.6859 -1.77545 1.1994 -0.50654 0.5134 -0.90602 1.1223 -1.17526 1.7915 -0.26924 0.6691 -0.40286 1.385 -0.3931 2.1062v1.2567c0 0.1109 0.04406 0.2173 0.12249 0.2957 0.07844 0.0784 0.18482 0.1225 0.29574 0.1225h0.83846c0.11093 0 0.21731 -0.0441 0.29574 -0.1225 0.07844 -0.0784 0.1225 -0.1848 0.1225 -0.2957 0.0004 -0.4988 0.10101 -0.9924 0.29585 -1.4515 0.19484 -0.4591 0.47993 -0.8744 0.83836 -1.2212 0.09157 -0.09 0.20263 -0.1576 0.32455 -0.1976 0.12192 -0.0401 0.25143 -0.0515 0.37849 -0.0335 0.52853 0.0659 1.01953 0.3075 1.39413 0.6861 0.4949 0.5104 1.1476 0.8388 1.8523 0.9322 0.7048 0.0935 1.4205 -0.0536 2.0313 -0.4173 0.2102 0.408 0.3451 0.8506 0.3983 1.3065 0.012 0.109 0.0637 0.2099 0.1452 0.2834 0.0815 0.0734 0.1872 0.1143 0.297 0.1149h0.8374c0.111 -0.0003 0.2174 -0.0446 0.2958 -0.1232s0.1225 -0.185 0.1225 -0.2961l0.0029 -0.8394Z" stroke-width="1"></path>
  <path stroke="#042f2e" stroke-linecap="round" stroke-linejoin="round" d="M16.9207 55.4505c0.0098 -0.7212 -0.1238 -1.4371 -0.3931 -2.1062 -0.2692 -0.6692 -0.6687 -1.2781 -1.1752 -1.7915 -0.5066 -0.5135 -1.1101 -0.9212 -1.7755 -1.1994 -0.6654 -0.2783 -1.3794 -0.4216 -2.1007 -0.4216 -0.7212 0 -1.4353 0.1433 -2.1007 0.4216 -0.66541 0.2782 -1.26891 0.6859 -1.77545 1.1994 -0.50654 0.5134 -0.90602 1.1223 -1.17526 1.7915 -0.26924 0.6691 -0.40286 1.385 -0.3931 2.1062v1.2567c0 0.1109 0.04406 0.2173 0.12249 0.2957 0.07844 0.0784 0.18482 0.1225 0.29574 0.1225h0.83846c0.11093 0 0.21731 -0.0441 0.29574 -0.1225 0.07844 -0.0784 0.1225 -0.1848 0.1225 -0.2957 0.0004 -0.4988 0.10101 -0.9924 0.29585 -1.4515 0.19484 -0.4591 0.47993 -0.8744 0.83836 -1.2212 0.09157 -0.09 0.20263 -0.1576 0.32455 -0.1976 0.12192 -0.0401 0.25143 -0.0515 0.37849 -0.0335 0.52853 0.0659 1.01953 0.3075 1.39413 0.6861 0.4949 0.5104 1.1476 0.8388 1.8523 0.9322 0.7048 0.0935 1.4205 -0.0536 2.0313 -0.4173 0.2102 0.408 0.3451 0.8506 0.3983 1.3065 0.012 0.109 0.0637 0.2099 0.1452 0.2834 0.0815 0.0734 0.1872 0.1143 0.297 0.1149h0.8374c0.111 -0.0003 0.2174 -0.0446 0.2958 -0.1232s0.1225 -0.185 0.1225 -0.2961l0.0029 -0.8394Z" stroke-width="1"></path>
  <path stroke="#042f2e" stroke-linecap="round" stroke-linejoin="round" d="M14.8216 55.0043c0.0442 -0.0262 0.0798 -0.0649 0.1022 -0.1112 0.0224 -0.0463 0.0307 -0.0982 0.0238 -0.1492 -0.0069 -0.051 -0.0287 -0.0988 -0.0626 -0.1375 -0.0339 -0.0387 -0.0785 -0.0665 -0.1281 -0.08 -0.6574 -0.1854 -1.2263 -0.6006 -1.6033 -1.1701" stroke-width="1"></path>
  <path fill="#042f2e" d="M9.59167 57.9629c0.34702 0 0.62833 -0.2813 0.62833 -0.6284 0 -0.347 -0.28131 -0.6283 -0.62833 -0.6283 -0.34703 0 -0.62835 0.2813 -0.62835 0.6283 0 0.3471 0.28132 0.6284 0.62835 0.6284Z" stroke-width="1"></path>
  <path fill="#042f2e" d="M13.3607 57.9629c0.347 0 0.6284 -0.2813 0.6284 -0.6284 0 -0.347 -0.2814 -0.6283 -0.6284 -0.6283s-0.6283 0.2813 -0.6283 0.6283c0 0.3471 0.2813 0.6284 0.6283 0.6284Z" stroke-width="1"></path>
  <path fill="#ffffff" stroke="#042f2e" stroke-linecap="round" stroke-linejoin="round" d="M11.4757 50.0054c0.7133 -0.0011 1.4198 0.1383 2.0791 0.4103 0.6594 0.2721 1.2587 0.6713 1.7637 1.175 0.2227 -0.3491 0.3424 -0.7539 0.3455 -1.168 0 -1.6192 -1.8751 -2.9326 -4.1883 -2.9326 -2.31325 0 -4.18237 1.3134 -4.18237 2.9326 0.00161 0.4136 0.11963 0.8184 0.34057 1.168 0.50484 -0.5036 1.10397 -0.9028 1.76316 -1.1749 0.65924 -0.272 1.36554 -0.4114 2.07864 -0.4104v0Z" stroke-width="1"></path>
  <path fill="#ffffff" stroke="#042f2e" stroke-linecap="round" stroke-linejoin="round" d="M59.2202 29.6444c6.0617 0 10.9757 -4.914 10.9757 -10.9757S65.2819 7.69299 59.2202 7.69299 48.2445 12.607 48.2445 18.6687c0 6.0617 4.914 10.9757 10.9757 10.9757Z" stroke-width="1"></path>
  <path fill="#ffffff" stroke="#042f2e" stroke-linecap="round" stroke-linejoin="round" d="M66.3391 21.5176c-0.0025 -0.2702 -0.0985 -0.5312 -0.2717 -0.7387 -0.1732 -0.2075 -0.4128 -0.3486 -0.6783 -0.3995v-0.7597c0 -1.5104 -0.6 -2.959 -1.668 -4.027s-2.5165 -1.668 -4.0269 -1.668c-1.5104 0 -2.959 0.6 -4.027 1.668s-1.668 2.5166 -1.668 4.027v0.7597c-0.2773 0.0512 -0.5265 0.2015 -0.7012 0.4228 -0.1748 0.2214 -0.263 0.4987 -0.2484 0.7803 0.0146 0.2816 0.1311 0.5483 0.3278 0.7504 0.1967 0.202 0.4602 0.3257 0.7413 0.3478 0.2668 1.2817 0.9669 2.4324 1.9825 3.2584 1.0156 0.826 2.2848 1.277 3.594 1.277 1.3091 0 2.5783 -0.451 3.5939 -1.277 1.0157 -0.826 1.7158 -1.9767 1.9825 -3.2584 0.2906 -0.0267 0.5609 -0.1605 0.7582 -0.3755 0.1973 -0.215 0.3076 -0.4957 0.3093 -0.7876v0Z" stroke-width="1"></path>
  <path stroke="#042f2e" stroke-linecap="round" stroke-linejoin="round" d="M66.3391 21.5176c-0.0025 -0.2702 -0.0985 -0.5312 -0.2717 -0.7387 -0.1732 -0.2075 -0.4128 -0.3486 -0.6783 -0.3995v-0.7597c0 -1.5104 -0.6 -2.959 -1.668 -4.027s-2.5165 -1.668 -4.0269 -1.668c-1.5104 0 -2.959 0.6 -4.027 1.668s-1.668 2.5166 -1.668 4.027v0.7597c-0.2773 0.0512 -0.5265 0.2015 -0.7012 0.4228 -0.1748 0.2214 -0.263 0.4987 -0.2484 0.7803 0.0146 0.2816 0.1311 0.5483 0.3278 0.7504 0.1967 0.202 0.4602 0.3257 0.7413 0.3478 0.2668 1.2817 0.9669 2.4324 1.9825 3.2584 1.0156 0.826 2.2848 1.277 3.594 1.277 1.3091 0 2.5783 -0.451 3.5939 -1.277 1.0157 -0.826 1.7158 -1.9767 1.9825 -3.2584 0.2906 -0.0267 0.5609 -0.1605 0.7582 -0.3755 0.1973 -0.215 0.3076 -0.4957 0.3093 -0.7876v0Z" stroke-width="1"></path>
  <path fill="#042f2e" d="M57.5592 21.0417c0.3932 0 0.712 -0.3188 0.712 -0.712 0 -0.3933 -0.3188 -0.712 -0.712 -0.712 -0.3933 0 -0.712 0.3187 -0.712 0.712 0 0.3932 0.3187 0.712 0.712 0.712Z" stroke-width="1"></path>
  <path fill="#042f2e" d="M61.8302 21.0417c0.3932 0 0.712 -0.3188 0.712 -0.712 0 -0.3933 -0.3188 -0.712 -0.712 -0.712 -0.3933 0 -0.712 0.3187 -0.712 0.712 0 0.3932 0.3187 0.712 0.712 0.712Z" stroke-width="1"></path>
  <path fill="#0ec3c1" d="M56.6102 22.9396c0.3932 0 0.712 -0.3187 0.712 -0.7119 0 -0.3933 -0.3188 -0.712 -0.712 -0.712s-0.712 0.3187 -0.712 0.712c0 0.3932 0.3188 0.7119 0.712 0.7119Z" stroke-width="1"></path>
  <path fill="#0ec3c1" d="M62.7791 22.9396c0.3933 0 0.712 -0.3187 0.712 -0.7119 0 -0.3933 -0.3187 -0.712 -0.712 -0.712 -0.3932 0 -0.712 0.3187 -0.712 0.712 0 0.3932 0.3188 0.7119 0.712 0.7119Z" stroke-width="1"></path>
  <path stroke="#042f2e" stroke-linecap="round" stroke-linejoin="round" d="M58.2712 23.9325c0.4215 0.281 0.9168 0.431 1.4235 0.431 0.5066 0 1.0019 -0.15 1.4235 -0.431" stroke-width="1"></path>
  <path fill="#ffffff" stroke="#042f2e" stroke-linecap="round" stroke-linejoin="round" d="M53.5252 15.3437v4.271c0 0.1258 0.0499 0.2465 0.1388 0.3355 0.0888 0.0891 0.2094 0.1392 0.3352 0.1395h0.48l1.892 -4.746h-2.846Z" stroke-width="1"></path>
  <path fill="#ffffff" d="M65.8642 15.8207c-0.0003 -1.0069 -0.4005 -1.9724 -1.1125 -2.6842 -0.712 -0.7119 -1.6777 -1.1118 -2.6845 -1.1118h-4.271c-0.1813 0 -0.3588 -0.0519 -0.5115 -0.1497 -0.1526 -0.0978 -0.2741 -0.2373 -0.3499 -0.402 -0.0499 -0.1103 -0.1284 -0.2054 -0.2273 -0.2754 -0.0988 -0.07 -0.2146 -0.1124 -0.3353 -0.1229h-0.8066c-0.7269 -0.014 -1.4333 0.2413 -1.9832 0.7169 -0.5499 0.4757 -0.9044 1.1379 -0.9952 1.8592 -0.071 0.7447 0.154 1.4874 0.6261 2.0677 0.4722 0.5802 1.1537 0.9514 1.8972 1.0333 0.1343 0.5038 0.4167 0.9557 0.8106 1.2973 0.394 0.3415 0.8814 0.557 1.3991 0.6186h0.95c0.0375 -0.0004 0.0738 -0.0129 0.1035 -0.0358 0.0297 -0.0229 0.0512 -0.0548 0.0611 -0.091 0.0099 -0.0361 0.0077 -0.0745 -0.0061 -0.1093 -0.0139 -0.0348 -0.0388 -0.0642 -0.0709 -0.0836 -0.4313 -0.2575 -0.7453 -0.6729 -0.8753 -1.1581 -0.0147 -0.0488 -0.0179 -0.1004 -0.0091 -0.1506 0.0087 -0.0502 0.0291 -0.0977 0.0595 -0.1387 0.0304 -0.0409 0.0699 -0.0742 0.1155 -0.0971 0.0455 -0.0229 0.0958 -0.0348 0.1468 -0.0348h3.8776c0.1248 0 0.2483 0.0246 0.3634 0.0724 0.1152 0.0479 0.2198 0.118 0.3078 0.2064l2.5702 2.5692h0.474c0.0624 0.0001 0.1242 -0.0121 0.1819 -0.0359s0.1101 -0.0588 0.1542 -0.103c0.0442 -0.0441 0.0791 -0.0965 0.103 -0.1542 0.0238 -0.0577 0.036 -0.1195 0.0359 -0.1819l0.001 -3.321Z" stroke-width="1"></path>
  <path stroke="#042f2e" stroke-linecap="round" stroke-linejoin="round" d="M65.8642 15.8207c-0.0003 -1.0069 -0.4005 -1.9724 -1.1125 -2.6842 -0.712 -0.7119 -1.6777 -1.1118 -2.6845 -1.1118h-4.271c-0.1813 0 -0.3588 -0.0519 -0.5115 -0.1497 -0.1526 -0.0978 -0.2741 -0.2373 -0.3499 -0.402 -0.0499 -0.1103 -0.1284 -0.2054 -0.2273 -0.2754 -0.0988 -0.07 -0.2146 -0.1124 -0.3353 -0.1229h-0.8066c-0.7269 -0.014 -1.4333 0.2413 -1.9832 0.7169 -0.5499 0.4757 -0.9044 1.1379 -0.9952 1.8592 -0.071 0.7447 0.154 1.4874 0.6261 2.0677 0.4722 0.5802 1.1537 0.9514 1.8972 1.0333 0.1343 0.5038 0.4167 0.9557 0.8106 1.2973 0.394 0.3415 0.8814 0.557 1.3991 0.6186h0.95c0.0375 -0.0004 0.0738 -0.0129 0.1035 -0.0358 0.0297 -0.0229 0.0512 -0.0548 0.0611 -0.091 0.0099 -0.0361 0.0077 -0.0745 -0.0061 -0.1093 -0.0139 -0.0348 -0.0388 -0.0642 -0.0709 -0.0836 -0.4313 -0.2575 -0.7453 -0.6729 -0.8753 -1.1581 -0.0147 -0.0488 -0.0179 -0.1004 -0.0091 -0.1506 0.0087 -0.0502 0.0291 -0.0977 0.0595 -0.1387 0.0304 -0.0409 0.0699 -0.0742 0.1155 -0.0971 0.0455 -0.0229 0.0958 -0.0348 0.1468 -0.0348h3.8776c0.1248 0 0.2483 0.0246 0.3634 0.0724 0.1152 0.0479 0.2198 0.118 0.3078 0.2064l2.5702 2.5692h0.474c0.0624 0.0001 0.1242 -0.0121 0.1819 -0.0359s0.1101 -0.0588 0.1542 -0.103c0.0442 -0.0441 0.0791 -0.0965 0.103 -0.1542 0.0238 -0.0577 0.036 -0.1195 0.0359 -0.1819l0.001 -3.321Z" stroke-width="1"></path>
  <path fill="#ffffff" stroke="#042f2e" stroke-linecap="round" stroke-linejoin="round" d="m77.7749 66.6048 -3.9847 3.9846 6.9729 6.9732 3.9848 -3.9847 -6.973 -6.9731Z" stroke-width="1"></path>
  <path fill="#0ec3c1" d="m98.2944 90.9248 -0.1902 0.1902c-0.7698 0.7636 -1.8101 1.192 -2.8943 1.192 -1.0843 0 -2.1246 -0.4284 -2.8943 -1.192L79.7337 78.5281c-0.2546 -0.2566 -0.3974 -0.6035 -0.3974 -0.9649 0 -0.3615 0.1428 -0.7083 0.3974 -0.965l4.0489 -4.0489c0.2565 -0.2545 0.6031 -0.3973 0.9644 -0.3973 0.3613 0 0.708 0.1428 0.9645 0.3973l12.5829 12.5819c0.382 0.3795 0.6853 0.8308 0.8922 1.328 0.2069 0.4971 0.3134 1.0303 0.3134 1.5688s-0.1065 1.0717 -0.3134 1.5689c-0.2069 0.4971 -0.5102 0.9484 -0.8922 1.3279Z" stroke-width="1"></path>
  <path stroke="#042f2e" stroke-linecap="round" stroke-linejoin="round" d="m98.2944 90.9248 -0.1902 0.1902c-0.7698 0.7636 -1.8101 1.192 -2.8943 1.192 -1.0843 0 -2.1246 -0.4284 -2.8943 -1.192L79.7337 78.5281c-0.2546 -0.2566 -0.3974 -0.6035 -0.3974 -0.9649 0 -0.3615 0.1428 -0.7083 0.3974 -0.965l4.0489 -4.0489c0.2565 -0.2545 0.6031 -0.3973 0.9644 -0.3973 0.3613 0 0.708 0.1428 0.9645 0.3973l12.5829 12.5819c0.382 0.3795 0.6853 0.8308 0.8922 1.328 0.2069 0.4971 0.3134 1.0303 0.3134 1.5688s-0.1065 1.0717 -0.3134 1.5689c-0.2069 0.4971 -0.5102 0.9484 -0.8922 1.3279Z" stroke-width="1"></path>
  <path fill="#ffffff" stroke="#042f2e" stroke-linecap="round" stroke-linejoin="round" d="M72.8669 73.6715c9.9553 -6.092 13.0871 -19.1009 6.9951 -29.0562 -6.092 -9.9553 -19.1009 -13.0871 -29.0562 -6.9951 -9.9552 6.092 -13.087 19.1009 -6.995 29.0562 6.092 9.9553 19.1009 13.0871 29.0561 6.9951Z" stroke-width="1"></path>
  <path fill="#0ec3c1" d="M73.7907 43.6921c2.3642 2.3643 3.9742 5.3766 4.6264 8.656 0.6522 3.2793 0.3173 6.6784 -0.9623 9.7675 -1.2796 3.089 -3.4464 5.7292 -6.2265 7.5868 -2.7801 1.8575 -6.0486 2.849 -9.3921 2.849 -3.3436 0 -6.6121 -0.9915 -9.3922 -2.849 -2.7801 -1.8576 -4.9469 -4.4978 -6.2265 -7.5868 -1.2796 -3.0891 -1.6145 -6.4882 -0.9623 -9.7675 0.6522 -3.2794 2.2622 -6.2917 4.6264 -8.656 1.5698 -1.57 3.4336 -2.8154 5.4847 -3.665 2.0512 -0.8497 4.2497 -1.287 6.4699 -1.287 2.2201 0 4.4186 0.4373 6.4698 1.287 2.0511 0.8496 3.9149 2.095 5.4847 3.665Z" stroke-width="1"></path>
  <path fill="#ffffff" d="M61.4289 63.7495c-1.9427 0.0109 -3.8496 0.5238 -5.5357 1.4888 -1.6861 0.965 -3.0942 2.3494 -4.0877 4.0189 2.808 2.0674 6.1862 3.2168 9.6724 3.291 3.4861 0.0741 6.9101 -0.9306 9.8035 -2.8767 -0.9577 -1.7821 -2.3784 -3.2728 -4.1124 -4.315 -1.734 -1.0423 -3.717 -1.5974 -5.7401 -1.607Z" stroke-width="1"></path>
  <path stroke="#042f2e" stroke-linejoin="round" d="M61.4289 63.7495c-1.9427 0.0109 -3.8496 0.5238 -5.5357 1.4888 -1.6861 0.965 -3.0942 2.3494 -4.0877 4.0189 2.808 2.0674 6.1862 3.2168 9.6724 3.291 3.4861 0.0741 6.9101 -0.9306 9.8035 -2.8767 -0.9577 -1.7821 -2.3784 -3.2728 -4.1124 -4.315 -1.734 -1.0423 -3.717 -1.5974 -5.7401 -1.607Z" stroke-width="1"></path>
  <path fill="#ffffff" stroke="#042f2e" stroke-linecap="round" stroke-linejoin="round" d="M64.7688 64.2922c-0.1792 -0.0571 -0.3601 -0.1083 -0.5427 -0.1534 -0.2109 -0.0533 -0.398 -0.1755 -0.5315 -0.3473 -0.1335 -0.1717 -0.2058 -0.3832 -0.2054 -0.6007V59.827h-3.9603v3.326c0 0.2187 -0.0736 0.4311 -0.2089 0.603 -0.1352 0.1719 -0.3243 0.2934 -0.5369 0.345 -0.229 0.0557 -0.4571 0.1175 -0.6821 0.1882l-0.0229 0.0298c0.0586 0.8499 0.4375 1.6458 1.0602 2.227 0.6227 0.5812 1.4428 0.9045 2.2946 0.9045 0.8518 0 1.6719 -0.3233 2.2946 -0.9045 0.6227 -0.5812 1.0017 -1.3771 1.0602 -2.227l-0.0189 -0.0268Z" stroke-width="1"></path>
  <path fill="#ffffff" d="M70.3453 51.4912c0 2.3769 -0.9443 4.6565 -2.625 6.3372 -1.6807 1.6807 -3.9603 2.625 -6.3372 2.625s-4.6565 -0.9443 -6.3372 -2.625c-1.6808 -1.6807 -2.625 -3.9603 -2.625 -6.3372 0 -4.9551 2.5293 -8.8427 5.1025 -9.5816 0.2143 -0.0616 0.4413 -0.0644 0.6572 -0.0082 0.2158 0.0562 0.4126 0.1695 0.5696 0.3279 2.7862 2.8021 11.5951 -0.6901 11.5951 9.2619Z" stroke-width="1"></path>
  <path stroke="#042f2e" stroke-linecap="round" stroke-linejoin="round" d="M70.3453 51.4912c0 2.3769 -0.9443 4.6565 -2.625 6.3372 -1.6807 1.6807 -3.9603 2.625 -6.3372 2.625s-4.6565 -0.9443 -6.3372 -2.625c-1.6808 -1.6807 -2.625 -3.9603 -2.625 -6.3372 0 -4.9551 2.5293 -8.8427 5.1025 -9.5816 0.2143 -0.0616 0.4413 -0.0644 0.6572 -0.0082 0.2158 0.0562 0.4126 0.1695 0.5696 0.3279 2.7862 2.8021 11.5951 -0.6901 11.5951 9.2619Z" stroke-width="1"></path>
  <path fill="#ffffff" stroke="#042f2e" stroke-linecap="round" stroke-linejoin="round" d="m68.8596 53.7317 -1.5047 0.7469 -1.0854 -3.798c-0.1015 -0.3647 -0.3386 -0.6769 -0.6628 -0.8724 -0.3242 -0.1955 -0.7109 -0.2596 -1.0808 -0.1791 -2.0679 0.4926 -4.2226 0.4926 -6.2905 0 -0.3699 -0.0803 -0.7565 -0.016 -1.0807 0.1794 -0.3241 0.1955 -0.5613 0.5075 -0.6629 0.8721l-1.0855 3.798 -1.4817 -0.7469c-2.132 0 -1.9916 3.7343 0.3724 3.7343h0.007c0.4679 1.5144 1.4085 2.8392 2.6841 3.7801 1.2755 0.9409 2.8189 1.4486 4.404 1.4486 1.585 0 3.1284 -0.5077 4.404 -1.4486 1.2755 -0.9409 2.2162 -2.2657 2.6841 -3.7801v0c2.367 0 2.5104 -3.7343 0.3794 -3.7343Z" stroke-width="1"></path>
  <path fill="#042f2e" d="M59.0669 54.8012c0.4873 0 0.8823 -0.395 0.8823 -0.8822 0 -0.4873 -0.395 -0.8823 -0.8823 -0.8823 -0.4873 0 -0.8823 0.395 -0.8823 0.8823 0 0.4872 0.395 0.8822 0.8823 0.8822Z" stroke-width="1"></path>
  <path fill="#042f2e" d="M63.7312 54.8012c0.4873 0 0.8823 -0.395 0.8823 -0.8822 0 -0.4873 -0.395 -0.8823 -0.8823 -0.8823 -0.4873 0 -0.8823 0.395 -0.8823 0.8823 0 0.4872 0.395 0.8822 0.8823 0.8822Z" stroke-width="1"></path>
  <path fill="#0ec3c1" d="M57.6658 55.9723c0 0.1478 -0.0438 0.2922 -0.1259 0.415 -0.0821 0.1229 -0.1988 0.2186 -0.3354 0.2751 -0.1365 0.0565 -0.2867 0.0712 -0.4316 0.0423 -0.1449 -0.0289 -0.278 -0.1001 -0.3824 -0.2046 -0.1044 -0.1046 -0.1754 -0.2378 -0.2042 -0.3827 -0.0287 -0.1449 -0.0137 -0.2951 0.043 -0.4316 0.0566 -0.1364 0.1525 -0.253 0.2755 -0.335 0.1229 -0.0819 0.2674 -0.1255 0.4152 -0.1253 0.098 0 0.1951 0.0193 0.2856 0.0568 0.0906 0.0376 0.1728 0.0926 0.2421 0.162 0.0693 0.0693 0.1242 0.1517 0.1616 0.2423 0.0375 0.0906 0.0566 0.1877 0.0565 0.2857Z" stroke-width="1"></path>
  <path fill="#0ec3c1" d="M66.628 55.9723c0 0.1477 -0.0438 0.2921 -0.1259 0.4149 -0.0821 0.1229 -0.1987 0.2186 -0.3352 0.2751 -0.1364 0.0565 -0.2866 0.0713 -0.4315 0.0425 -0.1449 -0.0288 -0.2779 -0.0999 -0.3824 -0.2044 -0.1044 -0.1044 -0.1756 -0.2375 -0.2044 -0.3824 -0.0288 -0.1449 -0.014 -0.295 0.0425 -0.4315 0.0566 -0.1365 0.1523 -0.2531 0.2751 -0.3352 0.1228 -0.082 0.2672 -0.1258 0.4149 -0.1258 0.1981 0 0.3881 0.0786 0.5281 0.2187 0.1401 0.1401 0.2188 0.33 0.2188 0.5281Z" stroke-width="1"></path>
  <path stroke="#042f2e" stroke-linecap="round" stroke-linejoin="round" d="M59.535 58.3951c0.5529 0.3681 1.2023 0.5646 1.8666 0.5646 0.6643 0 1.3137 -0.1965 1.8666 -0.5646" stroke-width="1"></path>
  <path stroke="#042f2e" stroke-linecap="round" stroke-linejoin="round" d="M73.7907 43.6921c2.3642 2.3643 3.9742 5.3766 4.6264 8.656 0.6522 3.2793 0.3173 6.6784 -0.9623 9.7675 -1.2796 3.089 -3.4464 5.7292 -6.2265 7.5868 -2.7801 1.8575 -6.0486 2.849 -9.3921 2.849 -3.3436 0 -6.6121 -0.9915 -9.3922 -2.849 -2.7801 -1.8576 -4.9469 -4.4978 -6.2265 -7.5868 -1.2796 -3.0891 -1.6145 -6.4882 -0.9623 -9.7675 0.6522 -3.2794 2.2622 -6.2917 4.6264 -8.656 1.5698 -1.57 3.4336 -2.8154 5.4847 -3.665 2.0512 -0.8497 4.2497 -1.287 6.4699 -1.287 2.2201 0 4.4186 0.4373 6.4698 1.287 2.0511 0.8496 3.9149 2.095 5.4847 3.665v0Z" stroke-width="1"></path>
  <path fill="#ffffff" stroke="#042f2e" stroke-linecap="round" stroke-linejoin="round" d="M36.3388 83.2083c3.8563 0 6.9825 -3.1262 6.9825 -6.9825 0 -3.8564 -3.1262 -6.9825 -6.9825 -6.9825s-6.9825 3.1261 -6.9825 6.9825c0 3.8563 3.1262 6.9825 6.9825 6.9825Z" stroke-width="1"></path>
  <path fill="#ffffff" stroke="#042f2e" stroke-linecap="round" stroke-linejoin="round" d="M34.0923 76.0635c0 0.5958 0.2367 1.1672 0.658 1.5885s0.9927 0.658 1.5885 0.658 1.1672 -0.2367 1.5885 -0.658 0.658 -0.9927 0.658 -1.5885v-1.1233c0 -0.5958 -0.2367 -1.1672 -0.658 -1.5885s-0.9927 -0.658 -1.5885 -0.658 -1.1672 0.2367 -1.5885 0.658 -0.658 0.9927 -0.658 1.5885v1.1233Z" stroke-width="1"></path>
  <path fill="#0ec3c1" d="M41.0071 81.4179c-1.2815 1.1515 -2.9435 1.7885 -4.6663 1.7885 -1.7228 0 -3.3848 -0.637 -4.6663 -1.7885 0.3834 -0.9203 1.0305 -1.7067 1.8599 -2.2601 0.8293 -0.5534 1.8038 -0.8491 2.8008 -0.85 0.997 -0.0008 1.972 0.2932 2.8022 0.8452 0.8303 0.552 1.4787 1.3372 1.8637 2.2569" stroke-width="1"></path>
  <path stroke="#042f2e" stroke-linecap="round" stroke-linejoin="round" d="M41.0071 81.4179c-1.2815 1.1515 -2.9435 1.7885 -4.6663 1.7885 -1.7228 0 -3.3848 -0.637 -4.6663 -1.7885 0.3834 -0.9203 1.0305 -1.7067 1.8599 -2.2601 0.8293 -0.5534 1.8038 -0.8491 2.8008 -0.85 0.997 -0.0008 1.972 0.2932 2.8022 0.8452 0.8303 0.552 1.4787 1.3372 1.8637 2.2569" stroke-width="1"></path>
  <path fill="#0ec3c1" stroke="#042f2e" stroke-linecap="round" stroke-linejoin="round" d="M34.1112 74.6504c0.059 -0.453 0.2547 -0.8773 0.561 -1.2162 0.3062 -0.3389 0.7086 -0.5764 1.1533 -0.6808 0.4448 -0.1044 0.9108 -0.0708 1.3359 0.0965 0.4251 0.1672 0.7891 0.4601 1.0435 0.8396 -0.5316 0.5155 -1.1931 0.8772 -1.914 1.0464 -0.7209 0.1692 -1.4742 0.1397 -2.1797 -0.0855v0Z" stroke-width="1"></path>
  <path fill="#ffffff" stroke="#042f2e" stroke-linecap="round" stroke-linejoin="round" d="M24.3434 32.8359c3.8563 0 6.9825 -3.1262 6.9825 -6.9825 0 -3.8564 -3.1262 -6.9826 -6.9825 -6.9826 -3.8564 0 -6.9826 3.1262 -6.9826 6.9826 0 3.8563 3.1262 6.9825 6.9826 6.9825Z" stroke-width="1"></path>
  <path fill="#ffffff" stroke="#042f2e" stroke-linecap="round" stroke-linejoin="round" d="M22.0959 25.6911c0.0124 0.5877 0.2545 1.1472 0.6746 1.5585 0.42 0.4113 0.9845 0.6417 1.5724 0.6417s1.1524 -0.2304 1.5724 -0.6417c0.4201 -0.4113 0.6622 -0.9708 0.6746 -1.5585v-1.1233c-0.0124 -0.5878 -0.2545 -1.1473 -0.6746 -1.5586 -0.42 -0.4113 -0.9845 -0.6416 -1.5724 -0.6416s-1.1524 0.2303 -1.5724 0.6416c-0.4201 0.4113 -0.6622 0.9708 -0.6746 1.5586v1.1233Z" stroke-width="1"></path>
  <path fill="#0ec3c1" d="M29.0107 31.0465c-1.2818 1.1508 -2.9436 1.7874 -4.6663 1.7874 -1.7226 0 -3.3845 -0.6366 -4.6663 -1.7874 0.3834 -0.9204 1.0305 -1.7067 1.8599 -2.2601 0.8293 -0.5534 1.8038 -0.8492 2.8008 -0.85 0.997 -0.0009 1.972 0.2932 2.8022 0.8452 0.8303 0.552 1.4787 1.3372 1.8637 2.2569" stroke-width="1"></path>
  <path stroke="#042f2e" stroke-linecap="round" stroke-linejoin="round" d="M29.0107 31.0465c-1.2818 1.1508 -2.9436 1.7874 -4.6663 1.7874 -1.7226 0 -3.3845 -0.6366 -4.6663 -1.7874 0.3834 -0.9204 1.0305 -1.7067 1.8599 -2.2601 0.8293 -0.5534 1.8038 -0.8492 2.8008 -0.85 0.997 -0.0009 1.972 0.2932 2.8022 0.8452 0.8303 0.552 1.4787 1.3372 1.8637 2.2569" stroke-width="1"></path>
  <path fill="#0ec3c1" stroke="#042f2e" stroke-linecap="round" stroke-linejoin="round" d="M22.1158 24.278c0.0587 -0.4533 0.2542 -0.8778 0.5605 -1.217 0.3064 -0.3392 0.7089 -0.5768 1.1539 -0.6811 0.4449 -0.1044 0.9111 -0.0705 1.3363 0.0972 0.4252 0.1676 0.7891 0.461 1.0431 0.8409 -0.5318 0.5153 -1.1933 0.8767 -1.9142 1.0458 -0.7209 0.169 -1.4742 0.1394 -2.1796 -0.0858Z" stroke-width="1"></path>
</svg>