<svg viewBox="0 0 100 100" xmlns="http://www.w3.org/2000/svg" id="Seo-Browser-Setting--Streamline-Ux" height="100" width="100">
  <desc>
    SEO Browser Setting Streamline Illustration: https://streamlinehq.com
  </desc>
  <path d="M10 50a40 40 0 1 0 80 0 40 40 0 1 0 -80 0Z" fill="#64a8a6" stroke-width="1"></path>
  <path d="M34.47 81.31a15.92 1.493 0 1 0 31.84 0 15.92 1.493 0 1 0 -31.84 0Z" fill="#0ec3c1" stroke-width="1"></path>
  <path d="M82.055 28.277H17.228v-5.292a2.653 2.653 0 0 1 2.646 -2.646h59.535a2.654 2.654 0 0 1 2.646 2.646Z" fill="#ffffff" stroke="#042f2e" stroke-linecap="round" stroke-linejoin="round" stroke-width="1"></path>
  <path d="M19.874 24.308a1.323 1.323 0 1 0 2.646 0 1.323 1.323 0 1 0 -2.646 0Z" fill="#0ec3c1" stroke="#042f2e" stroke-linecap="round" stroke-linejoin="round" stroke-width="1"></path>
  <path d="M25.166 24.308a1.323 1.323 0 1 0 2.646 0 1.323 1.323 0 1 0 -2.646 0Z" fill="#0ec3c1" stroke="#042f2e" stroke-linecap="round" stroke-linejoin="round" stroke-width="1"></path>
  <path d="M30.458 24.308a1.323 1.323 0 1 0 2.646 0 1.323 1.323 0 1 0 -2.646 0Z" fill="#0ec3c1" stroke="#042f2e" stroke-linecap="round" stroke-linejoin="round" stroke-width="1"></path>
  <path d="M82.055 70.613a2.654 2.654 0 0 1 -2.646 2.646H19.874a2.654 2.654 0 0 1 -2.646 -2.646V28.277h64.827Z" fill="#0ec3c1" stroke="#042f2e" stroke-linecap="round" stroke-linejoin="round" stroke-width="1"></path>
  <path d="M33.72601024 60.2210609813A19.115 19.115 0 1 0 66.3349880265 40.266425737 19.115 19.115 0 1 0 33.72601024 60.2210609813Z" fill="#ffffff" stroke="#042f2e" stroke-linecap="round" stroke-linejoin="round" stroke-width="1"></path>
  <path d="M34.738 50.244a15.292 15.292 0 1 0 30.584 0 15.292 15.292 0 1 0 -30.584 0Z" fill="#0ec3c1" stroke-width="1"></path>
  <path d="M60.843 39.431a15.292 15.292 0 1 1 -21.626 0 15.292 15.292 0 0 1 21.626 0Z" fill="none" stroke="#042f2e" stroke-linecap="round" stroke-linejoin="round" stroke-width="1"></path>
  <path d="m69.854 65.562 -4.242 -4.241a19.217 19.217 0 0 1 -2.065 2.439q-0.685 0.685 -1.419 1.285l4.121 4.121Z" fill="#ffffff" stroke="#042f2e" stroke-linecap="round" stroke-linejoin="round" stroke-width="1"></path>
  <path d="m58.084 52.967 -1.522 -0.879a7.177 7.177 0 0 0 0 -3.643l1.522 -0.88a0.752 0.752 0 0 0 0.276 -1.028l-1.13 -1.957a0.753 0.753 0 0 0 -1.029 -0.275l-1.523 0.878a7.138 7.138 0 0 0 -3.154 -1.821V41.6a0.753 0.753 0 0 0 -0.753 -0.753h-2.26a0.753 0.753 0 0 0 -0.753 0.753v1.758a7.144 7.144 0 0 0 -3.158 1.825l-1.523 -0.878a0.753 0.753 0 0 0 -1.029 0.275l-1.13 1.957a0.752 0.752 0 0 0 0.276 1.028l1.522 0.88a7.177 7.177 0 0 0 0 3.643l-1.522 0.879A0.753 0.753 0 0 0 40.922 54l1.13 1.956a0.752 0.752 0 0 0 1.029 0.275l1.523 -0.878a7.144 7.144 0 0 0 3.154 1.821v1.759a0.753 0.753 0 0 0 0.753 0.753h2.26a0.753 0.753 0 0 0 0.753 -0.753V57.17a7.138 7.138 0 0 0 3.154 -1.821l1.523 0.878a0.752 0.752 0 0 0 1.029 -0.275L58.36 54a0.753 0.753 0 0 0 -0.276 -1.033Zm-8.443 0.689a3.39 3.39 0 1 1 3.39 -3.39 3.389 3.389 0 0 1 -3.39 3.39Z" fill="#ffffff" stroke="#042f2e" stroke-linecap="round" stroke-linejoin="round" stroke-width="1"></path>
  <path d="m83.007 82.15 -0.172 0.173a3.717 3.717 0 0 1 -5.236 0l-11.38 -11.381a1.239 1.239 0 0 1 0 -1.745l3.662 -3.663a1.24 1.24 0 0 1 1.746 0l11.38 11.381a3.694 3.694 0 0 1 0 5.235Z" fill="#0ec3c1" stroke="#042f2e" stroke-linecap="round" stroke-linejoin="round" stroke-width="1"></path>
</svg>