<svg viewBox="0 0 100 100" xmlns="http://www.w3.org/2000/svg" id="Seo-Browser-1--Streamline-Ux" height="100" width="100">
  <desc>
    SEO Browser 1 Streamline Illustration: https://streamlinehq.com
  </desc>
  <path d="M8.086 50a40 40 0 1 0 80 0 40 40 0 1 0 -80 0Z" fill="#64a8a6" stroke-width="1"></path>
  <path d="M63.829 59.4H10.1a2.733 2.733 0 0 1 -2.733 -2.732V19.327h59.2v37.339a2.732 2.732 0 0 1 -2.738 2.734Z" fill="#ffffff" stroke-width="1"></path>
  <path d="M63.829 11.131H10.1a2.733 2.733 0 0 0 -2.733 2.732v5.464h59.2v-5.464a2.732 2.732 0 0 0 -2.738 -2.732Z" fill="#ffffff" stroke="#042f2e" stroke-linecap="round" stroke-linejoin="round" stroke-width="1"></path>
  <path d="M63.829 59.4H10.1a2.733 2.733 0 0 1 -2.733 -2.732V19.327h59.2v37.339a2.732 2.732 0 0 1 -2.738 2.734Z" fill="none" stroke="#042f2e" stroke-linecap="round" stroke-linejoin="round" stroke-width="1"></path>
  <path d="M47.26 24.264a4.121 4.121 0 1 1 2.64 7.809Z" fill="#0ec3c1" stroke="#042f2e" stroke-linecap="round" stroke-linejoin="round" stroke-width="1"></path>
  <path d="M21.803 28.1a4.635 4.635 0 1 0 9.27 0 4.635 4.635 0 1 0 -9.27 0Z" fill="#0ec3c1" stroke="#042f2e" stroke-linecap="round" stroke-linejoin="round" stroke-width="1"></path>
  <path d="M33.274 24.823h5.136v5.136h-5.136z" fill="#0ec3c1" stroke="#042f2e" stroke-linecap="round" stroke-linejoin="round" stroke-width="1"></path>
  <path d="m43.194 24.046 -3.329 7.337 6.657 0 -3.328 -7.337z" fill="#0ec3c1" stroke="#042f2e" stroke-linecap="round" stroke-linejoin="round" stroke-width="1"></path>
  <path d="m18.704 34.979 36.982 0 0 9.189 -36.982 0Z" fill="#0ec3c1" stroke="#042f2e" stroke-linecap="round" stroke-linejoin="round" stroke-width="1"></path>
  <path d="m22.256 37.631 0 3.907" fill="none" stroke="#042f2e" stroke-linecap="round" stroke-linejoin="round" stroke-width="1"></path>
  <path d="M27.086 76.524a11 1.5 0 1 0 22 0 11 1.5 0 1 0 -22 0Z" fill="#0ec3c1" stroke-width="1"></path>
  <path d="m73.1137703458 64.6485367766 4.1683364636 -4.0674251224 4.7441653256 4.8618663456 -4.1683364635 4.0674251224z" fill="#ffffff" stroke="#042f2e" stroke-linecap="round" stroke-linejoin="round" stroke-width="1"></path>
  <path d="M91.531 73.8a3.881 3.881 0 1 1 -5.556 5.421l-8.132 -8.334a0.97 0.97 0 0 1 0.016 -1.372l4.167 -4.066a0.971 0.971 0 0 1 1.373 0.016Z" fill="#0ec3c1" stroke-width="1"></path>
  <path d="M91.531 73.8a3.881 3.881 0 1 1 -5.556 5.421l-8.132 -8.334a0.97 0.97 0 0 1 0.016 -1.372l4.167 -4.066a0.971 0.971 0 0 1 1.373 0.016Z" fill="none" stroke="#042f2e" stroke-linecap="round" stroke-linejoin="round" stroke-width="1"></path>
  <path d="M41.079 49.261a20.372 20.372 0 1 0 40.744 0 20.372 20.372 0 1 0 -40.744 0Z" fill="#ffffff" stroke-width="1"></path>
  <path d="M41.079 49.261a20.372 20.372 0 1 0 40.744 0 20.372 20.372 0 1 0 -40.744 0Z" fill="none" stroke="#042f2e" stroke-linecap="round" stroke-linejoin="round" stroke-width="1"></path>
  <path d="M57.7721190611 64.8419157243a16.01 16.01 0 1 0 7.3564026457 -31.1635001262 16.01 16.01 0 1 0 -7.3564026457 31.1635001262Z" fill="#64a8a6" stroke-width="1"></path>
  <path d="M72.772 37.94a16.011 16.011 0 0 0 -22.643 22.642" fill="#ffffff" stroke-width="1"></path>
  <path d="M57.7721190611 64.8419157243a16.01 16.01 0 1 0 7.3564026457 -31.1635001262 16.01 16.01 0 1 0 -7.3564026457 31.1635001262Z" fill="none" stroke="#042f2e" stroke-linecap="round" stroke-linejoin="round" stroke-width="1"></path>
  <path d="M61.45 33.251a16.011 16.011 0 0 0 -9.25 29.077h15.323a3.008 3.008 0 0 0 3.008 -3.008V36.073a15.939 15.939 0 0 0 -9.081 -2.822Z" fill="#ffffff" stroke="#042f2e" stroke-linecap="round" stroke-linejoin="round" stroke-width="1"></path>
  <path d="M45.87 45.561h11.588a1.1 1.1 0 0 0 1.1 -1.1v-7.915a1.1 1.1 0 0 0 -1.1 -1.1h-4.1a16.032 16.032 0 0 0 -7.488 10.115Z" fill="#0ec3c1" stroke="#042f2e" stroke-linecap="round" stroke-linejoin="round" stroke-width="1"></path>
  <path d="M10.313 15.343a1.34 1.34 0 1 0 2.68 0 1.34 1.34 0 1 0 -2.68 0Z" fill="#0ec3c1" stroke="#042f2e" stroke-linecap="round" stroke-linejoin="round" stroke-width="1"></path>
  <path d="M15.539 15.343a1.34 1.34 0 1 0 2.68 0 1.34 1.34 0 1 0 -2.68 0Z" fill="#0ec3c1" stroke="#042f2e" stroke-linecap="round" stroke-linejoin="round" stroke-width="1"></path>
  <path d="M20.764 15.343a1.34 1.34 0 1 0 2.68 0 1.34 1.34 0 1 0 -2.68 0Z" fill="#0ec3c1" stroke="#042f2e" stroke-linecap="round" stroke-linejoin="round" stroke-width="1"></path>
</svg>