<svg viewBox="0 0 100 100" xmlns="http://www.w3.org/2000/svg" id="Seo-Browsers-Sanning--Streamline-Ux" height="100" width="100">
  <desc>
    SEO Browsers Sanning Streamline Illustration: https://streamlinehq.com
  </desc>
  <path d="M9.334 50a40 40 0 1 0 80 0 40 40 0 1 0 -80 0Z" fill="#64a8a6" stroke-width="1"></path>
  <path d="M59.813 61.95h-40.2a2.044 2.044 0 0 1 -2.044 -2.044V31.973h44.288v27.933a2.044 2.044 0 0 1 -2.044 2.044Z" fill="#0ec3c1" stroke-width="1"></path>
  <path d="M61.857 27.885a2.044 2.044 0 0 0 -2.044 -2.044h-40.2a2.044 2.044 0 0 0 -2.044 2.044v4.088h44.288Z" fill="#ffffff" stroke-width="1"></path>
  <path d="M19.616 28.907a1.022 1.022 0 1 0 2.044 0 1.022 1.022 0 1 0 -2.044 0Z" fill="#042f2e" stroke-width="1"></path>
  <path d="M23.022 28.907a1.022 1.022 0 1 0 2.044 0 1.022 1.022 0 1 0 -2.044 0Z" fill="#042f2e" stroke-width="1"></path>
  <path d="M26.429 28.907a1.022 1.022 0 1 0 2.044 0 1.022 1.022 0 1 0 -2.044 0Z" fill="#042f2e" stroke-width="1"></path>
  <path d="M59.813 61.95h-40.2a2.044 2.044 0 0 1 -2.044 -2.044V31.973h44.288v27.933a2.044 2.044 0 0 1 -2.044 2.044Z" fill="none" stroke="#042f2e" stroke-linecap="round" stroke-linejoin="round" stroke-width="1"></path>
  <path d="M61.857 27.885a2.044 2.044 0 0 0 -2.044 -2.044h-40.2a2.044 2.044 0 0 0 -2.044 2.044v4.088h44.288Z" fill="none" stroke="#042f2e" stroke-linecap="round" stroke-linejoin="round" stroke-width="1"></path>
  <path d="M66.155 70.771h-40.2a2.044 2.044 0 0 1 -2.044 -2.044V40.794H68.2v27.933a2.044 2.044 0 0 1 -2.045 2.044Z" fill="#0ec3c1" stroke-width="1"></path>
  <path d="M68.2 36.706a2.044 2.044 0 0 0 -2.044 -2.044h-40.2a2.044 2.044 0 0 0 -2.044 2.044v4.088H68.2Z" fill="#ffffff" stroke-width="1"></path>
  <path d="M25.959 37.728a1.022 1.022 0 1 0 2.044 0 1.022 1.022 0 1 0 -2.044 0Z" fill="#042f2e" stroke-width="1"></path>
  <path d="M29.365 37.728a1.022 1.022 0 1 0 2.044 0 1.022 1.022 0 1 0 -2.044 0Z" fill="#042f2e" stroke-width="1"></path>
  <path d="M32.772 37.728a1.022 1.022 0 1 0 2.044 0 1.022 1.022 0 1 0 -2.044 0Z" fill="#042f2e" stroke-width="1"></path>
  <path d="M66.155 70.771h-40.2a2.044 2.044 0 0 1 -2.044 -2.044V40.794H68.2v27.933a2.044 2.044 0 0 1 -2.045 2.044Z" fill="none" stroke="#042f2e" stroke-linecap="round" stroke-linejoin="round" stroke-width="1"></path>
  <path d="M68.2 36.706a2.044 2.044 0 0 0 -2.044 -2.044h-40.2a2.044 2.044 0 0 0 -2.044 2.044v4.088H68.2Z" fill="none" stroke="#042f2e" stroke-linecap="round" stroke-linejoin="round" stroke-width="1"></path>
  <path d="M29.9 80.023a22.5 2 0 1 0 45 0 22.5 2 0 1 0 -45 0Z" fill="#0ec3c1" stroke-width="1"></path>
  <path d="M72.5 79.593H32.3a2.044 2.044 0 0 1 -2.044 -2.044V49.615h44.286v27.934a2.044 2.044 0 0 1 -2.042 2.044Z" fill="#0ec3c1" stroke-width="1"></path>
  <path d="M72.5 43.484H32.3a2.044 2.044 0 0 0 -2.044 2.044v4.087h44.286v-4.087a2.044 2.044 0 0 0 -2.042 -2.044Z" fill="#ffffff" stroke-width="1"></path>
  <path d="M32.301 46.55a1.022 1.022 0 1 0 2.044 0 1.022 1.022 0 1 0 -2.044 0Z" fill="#042f2e" stroke-width="1"></path>
  <path d="M35.708 46.55a1.022 1.022 0 1 0 2.044 0 1.022 1.022 0 1 0 -2.044 0Z" fill="#042f2e" stroke-width="1"></path>
  <path d="M39.114 46.55a1.022 1.022 0 1 0 2.044 0 1.022 1.022 0 1 0 -2.044 0Z" fill="#042f2e" stroke-width="1"></path>
  <path d="M72.5 79.593H32.3a2.044 2.044 0 0 1 -2.044 -2.044V49.615h44.286v27.934a2.044 2.044 0 0 1 -2.042 2.044Z" fill="none" stroke="#042f2e" stroke-linecap="round" stroke-linejoin="round" stroke-width="1"></path>
  <path d="M72.5 43.484H32.3a2.044 2.044 0 0 0 -2.044 2.044v4.087h44.286v-4.087a2.044 2.044 0 0 0 -2.042 -2.044Z" fill="none" stroke="#042f2e" stroke-linecap="round" stroke-linejoin="round" stroke-width="1"></path>
  <path d="M51.298 67.666h19.93v8.427h-19.93z" fill="#ffffff" stroke="#042f2e" stroke-linecap="round" stroke-linejoin="round" stroke-width="1"></path>
  <path d="m55.111 73.364 12.304 0" fill="none" stroke="#042f2e" stroke-linecap="round" stroke-linejoin="round" stroke-width="1"></path>
  <path d="m57.797 70.396 9.618 0" fill="none" stroke="#042f2e" stroke-linecap="round" stroke-linejoin="round" stroke-width="1"></path>
  <path d="M51.298 53.304h19.93v12.733h-19.93z" fill="#ffffff" stroke="#042f2e" stroke-linecap="round" stroke-linejoin="round" stroke-width="1"></path>
  <path d="M33.323 53.304h15.289v22.79H33.323z" fill="#ffffff" stroke="#042f2e" stroke-linecap="round" stroke-linejoin="round" stroke-width="1"></path>
  <path d="M33.323 53.303h15.284v11.766H33.323z" fill="#ffffff" stroke="#042f2e" stroke-linecap="round" stroke-linejoin="round" stroke-width="1"></path>
  <path d="m38.7 65.07 2.48 -3.472a1.47 1.47 0 0 1 2.394 0l2.48 3.472Z" fill="#0ec3c1" stroke="#042f2e" stroke-linecap="round" stroke-linejoin="round" stroke-width="1"></path>
  <path d="M33.763 65.07 37 60.756a1.47 1.47 0 0 1 2.353 0l3.236 4.314Z" fill="#0ec3c1" stroke="#042f2e" stroke-linecap="round" stroke-linejoin="round" stroke-width="1"></path>
  <path d="M42.794 56.869a1.485 1.485 0 1 0 2.97 0 1.485 1.485 0 1 0 -2.97 0Z" fill="#0ec3c1" stroke="#042f2e" stroke-linecap="round" stroke-linejoin="round" stroke-width="1"></path>
  <path d="m36.158 67.428 9.619 0" fill="none" stroke="#042f2e" stroke-linecap="round" stroke-linejoin="round" stroke-width="1"></path>
  <path d="m36.158 70.396 9.619 0" fill="none" stroke="#042f2e" stroke-linecap="round" stroke-linejoin="round" stroke-width="1"></path>
  <path d="m36.158 73.364 9.619 0" fill="none" stroke="#042f2e" stroke-linecap="round" stroke-linejoin="round" stroke-width="1"></path>
  <path d="M60.983 61.853a3.92 3.92 0 0 0 -3.256 -6.1v3.917Z" fill="#0ec3c1" stroke="#042f2e" stroke-linecap="round" stroke-linejoin="round" stroke-width="1"></path>
  <path d="M57.727 55.751a3.92 3.92 0 0 0 -3.239 6.126l3.239 -2.207Z" fill="#0ec3c1" stroke="#042f2e" stroke-linecap="round" stroke-linejoin="round" stroke-width="1"></path>
  <path d="m57.727 59.67 -3.239 2.207a3.921 3.921 0 0 0 6.495 -0.024Z" fill="#0ec3c1" stroke="#042f2e" stroke-linecap="round" stroke-linejoin="round" stroke-width="1"></path>
  <path d="m65.389 59.67 3.196 0" fill="none" stroke="#042f2e" stroke-linecap="round" stroke-linejoin="round" stroke-width="1"></path>
  <path d="m65.389 56.716 3.196 0" fill="none" stroke="#042f2e" stroke-linecap="round" stroke-linejoin="round" stroke-width="1"></path>
  <path d="m65.389 62.624 3.196 0" fill="none" stroke="#042f2e" stroke-linecap="round" stroke-linejoin="round" stroke-width="1"></path>
  <path d="m46.158 13.332 44.509 0 0 32.702 -44.509 0Z" fill="#ffffff" stroke="#042f2e" stroke-linecap="round" stroke-linejoin="round" stroke-width="1"></path>
  <path d="M81.28 20.62a2.517 2.517 0 0 1 -2.516 2.517h-20.7a2.517 2.517 0 1 1 0 -5.033h20.7a2.517 2.517 0 0 1 2.516 2.516Z" fill="#ffffff" stroke="#042f2e" stroke-linecap="round" stroke-linejoin="round" stroke-width="1"></path>
  <path d="M70.1 20.62a2.516 2.516 0 0 1 -2.516 2.517h-9.523a2.517 2.517 0 1 1 0 -5.033h9.522A2.516 2.516 0 0 1 70.1 20.62Z" fill="#0ec3c1" stroke="#042f2e" stroke-linecap="round" stroke-linejoin="round" stroke-width="1"></path>
  <path d="M52.01 32.96a1.92 1.92 0 0 1 -1.308 -0.388s0 -0.146 0.076 -0.146a1.5 1.5 0 0 1 0.252 0.082 2.913 2.913 0 0 0 1.071 0.228 1.023 1.023 0 0 0 1.15 -1.006c0 -0.722 -0.664 -0.929 -1.25 -1.112l-0.259 -0.083c-0.669 -0.214 -0.948 -0.4 -0.948 -0.974 0 -1.136 1.1 -1.224 1.435 -1.224 0.716 0 1.027 0.2 1.027 0.309a0.333 0.333 0 0 1 -0.161 0.05 0.481 0.481 0 0 1 -0.16 -0.039 2.1 2.1 0 0 0 -0.766 -0.141 0.97 0.97 0 0 0 -1.059 0.938c0 0.627 0.526 0.794 1.134 0.988l0.358 0.114c0.638 0.212 0.964 0.44 0.964 1.105 0 1.13 -0.975 1.299 -1.556 1.299Z" fill="#ffffff" stroke-width="1"></path>
  <path d="M52.229 27.837a1.732 1.732 0 0 0 -1.935 1.723c0 0.975 0.658 1.247 1.293 1.451 0.695 0.227 1.164 0.311 1.164 0.718 0 0.265 -0.174 0.507 -0.65 0.507 -0.628 0 -1.021 -0.31 -1.323 -0.31a0.6 0.6 0 0 0 -0.575 0.65c0 0.6 1.089 0.885 1.807 0.885 1.141 0 2.055 -0.56 2.055 -1.8a1.556 1.556 0 0 0 -1.307 -1.58c-0.846 -0.28 -1.149 -0.317 -1.149 -0.628 0 -0.264 0.227 -0.438 0.56 -0.438 0.521 0 0.649 0.2 1.042 0.2a0.537 0.537 0 0 0 0.545 -0.574c0 -0.468 -0.545 -0.809 -1.527 -0.809Z" fill="#042f2e" stroke-width="1"></path>
  <path d="M57.024 32.96a2.105 2.105 0 0 1 -2.145 -2.311 2.124 2.124 0 0 1 2.168 -2.312c0.662 0 1.124 0.187 1.124 0.355a0.122 0.122 0 0 1 -0.1 0.047 0.431 0.431 0 0 1 -0.147 -0.038 2.278 2.278 0 0 0 -0.847 -0.185 1.911 1.911 0 0 0 -1.882 2.133 1.865 1.865 0 0 0 1.777 2.087 2.517 2.517 0 0 0 1.057 -0.2 0.482 0.482 0 0 1 0.144 -0.048c0.044 0.249 -0.507 0.472 -1.149 0.472Z" fill="#ffffff" stroke-width="1"></path>
  <path d="M57.047 27.837a2.61 2.61 0 0 0 -2.668 2.812 2.6 2.6 0 0 0 2.645 2.812c0.672 0 1.693 -0.235 1.693 -0.908a0.522 0.522 0 0 0 -0.545 -0.566c-0.317 0 -0.438 0.249 -1.2 0.249 -0.839 0 -1.277 -0.733 -1.277 -1.587 0 -0.832 0.392 -1.633 1.383 -1.633 0.476 0 0.778 0.257 1.065 0.257a0.557 0.557 0 0 0 0.529 -0.582c0 -0.642 -0.884 -0.854 -1.624 -0.854Z" fill="#042f2e" stroke-width="1"></path>
  <path d="M62.876 32.885a0.16 0.16 0 0 1 -0.059 -0.007 0.763 0.763 0 0 1 -0.109 -0.249l-0.148 -0.474a0.5 0.5 0 0 0 -0.478 -0.351h-2.01a0.5 0.5 0 0 0 -0.477 0.351l-0.151 0.483a0.659 0.659 0 0 1 -0.11 0.243H59.3c-0.1 0 -0.128 -0.016 -0.128 -0.017a2.6 2.6 0 0 1 0.166 -0.562l1.178 -3.181c0.239 -0.653 0.332 -0.785 0.552 -0.785s0.324 0.125 0.566 0.784l1.18 3.183a1.547 1.547 0 0 1 0.149 0.572 0.628 0.628 0 0 1 -0.087 0.01ZM61.108 28.7a0.522 0.522 0 0 0 -0.491 0.341l-0.657 1.973a0.5 0.5 0 0 0 0.475 0.658h1.284a0.5 0.5 0 0 0 0.477 -0.648l-0.611 -1.973a0.5 0.5 0 0 0 -0.477 -0.351Z" fill="#ffffff" stroke-width="1"></path>
  <path d="M61.07 27.837c-0.612 0 -0.8 0.514 -1.021 1.111L58.87 32.13a1.973 1.973 0 0 0 -0.181 0.756 0.521 0.521 0 0 0 0.589 0.5c0.4 0 0.529 -0.257 0.643 -0.6l0.151 -0.483h2.01l0.152 0.483c0.113 0.341 0.241 0.6 0.642 0.6a0.521 0.521 0 0 0 0.589 -0.5 1.954 1.954 0 0 0 -0.181 -0.756l-1.179 -3.182c-0.219 -0.6 -0.408 -1.111 -1.035 -1.111Zm-0.635 3.333 0.657 -1.972h0.015l0.612 1.972Z" fill="#042f2e" stroke-width="1"></path>
  <path d="M67.814 32.881a2.907 2.907 0 0 1 -0.4 -0.462l-2.036 -2.551a0.5 0.5 0 0 0 -0.39 -0.188 0.513 0.513 0 0 0 -0.515 0.5v2.555c0 0.15 -0.031 0.15 -0.113 0.15s-0.112 0 -0.112 -0.15v-4.172c0 -0.151 0.031 -0.151 0.112 -0.151 0.108 0.033 0.283 0.253 0.453 0.466l2.036 2.551a0.5 0.5 0 0 0 0.39 0.189 0.513 0.513 0 0 0 0.515 -0.5v-2.555c0 -0.151 0.031 -0.151 0.113 -0.151s0.112 0 0.112 0.151v4.172c0 0.15 -0.031 0.15 -0.112 0.15a0.2 0.2 0 0 1 -0.053 -0.004Z" fill="#ffffff" stroke-width="1"></path>
  <path d="M67.866 27.913a0.583 0.583 0 0 0 -0.613 0.65v2.554h-0.014l-2.033 -2.546c-0.409 -0.515 -0.522 -0.658 -0.847 -0.658a0.582 0.582 0 0 0 -0.612 0.65v4.171a0.613 0.613 0 1 0 1.224 0V30.18h0.015l2.033 2.547c0.4 0.514 0.522 0.658 0.847 0.658a0.583 0.583 0 0 0 0.612 -0.651v-4.171a0.582 0.582 0 0 0 -0.612 -0.65Z" fill="#042f2e" stroke-width="1"></path>
  <path d="M73.128 32.881a2.951 2.951 0 0 1 -0.4 -0.461l-2.037 -2.552a0.5 0.5 0 0 0 -0.391 -0.188 0.513 0.513 0 0 0 -0.515 0.5v2.555c0 0.15 -0.031 0.15 -0.113 0.15s-0.111 0 -0.111 -0.15v-4.172c0 -0.151 0.03 -0.151 0.111 -0.151 0.108 0.033 0.282 0.25 0.449 0.461l2.04 2.556a0.5 0.5 0 0 0 0.391 0.189 0.513 0.513 0 0 0 0.515 -0.5v-2.555c0 -0.151 0.031 -0.151 0.113 -0.151s0.111 0 0.111 0.151v4.172c0 0.15 -0.03 0.15 -0.111 0.15a0.215 0.215 0 0 1 -0.052 -0.004Z" fill="#ffffff" stroke-width="1"></path>
  <path d="M73.181 27.913a0.583 0.583 0 0 0 -0.613 0.65v2.554h-0.015l-2.033 -2.546c-0.408 -0.515 -0.521 -0.658 -0.846 -0.658a0.583 0.583 0 0 0 -0.613 0.65v4.171a0.614 0.614 0 1 0 1.225 0V30.18h0.014l2.033 2.547c0.4 0.514 0.521 0.658 0.847 0.658a0.583 0.583 0 0 0 0.612 -0.651v-4.171a0.583 0.583 0 0 0 -0.612 -0.65Z" fill="#042f2e" stroke-width="1"></path>
  <path d="M74.988 32.885c-0.082 0 -0.112 0 -0.112 -0.15v-4.172c0 -0.151 0.03 -0.151 0.112 -0.151s0.113 0 0.113 0.151v4.172c-0.001 0.15 -0.031 0.15 -0.113 0.15Z" fill="#ffffff" stroke-width="1"></path>
  <path d="M74.988 27.913a0.582 0.582 0 0 0 -0.612 0.65v4.171a0.614 0.614 0 1 0 1.225 0v-4.171a0.583 0.583 0 0 0 -0.613 -0.65Z" fill="#042f2e" stroke-width="1"></path>
  <path d="M80.255 32.881a2.91 2.91 0 0 1 -0.4 -0.462l-2.037 -2.551a0.5 0.5 0 0 0 -0.391 -0.188 0.513 0.513 0 0 0 -0.515 0.5v2.555c0 0.15 -0.03 0.15 -0.112 0.15s-0.112 0 -0.112 -0.15v-4.172c0 -0.151 0.03 -0.151 0.112 -0.151 0.108 0.033 0.283 0.253 0.453 0.466l2.036 2.551a0.5 0.5 0 0 0 0.391 0.189 0.513 0.513 0 0 0 0.515 -0.5v-2.555c0 -0.151 0.03 -0.151 0.112 -0.151s0.112 0 0.112 0.151v4.172c0 0.15 -0.03 0.15 -0.112 0.15a0.209 0.209 0 0 1 -0.052 -0.004Z" fill="#ffffff" stroke-width="1"></path>
  <path d="M80.307 27.913a0.582 0.582 0 0 0 -0.612 0.65v2.554h-0.015l-2.033 -2.546c-0.409 -0.515 -0.522 -0.658 -0.847 -0.658a0.582 0.582 0 0 0 -0.612 0.65v4.171a0.614 0.614 0 1 0 1.225 0V30.18h0.014l2.033 2.547c0.4 0.514 0.522 0.658 0.847 0.658a0.583 0.583 0 0 0 0.612 -0.651v-4.171a0.582 0.582 0 0 0 -0.612 -0.65Z" fill="#042f2e" stroke-width="1"></path>
  <path d="M84.012 32.96a2.106 2.106 0 0 1 -2.146 -2.311 2.16 2.16 0 0 1 2.146 -2.312c0.83 0 1.586 0.323 1.586 0.679l-0.023 0a0.544 0.544 0 0 1 -0.252 -0.116 2.058 2.058 0 0 0 -1.258 -0.431 1.979 1.979 0 0 0 -1.883 2.178 1.948 1.948 0 0 0 1.86 2.177 1.591 1.591 0 0 0 1.647 -1.5 0.507 0.507 0 0 0 -0.128 -0.383 0.5 0.5 0 0 0 -0.37 -0.164h-0.7a0.2 0.2 0 0 1 -0.106 -0.02s0 -0.087 0 -0.1a0.47 0.47 0 0 1 0.1 -0.011h1.324a0.248 0.248 0 0 1 0.11 0.016 0.463 0.463 0 0 1 0.039 0.232 1.9 1.9 0 0 1 -1.946 2.066Z" fill="#ffffff" stroke-width="1"></path>
  <path d="M84.012 27.837a2.648 2.648 0 0 0 -2.645 2.812 2.6 2.6 0 0 0 2.645 2.812A2.4 2.4 0 0 0 86.46 30.9c0 -0.506 -0.226 -0.748 -0.649 -0.748h-1.323a0.541 0.541 0 0 0 -0.612 0.567 0.548 0.548 0 0 0 0.612 0.566h0.7a1.1 1.1 0 0 1 -1.149 1.044c-0.952 0 -1.36 -0.847 -1.36 -1.678 0 -0.937 0.529 -1.678 1.383 -1.678 0.824 0 1.035 0.559 1.481 0.559a0.5 0.5 0 0 0 0.552 -0.514c0 -0.755 -1.074 -1.179 -2.086 -1.179Z" fill="#042f2e" stroke-width="1"></path>
  <path d="M63.329 42.02c-0.683 0 -1.253 -0.367 -1.253 -0.506a0.157 0.157 0 0 1 0.033 -0.115 0.837 0.837 0 0 1 0.238 0.125 1.684 1.684 0 0 0 0.944 0.316 1.234 1.234 0 0 0 1.218 -1.384 1.157 1.157 0 0 0 -0.941 -1.206c0.059 -0.006 0.118 -0.009 0.169 -0.009 0.8 0 1.087 0.667 1.087 1.291a1.459 1.459 0 0 1 -1.495 1.488Zm-0.846 -2.51c0.008 -0.089 0.016 -0.218 0.044 -0.456l0.187 -1.467c-0.008 -0.06 0.031 -0.07 0.154 -0.07h1.845v0.134h-1.459a0.5 0.5 0 0 0 -0.5 0.438l-0.083 0.665a0.5 0.5 0 0 0 0.168 0.44 0.489 0.489 0 0 0 0.167 0.095 1.509 1.509 0 0 0 -0.366 0.162c-0.09 0.049 -0.102 0.059 -0.157 0.059Z" fill="#ffffff" stroke-width="1"></path>
  <path d="M64.713 37.017h-1.845c-0.317 0 -0.589 0.046 -0.65 0.507L62.029 39a4.6 4.6 0 0 0 -0.037 0.568 0.437 0.437 0 0 0 0.491 0.445c0.4 0 0.431 -0.272 0.922 -0.272a0.65 0.65 0 0 1 0.6 0.718c0 0.574 -0.287 0.885 -0.717 0.885 -0.552 0 -0.771 -0.439 -1.194 -0.439a0.558 0.558 0 0 0 -0.522 0.612c0 0.582 0.968 1.006 1.753 1.006a1.959 1.959 0 0 0 2 -1.988 1.609 1.609 0 0 0 -1.587 -1.791 2.343 2.343 0 0 0 -0.567 0.075l0.083 -0.665h1.459a0.567 0.567 0 0 0 0 -1.134Z" fill="#042f2e" stroke-width="1"></path>
  <path d="M67.716 42.02c-1.293 0 -1.752 -1.245 -1.752 -2.312s0.459 -2.311 1.752 -2.311 1.752 1.245 1.752 2.311 -0.459 2.312 -1.752 2.312Zm0 -4.444c-0.9 0 -1.482 0.836 -1.482 2.132s0.582 2.132 1.482 2.132S69.2 41 69.2 39.708s-0.584 -2.132 -1.484 -2.132Z" fill="#ffffff" stroke-width="1"></path>
  <path d="M67.716 36.9c-1.549 0 -2.252 1.4 -2.252 2.811s0.7 2.812 2.252 2.812 2.252 -1.4 2.252 -2.812 -0.7 -2.811 -2.252 -2.811Zm0 4.444c-0.763 0 -0.982 -0.96 -0.982 -1.633s0.219 -1.633 0.982 -1.633 0.982 0.961 0.982 1.633 -0.218 1.633 -0.982 1.633Z" fill="#042f2e" stroke-width="1"></path>
  <path d="M71.4 36.9a1.217 1.217 0 0 1 0 2.433 1.217 1.217 0 0 1 0 -2.433Zm2.162 0.4c0.128 -0.227 0.249 -0.4 0.468 -0.4a0.432 0.432 0 0 1 0.446 0.423 1.2 1.2 0 0 1 -0.234 0.559L71.8 42.119c-0.129 0.227 -0.25 0.4 -0.469 0.4a0.433 0.433 0 0 1 -0.446 -0.424 1.193 1.193 0 0 1 0.235 -0.559ZM71.4 38.468a0.357 0.357 0 1 0 -0.317 -0.355 0.328 0.328 0 0 0 0.317 0.355Zm2.562 1.618a1.218 1.218 0 0 1 0 2.434 1.218 1.218 0 0 1 0 -2.434Zm0 1.572a0.358 0.358 0 1 0 -0.317 -0.355 0.328 0.328 0 0 0 0.316 0.355Z" fill="#ffffff" stroke-width="1"></path>
  <path d="M74.029 36.9c-0.219 0 -0.34 0.173 -0.469 0.4l-2.44 4.24a1.193 1.193 0 0 0 -0.235 0.559 0.433 0.433 0 0 0 0.446 0.424c0.219 0 0.34 -0.174 0.469 -0.4l2.441 -4.24a1.2 1.2 0 0 0 0.234 -0.559 0.432 0.432 0 0 0 -0.446 -0.423Zm-2.63 0a1.217 1.217 0 1 0 1.179 1.216A1.2 1.2 0 0 0 71.4 36.9Zm0 1.571a0.357 0.357 0 1 1 0.317 -0.355 0.328 0.328 0 0 1 -0.317 0.355Zm2.562 1.618A1.218 1.218 0 1 0 75.14 41.3a1.2 1.2 0 0 0 -1.179 -1.217Zm0 1.572a0.358 0.358 0 1 1 0.317 -0.355 0.328 0.328 0 0 1 -0.317 0.355Z" fill="#042f2e" stroke-width="1"></path>
</svg>