<svg xmlns="http://www.w3.org/2000/svg" fill="none" viewBox="0 0 200 200" id="Work-Writing--Streamline-Bruxelles">
  <desc>
    Work Writing Streamline Illustration: https://streamlinehq.com
  </desc>
  <path fill="#9a9aad" d="M184.952 132.182c2.193 4.359 3.3 0.878 -14.212 12.662 -4.896 3.125 -9.962 5.978 -15.173 8.543 -3.875 1.763 -3.2 2.061 -5.363 2.591 -3.372 0.828 -7.158 3.648 -13.893 5.3 -1.333 0.326 -3.258 1.7 -4.926 2.2 -4.365 1.319 -6.876 3.7 -8.834 3.994 -1.279 0.354 -2.535 0.788 -3.759 1.3 -1.815 0.526 -4.327 2.678 -6.382 3.337 -1.5 0.483 -8.109 3.812 -9.094 4.3 -0.966 0.682 -2.051 1.176 -3.2 1.456 -1.871 0.447 -2.891 1.325 -5.263 2.626 -0.729 0.4 -1.5 0.447 -2.23 0.932 -1.1221 0.787 -2.3052 1.482 -3.538 2.08 -0.672 0.29 -0.709 0.081 -1.694 -1.253 -0.37 -0.5 -7.98 -20.958 -12.209 -27.084 -1.2158 -1.807 -2.2502 -3.729 -3.088 -5.739 -0.407 -1.338 -5.3 -10.455 -5.778 -11.48 -3.2 -6.926 -0.006 -0.441 -7.573 -16.809 -0.051 -0.109 -28.51 -55.3879 -30.706 -58.7869 -2.553 -3.954 -2.423 -5.17 -3.876 -7.388 -0.329 -0.5 -4.059 -5.577 -2.687 -6.44 0.665 -0.418 1.273 -0.935 1.96 -1.31 1.593 -0.87 2.336 -1.007 4.395 -2.213 5.156 -3.018 1.856 -1.807 10.47 -6.1 4.316 -2.149 4.867 -2.968 9.851 -4.907 11.229 -4.368 7.351 -3.929 16.642 -7 3.6 -1.536 3.892 -2 5.6 -2.1 3.008 -0.176 1.083 0 10.234 -3.44 18.449 -6.934 14.994 -4.917 18.2 -6.288 5.821 -2.491 6.128 -1.791 11.778 -4.458 1.536 -0.72505 3.894 -2.11205 4.593 -2.36005 3.812 -1.355 3.8 -2.4 4.709 -1.118 1.228 1.741 1.8 4.80005 2.644 6.22005 1.566 2.523 2.846 5.2126 3.816 8.019 7.577 16.441 7.243 17.156 12.67 25.365 1.232 1.863 0.334 1.687 2.714 5.137 4.014 5.818 1.035 2.121 6.293 10.492 0.547 0.6781 0.967 1.45 1.238 2.278 0.283 2.255 3.285 4.944 4.7 8.064 2.04 4.486 2.24 1.2 -0.656 7.891 -0.212 0.49 -3.027 6.742 -3.08 6.844 -0.218 0.359 0.75 1.753 1.228 0.6 0.093 -0.223 10.736 -23.32 11.166 -22.919 1.649 1.7565 3.556 3.2514 5.656 4.433 1.294 0.8546 2.682 1.5576 4.137 2.095 0.695 0.2 -0.043 0.308 -4.761 9.477 -0.037 0.073 -0.063 0.178 -0.123 0.213 -0.8 0.465 -4.465 8.145 -5.974 10.628 -1.133 1.864 -1.056 1.7539 -1.133 2.1349 -0.088 0.438 -0.075 0.6331 0.7 0.8191 0.453 0.109 0.376 -0.13 1.413 -1.877 0.555 -0.8261 1.05 -1.691 1.481 -2.588 0.045 -0.093 0.1 -0.2 0.206 0.082 0.726 1.828 0.84 1.085 3.7 6.614 0.609 1.177 1.709 1.725 -4.862 -0.354 -2.616 -0.827 -9.628 -5.084 -11.224 -6.362 -2.522 -2.0092 -4.702 -4.4137 -6.455 -7.12 -0.73 -1.057 -2.611 -4.976 -2.408 -6.893 0.052 -3.068 1.283 -4.51 3.067 -5.544 0.627 -0.363 0.924 -0.2 2.373 -0.368 0.784 -0.093 0.564 -1.4 -0.4 -1.351 -0.875 -0.0452 -1.748 0.1254 -2.541 0.4968 -0.794 0.3714 -1.484 0.9323 -2.01 1.6332 -0.786 0.8374 -1.308 1.8878 -1.5 3.0199 -0.407 2.824 -0.4 2.5191 -0.21 3.5081 0.515 2.742 0.548 2.323 1.253 3.692 2.511 5.1613 6.538 9.4331 11.542 12.244 10.707 6.5379 14.162 5.063 14.752 5.969 0.327 0.4999 1.021 1.8739 1.286 2.4049 0.6 1.206 0.135 0.89 0.9 2.3 3.2 5.9 3.224 5.5 1.831 5.332 -8.462 -1.881 -11.235 -5.748 -11.865 -4.463 -0.353 0.72 0.5 1.067 1.253 1.5 9.9 5.732 12.16 3.5 12.484 4.646 0.679 2.388 -0.117 0.929 2.669 6.112 2.636 4.912 4.745 9.897 7.076 14.528ZM158.138 101.4c1.754 -3.1999 1.912 -2.9599 1.393 -3.4729 -1.047 -1.038 -0.863 0.058 -3.643 4.8289 -2.718 4.663 -1.712 4.428 -3.313 4.152 -1.42 -0.244 -5.349 -2.508 -6.343 -3.27 -2.346 -1.8 -1.765 -0.707 3.183 -11.4719 0.25 -0.544 0.218 -0.694 -0.223 -1.083 -0.384 -0.338 -0.556 -0.336 -0.767 0.085 -1.268 2.53 -4.694 9.8059 -4.724 9.9439 -0.122 0.568 -0.536 -0.055 -1.543 0.854 -0.925 0.835 -2.084 2.879 -1.183 4.08 0.855 1.14 0.7 0.564 -2.055 6.766 -0.778 1.754 -0.954 2.679 -1.163 3.147 -1.561 3.51 -1.774 3.29 -2.626 5.849 -0.19 0.572 -0.5 1.562 -1.1 1.617 -1.2 0.109 -2.425 2.446 -2.829 3.588 -0.125 0.571 -0.101 1.165 0.071 1.725 0.173 0.559 0.487 1.063 0.912 1.465 1.219 1.1 1.41 0.874 0.909 1.5 -4.147 5.219 -5.591 4.919 -5.641 6.1 -0.094 2.255 -2.063 7.712 -3.322 10.041 -0.286 0.529 0.11 0.754 0.415 1.032 0.553 0.5 -0.124 0.049 -2.077 2.153 -1.628 1.755 -1.614 1.8 -1.847 1.383 -0.879 -1.566 -0.942 -2.038 -1.594 -2.127 -2.722 -0.371 -3.571 2.027 -4.51 4.418 -0.182 0.461 -0.864 1.4 -1.075 0.934 -0.347 -0.836 -0.636 -1.695 -0.865 -2.571 -0.069 -0.253 -0.199 -0.486 -0.379 -0.677 -0.18 -0.191 -0.405 -0.335 -0.654 -0.419 -0.248 -0.084 -0.514 -0.105 -0.773 -0.062s-0.504 0.149 -0.712 0.309c-3.146 2.37 -3 7.106 -5.3 9.848 -0.895 1.065 -0.442 -4.563 -0.436 -5.613 0.015 -2.521 -0.234 -3.861 -1.293 -5.278 -0.6 -0.8 -2.155 -0.6 -2.824 0.033 -1.636 1.537 -2.04 3.78 -2.343 4.651 -0.174 0.5 0.017 0.727 -0.5 0.108s-0.945 -0.6 -2 -0.289c-2.822 0.836 -1.832 12.2 -5.789 13.936 -0.1492 0.064 -0.2715 0.178 -0.3459 0.323 -0.0744 0.144 -0.0963 0.31 -0.0619 0.468 0.0344 0.159 0.1229 0.301 0.2504 0.402 0.1275 0.1 0.286 0.153 0.4484 0.15 1.278 -0.015 2.142 -1.386 3.04 -2.639 1.28 -1.787 2.024 -11.208 3.18 -11.121 0.974 0.073 0.987 6.167 1.027 7.137 0.032 0.772 0.108 1.541 0.88 1.491 1.754 -0.113 -0.286 -3.226 1.588 -9.984 0.343 -1.235 1.7 -4.225 2.358 -3.3 1.7 2.37 -0.124 7.468 1.028 10.306 0.693 1.71 3.025 1.657 3.969 -1 0.11 -0.308 0.316 -0.579 0.449 -0.88 1.723 -3.9 1.727 -5.512 3.228 -7 0.786 -0.779 0.344 0.532 1.6 2.962 0.235 0.362 0.601 0.62 1.021 0.719 0.42 0.099 0.862 0.032 1.234 -0.187 0.796 -0.571 1.406 -1.363 1.754 -2.278 0.257 -0.854 0.615 -1.674 1.068 -2.443 0.186 -0.305 0.467 -0.54 0.8 -0.67 0.82 -0.428 0.776 2.009 2.371 2.318 2.024 0.393 2.217 -1.743 5.763 -4.139 0.4 -0.271 1.148 0.985 1.88 -0.487 1.7 -3.416 3.595 -6.345 6.954 -8.131 1.308 -0.7 -0.664 -2.593 1.832 -8.165 0.449 -1 0.486 0.12 2.646 -0.12 0.948 -0.239 1.78 -0.808 2.346 -1.606 0.292 -0.409 0.461 -0.871 0.714 -1.288 0.184 -0.314 0.303 -0.661 0.35 -1.022 0.048 -0.361 0.022 -0.727 -0.075 -1.078 -0.21 -0.805 -0.087 -0.208 4.185 -7.934 4.459 -8.064 4.259 -8.17 4.965 -8.019 1.206 0.258 2.506 -1.984 2.854 -3.3 0.59 -2.228 -1.277 0.63 1.877 -5.065 0.519 -0.851 0.987 -1.733 1.4 -2.641l-0.014 0.008Z" stroke-width="1"></path>
  <path fill="#9a9aad" d="M147.926 158.532s-3.641 2.434 -4.114 2.618c-1.817 0.707 -7.488 4.408 -9.272 5.466 -0.474 0.281 -5.441 2.757 -5.569 2.854 -1.955 1.491 -2.14 1.185 -3.721 2.1 -6.472 3.757 -3.921 1.441 -6.089 3.145 -1.368 1.075 -0.577 0.155 -4.584 2.859 -1.325 0.894 -4.592 1.889 -15.113 9.948 -2.7872 1.414 -5.4454 3.069 -7.944 4.947 -2.149 1.509 -1.38 1.9 -3.726 -1.451 -3.4 -4.849 -2.619 -4.047 -3.228 -4.779 -4.861 -5.841 -1.752 -2.414 -4.636 -7.342 -1.362 -2.329 -1.587 -3.557 -2.756 -5.08 -0.841 -1.094 -1.362 -0.8 -2.24 -2.365 -1.1972 -1.806 -2.2958 -3.675 -3.291 -5.6 -0.544 -1.5 -1.689 -2.063 -2.591 -4.143 -0.446 -1.03 -0.388 -0.677 -0.885 -1.325 -2 -2.618 -1.732 -1.524 -2.45 -2.87 -1.2 -2.255 -1.159 -2.568 -2.085 -3.656 -0.028 -0.032 -4.441 -6.5 -4.458 -6.515 -0.371 -0.584 -2.88 -5.807 -3.007 -6.265 -0.566 -2.028 -2.986 -4.762 -3.326 -5.563 -1.631 -3.847 -2.475 -3.366 -2.826 -4.651 -0.5058 -0.83 -1.0938 -1.608 -1.755 -2.321 -0.591 -0.7 -0.954 -0.722 -1.273 -1.571 -0.629 -1.427 -1.4613 -2.755 -2.471 -3.944 -1.909 -2.583 -2.294 -2.567 -2.949 -3.895 -0.5477 -1.138 -1.2202 -2.211 -2.005 -3.2 -4.019 -4.962 -8.484 -15.014 -10.239 -17.456 -6.3 -8.766 4.787 8.207 -13.981 -20.24 -0.0112 -0.018 -0.0212 -0.0367 -0.03 -0.056 -0.4813 -1.0533 -1.052 -2.0633 -1.706 -3.019 -1.373 -2.628 -1.72 -3.886 -2.636 -4.862 -0.649 -1.0546 -1.36826 -2.0642 -2.15301 -3.022 -0.31693 -0.3824 -0.59654 -0.7943 -0.835 -1.23 -0.025 -0.04 0.048 -0.181 0.111 -0.236C14.17 60.539 13.58 61.972 15.638 60.049c1.5 -1.405 2.6 -1.2 4.511 -3.008 0.253 -0.214 0.524 -0.407 0.8 -0.6 1.019 -0.706 21.645 39.862 24.275 44.616 0.687 1.241 5.46 9.331 6.219 11.143 0.1 0.228 0.271 0.341 0.381 0.524 1.985 3.305 9.909 18.752 12.119 23.772 2.38 5.405 3.043 5.837 6.067 12.061 1.472 3.03 -0.609 0.331 5.012 9.216 2.769 4.378 10.284 24.309 12.016 26.553 1.868 2.422 5.207 -1.4 7.142 -1.922 1.62 -0.439 4.595 -2.651 6 -3 1.754 -0.066 4.26 -1.961 8.5 -3.917 13.117 -6.05 6.319 -3.657 12.548 -5.992 2.488 -0.933 1.961 -0.212 4.783 -1.822 1.165 -0.664 1.862 -1.124 2.058 -1.17 1.118 -0.261 1.463 -0.883 2.932 -1.313 3.758 -1.1 4.029 -2.131 6.3 -2.581 3.458 -0.683 10.625 -4.077 10.625 -4.077Z" stroke-width="1"></path>
  <path fill="#2dd4bf" d="M162.13 63.855s7.47 6.723 11.5 6.949l-20.4 37.887s-11.009 -1.862 -9.773 -5.829c1.236 -3.967 18.673 -39.007 18.673 -39.007Z" stroke-width="1"></path>
  <path fill="#9a9aad" d="M187.826 45.4c1.515 2.152 3.4 5.248 3.19 7.846 0 4.158 -12.531 23.131 -15.122 27.169 -0.68 1.06 -0.813 1.7 -1.393 1.171 -0.75 -0.684 0.894 -2.789 2.034 -4.975 0.015 -0.025 9.526 -16.855 10.618 -19.105 1.609 -3.315 0.777 -5.419 -0.318 -7.833 -0.82 -1.807 -1.643 -2.1 -0.07 -4.4 0.35 -0.449 0.777 -0.273 1.061 0.127Z" stroke-width="1"></path>
  <path fill="#2dd4bf" d="M177.424 32.348c3.809 -8.593 16.681 -1.033 14.354 4.24 -1.714 3.885 -11.071 -0.688 -11.041 -3.719 0.009 -0.939 -1.933 -1.036 -1.111 1.326 0.921 2.641 4.844 5.978 10.112 6.56 0.32 0.036 0.234 0.022 -0.882 2.206 -0.529 1.034 -0.461 1 -0.945 0.679 -0.248 -0.1339 -0.535 -0.1801 -0.812 -0.1311 -0.278 0.049 -0.531 0.1903 -0.719 0.4011 -2.441 3.228 -1.615 4.541 -1.662 5.972 -0.041 1.253 -0.8 2.719 -5.036 10.044 -2.862 4.952 -2.685 4.757 -3.008 4.8 -2.683 0.386 -7.062 -2.332 -9.219 -3.727 -0.93 -0.5223 -1.67 -1.3248 -2.117 -2.293 -0.3 -0.631 10.315 -22.941 10.417 -23.182 0.877 -2.073 0.953 -1.562 1.669 -3.176Z" stroke-width="1"></path>
  <path fill="#9a9aad" d="M175.985 66.073c0.835 0.055 0.881 0.173 0.672 0.99 -0.761 2.978 -2.5 2.85 -5.367 1.729 -2.695 -1.053 -7.386 -3.482 -8.7 -6.378 -0.418 -0.917 0.767 -2.768 1.468 -2.932 0.78 -0.182 -0.153 1.016 3.912 3.3 0.862 0.482 4.662 3.067 8.015 3.291Z" stroke-width="1"></path>
  <path fill="#9a9aad" d="M153.239 108.691c0.473 0.212 -0.553 1.613 -0.905 2 -0.751 0.835 -3.622 -0.356 -4.576 -1.067 -0.418 -0.311 -4.716 -2.084 -5.583 -4.047 -0.368 -0.834 0.3 -2 0.925 -2.684 0.217 -0.287 0.633 0.161 0.877 0.426 1.932 2.393 6.412 4.099 9.262 5.372Z" stroke-width="1"></path>
  <path fill="#2dd4bf" d="M148.169 112.277c1.208 0.708 1.6 0.5 1.309 1.04 -0.707 1.387 -1.492 2.733 -2.349 4.032 -0.839 1.351 1.3 -1.707 -4.543 8.27 -1.265 2.158 -1.233 2.651 -2.2 2.573 -1.044 -0.25 -2.153 -0.252 -4.874 -2.453 -0.118 -0.061 -0.22 -0.149 -0.297 -0.257 -0.078 -0.108 -0.129 -0.232 -0.15 -0.363 -0.021 -0.131 -0.01 -0.266 0.03 -0.392 0.041 -0.126 0.111 -0.242 0.204 -0.336 0.627 -0.972 1.106 -2.032 1.421 -3.145 0.575 -1.647 -1.491 3.608 4.195 -9.643 1.613 -3.758 1.3 -3.811 2.03 -3.1 1.627 1.41 3.375 2.673 5.224 3.774Z" stroke-width="1"></path>
  <path fill="#9a9aad" d="M141.089 129.537c0.097 -0.008 0.194 -0.008 0.291 0 -0.164 0.681 -0.564 1.281 -1.129 1.694 -0.565 0.412 -1.259 0.611 -1.957 0.56 -2.049 -0.536 -3.921 -1.6 -5.431 -3.085 -0.199 -0.321 -0.28 -0.701 -0.23 -1.075 0.004 -0.754 0.289 -1.48 0.8 -2.035 0.175 -0.259 3.599 4.504 7.656 3.941Z" stroke-width="1"></path>
  <path fill="#9a9aad" d="M134.345 132.886c0.782 0.838 1.062 1.037 0.834 1.581 -1.182 2.817 -0.72 6.381 -1.328 6.516 -3.9 1.808 -6.244 8.087 -6.691 8.056 -0.251 -0.017 -0.6 -0.393 -0.564 -0.5 0.15 -0.48 3.588 -6.412 4.237 -7.666 0.349 -0.672 0.4 -0.607 0.792 -0.666 0.312 -0.063 0.588 -0.242 0.772 -0.502 0.184 -0.26 0.261 -0.58 0.216 -0.895 -0.045 -0.315 -0.21 -0.601 -0.459 -0.799 -0.249 -0.198 -0.565 -0.293 -0.882 -0.265 -0.349 0.018 -0.677 0.173 -0.911 0.431 -0.235 0.259 -0.358 0.6 -0.342 0.949 0.038 0.783 0.434 0.423 0.093 1.194 -0.419 0.944 -3.686 7.1 -4.28 7.946 -0.106 0.15 -0.695 -0.211 -0.65 -0.444 0.138 -0.711 1.454 -2.44 2.664 -6.59 1.525 -5.227 -0.721 -1.573 3.17 -5.263 3.432 -3.254 2.542 -3.927 3.329 -3.083Z" stroke-width="1"></path>
  <path fill="#1c1c1e" d="M136.617 67.1429c0.715 1.5 -1.075 0.434 -2.634 4.581 -0.664 1.768 -1.924 0.619 -3.52 0.288 -0.361 -0.1 -0.266 -0.048 -0.82 2.112 0.145 0.506 -0.167 1.579 -0.774 1.752 -1.431 0.5 -1.389 -0.44 -3.739 -1.456 -1.815 -0.784 -1.634 2.333 -2.794 3.423 -0.36 0.3621 -0.843 0.5765 -1.353 0.6011 -0.51 0.0246 -1.011 -0.1423 -1.404 -0.4681 -0.47 -0.445 -0.736 -0.784 -1.253 -0.659 -0.427 0.1 -0.826 -0.267 -0.639 -1.093 0.375 -0.2751 0.838 -0.4018 1.301 -0.3554 0.463 0.0463 0.892 0.2624 1.205 0.6064 0.687 0.6 0.887 0.57 1.253 -0.238 0.273 -0.5797 0.516 -1.1728 0.729 -1.777 0.635 -1.877 1.547 -1.545 2.321 -1.754 0.967 -0.261 2.465 0.726 3.39 1.306 0.313 0.2 0.21 -0.121 0.569 -1.637 0.328 -1.383 0.579 -2.245 2 -2 1.755 0.3 2.007 0.726 2.135 0.374 1.442 -3.949 3.674 -4.349 4.027 -3.606Z" stroke-width="1"></path>
  <path fill="#1c1c1e" d="M136.041 86.6621c0.18 0.679 -1.5 1.757 -2.143 2.373 -1.594 1.529 -1.123 0.967 -1.9 2.418 -1.279 2.383 -3.638 -1.715 -5.084 0.945 -0.369 0.678 -0.8 2.08 -1 2.533 -1.111 2.529 -4.39 -1.348 -5.36 0.391 -1.1 1.962 -0.579 4.8999 -3.661 3.325 -2.584 -1.32 -1.8 0.251 -2.4 2.8299 -0.036 0.229 -0.162 0.435 -0.349 0.573 -0.187 0.137 -0.421 0.195 -0.651 0.16 -0.388 -0.061 -0.84 -0.516 -1.376 -0.889 -0.536 -0.373 -0.945 -0.328 -1.085 -1.085 -0.113 -0.6089 0.786 -0.8079 1.316 -0.5339 0.813 0.4229 0.814 0.3189 0.839 0.1 0.249 -2.151 0.275 -2.688 1.413 -3.068 0.479 -0.1762 0.993 -0.2358 1.499 -0.1739 0.506 0.0619 0.991 0.2435 1.413 0.5299 1 0.5 0.376 -0.111 1.391 -2.31 0.114 -0.3684 0.327 -0.6981 0.616 -0.9529 0.289 -0.2549 0.643 -0.4248 1.023 -0.4911 0.25 -0.028 0.481 -0.165 0.722 -0.178 1 -0.052 0.667 0 2.819 0.815 0.586 0.222 0.44 -0.751 1.428 -2.594 0.947 -1.765 3.086 -1.874 4.656 -1.195 0.849 0.367 0.111 -0.266 2.506 -2.448 0.6 -0.4476 1.157 -0.9497 1.664 -1.5 0.315 -0.427 1.706 -1.013 1.704 0.426Z" stroke-width="1"></path>
  <path fill="#1c1c1e" d="M159.531 97.926c-1.053 -1.031 -0.864 0.056 -3.641 4.814 -2.722 4.664 -1.706 4.429 -3.313 4.152 -1.419 -0.245 -5.343 -2.514 -6.342 -3.271 -2.358 -1.784 -1.772 -0.7 3.182 -11.471 0.251 -0.545 0.218 -0.7 -0.223 -1.083 -0.383 -0.338 -0.556 -0.336 -0.767 0.085 -1.267 2.53 -4.693 9.806 -4.723 9.944 -0.122 0.568 -0.538 -0.052 -1.544 0.854 -0.929 0.838 -2.083 2.878 -1.183 4.08 0.857 1.144 0.7 0.572 -2.054 6.766 -0.777 1.742 -0.955 2.679 -1.163 3.147 -1.561 3.508 -1.775 3.29 -2.627 5.849 -0.19 0.572 -0.5 1.562 -1.1 1.617 -1.2 0.109 -2.434 2.443 -2.829 3.588 -0.123 0.571 -0.097 1.165 0.075 1.723 0.172 0.559 0.484 1.064 0.907 1.467 1.222 1.106 1.41 0.879 0.91 1.5 -4.169 5.2 -5.592 4.919 -5.641 6.1 -0.095 2.273 -2.07 7.713 -3.323 10.042 -0.286 0.531 0.113 0.756 0.416 1.032 0.557 0.508 -0.125 0.048 -2.077 2.153 -1.629 1.756 -1.614 1.8 -1.847 1.383 -0.879 -1.567 -0.943 -2.038 -1.594 -2.127 -2.715 -0.371 -3.567 2.026 -4.511 4.418 -0.182 0.461 -0.864 1.4 -1.075 0.934 -0.345 -0.837 -0.633 -1.696 -0.864 -2.571 -0.07 -0.252 -0.201 -0.484 -0.382 -0.674 -0.18 -0.19 -0.404 -0.334 -0.653 -0.417 -0.248 -0.084 -0.513 -0.106 -0.772 -0.063 -0.259 0.042 -0.503 0.147 -0.712 0.305 -3.139 2.384 -2.953 7.054 -5.3 9.848 -0.9 1.065 -0.44 -4.563 -0.436 -5.613 0.008 -2.521 -0.235 -3.861 -1.293 -5.278 -0.6 -0.8 -2.155 -0.6 -2.825 0.033 -1.636 1.536 -2.048 3.777 -2.343 4.651 -0.171 0.51 0.018 0.707 -0.5 0.108s-0.95 -0.6 -2 -0.289c-2.822 0.838 -1.833 12.2 -5.789 13.936 -0.1491 0.064 -0.2714 0.178 -0.3458 0.322 -0.0744 0.145 -0.0963 0.31 -0.0621 0.469 0.0343 0.159 0.1226 0.3 0.2499 0.401 0.1274 0.101 0.2857 0.154 0.448 0.151 1.286 -0.008 2.143 -1.386 3.04 -2.639 1.28 -1.786 2.025 -11.208 3.18 -11.121 0.975 0.073 0.987 6.167 1.028 7.137 0.032 0.772 0.107 1.541 0.879 1.491 1.759 -0.113 -0.312 -3.226 1.589 -9.984 0.348 -1.237 1.694 -4.225 2.358 -3.3 1.7 2.37 -0.126 7.468 1.028 10.306 0.691 1.7 3.026 1.65 3.969 -1 0.109 -0.308 0.315 -0.579 0.448 -0.879 1.723 -3.9 1.721 -5.5 3.228 -7 0.785 -0.782 0.345 0.533 1.6 2.961 0.233 0.365 0.599 0.624 1.02 0.724 0.421 0.099 0.865 0.03 1.236 -0.192 0.801 -0.565 1.412 -1.359 1.754 -2.278 0.255 -0.855 0.613 -1.676 1.067 -2.444 0.186 -0.305 0.467 -0.539 0.8 -0.668 0.819 -0.439 0.777 2.011 2.37 2.317 2.006 0.385 2.209 -1.74 5.764 -4.139 0.4 -0.271 1.15 0.987 1.88 -0.487 1.679 -3.393 3.595 -6.345 6.953 -8.131 1.309 -0.7 -0.655 -2.59 1.832 -8.164 0.451 -1.011 0.486 0.127 2.646 -0.121 1.984 -0.228 3.773 -3.319 3.336 -4.994 -0.211 -0.8 -0.083 -0.213 4.185 -7.934 4.454 -8.059 4.267 -8.163 4.964 -8.019 1.208 0.25 2.508 -1.985 2.854 -3.3 0.663 -2.511 -1.767 1.5 3.278 -7.691 1.749 -3.192 1.896 -2.962 1.38 -3.466Zm-24.352 36.541c-1.179 2.8 -0.743 6.365 -1.343 6.5 -3.848 1.785 -6.214 8.057 -6.691 8.057 -0.251 0 -0.6 -0.384 -0.564 -0.5 0.036 -0.116 4.206 -8.1 5 -8.22 1.344 -0.2 1.424 -2.658 -0.331 -2.565 -0.216 0.009 -0.427 0.071 -0.613 0.181 -0.187 0.11 -0.343 0.264 -0.456 0.449 -0.113 0.185 -0.178 0.395 -0.191 0.611 -0.012 0.216 0.029 0.432 0.12 0.628 0.314 0.675 -3.877 8.032 -4.3 8.643 -0.105 0.151 -0.694 -0.21 -0.649 -0.443 1.055 -2.126 1.946 -4.329 2.664 -6.591 1.524 -5.219 -0.734 -1.578 3.17 -5.262 3.441 -3.247 2.57 -3.895 3.351 -3.065 0.781 0.83 1.061 1.034 0.833 1.577Zm3.115 -2.676c-2.05 -0.534 -3.923 -1.598 -5.431 -3.085 -0.2 -0.32 -0.281 -0.701 -0.23 -1.075 0.006 -0.754 0.291 -1.479 0.8 -2.035 0.179 -0.264 3.6 4.5 7.659 3.941 0.097 -0.008 0.194 -0.008 0.291 0 -0.163 0.682 -0.563 1.283 -1.129 1.696 -0.567 0.413 -1.261 0.611 -1.96 0.558Zm11.184 -18.484c-0.711 1.383 -1.495 2.727 -2.348 4.027 -0.845 1.36 1.3 -1.7 -4.544 8.27 -1.265 2.158 -1.233 2.651 -2.2 2.573 -1.044 -0.26 -2.154 -0.254 -4.874 -2.453 -0.118 -0.061 -0.22 -0.149 -0.297 -0.257 -0.078 -0.108 -0.129 -0.232 -0.15 -0.363 -0.021 -0.132 -0.01 -0.266 0.031 -0.392 0.041 -0.127 0.111 -0.242 0.204 -0.336 0.627 -0.972 1.106 -2.032 1.42 -3.145 0.662 -1.9 -1.845 4.422 4.195 -9.643 1.612 -3.754 1.3 -3.812 2.03 -3.1 1.628 1.412 3.378 2.677 5.228 3.781 1.201 0.711 1.594 0.507 1.305 1.038Zm2.856 -2.612c-0.762 0.834 -3.619 -0.367 -4.573 -1.084 -0.417 -0.313 -4.716 -2.085 -5.583 -4.047 -0.369 -0.835 0.3 -2.018 0.924 -2.684 0.217 -0.287 0.634 0.16 0.878 0.426 1.921 2.369 6.436 4.1 9.259 5.385 0.475 0.216 -0.554 1.62 -0.905 2.009v-0.005Z" stroke-width="1"></path>
  <path fill="#1c1c1e" d="M128.661 52.162c0.36 1.325 -0.687 0.222 -2.12 3.386 -0.05 0.1601 -0.138 0.306 -0.256 0.4256 -0.118 0.1196 -0.262 0.2095 -0.422 0.2624 -0.159 0.0528 -0.329 0.067 -0.495 0.0415 -0.165 -0.0256 -0.323 -0.0902 -0.459 -0.1885 -0.448 -0.203 -0.908 -0.3787 -1.378 -0.526 -0.251 -0.11 -0.919 0.223 -1.113 0.554 -1.073 1.837 -1.42 3.326 -2.691 2.774 -0.619 -0.269 -1.576 -1.283 -2.446 -0.226 -0.87 1.057 -0.366 1.442 -1.5 3.243 -0.568 0.9 -1.9 0.7 -2.7 0 -0.231 -0.2 -0.416 -0.516 -0.766 -0.444 -1.449 0.3 -1.564 1.93 -1.968 3.388 -0.368 1.329 -2.171 1.685 -3.844 0.306 -0.353 -0.291 -1.563 -0.011 -2 0.156 -0.959 0.361 -2.158 -1.7 1.814 -1.87 0.94 -0.135 1.443 0.9 2.11 0.9 1.082 0 0.25 -3.007 2.8 -4.222 0.39 -0.2429 0.847 -0.3572 1.306 -0.3271 0.459 0.0301 0.897 0.2033 1.252 0.4951 1.948 1.5 0.392 -3.813 4.875 -3.734 0.367 0.0584 0.718 0.1885 1.034 0.383 0.3 0.138 0.131 0.141 1.5 -2.027 0.207 -0.327 0.293 -0.414 1.431 -0.937 1.466 -0.675 2.524 0.924 2.812 -0.063 0.435 -1.5 2.857 -3.098 3.224 -1.75Z" stroke-width="1"></path>
  <path fill="#1c1c1e" d="M121.925 38.307c0.085 0.1844 0.12 0.3876 0.102 0.5897 -0.017 0.2021 -0.087 0.3962 -0.202 0.5633 -0.439 0.31 -0.88 0.619 -1.346 0.887 -1.1 0.631 -1.214 1.451 -2.614 0.854 -0.885 -0.377 -0.883 -0.394 -1.546 0.334 -1.25 1.373 -1.08 2.5 -2.679 2.082 -0.983 -0.255 -1.752 -0.7 -2.476 -0.18 -1.212 0.869 -1.336 2.678 -2.105 2.927 -3.747 1.21 -3.485 -3.084 -6.345 3.007 -0.353 0.752 -1.349 0.95 -2.541 -0.1 -0.2688 -0.1968 -0.5786 -0.3301 -0.9063 -0.39 -0.3277 -0.06 -0.6647 -0.0449 -0.9857 0.044 -0.751 0.094 -2.235 3.027 -2.578 3.714 -0.126 0.252 -0.176 0.551 -0.278 0.822 -0.102 0.271 -0.6 0.556 -0.852 0.441 -1.172 -0.535 0.623 -3.476 1.252 -4.7 0.6 -1.032 1.67 -2.141 2.845 -1.954 0.9006 -0.0571 1.793 0.2033 2.521 0.736 0.293 0.211 0.182 0.456 1.478 -1.964 0.279 -0.5735 0.739 -1.0391 1.309 -1.3249 0.569 -0.2858 1.218 -0.3758 1.844 -0.2561 3.824 1.2 1.558 -0.051 4.347 -2.379 0.544 -0.3533 1.183 -0.5329 1.831 -0.515 1.457 -0.163 1.713 0.763 2.165 0.022 0.414 -0.6477 0.912 -1.2375 1.481 -1.754 0.472 -0.4131 1.073 -0.6502 1.7 -0.671 0.629 -0.061 0.9 0.671 1.366 0.313 0.466 -0.358 1.52 -0.823 1.7 -1.018 0.197 -0.1952 0.457 -0.3151 0.733 -0.3389 0.276 -0.0237 0.552 0.0502 0.78 0.2089Z" stroke-width="1"></path>
  <path fill="#1c1c1e" d="M115.106 76.986c1.272 -0.2 1.318 1.436 0.313 1.7 -0.842 0.218 -1.337 0.022 -1.616 0.771 -0.9 2.427 -0.844 2.71 -1.554 3.008 -0.8 0.336 -1.122 -0.3 -1.852 -1.023 -0.153 -0.1416 -0.337 -0.2439 -0.538 -0.2981 -0.202 -0.0541 -0.413 -0.0584 -0.616 -0.0125 -0.203 0.0459 -0.392 0.1406 -0.55 0.2759 -0.158 0.1354 -0.281 0.3072 -0.358 0.5007 -0.482 1.017 -0.25 1.446 -0.556 2.6 -0.076 0.2245 -0.209 0.4249 -0.388 0.5808 -0.178 0.1559 -0.395 0.2616 -0.627 0.3065 -0.233 0.0448 -0.473 0.0271 -0.697 -0.0513 -0.224 -0.0784 -0.422 -0.2147 -0.576 -0.395 -1 -1.016 -1.252 -1.074 -1.672 -1 -2.25 0.386 -2.2 2.864 -2.611 4.282 -0.035 0.2034 -0.114 0.3966 -0.231 0.5663 -0.118 0.1696 -0.271 0.3114 -0.449 0.4156 -0.178 0.1041 -0.377 0.1681 -0.5821 0.1873 -0.2055 0.0192 -0.4126 -0.0068 -0.6069 -0.0762 -0.7174 -0.4602 -1.399 -0.974 -2.039 -1.537 -0.939 -0.712 -3.081 0.052 -3.007 -1.085 0.055 -0.825 0.382 -0.732 1.8 -0.7 0.943 0.022 1.279 -0.134 2.177 0.544 1.325 1 1.415 1.238 1.554 0.667 1.011 -4.15 1 -3.2 1.9 -4.087 0.623 -0.5291 1.408 -0.8296 2.225 -0.852 0.416 -0.0302 0.832 0.043 1.212 0.2129 0.381 0.17 0.713 0.4315 0.968 0.7611 0.454 0.386 0.274 -0.538 0.456 -1.363 0.389 -1.754 1.329 -2.147 3.008 -2.486 0.351 -0.0583 0.71 -0.0191 1.04 0.1136 0.33 0.1326 0.617 0.3535 0.829 0.6384 0.206 0.2 0.267 0.069 0.764 -1.351 0.474 -1.344 1.428 -1.583 2.88 -1.814Z" stroke-width="1"></path>
  <path fill="#1c1c1e" d="M108.932 99.347c0.751 -0.232 1.32 0.923 0.273 1.754 -1.159 0.919 -0.276 3.526 -1.652 3.846 -0.987 0.027 -1.945 -0.336 -2.666 -1.01 -0.476 -0.5 -1 -0.3 -1.373 0.163 -1.164 1.457 -0.929 2.564 -1.782 4.2 -0.172 0.324 -0.463 0.569 -0.811 0.683 -0.349 0.114 -0.728 0.088 -1.058 -0.071 -1.711 -0.821 -3.1 -2.692 -4.895 2.025 -0.1591 0.427 -0.3559 0.838 -0.588 1.23 -0.209 0.23 -0.4964 0.374 -0.806 0.404 -0.3096 0.029 -0.6191 -0.057 -0.868 -0.244 -1.251 -0.892 -2.106 -1.622 -2.927 -0.521 -0.73 0.979 -0.633 1.331 -0.943 3.107 -0.0089 0.183 -0.0668 0.36 -0.1675 0.513 -0.1006 0.153 -0.2405 0.276 -0.405 0.357 -0.1644 0.081 -0.3475 0.116 -0.5302 0.102 -0.1826 -0.014 -0.3581 -0.077 -0.5083 -0.182 -0.561 -0.314 -1.093 -0.673 -1.629 -1.028 -1.573 -1.041 -2.711 1.228 -3.037 3.043 -0.215 1.2 -0.584 2.136 -1.854 1.791 -1.381 -0.374 -1.847 -1.706 -3.278 -1.393 -0.276 0.06 -1.154 1.844 -1.5 4.333 -0.138 0.982 -0.984 1.092 -1.395 0.681 -0.9075 -1.019 -1.8802 -1.978 -2.912 -2.871 -0.437 -0.387 -0.841 1.653 -0.837 2.107 0.027 3.258 0.157 3.193 -0.552 3.34 -0.308 0.065 -0.434 0.021 -0.533 -0.225 -0.0729 -0.172 -0.1178 -0.355 -0.133 -0.541 -0.175 -2.609 -0.414 -4.011 0.7 -5.7 0.448 -0.677 1.293 -0.927 2.376 -0.12 1.867 1.391 1.859 2.093 2 1.619 0.2562 -1.35 0.7651 -2.639 1.5 -3.8 0.32 -0.517 2.366 -0.887 3.774 0.175 0.286 0.216 0.732 0.5 0.955 0.652 0 -0.025 0.8 -4.361 2.8 -4.824 1.754 -0.406 2.036 -0.222 2.777 0.285 0.837 0.573 0.826 0.752 1.045 -0.406 0.637 -3.37 3.471 -3.778 4.661 -2.906 2.017 1.248 0.557 -0.344 3.348 -3.135 0.7399 -0.512 1.6344 -0.751 2.531 -0.677 0.7497 0.157 1.4541 0.482 2.06 0.95 0.3 0.175 0.376 0.07 0.766 -1.524 0.331 -1.35 1.349 -3.17 2.875 -3.546 1.253 -0.308 1.348 0.1 2.6 0.847 1.18 0.687 -0.242 -2.609 2.599 -3.483Z" stroke-width="1"></path>
  <path fill="#1c1c1e" d="M108.3 27.018c0.712 -0.171 1.178 1.095 0.208 1.616 -2.288 1.229 -2.438 2.607 -4.979 2.188 -2.348 -0.388 -1.834 0.619 -4.188 2.586 -1.433 1.2 -2.576 -0.846 -3.18 -0.536 -0.4691 0.2026 -0.8859 0.5093 -1.2189 0.8969 -0.333 0.3876 -0.5734 0.8458 -0.7031 1.3401 -0.0255 0.2206 -0.1064 0.4312 -0.2351 0.6123 -0.1287 0.181 -0.3011 0.3266 -0.5011 0.4232 -0.2001 0.0965 -0.4213 0.141 -0.6431 0.1292 -0.2218 -0.0118 -0.437 -0.0795 -0.6257 -0.1967 -1 -0.684 -0.652 -1.079 -2.2 -0.915 -0.1475 0.0164 -0.2852 0.0819 -0.391 0.186 -0.947 1.027 -0.649 0.084 -1.686 2.826 -0.0791 0.2141 -0.2396 0.3885 -0.4464 0.4851 -0.2069 0.0966 -0.4436 0.1077 -0.6586 0.0309 -1.07 -0.39 -1.219 -1.255 -2.368 -1.295 -1.444 -0.05 -2.036 1.859 -2.158 3.3 -0.076 0.9 -0.848 1.326 -1.95 0.562 -0.861 -0.6 -1.638 -1.5 -2.343 -0.557 -0.5879 0.6008 -0.9324 1.3981 -0.967 2.238 -0.113 1.466 -1.187 1.568 -1.564 1.188 -0.292 -0.3 -0.309 -0.443 -1.528 -1.714 -0.1248 -0.1232 -0.2736 -0.2195 -0.4371 -0.283 -0.1635 -0.0634 -0.3382 -0.0927 -0.5135 -0.0859 -0.1752 0.0067 -0.3472 0.0493 -0.5054 0.1252 -0.1581 0.0758 -0.299 0.1832 -0.414 0.3157 -0.669 1.018 -0.832 1.3 -1.383 1.3s-0.535 -0.936 -0.291 -1.4c1 -1.9 1.248 -1.711 2.872 -1.895 0.875 -0.1 1.611 0.637 2.3 1.236 0.2259 -0.8098 0.6484 -1.5511 1.23 -2.158 0.346 -0.471 0.453 -0.83 2.368 -0.925 0.471 -0.023 0.584 0.136 1.6 0.752 0.379 -0.406 -0.05 -0.8 1.366 -2.791 0.6692 -0.4472 1.4149 -0.7675 2.2 -0.945 0.7831 0.0847 1.5377 0.3415 2.21 0.752 0.314 0.246 0.283 0.107 0.549 -0.619 0.3059 -0.6608 0.7749 -1.2327 1.363 -1.662 0.6925 -0.4958 1.5244 -0.7591 2.376 -0.752 0.594 0.274 1.343 0.118 1.834 0.672 0.0289 0.0003 0.0575 -0.0055 0.084 -0.0173 0.0264 -0.0117 0.0499 -0.029 0.069 -0.0507 0.3099 -0.8169 0.8482 -1.5273 1.5507 -2.0466 0.7025 -0.5194 1.5395 -0.8257 2.4113 -0.8824 0.433 0 1.057 0.646 1.085 0.664 0.534 0.416 0.547 0.063 1.7 -1.135 1.035 -1.077 1.348 -1.43 2.962 -1.5 1.714 -0.078 1.7 0.379 2.345 -0.07 1.975 -1.381 1.921 -1.64 3.395 -1.993Z" stroke-width="1"></path>
  <path fill="#1c1c1e" d="M101.068 66.3611c0.042 0.1644 0.021 0.3384 -0.057 0.489s-0.209 0.2673 -0.367 0.328c-1.586 0.864 -1.3 1.731 -2.075 3.573 -1 2.4 -3.462 -2.119 -4.859 -0.839 -1.567 1.437 -1.378 2.9 -2.067 3.959 -0.1544 0.2359 -0.3917 0.4053 -0.6651 0.4746 -0.2734 0.0693 -0.5628 0.0334 -0.8109 -0.1006 -0.722 -0.393 -1.43 -1.546 -2.817 -2.115 -0.318 -0.131 -0.668 0.341 -0.909 0.619 -1.025 1.178 -2.361 -1.545 0.967 -2.226 1.0519 0.2544 2.0087 0.8052 2.757 1.587 0.96 0.8 -0.087 -0.883 2.6 -3.539 0.4592 -0.3232 1.0159 -0.4779 1.576 -0.438 1.178 -0.14 1.771 0.482 2.684 1.05 0.566 0.351 0.368 -0.221 0.752 -1.191 0.2009 -0.6018 0.5573 -1.1398 1.033 -1.5595 0.4757 -0.4197 1.0539 -0.7062 1.676 -0.8305 0.437 0.031 0.492 0.428 0.582 0.759Z" stroke-width="1"></path>
  <path fill="#1c1c1e" d="M92.858 87.536c0.672 0.14 0.568 1.191 0.138 1.541 -0.306 0.25 -0.574 0.541 -0.867 0.805 -0.985 0.884 -0.4 2.929 -0.909 3.453 -0.8 0.814 -1.66 -0.015 -2.642 -0.617 -1.727 -1.059 -3.123 3.223 -3.47 3.857 -0.0582 0.1349 -0.1472 0.2543 -0.2599 0.3485 -0.1128 0.0943 -0.246 0.1607 -0.3891 0.1941 -0.1431 0.0334 -0.292 0.0327 -0.4347 -0.002 -0.1428 -0.0346 -0.2755 -0.1023 -0.3873 -0.1976 -0.4186 -0.265 -0.8761 -0.4627 -1.356 -0.586 -1.019 -0.385 -1.969 1.779 -2.361 2.784 -0.582 1.494 -0.7 1.755 -2.623 0.419 -0.983 -0.487 -1.255 -0.594 -2.05 0.428 -0.6972 0.904 -1.151 1.971 -1.318 3.1 -0.227 1.485 -1.467 1.133 -1.8 0.689 -0.507 -0.516 -1.0529 -0.991 -1.633 -1.423 -0.0838 -0.085 -0.1849 -0.15 -0.2964 -0.192 -0.1115 -0.042 -0.2307 -0.06 -0.3495 -0.052 -0.1189 0.008 -0.2347 0.042 -0.3394 0.098 -0.1048 0.057 -0.1961 0.136 -0.2677 0.231 -0.905 1.022 -0.754 0.122 -1.444 3.162 -0.095 0.421 -0.1 0.861 -0.2 1.281 -0.0339 0.137 -0.0985 0.264 -0.1887 0.372 -0.0903 0.108 -0.204 0.194 -0.3325 0.252 -0.1284 0.058 -0.2684 0.086 -0.4092 0.082 -0.1408 -0.004 -0.2788 -0.041 -0.4036 -0.106 -0.763 -0.386 -1.2 -1.671 -2.089 -2.481 -0.79 -0.723 -0.913 -1.373 -1.076 1.532 -0.108 1.932 0.123 2.385 -0.3 2.7 -1.611 1.211 -1.063 -4.879 -0.654 -5.916 0.0675 -0.179 0.1767 -0.339 0.3186 -0.467s0.3123 -0.221 0.4971 -0.269c0.1848 -0.049 0.3786 -0.053 0.5653 -0.012 0.1867 0.041 0.3609 0.126 0.508 0.248 0.8345 0.656 1.5914 1.405 2.256 2.233 0.213 -0.384 0.345 -2.311 1.182 -3.175 0.837 -0.864 1.3 -1.306 2.023 -1.311 0.723 -0.005 0.619 -0.37 1.639 0.266 1.176 0.732 1.37 1.288 1.516 0.661 0.3 -1.3 1.652 -3.624 3.18 -3.849 0.7622 -0.1108 1.5394 0.045 2.2 0.441 0.872 0.522 -0.027 0.026 2.112 -2.659 0.619 -0.4882 1.3846 -0.7532 2.173 -0.752 0.837 0.038 0.654 0.159 1.188 0.329 0.791 0.251 0.572 -0.737 1.376 -1.862 3.177 -4.449 4.873 -0.925 5.047 -1.824 0.0054 -0.5283 0.1165 -1.0502 0.3269 -1.5349 0.2104 -0.4847 0.5158 -0.9223 0.8981 -1.2871 0.994 -0.745 0.919 -1.095 1.706 -0.932Z" stroke-width="1"></path>
  <path fill="#1c1c1e" d="M91.325 51.0269c0.1198 0.2051 0.1717 0.4428 0.1483 0.6791 -0.0233 0.2363 -0.1207 0.4593 -0.2783 0.6369 -0.723 0.56 -0.872 2 -1.158 3.28 -0.33 1.471 -1.905 1.06 -2.494 -0.138 -0.2697 -0.4183 -0.6252 -0.7745 -1.043 -1.045 -0.0735 -0.0613 -0.1662 -0.0949 -0.262 -0.0949 -0.0957 0 -0.1885 0.0336 -0.262 0.0949 -0.3743 0.1815 -0.698 0.4526 -0.9423 0.7893 -0.2442 0.3367 -0.4014 0.7286 -0.4577 1.1407 -0.08 1.636 0 2.676 -1.05 2.7 -0.824 0.09 -1.568 -2.58 -2.8 -1.271 -2.844 3.032 -0.853 5.614 -4.032 4.869 -0.541 -0.127 -2.575 -0.989 -3.435 0.3 -0.471 0.3075 -0.8236 0.7659 -1 1.3 -0.6 2 -0.229 1.735 -0.6 2.255 -0.0721 0.1024 -0.1646 0.1888 -0.2718 0.2536 -0.1071 0.0648 -0.2266 0.1066 -0.3507 0.1229 -0.1242 0.0162 -0.2504 0.0065 -0.3706 -0.0285 -0.1202 -0.035 -0.2319 -0.0946 -0.3279 -0.175 -1.827 -1.308 -1.408 -1.293 -2.731 -1.11 -0.531 0.074 -0.75 0.294 -2.506 4.03 -0.0662 0.194 -0.1865 0.3649 -0.3468 0.4925s-0.3538 0.2067 -0.5577 0.2277c-0.2038 0.021 -0.4094 -0.0168 -0.5924 -0.109 -0.183 -0.0921 -0.3357 -0.2348 -0.4401 -0.4112 -0.4358 -0.6081 -1.0191 -1.0953 -1.695 -1.416 -0.348 -0.228 -1.6 2.228 -1.834 2.9 -0.2802 0.9041 -0.5047 1.8245 -0.672 2.756 -0.246 0.631 -1.191 0.77 -2.117 -0.2 -0.5387 -0.4921 -1.1511 -0.897 -1.815 -1.2 -0.1312 -0.0712 -0.2817 -0.0987 -0.4295 -0.0784 -0.1479 0.0204 -0.2854 0.0874 -0.3925 0.1914 -2.039 1.737 -0.769 4.383 -2.583 5.12 -0.612 0.248 -1.032 -0.163 -1.409 -0.7 -0.628 -0.9 -2.429 -1.96 -2.723 -0.712 -0.482 2.043 0.055 2.992 -0.166 3.669 -0.0375 0.0962 -0.102 0.1795 -0.1856 0.24 -0.0837 0.0605 -0.183 0.0956 -0.2861 0.1011 -0.1031 0.0055 -0.2056 -0.0189 -0.2952 -0.0701 -0.0896 -0.0513 -0.1626 -0.1273 -0.2101 -0.219 -0.4334 -1.0654 -0.5662 -2.2293 -0.384 -3.365 0.163 -0.687 0.086 -2.619 2.05 -2.476 0.6029 -0.0171 1.2018 0.1029 1.7515 0.3512 0.5497 0.2482 1.0358 0.6182 1.4215 1.0818 0.2 -0.531 0.31 -4.839 3.686 -4.866 0.569 -0.005 1.006 0.285 2.458 1.115 0.754 0.43 -0.056 -0.846 2.168 -4.1 0.755 -1.106 1.5 -1.691 2.579 -1.093 2 1.116 1.808 1.373 1.944 1.105 1.588 -3.12 1.662 -3.93 4.391 -4.132 1.583 -0.117 1.8 1.221 2.1 0.433 0.454 -1.182 0.35 -1.478 1.283 -2.28 0.4155 -0.5244 0.9643 -0.9275 1.5891 -1.1671 0.6247 -0.2396 1.3023 -0.3069 1.9619 -0.1949 1.611 0.175 1.911 0.719 2.079 -0.06 0.5 -2.3 1.885 -4.895 4.4 -4.782 1.183 0.053 1.078 0.612 1.228 -0.027 0.255 -1.082 0.306 -1.366 0.815 -1.754 0.644 -0.7952 1.5759 -1.3041 2.593 -1.416 0.406 -0.031 0.84 0.3 2.033 1.22 0.423 0.328 0.493 -1.895 1.631 -2.756 0.161 -0.153 0.3743 -0.2391 0.5964 -0.2406 0.2222 -0.0015 0.4366 0.0817 0.5996 0.2326Z" stroke-width="1"></path>
  <path fill="#1c1c1e" d="M85.123 74.676c1.08 -0.125 0.618 1.355 0.433 2.425 -0.0143 0.1825 -0.0743 0.3585 -0.1745 0.5117 -0.1003 0.1532 -0.2375 0.2787 -0.399 0.3649 -0.1615 0.0862 -0.3422 0.1303 -0.5252 0.1283 -0.1831 -0.002 -0.3627 -0.0501 -0.5223 -0.1399 -0.3735 -0.1746 -0.7344 -0.3751 -1.08 -0.6 -0.417 -0.2683 -0.9203 -0.3684 -1.4083 -0.2801 -0.488 0.0884 -0.9242 0.3586 -1.2207 0.7561 -1.524 2.03 -0.4 3.648 -2.268 3.614 -0.92 -0.017 -2.2 -1.539 -2.912 -0.587 -1.315 1.754 -0.776 1.324 -2.052 3.674 -0.0807 0.1273 -0.1876 0.236 -0.3135 0.3188 -0.1259 0.0829 -0.268 0.138 -0.4169 0.1618 -0.1488 0.0237 -0.301 0.0155 -0.4465 -0.0241 -0.1454 -0.0395 -0.2808 -0.1096 -0.3971 -0.2055 -0.4729 -0.4637 -1.0505 -0.8067 -1.684 -1 -0.594 -0.225 -0.624 -0.235 -0.972 0.374 -0.5346 0.686 -0.9358 1.4662 -1.183 2.3 -0.2423 0.526 -0.5332 1.0282 -0.869 1.5 -1.1 1.819 -3.91 -1.837 -4.987 -0.333 -1.151 1.606 -0.275 0.98 -2.005 4.6 -0.393 0.822 -1.338 0.982 -2.057 0.07 -0.839 -1.063 -2.632 -2.15 -2.777 -0.794 -0.2 1.9 -0.33 1.252 -0.015 3.007 0.158 0.879 -0.767 1 -1.15 0.433 -0.535 -0.792 -0.2 -1.992 -0.384 -2 0.153 -1.892 -0.04 -3.257 1.729 -3.586 0.5788 -0.0551 1.1626 0.0213 1.7077 0.2236 0.5452 0.2022 1.0375 0.5251 1.4403 0.9444 1.478 1.259 0.518 -7.846 7.134 -3.879 0.422 0.253 0.249 -0.347 1.233 -2.085 1.767 -3.121 1.909 -3.141 5.188 -1.719 0.714 0.31 0.814 -3.547 4.029 -4.07 0.2 -0.031 0.385 0.105 1.634 0.574 0.308 0.116 0.3 0.108 0.4 -0.2 0.954 -2.982 1.779 -3.424 3.852 -3.777 1.8 -0.307 2.375 1.2 2.488 0.5 0.113 -0.7 0.071 -1.1 0.951 -1.201Z" stroke-width="1"></path>
  <path fill="#1c1c1e" d="M69.225 45.429c0.1781 0.0871 0.3196 0.2343 0.3996 0.4156 0.08 0.1814 0.0932 0.3852 0.0375 0.5754 -0.0558 0.1902 -0.1771 0.3546 -0.3423 0.464 -0.1653 0.1094 -0.3639 0.1569 -0.5608 0.134 -1.569 -0.294 -1.5 -0.5 -2.228 -0.251 -1.342 0.469 -2.2 2.095 -2.581 3.461 -0.338 1.2 -1.035 1.318 -2.08 1.391 -0.366 0.025 -1.055 -0.532 -1.488 -0.85 -1.232 -0.641 -1.752 1.1 -2.564 2.879 -0.609 1.331 -0.541 1.693 -1.611 1.755 -1.632 0.093 -2.234 -2.694 -3.155 -1.441 -0.9939 1.3084 -1.742 2.7864 -2.208 4.362 -0.0452 0.1761 -0.131 0.3392 -0.2504 0.4762 -0.1195 0.137 -0.2695 0.2442 -0.4378 0.3129 -0.1683 0.0687 -0.3504 0.0971 -0.5316 0.0828 -0.1813 -0.0142 -0.3567 -0.0707 -0.5122 -0.1649 -2.848 -1.726 -2.459 -2.724 -3.681 -0.391 -0.6648 1.406 -1.1893 2.8741 -1.566 4.383 -0.0454 0.147 -0.1321 0.2777 -0.2499 0.3767 -0.1177 0.0989 -0.2615 0.1618 -0.4141 0.1811 -0.1526 0.0193 -0.3075 -0.0058 -0.4462 -0.0723 -0.1387 -0.0664 -0.2553 -0.1715 -0.3358 -0.3025 -1.48 -1.755 -1.939 -4.457 -2.574 -3.32 -0.4403 1.0207 -0.6744 2.1184 -0.689 3.23 -0.174 1.839 0.439 2.774 -0.4 2.989 -0.867 -0.116 -1.074 -1.417 -1.095 -2.237 0.423 -3.3 0.4 -4.554 1.36 -5.363 0.1706 -0.1618 0.3725 -0.287 0.5933 -0.3679 0.2208 -0.0808 0.4558 -0.1156 0.6906 -0.1022 0.2348 0.0134 0.4643 0.0747 0.6745 0.1801 0.2101 0.1055 0.3965 0.2528 0.5476 0.433 0.4749 0.6702 0.894 1.3782 1.253 2.117 0.647 -0.478 1.4 -6.6 4.877 -4.819 2.225 1.141 1.4 2.092 2.448 -0.295 1.007 -2.305 1.891 -3.918 4.125 -3.659 0.594 0.069 0.858 0.571 1.5 1.233 0.358 0.368 0.287 0.186 1.378 -2.118 0.287 -0.606 0.949 -1.792 1.609 -1.957 0.4258 -0.1815 0.8884 -0.26 1.3503 -0.2291 0.4619 0.0309 0.9099 0.1704 1.3077 0.4071 0.436 0.356 0.9 0.751 1 0.251 0.3354 -1.4496 1.1184 -2.757 2.238 -3.737 1.999 -1.529 3.25 -0.932 4.612 -0.413Z" stroke-width="1"></path>
  <path fill="#1c1c1e" d="M151.5 88.12c-0.466 1.121 -1.454 -0.232 -1.228 -0.6 0.056 -0.1 2.871 -6.361 3.08 -6.844 2.9 -6.687 2.7 -3.405 0.657 -7.891 -1.419 -3.12 -4.42 -5.8 -4.7 -8.064 -0.271 -0.8281 -0.691 -1.6 -1.238 -2.278 -5.258 -8.378 -2.271 -4.672 -6.292 -10.492 -2.383 -3.449 -1.483 -3.275 -2.714 -5.137 -5.134 -7.765 -3.857 -6.211 -12.67 -25.365 -0.972 -2.8061 -2.252 -5.4955 -3.817 -8.019 -0.841 -1.424 -1.415 -4.47904 -2.643 -6.22004 -0.907 -1.286 -0.9 -0.25 -4.709 1.118 -0.7 0.25 -3.057 1.636 -4.593 2.36004 -5.657 2.668 -5.964 1.968 -11.778 4.458 -2.143 0.918 -4.01 1.123 -5.7 1.727 -24.147 8.633 -19.224 7.786 -22.731 8 -1.712 0.105 -2 0.564 -5.6 2.1 -9.221 3.051 -5.371 2.624 -16.642 7 -4.985 1.937 -5.535 2.758 -9.851 4.907 -8.615 4.29 -5.308 3.079 -10.47 6.1 -2.057 1.2 -2.8 1.343 -4.395 2.213 -0.687 0.375 -1.3 0.892 -1.96 1.31 -1.372 0.863 2.358 5.939 2.686 6.44 1.454 2.218 1.323 3.434 3.877 7.388 1.924 2.98 -1.579 -1.66 8.52 15.812 0.262 0.453 13.567 26.815 16.241 31.467 1.129 1.964 0.739 1.455 1.779 3.474 0.6237 0.972 1.1493 2.003 1.569 3.079 0.646 1.754 1.7 3.008 2.6 4.955 7.558 16.372 4.373 9.883 7.573 16.809 0.474 1.025 5.371 10.142 5.779 11.48 0.8379 2.01 1.8719 3.932 3.087 5.739 4.485 6.5 11.727 26.427 12.209 27.084 0.985 1.341 1.021 1.549 1.694 1.253 1.2316 -0.6 2.4145 -1.296 3.538 -2.08 0.722 -0.484 1.5 -0.532 2.231 -0.932 2.359 -1.3 3.379 -2.177 5.262 -2.627 1.149 -0.279 2.235 -0.772 3.2 -1.455 0.985 -0.484 7.6 -3.815 9.094 -4.3 2.055 -0.661 4.568 -2.81 6.383 -3.338 1.224 -0.512 2.48 -0.946 3.759 -1.3 1.81 -0.273 4.752 -2.763 8.833 -3.994 1.669 -0.5 3.594 -1.879 4.927 -2.2 6.734 -1.65 10.525 -4.47 13.893 -5.3 2.16 -0.531 1.478 -0.851 5.363 -2.591 5.214 -2.561 10.279 -5.413 15.173 -8.543 17.558 -11.81 16.389 -8.329 14.211 -12.662 -2.328 -4.632 -4.434 -9.619 -7.069 -14.535 -2.78 -5.185 -1.983 -3.726 -2.669 -6.112 -0.326 -1.135 -2.557 1.035 -12.467 -4.671 -0.753 -0.433 -1.606 -0.777 -1.253 -1.5 0.626 -1.287 3.4 2.581 11.866 4.463 1.385 0.164 1.361 0.561 -1.832 -5.333 -0.765 -1.411 -0.3 -1.095 -0.9 -2.3 -0.265 -0.532 -0.96 -1.909 -1.285 -2.406 -0.593 -0.9 -4.045 0.568 -14.753 -5.969 -5.011 -2.8018 -9.041 -7.0761 -11.542 -12.244 -0.718 -1.107 -1.149 -2.3756 -1.253 -3.691 -0.188 -0.99 -0.195 -0.685 0.21 -3.509 0.189 -1.1332 0.711 -2.1843 1.5 -3.019 0.527 -0.6993 1.218 -1.259 2.011 -1.6303 0.793 -0.3713 1.665 -0.5428 2.54 -0.4997 0.962 -0.052 1.183 1.255 0.4 1.35 -1.448 0.177 -1.752 0 -2.373 0.369 -1.778 1.043 -3.007 2.476 -3.067 5.543 -0.2 1.917 1.678 5.837 2.408 6.894 1.753 2.7062 3.933 5.1103 6.455 7.119 1.6 1.278 8.608 5.535 11.224 6.363 6.571 2.078 5.471 1.531 4.862 0.353 -2.859 -5.528 -2.973 -4.786 -3.7 -6.613 -0.11 -0.278 -0.161 -0.176 -0.2 -0.083 -0.432 0.8969 -0.927 1.7621 -1.481 2.589 -1.058 1.781 -0.96 1.985 -1.414 1.877 -0.777 -0.187 -0.79 -0.381 -0.7 -0.82 0.077 -0.383 0 -0.27 1.132 -2.135 1.506 -2.482 5.173 -10.162 5.974 -10.627 0.061 -0.035 0.086 -0.141 0.123 -0.213 4.715 -9.169 5.451 -9.274 4.762 -9.478 -1.453 -0.5448 -2.841 -1.2491 -4.138 -2.1 -2.109 -1.1595 -4.022 -2.6444 -5.668 -4.4 -0.347 -0.313 -10.063 20.224 -11.19 22.927Zm41.25 -55.77c2.032 3.883 -0.177 6.393 -0.629 7.5 -1.974 4.817 -3.153 4.964 -2.7 5.711 3.889 6.462 3.732 8.054 -1.541 17.316 -5.966 10.478 -11.735 19.218 -12.244 19.772 -0.138 0.1858 -0.342 0.3123 -0.57 0.3541 -0.228 0.0417 -0.463 -0.0044 -0.658 -0.1291 -2.953 -1.307 -1.5 -1.558 7.643 -18.421 4.742 -8.745 5.642 -8.85 4.283 -13.129 -0.235 -0.739 -0.085 -0.325 -4.669 7.653 -5.72 9.957 -2.3 4.531 -3.9 8.892 -0.185 0.6516 -0.523 1.2498 -0.984 1.7455 -0.462 0.4957 -1.035 0.8745 -1.672 1.1055 -0.233 0.061 -2.814 5.362 -5.305 9.277 -0.048 0.088 -2.963 5.872 -4.353 7.909 -1.027 1.506 2.39 5.129 3.611 8.147 0.268 0.664 0.869 1.526 1.022 1.9 0.067 0.2291 0.213 0.4274 0.411 0.5606 0.198 0.1332 0.436 0.1927 0.674 0.1684 1.013 0.0334 2.027 -0.01 3.033 -0.13 2.2 -0.387 5.513 -1.562 7.041 -3.185 0.643 -0.8159 1.106 -1.7591 1.357 -2.767 0.018 -0.139 0.088 -0.2661 0.196 -0.3559 0.107 -0.0899 0.245 -0.1359 0.385 -0.129 0.14 0.007 0.272 0.0663 0.37 0.1664 0.099 0.1 0.156 0.2333 0.16 0.3735 0.132 0.875 -0.506 1.912 -1.035 2.965 -0.575 1.142 -3.34 2.685 -4.942 3.182 -4.855 1.508 -3.571 0.945 -6.463 1.183 0.551 1.451 1.1 2.04 1.178 2.634 0.134 1.032 2.378 4.473 3.583 7.074 0.056 0.157 0.165 0.29 0.309 0.375 0.144 0.085 0.313 0.117 0.478 0.091 3.013 0.002 5.976 -0.762 8.613 -2.22 2.426 -1.406 2.748 -1.852 4.859 -4.137 0.2 -0.219 0.386 -0.04 0.572 -0.015 0.458 0.059 0.251 0.828 0.1 1 -0.952 1.32 -2.129 2.462 -3.478 3.373 -2.221 1.46 -4.706 2.471 -7.315 2.977 -3.435 0.482 -3.618 -0.27 -3.288 0.877 0.31 1.075 10.259 20.706 10.966 22.423 0.734 1.78 -6.767 5.716 -8.292 6.641L147.7 160.672c-1.533 0.944 -10.918 6.1 -12.1 7.114 -2.326 1.278 -5.221 2.5 -6.706 3.629 -0.904 0.532 -1.836 1.015 -2.792 1.448 -1.229 0.872 -1.109 0.523 -3.034 1.694 -2.092 1.272 -1.87 0.434 -2.86 1.286 -1.478 1.271 -0.61 0.234 -4.621 2.9 -3.857 1.993 -7.56 4.269 -11.081 6.809 -4.512 3.069 -3.834 3.386 -5.473 3.866 -0.6715 0.212 -1.3108 0.515 -1.9 0.9 -1.7687 1.446 -3.634 2.769 -5.583 3.96 -0.1941 0.215 -0.4295 0.389 -0.6922 0.512 -0.2626 0.123 -0.5473 0.192 -0.837 0.202 -0.2897 0.011 -0.5786 -0.036 -0.8496 -0.139 -0.2711 -0.103 -0.5187 -0.26 -0.7282 -0.46 -1.6303 -1.82 -3.071 -3.802 -4.3 -5.914 -1.707 -2.884 -3.392 -3.753 -4.027 -5.588 -0.2885 -0.822 -0.6517 -1.615 -1.085 -2.371 -2.592 -4.571 -2.236 -4.575 -3.007 -5.585 -0.887 -1.163 -1.6 -1.02 -2.4 -2.629 -1.2638 -1.848 -2.3998 -3.781 -3.4 -5.784 -0.535 -1.323 -0.961 -1.091 -2.46 -3.864 -1.925 -3.56 -2.685 -2 -4.714 -6.934 -0.018 -0.027 -5.22 -7.43 -6.014 -9.066 -3.736 -7.7 -1.675 -4.555 -4.213 -8.5 -0.607 -0.942 -1.02 -0.866 -1.4 -1.957 -1.009 -2.872 -2.364 -3.392 -2.8 -4.663 -0.5544 -0.943 -1.2498 -1.796 -2.062 -2.529 -0.258 -0.215 -2.939 -5.213 -4.807 -7.056 -1.755 -1.733 -1.825 -3.362 -3.713 -5.513 -0.639 -0.728 -0.427 -1.052 -1.479 -2.283 -1.5022 -2.18 -2.8914 -4.435 -4.162 -6.757 -0.727 -1.3 -0.961 -2.329 -1.726 -3.509 -2.039 -3.14 -1.3 -2.969 -3.173 -5.262 -2.094 -2.565 -9.09 -12.018 -9.75 -14.509 -0.173 -0.652 -1.722 -2.146 -2.975 -3.882 -1.253 -1.736 -0.719 -1.466 -1.265 -2.273 -1.1346 -1.7867 -2.1283 -3.659 -2.972 -5.6 -0.131 -0.252 -2.547 -3.778 -2.572 -3.8 -0.55786 -0.5905 -1.02404 -1.2613 -1.383 -1.99 -0.16823 -0.3239 -0.21971 -0.6958 -0.14575 -1.0532 0.07395 -0.3574 0.26881 -0.6783 0.55175 -0.9088 2.223 -1.548 4.074 -3.254 5.686 -4.154 0.662 -0.37 2.364 -1.784 3.446 -2.526 1.2 -0.824 1.333 -0.392 2.679 -1.559 2.167 -1.88 3.153 -2.018 2.9 -2.4 -1.1847 -1.5095 -1.8776 -3.3462 -1.985 -5.262 0.0127 -0.3232 0.1151 -0.6365 0.2958 -0.9048 0.1807 -0.2683 0.4325 -0.481 0.7272 -0.6142 1.344 -0.794 1.777 -1.135 2.112 -1.3 10.74 -5.46 7.194 -4.959 15.362 -8.558 2.7 -1.189 2.7 -2.17 12.254 -5.862 3.9 -1.508 9.8 -4.825 12.665 -5.513 2.966 -0.713 4.873 -2.753 7.768 -2.571 1.5 0.095 7.406 -3.085 15.7 -5.738 0.9529 -0.1999 1.8785 -0.5131 2.757 -0.933 0.233 -0.12 2.29 -0.752 3.358 -1.275 0.353 -0.173 2.876 -0.778 4.43 -1.233 0.386 -0.113 3.635 -1.454 8.232 -2.924 2.072 -0.7509 4.095 -1.6289 6.059 -2.62904 1.183 -0.72751 2.417 -1.36915 3.692 -1.92 2.755 -0.8 4.2 -2.772 5.533 -1.045 0.943 1.22 0.407 0.839 0.887 1.469 0.543 0.88472 0.952 1.84473 1.215 2.84904 1.9 5.013 3.255 5.865 4.551 9.788 0.033 0.1 3.875 8.8 3.934 8.906 1.478 2.4234 2.635 5.0281 3.444 7.749 3.3 6.562 5.969 9.367 6.9 12.249 0.358 1.115 1.684 2.587 3.373 5.192 1.255 1.936 -1.031 -1.082 5.18 8.984 1.392 2.256 -0.5 0.979 3.187 5.881 3.76 5 2.371 7.058 4.067 3.451 5.019 -10.672 3.757 -7.465 3.561 -9.8 -0.182 -2.165 1.824 -4.466 3.007 -4.636 0.374 -0.053 5.676 -12.653 9.413 -20.5 2.1 -4.408 4.187 -11.6 11.006 -10.255 1.584 0.1723 3.11 0.6945 4.468 1.529 2.29 1.577 2.811 1.73 3.896 3.802Zm-0.982 4.238c2.328 -5.262 -10.524 -12.822 -14.354 -4.24 -0.722 1.616 -0.81 1.1 -1.672 3.167 -0.1 0.251 -10.714 22.553 -10.417 23.183 0.446 0.969 1.187 1.7718 2.118 2.293 2.158 1.392 6.541 4.152 9.219 3.726 0.326 -0.052 0.147 0.148 3.007 -4.8 4.231 -7.325 5 -8.791 5.037 -10.044 -0.08 -0.8241 -0.102 -1.6529 -0.065 -2.48 0.371 -1.35 1.626 -4.635 3.27 -3.749 0.484 0.318 0.416 0.355 0.945 -0.679 1.116 -2.184 1.2 -2.17 0.882 -2.206 -3.919 -0.433 -8.875 -3.012 -10.112 -6.56 -0.831 -2.386 1.117 -2.248 1.111 -1.326 -0.02 3.049 9.32 7.621 11.041 3.719l-0.01 -0.004Zm-0.752 16.658c0.208 -2.6 -1.678 -5.685 -3.19 -7.846 -1.009 -1.441 -2.029 1.623 -1.994 2.115 0.189 1.475 3.8 4.853 1.321 9.991 -1.086 2.255 -10.6 19.08 -10.618 19.105 -1.14 2.186 -2.78 4.292 -2.034 4.975 0.579 0.53 0.715 -0.11 1.393 -1.171 2.576 -4.033 15.119 -23.015 15.122 -27.169Zm-14.359 13.817c0.208 -0.817 0.163 -0.935 -0.672 -0.99 -3.353 -0.224 -7.155 -2.81 -8.02 -3.3 -4.063 -2.282 -3.132 -3.477 -3.912 -3.3 -0.7 0.164 -1.888 2.006 -1.468 2.932 1.524 3.363 11.356 8.955 13.186 6.425 0.403 -0.5284 0.704 -1.1278 0.886 -1.767Zm-28.731 91.469s-7.181 3.379 -10.61 4.039c-2.273 0.438 -2.544 1.48 -6.3 2.581 -1.468 0.431 -1.813 1.046 -2.932 1.313 -0.2 0.047 -0.891 0.5 -2.057 1.171 -2.82 1.614 -2.3 0.889 -4.784 1.822 -6.116 2.292 0.276 0.079 -12.547 5.991 -4.243 1.957 -6.749 3.852 -8.5 3.917 -1.32 0.328 -4.395 2.566 -6 3 -1.934 0.524 -5.267 4.346 -7.142 1.922 -2.3 -2.971 -1.466 -3.135 -2.879 -6.135 -1.914 -4.062 -6.983 -17.013 -9.137 -20.418 -5.619 -8.885 -3.538 -6.186 -5.012 -9.217 -3.026 -6.223 -3.685 -6.656 -6.066 -12.061 -2.209 -5.012 -10.134 -20.467 -12.119 -23.771 -0.11 -0.183 -0.286 -0.3 -0.381 -0.524 -0.754 -1.811 -5.531 -9.9 -6.22 -11.144C43.057 97.08 22.067 55.641 20.968 56.4c-0.273 0.19 -0.543 0.382 -0.8 0.6 -1.919 1.814 -3.025 1.608 -4.51 3.007 -2.055 1.935 -1.47 0.5 -7.546 5.764 -0.063 0.054 -0.135 0.2 -0.11 0.235 0.23833 0.436 0.51795 0.8483 0.835 1.231 0.78512 0.9573 1.5041 1.9669 2.152 3.022 0.917 0.975 1.269 2.231 2.636 4.861 0.6532 0.9567 1.2242 1.9669 1.707 3.02 0.044 0.1 8.266 12.615 10.973 16.519 0.842 1.213 1.341 1.424 3.038 3.776 1.767 2.451 5.277 10.5 8.272 14.53 1.864 2.506 0.976 1.7 1.967 2.927 0.7851 0.989 1.4576 2.062 2.005 3.2 0.655 1.327 1.069 1.289 2.949 3.894 1.907 2.643 2.116 3 2.471 3.944 0.319 0.849 0.684 0.873 1.273 1.572 0.6588 0.714 1.2463 1.491 1.754 2.32 0.363 1.282 1.186 0.808 2.827 4.651 0.338 0.792 2.75 3.54 3.325 5.563 0.134 0.472 2.645 5.694 3.007 6.265 0.018 0.028 4.431 6.493 4.458 6.516 0.93 1.085 0.882 1.4 2.085 3.656 0.719 1.346 0.444 0.256 2.451 2.869 0.5 0.65 0.438 0.3 0.885 1.326 0.9 2.08 2.045 2.628 2.591 4.142 0.9937 1.925 2.092 3.795 3.29 5.6 0.879 1.566 1.4 1.271 2.24 2.366 1.168 1.521 1.392 2.756 2.757 5.079 2.894 4.928 -0.225 1.5 4.636 7.343 0.609 0.731 -0.17 -0.071 3.228 4.779 2.345 3.347 1.548 2.919 3.726 1.45 9.281 -6.257 6.846 -4.1 7.944 -4.946 10.488 -8.1 13.783 -9.053 15.113 -9.949 4.011 -2.7 3.215 -1.784 4.583 -2.859 2.162 -1.7 -0.383 0.612 6.09 -3.145 1.58 -0.917 1.758 -0.609 3.721 -2.1 0.128 -0.1 5.094 -2.574 5.568 -2.855 1.789 -1.058 7.463 -4.761 9.272 -5.465 0.454 -0.141 4.095 -2.576 4.095 -2.576Z" stroke-width="1"></path>
</svg>