<svg viewBox="0 0 400 400" xmlns="http://www.w3.org/2000/svg" id="Evaluate-Performance-Employee-2--Streamline-Brooklyn" height="400" width="400">
  <desc>
    Evaluate Performance Employee 2 Streamline Illustration: https://streamlinehq.com
  </desc>
  <path d="M390 206.264a25.614 25.614 0 0 0 -6.49 -17.668c-7.348 -7.6 -19.246 -7.918 -29.776 -6.872 -4.578 0.456 -19.294 1.428 -24.648 7.362 -6.75 7.482 19.152 26.6 -5.618 62.716 -1.642 2.4 -0.272 4.908 1.036 8.344 3.544 -0.438 28.516 -3.076 37.466 -3.6 1.09 -0.064 1.09 1.636 0 1.744 -8.78 0.876 -45.974 5.618 -49.2 5.946 11.724 8.016 5.814 38.38 -0.6 49.734a0.866 0.866 0 0 1 -1.582 -0.654c3.214 -10.506 11.03 -39.226 -0.71 -48.644 -1.36 -1.094 -4.144 -0.056 -5.834 0.982 -2.454 3.272 -2.744 25.628 -2.946 27.648 -0.6 6 -27.212 6.272 -36.6 7.526 2.126 11.78 22.578 22.31 43.954 22.25 17.834 -0.05 37.126 -1.276 50.554 -13.034 2.822 -2.47 7.128 -6.27 6.762 -17.124 -1.046 -31.666 24.432 -63.32 24.232 -86.656Zm-11.452 -17.4c-16.162 27.95 -14.7 56.112 -15.542 60.97a1.024 1.024 0 0 1 -1.964 0c-0.91 -5.348 2.29 -50.718 16.252 -61.952a0.8 0.8 0 0 1 1.254 0.986Z" fill="#0a1628" stroke-width="2"></path>
  <path d="M104.512 294.338c-1.8 -1.8 -1.964 -16.632 -2.89 -20.342s-2.018 -11.562 -10.472 -9.38c-29.558 7.632 -74.44 -18.65 -5.126 -68.768 -3.326 1.636 -34.414 -5.6 -42.156 -6.926 -8.456 -1.45 -17.882 -2.722 -24.976 2.078a21.51 21.51 0 0 0 -8.78 15.924c-1.382 15.976 10.2 47.116 17.232 60.152 13.2 24.482 11.972 37.2 13.034 41.6a15.526 15.526 0 0 0 8.126 10.526c17.496 8.746 44.172 10.938 50.226 11.18 6.216 0.248 27.214 -4.254 37.684 -17.124 -2.944 -8.504 -30.54 -17.556 -31.902 -18.92ZM41.414 256.6c-1.822 -5.098 -9.978 -40.43 -21.868 -59.334 -0.548 -0.87 0.766 -1.692 1.418 -0.818 12.902 17.266 21.746 54.264 22.578 59.552a1.108 1.108 0 0 1 -2.128 0.6Zm54.8 12.27c-4 0.922 -7.624 2.132 -9.434 6.326 -4.878 11.302 -0.288 34.742 0.272 39.156 0.16 1.256 -1.634 1.254 -2.018 0.274 -1.85 -4.746 -6.38 -29.668 0.056 -41.066 -13.526 -1.58 -27.11 -3.242 -40.52 -5.726 -0.874 -0.162 -0.656 -1.68 0.218 -1.582 13.89 1.576 41.664 5.018 41.72 5.018a14.466 14.466 0 0 1 9.542 -3.762c0.826 -0.108 0.934 1.188 0.172 1.362Z" fill="#0a1628" stroke-width="2"></path>
  <path d="M293.8 175.126a5.35 5.35 0 0 0 1.2 2.672 0.74 0.74 0 0 0 1.092 -0.818 17.11 17.11 0 0 0 -0.872 -2.182c-0.394 -0.812 -1.324 -0.384 -1.42 0.328Z" fill="#191919" stroke-width="2"></path>
  <path d="M292.984 172.562a5.2 5.2 0 0 1 3.708 -0.164 0.684 0.684 0 0 0 0.654 -1.144 4.248 4.248 0 0 0 -5.126 0 0.76 0.76 0 0 0 0.764 1.308Z" fill="#191919" stroke-width="2"></path>
  <path d="M290.42 177.744a13.696 13.696 0 0 0 1.636 6.434 1.93 1.93 0 0 0 1.526 1.036c0.764 0 1.31 -0.762 2.018 -0.762a0.636 0.636 0 0 0 0.328 -1.146c-1.146 -0.872 -2.126 0.872 -2.782 0.054a12.946 12.946 0 0 1 -1.69 -5.616c-0.096 -0.658 -1.072 -0.71 -1.036 0Z" fill="#191919" stroke-width="2"></path>
  <path d="M296.092 188.16c1.144 0.436 5.016 -0.71 4.254 -3.872 -0.164 -0.546 -1.256 -0.382 -1.2 0.164a2.332 2.332 0 0 1 -2.728 2.616 0.57 0.57 0 1 0 -0.326 1.092Z" fill="#191919" stroke-width="2"></path>
  <path d="M282.458 216.082c-5.836 11.8 -6.654 26.912 -0.6 38.882 0.496 0.98 2.25 0.322 1.854 -0.764a55.182 55.182 0 0 1 -4.036 -18.814 46.31 46.31 0 0 1 3.764 -18.868c0.264 -0.604 -0.712 -0.984 -0.982 -0.436Z" fill="#191919" stroke-width="2"></path>
  <path d="M301.326 267.234c0 -0.218 -0.49 -1.418 -0.818 -1.418 -3.816 0.328 -15.432 0.928 -18.868 1.31 -0.436 -1.582 -6.562 -27.262 -8.562 -33.54 -0.33 -1.034 -2.2 -0.924 -2.072 0.274 0.682 6.6 8.288 34.684 9.6 36.974 -14.888 -0.328 -29.886 -0.272 -44.774 -0.054 0 -0.11 -8.888 -25.086 -14.014 -37.138 0 0 40.084 0.2 48.2 0.872 1.308 0.108 1.308 -2 0 -2.018 -8.018 -0.11 -40.028 -0.546 -47.936 -0.11a0.758 0.758 0 0 0 -0.654 0.546c-0.436 -0.326 -1.258 0.11 -1.036 0.71 13.046 35.144 13.4 38.702 14.778 38.718 37.362 0.464 45.712 1.102 60.862 -0.654 3.66 -0.424 6.44 0.054 5.294 -4.472Zm-1.962 1.964c-0.274 0.218 -14.234 1.308 -17.178 1.744 0 -0.6 -0.056 -1.254 -0.11 -1.854 3.654 -0.326 16.906 -1.308 17.342 -1.308 0.054 0.546 0.11 1.308 -0.054 1.42Z" fill="#191919" stroke-width="2"></path>
  <path d="M247.556 245.476a3.214 3.214 0 0 0 -3.764 2.78 3.708 3.708 0 0 0 3.11 3.546 3.426 3.426 0 0 0 3.98 -3c0 -2.836 -3.326 -3.326 -3.326 -3.326Z" fill="#191919" stroke-width="2"></path>
  <path d="M156.102 251.91c1.374 0.91 7.274 2.726 7.47 -0.926a0.902 0.902 0 0 0 -1.69 -0.436c-0.898 1.4 -3.876 0.244 -5.236 0a0.74 0.74 0 0 0 -0.544 1.362Z" fill="#191919" stroke-width="2"></path>
  <path d="M161.282 254.2a0.952 0.952 0 0 0 -1.472 0.164c-0.646 1.586 -3.766 0.446 -4.636 0.11 -0.822 -0.318 -1.312 0.986 -0.6 1.418a7.934 7.934 0 0 0 4.8 1.418c-0.056 0.054 -0.096 4.716 -5.182 2.29 -0.924 -0.442 -2.02 0.494 -1.2 1.2a5.288 5.288 0 0 0 3.982 1.254c0.326 3.218 -3.926 1.744 -4.69 1.69 -0.818 -0.056 -1.036 1.356 -0.218 1.472 1.8 0.258 7.308 1.964 6.926 -3.98 1.144 -0.818 2.672 -3.108 1.254 -4.144 1.254 -0.492 2.086 -1.814 1.036 -2.892Z" fill="#191919" stroke-width="2"></path>
  <path d="M170.116 232.168c-7.96 -1.316 -15.692 -3.668 -23.612 -5.18 -0.6 -0.114 -1.092 0.6 -0.818 1.036 -15.652 16.416 -24.348 41.26 -20.452 63.752 0.104 0.6 0.874 0.6 1.2 0.272 3.764 -0.11 19.736 -4.658 23.942 -5.618a1 1 0 0 0 0.762 -1.036 57.472 57.472 0 0 1 4.364 -16.906c0.32 -0.766 -0.932 -1.256 -1.31 -0.544a48.308 48.308 0 0 0 -5.126 16.578c-3.98 0.872 -19.36 4.036 -22.632 5.562 -1.09 -22.576 9.98 -50.116 21.214 -61.078a110.162 110.162 0 0 0 20.45 5.126c-1.526 1.2 -6.298 9.486 -6.6 12.216 -0.12 1.09 1.4 1.084 1.746 0.218 0.936 -2.364 7.252 -12.542 7.252 -12.652 0.602 -0.546 0.602 -1.582 -0.38 -1.746Z" fill="#191919" stroke-width="2"></path>
  <path d="M242.648 328.532c-5.494 7.222 -15.924 22.25 -15.98 22.358 -3.064 -1.378 -4.066 -0.874 -7.2 -3.326 0 -0.054 15.364 -46.064 19.524 -54.97 0.33 -0.708 -0.718 -1.368 -1.09 -0.656 -4.472 8.562 -19.462 50.128 -20.288 55.026a0.974 0.974 0 0 0 0.654 1.146c-0.108 1.526 6.054 4.144 7.526 4.472a49.132 49.132 0 0 0 0.436 6.98c-2.29 0.164 -27.866 3.654 -29.776 3.38a63.12 63.12 0 0 0 20.726 -13.142c0.6 -0.554 -0.272 -1.416 -0.872 -0.872a62.2 62.2 0 0 1 -23.342 13.252c-0.708 0.218 -1.028 1.4 -0.218 1.744 5.01 2.13 31.69 -1.516 34.466 -2.89a2.518 2.518 0 0 0 0.764 -1.036 30.612 30.612 0 0 0 -0.71 -7.308c0.274 -0.054 11.4 -15.978 16.524 -23.4 0.656 -0.758 -0.592 -1.47 -1.144 -0.758Z" fill="#191919" stroke-width="2"></path>
  <path d="M298 295.538c-4.738 1.76 -28.086 3.708 -33.6 4.362 -0.162 -0.818 -0.332 -1.634 -0.49 -2.454 -0.168 -0.87 -1.466 -0.492 -1.308 0.382 3.332 18.412 5.508 36.866 7.416 55.462 -1.418 2.726 -8.29 2.508 -9.816 2.564 0 -0.218 -11.25 -28.628 -14.888 -43.356 -1.644 -6.652 -3.526 -13.902 -1.8 -20.778 1.93 -7.684 8.97 -13 16.142 -15.488 0.652 -0.224 0.382 -1.308 -0.272 -1.09 -6.76 2.244 -13.684 6.164 -16.742 12.924 -2.888 6.384 -2.06 13.686 -0.654 20.342 3.464 16.4 16.142 47.936 16.142 48a78.464 78.464 0 0 1 -16.906 8.618 1.034 1.034 0 0 0 0.272 2.016 73.656 73.656 0 0 0 30.54 -2.454 0.966 0.966 0 0 0 0.764 -0.98 11.094 11.094 0 0 0 -0.764 -10.036c0 -0.108 -3.818 -35.064 -7.254 -52.188 6 -0.274 29.612 -1.582 33.976 -4.254 0.77 -0.556 0.116 -1.916 -0.758 -1.592Zm-52.4 69.75a56.73 56.73 0 0 0 13.688 -8.016c3.272 0.762 9 0.98 11.126 -2.018a10.43 10.43 0 0 1 0.926 7.144 75.978 75.978 0 0 1 -25.74 2.89Z" fill="#191919" stroke-width="2"></path>
  <path d="M318.506 327.932c-2.068 4.638 -9.926 29.94 -10.036 30.158 0 -1.364 0.544 -21.926 0.982 -30.812 0.048 -0.982 -1.4 -0.928 -1.472 0q-1.068 15.47 -1.908 31.03c-0.046 0.818 -0.8 7.122 2.072 5.726 0.768 -0.374 11.178 -29.378 12 -35.4 0.124 -0.918 -1.202 -1.684 -1.638 -0.702Z" fill="#191919" stroke-width="2"></path>
  <path d="M363.496 316.098c-0.48 -0.878 -1.856 -0.164 -1.526 0.654 3.094 7.696 6 27.65 6.434 32.612 -0.326 -0.6 -11.172 -22.418 -14.014 -28.304 -0.34 -0.702 -1.458 -0.222 -1.256 0.546 2.116 7.978 14.658 31.812 16.2 32.83a1.242 1.242 0 0 0 1.854 -1.036c-0.448 -6.384 -4.188 -30.906 -7.692 -37.302Z" fill="#191919" stroke-width="2"></path>
  <path d="M168.754 213.572c21.326 -0.1 55.226 -3.6 104.76 -3.98a1.092 1.092 0 0 0 0 -2.182c-19.456 0.588 -81.514 2.068 -104.76 4.854a0.654 0.654 0 0 0 0 1.308Z" fill="#191919" stroke-width="2"></path>
  <path d="M278.75 185.378c-30.656 2.866 -61.46 3.982 -92.218 3.872 -1.91 -25.576 -3.968 -51.104 -5.726 -76.676 -0.054 -0.764 -1.248 -0.764 -1.2 0 1.566 25.562 2.836 51.154 5.126 76.676 -2.346 0 -4.636 -0.028 -6.98 -0.054a0.682 0.682 0 0 0 0 1.362c2.346 0.056 4.744 0.164 7.088 0.274 0.164 2.018 0.364 3.982 0.546 6 0.1 1.092 1.79 1.092 1.69 0 -0.178 -1.962 -0.272 -3.98 -0.436 -5.944a769.68 769.68 0 0 0 92.11 -3.6c1.198 -0.114 1.2 -2.022 0 -1.91Z" fill="#191919" stroke-width="2"></path>
  <path d="M196.512 180.36a132.538 132.538 0 0 0 -2.128 -25.412 55.168 55.168 0 0 0 14.288 -2.072 115.178 115.178 0 0 0 2.836 28.03c-4.636 0.328 -10.252 0.6 -14.888 0.928 -0.272 0.054 -0.108 -1.474 -0.108 -1.474Z" fill="#0a1628" stroke-width="2"></path>
  <path d="M218.326 141.696c-0.218 -0.328 10.852 0.054 16.2 -0.872a330.026 330.026 0 0 1 2.344 39.536c-4.8 0.22 -10.96 0.11 -15.76 0 -2.348 -9.87 -2.784 -38.664 -2.784 -38.664Z" fill="#0a1628" stroke-width="2"></path>
  <path d="M244.774 179.38a435.86 435.86 0 0 0 -1.69 -46.246 109.182 109.182 0 0 0 14.016 0.11c0.818 11.56 1.636 42.646 1.636 45.318a138 138 0 0 1 -13.962 0.818Z" fill="#0a1628" stroke-width="2"></path>
  <path d="M279.458 178.67a44.62 44.62 0 0 1 -12 -0.326c-1.578 -0.446 -3.816 -59.28 -3.38 -63.86 4.636 -0.492 9.27 -0.328 13.906 -1.038 -1.088 0.22 1.474 65.224 1.474 65.224Z" fill="#0a1628" stroke-width="2"></path>
  <path d="M211.562 26.736a1.082 1.082 0 0 0 -1.144 -1.362c-39.6 2.546 -127.12 1.69 -130.938 2.4a14.444 14.444 0 0 0 -1.69 0.436 0.682 0.682 0 0 0 0.382 1.308c5.126 38.174 4 76.588 6.488 114.904 0.068 1.036 1.64 1.036 1.582 0 -2.126 -38.288 0.382 -77.112 -5.726 -115.122 3 -0.164 119.268 -0.818 129.52 -1.472 -0.654 9.434 1.418 48.754 1.472 58.842a1.064 1.064 0 0 0 2.128 0c0.282 -10.086 -1.364 -50.116 -2.074 -59.934Z" fill="#191919" stroke-width="2"></path>
  <path d="M237.522 45.552c0.054 0 3.87 6.98 4.09 7.308 0.812 1.2 8.452 0 8.562 0.162s-6.054 6.762 -6.108 7.036c-0.328 0.872 3.162 8.562 3.054 8.67 -0.218 0.164 -7.91 -4.484 -8.454 -4.416 -1.476 0.182 -8.562 5.616 -8.834 5.234a78.294 78.294 0 0 1 2.018 -10.088s-5.344 -4.254 -5.344 -4.364c0 -0.218 6.436 -0.76 9.216 -1.8 0.436 -0.162 1.526 -7.634 1.8 -7.742Z" fill="#0a1628" stroke-width="2"></path>
  <path d="M265.498 44.624c0.436 0 3.49 7.854 5.454 7.636a58.254 58.254 0 0 1 6.652 -0.6c0.11 1.036 -5.672 6.162 -5.672 6.38 0 0.164 2.454 5.672 3.654 8.29 -3.218 -1.092 -9.106 -3.71 -9.324 -3.654s-7.8 5.016 -8.89 4.908c0.11 -1.31 3.272 -7.308 3.872 -9.272a55.184 55.184 0 0 1 -6.326 -5.234 62.628 62.628 0 0 1 7.8 -0.71 55.072 55.072 0 0 1 2.78 -7.744Z" fill="#0a1628" stroke-width="2"></path>
  <path d="M289.984 56.894a47.438 47.438 0 0 0 -5.072 -5.016c0 -0.274 6.8 -0.092 7.744 -1.91 0.282 -0.54 1.746 -5.89 1.908 -5.944 1.418 -0.272 2.13 5.666 3.764 6.162a39.26 39.26 0 0 0 8.016 0.546c0.164 0.218 -3.562 2.6 -4.962 4.582s3.218 8.724 3.054 9.434c-2.018 -0.71 -7.8 -3.438 -8.562 -3.382 -2.782 0.2 -6.054 3.546 -7.69 3.982 0.382 -1.964 1.856 -8.236 1.8 -8.454Z" fill="#0a1628" stroke-width="2"></path>
  <path d="M315.942 64.8c2.072 -0.764 6.436 -4.362 7.036 -4.362 0.326 0 6.162 2.672 8.78 3.872 -0.056 -0.056 -1.748 -5.236 -2.182 -6.708 -0.548 -1.854 5.234 -7.844 4.854 -7.854 -1.092 -0.026 -7.362 -0.108 -7.472 -0.164 -0.164 -0.108 -2.836 -8.016 -3.654 -7.906 -0.108 0 -0.656 7.14 -3.49 8.4 -1.964 0.87 -7.41 1.088 -7.308 1.472 0.058 0.218 5.4 4.146 5.508 4.362 1.026 2.024 -1.854 6.708 -2.072 8.888Z" fill="#0a1628" stroke-width="2"></path>
  <path d="M121.526 56.4c12.87 0 70.08 -2.548 76.13 -3.6 0.928 -0.16 0.654 -1.578 -0.218 -1.582 -6.272 -0.026 -63.256 3.682 -75.912 3.872a0.656 0.656 0 0 0 0 1.31Z" fill="#0a1628" stroke-width="2"></path>
  <path d="M124.852 65.73c24.2 1.05 48.322 -1.818 72.422 -3.71 1.364 -0.106 1.31 -2.236 0 -2.072a714.13 714.13 0 0 1 -72.422 4.526 0.628 0.628 0 0 0 0 1.256Z" fill="#0a1628" stroke-width="2"></path>
  <path d="M124.252 84.816c12.612 -0.328 71.334 -2.558 73.95 -2.944 1.09 -0.162 0.654 -1.638 -0.218 -1.746 -2.726 -0.334 -61.298 2.454 -73.676 3.546 -0.764 0 -0.818 1.164 -0.056 1.144Z" fill="#0a1628" stroke-width="2"></path>
  <path d="M124.252 92.4c12.482 -0.58 62.186 -0.616 74.332 -2.836 1.146 -0.2 0.654 -1.904 -0.492 -1.744 -12.482 1.736 -61.8 1.79 -73.84 3.218 -0.818 0.092 -0.872 1.4 0 1.362Z" fill="#0a1628" stroke-width="2"></path>
  <path d="M124.362 118.8c23.116 -0.892 24.92 -0.626 29.612 -1.418 0.928 -0.158 0.654 -1.52 -0.218 -1.582a118.34 118.34 0 0 0 -14.724 0.436c-4.908 0.274 -9.82 0.56 -14.67 1.09 -0.928 0.094 -0.982 1.504 0 1.474Z" fill="#0a1628" stroke-width="2"></path>
  <path d="M125.616 127.244c21.486 -1.012 24.486 0.318 30.486 -0.764a0.852 0.852 0 0 0 0 -1.636c-4.744 -0.936 -10.034 -0.32 -14.834 -0.162 -5.236 0.17 -10.462 0.6 -15.652 0.98 -1.034 0.076 -1.036 1.632 0 1.582Z" fill="#0a1628" stroke-width="2"></path>
  <path d="M112.256 54.332a0.86 0.86 0 0 0 -1.636 0c-0.448 2.288 -0.382 11.4 -0.546 13.634a87.086 87.086 0 0 0 -12 0.818c-0.382 -4.2 -0.654 -8.29 -1.308 -12.49a25.924 25.924 0 0 0 7.852 -1.036 0.724 0.724 0 0 0 -0.218 -1.418c-2.786 -0.222 -5.454 1.146 -8.234 0.818 -0.274 -0.054 -0.71 0.656 -0.71 0.764 0.328 4.8 0.818 9.704 0.71 14.506a0.988 0.988 0 0 0 1.254 0.928c4.514 -0.736 9.112 -0.504 13.634 -0.818a1.164 1.164 0 0 0 1.09 -1.092c0.426 -4.526 1.296 -10.112 0.112 -14.614Z" fill="#191919" stroke-width="2"></path>
  <path d="M114.054 48.114a22.082 22.082 0 0 0 -10.742 13.306c-1.146 -1.308 -2.278 -2.682 -3.382 -4.034 -0.538 -0.66 -1.63 0.214 -1.144 0.872 1.434 1.95 2.784 3.978 4.09 6a1.116 1.116 0 0 0 2.018 -0.272 27.46 27.46 0 0 1 10.034 -14.786c0.646 -0.496 -0.172 -1.432 -0.874 -1.086Z" fill="#0a1628" stroke-width="2"></path>
  <path d="M113.292 88.8a0.764 0.764 0 0 0 -1.528 0 43.636 43.636 0 0 0 -0.382 9.38c-0.162 0 -10.688 1.09 -13.142 1.036a128.904 128.904 0 0 0 0.11 -12.98 60.022 60.022 0 0 0 10.524 -1.744c0.546 -0.162 0.492 -1.084 -0.164 -1.038 -3.814 0.268 -7.58 0.764 -11.4 0.928a1.05 1.05 0 0 0 -0.98 0.982 140.634 140.634 0 0 1 -0.274 14.888 1.028 1.028 0 0 0 1.036 1.036c3.704 0.294 15.506 -0.346 16.306 -1.854 0.472 -0.886 0.068 -8.288 -0.106 -10.634Z" fill="#191919" stroke-width="2"></path>
  <path d="M112.964 82.69c-2.846 2.4 -6.434 5.726 -7.8 9.434 -1.636 -1.418 -3.236 -2.758 -4.908 -4.09a0.618 0.618 0 0 0 -0.872 0.872c1.782 2.142 3.712 4.086 5.562 6.108a1.156 1.156 0 0 0 1.908 -0.49c0.828 -4.2 4.864 -7.2 7.362 -10.526 0.73 -0.968 -0.366 -2.056 -1.252 -1.308Z" fill="#0a1628" stroke-width="2"></path>
  <path d="M115.746 119.064c-0.048 -0.71 -1.142 -0.98 -1.31 -0.164a69.878 69.878 0 0 0 -1.144 11.016c-4.2 0.054 -8.344 0.11 -12.544 0.382 -0.218 -3.762 -0.054 -11.288 -0.054 -11.288 0.6 -0.056 6.374 -0.824 8.672 -1.036 0.816 -0.076 0.818 -1.29 0 -1.254a70.946 70.946 0 0 0 -9.872 0.38 1.028 1.028 0 0 0 -0.708 0.71 87.948 87.948 0 0 0 -0.056 13.634 1.062 1.062 0 0 0 1.036 1.036c4.856 -0.054 9.654 -0.3 14.508 -0.328a1.13 1.13 0 0 0 1.09 -1.09 82.924 82.924 0 0 0 0.382 -11.998Z" fill="#191919" stroke-width="2"></path>
  <path d="M114.382 113.666a24.526 24.526 0 0 0 -6.816 11.452 11.968 11.968 0 0 1 -3.818 -2.618c-0.6 -0.6 -1.8 0.214 -1.254 0.926a13.168 13.168 0 0 0 5.234 4.254 1.17 1.17 0 0 0 1.692 -0.708 48.6 48.6 0 0 1 6.216 -12.27c0.6 -0.818 -0.556 -1.65 -1.254 -1.036Z" fill="#0a1628" stroke-width="2"></path>
  <path d="M292.656 91.414c-0.104 -0.49 -1.254 -0.6 -1.364 -0.6 -3.49 0 -123.574 4.308 -129.028 4.308 -0.436 0 -1.09 1.144 -1.036 1.526 1.666 11.884 5.138 106.342 5.562 114.142 0.056 1.036 1.62 1.036 1.582 0 -1.224 -33.034 -4.036 -109.18 -4.964 -114.088 12.872 0.764 124.176 -3.108 127.884 -3.816 0.654 8.724 1.732 48.412 3.11 52.626 0.336 1.032 2.072 0.926 1.962 -0.274 -0.436 -4.796 -1.87 -45.116 -3.708 -53.824Z" fill="#191919" stroke-width="2"></path>
  <path d="M164.336 171.472c-8.064 -0.83 -41.124 0.338 -49.244 1.308a0.682 0.682 0 0 0 0 1.364c8.18 0 41.13 -0.34 49.244 -1.09a0.8 0.8 0 0 0 0 -1.582Z" fill="#191919" stroke-width="2"></path>
  <path d="M343.536 214.226c-4.084 -9.164 -12.898 -13.096 -16.306 -25.2 -2.874 -10.2 -2.308 -21.418 -8.67 -30.376 -5.416 -7.624 -15.156 -12.634 -24.54 -9.6 -12.08 3.908 -14.676 18.516 -8.672 21.868 0 0 0.218 0.436 0.328 0.492 -0.154 28.8 22.082 24.474 20.286 14.288 -0.164 -0.928 -1.714 -0.71 -1.69 0.218a5.314 5.314 0 0 1 -4.908 5.616 8.26 8.26 0 0 1 -7.744 -3.654 21.414 21.414 0 0 1 -4.144 -12.216 1.462 1.462 0 0 0 0.654 -0.162 0.666 0.666 0 0 0 0 -1.146 2.26 2.26 0 0 0 -0.818 -0.164c-0.11 -1.308 -0.274 -2.672 -0.436 -4.036a0.56 0.56 0 0 0 -0.274 -0.436 4.638 4.638 0 0 1 5.944 -3.216c4.732 1.144 5.26 6.966 13.144 6.326a1.05 1.05 0 0 0 0.982 -0.928 2.566 2.566 0 0 1 2.726 -0.218 3.384 3.384 0 0 1 1.472 2.672c0.216 2.84 -4.412 5.942 -4.254 6.218 2.294 3.948 3.546 16.524 3.546 18 -0.382 3.218 -4.52 6.45 -5.726 6.98 -1.79 0.786 -6.49 0.654 -6 -2.564a14.474 14.474 0 0 0 0.382 -9.162c-0.158 -0.6 -1.468 -0.6 -1.254 0.164a12.57 12.57 0 0 1 0.164 5.564c-16.524 0.762 -27.282 21.738 -29.45 29.066 -0.336 1.142 1.468 1.962 1.964 0.818 2.916 -6.72 12.544 -25.74 27.158 -28.086 -2.4 6.218 4.8 7.086 7.744 5.89a13.292 13.292 0 0 0 6.108 -6.434c9.816 -4.09 16.292 7.368 18.106 11.506 10.224 23.322 -8.56 41.124 -16.524 45.264 -4.308 2.238 -17.946 5.874 -20.124 6.326 -4.706 0.974 -4.538 -4.696 -1.908 -5.836 12.16 -3.926 21.2 -19.662 17.45 -31.902a0.944 0.944 0 0 0 -1.854 0.272 30.4 30.4 0 0 1 -16.306 30.212 4.064 4.064 0 0 0 -2.78 2.346c-2.29 0.382 -5 1.684 -5.508 4.144a0.832 0.832 0 0 0 1.362 0.818c0.768 -0.704 1.038 -2.344 3.71 -3.272a6.532 6.532 0 0 0 0.218 2.236c0.966 3.534 3.932 3.676 6.926 2.946 24.53 -5.986 27.812 -11.454 28.14 -11.726a20.562 20.562 0 0 0 0.108 3.326 0.682 0.682 0 0 0 1.364 0 24.148 24.148 0 0 0 0.054 -4.8c5.78 -5.672 11.726 -16.142 11.452 -23.068 5.576 1.968 13.09 -4.85 8.398 -15.374Z" fill="#191919" stroke-width="2"></path>
  <path d="M99.548 252.456c-6.972 0.874 -20.784 2.508 -21.486 -7.636 -0.276 -3.98 5.136 -16.894 9.162 -20.614a0.904 0.904 0 0 0 -1.09 -1.418c-5.346 2.834 -11.15 19.2 -10.144 23.942 1.8 8.516 12.27 9.162 20.014 7.962a11.93 11.93 0 0 0 -2.944 9.27c-9.818 0 -19.524 -0.11 -29.122 -2.562 -10.252 -2.62 -14.694 -12.32 -12.816 -22.25 2.6 -13.79 15.87 -29.558 34.466 -40.902 -0.054 0.382 -0.054 0.818 -0.11 1.2 -0.054 0.818 1.36 1.036 1.474 0.218a98.372 98.372 0 0 0 1.362 -21.16 0.982 0.982 0 0 0 -1.962 0c-0.418 5.83 -0.274 11.672 -0.656 17.56a111.87 111.87 0 0 0 -20.34 15.052 57.048 57.048 0 0 0 -13.8 18.488c-6.684 15.068 -3.318 30.82 12.706 34.52a89.372 89.372 0 0 0 29.776 2.236c1.636 0 1.692 -1.636 0.982 -2.072a11.388 11.388 0 0 1 5.236 -10.362 0.888 0.888 0 0 0 -0.708 -1.472Z" fill="#191919" stroke-width="2"></path>
  <path d="M111.274 267.126c9.2 0.546 9.152 -11.944 9.27 -18.106 0.102 -5.29 -0.548 -26 -1.58 -30.866 -0.174 -0.816 -1.526 -0.6 -1.474 0.218 0.748 11.776 0.862 33.7 0.492 37.8 -0.4 4.362 -2.128 8.78 -6.926 9.6 -0.764 0.044 -0.546 1.308 0.218 1.354Z" fill="#191919" stroke-width="2"></path>
  <path d="M156.482 276.888c19.262 14.13 12.152 27.778 9.218 33.756a1.138 1.138 0 0 0 1.962 1.146c4.148 -5.452 11.914 -24.446 -10.252 -36.102 -0.756 -0.398 -1.648 0.67 -0.928 1.2Z" fill="#191919" stroke-width="2"></path>
  <path d="M146.83 333.712c-6.742 6.29 -21.65 17.342 -21.704 17.4A6.2 6.2 0 0 1 120.6 345.6c2.18 -3.49 11.288 -17.56 12.814 -21.376 0.328 -0.818 -0.814 -1.2 -1.308 -0.764 -3.142 2.75 -12.012 18.358 -13.524 22.414a7.176 7.176 0 0 0 2.4 5.344 5.812 5.812 0 0 0 4.964 1.746 223.37 223.37 0 0 0 22.032 -18.16c0.664 -0.698 -0.442 -1.75 -1.148 -1.092Z" fill="#191919" stroke-width="2"></path>
  <path d="M140.614 366.76c-2.116 -1.866 -9.618 -8.25 -11.726 -12.816a0.954 0.954 0 0 0 -1.744 0.71c0.942 3.61 12.928 14.722 13.524 15.706 0.658 1.088 0.884 1.388 -0.054 1.8 -0.648 0.282 -13.984 -2.054 -23.29 -10.908a7.112 7.112 0 0 1 -1.142 -9c0.872 -1.036 2.4 -1.964 2.018 -3.544a0.504 0.504 0 0 0 -0.764 -0.328 12.842 12.842 0 0 0 -4.036 4.69c-4.388 11.02 22.834 22.04 28.358 21.542 4.362 -0.392 0.39 -6.498 -1.144 -7.852Z" fill="#191919" stroke-width="2"></path>
  <path d="M175.68 348.928c-0.914 -5.868 -16.074 -44.73 -27.268 -59 -0.6 -0.764 -1.8 -0.048 -1.254 0.764 11.848 17.446 24.05 52.68 26.122 57.862 -0.6 3.436 -4.908 4.362 -6.49 4.472 -2.346 -6.98 -20.822 -50.644 -62.114 -59.226a0.65 0.65 0 0 0 -0.328 1.256c43.904 14.824 58.57 55.624 60.588 58.788a1.29 1.29 0 0 0 0.49 0.49c2.128 0.6 7.526 -0.49 9.326 -4.036a1.378 1.378 0 0 0 0.928 -1.37Z" fill="#191919" stroke-width="2"></path>
  <path d="M195.748 347.892a64.77 64.77 0 0 0 -20.4 2.236c-1.036 0.274 -0.874 2.056 0.272 1.908a152.064 152.064 0 0 1 18.27 -1.964c-6.108 8.89 -17.56 12.27 -21.924 14.288a14.674 14.674 0 0 1 -6.052 -8.506c-0.158 -0.712 -1.528 -0.71 -1.418 0.218 0.436 3.708 2.618 8.726 6.434 10.088 1.362 0.68 18.84 -3.8 25.8 -16.524a1.2 1.2 0 0 0 -0.982 -1.744Z" fill="#191919" stroke-width="2"></path>
  <path d="M48.178 326.896c-0.862 4.746 -11.4 32.174 -12.108 33.484 0.056 -1.908 3.674 -31.296 6.218 -39.866 0.274 -0.926 -1.086 -1.306 -1.474 -0.38 -3.828 9.178 -7.4 40.2 -6.98 43.2a1.268 1.268 0 0 0 1.2 1.2c2.012 0.264 3.31 -3.224 3.926 -4.58 4.524 -9.936 9.782 -28.62 11.234 -31.8 0.652 -1.424 -1.74 -2.784 -2.016 -1.258Z" fill="#191919" stroke-width="2"></path>
  <path d="M97.8 332.786a1.146 1.146 0 0 0 -2.29 0c-0.054 13.26 0.4 32.638 -0.218 36.046 -1.8 -1.526 -9.428 -27.76 -11.344 -33.538a0.682 0.682 0 0 0 -1.308 0.382c1.918 7.024 7.6 27.692 8.834 30.866 2.84 7.34 5.452 4.854 5.672 4.308 0.708 -1.746 1.4 -31.088 0.654 -38.064Z" fill="#191919" stroke-width="2"></path>
  <path d="M101.184 256.056c4.894 2.054 6.8 6.38 6.764 11.4a0.78 0.78 0 0 0 1.526 0.218 11.066 11.066 0 0 0 -7.962 -12.924c-0.824 -0.26 -1.094 0.984 -0.328 1.306Z" fill="#191919" stroke-width="2"></path>
  <path d="M104.076 262.436a22.524 22.524 0 0 1 1.962 10.688 0.728 0.728 0 0 0 1.418 0.218 14.624 14.624 0 0 0 -1.908 -11.724 0.842 0.842 0 0 0 -1.472 0.818Z" fill="#191919" stroke-width="2"></path>
  <path d="M101.784 265.762a15 15 0 0 1 1.092 10.526c-0.15 0.766 0.944 1.372 1.362 0.6a12.288 12.288 0 0 0 -1.036 -11.944 0.818 0.818 0 0 0 -1.418 0.818Z" fill="#191919" stroke-width="2"></path>
  <path d="M97.75 267.508c1.548 3.152 1.2 6.6 1.472 9.98 0.056 0.708 1.2 0.982 1.362 0.162a15.042 15.042 0 0 0 -1.58 -10.906 0.734 0.734 0 0 0 -1.254 0.764Z" fill="#191919" stroke-width="2"></path>
  <path d="M106.638 166.564a0.704 0.704 0 0 0 -1.308 0.326c0 1.31 0.436 5.072 0.436 5.618a2.142 2.142 0 0 1 -0.818 -0.218c-0.718 -0.308 -1.144 0.87 -0.546 1.254 1.094 0.704 2.834 1.308 3.218 -0.436a20.048 20.048 0 0 0 -0.982 -6.544Z" fill="#191919" stroke-width="2"></path>
  <path d="M101.894 165.636c0.272 0.6 0.044 1.256 0.164 1.91a0.734 0.734 0 0 0 1.2 0.326 2.716 2.716 0 0 0 0 -3.054c-0.164 -0.382 -1.582 -0.326 -1.364 0.818Z" fill="#191919" stroke-width="2"></path>
  <path d="M101.076 165.036c0.216 -0.49 0.326 -1.418 2.4 -1.744 0.49 -0.11 0.49 -0.982 0 -1.254 -1.692 -0.818 -3.436 0.926 -3.928 2.4 -0.326 0.816 1.144 1.47 1.528 0.598Z" fill="#191919" stroke-width="2"></path>
  <path d="M131.888 238.168c-2.142 -15.478 -7.036 -34.848 -24.05 -39.702a15.556 15.556 0 0 1 -1.8 -5.508c1.746 -0.054 10.05 -2.176 9 -10.416a11.952 11.952 0 0 0 -5.344 -8.18 29.978 29.978 0 0 0 -0.818 -17.014c0.328 -0.11 6.812 -2.072 6.654 -8.672a8.11 8.11 0 0 0 -12.816 -6.816c-2.566 1.632 -4.024 4.212 -6.326 6.162a15.23 15.23 0 0 1 -8.072 3.872 12.83 12.83 0 0 0 -10.47 8.944 13.696 13.696 0 0 0 2.126 11.342c1.4 2.244 3.156 4.744 5.782 5.126a9.118 9.118 0 0 0 2.29 -0.436c2.972 -1.072 4.778 3.226 5.562 5.4 2.446 6.784 8.344 10.416 10.634 10.634a10.676 10.676 0 0 0 3.218 8.126 0.812 0.812 0 0 0 1.31 -0.874c0.708 0.274 1.418 0.6 2.072 0.928 -1.146 6.544 -19.644 7.17 -24.324 0.054 -0.432 -0.656 -1.572 -0.386 -1.2 0.328 5.358 10.244 26.776 6.6 27.702 0.818 11.616 7.362 14.658 23.4 16.906 36.21 0.192 1.088 2.122 0.82 1.964 -0.326ZM99.276 174.634c0 -0.054 -0.6 -0.38 -0.872 -0.218 -2.502 1.486 -4.2 -2.508 -4.2 -4.308 0 -1.69 0.6 -2.686 2.346 -2.78 0.71 -0.04 1.09 0.054 1.636 -0.438a20.074 20.074 0 0 0 0.708 -4.634c0.07 -2.126 3.326 -4.364 7.58 -4.364a28.378 28.378 0 0 1 1.31 3.6c-1.262 -0.632 -1.68 0.752 -1.2 0.872a6.36 6.36 0 0 1 1.636 0.928c1.09 3.762 0.054 10.416 -0.982 13.688a6.782 6.782 0 0 1 -7.962 -2.346Zm3.872 5.29c0.928 0.436 1.908 -0.068 2.89 -0.162 0.654 -0.064 0.876 0.82 0.492 1.254a3.2 3.2 0 0 1 -3.982 0 0.624 0.624 0 0 1 0.6 -1.092Z" fill="#191919" stroke-width="2"></path>
</svg>