<svg xmlns="http://www.w3.org/2000/svg" fill="none" viewBox="0 0 400 400" id="Interview--Streamline-Brooklyn" height="400" width="400">
  <desc>
    Interview Streamline Illustration: https://streamlinehq.com
  </desc>
  <g id="interview--work-job-office-company-interview">
    <g id="profile 2">
      <path id="Subtract" fill="#191919" fill-rule="evenodd" d="M158.5278 260.702c0.002 15.432 0.036 30.864 0.102 46.292 0.0044 1.026 -0.0124 2.066 -0.0292 3.1 -0.0166 1.026 -0.033 2.046 -0.0288 3.042 1.247 -0.01 2.5448 -0.022 3.892 -0.034 0.1128 -17.646 0.0244 -35.294 -0.2656 -52.94 -1.2194 0.214 -2.4434 0.394 -3.6704 0.54Zm183.0162 64.274c-0.946 0.31 -13.038 0.506 -30.856 0.602 0.002 -1.452 -0.032 -2.858 -0.164 -4.162 27.572 0.106 30.412 -0.226 32.46 -1.676 0.196 -0.138 0.386 -0.288 0.588 -0.448l0.092 -0.072c4.606 -3.626 4.552 -6.444 4.216 -23.7 -0.178 -9.132 -0.434 -22.308 -0.12 -41.786 0.048 -0.354 0.05 -0.712 0.006 -1.06 0.672 -0.06 1.172 -0.124 1.488 -0.192 0.708 -0.128 1.404 -0.294 2.09 -0.496 0.334 4.894 0.442 39.356 0.47 48.168l0 0.008 0 0.102c0.002 0.872 0.004 1.476 0.006 1.758 0.002 0.704 0.01 1.402 0.016 2.09v0.004l0 0.004c0.09 9.57 0.162 17.42 -10.292 20.856Z" clip-rule="evenodd" stroke-width="2"></path>
      <path id="vector" fill="#191919" d="M174.3178 302.318c1.104 -13.934 20 -18.246 32.2502 -11.512 5.038 2.77 7.306 7.54 8.562 12.882 0.33 1.4 -0.75 1.534 -1.778 1.534 -40.5062 0.014 -39.4002 1.722 -39.0342 -2.904Zm18 0.902c21.8282 -0.062 21.2602 0.636 18.1442 -4.358 -8.724 -13.978 -33.3022 -9.034 -33.6382 3.162 -0.05 1.776 -0.074 1.24 15.492 1.196h0.002Z" stroke-width="2"></path>
      <path id="vector_2" fill="#191919" d="M292.214 260.4c0.32 0.054 0.612 0.216 0.824 0.462 0.212 0.244 0.33 0.556 0.336 0.88 0.006 0.324 -0.102 0.64 -0.304 0.894 -0.204 0.252 -0.488 0.426 -0.806 0.49 -1.114 0.236 -63.338 -0.286 -63.386 -0.29 -1.13 0 -3 0.354 -3.064 -1.322 -0.056 -1.75 -0.058 -1.436 33.73 -1.436 0 0.444 27.51 -0.116 32.67 0.322Z" stroke-width="2"></path>
      <path id="vector_3" fill="#191919" d="M205.556 274.816c-0.152 14.542 -20.148 13.33 -19.966 -0.55 -0.0534 -2.632 0.9338 -5.178 2.7472 -7.084 1.8134 -1.908 4.3062 -3.022 6.9368 -3.102 2.7782 0.086 5.412 1.26 7.334 3.268 1.922 2.008 2.982 4.688 2.948 7.468Zm-2.77 0.322c-0.2 -11.266 -14.908 -10.626 -14.708 -0.35 0.204 10.524 14.878 10.27 14.708 0.35Z" stroke-width="2"></path>
      <path id="vector_4" fill="#191919" d="M273.27 275.464c2.574 0 2.586 2.81 0.012 2.836 -46.2 0.454 -45.686 0.074 -45.62 -1.444 0.08 -1.828 11.022 -1.404 45.608 -1.392Z" stroke-width="2"></path>
      <path id="vector_5" fill="#191919" d="M328.694 260.522c2.578 0.034 2.554 2.678 0.066 2.726 -31.112 0.6 -31.818 0.306 -31.696 -1.762 0.11 -1.844 2.036 -1.336 31.63 -0.964Z" stroke-width="2"></path>
      <path id="vector_6" fill="#191919" d="m252.304 293.928 -4.914 -0.714c-0.322 -0.048 -0.488 -0.316 -1.48 -2.4 -0.294 -0.62 -1.114 -2.322 -1.128 -2.352 -0.21 -0.426 -0.536 -0.784 -0.94 -1.034 -0.404 -0.252 -0.87 -0.384 -1.344 -0.384 -0.476 0 -0.94 0.132 -1.344 0.384 -0.404 0.25 -0.73 0.608 -0.94 1.034l-2.2 4.456c-0.222 0.452 -1.2 0.414 -5.328 1.014 -0.47 0.07 -0.91 0.27 -1.272 0.578 -0.362 0.308 -0.63 0.71 -0.776 1.162 -0.146 0.452 -0.162 0.934 -0.048 1.396 0.114 0.46 0.356 0.88 0.696 1.21l3.556 3.466c0.358 0.352 0.02 1.282 -0.682 5.382 -0.062 0.366 -0.044 0.74 0.052 1.098 0.098 0.358 0.272 0.69 0.51 0.974 0.238 0.284 0.536 0.512 0.872 0.668 0.336 0.158 0.702 0.24 1.072 0.24 0.844 0 0.874 -0.16 5.584 -2.6 0.444 -0.232 1.212 0.372 4.908 2.312 0.42 0.22 0.894 0.32 1.368 0.284 0.474 -0.034 0.928 -0.2 1.312 -0.48 0.384 -0.28 0.684 -0.66 0.862 -1.1 0.18 -0.44 0.232 -0.922 0.152 -1.39l-0.852 -4.906c-0.086 -0.506 0.834 -1.142 3.714 -3.952 0.34 -0.332 0.582 -0.752 0.696 -1.212 0.114 -0.462 0.096 -0.946 -0.05 -1.398 -0.148 -0.452 -0.418 -0.854 -0.78 -1.162 -0.364 -0.306 -0.806 -0.504 -1.276 -0.574Zm0.016 2.914c-3.39 3.304 -4.6 3.956 -4.29 5.722 0.896 5.224 1 5.154 0.622 5.432 -0.342 0.238 -0.352 0.182 -2.856 -1.184 -2.34 -1.276 -3.214 -1.756 -4.486 -1.088l-4.4 2.314c-0.09 0.05 -0.194 0.072 -0.296 0.066 -0.104 -0.008 -0.204 -0.044 -0.286 -0.104 -0.084 -0.06 -0.15 -0.144 -0.188 -0.24 -0.038 -0.096 -0.048 -0.2 -0.03 -0.302 0.8 -4.686 1.384 -5.906 0.108 -7.15 -3.8 -3.706 -3.838 -3.58 -3.694 -4.028 0.144 -0.448 0.354 -0.378 2.982 -0.716 2.662 -0.346 3.656 -0.474 4.292 -1.766l2.2 -4.454c0.042 -0.086 0.108 -0.162 0.188 -0.214 0.082 -0.054 0.176 -0.086 0.272 -0.09 0.098 -0.006 0.194 0.014 0.28 0.06 0.088 0.044 0.16 0.11 0.212 0.192 2.314 4.774 2.514 5.664 4.144 5.902 5.252 0.764 5.212 0.64 5.356 1.086 0.034 0.096 0.04 0.2 0.018 0.3 -0.024 0.1 -0.074 0.192 -0.148 0.262Z" stroke-width="2"></path>
      <path id="vector_7" fill="#191919" d="M238.888 299.716c-0.412 -0.066 -1 0.094 -1.172 -0.6 -0.134 -0.55 0.218 -0.8 0.662 -0.988 1.816 -0.732 2.908 -2.982 3.442 -2.8 1.248 0.472 -0.24 4.272 -2.932 4.388Z" stroke-width="2"></path>
      <path id="vector_8" fill="#191919" d="m281.944 293.928 -4.914 -0.714c-0.496 -0.072 -0.766 -1 -2.614 -4.754 -0.21 -0.426 -0.534 -0.784 -0.938 -1.036 -0.402 -0.25 -0.868 -0.384 -1.344 -0.384 -0.474 0 -0.94 0.134 -1.342 0.384 -0.404 0.252 -0.728 0.61 -0.938 1.036l-2.2 4.456c-0.224 0.452 -1.2 0.414 -5.328 1.014 -0.47 0.068 -0.912 0.268 -1.276 0.574 -0.364 0.306 -0.634 0.708 -0.78 1.16 -0.148 0.452 -0.166 0.936 -0.052 1.398 0.114 0.462 0.356 0.882 0.696 1.214l3.558 3.466c0.362 0.352 0 1.336 -0.684 5.382 -0.08 0.468 -0.028 0.95 0.152 1.39 0.18 0.44 0.478 0.82 0.862 1.1 0.384 0.278 0.84 0.444 1.314 0.48 0.474 0.034 0.948 -0.066 1.368 -0.286l4.4 -2.31c0.292 -0.15 0.58 -0.03 2.6 1.072s2.622 1.534 3.494 1.534c0.37 -0.002 0.736 -0.082 1.072 -0.24 0.336 -0.156 0.634 -0.386 0.872 -0.668 0.238 -0.284 0.412 -0.616 0.51 -0.974 0.096 -0.358 0.114 -0.732 0.052 -1.098l-0.84 -4.896c-0.084 -0.494 0.72 -1.036 3.716 -3.952 0.34 -0.332 0.582 -0.752 0.696 -1.216 0.114 -0.462 0.096 -0.946 -0.05 -1.398 -0.148 -0.454 -0.42 -0.856 -0.784 -1.162 -0.364 -0.306 -0.806 -0.504 -1.278 -0.572Zm0.014 2.914c-3.4 3.312 -4.6 3.96 -4.288 5.722 0.896 5.2 1 5.154 0.622 5.432 -0.34 0.238 -0.352 0.182 -2.856 -1.184 -2.34 -1.276 -3.214 -1.756 -4.486 -1.088l-4.4 2.314c-0.092 0.048 -0.194 0.07 -0.296 0.064 -0.104 -0.008 -0.202 -0.044 -0.286 -0.104 -0.082 -0.06 -0.148 -0.144 -0.186 -0.238 -0.038 -0.096 -0.05 -0.2 -0.032 -0.302 0.8 -4.67 1.38 -5.912 0.11 -7.15 -3.8 -3.708 -3.84 -3.58 -3.696 -4.028 0.144 -0.448 0.354 -0.378 2.982 -0.716 2.662 -0.346 3.658 -0.474 4.294 -1.766l2.2 -4.456c0.044 -0.092 0.114 -0.168 0.2 -0.222 0.086 -0.054 0.186 -0.082 0.286 -0.082 0.102 0 0.202 0.028 0.288 0.082 0.086 0.054 0.156 0.13 0.2 0.222 2.3 4.73 2.484 5.612 4.12 5.852 5.252 0.764 5.212 0.64 5.354 1.086 0.034 0.096 0.04 0.2 0.018 0.3 -0.024 0.1 -0.074 0.19 -0.148 0.262Z" stroke-width="2"></path>
      <path id="vector_9" fill="#191919" d="M268.526 299.716c-0.412 -0.066 -1 0.094 -1.17 -0.6 -0.134 -0.55 0.216 -0.8 0.66 -0.988 1.816 -0.732 2.91 -2.982 3.444 -2.8 1.248 0.472 -0.242 4.272 -2.934 4.388Z" stroke-width="2"></path>
    </g>
    <g id="profile 1">
      <path id="Subtract_2" fill="#191919" fill-rule="evenodd" d="M197.732 139.6666c71.996 -0.1298 152.198 0.286 157.846 2.2914 4.406 1.5626 4.39 2.9396 4.206 17.944 -0.064 5.1224 -0.146 11.8332 -0.078 20.682 0.002 0.257 0.006 0.7438 0.012 1.4272 0.08 8.9658 0.464 51.7828 0.082 53.7308 -0.456 3.106 -1.932 5.972 -4.198 8.144 -2.266 2.174 -5.19 3.53 -8.312 3.856 -21.102 1.842 -96.464 -0.056 -96.444 -0.11 0.222 -0.578 -26.896 -0.5 -59.5168 -0.252 -3.2794 2.306 -6.7346 4.338 -10.3166 6.072 55.5074 0.346 114.4254 0.344 157.3334 -0.46 0.568 -0.01 1.232 0.002 1.972 0.014 6.318 0.112 18.2 0.322 23.906 -12.37 1.786 -3.968 1.886 -5.18 1.776 -36.626 -0.02 -6.44 -0.294 -50.118 -0.432 -56.56 0.032 -1.5268 -0.246 -3.0442 -0.814 -4.4616 -0.568 -1.4174 -1.416 -2.706 -2.494 -3.7886 -1.076 -1.0826 -2.36 -1.9372 -3.774 -2.5126 -1.416 -0.5756 -2.932 -0.8602 -4.458 -0.8372l-0.148 -0.0014c-4.018 -0.0416 -88.646 -0.9178 -162.9936 -1.1562 2.394 1.5132 4.6798 3.1756 6.8456 4.9742ZM116.2356 134.772c-16.3106 0.136 -28.5336 0.3818 -34.1336 0.778 -9.39 0.664 -18.244 7.932 -18.122 23.814 0 0.048 0.074 68.336 0.4 81.496 -0.0284 1.5 0.2426 2.992 0.797 4.386 0.5546 1.394 1.3816 2.664 2.4326 3.734 1.051 1.072 2.305 1.922 3.6886 2.502 1.3838 0.582 2.8692 0.88 4.3698 0.88 9.4426 0.14 19.7874 0.28 30.7984 0.412 0.3466 -1.406 0.9502 -2.978 1.621 -4.694 -11.0548 0.07 -19.6084 0.094 -23.9174 0.03 -3.363 -0.088 -6.6896 -0.72 -9.85 -1.872 -4.513 -1.586 -4.4902 -2.8 -4.162 -20.316 0.229 -12.224 0.6068 -32.3848 -0.304 -66.15 -0.21 -2.4402 -0.1294 -4.8968 0.24 -7.318 0.4692 -3.1318 1.9804 -6.014 4.2896 -8.1812 2.309 -2.1672 5.2812 -3.4928 8.4364 -3.7628 1.031 -0.1096 10.7932 -0.2546 26.0634 -0.3948 2.3402 -1.9246 4.7964 -3.711 7.3522 -5.3432Z" clip-rule="evenodd" stroke-width="2"></path>
      <path id="vector_10" fill="#191919" d="M274.678 160.0302c0.158 -2.776 -0.898 -2.2 -46.144 -2.2 0 -0.0246 -8.66 -0.115 -18.158 -0.1496l2.374 4.5894c61.762 0.1646 61.764 0.6434 61.928 -2.2398Z" stroke-width="2"></path>
      <path id="vector_11" fill="#191919" d="M247.332 183.6498c0.096 -2.4314 0.092 -2.4624 -28.708 -2.3954l0.626 4.7626c27.982 0.1648 27.986 0.051 28.082 -2.347l0 -0.0202Z" stroke-width="2"></path>
      <path id="vector_12" fill="#191919" d="M330.758 158.2978c3.016 0.326 2.84 3.48 0.114 3.848 -1.6 0.216 -46.444 0.306 -48.138 -0.038 -2.676 -0.542 -3.378 -3.756 0.22 -4.094 3.08 -0.29 47.756 0.28 47.804 0.284Z" stroke-width="2"></path>
      <path id="vector_13" fill="#0a1628" d="M292.076 209.126c3.976 8.046 1.75 6.44 10.634 7.73 0.368 0.052 0.716 0.208 1.002 0.446 0.284 0.24 0.496 0.556 0.612 0.91 0.114 0.354 0.128 0.734 0.036 1.096 -0.09 0.36 -0.28 0.69 -0.548 0.948 -6.428 6.266 -5.578 3.662 -4.064 12.51 0.062 0.366 0.022 0.742 -0.118 1.086 -0.14 0.342 -0.372 0.64 -0.672 0.858 -0.3 0.218 -0.656 0.348 -1.026 0.376 -0.37 0.026 -0.74 -0.052 -1.068 -0.224 -7.944 -4.18 -5.2 -4.174 -13.15 0 -0.328 0.174 -0.698 0.252 -1.068 0.226 -0.372 -0.028 -0.726 -0.158 -1.026 -0.376 -0.302 -0.218 -0.534 -0.516 -0.674 -0.86s-0.18 -0.72 -0.116 -1.086c1.524 -8.846 2.36 -6.244 -4.064 -12.51 -0.264 -0.26 -0.45 -0.588 -0.538 -0.95 -0.088 -0.36 -0.074 -0.736 0.04 -1.09 0.114 -0.352 0.326 -0.666 0.608 -0.906s0.626 -0.398 0.992 -0.454c8.882 -1.3 6.666 0.316 10.642 -7.73 0.164 -0.332 0.418 -0.612 0.734 -0.808 0.314 -0.196 0.678 -0.3 1.048 -0.3 0.372 0 0.736 0.104 1.05 0.3 0.316 0.196 0.57 0.476 0.734 0.808Z" stroke-width="2"></path>
      <path id="vector_14" fill="#0a1628" d="M326.736 209.126c3.976 8.046 1.75 6.44 10.634 7.73 0.37 0.052 0.716 0.206 1.002 0.446 0.284 0.24 0.496 0.554 0.612 0.91 0.114 0.354 0.128 0.734 0.038 1.096 -0.092 0.36 -0.282 0.69 -0.55 0.948 -6.426 6.266 -5.578 3.662 -4.062 12.51 0.062 0.366 0.022 0.742 -0.118 1.084 -0.14 0.344 -0.372 0.642 -0.672 0.86 -0.3 0.218 -0.656 0.348 -1.026 0.374 -0.37 0.028 -0.74 -0.05 -1.068 -0.222 -7.946 -4.18 -5.2 -4.174 -13.152 0 -0.328 0.174 -0.698 0.252 -1.068 0.224 -0.372 -0.026 -0.726 -0.156 -1.026 -0.374 -0.302 -0.218 -0.534 -0.516 -0.674 -0.86s-0.18 -0.72 -0.116 -1.086c1.526 -8.846 2.362 -6.244 -4.062 -12.51 -0.264 -0.26 -0.45 -0.59 -0.538 -0.95 -0.088 -0.36 -0.074 -0.736 0.04 -1.09 0.114 -0.352 0.324 -0.666 0.606 -0.906s0.626 -0.398 0.992 -0.454c8.884 -1.3 6.668 0.316 10.644 -7.73 0.164 -0.334 0.418 -0.614 0.732 -0.81 0.316 -0.196 0.68 -0.3 1.05 -0.3 0.372 0 0.734 0.104 1.05 0.3 0.314 0.196 0.568 0.476 0.732 0.81Z" stroke-width="2"></path>
      <path id="vector_15" fill="#0a1628" d="M257.41 209.126c3.976 8.046 1.75 6.44 10.636 7.73 0.368 0.052 0.716 0.208 1 0.446 0.286 0.24 0.498 0.556 0.612 0.91 0.114 0.354 0.128 0.734 0.038 1.096 -0.092 0.36 -0.282 0.69 -0.55 0.948 -6.426 6.266 -5.576 3.662 -4.062 12.51 0.062 0.366 0.022 0.742 -0.118 1.084 -0.14 0.344 -0.372 0.642 -0.672 0.86 -0.3 0.218 -0.656 0.348 -1.026 0.374 -0.37 0.028 -0.74 -0.05 -1.068 -0.222 -7.944 -4.18 -5.2 -4.174 -13.152 0 -0.328 0.174 -0.698 0.252 -1.068 0.224 -0.372 -0.026 -0.726 -0.156 -1.026 -0.374 -0.302 -0.218 -0.534 -0.516 -0.674 -0.86s-0.18 -0.72 -0.116 -1.086c1.526 -8.846 2.362 -6.244 -4.062 -12.51 -0.264 -0.26 -0.45 -0.59 -0.538 -0.95 -0.088 -0.36 -0.074 -0.738 0.04 -1.09 0.116 -0.352 0.326 -0.666 0.608 -0.906s0.626 -0.398 0.992 -0.454c8.882 -1.3 6.666 0.316 10.642 -7.73 0.164 -0.334 0.418 -0.614 0.732 -0.81 0.316 -0.196 0.68 -0.3 1.05 -0.3 0.372 0 0.734 0.104 1.05 0.3 0.314 0.196 0.568 0.476 0.732 0.81Z" stroke-width="2"></path>
      <path id="Subtract_3" fill="#0a1628" fill-rule="evenodd" d="M212.278 225.134c0.072 0.136 0.13 0.27 0.176 0.41 0.402 1.238 -0.188 2.8 -0.95 7.222 -0.064 0.366 -0.024 0.742 0.116 1.086 0.14 0.344 0.372 0.642 0.674 0.86 0.3 0.218 0.654 0.348 1.026 0.374 0.37 0.028 0.74 -0.05 1.068 -0.224 3.978 -2.088 5.278 -3.132 6.58 -3.132 1.3 0 2.6 1.042 6.572 3.132 0.328 0.172 0.698 0.25 1.068 0.222 0.37 -0.026 0.726 -0.156 1.026 -0.374 0.3 -0.218 0.532 -0.516 0.672 -0.86 0.14 -0.342 0.18 -0.718 0.118 -1.084 -0.758 -4.424 -1.35 -5.986 -0.948 -7.224 0.402 -1.238 1.798 -2.154 5.01 -5.286 0.268 -0.258 0.458 -0.588 0.548 -0.948 0.092 -0.362 0.078 -0.742 -0.036 -1.096 -0.116 -0.356 -0.328 -0.67 -0.612 -0.91 -0.286 -0.24 -0.634 -0.394 -1.002 -0.446 -4.44 -0.644 -6.106 -0.566 -7.156 -1.33 -1.052 -0.766 -1.49 -2.376 -3.478 -6.4 -0.164 -0.334 -0.418 -0.614 -0.732 -0.81 -0.316 -0.196 -0.68 -0.3 -1.05 -0.3 -0.372 0 -0.734 0.104 -1.05 0.3 -0.314 0.196 -0.568 0.476 -0.732 0.81 -0.222 0.45 -0.424 0.868 -0.612 1.26 -1.538 5.244 -3.67 10.176 -6.296 14.748Z" clip-rule="evenodd" stroke-width="2"></path>
    </g>
    <g id="magnifier">
      <g id="group">
        <path id="Subtract_4" fill="#0a1628" fill-rule="evenodd" d="M170.2508 126.1926c-56.074 -14.4706 -111.9144 49.111 -77.157 104.0494 5.3372 8.434 9.8846 12.14 12.5874 14.342 2.0444 1.666 3.0334 2.472 2.5106 3.814 -1.8 4.61 -3.19 8.2 -0.646 10.356 0.3248 0.276 0.5726 0.474 0.6976 0.734 0.5998 1.236 -1.621 3.842 -11.6976 22.902 -3 5.666 -23.874 45.2 -26.622 51.514 -1.658 3.816 6.832 12.504 16.158 9.872 3.17 -0.894 38.102 -70.68 39.466 -73.678 0.595 -1.306 1.4514 -1.134 2.5552 -0.91 1.4598 0.294 3.3522 0.678 5.6448 -2.162 1.5216 -1.882 2.2474 -3.418 2.7848 -4.554 0.8546 -1.808 1.2336 -2.61 3.5772 -2.204 38.386 6.662 81.4902 -23.876 81.2542 -69.9898 -0.06 -10.9948 -2.888 -21.7974 -8.222 -31.411 -5.336 -9.6138 -13.006 -17.729 -22.3042 -23.597 -0.9062 -0.58 -1.8154 -1.1356 -2.7272 -1.6672 -1.1504 0.8112 -2.4024 1.7106 -3.7154 2.6574 13.2188 7.0412 24.0968 18.9734 29.5628 35.7778 13.524 41.5998 -18.2682 83.2978 -60.7002 85.0378h0.006c-48.46 1.988 -80.71 -46.012 -60.772 -89.5418 14.4034 -31.45 47.6374 -43.7746 76.2568 -37.119 0.5722 -1.5578 1.0702 -2.954 1.5022 -4.2226ZM94.444 316.34c1.0708 -2.064 2.3288 -4.492 3.8218 -7.356 0.424 -0.814 0.8216 -1.574 1.1938 -2.288 4.6908 -8.982 5.343 -10.23 3.9142 -10.938 -1.4156 -0.7 -5.0118 6.35 -9.2306 14.622 -3.5416 6.942 -7.5218 14.746 -11.0194 19.546 -1.0148 1.394 -2.2114 1.494 -3.0728 1.564 -0.7088 0.058 -1.1906 0.098 -1.1572 0.826 0.0516 1.112 1.706 1.308 3.2452 1.488l0.0388 0.004c1.2624 0.266 1.8616 -0.634 2.6762 -1.858 0.462 -0.694 0.9932 -1.492 1.7538 -2.24 1.8472 -1.818 2.6148 -3.298 7.8362 -13.37Zm17.45 -34.42c1.2226 -2.536 2.6878 -5.576 4.4558 -9.212 2.218 -4.57 0.072 -6.214 -11.936 18.192 -0.098 0.2 -0.2332 0.41 -0.3716 0.624 -0.5358 0.834 -1.122 1.746 0.1876 2.408 1.5064 0.76 1.5578 0.654 7.6642 -12.012Zm20.2962 -20.028c0.1754 -0.306 0.3602 -0.628 0.5596 -0.966h-0.006c1.1134 -1.886 0.3 -2.116 -2.5416 -2.92 -2.9984 -0.848 -8.2548 -2.336 -15.8884 -7.082 -1.5266 -0.946 -2.2832 -1.43 -2.8052 -1.246 -0.5208 0.184 -0.8084 1.03 -1.3948 2.744 -1.008 2.948 -0.588 4.292 2.106 5.76 16.8376 9.178 17.2238 8.504 19.9704 3.71Z" clip-rule="evenodd" stroke-width="2"></path>
        <path id="Subtract_5" fill="#0a1628" fill-rule="evenodd" d="M166.2386 136.7464c-16.1616 -3.6676 -34.0162 -0.665 -48.7806 9.9994 -39.568 28.6 -29.536 87.1182 14.552 101.0782 50.8958 16.116 95.644 -36.374 72.624 -81.5062 -5.987 -11.7388 -15.4746 -20.3808 -26.5422 -25.528 -1.0342 0.734 -2.0676 1.46 -3.0844 2.1616 24.2434 10.7048 40.0486 38.316 28.9626 67.7886 -19.744 52.492 -97.146 46.764 -106.67 -7.432 -1.8734 -10.507 -0.6088 -21.3328 3.6358 -31.125 4.2448 -9.792 11.2812 -18.1158 20.2302 -23.9312 14.441 -9.637 29.9332 -11.7778 43.7556 -8.6408 0.4444 -0.9552 0.8932 -1.92 1.317 -2.8646Z" clip-rule="evenodd" stroke-width="2"></path>
        <g id="group_2">
          <path id="vector_16" fill="#191919" d="M145.7158 205.278c-1.5754 1.284 -3.4798 2.1 -5.496 2.354 -6.978 -0.026 -6.726 -5.472 -8.896 -5.242 -1.0684 0.212 -2.1732 0.146 -3.2092 -0.19 -1.0358 -0.336 -1.9682 -0.932 -2.708 -1.732 -0.7398 -0.7998 -1.2622 -1.7754 -1.5176 -2.8342 -0.2554 -1.0588 -0.2352 -2.1654 0.0588 -3.2142 0.14 -0.8 0.136 -1.144 -0.738 -1.22 -4.846 -0.418 -6.34 -5.688 -4.294 -9.362 0.732 -1.318 0.75 -2 -0.662 -3 -5.234 -3.722 -4.954 -12.8 0.4 -16.354 0.86 -0.57 1.35 -0.986 1.158 -2.2 -0.17 -1.1426 0.0842 -2.3078 0.7148 -3.2758 0.6304 -0.968 1.5934 -1.6716 2.7072 -1.9782 0.2922 -0.0614 0.5548 -0.2204 0.7448 -0.4508 0.19 -0.2304 0.2962 -0.5186 0.3012 -0.8172 0.878 -6.368 4.232 -8.862 10.588 -7.674 2.142 0.4 3.412 0.474 4.818 -1.83 2.334 -3.826 8.738 -3.636 11.504 0 0.636 0.836 0.966 1.03 1.946 0.504 0.823 -0.5516 1.7562 -0.9182 2.7348 -1.074 0.9786 -0.1556 1.9794 -0.0972 2.9332 0.1718 0.9538 0.269 1.8378 0.7418 2.591 1.3858 0.753 0.644 1.3574 1.444 1.771 2.3444 2.084 3.47 2.418 3.736 6.13 4.822 1.8736 0.643 3.4746 1.9008 4.5428 3.5688 1.0682 1.6682 1.541 3.6486 1.3412 5.6192 -0.0766 0.3726 -0.018 0.76 0.1654 1.0932 0.1832 0.333 0.479 0.59 0.8346 0.7248 1.2498 0.615 2.3346 1.52 3.1638 2.6392 0.8292 1.1194 1.3786 2.4208 1.6028 3.7956 0.224 1.3748 0.1162 2.7834 -0.3146 4.108 -0.4308 1.3248 -1.1722 2.5272 -2.162 3.5072 -0.544 0.582 -0.832 0.892 -0.222 1.64 2.364 2.882 1.74 5.856 -0.064 8.684 -3.234 5.064 -5.43 3.116 -5.838 4.908 -0.5734 2.2392 -1.8646 4.2288 -3.676 5.6644 -1.8114 1.436 -4.0432 2.238 -6.354 2.286 -0.964 -0.038 -1.054 0.302 -1.048 1 0.016 2.412 -0.498 4.496 0.362 5.854 0.86 1.358 3.414 0.812 5.21 1.2 8.5984 1.694 16.9582 4.43 24.894 8.15 2.53 1.232 2.574 1.696 1 3.94 -18.944 26.854 -59.974 22.784 -77.452 5.066 -2.06 -2.088 -2.088 -2.582 0.266 -4.388 5.9032 -4.474 12.5094 -7.934 19.548 -10.24 11.782 -3.982 10.62 -0.032 10.62 -7.954Zm-11.222 -36.6304c-0.114 1.44 -0.6158 2.8222 -1.452 4 -1.92 1.87 -1.666 4.042 -1.4 6.306 0.572 4.928 0.982 12.928 6.812 19.046 1.5356 1.7368 3.5716 2.9544 5.8278 3.4884 2.2562 0.532 4.622 0.352 6.7722 -0.514 2.88 -1.2904 4.536 -3.5204 5.214 -2.9424 1.468 1.254 -4.116 5.5344 -7.412 6.0704 -1.4 0.226 -0.638 0.436 -0.966 6.75 -0.272 5.222 5.84 7.038 11.344 2.664 0.228 4.112 -9.414 7.756 -12.928 0.458 -0.444 -0.922 -0.872 -0.902 -1.68 -0.638 -7.458 2.456 -13.934 3.774 -26.18 11.4 -0.8 0.502 -1.452 1.106 -0.354 1.942 25 19.07 56.014 13.71 71.144 -4.12 0.892 -1.052 0.892 -1.464 -0.49 -2.02 -25.654 -10.312 -29.382 -6.672 -29.672 -11.022 -1.228 -18.4542 0.13 -22.6104 5.63 -24.8204 3.6 -1.446 3.112 -5.862 -1.848 -4.088 -4.564 1.632 -7.078 -3.34 -6.156 -7.2 0.51 -2.134 -3.244 0.066 -4.414 -4.764 -0.656 -2.716 -4.216 1.778 -8.954 -1.644 -1.332 -0.958 -1.786 5 -8.838 1.648Zm23.238 -4.3278c-0.628 0.656 -1.824 1.4978 -1.08 2.3238 0.93 1.038 1.61 -0.458 2.292 -0.95 2.998 -2.164 2.456 -5.2138 -1.212 -1.3738Zm4.43 2.1238c-0.2 -2.068 -3.4 0.854 -3.4 1.764 -0.014 2.192 3.502 -0.736 3.4 -1.764Z" stroke-width="2"></path>
          <path id="vector_17" fill="#191919" d="M150.8178 192.5874c0.168 5.634 -5.752 3.974 -5.462 2.79 0.14 -0.566 4.888 0.832 3.944 -3.704 -0.182 -0.88 -0.476 -0.82 -1.116 -0.502 -0.936 0.466 -3.376 1.454 -3.554 0.426 -0.132 -0.768 0.43 -0.178 3.884 -2.118 2.004 -1.124 1.982 0.86 2.304 3.108Z" stroke-width="2"></path>
          <path id="vector_18" fill="#191919" d="M144.1998 186.3636c1.304 0.164 1.178 1.212 -0.24 1.4 -3.986 0.548 -2.904 -3.926 -2.538 -10.156 0.02 -0.356 0 -0.9 0.6 -0.824 0.452 0.058 0.374 0.51 0.378 0.824 0.074 6.492 -0.968 8.408 1.8 8.756Z" stroke-width="2"></path>
          <path id="vector_19" fill="#191919" d="M138.7518 173.8814c-0.42 1.822 -1.75 -0.234 -4.544 1.818 -1.354 1 -1.37 -1.616 1.216 -2.936 1.176 -0.6 3.218 -0.164 3.328 1.118Z" stroke-width="2"></path>
          <path id="vector_20" fill="#191919" d="M148.9256 173.1838c-2.146 0.574 -2.582 0.832 -2.942 0.264 -1.02 -1.61 4.13 -3.54 5.74 -0.73 0.93 1.624 -0.992 0.914 -2.798 0.466Z" stroke-width="2"></path>
          <path id="vector_21" fill="#191919" d="M149.4238 181.7578c-1.726 -0.066 -1.8 -3.354 0.036 -3.272 1.54 0.07 1.676 3.338 -0.036 3.272Z" stroke-width="2"></path>
          <path id="vector_22" fill="#191919" d="M136.1996 178.8c1.554 0.044 1.628 3.28 -0.056 3.264 -1.524 -0.006 -1.528 -3.298 0.056 -3.264Z" stroke-width="2"></path>
        </g>
      </g>
    </g>
    <g id="chat box 2">
      <path id="vector_23" fill="#191919" d="M281.462 52.4164c8.4 1.282 7.168 3.842 8.35 24.072 0.648 14.1096 0.428 28.2458 -0.662 42.328 -0.844 4.96 -3.2 8 -9.286 8.17 -27.676 0.758 -68.4 2.944 -85.732 2.768 -2.492 -0.024 -11.174 8.632 -29 19.118 -11.454 6.736 6.8 -18.708 7.212 -33.356 0.214 -7.7 -1.022 -7.118 -1.056 -38.576 -0.014 -12.31 -2.07 -21.338 8.466 -22.362 30.34 -2.948 96.506 -2.956 101.708 -2.162Zm-39.222 3.108c-18.42 0.434 -53.628 1.648 -60.584 2.48 -3.4 0.4 -5.832 1.27 -5.726 9.82 0.718 58.22 3.384 49.078 -7.758 73.158 -0.16 0.344 -0.454 0.788 -0.062 1.086 0.392 0.298 0.738 -0.102 1.044 -0.326 28.432 -20.884 18.348 -16.126 36.692 -16.644 71.6 -2.018 69.126 -1.984 73.902 -2.8 4.14 -0.712 5.05 -3.704 5.544 -13.8 0.33 -6.746 0.498 -22 -0.902 -48.322 -0.21 -3.976 0.494 -5.654 -42.15 -4.652Z" stroke-width="2"></path>
      <path id="vector_24" fill="#0a1628" d="M190.8758 99.7584c-3.618 -0.718 -2.574 -4.276 0.412 -4.4 11.6582 -0.502 71.6322 -1.542 83.1122 0.538 1.6 0.29 2.126 2.316 0.058 3.034 -3.924 1.36 -81.8162 1.18 -83.5822 0.828Z" stroke-width="2"></path>
      <path id="vector_25" fill="#0a1628" d="M223.8 86.401c-32.412 0.066 -30.964 0.024 -32.8 -0.082 -0.5726 0.0174 -1.1288 -0.1932 -1.546 -0.5858 -0.4174 -0.3924 -0.6616 -0.9346 -0.679 -1.5072 -0.0176 -0.5726 0.1932 -1.1288 0.5856 -1.546 0.3926 -0.4174 0.9348 -0.6616 1.5074 -0.679 5.344 -0.6 63.876 -1.51 79.45 -0.388 4.078 0.296 5.946 0.458 5.976 2.072 0.044 2.564 -0.854 2.614 -52.494 2.716Z" stroke-width="2"></path>
      <path id="vector_26" fill="#0a1628" d="M236.982 67.9782c35.906 0.324 39.612 -0.2 39.818 2.33 0.2 2.472 -1.926 2.442 -33.026 2.626 -53.172 0.316 -54.368 1.326 -54.554 -1.6 -0.112 -1.734 1.268 -2.618 3.026 -2.688 14.902 -0.592 29.814 -0.8146 44.736 -0.668Z" stroke-width="2"></path>
    </g>
    <g id="chat box 1">
      <path id="vector_27" fill="#191919" d="M64.218 81.9196c-55.66992 37.08 -17.018 5.752 -19.196 -18.674 -1.316 -14.778 -1.05 -41.962 -1.046 -42 0.328 -10.11798 7.246 -9.35598 37.946 -10.43198 27.704 -0.97 53 -0.898 64.388 -0.498 8.334 0.294 13.91 -0.77 15.024 6.01 1.6316 14.89298 2.0282 29.89558 1.186 44.85398 -0.34 5.584 1.026 16.766 -8.434 17.076 -89.886 2.944 -87.286 1.944 -89.868 3.664ZM102.582 13.62362c-9.728 0.146 -43.2 1.332 -49.296 2.148 -4.276 0.576 -4.374 4 -4.6 8.96598 -0.02 0.4 0.212 33.308 0.788 42 0.484 7.318 -5.026 17.494 -8.412 24.038 -0.2 0.372 -0.624 0.844 -0.232 1.212s0.836 -0.09 1.19 -0.334c18.158 -12.472 21.756 -16.126 29.024 -15.134 3.876 0.53 4.6 0.082 63.35 -1.42 18.172 -0.464 21.4 -0.428 22.464 -4.87 2.6 -10.766 1.05 -42.938 0.33 -52.64998 -0.42 -5.514 -5.566 -4.698 -54.606 -3.956Z" stroke-width="2"></path>
      <path id="vector_28" fill="#0a1628" d="M95.3502 53.5298c-1.078 -7.404 5.882 -9.53 10.65 -14.914 0.6732 -0.6822 1.1526 -1.531 1.3894 -2.4598 0.2366 -0.9286 0.2218 -1.9036 -0.043 -2.8246 -0.2646 -0.9212 -0.7696 -1.7552 -1.4632 -2.4166 -0.6936 -0.6614 -1.5506 -1.1264 -2.4832 -1.347 -1.8232 -0.4824 -3.7472 -0.4252 -5.5386 0.1646 -1.7914 0.5896 -3.3732 1.6864 -4.5534 3.1574 -2.532 3.348 -4.842 0.6 -3.2 -2.334 6.772 -12.03398 27.4 -3.2 19.8 9.488 -1.889 2.7742 -4.2494 5.1962 -6.974 7.156 -4.748 3.882 -2.518 5.67 -3.82 10.88 -0.652 2.616 -4.212 2.168 -3.764 -4.55Z" stroke-width="2"></path>
      <path id="vector_29" fill="#0a1628" d="M98.356 68.8914c-3.732 0.06 -3.626 -4.78 0.118 -4.888 0.3414 -0.0246 0.6842 0.0226 1.0064 0.1384 0.3222 0.1156 0.6168 0.2974 0.8646 0.5338 0.2476 0.2362 0.4434 0.5216 0.5742 0.838 0.131 0.3162 0.1944 0.6564 0.1862 0.9988 -0.0082 0.3422 -0.088 0.679 -0.234 0.9886 -0.1462 0.3096 -0.3554 0.5852 -0.6142 0.8094 -0.259 0.224 -0.5618 0.3914 -0.8892 0.4914 -0.3274 0.1 -0.6722 0.1306 -1.012 0.0896Z" stroke-width="2"></path>
    </g>
    <g id="profile 3">
      <path id="vector_30" fill="#191919" d="M303.128 313.446c1.714 -0.006 3.372 0.602 4.674 1.716 1.302 1.112 2.162 2.656 2.422 4.35 0.378 2.83 0.474 44.976 0.486 47.986 0.04 10 0.89 18.328 -9.772 21.832 -2.904 0.954 -116.3162 0.786 -166.8002 -0.118 -8.448 -0.15 -7.13 -8.986 -7.162 -16.982 -0.064 -15.434 -0.096 -30.87 -0.096 -46.306 0.0236 -3.39 1.379 -6.634 3.774 -9.032 2.3948 -2.398 5.6368 -3.76 9.026 -3.788 0.05 0 98.2762 -0.888 163.4482 0.342Zm-90 72.132c87.742 0.566 86.55 0.876 89.844 -1.714 6.7 -5.27 3.054 -8.758 3.894 -62.284 0.134 -0.978 -0.112 -1.968 -0.686 -2.77 -0.576 -0.8 -1.438 -1.35 -2.406 -1.534 -1.948 -0.648 -3.98 -0.998 -6.032 -1.04 -0.058 0 -72.72 -0.226 -97.73 0 -59.2002 0.544 -69.8942 -4.34 -69.6422 10.52 0.3028 17.83 0.3868 35.662 0.252 53.494 -0.054 8.526 -0.138 4.794 82.5022 5.328h0.004Z" stroke-width="2"></path>
      <path id="vector_31" fill="#191919" d="M141.898 367.78c1.052 -13.248 19.024 -17.348 30.67 -10.944 4.8 2.636 6.95 7.172 8.146 12.25 0.314 1.33 -0.714 1.456 -1.692 1.456 -38.524 0.012 -37.474 1.636 -37.124 -2.762Zm17.116 0.86c20.758 -0.062 20.22 0.6 17.258 -4.14 -8.292 -13.294 -31.68 -8.59 -32 3 -0.038 1.7 -0.062 1.186 14.742 1.14Z" stroke-width="2"></path>
      <path id="vector_32" fill="#191919" d="M254.026 327.922c0.308 0.046 0.592 0.198 0.798 0.434 0.206 0.234 0.322 0.534 0.328 0.846 0.006 0.312 -0.1 0.616 -0.298 0.858 -0.196 0.242 -0.474 0.406 -0.78 0.462 -1.056 0.222 -60.2402 -0.274 -60.2862 -0.274 -1.076 0 -2.862 0.338 -2.912 -1.256 -0.052 -1.664 -0.054 -1.368 32.0782 -1.368 0 0.404 26.164 -0.13 31.072 0.298Z" stroke-width="2"></path>
      <path id="vector_33" fill="#191919" d="M171.6098 341.62c-0.144 13.834 -19.162 12.686 -18.988 -0.522 -0.0508 -2.5 0.8868 -4.92 2.6094 -6.734 1.7224 -1.814 4.0906 -2.876 6.5906 -2.954 2.6436 0.082 5.1498 1.196 6.9802 3.106 1.8302 1.908 2.8384 4.46 2.8078 7.104Zm-2.636 0.31c-0.184 -10.716 -14.178 -10.104 -13.986 -0.334 0.192 9.77 14.15 9.77 13.986 0.334Z" stroke-width="2"></path>
      <path id="vector_34" fill="#191919" d="M236.012 342.244c2.448 0 2.456 2.672 0 2.698 -43.9362 0.444 -43.4502 0.068 -43.3862 -1.376 0.086 -1.738 10.4922 -1.334 43.3862 -1.322Z" stroke-width="2"></path>
      <path id="vector_35" fill="#191919" d="M288.718 328.028c2.452 0.032 2.428 2.55 0.062 2.6 -29.59 0.558 -30.26 0.292 -30.142 -1.678 0.106 -1.75 1.934 -1.284 30.08 -0.922Z" stroke-width="2"></path>
      <path id="vector_36" fill="#191919" d="m216.07 359.758 -4.834 -0.716c-0.848 -1.396 -1.596 -2.85 -2.234 -4.354 -0.188 -0.432 -0.496 -0.8 -0.886 -1.062 -0.392 -0.262 -0.85 -0.406 -1.32 -0.418 -0.47 -0.01 -0.934 0.114 -1.336 0.358s-0.726 0.598 -0.934 1.02l-2.178 4.38c-1.628 0.382 -3.2822 0.65 -4.9482 0.8 -0.4562 0.066 -0.8848 0.26 -1.2372 0.556 -0.3524 0.298 -0.6146 0.688 -0.757 1.126 -0.1424 0.438 -0.1592 0.908 -0.0484 1.356 0.1106 0.446 0.3442 0.854 0.6746 1.176l3.49 3.418c-0.1422 1.666 -0.4002 3.322 -0.772 4.952 -0.077 0.454 -0.0258 0.92 0.1482 1.346 0.174 0.428 0.4638 0.796 0.8366 1.066 0.3734 0.272 0.8134 0.432 1.2734 0.466 0.458 0.032 0.918 -0.064 1.326 -0.278l4.332 -2.266c1.528 0.676 3.02 1.432 4.47 2.266 0.408 0.214 0.866 0.31 1.326 0.278 0.46 -0.034 0.9 -0.194 1.274 -0.466 0.372 -0.27 0.662 -0.638 0.836 -1.066 0.174 -0.426 0.224 -0.892 0.148 -1.346l-0.814 -4.824c1.09 -1.266 2.272 -2.454 3.534 -3.55 0.33 -0.322 0.564 -0.73 0.676 -1.178 0.11 -0.448 0.094 -0.918 -0.05 -1.356 -0.142 -0.44 -0.404 -0.83 -0.758 -1.128 -0.352 -0.298 -0.782 -0.49 -1.238 -0.556Zm-0.026 2.784c-3.632 3.532 -4.366 3.894 -4.094 5.484 0.866 5.044 0.938 4.886 0.614 5.118 -0.324 0.232 -0.35 0.126 -2.624 -1.098 -0.986 -0.688 -2.106 -1.154 -3.288 -1.368 -0.376 0.01 -0.744 0.116 -1.068 0.304 -4.508 2.374 -4.35 2.4 -4.678 2.162 -0.328 -0.238 -0.224 -0.312 0.236 -2.826 0.506 -2.778 0.642 -3.526 -0.332 -4.478l-3.3822 -3.296c-0.063 -0.06 -0.1078 -0.138 -0.129 -0.224 -0.0212 -0.084 -0.018 -0.174 0.009 -0.258 0.0272 -0.082 0.0772 -0.156 0.1444 -0.212 0.0672 -0.058 0.1488 -0.094 0.2356 -0.106 4.8642 -0.706 5.8002 -0.552 6.5382 -2.034 2.258 -4.58 2.114 -4.5 2.516 -4.5 0.086 -0.002 0.172 0.02 0.246 0.066 0.074 0.046 0.132 0.112 0.168 0.192 2.164 4.4 2.32 5.354 3.95 5.59 5.054 0.732 4.932 0.62 5.058 1 0.028 0.084 0.032 0.174 0.01 0.26 -0.02 0.086 -0.066 0.164 -0.13 0.224Z" stroke-width="2"></path>
      <path id="vector_37" fill="#191919" d="M203.304 365.308c-0.4 -0.064 -0.954 0.09 -1.112 -0.562 -0.128 -0.526 0.2 -0.772 0.628 -0.942 1.724 -0.702 2.77 -2.836 3.276 -2.652 1.186 0.43 -0.23 4.048 -2.792 4.156Z" stroke-width="2"></path>
    </g>
  </g>
</svg>