<svg viewBox="0 0 400 400" xmlns="http://www.w3.org/2000/svg" id="Job-Interview-3--Streamline-Brooklyn" height="400" width="400">
  <desc>
    Job Interview 3 Streamline Illustration: https://streamlinehq.com
  </desc>
  <path d="M261.558 80.4a9.122 9.122 0 0 0 6.294 -7.224c0.056 -0.712 -0.876 -0.712 -1.094 -0.164a11.092 11.092 0 0 1 -5.472 6.566 0.434 0.434 0 0 0 0.272 0.822Z" fill="#191919" stroke-width="2"></path>
  <path d="M250.832 54.35a58.338 58.338 0 0 0 -1.86 10.616c-0.164 2.902 -0.548 6.514 0.766 9.2 2.4 4.95 8.442 3.306 7.77 -0.6 -0.108 -0.71 -1.148 -0.766 -1.478 -0.218a2.616 2.616 0 0 1 -3.83 0.712c-0.548 -0.6 -2.682 -2.572 -0.656 -19.538a0.366 0.366 0 0 0 -0.712 -0.172Z" fill="#191919" stroke-width="2"></path>
  <path d="M259.424 58.126c-0.548 4.52 2.266 4.666 2.4 3.666a27.636 27.636 0 0 0 -0.93 -3.666c0.008 -0.986 -1.358 -0.926 -1.47 0Z" fill="#191919" stroke-width="2"></path>
  <path d="M259.972 53.2a7.894 7.894 0 0 1 5.09 2.298c0.546 0.384 1.148 -0.272 1.038 -0.82 -0.546 -2.736 -4 -3.558 -6.292 -2.8 -0.712 0.228 -0.658 1.372 0.164 1.322Z" fill="#191919" stroke-width="2"></path>
  <path d="M243.936 58.618a4.282 4.282 0 0 0 0.492 4.6c0.712 0.656 1.588 0 1.478 -0.876a21.682 21.682 0 0 0 -0.82 -3.612 0.748 0.748 0 0 0 -1.15 -0.112Z" fill="#191919" stroke-width="2"></path>
  <path d="M243.662 55.116a37.236 37.236 0 0 1 3.504 -2.902c0.436 -0.382 0.054 -1.094 -0.494 -1.148 -1.86 -0.11 -3.612 1.752 -4.6 3.12 -0.654 0.984 0.946 1.868 1.59 0.93Z" fill="#191919" stroke-width="2"></path>
  <path d="M241.146 90.962c4.2 3.954 3.72 8.538 2.57 13.628 -0.164 0.656 0.712 1.314 1.2 0.712 4.052 -4.762 1.642 -11.822 -2.68 -15.434 -0.708 -0.602 -1.796 0.43 -1.09 1.094Z" fill="#191919" stroke-width="2"></path>
  <path d="M242.184 86.038c3.722 1.64 7.498 8.264 8.922 9.85 0.6 0.712 1.532 -0.054 1.422 -0.82 -0.328 -2.244 -5.308 -8.758 -9.906 -9.852 -0.546 -0.11 -0.984 0.492 -0.438 0.822Z" fill="#191919" stroke-width="2"></path>
  <path d="M243.936 82.2c5.772 2.176 8.046 6.4 9.414 7.772 0.656 0.656 1.97 0 1.642 -0.93 -1.368 -4.27 -6.788 -6.788 -10.782 -7.718a0.46 0.46 0 1 0 -0.274 0.876Z" fill="#191919" stroke-width="2"></path>
  <path d="M240.98 93.6c-0.388 -0.708 -1.422 -0.22 -1.312 0.546 0.82 4.16 -1.698 6.896 -5.692 7.334 -0.876 0.11 -3.776 0.11 -4.214 0.164 -1.424 0.11 -1.916 -0.164 -2.19 0.6a86.292 86.292 0 0 0 -3.666 12.698 0.65 0.65 0 0 0 1.258 0.328c1.2 -3.832 2.572 -7.662 4 -11.438a20.864 20.864 0 0 0 6.184 -0.438c4.538 -0.884 8.11 -5.294 5.632 -9.794Z" fill="#191919" stroke-width="2"></path>
  <path d="M273.6 79.032c-4.314 7.552 -11.878 8.866 -14.778 9.742 -0.438 0.108 -0.546 0.93 0 0.984a15.542 15.542 0 0 0 12.97 -5.308 27.334 27.334 0 0 1 -6.4 14.886c-1.8 1.916 -8.6 6.4 -14.12 2.298 -0.712 -0.546 -1.588 0.766 -1.15 1.478 3.174 4.816 11.986 2.2 15.434 -0.82 5.308 -4.652 7.6 -12.314 7.388 -19.156a14.8 14.8 0 0 0 2.026 -3.284c0.43 -0.93 -0.836 -1.758 -1.37 -0.82Z" fill="#191919" stroke-width="2"></path>
  <path d="M331.776 110.61a64.512 64.512 0 0 0 -15 -29.334c-7.718 -8.484 -18.224 -15.652 -30.102 -15.324a0.63 0.63 0 0 0 0 1.258c10.126 0.438 18.936 6.514 25.832 13.518A62 62 0 0 1 328 107.162a92.964 92.964 0 0 1 3.12 32.946c-0.93 10.672 -9.358 20.414 -17.4 26.818a45.774 45.774 0 0 1 -15.652 8.044 53.784 53.784 0 0 1 -12.422 1.862c3.75 -5.116 3.568 -15.558 -2.3 -20.578a23.772 23.772 0 0 0 8.6 -6.458 30.116 30.116 0 0 0 4 -36.668c-0.548 -0.93 -1.86 -0.11 -1.422 0.82A32.872 32.872 0 0 1 296 138.686a29.07 29.07 0 0 1 -6.4 9.96c-2.518 2.628 -5.638 4.488 -8.154 7.06 -0.056 0.054 -0.548 0.438 -0.274 0.822 1.478 2.024 4.488 7.496 4.652 10.89a16.116 16.116 0 0 1 -0.876 5.8c-0.328 0.93 -1.2 4.6 -3.23 4.268 -2.298 0.164 -2.516 -3.83 -2.462 -5.2a0.472 0.472 0 0 0 -0.93 -0.108c-0.438 2.572 -0.548 6.184 2.8 6.896 5.09 0.71 22.384 -2.3 30.54 -7.444a51.726 51.726 0 0 0 21.04 -25.83c3.118 -8.6 0.452 -29.118 -0.93 -35.19Z" fill="#191919" stroke-width="2"></path>
  <path d="M269.384 150.07c4.05 2.626 11 12.532 12.15 13.4 0.494 0.382 1.532 0.218 1.478 -0.6 -0.328 -2.846 -7.114 -9.358 -13.298 -13.136 -0.274 -0.102 -0.548 0.226 -0.33 0.336Z" fill="#191919" stroke-width="2"></path>
  <path d="M235.726 154.83c11.986 10.782 28.132 7.444 32.454 4.16 0.876 -0.656 0.22 -2.354 -0.71 -1.752 -3.448 2.19 -12.8 2.628 -15.6 2.3a33.52 33.52 0 0 1 -15.378 -5.692c-0.6 -0.384 -1.258 0.492 -0.766 0.984Z" fill="#191919" stroke-width="2"></path>
  <path d="M238.08 159.538c5.144 10.124 16.912 9.74 20.8 7.934a0.974 0.974 0 0 0 -0.492 -1.8c-4 0.438 -13.026 1.862 -19.264 -6.73 -0.324 -0.5 -1.208 -0.062 -1.044 0.596Z" fill="#191919" stroke-width="2"></path>
  <path d="M240.6 166.98c1.856 6.056 10.946 9.852 15.98 4.98a0.8 0.8 0 0 0 -0.766 -1.314c-2.736 0.768 -8.812 3.558 -13.902 -4.214 -0.438 -0.656 -1.548 -0.214 -1.312 0.548Z" fill="#191919" stroke-width="2"></path>
  <path d="M246.454 175.9c5.528 3.558 13.626 2.902 19.484 0.658 3.118 -1.2 12.86 -6.4 19.2 -7.28a0.762 0.762 0 0 0 0.164 -1.422c-4.926 -2.19 -12.04 2.572 -16.308 4.706 -3.338 1.696 -9.632 5.856 -22.166 2.518a0.454 0.454 0 0 0 -0.374 0.82Z" fill="#191919" stroke-width="2"></path>
  <path d="M266 154.174a49.644 49.644 0 0 1 -1.15 -12.916 1.05 1.05 0 0 0 -1.586 -0.93c-8.812 5.692 -19.374 0.984 -28.788 -0.438a147.9 147.9 0 0 0 -29.936 -0.6 0.982 0.982 0 0 0 -0.274 1.916 22.762 22.762 0 0 1 14.23 24.846c-0.054 0.492 0.108 1.15 0.71 1.2 7.334 0.548 20.14 5.308 24.2 6.348a0.574 0.574 0 0 0 0.438 -1.04c-6.84 -4.104 -15.378 -5.91 -23.2 -7.114a24.964 24.964 0 0 0 -12.26 -24.4 114.73 114.73 0 0 1 29.664 1.532c8.1 1.75 16.91 4.432 24.682 0.546a37.672 37.672 0 0 0 1.532 11.548c0.252 1.198 1.97 0.702 1.738 -0.498Z" fill="#0a1628" stroke-width="2"></path>
  <path d="M268.728 154.502c-0.818 -3.462 -0.022 -20.77 -3.722 -20.03 -19.812 3.284 -39.35 0.218 -59.106 -1.862a0.918 0.918 0 0 0 -0.876 1.15 21.824 21.824 0 0 0 2.354 4.652 0.296 0.296 0 0 0 0.546 -0.164 19.878 19.878 0 0 0 -0.656 -3.612c18.772 3.064 38.31 5.09 57.2 2.134 2.352 1.696 2.188 15.6 3.448 18.06 0.21 0.548 0.928 0.17 0.812 -0.328Z" fill="#0a1628" stroke-width="2"></path>
  <path d="M257.892 84.012a25.454 25.454 0 0 0 -13.3 -7.552 16.236 16.236 0 0 0 -12.916 4c-7.77 6.186 -15.488 20.14 -15.924 25.888a18.656 18.656 0 0 0 -7.116 10.836c-0.164 0.656 0.822 1.148 1.15 0.492 0.93 -1.86 3.666 -7.388 5.8 -8.866 0.384 6.238 6.788 10.726 12.916 10.508a104.886 104.886 0 0 0 -4.924 13.682 0.636 0.636 0 0 0 1.148 0.492 133.638 133.638 0 0 0 6.184 -15.05c0.33 -0.766 -0.546 -1.314 -1.2 -1.2 -3.228 0.438 -13.024 -0.164 -12.478 -11.492a54.33 54.33 0 0 1 13.568 -21.738c3.72 -3.502 8.1 -6.13 13.354 -5.308 4.87 0.766 8.92 3.776 12.97 6.294 0.604 0.436 1.316 -0.494 0.768 -0.986Z" fill="#191919" stroke-width="2"></path>
  <path d="M235.618 70.112c-26.026 15.282 -44.37 52.232 -34.26 81 2.134 6.074 8.482 14.118 15.87 10.726 0.986 -0.438 0.494 -2.08 -0.546 -2.026a11.356 11.356 0 0 1 -11.33 -6.566c-2.08 -4 -10.726 -32.838 12.26 -64.416 5.144 -7.114 12.094 -12.15 18.716 -17.786 0.44 -0.444 -0.164 -1.206 -0.71 -0.932Z" fill="#191919" stroke-width="2"></path>
  <path d="M289.524 24.2a16.4 16.4 0 0 0 -7.224 -8.38 9.426 9.426 0 0 0 -10.506 1.096c-1.26 -4.544 -6.4 -7.17 -11.112 -6.896a26.484 26.484 0 0 0 -12.914 5.254c-7.6 5.09 -14.722 11.766 -17.4 20.522 -1.258 4.16 -1.2 9.304 2.188 12.096a9.652 9.652 0 0 0 4.762 1.914c-1.314 7.554 3.174 20.742 5.582 23.754a0.728 0.728 0 0 0 1.2 -0.712c-1.15 -3.722 -6.02 -14.504 -5.69 -22.932 0.218 0 13.078 2.682 24.9 -13.572a13.55 13.55 0 0 0 3.89 7.716c1.04 1.2 6.732 4.378 8.264 3.886v6.348a5.032 5.032 0 0 1 7.224 2.956 6.972 6.972 0 0 1 -3.502 7.662 31.73 31.73 0 0 0 0.328 5.746 3.4 3.4 0 0 0 1.914 -1.094c11.572 -11.306 12.972 -33.94 8.096 -45.364Z" fill="#191919" stroke-width="2"></path>
  <path d="M343.98 223.952c-2.254 -7.654 -10.946 -36.886 -11.6 -44 -0.108 -1.094 -1.75 -1.094 -1.696 0 0.22 7 8.866 35.958 11.22 43.51 -17.294 1.916 -34.698 2.626 -52 4.6l1.642 -43.51c12.26 -1.642 24.628 -2.4 36.832 -4.214 0.656 -0.11 0.492 -1.258 -0.164 -1.15 -12.588 1.588 -25.23 2.026 -37.762 3.776a0.89 0.89 0 0 0 -0.658 0.876l-1.8 45.316a0.96 0.96 0 0 0 0.93 0.93c18 -2.08 36.122 -2.736 54.128 -4.816 0.6 -0.224 1.104 -0.718 0.928 -1.318Z" fill="#0a1628" stroke-width="2"></path>
  <path d="M296.256 190.184c5.036 -0.382 24.956 -2.188 29.6 -3.4a0.752 0.752 0 0 0 -0.218 -1.478c-4.816 -0.218 -24.464 3.064 -29.4 3.666 -0.748 0.118 -0.748 1.322 0.018 1.212Z" fill="#0a1628" stroke-width="2"></path>
  <path d="M297.57 198.448c5 -0.442 27.856 -3.282 29.554 -4.432a0.738 0.738 0 0 0 -0.166 -1.314c-1.75 -0.548 -24.518 3.4 -29.6 4.27 -0.828 0.164 -0.608 1.55 0.212 1.476Z" fill="#0a1628" stroke-width="2"></path>
  <path d="M296.256 207.37a342.152 342.152 0 0 0 33.932 -4.708c1.26 -0.272 1.04 -2.462 -0.328 -2.298 -5.582 0.548 -28.076 4.872 -33.768 5.912 -0.602 0.108 -0.438 1.156 0.164 1.094Z" fill="#0a1628" stroke-width="2"></path>
  <path d="M295.49 215.744c4 -0.318 19.484 -1.096 22.494 -2.4a0.836 0.836 0 0 0 -0.164 -1.48c-1.642 -0.272 -18.718 2.19 -22.494 2.848 -0.602 0.1 -0.438 1.088 0.164 1.032Z" fill="#0a1628" stroke-width="2"></path>
  <path d="M295.49 223.186c3.714 0.456 19.374 -1.15 23.2 -1.368a0.958 0.958 0 0 0 0 -1.916c-4.104 -0.328 -20.248 0.93 -23.422 2.464 -0.434 0.218 -0.162 0.772 0.222 0.82Z" fill="#0a1628" stroke-width="2"></path>
  <path d="M331.72 216.892a2.034 2.034 0 0 0 -2.682 -1.2l-0.546 0.384c-0.11 0.108 -0.822 1.04 -0.438 1.586 0.11 0.22 0.492 1.2 1.312 1.478a1.844 1.844 0 0 0 2.354 -2.248Z" fill="#0a1628" stroke-width="2"></path>
  <path d="M267.688 236.704a1.41 1.41 0 0 1 -0.93 -0.492c-0.454 -0.568 -0.654 2.57 7.388 -49.038a0.882 0.882 0 0 1 0.986 -0.82 76.354 76.354 0 0 1 12.2 -0.22c1.19 0.11 1.284 1.916 0 1.916 -0.2 0 -9.424 -0.162 -11.33 0.11 -0.382 1.696 -6.074 40.828 -6.894 46.3 10.644 0.554 39.462 -1.818 49.364 -2.846 -0.068 -0.488 -0.2 -2.326 -0.218 -2.518 0 -1.378 1.8 -1.248 2.024 -0.054 0.164 1.15 0.328 2.298 0.438 3.558a0.926 0.926 0 0 1 -0.822 1.04c-9.346 1.24 -41.866 3.892 -52.206 3.064Z" fill="#0a1628" stroke-width="2"></path>
  <path d="M133.878 221.6c57.632 13.36 206.434 45.642 223.126 48.6 1.478 0.274 2.08 -1.97 0.6 -2.244 -58.34 -10.234 -206.818 -44.056 -223.4 -47.504 -0.764 -0.166 -1.09 0.97 -0.326 1.148Z" fill="#191919" stroke-width="2"></path>
  <path d="M297.624 295c-0.014 -0.712 -4.05 -3.668 -6.73 -1.478a12.144 12.144 0 0 0 -4.216 8c-0.656 4.652 -3.174 23.916 -3.174 28.898a0.764 0.764 0 0 0 1.478 0.218c2.628 -7.388 1.096 -39.624 10.618 -35.354 0.328 8.044 0.548 36.668 -2.19 44.44 -0.986 2.736 -2.024 8.81 -13.518 8.646 -5.8 -0.984 -43.782 -9.25 -47.942 -13.244 -4.486 -4.324 -2.736 -17.514 -2.736 -20.8 0 -1.914 0.056 -3.884 0.164 -5.8a8.656 8.656 0 0 0 5.638 4.322c4.926 1.588 18.442 4.434 20.084 4.818a4.556 4.556 0 0 0 2.026 3.502 1 1 0 0 0 1.478 -0.822 8.296 8.296 0 0 0 -0.384 -2.024c2.572 0.548 18.498 3.776 23.8 3.612a0.62 0.62 0 0 0 0.166 -1.2c-4.378 -1.368 -20.742 -3.832 -24.246 -4.488a30.6 30.6 0 0 0 0.11 -3.174 0.654 0.654 0 0 0 -0.93 -0.548 4.256 4.256 0 0 0 -1.97 3.174c-0.11 0 -25.942 -3.228 -25.558 -10.068 0.108 -1.368 -1.096 -19.6 6.676 -22.6 4.05 -1.586 8.702 -0.986 12.916 -0.492 4.434 0.492 31.14 6.02 40.062 8.1a0.624 0.624 0 0 0 0.328 -1.2c-2.846 -0.822 -5.638 -1.642 -8.484 -2.4a3.558 3.558 0 0 0 0.274 -6.076c-2.8 -2.188 -21.07 -5.308 -23.972 -5.8a7.568 7.568 0 0 0 -5.362 0.492 3.674 3.674 0 0 0 -1.532 5.09 55.886 55.886 0 0 0 -12.642 -0.274 12.124 12.124 0 0 0 -9.962 12.094c-0.272 9.14 -0.82 17.4 -1.038 27.53 -0.11 6.566 -1.314 13.954 5.362 17.95 6.732 4.05 41.21 11.328 44.33 12.096a18 18 0 0 0 15.98 -2.8c7.012 -5.394 5.316 -41.782 5.096 -52.34Zm-42.358 -18.28c1.532 0 21.672 4.544 22.876 4.926 1.422 0.492 3.666 2.518 0.766 4.762 -5.528 -1.478 -22.878 -4.98 -26.38 -5.474 0 -0.12 -2.08 -4.224 2.738 -4.224Z" fill="#191919" stroke-width="2"></path>
  <path d="M346.716 272c-5.308 25.648 -10.454 51.334 -13.464 77.386 -10.946 -2.9 -22.11 -5.036 -33.11 -7.498 -0.6 -0.164 -0.82 0.712 -0.274 0.93 10.946 4.324 22.768 5.91 34.042 9.086a1.158 1.158 0 0 0 1.422 -1.096c3.23 -26.324 8.6 -52.156 13.902 -78.096 0.328 -1.638 -2.178 -2.348 -2.518 -0.712Z" fill="#191919" stroke-width="2"></path>
  <path d="M190.138 130.258c-4.252 -1.678 -52.938 -12.846 -54.51 -11.274 -5.964 4.98 -10.014 12.314 -16.418 16.856 -0.766 0.546 -0.054 1.8 0.766 1.258a115.988 115.988 0 0 0 16.474 -17.13c8.702 2.4 44.384 10.4 53.36 11.822a0.784 0.784 0 0 0 0.328 -1.532Z" fill="#191919" stroke-width="2"></path>
  <path d="M166.276 264.122a8 8 0 0 0 -8.044 -6.074 42.136 42.136 0 0 1 -9.14 -0.656c-10.454 -3.12 -15.816 -16.528 -19.374 -25.614a71.042 71.042 0 0 0 -11.548 -19.374c-3.448 -4.104 -9.304 -11.384 -15 -12.094 -2.242 -0.274 -4.6 1.588 -6.348 2.682 -9.084 5.728 -19.578 3.15 -20.084 -1.752 -0.11 -1.258 0.218 -2.956 -0.932 -3.4 -2.8 -1.148 -12.586 2.848 -17.184 7 -4.104 3.448 -10.946 11.328 -10.07 14.4 0.22 0.274 42.688 12.04 48.38 20.414 9.686 14.174 14.886 38.254 19.046 53.8a40.69 40.69 0 0 0 22.22 -18.554 25.618 25.618 0 0 1 -13.738 -10.452c-0.218 -0.33 0.274 -0.712 0.548 -0.438a25.8 25.8 0 0 0 21.234 10.288 37.068 37.068 0 0 0 19.922 -5.91 7.266 7.266 0 0 0 0.112 -4.266Z" fill="#0a1628" stroke-width="2"></path>
  <path d="M182.148 258.924c-2.526 -1.96 -5.254 -3.886 -8.6 -3.722a13.638 13.638 0 0 0 -8.538 4.268c-0.384 0.384 0.11 0.878 0.548 0.712 4.474 -2.238 7.666 -5.088 13.352 -1.2a16.346 16.346 0 0 1 4.762 4.106c1.97 3.118 -1.094 5.964 -2.956 8.098 -0.436 0.494 0.166 1.478 0.768 0.986a9.43 9.43 0 0 0 4.652 -6.842c0.172 -2.904 -1.86 -4.756 -3.988 -6.406Z" fill="#191919" stroke-width="2"></path>
  <path d="M99.016 179.4c1.478 2.954 6.184 2.682 6.95 1.532a0.782 0.782 0 0 0 -0.492 -1.15c-0.876 -0.274 -3.01 1.04 -5.364 -1.258 -0.548 -0.544 -1.586 0.222 -1.094 0.876Z" fill="#191919" stroke-width="2"></path>
  <path d="M101.698 160.85a8.744 8.744 0 0 0 0.984 3.94 0.8 0.8 0 0 0 1.318 -0.328 10.2 10.2 0 0 0 -0.822 -3.83c-0.378 -0.432 -1.378 -0.492 -1.48 0.218Z" fill="#191919" stroke-width="2"></path>
  <path d="M100.712 159.974a6.2 6.2 0 0 1 2.354 -4.104c0.438 -0.218 -0.056 -1.2 -0.658 -1.094 -2.298 0.274 -3.228 3.228 -3.064 5.2a0.684 0.684 0 0 0 1.368 -0.002Z" fill="#191919" stroke-width="2"></path>
  <path d="M107 147.66a0.6 0.6 0 0 0 -0.876 -0.218c5.916 -7.472 11.49 -16.424 9.688 -25.776a16.4 16.4 0 0 0 -10.344 -12.314 26.432 26.432 0 0 0 -17.624 1.75c-15.542 8.866 -16.418 17.896 -20.576 22.056 -12.424 12.478 -12.424 14.01 -12.2 24.3s10.508 24.846 14.448 29.552c12.172 14.6 6.8 5.674 9.36 12.972a0.694 0.694 0 0 0 1.368 -0.164 28.674 28.674 0 0 0 -0.548 -5.582c0.822 -2.246 4.542 -11.822 4.434 -12.48s-5.966 -3.118 -5.856 -6.294a6.2 6.2 0 0 1 6.348 -5.746v-3.94A78.498 78.498 0 0 0 105.8 147.826c-0.146 0.288 -0.168 -0.288 4.488 12.642 1.148 3.174 5.472 11.766 -0.22 12.696a1.812 1.812 0 0 0 -1.2 1.15c-0.546 2.188 0.328 4.816 -0.164 7.17 -1.624 8.118 -9.346 13.488 -19.866 9.2 -0.986 -0.384 -1.422 1.04 -0.656 1.586a12.944 12.944 0 0 0 7.06 2.19 19.8 19.8 0 0 0 1.094 5.91 0.536 0.536 0 0 0 1.04 -0.164 19.29 19.29 0 0 0 -0.6 -5.856 15.666 15.666 0 0 0 9.468 -4.05c5.226 -4.988 5.514 -13 3.776 -15.488 5.364 0.656 5.636 -5.2 4.6 -8.756a133.2 133.2 0 0 0 -7.62 -18.396Z" fill="#191919" stroke-width="2"></path>
  <path d="M181.764 286.67c-0.388 -2.462 -0.272 -13.572 -5.308 -16.362a7.164 7.164 0 0 0 -2.518 -0.822A5.11 5.11 0 0 0 179.2 266.8a0.6 0.6 0 0 0 -0.93 -0.71c-2.9 2.462 -6.84 1.422 -10.288 2.134a0.56 0.56 0 0 0 0.164 1.094 26.286 26.286 0 0 1 4.542 0.164c-7.024 0.316 -17.874 9.03 -34.37 5.364 -2.244 3.12 -10.562 13.956 -21.344 18.334 -1.696 -6.4 -9.084 -41.868 -18.06 -53.306 -10.288 -13.08 -44.22 -19.6 -51.116 -21.234 -4.378 -1.04 -9.632 -1.752 -13.134 1.86 -5.692 5.912 -1.642 16.474 -0.548 23.37 5.454 34.09 4.442 57.342 21.782 70.818 0.492 0.384 0.984 0.712 1.478 1.094 -0.056 0.054 -4.488 14.614 -6.4 21.782 -1.97 7.224 -3.886 14.448 -5.8 21.674a1.166 1.166 0 0 0 2.136 0.874c7.114 -12.588 14.558 -25.064 21.726 -37.652 0.492 0.218 22.712 13.08 37.052 12.314 -0.274 8.92 0.6 18 1.04 26.926 0.438 9.084 0.93 18.114 1.422 27.2 0.056 1.2 1.97 1.586 2.19 0.272q4.842 -28.154 9.686 -56.26c13.026 -3.174 24.3 -11.11 32.508 -16.8a217.942 217.942 0 0 0 15.6 35.246c0.6 1.148 2.19 0.328 1.97 -0.822 -1.2 -6.73 -5.964 -33.438 -8.646 -39.294a0.68 0.68 0 0 0 -1.26 0.328c0.384 6.4 5.8 28.076 6.624 32.454 -1.862 -3.722 -10.618 -22.876 -13.4 -28.568 2.738 -1.916 5.474 -3.886 8.21 -5.856 1.368 -0.984 0.054 -3.338 -1.368 -2.298 -17.678 12.916 -38.8 28.732 -62.062 23.916 -11.22 -2.298 -39.022 -14.832 -45.698 -22.712 -10.248 -12.152 -11.42 -28.08 -14.612 -51.172 -0.712 -5.362 -1.15 -10.782 -2.19 -16.09a58.714 58.714 0 0 1 -1.752 -12.314c0.056 -5.636 3.174 -9.084 9.086 -8.428 6.184 0.712 41.812 10.07 50.35 17.678 9.742 8.702 12.094 23.478 15.434 35.464 4.048 14.4 8.264 28.678 12.478 43.016a0.6 0.6 0 1 0 1.148 -0.328c-0.218 -0.766 -0.382 -1.532 -0.6 -2.3a9.884 9.884 0 0 0 3.502 1.642c3.504 0.876 15.654 5.912 38.474 -18.552 0.768 -0.822 1.2 -1.916 2.19 -2.462 0.876 2.134 -0.274 4.6 -1.094 6.566 -2.172 5.32 -1.938 7.304 0.11 16.858 1.258 6.074 2.516 12.2 3.776 18.278a101.6 101.6 0 0 0 4.05 14.174A3.04 3.04 0 0 0 176.84 350a14.8 14.8 0 0 0 4.542 -9.03c0.984 -4.058 1.784 -45.43 0.382 -54.3Zm-63.702 46.8c-2.574 15.106 -5.2 30.2 -7.772 45.314 -0.328 -5.91 -1.588 -35.354 -2.736 -44.056a45.502 45.502 0 0 0 10.508 -1.264Zm-51.172 -12.15c-5.636 9.96 -11.438 19.812 -17.13 29.718 1.15 -4.324 7.498 -27.364 8.6 -34.698a66.662 66.662 0 0 0 8.53 4.974Z" fill="#191919" stroke-width="2"></path>
  <path d="M185.268 333.574a128.226 128.226 0 0 1 15.268 -5.966c5.582 -3 12.15 1.422 4 7.334 -3.668 4.488 -20.414 11.712 -23.862 14.502 -0.548 0.438 0.054 1.26 0.656 1.094 4.544 -0.984 28.078 -13.572 29.6 -19.702a5.646 5.646 0 0 0 -0.874 -5.254c-1.642 -1.8 -4.214 -1.422 -6.294 -0.874a65.988 65.988 0 0 0 -18.936 8.098 0.442 0.442 0 0 0 0.442 0.768Z" fill="#191919" stroke-width="2"></path>
  <path d="M332.76 209.12a1.226 1.226 0 0 0 -1.422 -0.764 50.124 50.124 0 0 0 -8 1.2 0.686 0.686 0 0 0 -0.382 0.984c-0.274 2.08 2.9 3.722 4.706 3.94 2.636 0.224 6.314 -2.408 5.098 -5.36Z" fill="#0a1628" stroke-width="2"></path>
  <path d="M366.2 167.418c-0.928 -0.282 -28.514 -7.278 -31.852 -7.444 -0.712 -0.054 -1.096 1.096 -0.384 1.37 2.9 1.258 30.648 7.934 32.18 8.044 -5.362 12.8 -6.348 73.828 -5.582 88.6 -61.35 -10.836 -216.942 -46.356 -234.128 -49.968 -0.766 -0.164 -1.094 0.986 -0.328 1.15 82.53 21.782 217.216 48.106 234.292 51.116a25.012 25.012 0 0 0 -2.026 7c-0.108 0.6 0.768 1.094 1.096 0.436a24.268 24.268 0 0 0 2.572 -7.662c0.984 -4.432 1.916 -74.868 6.24 -91.34 0.272 -0.7 -1.202 -1.036 -2.08 -1.302Z" fill="#191919" stroke-width="2"></path>
  <path d="M188.058 313.762c10.756 2.8 21.454 6.676 32.4 8.702a0.884 0.884 0 0 0 0.492 -1.698c-10.508 -3.612 -21.726 -5.582 -32.508 -8.318a0.684 0.684 0 0 0 -0.384 1.314Z" fill="#191919" stroke-width="2"></path>
  <path d="M143.728 167.254c-0.438 -0.548 -16.2 -32.618 -15.926 -33.056s34.096 24.244 34.972 25.066 11.93 29.6 10.672 30.318c-1.258 0.768 -29.334 -21.782 -29.718 -22.328Z" fill="#191919" stroke-width="2"></path>
  <path d="M174.704 186.682a287.258 287.258 0 0 0 32.4 -11.384c-4.98 -3.776 -34.862 -23.2 -36.942 -23.094A56 56 0 0 0 159 155.6l5.364 3.776s9.298 27.508 10.34 27.306Z" fill="#191919" stroke-width="2"></path>
  <path d="M169.45 134.144a7.812 7.812 0 0 0 -0.164 -1.2 2.092 2.092 0 0 0 -0.6 -2.464c-2.462 -2.682 -8.702 -2.354 -11.876 -2.024 -0.766 0.108 -0.82 1.312 0 1.258a20.968 20.968 0 0 1 9.414 1.15c4 1.508 -1.834 4.58 -9.2 3.228a7.718 7.718 0 0 1 -4.27 -1.642c-1.476 -1.8 1.04 -2.572 2.464 -2.954a0.448 0.448 0 0 0 -0.11 -0.876c-2.298 -0.056 -5.472 1.478 -4 4.05 0.688 9.4 -4.388 17.272 8.702 18.278 3.23 0.22 6.4 0.164 8.702 -2.298a1.472 1.472 0 0 0 0.274 -0.6c0.11 -0.766 0.22 -1.478 0.274 -2.244 2.4 -0.164 3.502 -3.284 3.722 -5.472a5.724 5.724 0 0 0 -3.332 -6.19Zm-11.82 15a6.224 6.224 0 0 1 -4.652 -2.846 10.186 10.186 0 0 1 -0.548 -4.816 58.48 58.48 0 0 0 -0.164 -7.552c3.238 2.578 11.512 2.84 15.816 0.22 -0.218 1.8 -0.328 12.532 -0.272 13.188 -0.11 0.104 -2.788 3.092 -10.18 1.8Zm11.6 -5.582c0.054 -1.094 0.274 -6.13 0.274 -7.498a5.088 5.088 0 0 1 1.314 2.3c0.274 1.198 -0.054 4.436 -1.586 5.192Z" fill="#191919" stroke-width="2"></path>
  <path d="M175.58 189.474c5.484 -0.558 27.2 -7.718 31.852 -10.618 0.712 -0.438 0.164 -1.752 -0.6 -1.368 -6.678 3.512 -26.272 8.912 -31.416 10.946 -0.492 0.166 -0.492 1.106 0.164 1.04Z" fill="#191919" stroke-width="2"></path>
</svg>