<svg xmlns="http://www.w3.org/2000/svg" fill="none" viewBox="0 0 400 400" id="Output-Leaned-Knowledge--Streamline-Brooklyn" height="400" width="400">
  <desc>
    Output Leaned Knowledge Streamline Illustration: https://streamlinehq.com
  </desc>
  <g id="output-leaned-knowledge--ai-ml-tech-output-leaned-knowledge">
    <g id="screen">
      <path id="vector" fill="#0a1628" d="M131.102 119.0536c4.366 -0.052 2.856 0.37 2.708 -20.642 -0.02 -2.714 -0.086 -3.026 -2.818 -3.026 -103.084 -0.026 -102.88 -0.552 -102.97 3.422 -0.146 6.286 -0.504 12.574 -0.014 18.864 0.252 3.24 -0.028 2.598 103.094 1.382Zm-100.11 -18.266c-0.018 -3.046 -0.018 -1.232 87.97 -2.618 11.698 -0.184 12.23 -0.926 12.17 1.336 -0.428 16.166 0.766 16.166 -2.39 16.17 -100.642 0.104 -98.086 3.098 -97.692 -0.636 0.5 -4.746 -0.028 -9.506 -0.058 -14.252Z" stroke-width="2"></path>
      <path id="vector_2" fill="#0a1628" d="M72.212 129.5496c-1.07 -0.552 -1.81 -0.004 -2.248 1.032 -1.176 2.78 -3.088 5.142 -4.514 7.954 -3.216 -4.604 -5.864 -9.296 -7.236 -8.696 -3.626 1.584 6.432 10.392 5.184 13.006 -5.394 11.292 -5.754 11.928 -4.51 12.634 1.244 0.706 1.546 0.836 8.672 -12.758 6.188 -11.804 6.348 -12.298 4.652 -13.172Z" stroke-width="2"></path>
      <path id="vector_3" fill="#0a1628" d="M59.844 190.1738c2.688 5.358 4.248 -9.442 1.33 -9.436 -2.138 0.004 -1.658 3.022 -1.658 5.236 0.08 1.398 -0.344 2.862 0.328 4.2Z" stroke-width="2"></path>
      <path id="vector_4" fill="#0a1628" d="M61.464 198.2596c-2.97 -0.166 -1.506 10.9404 -0.048 10.9244 1.668 -0.018 1.172 -5.454 1.53 -7.798 0.178 -1.16 -0.2 -3.0564 -1.482 -3.1264Z" stroke-width="2"></path>
      <path id="vector_5" fill="#0a1628" d="M60.566 252.346c-0.044 1.634 -0.5 9.112 1.43 9.204 1.92 0.092 1.426 -8.12 1.05 -9.332 -0.432 -1.392 -2.448 -1.122 -2.48 0.128Z" stroke-width="2"></path>
      <path id="vector_6" fill="#0a1628" d="M60.334 173.0618c0.424 1.068 1.076 0.962 1.72 -0.01 0.752 -1.134 0.47 -2.386 0.59 -3.34 0.224 -9.888 -5.806 -5.472 -2.31 3.35Z" stroke-width="2"></path>
      <path id="vector_7" fill="#0a1628" d="M60.6 241.478c0.19 2.1 2.118 2.228 2.252 0.076 0.278 -4.428 0.56 -9.118 -1.136 -9.124 -1.554 -0.004 -1.212 1.282 -1.212 5.174 0.172 0 -0.076 1.974 0.096 3.874Z" stroke-width="2"></path>
      <path id="vector_8" fill="#0a1628" d="M60.242 217.348c-0.984 8.648 3.066 14.394 2.418 0.038 -0.072 -1.588 -2.214 -1.838 -2.418 -0.038Z" stroke-width="2"></path>
      <path id="vector_9" fill="#0a1628" d="M49.09 145.5496c0.052 1.516 -1.616 1.968 -2.466 0.988 -1.142 -1.316 -2.452 -2.48 -3.408 -3.954 -1.688 -2.604 -4.49 7.402 -7.246 5.564 -0.964 -0.642 -0.428 -1.536 0.052 -2.342 1.162 -1.95 2.256 -3.944 3.702 -5.706 1.804 -2.2 -5.744 -7.05 -3.588 -8.728 2.758 -2.146 5.094 6.504 6.97 3.772 2.826 -4.112 3.516 -4.632 4.472 -4.02 0.822 0.528 0.794 1.336 0.342 2.096 -0.912 1.54 -1.616 3.226 -2.822 4.572 -1.634 1.82 2.932 4.056 3.992 7.758Z" stroke-width="2"></path>
      <path id="vector_10" fill="#0a1628" d="m119.734 301.962 -103.736 0.428c-4.638 -0.406 0.578 -0.02 -3.788 -175.2122 -0.36 -14.45 -0.438 -28.904 -1.25 -43.34 -0.094 -1.686 0.39 -2.262 2.114 -2.304 19.144 -0.474 132.228 -0.702 235.74 -1.678 7.808 -2.726 16.774 -4.07 26.028 -4.17 -1.014 -0.666 -2.038 -1.604 -2.756 -2.576 -211.73 2.648 -265.69 0.358 -265.802 7.408 -0.752 47.86 1.85 175.1122 2.438 209.2962 0.238 13.808 -0.894 16.504 4.03 17.03 0.27 0.028 47.454 0.296 108.374 0.492 -0.654 -1.72 -1.128 -3.516 -1.392 -5.374Z" stroke-width="2"></path>
      <path id="vector_11" fill="#0a1628" d="M354.866 176.446c2.812 -2.228 -4.132 -11.592 -9.152 14.438 1.168 0.094 2.32 0.246 3.454 0.448 1.306 -7.29 3.108 -12.83 5.7 -14.886h-0.002Z" stroke-width="2"></path>
      <path id="vector_12" fill="#0a1628" d="M198.764 202.652c2.964 -13.374 7.78 -25.832 16.706 -26.696 6.1 -0.59 10.268 5.132 13.288 13.764 1.178 -0.424 2.372 -0.816 3.578 -1.182 -3.672 -10.172 -9.024 -17.156 -17.232 -16.36 -11.44 1.108 -18.156 17.318 -22.022 33.106 2.012 -1.118 3.88 -1.97 5.682 -2.632Z" stroke-width="2"></path>
      <path id="vector_13" fill="#0a1628" d="M111.82 261.568c-6.678 2.964 -16.176 -0.292 -21.242 -5.232 -1.996 -1.948 -3.178 -12.992 -4.836 -26.178 0.044 0.008 0.012 -0.088 27.074 -0.036 0.144 -0.984 0.296 -1.98 0.462 -2.99 -9.84 -0.112 -26.744 -0.276 -27.932 -0.05 -1.402 -10.838 -3.178 -22.724 -6.002 -32.0184 -8.55 -28.136 -34.674 -33.262 -44.072 33.0964 -6.208 0.202 -10.86 -0.178 -13.238 0.02 -2.832 0.238 -3.344 1.964 -0.286 2.142 2.34 0.136 7.23 -0.282 13.274 -0.214 -1.092 8.054 -1.908 16.74 -2.454 26.928 -0.134 2.5 3.664 2.662 3.796 0.204 0.328 -6.072 1.126 -16.346 2.708 -27.48 10.726 0.104 25.456 0.19 42.776 0.256 1.83 14.084 3.268 26.302 6.072 29.042 5.972 5.832 16.364 9.28 24.362 6.426 -0.174 -1.26 -0.33 -2.568 -0.464 -3.922l0.002 0.006ZM39.326 228.04c3.326 -22.442 9.854 -47.6464 22.072 -48.8344 12.806 -1.246 17.098 25.2904 20.114 48.2064 -17.002 0.138 -31.532 0.338 -42.186 0.628Z" stroke-width="2"></path>
      <path id="vector_14" fill="#0a1628" d="M381.124 77.7838c0.388 6.654 1.828 106.572 2.67 170.4462 2.69 3.52 4.746 7.656 6.382 12.196 -0.43 -56.032 -1.582 -144.3902 -1.854 -154.5882 -0.866 -32.43 -0.618 -32.402 -2.994 -33.182 -2.036 -0.668 -84.93 0.124 -97.254 0.25 -0.778 1.28 -1.928 2.366 -3.296 3.136 6.394 0.524 12.778 1.606 18.876 3.2 29.43 -0.39 56.232 -0.868 77.47 -1.458Z" stroke-width="2"></path>
    </g>
    <g id="robot">
      <path id="vector_15" fill="#0a1628" d="M281.186 174.1542c32.878 0 48.068 -11.05 42.88 -12.564 -16.566 -4.832 -21.532 -29.38 -12.588 -45.556 6.688 -12.092 19.408 -7.23 18.01 -8.858 -6.136 -7.14 -17.896 -11.556 -17.966 -11.556 -8.054 0 -21.026 7.54 -25.122 9.87 -6.896 3.92 -10.236 5.826 -17.838 4.594 -10.344 -1.676 -21.322 -3.892 -19.44 -13.738 0.94 -4.914 -9.868 3.014 -14.806 11.912 -1.144 2.062 -4.076 7.644 -1.748 8.23 21.522 5.41 35.034 8.848 58.21 8.848 9.456 0 14.008 -1.212 12.692 27.922 -0.422 9.356 -4.1 11.988 -27.08 11.988 -16.992 0 -31.794 -3.334 -41.644 -6.32 -6.922 -2.098 3.454 15.224 46.444 15.224l-0.004 0.004Z" stroke-width="2"></path>
      <path id="vector_16" fill="#191919" d="M366.066 203.192c-6.822 -3.622 -13.952 -7.172 -21.734 -7.532 -10.686 -0.492 -20.614 -4.518 -31.182 -5.222 -14.354 -0.958 -13.902 -1.106 -13.41 -2.842 1.712 -6.034 0.31 -6.87 3.084 -7.422 20.652 -4.108 24.3 -7.784 30.122 -13.22 8.738 -8.16 6.264 -9.764 10.606 -11.956 6.158 -3.106 12.038 -11.172 11.152 -22.1 -1.116 -13.79 -6.65 -17.652 -13.994 -20.75 -2.142 -0.904 -0.2 -7.63 -12.008 -16.26 -23.952 -17.508 -69.74 -21.31 -90.544 -4.938 -15.902 12.514 -17.438 26.362 -17.896 49.238 -0.138 6.886 1.466 13.5 3.938 19.906 4.634 12 22.762 18.508 36.08 20.5 3.636 0.544 1.422 2.304 1.336 6.376 -0.066 3.14 -1.178 1.512 -16.64 3.526 -14.312 1.864 -27.732 9.986 -31.348 13.732 -1.792 1.856 -9.162 -1.066 -22.286 7.878 -13.05 8.894 -7.208 17.368 -13.23 21.23 -2.622 1.682 -5.208 4.038 -7.626 6.666 1.14 -14.45 2.22 -33.392 0.67 -39.412 -2.298 -8.92 -7.3 -10.412 -4.59 -12.292 2.276 -1.578 4.728 -2.776 6.476 -4.914 9.582 -11.71 5.286 -26.54 22.472 -33.396 7.812 -3.116 4.616 -7.512 3.654 -11.49 -1.936 -8.008 -12.22 -0.646 -19.486 3.24 -0.7 0.374 -4.852 2.542 -6.152 3.36 -0.58 -1.494 -1.532 -4 -1.678 -4.194 -2.052 -2.712 -5.474 -1.46 -11.258 0.288 -3.568 1.078 -1.216 -0.588 -11.38 2.12 -8.12 2.164 -9.582 6.51 -10.22 14.982 -0.908 12.04 3.528 17.968 -1.164 17.486 -0.528 -0.054 -4.684 2.438 -6.848 8.5 -7.388 20.7 -8.662 23.166 -11.386 36.118 -4.256 20.242 -5.04 50.264 4.034 66.896 1.084 1.986 2.162 3.568 1.478 6.244 -3.67 14.336 11.47 33.568 30.246 26.91 0.504 -0.178 1.268 -0.836 2.024 -1.8 11.124 -0.636 30.856 -4.216 37.768 -12.336 5.81 -6.826 5.44 -7.29 6.542 -7.522 3.29 12.26 7.76 23.992 15.526 34.156 1.05 1.376 3.24 -0.686 2.416 -2.82 -3.406 -8.834 -6.138 -17.886 -9.384 -26.772 -6.072 -16.622 -8.828 -58.342 -2.128 -78.538 5.55 -16.73 10.914 -18.202 21.306 -24.258 9.326 -5.434 19.938 -5.64 30.848 -5.64 -1.002 9.58 -1.962 10.842 1.716 13.904 6.54 5.448 19.506 8.53 32.554 4.548 3.488 -1.064 3.044 -9.232 4.248 -17.05 0.496 -3.216 0.06 -2.06 23.402 0.618 1.544 0.178 2.86 0.912 4.714 1.36 -12.088 8.33 -11.562 26.886 -7.418 39.516 5.492 16.738 34.676 18.772 48.216 8.952 10.062 -7.298 13.71 -35.428 -1.64 -43.578l0.002 0.004ZM164.33 143.666c6.304 -2.686 5.36 -1.126 7.034 15.72 0.446 1.64 -2.248 2.936 -3.816 3.702 -5.712 2.786 -0.814 -1.37 -5.036 -16.95 -0.408 -1.506 0.408 -1.87 1.818 -2.472Zm-11.352 2.066c4.722 -1.492 5.426 -1.168 6.306 3.592 0.908 4.914 1.642 9.86 1.786 14.44 0.068 2.176 -2.324 4.404 -4.016 4.23 -1.536 -0.158 0.318 -7.868 -5.346 -20.186 -0.606 -1.316 0.102 -1.708 1.27 -2.076Zm-6.148 3.588c1.854 0 2.678 2.286 3.23 4.866 3.342 15.582 2.756 20.182 8.24 17.492 3.806 -1.868 7.206 -4.486 11.362 -5.73 1.312 -0.394 5.23 -2.76 5.118 -6.116 -0.166 -4.906 -0.388 -8.56 -0.596 -11.032 2.84 -1.31 9.344 -5.49 16.324 -8.922 4.686 -2.304 5.108 -2.052 6.11 2.974 1.036 5.198 -6.832 2.43 -14.17 11.884 -10.218 13.164 -5.482 24.994 -19.302 30.34 -3.43 1.328 -5.666 -5.304 -18.56 -8.88 -0.636 -0.176 -0.822 -0.422 -0.842 -1.06 -0.146 -4.994 -2.064 -25.812 3.086 -25.816Zm6.42 166.288c-20.106 4.944 -27.704 -22.784 -20.608 -18.618 5.408 3.174 10.444 2.926 15.102 0.642 1.182 -0.58 2.576 0.276 2.57 1.564 -0.052 12.416 6.658 15.498 2.936 16.412Zm-31.494 -60.134c-1.8 -21.108 3.916 -36.018 8.516 -50.892 7.09 -22.928 6.496 -24.558 13.776 -22.244 5.944 1.89 10.954 5.344 15.538 9.626 5.728 5.35 7.094 11.78 6.738 18.988 -5.362 108.496 -40.07 97.234 -44.566 44.52l-0.002 0.002Zm76.248 39.378c-12.876 17.356 -30.04 18.308 -38.384 19.168 0.888 -4.154 -2.136 -1.872 -3.654 -17.158 -0.446 -4.486 0.384 -7.378 1.388 -9.406 6.316 -12.764 11.798 -32.102 12.25 -37.062 3.118 -3.91 6.358 -7.798 10.178 -11.546 0.86 10.106 6.478 23.042 16.74 24.862 3.236 0.574 -0.094 2.858 3.444 24.876 0.408 2.534 -0.602 4.434 -1.962 6.268v-0.002Zm-2.058 -37.188c-3.04 -1.822 -5.026 -4.41 -6.024 -7.708 -2.258 -7.442 -4.82 -16.514 0.704 -27.1 3.372 -6.462 10.164 -8.72 16.45 -11.494 -13.6 28.23 -5.548 49.646 -11.128 46.3l-0.002 0.002Zm147.348 -140.932c6.286 2.896 12.248 16.346 6.068 28.572 -6.104 12.078 -20.602 4.994 -20.186 -12.802 0.234 -9.998 6.11 -19.458 14.118 -15.77Zm-5.474 37.216c-1.948 0.442 -10.358 3.478 -14.184 -0.128 -17.698 -16.686 -7.518 -44.334 10.106 -39.516 -11.304 7.978 -10.81 33.77 4.078 39.644Zm-73.158 -68.51c9.95 -1.274 23.56 -0.576 40.004 4.11 -4.086 1.668 -6.022 1.358 -17.448 7.352 -7.198 3.776 -10.45 7.312 -14.256 6.894 -21.026 -2.304 -17.648 -3.126 -12.43 -15.476 0.856 -2.028 2.124 -2.624 4.13 -2.88Zm-40.228 59.606c-0.826 -11.532 1.622 -22.746 2.362 -23.322 1.18 -0.916 23.692 10.362 59.416 10.976 5.236 0.09 9.778 -1.782 10.054 0.47 0.442 3.602 2.172 22.958 -1.458 23.782 -20.516 4.662 -47.546 -0.992 -65.408 -6.072 -4.224 -1.202 -4.652 -1.45 -4.966 -5.834Zm64.048 65.498c-8.424 1.646 -15.974 -0.632 -22.852 -5.28 -3.164 -2.138 0.27 -4.134 0.96 -20.256 0.24 -5.626 -0.09 -0.77 29.856 -3.382 -4.966 22.798 -2.12 27.776 -7.964 28.918Zm-12.648 -32.962c-16.746 -0.456 -31.398 -4.762 -38.314 -8.606 -10.818 -6.012 -12.174 -16.456 -11.562 -16.812 0.058 -0.028 32.116 13.832 67.988 8.268 4.88 -0.756 5.724 -2.77 5.93 -7.322 0.298 -6.576 0.286 -13.178 -0.708 -19.692 -0.478 -3.126 -1.668 -4.652 -4.04 -4.61 -28.23 0.502 -43.02 -3.792 -66.71 -9.736 -3.06 -0.768 2.946 -25.54 28.668 -31.926 -2.662 3.174 -3.768 6.438 -4.42 9.87 -0.618 3.25 -0.064 4.374 2.96 5.94 4.232 2.19 8.886 2.918 13.534 3.674 8.32 1.35 9.804 -1.434 23.488 -8.592 7.484 -3.916 17.98 -6.616 20.024 -5.764 7.318 3.048 14.344 6.564 19.572 12.634 1.63 1.892 3.278 3.854 3.958 6.006 -9.846 0 -17.104 -1.246 -21.54 6.776 -2.848 5.152 -5.35 12.51 -3.692 21.07 4.658 24.054 21.264 20.028 24.666 19.954 -7.95 7.108 -16.75 20.042 -59.806 18.87l0.004 -0.002Zm74.944 68.678c-8.586 -0.212 -22.69 -1.22 -25.844 -8.996 -3.746 -9.23 -3.426 -18.56 -0.294 -27.864 2.874 -8.54 20.166 -11.332 38.432 -0.242 11.124 6.752 9.464 37.642 -12.294 37.102Z" stroke-width="2"></path>
      <path id="vector_17" fill="#191919" d="M249.506 113.6318c-7.368 -3.956 -12.776 1.41 -13.79 -0.204 -0.28 -0.446 -0.306 -1.004 0.014 -1.488 6.304 -9.522 20.152 -1.85 16.726 2.182 -1.018 1.198 -2.02 0.01 -2.95 -0.49Z" stroke-width="2"></path>
      <path id="vector_18" fill="#191919" d="M290.006 117.7038c-6.782 -5.156 -11.386 0.556 -12.644 -2.182 -1.292 -2.808 3.788 -4.51 7.032 -4.766 10.34 0.994 13.3 12.792 5.612 6.948Z" stroke-width="2"></path>
      <path id="vector_19" fill="#191919" d="M249.748 105.0744c0.052 -0.048 0.394 0.028 0.142 0.252l-0.142 -0.252Z" stroke-width="2"></path>
      <path id="vector_20" fill="#191919" d="M231.144 139.99c-1.768 -1.078 -1.568 -2.836 -1.882 -4.442 1.578 -8.92 8.878 -3.824 5.218 3.602 -0.71 1.44 -1.958 1.68 -3.336 0.84Z" stroke-width="2"></path>
      <path id="vector_21" fill="#191919" d="M286.388 141.6482c-0.39 9.442 -8.004 4.674 -5.588 -1.602 0.37 -0.96 0.636 -2.066 2.1 -2.28 2.228 -0.326 3.602 1.13 3.488 3.882Z" stroke-width="2"></path>
      <path id="vector_22" fill="#0a1628" d="M264.512 334.622c-13.848 -25.734 -18.286 -31.438 -18.46 -37.74l-21.268 -0.912c-0.884 -0.038 -1.616 -0.556 -1.74 -1.23 -0.458 -2.504 -5.23 -41.954 -0.532 -41.406 17.942 2.088 45.392 2.91 65.106 3.22 10.154 -5.504 20.698 -10.884 23.124 -10.884 3.802 0 4.888 0.638 13.128 14.344 0.644 -3.27 1.302 -6.428 1.902 -9.406 -2.824 -1.612 -7.298 -4.352 -9.712 -11.714 -3.738 -11.404 -4.87 -28.05 3.678 -38.698 -9.166 -1.0838 -14.968 -1.9778 -17.544 -2.2238 -1.14 8.5198 -0.57 16.9298 -6.566 18.7598 -14.042 4.284 -28.368 1.11 -35.976 -5.232 -4.624 -3.854 -4.13 -7 -3.398 -13.0398 -16.36 0.228 -20.376 2.5438 -28.074 6.8958 -8.292 4.686 -12.076 6.822 -16.63 20.552 -6.204 18.698 -4.044 59.488 2.096 76.29 7.712 21.102 3.688 13.424 13.206 34.94 18.612 0.85 25.188 -1.378 34.222 1.25 1.11 -1.164 2.342 -2.274 3.672 -3.332l-0.232 -0.432 -0.002 -0.002Z" stroke-width="2"></path>
      <path id="vector_23" fill="#191919" d="M184.924 122.4702c-5.192 13.364 -6.506 18.616 -11.688 27.2 -1.042 1.726 -4.94 2.534 -0.812 -7.836 1.584 -3.976 4.374 -9.994 9.164 -20.782 0.546 -1.23 1.284 -2.382 2.818 -1.664 1.394 0.654 0.964 1.936 0.518 3.082Z" stroke-width="2"></path>
      <path id="vector_24" fill="#0a1628" d="M163.428 310.194c-2.356 0 -3.758 -11.29 -3.992 -13.656 -0.738 -7.47 2.436 -8.958 3.536 -11.866 2.734 -7.238 3.264 -10.758 6.472 -18.376 5.408 -12.84 2.332 -13.098 3.726 -14.83 1.556 -1.932 4.14 -5.784 4.884 -3.416 3.04 9.65 8.824 16.416 15.886 18.542 0.726 0.218 0.686 0.918 0.69 1.382 0.158 21.282 3.878 20.38 0.532 24.884 -8.414 11.328 -22.32 17.334 -31.732 17.334l-0.002 0.002Z" stroke-width="2"></path>
      <path id="vector_25" fill="#0a1628" d="M157.16 194.4122c-5.446 -5.09 -9.926 -7.484 -14.44 -8.924 -2.798 -0.894 -2.59 -1.406 -6.354 11.044 -6.658 22.0238 -12.996 36.7878 -11.128 58.6558 1.436 16.816 9.752 45.404 20.77 32.478 12.422 -14.572 15.89 -57.966 16.822 -76.874 0.362 -7.328 -1.39 -12.3778 -5.67 -16.3798Z" stroke-width="2"></path>
      <path id="vector_26" fill="#191919" d="M212.59 368.892c2.272 4.656 3.874 3.914 6.016 6.31 4.754 5.316 4.43 2.802 6.096 4.804 1.716 2.062 4.062 3.354 6.306 4.748 3.62 2.248 10.882 -7.54 26.178 -12.45 4.248 -1.364 12.512 -1.578 13.79 -0.57 11.346 8.94 52.016 14.258 85.68 0.428 11.104 -4.562 16.568 -14.654 16.518 -16.936 -0.078 -3.46 2.048 -5.484 4.576 -7.57 8.612 -7.108 10.516 -18.632 5.464 -28.25 -11.194 -21.312 -40.062 -15.304 -44.528 1.816 -1.102 4.22 -2.946 -3.922 -40.328 4.98 -32.736 7.796 -34.616 18.802 -36.798 18.01 -5.126 -1.864 -10.444 -1.804 -15.824 -1.588 -30.668 1.236 -32.688 -3.926 -33.656 4.106 -0.942 7.802 -0.27 6.766 10.592 9.1 -9.176 6.41 -12.762 7.564 -10.078 13.062h-0.004Zm24.11 -22.456c-9.18 6.034 -8.758 6.84 -10.316 6.4 -2.876 -0.81 -5.964 -0.766 -8.714 -2.072 -0.79 -0.374 -2.092 0.19 -2.4 -0.926 -0.23 -0.836 0.02 -1.806 0.062 -2.714 0.12 -2.576 1.734 -0.324 21.368 -0.69v0.002Zm132.798 -7.336c-6.816 -7.468 -14.848 -13.024 -25.07 -15.154 -2.172 -0.452 -2.156 -0.632 -1.398 -2.79 2.472 -7.022 11.024 -10.24 16.836 -10.102 18.84 0.446 24.814 20.482 13.932 32.036 -2.082 2.21 -1.398 -0.812 -4.3 -3.992v0.002Zm-98.59 24.748c-4.844 -9.536 -8.904 -14.398 -2.538 -19.772 14.414 -12.168 61.28 -24.054 81.388 -14.018 50.868 25.388 -8.146 56.308 -67.864 41.52 -4.628 -1.146 -8.698 -3.224 -10.986 -7.73Zm-34.098 -12.488c6.81 -5.064 14.156 -6.328 22.304 -4.566 3.872 0.838 -2.682 1 6.034 16.228 4.176 7.294 1.906 0.01 -12.782 6.538 -21.882 9.726 -17.448 15.262 -24.276 9.294 -1.838 -1.606 17.818 -9.752 19.13 -11.542 2.104 -2.87 -1.606 -2.896 -4.632 -1.648 -14.914 6.142 -16.858 11.756 -19.382 9.498 -3.854 -3.446 -4.446 -0.782 18.094 -13.966 2.21 -1.292 1.544 -3.484 -1.274 -2.898 -3.574 0.742 -16.92 7.256 -20.332 9.878 -1.966 1.512 -2.584 1.168 -3.626 -1.102 -1.434 -3.128 1.974 -1.76 20.742 -15.714Z" stroke-width="2"></path>
      <path id="vector_27" fill="#191919" d="M391.008 286.738c-4.888 -32.726 -12.834 -38.95 -16.622 -41.07 -1.054 1.654 -2.234 3.184 -3.682 4.504 9.922 8.948 13.67 22.804 15.62 35.6 3.434 22.556 3.666 25.754 1.554 36.038 -0.176 0.856 -0.608 1.956 0.59 2.376 1.056 0.37 1.676 -0.556 2.252 -1.264 5.378 -6.61 1.932 -25.198 0.29 -36.184h-0.002Z" stroke-width="2"></path>
      <path id="vector_28" fill="#191919" d="M330.836 284.354c0.27 -9.736 3.536 -23.446 3.454 -28.344 -1.42 -0.422 -2.842 -0.842 -4.214 -1.378 -3.36 17.192 -7.118 33.068 -3.516 47.37 2.808 11.156 7.896 15.58 9.888 14.284 3.288 -2.14 -6.288 -7.622 -5.612 -31.932Z" stroke-width="2"></path>
      <path id="vector_29" fill="#0a1628" d="M348.342 332.736c-18.286 -9.126 -63.888 1.734 -77.952 13.61 -3.36 2.836 -2.838 4.614 1.322 12.422 2.666 5.004 3.406 8.038 10.944 9.908 53.258 13.216 113.79 -11.928 65.688 -35.938l-0.002 -0.002Z" stroke-width="2"></path>
      <path id="vector_30" fill="#0a1628" d="M382.252 312.47c1.298 1.544 3.882 0.646 3.902 -1.35 0.05 -5.014 -0.822 -11.404 -2.88 -24.914 -3.06 -20.1 -11.908 -35.634 -16.208 -32.968 -8.974 5.566 -19.9 4.9 -29.674 2.966 0.128 11.628 -8.892 30.508 1.81 52.584 2.442 5.038 6.058 -6.034 22 -6.034 8.402 0 15.802 3.47 21.05 9.716Z" stroke-width="2"></path>
    </g>
    <g id="book">
      <path id="vector_31" fill="#191919" d="M315.974 292.142c-5.41 -9.072 -5.626 -10.648 -8.206 -9.256 -16.602 8.958 -25.292 12.63 -41.354 21.354 -2.29 1.244 -1.06 1.552 3.492 11.062 0.776 1.62 1.802 1.65 3.278 0.898 22.886 -11.64 44.192 -21.706 42.79 -24.058Zm-4.51 1.136c-13.036 6.036 -24.866 13.158 -38.08 20.1 -2.242 1.178 -1.378 -0.224 -4.61 -5.298 -1.402 -2.2 0.566 -1.974 18.94 -11.766 6.472 -3.448 13.158 -6.528 19.372 -10.42 1.108 -0.694 1.782 -0.874 2.452 0.58 2.876 6.232 4.868 5.442 1.926 6.804Z" stroke-width="2"></path>
      <path id="vector_32" fill="#191919" d="M268.95 332.394c0.932 -0.566 1.896 -1.114 2.888 -1.646 -4.756 -8.712 -10.566 -19.054 -17.638 -30.888 -1.722 -2.88 -0.202 -0.314 53.32 -32.474 1.122 -0.674 0.182 -3.784 12.76 19.216 0.06 -1.582 0.158 -3.176 0.29 -4.774 -0.066 -0.124 -0.134 -0.246 -0.2 -0.37 -12.75 -23.544 -10.074 -13.78 -8.89 -25.854 3.162 4.662 6.712 10.186 10.328 15.98 0.208 -1.35 0.428 -2.692 0.658 -4.026 -4.548 -7.532 -8.2 -13.51 -9.514 -15.588 -1.03 -1.63 -2.2 -1.706 -3.886 -1.068 -3.886 1.466 -35.72 19.112 -39.702 21.474 -11.528 6.838 -14.798 7.018 -15.528 10.334 -4.366 19.8 -6.204 9.94 15.1 49.662l0.016 0.028 -0.002 -0.006Zm-10.454 -50.578c10.47 -5.184 47.512 -25.074 50.226 -26.742 0.2 1.114 -0.3 3.208 -0.3 3.208s-46.014 24.854 -48.386 26.2c-2.304 1.306 -1.272 2.058 0.672 1.33 8.73 -3.272 46.958 -25.88 47.686 -25.666 0.142 1.776 -0.272 3.048 -2.12 4.096 -44.93 25.468 -43.326 25.46 -51.338 29.87 2.6 -12.554 1.93 -11.486 3.56 -12.292v-0.004Z" stroke-width="2"></path>
    </g>
    <g id="bulb">
      <path id="vector_33" fill="#191919" d="M280.344 60.0982c-9.304 -0.404 -4.538 -1.806 -12.278 -10.364 -6.054 -6.694 -7.216 -17.538 -2.684 -25.374 10.956 -18.94802 48.498 -9.16002 23.36 32.198 -2.048 3.37 -5.052 3.686 -8.396 3.54h-0.002Zm-2.342 -4.086c-1.326 -10.444 0.966 -11.654 -1.534 -12.226 -7.606 -1.744 -9.564 -11.594 -4.252 -13.518 3.498 -1.268 6.144 2.044 6.842 5.546 1.108 5.564 0.4 6.158 2.09 5.684 1.792 -0.504 0.276 -4.69 1.602 -9.014 1.812 -5.91 9.484 -4.78 8.396 1.882 -0.428 2.618 -2.266 5.578 -5.664 7.632 -1.896 1.146 -1.448 0.356 -1.002 11.632 0.248 6.254 8.724 -8.036 9.736 -20.542 0.528 -6.524 -5.302 -16.99402 -17.468 -14.01202 -7.142 1.75002 -14.17 12.14602 -8.924 23.32202 2 4.262 5.274 7.964 8.012 11.894 0.446 0.642 0.926 1.306 2.166 1.724v-0.004Zm-4.766 -23.888c-5.094 1.688 1.34 10.38 3.978 9.404 0.922 -0.342 0.12 -10.762 -3.978 -9.404Zm10.99 7.584c6.14 -3.502 5.264 -8.48 3.492 -8.882 -3.232 -0.732 -3.796 5.702 -3.492 8.882Zm-4.268 15.514c-0.006 0.694 0.148 1.202 1.016 1.05 0.628 -0.11 1.388 0.02 1.358 -1.032 -0.336 -12.322 0.17 -11.592 -1.008 -11.49 -1.664 0.144 -1.272 0.232 -1.368 11.47l0.002 0.002Z" stroke-width="2"></path>
      <path id="vector_34" fill="#191919" d="M284.1 61.47c0.94 0.096 1.232 0.384 1.23 1.452 0 0.542 -0.346 1.024 -0.912 1.428 -1.93 1.376 -6.44 1.828 -8.724 0.52 -1.754 -1.002 -1.65 -3.158 0.514 -3.55 1.78 -0.322 7.69 0.13 7.892 0.15Z" stroke-width="2"></path>
      <path id="vector_35" fill="#191919" d="M283.866 68.6244c0.558 2.58 -3.87 5.414 -7.204 1.896 -1.686 -1.778 -0.446 -3.168 1.35 -3.074 4.32 0.226 5.608 0.038 5.854 1.178Z" stroke-width="2"></path>
    </g>
  </g>
</svg>