<svg xmlns="http://www.w3.org/2000/svg" viewBox="0 0 400 400" id="I-Have-A-Question--Streamline-Tokyo" height="400" width="400">
  <desc>
    I Have A Question Streamline Illustration: https://streamlinehq.com
  </desc>
  <g>
    <path d="M163.91 198.506s-4.428 9.884 -12.56 8.47c-6.922 -1.2 -0.766 -11.2 -9.496 -15.172s-22.906 -6.772 -25.6 -18.338 0.894 -14.818 -7.306 -17.65 -9.8 -2.83 -11.88 -6.674 -35.814 -8.542 -39.338 3.846 -4.63 16.436 -1.258 20.478 7.328 2.354 7.282 11.554 -2.2 16.486 2.322 20.8 10.658 1.584 14.502 5.902 3.858 2.96 5.8 8.182 3.552 3.878 7.574 5.956 9.844 5.222 12.704 10.978 5.34 16.48 9.616 26.302 4.542 39.648 9.158 52.352 5.032 17.824 2.258 21.896 -6.184 5.788 -3.02 9.132 10.4 0.4 4 7.4 -5.812 8.156 -4.2 11.952 4.306 3.558 5 8.232 3.2 2.4 6.094 4.306 36.55 12.6 71.954 5.956c20.256 -3.8 16.102 -16.24 15.382 -21.352s-1.2 -24.246 1.8 -33.036a16.106 16.106 0 0 0 3.078 4.372s22.724 -18.388 31.634 -25.93a18.926 18.926 0 0 0 0.22 -12.648c-2.344 -6.702 -8.294 -9.822 -6.238 -16.172s3.702 -10.464 1.6 -20.122 -2.676 -24.266 -18.368 -31.102c-13.154 -5.73 -18.856 -4.6 -21.478 -8.474s-11.522 -12.762 -18.918 -15.556 -32.318 -5.84 -32.318 -5.84Z" fill="#ffffff" fill-rule="evenodd" stroke-width="2"></path>
    <path d="M191.27 239.22c0.12 0.2 -6.526 81.328 -9.524 102.292 0 0 14.24 17.124 19.6 22.108 0 0 8.07 -18.638 9.58 -26.73 -1.05 -15.582 -6.116 -82.89 -11.458 -97.64 0 0 2.174 -11.694 1.844 -16.8 -5.886 -3.85 -11.178 -3.27 -15.738 2.754a148.524 148.524 0 0 0 5.696 14.016Z" fill="#5bc6a7" fill-rule="evenodd" stroke-width="2"></path>
    <path d="M260.556 295.442c-2.384 -6.82 -8.098 -9.788 -6.232 -15.536 2.374 -7.316 3.678 -11.224 1.616 -20.644 -2.224 -10.2 -2.978 -24.85 -18.944 -31.8 -12.716 -5.54 -18.766 -4.752 -21.052 -8.118a55.272 55.272 0 0 0 -12.16 -12.028 24.368 24.368 0 0 0 -1.922 -2.2 1 1 0 1 0 -1.428 1.4 21.338 21.338 0 0 1 5.066 21.684c-1.2 -5.9 -5.16 -9.3 -11.748 -9.3 -7.69 0 -11.652 9.12 -13.096 13.434 -4.164 -5.384 -16.284 -13.92 -18.316 -20.532 -2.2 -7.176 3.136 -13.79 3.188 -13.854a1 1 0 1 0 -1.542 -1.274 20.66 20.66 0 0 0 -3.018 5.39A9.674 9.674 0 0 1 151.516 206c-5.706 -0.954 -0.13 -10.952 -9.248 -15.096 -8.914 -4.056 -22.486 -6.692 -25.038 -17.656 -2.64 -11.336 0.946 -15.294 -7.954 -18.368 -8.162 -2.814 -9.446 -2.748 -11.326 -6.2 -1.722 -3.166 -16.094 -5.548 -26.516 -4.388 -8.286 0.92 -13.358 3.838 -14.664 8.438 -3.498 12.308 -4.8 16.912 -1.066 21.4 3.518 4.216 7.088 2.328 7.05 10.912 -0.042 9.074 -2.288 16.838 2.632 21.522 4.778 4.55 10.948 1.914 14.444 5.842 3.87 4.35 3.756 2.88 5.62 7.868 2.124 5.688 4.182 4.498 8.052 6.494 11.576 5.986 12.38 9.448 16.4 21.73 1.53 4.688 3.264 10 5.468 15.06 4.186 9.618 4.468 39.452 9.132 52.296 4.4 12.084 4.966 17.186 2.374 21 -2.646 3.882 -6.754 6.328 -2.92 10.382 2.056 2.17 5.818 2.2 6.28 2.732 0.01 0.068 0.034 0.756 -2.298 3.306 -6.462 7.062 -6.21 8.722 -4.4 13.02 1.71 4.034 4.298 3.716 4.924 7.986 0.786 5.376 4.1 3.4 6.53 5 4.13 2.73 38.578 12.514 72.69 6.104 19.496 -3.662 17.422 -15.4 16.424 -21.046a107.538 107.538 0 0 1 0.878 -31.762 14.2 14.2 0 0 0 2.086 2.542 1 1 0 0 0 1.312 0.046c0.57 -0.46 31.62 -25.6 31.924 -26.312a19.776 19.776 0 0 0 0.25 -13.41Zm-66.8 -74.548a10.35 10.35 0 0 1 6.568 1.938 99.748 99.748 0 0 1 -1.742 15.676c-2.326 0.76 -5.6 1.292 -6.4 0.278a0.958 0.958 0 0 0 -0.124 -0.184 125.098 125.098 0 0 1 -5.478 -13.534 9.24 9.24 0 0 1 7.172 -4.174Zm-57.654 156.68a7.482 7.482 0 0 0 -3.358 -1.116c-1.432 -0.2 -1.968 -0.27 -2.296 -2.5 -0.748 -5.122 -3.516 -4.83 -5.108 -8.6 -1.444 -3.4 -1.832 -4.324 4.07 -10.774 2.34 -2.558 3.108 -4.026 2.738 -5.232 -0.706 -2.314 -4.77 -1.45 -6.742 -3.53 -1.69 -1.79 -1.15 -2.6 0.99 -5.146a33.8 33.8 0 0 0 2.13 -2.736c3.03 -4.448 2.508 -9.988 -2.146 -22.8 -4.556 -12.542 -4.822 -42.4 -9.178 -52.4 -2.166 -4.972 -3.884 -10.238 -5.4 -14.884 -4.144 -12.69 -5.17 -16.572 -17.376 -22.888 -4.232 -2.184 -5.33 -0.688 -7.096 -5.416 -2.028 -5.424 -2.2 -4.234 -6 -8.496 -4.266 -4.8 -10.244 -1.852 -14.558 -5.962 -4.112 -3.914 -2.054 -11.016 -2.012 -20.066 0.044 -9.746 -4.38 -8.448 -7.514 -12.2 -2.942 -3.526 -2.128 -6.964 1.452 -19.564 1.35 -4.746 7.8 -6.426 12.962 -7 11.238 -1.238 23.666 1.754 24.538 3.356 2.384 4.4 4.612 4.448 12.432 7.146 7.488 2.586 3.918 5.164 6.658 16.93 2.8 12.032 17.306 15 26.158 19.022 7.122 3.238 3.12 11 7.244 14.218 1.814 6.932 6.914 48.274 -11.2 52.148a1 1 0 0 0 0.418 1.956c21.428 -4.584 13.748 -49.286 13.048 -53.116a11.224 11.224 0 0 0 9 -2.058 14.716 14.716 0 0 0 0.464 6.522c2.528 8.22 17.758 18.078 19.624 22.74a1 1 0 0 0 1.9 -0.136 33.02 33.02 0 0 1 3.238 -7.864 118.8 118.8 0 0 0 5.074 12.38c-8.4 105.462 -10.18 101.568 -9.288 102.638 0.422 0.508 7.73 9.29 13.764 16a18.6 18.6 0 0 0 1.888 8.4c2.432 5.734 4.678 4.658 2.212 9.552 -2.416 4.8 -6.182 6.6 -6.326 9.142 -28.798 1.874 -53.65 -5.84 -56.408 -7.666Zm122.456 -69.756c-8.028 6.784 -26.826 22.03 -30.716 25.18a15.874 15.874 0 0 1 -2.118 -3.174c3.68 -19.38 3.676 -21 4.178 -27.142 0.4 -4.8 0.732 -8.96 1.922 -11.084a66.576 66.576 0 0 0 5.736 -18.174c2.782 -0.412 10.538 -8.626 12.322 -16.654a1 1 0 1 0 -1.954 -0.434 26.506 26.506 0 0 1 -9.984 14.568 51.368 51.368 0 0 0 0.38 -10.686 0.97 0.97 0 0 0 -1.074 -0.92 1 1 0 0 0 -0.92 1.072 59.5 59.5 0 0 1 -2.4 20.044c-6.384 4.434 -17.866 -0.25 -17.984 -0.3a1 1 0 0 0 -1.382 0.978c0.162 2.838 0.974 19.91 0.616 24.354 -0.06 0.732 -0.184 1.43 -0.304 2.11 -0.838 4.784 -0.55 8.28 10.562 12.76 -0.938 5.222 -1.712 9.276 -1.748 9.464 -2.758 8.24 -2.87 27.4 -1.55 34.868 1.018 5.774 2.726 15.436 -14.826 18.732a122.372 122.372 0 0 1 -12.738 1.694c0.496 -1.486 3.778 -3.586 6.048 -8.092 3.04 -6.028 0.092 -5.936 -2.158 -11.23a22.618 22.618 0 0 1 -1.6 -5.286c1.47 1.586 2.782 2.942 3.8 3.884a1 1 0 0 0 1.364 -1.466c-4.832 -4.5 -17.2 -19.248 -19.222 -21.68 2.942 -20.988 8.4 -88.434 9.35 -100.144a13.5 13.5 0 0 0 7.654 -0.86 1 1 0 0 0 0.638 -0.754 130.552 130.552 0 0 0 1.858 -14.29 14.722 14.722 0 0 1 1.6 7.356 1 1 0 0 0 1.884 0.47c0.066 -0.126 5.356 -10.386 0.89 -20.8 10.776 9.55 5.242 9.614 15.92 12.468a88.738 88.738 0 0 1 13.6 4.634c14.874 6.48 15.49 19.884 17.8 30.4 1.878 8.588 0.814 12.268 -1.566 19.6 -2.268 6.982 3.932 10.19 6.246 16.814a18.152 18.152 0 0 1 -0.128 11.72Zm-41.382 -2.218c0.244 -3.042 -0.014 -11.09 -0.266 -17.168a27.538 27.538 0 0 0 14.268 -0.114c-1.726 4.014 -2.346 2.836 -3.274 14.2a121.486 121.486 0 0 1 -2.106 15.786c-11.848 -4.854 -9.04 -7.548 -8.622 -12.704Zm-0.536 -23.102c3.328 1.134 10.746 3.8 16.462 0.648 -0.334 1.028 -0.67 1.984 -1 2.856 -8.368 2.4 -13.68 0.882 -15.29 0.276 -0.064 -1.526 -0.126 -2.836 -0.172 -3.774Z" fill="#2e3847" stroke-width="2"></path>
    <path d="M269.768 117.814c-6.064 -0.632 -11.2 2.634 -11.078 7.6s1.578 8.078 7.722 8.496a7.978 7.978 0 0 0 9.072 -6.6c0.602 -3.51 0.89 -8.804 -5.716 -9.496Z" fill="#ec6a7a" fill-rule="evenodd" stroke-width="2"></path>
    <path d="M262.4 109.856a81.516 81.516 0 0 0 10.2 -0.674s4.176 -11.826 10.36 -12.488 24.58 4.6 35.046 -20.076 8.174 -58.8 -23.984 -54 -30.678 25.104 -31.1 31.182c0 0 6.044 2.88 10.54 2.384 0 0 5.248 -23.294 21.092 -21.526s20.724 11.538 16.836 24.648 -13.414 25.29 -26.238 25.47 -24.234 5.124 -22.752 25.08Z" fill="#ec6a7a" fill-rule="evenodd" stroke-width="2"></path>
    <path d="M164.774 185.034s-12.668 6.384 -17.148 -6.468c-4.418 -12.672 9.49 -15.674 13.132 -11.6 0 0 -12.8 -32.368 6.258 -42.71s32.7 -6.836 44.334 2.908c0 0 8.44 6.364 8.854 14.036s-1.054 9.6 1.69 13.688 6.452 8.264 5.776 15.668 -4.656 12.6 -4.928 19.28 2.2 16.584 -15.58 15.958a57.982 57.982 0 0 1 -6.016 -0.532c-1.838 14.984 -7.4 14.644 -7.4 14.644a31.118 31.118 0 0 1 -28.976 -17.686Z" fill="#f8ad87" fill-rule="evenodd" stroke-width="2"></path>
    <path d="M64.504 162c4.8 3.136 19.762 1.6 27.91 -11.054s10.092 -26.474 10.586 -37.278 8 -37.044 12.17 -41.51 16.69 -7.182 18.026 -16.266 1.18 -10.662 2.934 -14.036 3.434 -8.05 -1.286 -6.08a8.91 8.91 0 0 0 -6.098 7c-0.576 2.322 -2.276 6.08 -4.748 7.4 0 0 -2.954 -1.856 -0.452 -9.584s8.496 -17.318 7.236 -21.92 -4.382 -2.016 -5.782 1.378c0 0 1.988 -8.662 -1.4 -9.942 -1.462 -0.552 -2.654 1.186 -2.654 1.186s-2.778 -2.6 -9.074 6.928a2.4 2.4 0 0 0 -3.626 -1.748c-3.074 1.344 -12.4 14.03 -14.528 20.032s-0.352 22.32 1.184 30.09 0.652 5.066 -7.274 16.884S55.978 134.6 57.5 146.158s5.452 14.824 7.004 15.842Z" fill="#f8ad87" fill-rule="evenodd" stroke-width="2"></path>
    <path d="m269.588 315.55 -8.974 26.334c-21.752 -2.266 -32.4 -7.6 -32.4 -7.6s13.182 -38.556 31.898 -25.414c5.44 3.818 9.476 6.68 9.476 6.68Z" fill="#f8ad87" fill-rule="evenodd" stroke-width="2"></path>
    <path d="M151.93 166.238s8.072 -4.4 14.72 7.238l6.918 -2.512s-4.934 -8.528 -3.144 -13.838a11.356 11.356 0 0 1 5.906 -6.926 25.06 25.06 0 0 1 -1.908 -24.228s1.634 5.746 5.878 6.256a10.49 10.49 0 0 0 8.96 -3.4s2.318 5.978 8 5.98c7.346 0 9.018 -8 9.018 -8s3.8 5.884 10.36 0.044c8.674 -7.722 -2.656 -13.2 -2.658 -13.312a8.084 8.084 0 0 0 2.658 -10.6c-3.422 -6.742 -11.316 -9.434 -14.588 -1.186 0 0 -2.452 -13.102 -12.964 -11.734s-9.068 10.258 -9.068 10.258 -6.158 -9.83 -14.444 -8a12.028 12.028 0 0 0 -9.458 14.324s-7.136 -5.936 -13.624 0.2 -5.47 12.374 1.36 15.258c0 0 -10.344 -2.6 -10.722 5.09s8.242 4.93 8.242 4.93 -7.45 1.12 -5.506 8.232 8.78 2.642 8.78 2.642 -2.458 9.354 7.284 23.284Z" fill="#8d4731" fill-rule="evenodd" stroke-width="2"></path>
    <path d="M153.714 169.868a5.686 5.686 0 0 0 -4.214 5.826 1 1 0 0 0 1.094 0.88 1 1 0 0 0 0.894 -1.09 3.646 3.646 0 0 1 2.856 -3.716 4.822 4.822 0 0 1 5.07 1.916 8.364 8.364 0 0 1 -6.724 5.814 1 1 0 0 0 0.212 1.988 10.37 10.37 0 0 0 7.768 -5.58 10.422 10.422 0 0 1 0.358 5.376 1 1 0 1 0 1.97 0.352c1.496 -8.342 -4.694 -13.308 -9.284 -11.766Z" fill="#2e3847" stroke-width="2"></path>
    <path d="M215.034 172.748a1 1 0 0 1 -0.912 -1.074 0.982 0.982 0 0 1 1.072 -0.918 4.49 4.49 0 0 0 2.914 -0.822 2.522 2.522 0 0 0 0.8 -1.872c0.15 -3.1 -5.12 -4.116 -5.174 -4.128a1 1 0 0 1 0.364 -1.968c0.286 0.054 7.042 1.35 6.8 6.2a4.986 4.986 0 0 1 -5.864 4.582Z" fill="#2e3847" stroke-width="2"></path>
    <path d="M208.104 171.638a5.78 5.78 0 0 1 4 -1.264 1 1 0 0 1 0.914 1.078 1.024 1.024 0 0 1 -1.078 0.914 3.928 3.928 0 0 0 -2.526 0.782 1 1 0 0 1 -1.31 -1.51Z" fill="#2e3847" stroke-width="2"></path>
    <path d="M205.424 175.4a4.138 4.138 0 0 1 -3.836 -2.07c-0.888 -2.038 0.958 -4.476 1.172 -4.748a1 1 0 0 1 1.574 1.234c-0.44 0.564 -1.24 1.968 -0.912 2.716 0.2 0.466 0.974 0.776 2.166 0.876a1 1 0 0 1 -0.164 2Z" fill="#2e3847" stroke-width="2"></path>
    <path d="M206.912 187.758a2.936 2.936 0 0 1 -2.862 -2.172c-1.748 -4.8 8.53 -6.64 13.556 -7.108a1 1 0 1 1 0.184 2c-3.898 0.362 -10.54 1.662 -11.772 3.61a0.846 0.846 0 0 0 -0.088 0.822c0.234 0.646 0.506 0.756 0.6 0.8 1.79 0.728 6.836 -3.772 11.658 -3.778a1 1 0 0 1 0 2c-3.94 -0.006 -8.31 3.826 -11.276 3.826Z" fill="#2e3847" stroke-width="2"></path>
    <path d="M210.356 192.3a1 1 0 0 1 -0.578 -1.818 10.548 10.548 0 0 1 5.4 -1.79 1 1 0 0 1 0.014 2 8.708 8.708 0 0 0 -4.266 1.428 1 1 0 0 1 -0.57 0.18Z" fill="#2e3847" stroke-width="2"></path>
    <path d="M213.238 143.984a1 1 0 0 1 -0.68 -1.732c0.162 -0.148 4.012 -3.652 7.76 -2.758a1 1 0 0 1 0.736 1.2 1.014 1.014 0 0 1 -1.2 0.738c-2.258 -0.552 -5.044 1.456 -5.926 2.276a1 1 0 0 1 -0.69 0.276Z" fill="#2e3847" stroke-width="2"></path>
    <path d="M185.2 156.36a1 1 0 0 1 -0.902 -1.428c6.254 -13.212 17.6 -11.014 17.716 -10.988a1 1 0 0 1 0.774 1.178 1.014 1.014 0 0 1 -1.178 0.78c-0.4 -0.082 -9.942 -1.86 -15.504 9.884a1 1 0 0 1 -0.906 0.574Z" fill="#2e3847" stroke-width="2"></path>
    <path d="M223.728 155.8c-2.42 -3.46 -2.668 -4.062 -2.51 -8.6 0.054 -1.556 0.12 -3.494 -0.016 -6.042 -0.264 -4.906 -3.514 -9.226 -6.09 -11.91a14.132 14.132 0 0 0 2.2 -1.63 1 1 0 1 0 -1.33 -1.494 7.164 7.164 0 0 1 -5.478 2.296 5.32 5.32 0 0 1 -3.376 -2.134 1 1 0 0 0 -1.818 0.336c-0.016 0.074 -1.582 7.2 -8.04 7.2 -4.922 0 -7 -5.124 -7.078 -5.344a1 1 0 0 0 -1.706 -0.27 9.48 9.48 0 0 1 -8.066 3.032c-3.526 -0.426 -5.022 -5.488 -5.036 -5.54a1 1 0 0 0 -1.866 -0.152 25.722 25.722 0 0 0 1.374 24.28 12.8 12.8 0 0 0 -5.414 6.972c-1.544 4.582 1.372 11.088 2.662 13.614l-5.05 1.834c-3.744 -6.138 -7.946 -7.688 -11.052 -7.8a11.724 11.724 0 0 0 -5.68 1.342c-2.058 1.212 -6.532 4.91 -3.676 13.1 2.8 8.032 9.464 10.426 17.112 7.63 0 16.058 -0.052 15.888 0.034 16.09a32.43 32.43 0 0 0 29.55 18.302c5.674 0 7.864 -8.892 8.652 -14.534 5.892 0.748 14.446 1.074 18.674 -3.04 3.776 -3.676 2.866 -9.2 3.036 -13.462 0.264 -6.468 4.232 -11.65 4.926 -19.23 0.626 -6.878 -2.33 -11.114 -4.938 -14.846Zm-29.964 63.118h-0.324a29.868 29.868 0 0 1 -27.64 -16.892v-13.952c7.27 8.906 20.58 15.832 34.262 18.028 -1.772 12.636 -6.206 12.816 -6.298 12.816Zm32.91 -48.448c-0.65 7.122 -4.654 12.532 -4.932 19.33 -0.17 4.178 0.662 9.098 -2.432 12.11 -2.216 2.152 -6.182 3.118 -12.112 2.89 -16.6 -0.586 -33.982 -9.064 -41.446 -20.178a1.026 1.026 0 0 0 -1.378 -0.484c-0.056 0.028 -5.468 2.7 -10.148 0.8a10.368 10.368 0 0 1 -5.656 -6.704c-2.4 -6.89 1.228 -11.094 5.704 -11.754 5.148 -0.762 8.928 2.972 11.508 7.49a1 1 0 0 0 0.868 0.504 61.578 61.578 0 0 0 7.26 -2.572 1 1 0 0 0 0.524 -1.44c-0.048 -0.082 -4.684 -8.2 -3.062 -13.018a10.32 10.32 0 0 1 5.322 -6.31 1 1 0 0 0 0.446 -1.518 24.476 24.476 0 0 1 -2.714 -21.036 7.952 7.952 0 0 0 5.754 4.644 11.342 11.342 0 0 0 8.8 -2.706c4.562 7.952 14.468 6.704 17.754 -1.738a6.564 6.564 0 0 0 6.43 1.344c2.4 2.4 5.8 6.558 6.042 11.134 0.412 7.624 -1.102 9.786 1.86 14.2 3.21 4.768 6.222 8.282 5.608 15.012Z" fill="#2e3847" stroke-width="2"></path>
    <path d="M138.33 34.966c-1.148 -1.248 -3.2 -0.4 -3.874 -0.112a9.876 9.876 0 0 0 -6.682 7.692 12.85 12.85 0 0 1 -3.6 6.334C120.4 42.6 133.696 25.548 131.744 18.422c-0.958 -3.504 -3.244 -3.938 -5.18 -2.35 0.142 -2.768 -0.238 -6 -2.6 -6.898a3.104 3.104 0 0 0 -3.278 0.898c-3.138 -0.884 -6.778 3.534 -8.66 6.17a3.306 3.306 0 0 0 -4.172 -0.684c-3.43 1.5 -12.866 14.4 -15.07 20.614 -2.358 6.644 -0.2 23.8 1.146 30.616 1.432 7.24 0.816 4.296 -7.124 16.136 -6.406 9.554 -31.944 50.862 -30.298 63.364 1.1 8.352 3.674 14.074 7.448 16.544 3.014 1.974 8.014 1.772 11.554 1.018a27.964 27.964 0 0 0 17.746 -12.368c8.7 -13.512 10.298 -28.028 10.74 -37.77 0.492 -10.77 8.056 -36.746 11.902 -40.872 4 -4.276 16.868 -7.17 18.286 -16.8 1.324 -9.012 1.172 -10.53 2.832 -13.72 2.916 -5.614 1.71 -6.92 1.314 -7.354ZM135.24 41.4c-1.872 3.6 -1.724 5.452 -3.036 14.35 -1.244 8.464 -13.474 11.124 -17.768 15.73C109.88 76.364 102.486 102.926 102 113.622c-0.432 9.51 -1.984 23.67 -10.424 36.778a25.96 25.96 0 0 1 -16.48 11.492c-4.09 0.872 -8.03 0.586 -10.042 -0.732 -3.226 -2.114 -5.556 -7.486 -6.562 -15.132 -1.45 -11.034 21.468 -49.3 29.982 -62 7.9 -11.778 9.058 -9.382 7.426 -17.634 -1.714 -8.664 -3.134 -24.178 -1.222 -29.562C96.762 30.966 106 18.558 108.662 17.4c1.184 -0.52 1.962 -0.244 2.234 0.974 0.028 2.574 -3.452 10.19 -6.016 13.118a21.37 21.37 0 0 0 -4 7.84 1 1 0 0 0 1.938 0.494 19.694 19.694 0 0 1 3.566 -7.026c2.672 -3.05 6.4 -10.848 6.51 -14.286C116.382 13.302 118.554 12.2 119.548 12c1.036 -0.2 1.276 0.8 1.258 1.84 -0.034 2.078 -1.348 6.074 -6.242 13.77a40.134 40.134 0 0 0 -4.712 11.764 1 1 0 1 0 1.956 0.4 38.772 38.772 0 0 1 4.444 -11.1c5.662 -8.904 7.6 -14.466 6 -17.318a1.07 1.07 0 0 1 1.01 -0.326c2.104 0.8 1.276 7.242 0.502 9.546a61.07 61.07 0 0 1 -5.2 11.986 24.298 24.298 0 0 0 -2.296 9.068 1 1 0 0 0 2 0.134 22 22 0 0 1 1.98 -8.116 62.856 62.856 0 0 0 5.4 -12.4c0.4 -1.168 1.87 -4.314 3.068 -4.06 0.39 0.024 0.81 0.694 1.1 1.75 1.14 4.166 -4.744 13.684 -7.224 21.348 -2.662 8.232 0.502 10.506 0.87 10.736a1 1 0 0 0 1 0.038c2.96 -1.582 4.692 -5.8 5.248 -8.042a7.958 7.958 0 0 1 5.512 -6.33 3.458 3.458 0 0 1 1.63 -0.38c0.148 0.228 0.184 1.632 -1.612 5.092Z" fill="#2e3847" stroke-width="2"></path>
    <path d="M108.97 69.558a1 1 0 0 1 -0.81 -1.588c3.088 -4.258 2.032 -8.214 -0.502 -12.846 -2.278 -4.156 -4.6 -9.212 -4.624 -9.262a1 1 0 1 1 1.82 -0.832c0.022 0.048 2.316 5.04 4.558 9.134 2.51 4.584 4.29 9.572 0.368 14.982a1 1 0 0 1 -0.81 0.412Z" fill="#2e3847" stroke-width="2"></path>
    <path d="M88.262 185.448a1 1 0 0 1 -0.474 -1.882c6.478 -3.46 10.304 -9.906 12.358 -14.634 -10.104 10.378 -27.022 11.216 -27.836 11.252a1 1 0 0 1 -0.084 -2c0.216 0 21.8 -1.09 30.038 -15.318a1 1 0 0 1 1.842 0.722c-0.142 0.626 -3.612 15.456 -15.374 21.744a1 1 0 0 1 -0.47 0.116Z" fill="#2e3847" stroke-width="2"></path>
    <path d="M111.038 220.4a1 1 0 0 1 -0.96 -1.28c3.034 -10.4 0.024 -22.386 0 -22.506a1 1 0 0 1 1.938 -0.5c0.13 0.51 3.182 12.62 0 23.566a1 1 0 0 1 -0.978 0.72Z" fill="#2e3847" stroke-width="2"></path>
    <path d="M133.36 240.268a1 1 0 0 1 -0.6 -1.81c0.11 -0.08 10.988 -8.154 10.988 -19.012a1 1 0 0 1 2 0c0 11.886 -11.328 20.278 -11.81 20.63a1 1 0 0 1 -0.578 0.192Z" fill="#2e3847" stroke-width="2"></path>
    <path d="M161.988 247.14a1 1 0 0 1 -0.988 -1.156c1.538 -9.78 -6.958 -34.696 -7.044 -34.948a1 1 0 0 1 1.892 -0.648c0.358 1.042 8.742 25.642 7.128 35.908a1 1 0 0 1 -0.988 0.844Z" fill="#2e3847" stroke-width="2"></path>
    <path d="M132.37 347.88a1 1 0 0 1 0.832 -1.14c0.2 -0.034 13.756 -2.626 20.738 -29.786a1 1 0 0 1 1.938 0.496c-7.36 28.634 -21.758 31.172 -22.366 31.266a1 1 0 0 1 -1.142 -0.836Z" fill="#2e3847" stroke-width="2"></path>
    <path d="M139.826 358c-0.44 0 -0.718 0 -0.81 -0.01a1 1 0 0 1 0.068 -2c0.238 0.024 23.8 0.618 32.584 -14.6a1 1 0 0 1 1.732 1C164.858 357.18 144.248 358 139.826 358Z" fill="#2e3847" stroke-width="2"></path>
    <path d="M181.182 279.478a1 1 0 0 0 -1.098 -1.13c-9.646 1.042 -12.776 -2.586 -17.08 -8.584a31.51 31.51 0 0 0 -12.676 -9.31 1 1 0 0 0 -1.19 0.376c-2.818 4.2 -3.308 7.558 -5.976 18.924a39.332 39.332 0 0 0 0.03 20.412 1.016 1.016 0 0 0 0.224 0.366 32.768 32.768 0 0 0 23.65 9.366 28.8 28.8 0 0 0 3.8 -0.222 1.016 1.016 0 0 0 0.648 -0.38c5.182 -6.686 8.534 -21.602 9.668 -29.818Zm-30.832 -16.842a28.984 28.984 0 0 1 11.03 8.292c3.766 5.248 7.31 10.2 17.63 9.52 -0.092 0.562 -0.214 1.296 -0.37 2.164a18.922 18.922 0 0 1 -16.348 -5.838 74.416 74.416 0 0 0 -13.652 -10.574 18.034 18.034 0 0 1 1.71 -3.564ZM170.2 307.74c-2.466 0.252 -15.83 1.078 -25.172 -8.43a38.678 38.678 0 0 1 0.092 -19.098c1.552 -6.612 2.254 -9.776 2.904 -12.044a71.648 71.648 0 0 1 12.788 9.942 21.068 21.068 0 0 0 17.448 6.572c-1.302 6.578 -3.936 17.424 -8.06 23.058Z" fill="#2e3847" stroke-width="2"></path>
    <path d="M260.51 342.876c-21.684 -2.256 -32.31 -7.484 -32.75 -7.704a1 1 0 0 1 -0.498 -1.22c0.334 -0.978 8.346 -24.03 21.11 -28.182a13.4 13.4 0 0 1 12.308 2.274c5.45 3.826 9.486 6.69 9.486 6.69a1 1 0 0 1 0.368 1.138L261.56 342.2a1 1 0 0 1 -1.05 0.676Zm-31.046 -9.126c2.812 1.216 12.964 5.148 30.462 7.054l8.474 -24.868c-1.322 -0.938 -4.676 -3.312 -8.868 -6.254a11.514 11.514 0 0 0 -10.54 -2c-10.508 3.406 -17.954 21.862 -19.528 26.068Z" fill="#2e3847" stroke-width="2"></path>
    <path d="m234.184 388.042 34.512 -115.352 74.258 -10.786 2.6 2.444 -40.91 101.58L236.162 390Z" fill="#f5bf42" fill-rule="evenodd" stroke-width="2"></path>
    <path d="m326.168 264.348 -36.062 5.236 2.554 2.56 -2.554 12.4 34.586 -5.642 4.108 -12.082 -2.632 -2.472z" fill="#dfdfdf" fill-rule="evenodd" stroke-width="2"></path>
    <path d="M322.218 322.348s4.2 0 3.2 3.6 -5.484 4.216 -5.464 4.212 5.4 5.364 -3.704 10.508c0 0 5.778 7.782 -1.664 10.85a7 7 0 0 1 -2.314 6.682c-3.296 2.922 -12.6 4.256 -11.6 0.374a9.064 9.064 0 0 1 5.524 -5.418s-5.432 -1.94 -3.334 -4.51 9.356 -4.458 9.356 -4.458l0.922 -1.86s-10.306 2.4 -7.724 -2.336 11.078 -6.934 11.078 -6.934l0.88 -2.238s-10.294 1.2 -8.4 -3.2 12.746 -4.05 12.746 -4.05Z" fill="#f8ad87" fill-rule="evenodd" stroke-width="2"></path>
    <path d="M303.93 361.96c-3.6 0 -4.7 -1.786 -4.22 -3.644a8.822 8.822 0 0 1 4.184 -5.158 5.01 5.01 0 0 1 -2.412 -2.636c-0.916 -3.274 4.984 -5.572 8.254 -6.644 -2.07 0.162 -4.346 0.024 -5.282 -1.2a2.742 2.742 0 0 1 0.09 -3.166c2.414 -4.428 9.278 -6.716 11.2 -7.284l0.11 -0.28c-2.348 0.12 -6.252 0.022 -7.61 -1.8a2.78 2.78 0 0 1 -0.19 -2.926c1.87 -4.354 10.382 -4.748 13 -4.666l0.236 -0.58a1 1 0 0 1 0.926 -0.624 5 5 0 0 1 3.722 1.59c1.47 1.932 0.476 6.178 -4.314 7.814 2.29 4.15 0.036 7.698 -3.968 10.234 2.566 4.32 2.578 8.832 -1.964 11.122a8 8 0 0 1 -2.754 6.834 15.468 15.468 0 0 1 -9.008 3.014Zm10.112 -19.2c-0.962 1.938 -1 2.236 -1.566 2.386 -1.932 0.502 -7.284 2.218 -8.834 4.12 -0.322 0.4 -0.26 0.618 -0.234 0.714 0.236 0.836 2 1.82 3.13 2.22a1 1 0 0 1 -0.012 1.888 8.116 8.116 0 0 0 -4.88 4.724c-0.114 0.446 0 0.6 0.256 0.768 1.642 1 7.33 -0.032 9.712 -2.138a5.98 5.98 0 0 0 2 -5.688 1 1 0 0 1 0.588 -1.17 4.63 4.63 0 0 0 3.032 -2.946 8.824 8.824 0 0 0 -1.8 -6.386 1 1 0 0 1 0.312 -1.468c2.91 -1.642 4.512 -3.424 4.76 -5.292a4.746 4.746 0 0 0 -1.238 -3.6 1 1 0 0 1 0.538 -1.73c0.116 -0.018 3.838 -0.618 4.634 -3.488 0.344 -1.232 -0.018 -1.962 -1.6 -2.256l-0.212 0.522a1.044 1.044 0 0 1 -0.958 0.624c-2.842 -0.106 -10.464 0.352 -11.8 3.444 -0.272 0.634 -0.106 0.856 -0.042 0.94 0.812 1.092 4.9 1.168 7.4 0.87a1 1 0 0 1 1.048 1.36l-0.88 2.238a1 1 0 0 1 -0.682 0.6c-0.08 0.018 -8.106 2.144 -10.45 6.442 -0.292 0.538 -0.338 0.89 -0.254 1 0.55 0.724 4.082 0.538 6.874 -0.114a1 1 0 0 1 1.158 1.42Z" fill="#2e3847" stroke-width="2"></path>
    <path d="M235.118 309.864a1 1 0 0 1 -0.772 -1.636c0.516 -0.626 12.72 -15.236 23 -8.902a1 1 0 0 1 -1.052 1.704c-8.78 -5.418 -20.278 8.33 -20.4 8.47a1 1 0 0 1 -0.776 0.364Z" fill="#2e3847" stroke-width="2"></path>
    <path d="M251.6 294.864a1 1 0 0 1 -0.776 -0.366 18.3 18.3 0 0 0 -11.55 -6.548 1 1 0 1 1 0.158 -2 20.1 20.1 0 0 1 12.94 7.274 1 1 0 0 1 -0.772 1.64Z" fill="#2e3847" stroke-width="2"></path>
    <path d="M290 268.5s3.146 -10.576 5.106 -12 32.838 -8.758 32.646 -3.636a50.91 50.91 0 0 1 -1.688 10.4l-4.8 0.69s2.6 -7.332 1.18 -7.98 -23.064 1.868 -24.428 4.372a45.982 45.982 0 0 0 -2.706 7.286Z" fill="#dfdfdf" stroke-width="2"></path>
    <path d="M345.724 264.32a1 1 0 0 0 -1.142 -0.836l-15.336 2.364 -2.232 -2.264a49.8 49.8 0 0 0 1.742 -10.682 2.214 2.214 0 0 0 -1.32 -2.088c-5.4 -2.878 -31.2 3.626 -32.914 4.878 -2.066 1.5 -4.774 10.184 -5.424 12.348a1 1 0 0 0 -0.266 1.586l2.064 2.134 -18.102 2.8 -3.468 -2.656a1.02 1.02 0 0 0 -1.588 0.508l-34.512 115.354a1 1 0 0 0 0.254 1c2.17 2.146 2.168 2.246 2.682 2.246 0.268 0 -3.9 1.476 68.82 -24.13a1 1 0 1 0 -0.664 -1.886l-67.896 23.866 -1.108 -1.096 33.928 -113.4 2.366 1.81 -31.96 107.368a1 1 0 1 0 1.918 0.57l32.044 -107.652 17.704 -2.73 -2.188 10.624a1 1 0 0 0 1.14 1.188l34.588 -5.642a1 1 0 0 0 0.784 -0.664l3.874 -11.4 15.376 -2.37a1 1 0 0 0 0.836 -1.148Zm-50.032 -7c1.864 -1.29 26.782 -7 30.834 -4.716 0.236 0.132 0.232 0.2 0.232 0.232a49.53 49.53 0 0 1 -1.486 9.538l-2.536 0.366c2.15 -6.744 0.648 -7.432 0.132 -7.668 -1.244 -0.584 -23.94 1.524 -25.724 4.8a42.416 42.416 0 0 0 -2.612 6.882l-3.098 0.506c1.456 -4.604 3.3 -9.284 4.258 -9.948Zm-4.4 11.988 4.178 -0.684a1 1 0 0 0 0.8 -0.716 45.348 45.348 0 0 1 2.6 -7.052c1.464 -1.836 20.124 -4.374 22.978 -4a22.06 22.06 0 0 1 -1.534 6.768 1 1 0 0 0 1.086 1.324l3.62 -0.522 1.776 1.8 -33.492 5.162Zm32.638 8.712 -32.56 5.31 2.046 -9.928 33.86 -5.22Z" fill="#2e3847" stroke-width="2"></path>
    <path d="M216.528 149.658c-1.038 0.028 -1.564 1 -1.66 3.112a4.6 4.6 0 0 0 0.564 2.862 1.2 1.2 0 0 0 1.652 0.074 4.438 4.438 0 0 0 0.822 -2.8c0.094 -2.106 -0.364 -3.2 -1.378 -3.248Z" fill="#2e3847" stroke-width="2"></path>
    <path d="M192.8 157.61c-1.016 -0.02 -1.562 1 -1.66 3.112 -0.062 1.374 0.066 3.252 1.434 3.252 0.972 0 1.51 -1.046 1.6 -3.112 0.106 -2.11 -0.356 -3.204 -1.374 -3.252Z" fill="#2e3847" stroke-width="2"></path>
  </g>
</svg>