<svg xmlns="http://www.w3.org/2000/svg" fill="none" viewBox="0 0 400 400" id="Robot-Work-Office-Team--Streamline-Brooklyn" height="400" width="400">
  <desc>
    Robot Work Office Team Streamline Illustration: https://streamlinehq.com
  </desc>
  <g id="robot-work-office-team--ai-ml-tech-robot-work-office-team">
    <g id="table">
      <path id="vector" fill="#191919" d="M220.522 270.926H197.0678c0.378 0.642 0.664 1.348 0.856 2.098l25.4382 0.022c-1.198 -0.718 -2.106 -1.426 -2.84 -2.12Z" stroke-width="2"></path>
      <path id="vector_2" fill="#191919" d="M102.1298 270.948c0.182 0.596 0.364 1.22 0.56 1.928l15.016 0.03c-0.5 -0.774 -0.782 -1.456 -1.12 -1.962l-14.456 0.006v-0.002Z" stroke-width="2"></path>
      <path id="vector_3" fill="#191919" d="M21.678 270.994c-7.20202 0.006 -11.38002 0.012 -11.76202 0.018 -1.206 0.014 -1.25 1.596 -0.036 1.612 0.814 0.01 5.126 0.028 12.24202 0.052 -0.148 -0.554 -0.294 -1.116 -0.444 -1.682Z" stroke-width="2"></path>
      <path id="vector_4" fill="#191919" d="M389.882 271.144c-0.178 -0.038 -4.638 -0.07 -12.464 -0.098 -0.154 0.588 -0.306 1.164 -0.454 1.724 6.844 -0.07 11.304 -0.156 12.826 -0.26 1.006 -0.068 0.652 -1.248 0.092 -1.366Z" stroke-width="2"></path>
    </g>
    <g id="chart">
      <path id="vector_5" fill="#191919" d="M130.68 133.5218c-0.062 -11.528 8.676 -22.336 20.982 -24.034 1.738 0.506 0.24 0.026 0.822 22.96 0.104 4.11 0.08 4.076 4.298 4.064 22.9 -0.064 22.058 -0.502 21.698 1.252 -2.51 12.246 -12.858 19.57 -23.58 19.6 -0.444 0.884 -1.136 1.548 -1.974 2.016 0.01 0.04 0.018 0.08 0.028 0.122 13.236 0.754 26.956 -8.314 28.148 -24.438 1.096 -14.808 -11.42 -27.988 -25.688 -28.012 -15.6 -0.028 -27.102 12.588 -26.782 26.762 0.678 -0.126 1.364 -0.222 2.048 -0.292Zm44.89 -12.294c2.294 3.78 3.254 7.902 3.334 12.28 0.034 1.768 0.05 1.124 -23.03 1.124 19.922 -15.024 18.77 -14.932 19.696 -13.402v-0.002Zm-20.358 -11.97c7.17 0.122 13.122 3.018 17.856 8.438 0.458 0.524 1.122 1.006 0.088 1.794 -19.064 14.52 -18.024 14.178 -19.118 14.518 0 -24.8 -1.068 -24.788 1.174 -24.75Z" stroke-width="2"></path>
      <path id="vector_6" fill="#191919" d="M51.218 133.1858c13.148 0.292 13.898 -0.708 13.898 1.772v42.334c0 2.178 0.008 2.2 -2.124 2.234 -13.26 0.208 -13.842 0.842 -13.814 -1.936 0.47 -44.474 -1.11 -44.474 2.04 -44.404Zm-0.306 27.9c0.024 16.86 -0.39 16.822 0.992 16.806 11.48 -0.142 11.496 0.554 11.458 -1.048v-40.54c0 -2.094 0.134 -1.204 -11.392 -1.312 -2.162 -0.02 -1.094 0.414 -1.058 26.094Z" stroke-width="2"></path>
      <path id="vector_7" fill="#191919" d="M91.068 176.294c-0.008 4.064 -0.244 3.478 9.272 3.282 -0.144 -0.652 -0.282 -1.294 -0.41 -1.93 -7.282 0.076 -7.186 0.43 -7.186 -1.894 0.004 -47.27 -1.03 -47.264 0.642 -47.252 11.874 0.082 11.8 -0.81 11.798 1.446 -0.004 6.52 0.01 12.148 0.028 17.008 0.53 -0.466 1.096 -0.912 1.692 -1.336 -0.022 -4.854 -0.038 -10.404 -0.038 -16.748 0 -3.156 -0.244 -2.368 -13.446 -2.434 -3.494 -0.018 -2.254 -0.222 -2.352 49.858Z" stroke-width="2"></path>
      <path id="vector_8" fill="#191919" d="M73.072 144.0418c13.202 0.046 13.446 -0.474 13.444 1.634 -0.006 33.97 1.022 33.918 -1.428 33.912 -14.694 -0.042 -14.38 0.968 -14.37 -2.17 0.1 -33.522 -1.14 -33.388 2.354 -33.376Zm-0.678 33.02c0 1.806 -0.13 1.194 11.266 1.266 1.986 0.012 1.148 0.026 1.174 -31.926 0 -1.508 0.076 -0.912 -11.798 -0.968 -1.672 -0.008 -0.636 -0.012 -0.642 31.628Z" stroke-width="2"></path>
      <path id="vector_9" fill="#191919" d="M71.404 104.068c21.146 0 21.09 -0.788 21.05 1.738 -0.186 11.454 1.052 12.464 -1.55 12.452H51.834c-2.674 0.196 -1.634 -1.236 -1.768 -12.44 -0.03 -2.426 -0.038 -1.66 21.338 -1.66v-0.09Zm-18.552 1.516c-1.994 -0.01 -1.052 0.126 -1.262 10.056 -0.042 1.96 0.038 1.252 11.308 1.228 28.188 -0.062 28.188 0.818 28.118 -1.458 -0.288 -9.226 0.724 -9.832 -1.236 -9.808 -6.49 0.08 -29.998 0.014 -36.928 -0.018Z" stroke-width="2"></path>
      <path id="vector_10" fill="#191919" d="M101.604 184.7778c-61.914 0.53 -61.896 0.748 -61.932 -1.336 -0.206 -11.69 -1.222 -67.45 -1.898 -82.668 -0.076 -1.696 -7.886 -1.196 112.896 -1.886 36.534 -0.208 36.446 -1.294 36.484 1.308l1.742 81.542c0.058 2.476 0.076 2.468 -2.4 2.48l-27.846 0.146c0.074 1.27 -0.046 2.29 -0.394 3.19 32.866 -0.184 32.85 -0.65 32.866 -2.508 0.08 -9.662 0.032 -10.164 -1.35 -86.774 -0.092 -5.132 0.004 -1.6 -146.206 -1.588 -7.034 0 -7.926 -0.318 -7.918 1.974 0.046 13.964 0.154 19.26 1.392 86.284 0.05 2.694 0.286 2.938 3.058 2.928l62.302 -0.164c-0.28 -0.994 -0.544 -1.968 -0.796 -2.928Z" stroke-width="2"></path>
    </g>
    <g id="calendar">
      <g id="group">
        <path id="vector_11" fill="#191919" d="M264.366 139.686c-0.27 -14.726 -0.42 -29.03 1.142 -29.02 0.042 0 0.024 -0.128 26.47 0.038 13.132 0.084 18.638 0.248 20.918 0.086 1.08 -0.076 1.106 -1.844 -0.052 -1.914 -2.404 -0.146 -43.164 -0.308 -46.566 -0.178 -3.768 0.144 -3.7 1.062 -3.788 2.886 -0.052 1.09 -0.25 14.558 -0.226 27.982 0.698 0.026 1.4 0.066 2.102 0.12Z" stroke-width="2"></path>
        <path id="vector_12" fill="#191919" d="M364.73 111.53c-0.024 -2.396 -0.142 -2.566 -2.522 -2.58 -22.182 -0.14 -30.354 -0.338 -33.366 -0.096 -1.758 0.14 -0.766 1.948 0.006 1.948 19.354 -0.02 27.094 -0.038 30.9 0.154 3.044 0.154 3.15 0.33 3.126 1.572 -0.988 54.14 0.854 54.152 -1.4 54.132 -30.322 -0.268 -51.262 -0.296 -65.704 -0.266 -0.002 0.696 -0.046 1.394 -0.134 2.084 29.006 0.214 67.142 -0.116 67.514 -0.128 2.354 -0.082 2.152 0.036 1.58 -56.82Z" stroke-width="2"></path>
      </g>
      <path id="vector_13" fill="#191919" d="M271.712 121.3802c0.122 -5.334 -1.052 -6.23 1.442 -6.252 30.372 -0.246 30.93 -1.098 30.64 0.85 -0.696 4.676 1.132 5.962 -1.784 6.03 -30.28 0.696 -30.344 1.39 -30.298 -0.628Zm2.442 -5.166c-2.104 -0.05 -0.788 0.876 -1.11 4.186 -0.218 2.25 0.164 0.658 27.426 0.362 2.694 -0.03 1.398 -0.08 1.884 -3.742 0.244 -1.838 -9.056 -0.344 -28.202 -0.804l0.002 -0.002Z" stroke-width="2"></path>
      <path id="vector_14" fill="#191919" d="M355.746 126.0518c-0.016 -1.19 -0.414 -0.998 -7.734 -1.044 -0.82 -0.004 -1.104 0.736 -1.172 1.64 -0.104 1.414 -0.08 6.14 -0.008 6.872 0.166 1.718 1.434 1.15 8.052 0.918 1.298 -0.044 0.972 -0.492 0.862 -8.386Z" stroke-width="2"></path>
      <path id="vector_15" fill="#191919" d="M355.746 138.4c-0.016 -1.19 -0.414 -0.998 -7.734 -1.044 -0.82 -0.004 -1.104 0.736 -1.172 1.64 -0.104 1.414 -0.08 6.14 -0.008 6.872 0.166 1.718 1.434 1.15 8.052 0.918 1.298 -0.044 0.972 -0.492 0.862 -8.386Z" stroke-width="2"></path>
      <path id="vector_16" fill="#191919" d="M355.746 150.75c-0.016 -1.19 -0.414 -0.998 -7.734 -1.044 -0.82 -0.004 -1.104 0.736 -1.172 1.64 -0.104 1.414 -0.08 6.14 -0.008 6.872 0.166 1.718 1.434 1.15 8.052 0.918 1.298 -0.044 0.972 -0.492 0.862 -8.386Z" stroke-width="2"></path>
      <path id="vector_17" fill="#191919" d="M282.09 126.0518c-0.016 -1.19 -0.414 -0.998 -7.734 -1.044 -0.82 -0.004 -1.104 0.736 -1.172 1.64 -0.104 1.414 -0.08 6.14 -0.008 6.872 0.166 1.718 1.434 1.15 8.052 0.918 1.298 -0.044 0.972 -0.492 0.862 -8.386Z" stroke-width="2"></path>
      <path id="vector_18" fill="#191919" d="M294.366 126.0518c-0.016 -1.19 -0.414 -0.998 -7.734 -1.044 -0.82 -0.004 -1.104 0.736 -1.172 1.64 -0.104 1.414 -0.08 6.14 -0.008 6.872 0.166 1.718 1.434 1.15 8.052 0.918 1.298 -0.044 0.972 -0.492 0.862 -8.386Z" stroke-width="2"></path>
      <path id="vector_19" fill="#191919" d="M306.642 126.0518c-0.016 -1.19 -0.414 -0.998 -7.734 -1.044 -0.82 -0.004 -1.104 0.736 -1.172 1.64 -0.104 1.414 -0.08 6.14 -0.008 6.872 0.166 1.718 1.434 1.15 8.052 0.918 1.298 -0.044 0.972 -0.492 0.862 -8.386Z" stroke-width="2"></path>
      <path id="vector_20" fill="#191919" d="M318.918 126.0518c-0.016 -1.19 -0.414 -0.998 -7.734 -1.044 -0.82 -0.004 -1.104 0.736 -1.172 1.64 -0.104 1.414 -0.08 6.14 -0.008 6.872 0.166 1.718 1.434 1.15 8.052 0.918 1.298 -0.044 0.972 -0.492 0.862 -8.386Z" stroke-width="2"></path>
      <path id="vector_21" fill="#191919" d="M331.194 126.0518c-0.016 -1.19 -0.414 -0.998 -7.734 -1.044 -0.82 -0.004 -1.104 0.736 -1.172 1.64 -0.104 1.414 -0.08 6.14 -0.008 6.872 0.166 1.718 1.434 1.15 8.052 0.918 1.298 -0.044 0.972 -0.492 0.862 -8.386Z" stroke-width="2"></path>
      <path id="vector_22" fill="#191919" d="M343.47 126.0518c-0.016 -1.19 -0.414 -0.998 -7.734 -1.044 -0.82 -0.004 -1.104 0.736 -1.172 1.64 -0.104 1.414 -0.08 6.14 -0.008 6.872 0.166 1.718 1.434 1.15 8.052 0.918 1.298 -0.044 0.972 -0.492 0.862 -8.386Z" stroke-width="2"></path>
      <path id="vector_23" fill="#191919" d="M281.744 146.702c0.68 -0.308 0.438 -1.704 0.346 -8.302 -0.016 -1.19 -0.416 -0.998 -7.734 -1.042 -0.82 -0.004 -1.104 0.736 -1.17 1.64 -0.036 0.47 -0.056 1.306 -0.064 2.24 4.086 1.364 6.768 3.504 8.624 5.464h-0.002Z" stroke-width="2"></path>
      <path id="vector_24" fill="#191919" d="M294.366 138.4c-0.016 -1.19 -0.414 -0.998 -7.734 -1.044 -0.82 -0.004 -1.104 0.736 -1.172 1.64 -0.104 1.414 -0.08 6.14 -0.008 6.872 0.166 1.718 1.434 1.15 8.052 0.918 1.298 -0.044 0.972 -0.492 0.862 -8.386Z" stroke-width="2"></path>
      <path id="vector_25" fill="#191919" d="M306.642 138.4c-0.016 -1.19 -0.414 -0.998 -7.734 -1.044 -0.82 -0.004 -1.104 0.736 -1.172 1.64 -0.104 1.414 -0.08 6.14 -0.008 6.872 0.166 1.718 1.434 1.15 8.052 0.918 1.298 -0.044 0.972 -0.492 0.862 -8.386Z" stroke-width="2"></path>
      <path id="vector_26" fill="#191919" d="M318.918 138.4c-0.016 -1.19 -0.414 -0.998 -7.734 -1.044 -0.82 -0.004 -1.104 0.736 -1.172 1.64 -0.104 1.414 -0.08 6.14 -0.008 6.872 0.166 1.718 1.434 1.15 8.052 0.918 1.298 -0.044 0.972 -0.492 0.862 -8.386Z" stroke-width="2"></path>
      <path id="vector_27" fill="#191919" d="M331.194 138.4c-0.016 -1.19 -0.414 -0.998 -7.734 -1.044 -0.82 -0.004 -1.104 0.736 -1.172 1.64 -0.104 1.414 -0.08 6.14 -0.008 6.872 0.166 1.718 1.434 1.15 8.052 0.918 1.298 -0.044 0.972 -0.492 0.862 -8.386Z" stroke-width="2"></path>
      <path id="vector_28" fill="#191919" d="M343.47 138.4c-0.016 -1.19 -0.414 -0.998 -7.734 -1.044 -0.82 -0.004 -1.104 0.736 -1.172 1.64 -0.104 1.414 -0.08 6.14 -0.008 6.872 0.166 1.718 1.434 1.15 8.052 0.918 1.298 -0.044 0.972 -0.492 0.862 -8.386Z" stroke-width="2"></path>
      <path id="vector_29" fill="#191919" d="M285.56 151.186c3.848 0.772 6.906 3.838 8.638 7.738 0.458 -0.508 0.252 -2.232 0.17 -8.174 -0.016 -1.19 -0.414 -0.998 -7.734 -1.044 -0.754 -0.004 -1.054 0.62 -1.15 1.424 0.026 0.02 0.052 0.038 0.078 0.054l-0.002 0.002Z" stroke-width="2"></path>
      <path id="vector_30" fill="#191919" d="M306.642 150.75c-0.016 -1.19 -0.414 -0.998 -7.734 -1.044 -0.82 -0.004 -1.104 0.736 -1.172 1.64 -0.104 1.414 -0.08 6.14 -0.008 6.872 0.166 1.718 1.434 1.15 8.052 0.918 1.298 -0.044 0.972 -0.492 0.862 -8.386Z" stroke-width="2"></path>
      <path id="vector_31" fill="#191919" d="M318.918 150.75c-0.016 -1.19 -0.414 -0.998 -7.734 -1.044 -0.82 -0.004 -1.104 0.736 -1.172 1.64 -0.104 1.414 -0.08 6.14 -0.008 6.872 0.166 1.718 1.434 1.15 8.052 0.918 1.298 -0.044 0.972 -0.492 0.862 -8.386Z" stroke-width="2"></path>
      <path id="vector_32" fill="#191919" d="M331.194 150.75c-0.016 -1.19 -0.414 -0.998 -7.734 -1.044 -0.82 -0.004 -1.104 0.736 -1.172 1.64 -0.104 1.414 -0.08 6.14 -0.008 6.872 0.166 1.718 1.434 1.15 8.052 0.918 1.298 -0.044 0.972 -0.492 0.862 -8.386Z" stroke-width="2"></path>
      <path id="vector_33" fill="#191919" d="M343.47 150.75c-0.016 -1.19 -0.414 -0.998 -7.734 -1.044 -0.82 -0.004 -1.104 0.736 -1.172 1.64 -0.104 1.414 -0.08 6.14 -0.008 6.872 0.166 1.718 1.434 1.15 8.052 0.918 1.298 -0.044 0.972 -0.492 0.862 -8.386Z" stroke-width="2"></path>
      <path id="vector_34" fill="#191919" d="M324.248 115.67c-7.436 0.104 -9.008 1.408 -8.844 -1.244 0.85 -13.78 0.21 -15.668 2.618 -15.452 7.382 0.664 7.596 0.632 7.566 2.246 -0.222 12.238 1.324 14.412 -1.34 14.45Zm-7.144 -2.146c-0.108 1.576 0.796 0.604 5.598 0.62 1.978 0.006 1.336 -0.264 1.366 -10.446 0.01 -3.302 -0.134 -2.194 -5.246 -3.072 -1.988 -0.342 -0.832 0.062 -1.718 12.898Z" stroke-width="2"></path>
    </g>
    <g id="human">
      <path id="vector_35" fill="#191919" d="M117.2658 144.4862c7.574 -7.526 18.8842 -9.516 27.3602 -2.798 3.54 2.806 4.83 6.998 6.422 11.878 1.408 4.312 -3.57 0.616 -2.774 4.224 5.644 25.554 8.208 28.34 4.42 29.488 -13.818 4.19 -13.698 3.642 -13.34 5.384 0.656 3.206 0.98 5.238 -1.714 6.792 -5.098 2.9378 -12.108 1.8138 -13.118 -4.06 -0.288 -1.676 -0.218 -1.15 -12.528 1.5 -1.324 0.286 -2.396 0.026 -2.858 -1.42 -16.066 -50.352 2.5718 -45.464 8.1278 -50.986l0.002 -0.002Zm12.8382 7.282c-0.628 4.746 1.952 6.594 -0.528 7.038 -2.354 0.422 -7.574 1.702 -7.676 4.094 -0.284 6.716 -0.3142 7.558 -2.1782 6.938 -1.894 -0.63 -3.5178 -2.086 -4.6418 -0.662 -1.324 1.676 1.654 4.744 3.112 5.368 3.85 1.648 3.9718 6.116 8.7018 20.894 1.282 4.006 6.158 4.26 9.644 2.492 2.292 -1.162 1.156 -2.446 0.942 -7.042 -0.104 -2.254 -2.384 1.102 -7.918 -2.626 -0.578 -0.39 -1.278 -0.77 -1.312 -1.664 1.072 -0.23 1.916 0.208 2.778 0.516 7.442 2.652 15.382 -1.458 17.064 -8.936 1.644 -7.298 -0.038 -14.394 -1.504 -21.486 -0.15 -0.726 -0.084 -0.758 -12.632 1.332 -2.544 0.424 -1.1258 -2.828 -3.8518 -6.256Z" stroke-width="2"></path>
      <g id="group_2">
        <path id="vector_36" fill="#191919" d="M161.246 277.354c-11.452 2.134 -24.558 0.17 -37.008 -7.364 -1.252 -0.758 -2.216 -1.952 -2.166 -3.464 0.402 -12.158 6.418 -17.062 30.586 -18.112 15.058 -0.654 21.276 1.308 21.434 -0.092 0.176 -1.546 -12.698 -2.09 -14.258 -2.146 -1.182 -0.042 -1.45 -0.402 -1.416 -1.5 0.556 -17.694 2.19 -17.432 0.854 -17.832 -2.212 -0.66 -3.294 15.866 -3.444 18.226 -0.136 2.136 -1.088 0.146 -10.55 1.684 -1.164 0.19 -1.318 -0.31 -1.32 -1.298 -0.062 -42.728 2.5 -48.2856 0.77 -48.5496 -0.812 -0.124 -1.244 2.1 -1.366 2.904 -1.256 8.2716 -0.716 8.3116 -2.174 8.4416 -4.844 0.434 -9.688 0.528 -14.526 0.03 -2.958 -0.306 -2.946 -0.356 -3 -3.284 -0.092 -5.0316 0.218 -6.4056 -1.302 -6.2636 -1.392 0.13 -0.816 13.2936 -0.872 17.4576 -0.514 39.082 3.45 35.362 3.532 32.454 0.186 -6.642 -0.492 -1.706 15.494 -4.476 0.582 -0.1 1.364 -0.322 1.168 0.678 -0.158 0.818 1.148 2.086 -0.7 2.434 -6.596 1.242 -14.084 2.678 -17.982 8.136 -0.822 1.152 -6.268 -4.324 -15.896 -2.372 -3.808 0.772 -8.904 4.324 -7.998 5.5 1.584 2.062 6.242 -8.248 21.544 -1.404 0.91 0.406 0.98 0.95 0.65 1.802 -2.132 5.476 -0.452 6.786 -2.732 6.302 -5.756 -1.226 -11.342 1.958 -10.302 3.52 0.524 0.788 1.16 0.066 1.68 -0.252 2.882 -1.764 5.928 -1.948 9.112 -1.002 1.776 0.528 0.674 2.908 4.294 4.998 13.606 7.858 26.778 9.75 38.088 7.734 -0.054 -0.886 -0.116 -1.848 -0.196 -2.892l0.002 0.002Zm-37.244 -53.996c-0.096 -2.266 3.986 1.076 16.366 -1.244 1.504 -0.282 0.612 0.482 0.9 8.19 0.038 1.022 -0.306 1.306 -1.244 1.378 -2.98 0.228 -5.954 0.54 -8.95 0.336 -8.61 0 -6.638 1.646 -7.072 -8.66Zm6.72 19.138c-5.346 -0.268 -5.836 0.024 -5.904 -1.152 -0.404 -7.068 -0.88 -7.068 0.544 -6.992 5.808 0.308 9.91 0.766 14.974 0.096 1.48 -0.196 0.874 0.318 1.132 5.97 0.05 1.102 0.088 1.454 -10.746 2.078Zm10.718 -24.1c-0.03 1.084 -0.46 1.382 -1.442 1.438 -19.822 1.116 -15.74 1.496 -16.24 -8.422 -0.132 -2.63 4.328 0.904 17.304 -0.822 1.554 -0.206 0.584 0.298 0.378 7.806Z" stroke-width="2"></path>
        <path id="vector_37" fill="#191919" d="M152.5098 194.8842c19.898 3.696 38.786 19.3358 41.312 41.5918 1.236 10.888 -2.224 20.504 -8.642 27.75 1.094 0.27 1.904 0.624 2.498 1.136 2.546 -3.042 4.578 -6.392 6.004 -9.916 13.8642 -34.238 -22.122 -65.0558 -47.914 -63.0678 -0.544 0.042 -1.444 -0.126 -1.44 0.654 0.004 0.956 5.56 1.364 8.182 1.852Z" stroke-width="2"></path>
      </g>
      <path id="vector_38" fill="#0a1628" d="M86.95 236.108c6.594 0.198 7.2242 5.492 9.2962 13.73 0.46 1.826 0.878 3.468 1.262 4.95 0.07 0.266 0.3938 0.368 0.6018 0.188 5.068 -4.404 9.314 -2.636 9.016 -5.996 -0.47 -5.312 -1.2258 -20.048 0.7582 -24.662 0.922 -2.144 2.7438 -1.198 3.0658 -0.042 1.344 4.81 1.676 24.602 1.676 24.678 -0.008 1.282 0.498 2.052 1.906 2.016 4.834 -0.128 7.58 3.344 7.274 0.29 -1.686 -16.842 -2.0738 -21.066 -2.2538 -26.334 -0.72 -21.142 2.2418 -24.086 -0.7702 -23.072 -12.554 4.228 -27.726 14.004 -32.734 34.23l0.902 0.024Z" stroke-width="2"></path>
      <path id="vector_39" fill="#191919" d="M83.546 236.01c3.36 -14.514 11.632 -28.666 34.628 -37.3216 0.746 -0.28 2.306 -0.256 1.944 -1.396 -0.752 -2.376 -33.958 8.6176 -38.436 38.5576 -0.006 0.036 -0.01 0.072 -0.016 0.108l1.88 0.052Z" stroke-width="2"></path>
      <path id="vector_40" fill="#191919" d="M111.036 250.578c-0.158 1.596 -1.386 1.562 -1.752 0.15 -1.024 -3.96 -1.694 -26.336 0.632 -26.252 0.436 0.016 0.634 0.906 0.712 2.226 0.012 0.204 0.548 22.442 0.406 23.876h0.002Z" stroke-width="2"></path>
      <path id="vector_41" fill="#191919" d="M110.73 257.572c1.022 0.222 2.82 -0.126 2.832 1.132 0.012 1.198 -1.734 0.732 -2.736 0.822 -6.818 0.604 -7.97 4.828 -9.15 3.774 -0.444 -0.398 -0.056 -0.838 0.15 -1.174 1.644 -2.662 3.512 -4.182 8.904 -4.554Z" stroke-width="2"></path>
      <path id="vector_42" fill="#191919" d="M112.716 262.796c-0.034 0.642 -0.452 0.738 -0.91 0.766 -4.474 0.28 -6.394 3.768 -7.302 2.928 -0.452 -0.418 -0.104 -0.888 0.156 -1.312 2.514 -4.108 7.704 -3.982 8.056 -2.382Z" stroke-width="2"></path>
      <path id="vector_43" fill="#191919" d="M137.772 177.0164c-1.742 0.448 -3.484 -0.28 -5.064 -0.642 0.16 2.358 1.122 3.254 3.306 3.138 5.622 -0.3 -1.378 4.758 -4.224 -0.364 -0.138 -0.248 -1.412 -2.962 -0.49 -3.992 0.834 -0.93 1.94 -0.026 2.886 0.202 1.162 0.28 2.41 0.17 3.734 0.628 1.234 0.426 0.058 0.978 -0.15 1.032l0.002 -0.002Z" stroke-width="2"></path>
      <path id="vector_44" fill="#191919" d="M142.078 169.16c0 4.562 -6.414 2.836 -3.692 1.53 1.542 -0.74 1.996 -1.936 1.358 -3.586 -1.138 -2.942 -1.612 -4.548 -0.922 -4.89 0.32 -0.158 0.52 0.084 0.632 0.322 1.062 2.26 2.21 4.488 2.624 6.624Z" stroke-width="2"></path>
      <path id="vector_45" fill="#191919" d="M130.798 160.3522c-0.042 0 1.418 -0.122 1.478 0.738 0.046 0.654 0.038 0.498 -6.092 1.998 -2.312 0.566 -0.794 -2.652 4.614 -2.736Z" stroke-width="2"></path>
      <path id="vector_46" fill="#191919" d="M139.178 159.1542c-0.176 -1.144 4.022 -1.864 5.76 -0.792 1.04 0.642 0.512 1.402 -0.348 1.386 -3.678 -0.068 -5.276 0.28 -5.412 -0.594Z" stroke-width="2"></path>
      <path id="vector_47" fill="#191919" d="M131.808 166.7462c-0.076 0.716 -0.326 1.372 -1.14 1.312 -1.22 -0.09 -1.34 -1.106 -1.396 -2.04 -0.088 -1.512 1.96 -2.086 2.534 0.73l0.002 -0.002Z" stroke-width="2"></path>
      <path id="vector_48" fill="#191919" d="M143.356 163.8684c0.072 -2.292 2.432 -1.706 2.472 0.448 0.016 0.826 -0.498 1.446 -1.29 1.362 -1.018 -0.108 -1.048 -1.086 -1.182 -1.81Z" stroke-width="2"></path>
      <path id="vector_49" fill="#0a1628" d="M172.956 262.758c3.46 0 6.892 0.45 9.616 0.94 9.762 -10.192 13.056 -25.65 4.356 -41.996 -9.046 -16.998 -30.376 -24.7198 -38.034 -25.1878 -1.97 -0.12 -2.314 -0.156 -3.21 41.1598 -0.08 3.636 -0.498 7.408 1.776 7.228 6.566 -0.522 7.414 0.118 7.354 -1.508 -0.16 -4.21 0.532 -13.512 2.724 -17.55 0.964 -1.776 3.02 -1.65 3.138 0.78 0.182 3.766 0.118 0.85 -1.244 16.424 -0.134 1.538 0.172 1.69 7.5 2.174 2.012 0.134 8.31 1.304 7.986 3.474 -0.536 3.584 -46.7 -5.128 -50.064 14.556 -0.466 2.724 -0.516 4.696 6.192 7.776 10.422 4.784 20.824 5.824 30.006 4.07 -0.706 -7.43 -1.592 -12.338 11.904 -12.338v-0.002Z" stroke-width="2"></path>
    </g>
    <g id="robot">
      <path id="vector_50" fill="#0a1628" d="M305.018 241.016c-3.926 -0.948 -9.232 -2.056 -9.65 -1.23 -0.256 1.462 -2.66 10.562 -3.352 12.012 2.816 1.01 6.204 1.928 9.604 2.678 1.552 -5.804 2.508 -10.194 3.396 -13.458l0.002 -0.002Z" stroke-width="2"></path>
      <path id="vector_51" fill="#0a1628" d="M252.46 272.316c-5.694 -0.636 -25.084 -4.152 -27.498 -9.13 -0.738 -1.52 3.348 -7.428 11.66 -7.428 4.428 0 9.234 1.346 13.504 2.488 8.886 2.38 16.99 3.544 15.024 7.022 -2.79 4.936 -5.602 7.068 -12.69 7.048Z" stroke-width="2"></path>
      <path id="vector_52" fill="#0a1628" d="M217.304 246.712c-3.238 3.248 -0.832 -9.39 -0.18 -14.044 0.592 -4.218 1.304 -10.504 4.462 -12.694 0.91 0.586 1.68 1.044 3.004 1.404 11.688 3.178 10.492 -0.952 10.952 4.852 0.52 6.574 1.074 13.344 -1.466 18.662 -0.9 1.886 -2.418 -1.726 -8.224 -1.726 -3.298 0 -6.28 1.272 -8.548 3.546Z" stroke-width="2"></path>
      <path id="vector_53" fill="#0a1628" d="M268.704 258.154c-2.744 -2.492 -5.246 -2.568 -17.614 -6.164 3.348 -3.16 3.642 -31.824 -3.686 -44.91 -0.754 -1.346 0.142 -5.196 -2.778 -8.7138 2.258 -0.558 4.126 -0.762 5.618 -0.872 0.952 7.4038 15.806 9.0278 20.446 4.2058 1.83 -1.9018 1.164 -3.2718 1.806 -3.3638 5.238 1.022 11.274 2.9838 14.958 6.8158 1.79 1.508 2.23 3.644 2.64 6.1 2.708 16.234 -1.278 29.462 -5.848 44.282 -5.46 -0.28 -10.658 0.306 -15.54 2.618l-0.002 0.002Zm-21.398 -7.218c-2.828 -0.738 -5.728 -1.328 -8.724 -1.516 1.446 -2.228 2.752 -4.688 2.992 -5.682 2.35 -9.766 -0.058 -19.23 -0.084 -22.65 1.592 -0.8 2.626 -1.882 3.33 -2.992 4.684 15.602 1.154 29.258 2.486 32.84Z" stroke-width="2"></path>
      <path id="vector_54" fill="#0a1628" d="M268.93 171.6522c-0.616 -1.798 -1.028 -7.29 -0.842 -8.744 1.174 -9.19 10.48 -8.124 9.792 -9.02 -4.876 -6.354 -9.082 -8.222 -19.142 0.6 -3.31 2.902 -5.468 4.298 -11.894 2.702 -3.206 -0.796 -3.194 -2.672 -3.428 -4.658 -0.05 -0.432 -4.492 2.734 -6.556 9.598 -0.224 0.742 6.506 -1.976 25.264 -0.612 5.418 0.394 4.676 2.37 5.154 8.728 1.13 15.04 -3.058 6.538 -27.258 9.234 -0.294 0.032 -0.068 0.31 0.424 1.144 2.956 5.024 6.376 4.47 10.122 4.488 17.81 0.086 23.408 0.074 27.56 -4.73 4.176 -4.832 -4.806 4.088 -9.192 -8.728l-0.004 -0.002Z" stroke-width="2"></path>
      <path id="vector_55" fill="#191919" d="M245.488 149.136c-5.082 3.47 -8.84 7.488 -9.988 13.474 -0.574 2.988 3.054 -1.548 26.526 0.156 3.41 0.248 3.936 0.704 3.938 4.164 0.016 18.988 2.062 7.554 -27.762 11.506 0.692 3.168 4.198 7.888 8.714 7.906 21.884 0.084 28.02 0.528 32.998 -6.21 0.582 -0.788 1.266 -2.14 2.376 -1.354 1.164 0.826 -0.008 1.852 -0.544 2.656 -2.514 3.764 -6.2 5.698 -10.542 6.468 -1.752 0.312 -1.444 0.168 -1.068 9.85 0.264 6.796 -17.726 5.602 -17.84 -0.854 -0.038 -2.124 -0.206 -4.256 -0.034 -6.364 0.356 -4.35 -8.064 0.85 -12.996 -5.828 -14.36 -19.442 -3.528 -45.562 29.052 -40.344 11.748 1.882 11.97 10.064 16.378 10.914 4.546 0.876 7.31 7.236 6.83 12.272 -0.744 7.814 -6.724 9.354 -14.598 10.232 -4.746 0.53 -9.58 -8.514 -7.038 -17.396 0.948 -3.31 6.846 -4.812 9.172 -5.196 0.712 -0.118 0.984 -0.28 0.502 -1.022 -3.256 -5.014 -7.412 -8.518 -12.908 -6.226 -11.274 4.7 -9.134 10.6 -19.516 8.024 -3.428 -0.85 -2.346 -3.616 -1.65 -6.83l-0.002 0.002Zm6.552 14.862c-16.85 0.392 -16.894 0.678 -16.768 2.832 0.124 2.09 1.206 8.732 2.036 9.648 0.694 0.768 1.458 0.152 3.7 -0.008 21.724 -1.558 23.426 2.312 23.362 -1.5 -0.158 -9.59 0.642 -9.91 -1.278 -10.244 -3.662 -0.638 -7.348 -0.814 -11.052 -0.728Zm27.606 -5.036c-5.322 7.084 2.878 19.71 8.376 13.382 5.732 -6.598 -2.674 -20.974 -8.376 -13.382Zm-18.342 29.48v0.242c-2.12 0 -4.244 0.022 -6.364 -0.012 -1.512 -0.024 -0.854 0.36 -0.75 7.722 0.042 2.958 6.994 4.686 12.222 2.896 2.322 -0.796 1.484 -1.952 1.84 -9.8 0.064 -1.408 -0.008 -1.048 -6.946 -1.048h-0.002Zm20.392 -13.42c-5.942 -3.992 -6.812 -12.348 -3.188 -17.668 -1.924 0.284 -3.418 0.9 -4.922 1.512 -4.872 1.982 -2.316 18.75 4.81 16.872 1.03 -0.272 2.13 -0.302 3.3 -0.716Zm-16.536 -28.838c-6.858 -0.348 -19.15 -0.594 -18.314 5.636 0.096 0.712 0.088 1.546 0.826 2.048 1.708 1.162 5.984 0.894 7.542 -0.582 2.976 -2.818 6.08 -5.438 9.946 -7.102Z" stroke-width="2"></path>
      <path id="vector_56" fill="#191919" d="M288.886 203.628c2.254 1.902 2.828 4.63 3.268 7.286 4.15 24.99 -6.976 44.6 -5.178 45.358 0.418 0.176 0.976 -0.3 1.61 -1.294 3.614 1.568 7.98 2.726 11.904 3.58 0.208 -0.73 0.408 -1.44 0.6 -2.132 -3.962 -0.902 -8.078 -2.08 -11.412 -3.506 1.538 -3.346 3.274 -8.866 4.52 -15.168 3.712 -0.418 7.69 0.248 11.444 1.142 0.242 -0.75 0.488 -1.42 0.75 -2.018 -3.884 -0.95 -8.438 -1.81 -11.736 -1.604 1.624 -9.512 0.6 -9.974 1.578 -10.258 0.662 -0.192 3.156 -1.852 3.512 -2.292 6.74 -8.35 0.684 -20.514 -9.738 -22.122 -1.5 -0.232 -5.516 -5.0162 -17.388 -7.0262 -0.448 -0.076 -1.34 -0.724 -1.388 0.302 -0.032 0.726 -0.83 1.946 0.738 2.222 0.574 0.18 11.216 1.586 16.918 7.5282l-0.002 0.002Zm7.034 19.126c-0.192 -6.544 -0.306 -13.004 -3.314 -19.202 9.712 5.854 9.594 15.058 3.314 19.202Z" stroke-width="2"></path>
      <path id="vector_57" fill="#191919" d="M283.622 272.74c-2.45 -2.376 -7.336 -5.024 -8.404 -4.386 -0.006 0.096 0.098 0.532 1.69 1.652 1.574 1.106 3.188 2.164 4.684 3.374 0.592 -0.282 1.264 -0.488 2.03 -0.64Z" stroke-width="2"></path>
      <path id="vector_58" fill="#191919" d="M259.73 156.196c2.92 0.21 5.38 2.104 4.76 2.912 -0.884 1.152 -3.288 -1.994 -6.77 -0.8 -1.026 0.352 -1.33 -2.35 2.01 -2.112Z" stroke-width="2"></path>
      <path id="vector_59" fill="#191919" d="M241.688 158.74c-3.306 -0.274 -3.6 1.706 -4.202 0.7 -0.608 -1.014 2.504 -3.312 4.936 -2.446 0.65 0.232 1.48 0.502 1.266 1.4 -0.172 0.716 -0.582 0.464 -1.998 0.348l-0.002 -0.002Z" stroke-width="2"></path>
      <path id="vector_60" fill="#0a1628" d="m271.968 196.102 0.34 0.102c-0.164 0.13 -0.26 0.036 -0.34 -0.102Z" stroke-width="2"></path>
      <path id="vector_61" fill="#191919" d="M256.684 169.276c1.328 0.268 2.87 0.578 2.668 1.466 -0.378 1.676 -1.286 -1.184 -5.384 0.796 -2.112 1.02 -0.882 -2.346 2.716 -2.262Z" stroke-width="2"></path>
      <path id="vector_62" fill="#191919" d="M242.522 170.8218c-0.306 2.016 -2.054 -1.038 -4.572 0.758 -0.486 0.348 -1.114 -0.256 -0.796 -0.692 1.59 -2.182 4.634 -1.728 5.368 -0.066Z" stroke-width="2"></path>
      <path id="vector_63" fill="#191919" d="M279.624 274.972c-1.284 -2.174 -7.258 -5.72 -12.44 -4.844 0.348 -1.538 3.06 -3.686 2.112 -7.214 -0.222 -0.83 4.944 -3.896 9.066 -1.298 9.532 6.004 11.13 6.568 9.506 8.806 -0.504 0.694 -1.078 -0.268 -1.53 -0.566 -3.198 -2.11 -6.158 -3.874 -7.836 -4.512 -1.398 -0.53 -1.952 -0.236 -0.598 0.898 1.148 0.96 3.56 2.624 7.71 5.168 0.558 0.342 0.878 0.672 1.04 0.986 0.71 -0.04 1.474 -0.064 2.296 -0.082 0.27 -0.694 0.524 -1.334 0.77 -1.756 2.302 -3.938 -4.53 -6.234 -4.274 -6.628 0.674 -1.04 6.428 2.978 5.006 -4.566 -0.206 -1.09 -1.244 -1.278 -2.178 -1.382 -6.566 -0.74 -13.048 -0.766 -19.152 2.304 -0.55 0.276 -0.9 0.332 -1.4 -0.176 -2.302 -2.342 -4.52 -2.492 -13.78 -5.116 -6.016 -1.706 -11.962 -3.77 -18.352 -3.528 -0.788 0.03 -0.794 -0.57 -1.026 -1.034 -3.336 -6.702 -14.246 -7.57 -18.204 1.37 -3.876 -3.33 -3.008 -8.058 -1.63 -17.166 0.896 -5.92 1.408 -12.932 5.128 -15.976 2.472 -2.022 2.166 -0.156 5.284 0.692 11.312 3.074 12.086 -0.34 12.184 2.158 0.216 5.594 1.588 14.062 -0.038 20.828 -0.934 3.888 -2.154 5.418 -1.082 5.992 1.306 0.698 2.984 -3.624 3.336 -5.082 2.814 -11.672 -1.568 -22.964 0.38 -23.744 4.772 -1.91 3.956 -6.754 4.982 -7.286 4.534 10.408 5.046 22.78 4.214 34.1 -0.43 5.862 1.172 5.76 1.802 -1.482 0.924 -10.646 -0.084 -27.334 -5.342 -36.728 -1.114 -1.99 -0.098 -3.934 -1.768 -7.21 -0.73 -1.432 -1.974 -2.364 -3.18 -3.512 9.108 -3.222 11.136 -1.106 10.576 -3.146 -0.178 -0.65 0.122 -1.578 -1.186 -1.42 -13.734 1.664 -12.356 3.812 -14.982 3.566 -5.706 -0.538 -13.922 2.048 -15.904 7.55 -3.428 9.518 2.292 11.732 0.398 12.574 -2.782 1.236 -4.118 3.65 -4.876 6.39 -2.07 7.482 -3.272 15.104 -3.31 22.888 -0.034 6.708 4.332 7.056 4.5 10.252 0.302 5.748 3.544 5.35 5.668 9.536 3.344 6.586 20.32 9.356 27.016 10.566 11.174 2.02 15.67 -3.564 17.11 -3.868 7.386 -1.552 11.2 3.586 13.164 4.132 0.236 -0.55 0.508 -1.024 0.82 -1.434Zm8.48 -15.092c0.934 0.084 0.724 0.788 0.758 1.336 0.128 2.04 -3.122 0.468 -5.018 1.732 -0.868 -0.628 -2.336 -1.764 -5.122 -3.286 3.164 -0.302 6.272 -0.062 9.38 0.218h0.002Zm-67.602 -52.216c0.966 -7.68 10.236 -9.822 17.828 -8.304 5.418 1.084 4.552 10.042 3.234 14.698 -1.738 6.142 -12.368 4.86 -18.134 2.12 -2.53 -1.202 -3.268 -5.806 -2.928 -8.514Zm0.004 53.906c-3.33 -2.664 -3.884 -8.35 -0.222 -11.626 3.608 -3.226 8.442 -2.886 11.392 0.712 2.154 2.626 -7.248 0.822 -11.17 10.914Zm31.838 12.85c-9.158 -1.01 -33.852 -6.004 -28.988 -13.776 6.45 -10.306 18.376 -6.812 27.318 -4.416 8.102 2.172 19.864 3.78 16.306 10.076 -3.05 5.396 -6.476 8.162 -14.636 8.116Z" stroke-width="2"></path>
    </g>
    <path id="laptop 2" fill="#191919" d="M376.096 236.036c-20.81 0.094 -41.624 0.142 -62.432 0.754 -4.126 0.122 -2.726 -1.114 -8.602 21.032 -1.562 5.886 -3.73 11.606 -4.994 17.576 -0.192 0.91 -0.684 0.918 -1.386 0.938 -17.286 0.504 -16.042 -0.482 -16.764 4.738 -0.166 1.204 -0.378 1.684 4.208 1.856 5.1 0.19 73.804 -0.274 78.878 -0.584 4.374 -0.268 4.644 -0.918 5.498 -2.596 1.392 -2.732 7.996 -30.188 9.74 -38.746 0.946 -4.638 0.7 -4.99 -4.148 -4.97l0.002 0.002Zm-30.124 21.418c-3.264 1.84 -3.674 4.604 -1.056 7.126 1.914 1.844 -7.906 6.452 -8.668 -3.306 1.396 -11.63 12.414 -5.338 9.724 -3.822v0.002Zm2.542 -11.664c-0.034 3.298 -5.678 8.668 -6.486 4.742 -0.784 -3.808 6.754 -8.588 6.486 -4.742Z" stroke-width="2"></path>
    <path id="laptop 1" fill="#191919" d="M73.964 286.222c-43.934 -0.544 -42.024 0.31 -43.876 -1.948 -1.962 -2.392 -10.5579 -39.932 -10.5699 -39.992 -0.978 -4.39 0.368 -4.796 3.8879 -4.776 21.138 0.118 42.278 0.152 63.412 0.788 1.732 0.052 2.4322 0.35 3.3462 3.08 0.934 2.79 8.4758 29.718 9.7138 35.58 0.146 0.696 0.4902 0.838 1.1182 0.858 16.47 0.544 16.3238 -0.364 16.9398 3.842 0.306 2.09 -0.038 2.588 -2.128 2.66 -6.566 0.23 -41.844 0.042 -41.844 -0.092Zm-21.498 -20.136c0.466 2.518 2.56 4.718 4.84 5.128 2.488 0.448 6.478 -3.134 4.386 -4.102 -2.9 -1.342 -3.49 -4.588 -1.206 -6.82 2.706 -2.644 -9.972 -4.772 -8.02 5.794Zm7.186 -15.682c0.03 -7.616 -6.268 0.192 -4.936 3.93 1.29 3.616 4.73 -0.918 4.936 -3.93Z" stroke-width="2"></path>
    <path id="cup" fill="#191919" d="M184.286 266.164c2.258 0.482 2.602 0.876 2.774 3.2 0.146 1.982 4.9442 -2.182 8.3262 2.812 2.848 4.206 -1.446 11.988 -8.664 12.958 -2.338 0.314 0.64 1.098 -3.2 3.784 -6.268 4.382 -19.1682 2.334 -19.4822 -2.568 -1.204 -18.84 -2.5778 -19.052 1.8222 -20.538 5.186 -1.752 13.0698 -0.79 18.4238 0.352Zm-19.9798 3.36c1.554 18.392 1.0478 17.566 2.5338 18.258 7.3 3.398 16.888 1.32 16.888 -2.53 0 -0.716 1.458 -15.142 1.534 -15.896 -6.98 2.082 -13.8698 1.4 -20.9558 0.168Zm29.4838 5.43c-0.032 -1.982 -1.818 -3.742 -5.916 -3.066 -1.35 0.222 -0.952 0.104 -1.814 10.052 -0.236 2.72 7.82 -1.62 7.73 -6.986Z" stroke-width="2"></path>
  </g>
</svg>