<svg xmlns="http://www.w3.org/2000/svg" fill="none" viewBox="0 0 400 400" id="Selecting-An-Algorithm--Streamline-Brooklyn" height="400" width="400">
  <desc>
    Selecting An Algorithm Streamline Illustration: https://streamlinehq.com
  </desc>
  <g id="selecting-an-algorithm--ai-ml-tech-selecting-an-algorithm">
    <g id="circuit">
      <path id="vector" fill="#0a1628" d="M319.316 278.884c0.412 7.244 -6.246 13.768 -13.844 13.424 -6.468 -0.292 -12.876 -5.928 -12.736 -13.254 0.326 -17.09 26.516 -17.96 26.58 -0.17Z" stroke-width="2"></path>
      <path id="vector_2" fill="#0a1628" d="M242.082 86.7934c-19.012 1.498 -20.896 0.704 -20.816 -1.93 0.89 -29.096 -7.342 -18.864 20.094 -21.592 1.622 -0.162 2.33 0.51 2.346 2.19 0.204 20.472 1.718 21.07 -1.626 21.334l0.002 -0.002Z" stroke-width="2"></path>
      <path id="vector_3" fill="#0a1628" d="M385.754 152.938c-19.012 1.496 -20.896 0.704 -20.816 -1.93 0.89 -29.096 -7.342 -18.864 20.094 -21.592 1.622 -0.162 2.33 0.51 2.346 2.19 0.204 20.472 1.718 21.07 -1.626 21.334l0.002 -0.002Z" stroke-width="2"></path>
      <path id="vector_4" fill="#0a1628" d="M193.456 158.3238c-15.376 -0.006 -14.938 -22.918 0.258 -23.146 5.942 -0.09 11.272 5.602 11.196 11.81 -0.076 6.242 -5.224 11.338 -11.454 11.336Z" stroke-width="2"></path>
      <path id="vector_5" fill="#0a1628" d="M302.446 247.822c-1.052 -58.5322 -0.92 -57.3242 0.572 -57.1822 0.888 0.084 1.128 0.65 1.278 5.972 1.948 69.8462 1.43 67.1362 -0.276 67.1042 -1.4 -0.026 -1.296 -0.386 -1.574 -15.894Z" stroke-width="2"></path>
      <path id="vector_6" fill="#0a1628" d="M331.89 77.1478c-1.498 -1.812 -0.716 -1.908 6.768 -11.96 1.76 -2.364 2.312 -0.518 8.984 9.476 1.082 1.622 0.262 1.982 -6.184 10.49 -2.042 2.694 -3.414 -0.558 -9.57 -8.008l0.002 0.002Z" stroke-width="2"></path>
      <path id="vector_7" fill="#0a1628" d="M312.958 70.9382c17.298 0 17.396 -0.332 17.37 1.21 -0.024 1.434 0.034 1.022 -26.222 0.93 -5.716 -0.02 -5.81 -0.786 -5.7 2.874 0.29 9.552 -0.004 19.102 -0.05 28.65 -0.004 0.942 0.404 2.542 -1.018 2.512 -1.24 -0.026 -1.1 0.03 -1.248 -34.138 -0.012 -2.97 -0.268 -2.122 16.87 -2.122l-0.002 0.084Z" stroke-width="2"></path>
      <path id="vector_8" fill="#0a1628" d="M282.794 103.7704c-0.162 1.146 -1.76 1.094 -1.872 -0.068 -0.102 -1.066 -0.258 -26.508 -0.264 -29.958 0 -1.494 -0.39 -2.02 -1.948 -1.918 -6.048 0.398 -24.788 -0.01 -28.4 -0.408 -1.786 -0.196 -1.582 -1.804 0 -1.888 2.144 -0.114 4.294 -0.292 6.438 -0.272 26.286 0.246 26.028 -0.538 26.032 2.724 0 0.042 0.178 30.61 0.012 31.786l0.002 0.002Z" stroke-width="2"></path>
      <path id="vector_9" fill="#0a1628" d="M208.912 146.314c-0.976 -0.206 -1.058 -1.5198 -0.022 -1.7438 3.814 -0.824 18.966 -0.8082 23.584 -0.8622 9.592 -0.112 9.708 -0.6958 9.586 0.7042 -0.238 2.772 0.208 1.936 -16.962 1.936 0 0.106 -15.278 0.1578 -16.186 -0.0342Z" stroke-width="2"></path>
      <path id="vector_10" fill="#0a1628" d="M338.23 141.8022c6.922 -0.564 13.856 0.166 20.782 -0.186 0.916 -0.046 2.604 -0.446 2.644 1.162 0.044 1.736 0.084 1.162 -29.88 2.13 -0.764 0.024 -1.572 0.046 -1.536 -0.972 0.094 -2.728 2.094 -2.134 7.99 -2.134Z" stroke-width="2"></path>
      <path id="vector_11" fill="#0a1628" d="M344.054 273.544c-0.048 2.72 -1.248 2.458 -9.756 3.472 -2.002 0.238 -2.144 -1.688 -0.306 -2.092 6.578 -1.446 7.278 -0.862 7.266 -3.056 -0.152 -26.97 1.158 -75.7742 0.56 -78.6482 -0.14 -0.674 0.216 -1.21 0.92 -1.35 3.122 -0.616 23.524 -1.284 28.078 -1.32 2.062 -0.016 1.388 0.114 2.224 -18.788 0.058 -1.332 0.264 -2.796 1.71 -2.704 1.566 0.1 1.46 1.902 1.384 4.086 -0.74 21.258 0.11 20.444 -4.21 20.654 -27.156 1.332 -27.182 -0.548 -27.14 2.386 0.13 8.8862 -0.576 68.4742 -0.73 77.3562v0.004Z" stroke-width="2"></path>
      <path id="vector_12" fill="#0a1628" d="M331.148 277.304c-0.036 6.174 -9.234 6.03 -9.132 -0.042 0.098 -5.92 9.168 -6.038 9.132 0.042Z" stroke-width="2"></path>
      <path id="vector_13" fill="#0a1628" d="M379.528 162.7796c0.038 6.256 -9.154 5.56 -9.07 -0.292 0.082 -5.682 9.032 -5.874 9.07 0.292Z" stroke-width="2"></path>
      <path id="vector_14" fill="#0a1628" d="M191.08 104.4618c0 -27.462 -0.878 -27.52 1.974 -27.712 8.89 -0.596 11.882 -1.812 12.12 0.25 0.156 1.354 -1.026 1.524 -2.032 1.626 -9.356 0.934 -9.42 0.196 -9.494 2.308 -0.962 27.942 0.964 39.178 -1.706 39.142 -0.994 -0.014 -1.142 -0.878 -1.142 -1.698 -0.004 -13.92 -0.152 -13.92 0.28 -13.916Z" stroke-width="2"></path>
      <path id="vector_15" fill="#0a1628" d="M195.362 127.31c-0.026 6.048 -9.226 6.124 -9.184 0.152 0.042 -6.026 9.21 -6.392 9.184 -0.152Z" stroke-width="2"></path>
      <path id="vector_16" fill="#0a1628" d="M216.564 76.4558c-0.024 6.276 -8.586 5.724 -8.48 0.268 0.042 -2.144 2.38 -4.43 4.554 -4.456 2.156 -0.026 3.934 1.876 3.926 4.188Z" stroke-width="2"></path>
      <path id="vector_17" fill="#0a1628" d="M236.284 50.068c0.044 1.548 -1.736 1.308 -1.838 -0.08 -0.514 -7.086 -0.116 -7.384 -0.488 -9.418 -0.686 -3.756 3.976 -1.662 59.508 -3.288 6.37 -0.186 45.456 -0.488 45.498 -0.488 2.97 0.006 2.252 0.59 2.182 10.724 -0.01 1.354 0.25 2.662 -1.056 2.716 -1.248 0.052 -1.514 -0.552 -1.46 -8.356 0.01 -1.308 -0.442 -1.672 -1.732 -1.672 -76.356 -0.014 -100.734 0.556 -100.734 0.556s-0.002 4.88 0.12 9.306Z" stroke-width="2"></path>
      <path id="vector_18" fill="#0a1628" d="M343.734 57.2482c-0.078 6.09 -9.036 5.398 -8.836 -0.11 0.202 -5.56 8.91 -5.754 8.836 0.11Z" stroke-width="2"></path>
      <path id="vector_19" fill="#0a1628" d="M233.302 52.3382c5.55 0.198 5.254 8.584 -0.25 8.45 -5.742 -0.14 -5.296 -8.646 0.25 -8.45Z" stroke-width="2"></path>
      <path id="vector_20" fill="#0a1628" d="M315.794 118.4278c-25.494 -24.266 -75.622 -9.044 -72.752 33.646 0.708 10.554 5.352 20.886 13.616 28.302 0.744 -1.102 1.476 -2.178 2.184 -3.214 -12.862 -12.362 -15.85 -32.868 -6.834 -48.004 7.614 -12.782 23.54 -21.066 40.996 -17.774 28.34 5.348 39.11 36.896 26.536 58.004 -7.016 11.778 -21.09 19.738 -36.914 18.338 1.64 1.032 3.466 2.478 4.752 3.638 0.292 0 0.586 0 0.882 -0.004 25.568 -0.312 40.008 -20.508 40.254 -44.884 0.068 -6.726 -3.664 -19.424 -12.724 -28.048h0.004Z" stroke-width="2"></path>
      <path id="vector_21" fill="#0a1628" d="M294.522 124.1476c-3.968 -2.262 -21.168 -3.71 -30.794 10.012 -7.918 11.288 -6.142 24.94 1.43 33.828 0.504 -0.684 1.038 -1.35 1.6 -1.984 -2.286 -2.706 -4.078 -6.03 -5.05 -9.98 -4.628 -18.818 13.106 -35.496 31.044 -29.788 27.954 8.898 20.52 49.492 -6.718 48.656 -1.022 0.024 -2.076 -0.03 -3.144 -0.162 -0.356 0.768 -0.754 1.548 -1.182 2.338 2.332 0.32 4.79 0.35 7.352 0.044 28.176 -3.378 33.14 -43.8 5.462 -52.964Z" stroke-width="2"></path>
    </g>
    <g id="robot">
      <path id="vector_22" fill="#0a1628" d="M107.008 184.1818c-27.114 0 -39.642 -9.376 -35.364 -10.66 13.66 -4.106 17.756 -24.912 10.38 -38.628 -5.514 -10.252 -16.006 -6.13 -14.85 -7.512 5.06 -6.052 14.76 -9.8 14.816 -9.8 6.642 0 17.34 6.396 20.718 8.368 5.686 3.322 8.442 4.94 14.714 3.896 8.53 -1.42 17.584 -3.302 16.03 -11.646 -0.776 -4.164 8.142 2.554 12.21 10.1 0.942 1.748 3.362 6.482 1.438 6.982 -17.744 4.608 -28.892 7.498 -48.006 7.498 -7.8 0 -11.55 -1.028 -10.466 23.676 0.348 7.932 3.382 10.168 22.336 10.168 14.014 0 26.222 -2.826 34.346 -5.356 5.708 -1.778 -2.848 12.91 -38.3 12.91l-0.002 0.004Z" stroke-width="2"></path>
      <path id="vector_23" fill="#191919" d="M155.27 336.558c8.954 -1.978 9.506 -1.112 8.73 -7.724 -0.798 -6.812 -2.466 -2.44 -27.754 -3.48 -4.434 -0.182 -8.824 -0.236 -13.05 1.346 -1.8 0.674 -3.352 -8.658 -30.348 -15.27 -30.828 -7.55 -32.35 -0.646 -33.254 -4.222 -3.676 -14.52 -27.492 -19.612 -36.722 -1.54 -4.164 8.152 -2.594 17.922 4.506 23.952 2.084 1.77 3.834 3.484 3.772 6.416 -0.04 1.936 4.464 10.49 13.622 14.362 27.758 11.73 61.302 7.22 70.656 -0.36 1.052 -0.852 7.868 -0.674 11.374 0.484 12.612 4.166 18.602 12.466 21.588 10.558 1.852 -1.182 3.786 -2.278 5.202 -4.028 1.376 -1.698 1.112 0.434 5.028 -4.074 1.766 -2.032 3.086 -1.4 4.962 -5.348 2.212 -4.66 -0.744 -5.64 -8.312 -11.072Zm6.052 -7.398c0.034 0.772 0.242 1.588 0.05 2.3 -0.254 0.946 -6.798 1.854 -9.17 2.542 -1.286 0.374 -0.934 -0.31 -8.504 -5.428 16.19 0.31 17.528 -1.6 17.624 0.586Zm-130.68 -3.42c-8.974 -9.796 -4.058 -26.78 11.484 -27.16 4.792 -0.118 11.848 2.61 13.882 8.564 0.624 1.828 0.636 1.98 -1.15 2.364 -8.43 1.808 -15.054 6.514 -20.672 12.846 -2.39 2.694 -1.828 5.258 -3.544 3.386Zm75.782 24.152c-49.244 12.54 -97.916 -13.676 -55.964 -35.202 16.584 -8.51 55.234 1.564 67.12 11.882 5.25 4.558 1.896 8.678 -2.096 16.764 -1.888 3.824 -5.242 5.584 -9.06 6.556Zm54.288 -3.816c-0.86 1.926 -1.37 2.214 -2.988 0.934 -2.812 -2.226 -13.822 -7.746 -16.772 -8.374 -2.322 -0.494 -2.874 1.362 -1.052 2.458 18.592 11.18 18.1 8.916 14.926 11.84 -2.084 1.918 -3.686 -2.844 -15.982 -8.054 -2.496 -1.058 -5.556 -1.036 -3.82 1.396 1.082 1.516 17.29 8.424 15.774 9.786 -5.63 5.06 -1.978 0.364 -20.022 -7.88 -12.112 -5.534 -13.984 0.64 -10.542 -5.542 7.188 -12.914 1.786 -13.048 4.978 -13.758 6.722 -1.496 12.78 -0.422 18.398 3.87 15.48 11.828 18.288 10.674 17.102 13.326v-0.002Z" stroke-width="2"></path>
      <path id="vector_24" fill="#191919" d="M263.742 208.156c0.73 0.662 1.518 0.03 2.076 -0.45 4.72 -4.062 13.678 -13.58 10.52 -19.454 -0.934 -1.736 -2.682 -2.352 -4.434 -3.148 8.658 -13.936 10.802 -17.452 5.924 -19.696 -3.62 -1.664 -7.588 2.618 -9.832 5.912 -5.962 8.746 -22.406 31.842 -24.916 41.602 -0.624 2.428 -3.696 -3.128 -37.18 37.55 -3.302 -5.522 -8.516 -12.568 -13.89 -16.11 -4.964 -3.274 -0.144 -10.456 -10.906 -17.998 -10.822 -7.584 -16.898 -5.11 -18.376 -6.684 -2.982 -3.176 -14.052 -10.066 -25.854 -11.646 -12.752 -1.706 -13.67 -0.322 -13.724 -2.992 -0.072 -3.458 -1.896 -4.948 1.1 -5.406 10.984 -1.682 25.934 -7.21 29.754 -17.382 2.038 -5.428 3.366 -11.038 3.25 -16.878 -0.382 -19.394 -1.65 -31.138 -14.764 -41.746 -17.158 -13.882 -54.916 -10.662 -74.67 4.184 -9.736 7.316 -8.132 13.02 -9.9 13.788 -6.056 2.628 -10.622 5.904 -11.544 17.59 -0.73 9.264 4.12 16.102 9.196 18.736 3.582 1.86 1.544 3.222 8.746 10.138 4.8 4.61 7.808 7.722 24.84 11.208 2.284 0.468 1.13 1.18 2.542 6.29 0.406 1.472 0.776 1.596 -11.06 2.41 -8.712 0.6 -16.904 4.012 -25.714 4.43 -6.416 0.304 -12.302 3.332 -17.926 6.404 -10.078 5.506 -10.408 21.894 -5.31 32.182 1.906 3.844 -9.362 -3.59 -15.25598 36.964 -1.354 9.316 -4.204 25.082 0.238 30.678 1.428 1.8 2.82598 1.478 2.34198 -0.946 -1.734 -8.722 -1.552 -11.432 1.282 -30.56 1.634 -11.038 4.804 -23.02 13.312 -30.586 2.754 -2.448 0.704 0.988 10.486 3.434 9.188 2.296 17.598 -1.31 18.498 -0.654 0.89 0.65 0.51 2.356 0.628 3.604 0.728 7.694 2.62 15.236 2.83 23.002 0.56 20.612 -7.338 25.264 -4.63 27.076 1.642 1.1 5.834 -2.652 8.152 -12.112 3.08 -12.574 -0.36 -26.58 -3.2 -41.772 -0.55 -2.946 6.18 -2.012 9.036 -10.958 3.418 -10.71 3.85 -26.44 -6.12 -33.506 1.528 -0.382 2.618 -1.004 3.892 -1.154 19.252 -2.264 18.894 -3.246 19.302 -0.522 0.99 6.632 0.624 13.556 3.502 14.458 10.762 3.38 21.454 0.766 26.846 -3.854 3.03 -2.596 2.236 -3.666 1.408 -11.79 8.996 0 17.748 0.178 25.438 4.782 8.574 5.134 12.998 6.378 17.574 20.566 5.524 17.124 3.254 52.5 -1.756 66.594 -2.678 7.532 -4.926 15.212 -7.74 22.7 -0.678 1.804 1.152 3.522 2.028 2.34 6.384 -8.608 10.064 -18.538 12.774 -28.916 0.908 0.196 0.606 0.59 5.394 6.374 6.538 7.898 10.664 9.48 19.814 9.4 5.894 -0.052 18.956 18.066 48.228 -24.458 4.172 -6.06 29.584 -38.614 22.242 -56.214 -0.348 -0.836 0.148 -1.018 0.692 -1.35 5.258 -3.202 8.642 -12.734 -1.154 -3.306 -1.896 1.826 -1.408 -0.038 -4.796 -2.92 -7.884 -6.706 -17.4 -3.136 -15.724 -6.136 8.06 -14.428 32.204 -52.918 29.664 -41.296 -0.046 0.212 -0.15 0.42 -0.268 0.602 -3.774 5.842 -6.512 12.242 -9.77 18.364 -3.51 6.594 -6.018 10.512 -6.034 12.626 -0.03 4.014 5.438 -4.798 9.612 -13.368 0.166 -0.34 0.072 -1.104 0.908 -0.858 1.876 0.552 3.06 2.7 2.512 4.614 -1.724 6.026 -12.21 14.34 -10.134 16.22v0.004Zm-192.564 5.898c2.584 7.89 2.842 15.8 -0.246 23.63 -2.6 6.592 -14.23 7.442 -21.312 7.622 -17.944 0.454 -19.31 -25.732 -10.134 -31.46 15.066 -9.406 29.318 -7.036 31.692 0.208Zm80.688 -74.34c0.616 0.492 2.63 9.994 1.948 19.772 -0.26 3.718 -0.608 3.93 -4.096 4.948 -14.732 4.304 -37.02 9.1 -53.94 5.148 -2.992 -0.7 -1.566 -17.112 -1.202 -20.162 0.228 -1.91 3.972 -0.322 8.288 -0.398 29.466 -0.522 48.028 -10.084 49 -9.306l0.002 -0.002ZM120.636 108.946c1.66 0.22 2.704 0.722 3.412 2.44 4.312 10.468 7.088 11.178 -10.254 13.126 -3.14 0.352 -5.822 -2.646 -11.76 -5.848 -9.42 -5.082 -11.018 -4.816 -14.386 -6.23 13.56 -3.972 24.784 -4.574 32.988 -3.488Zm-69.85 50.76c-5.094 -10.364 -0.178 -21.77 5.008 -24.228 6.6 -3.128 11.446 4.898 11.64 13.372 0.348 15.092 -11.616 21.096 -16.648 10.856Zm12.892 -26.282c14.53 -4.086 22.924 19.36 8.326 33.506 -3.154 3.056 -10.088 0.484 -11.692 0.11 12.274 -4.982 12.684 -26.85 3.366 -33.616Zm-1.562 37.652c2.806 0.064 16.498 3.484 20.336 -16.912 0.36 -1.918 0.1 -3.942 0.196 -5.92 0.212 -4.338 -1.282 -8.31 -3.238 -11.946 -3.658 -6.802 -9.642 -5.746 -17.764 -5.746 0.56 -1.824 1.922 -3.492 3.264 -5.092 4.312 -5.148 10.108 -8.13 16.14 -10.716 1.684 -0.722 10.346 1.566 16.518 4.884 11.284 6.068 12.506 8.434 19.368 7.286 3.832 -0.64 7.668 -1.252 11.162 -3.114 2.492 -1.328 2.952 -2.282 2.44 -5.042 -0.54 -2.912 -1.452 -5.678 -3.646 -8.368 21.21 5.42 26.164 26.422 23.642 27.072 -19.538 5.03 -31.736 8.666 -55.014 8.254 -1.96 -0.034 -2.94 1.256 -3.332 3.908 -0.816 5.526 -0.832 11.118 -0.586 16.7 0.17 3.858 0.866 5.562 4.888 6.204 29.58 4.72 56.024 -7.036 56.066 -7.01 0.506 0.304 -0.612 9.158 -9.532 14.256 -5.704 3.26 -17.782 6.916 -31.592 7.304 -35.508 0.996 -42.762 -9.974 -49.318 -16l0.002 -0.002Zm57.72 39.472c-5.676 3.94 -11.892 5.872 -18.842 4.478 -4.82 -0.968 -2.47 -5.186 -6.566 -24.52 24.694 2.216 24.418 -1.906 24.618 2.868 0.574 13.674 3.402 15.362 0.79 17.174Zm48.29 5.178c5.182 2.352 10.788 4.27 13.568 9.744 4.558 8.98 2.446 16.67 0.582 22.976 -0.826 2.796 -2.46 4.992 -4.97 6.54 -4.604 2.84 2.038 -15.324 -9.18 -39.26Zm7.49 70.784c-1.334 -1.374 -1.956 -3.162 -1.622 -5.314 2.91 -18.668 0.174 -20.604 2.844 -21.088 8.458 -1.534 13.092 -12.506 13.806 -21.074 4.062 4.096 7.33 8.386 10.606 12.672 1.922 2.516 1.824 2.466 -0.034 5.118 -8.95 12.774 -17.064 31.714 -7.27 43.852 -5.844 -0.916 -8.632 -4.168 -18.33 -14.166Zm74.178 -67.43c2.288 0.556 4.622 0.87 6.752 2.084 4.822 2.748 7.118 6.948 6.472 12.52 -0.902 7.78 -3.548 14.968 -7.436 21.75 -6.354 11.084 -28.74 46.694 -42.21 47.88 -4.694 0.412 -9.412 -0.078 -12.858 -4.07 -0.56 -0.648 -5.756 -3.888 -5.19 -11.64 0.656 -9.002 3.834 -16.542 8.004 -23.672 7.084 -12.112 25.728 -33.21 34.274 -41.492 3.344 -3.242 7.52 -4.494 12.192 -3.356v-0.004Z" stroke-width="2"></path>
      <path id="vector_25" fill="#191919" d="M133.138 132.8524c6.078 -3.352 10.538 1.204 11.37 -0.17 0.23 -0.382 0.25 -0.854 -0.012 -1.26 -5.22 -8.06 -16.62 -1.566 -13.792 1.846 0.84 1.014 1.662 0.01 2.434 -0.416Z" stroke-width="2"></path>
      <path id="vector_26" fill="#191919" d="M99.738 136.308c5.592 -4.372 9.386 0.476 10.428 -1.846 1.068 -2.38 -3.124 -3.824 -5.802 -4.044 -8.526 0.84 -10.966 10.846 -4.626 5.89Z" stroke-width="2"></path>
      <path id="vector_27" fill="#191919" d="M132.934 125.5998c-0.042 -0.042 -0.326 0.026 -0.118 0.212l0.118 -0.212Z" stroke-width="2"></path>
      <path id="vector_28" fill="#191919" d="M148.276 155.2098c1.454 -0.918 1.294 -2.406 1.554 -3.768 -1.302 -7.562 -7.33 -3.242 -4.304 3.056 0.586 1.218 1.616 1.428 2.75 0.712Z" stroke-width="2"></path>
      <path id="vector_29" fill="#191919" d="M102.718 156.6142c0.322 8.004 6.6 3.962 4.608 -1.358 -0.304 -0.816 -0.526 -1.752 -1.732 -1.936 -1.838 -0.28 -2.97 0.96 -2.876 3.294Z" stroke-width="2"></path>
      <path id="vector_30" fill="#191919" d="M290.678 200.118c-0.158 4.092 -4.108 8.844 -9.718 16.44 -2.52 3.412 -7.95 -0.506 -6.74 -2.38 0.302 -0.466 0.84 -0.288 1.214 -0.144 2.564 0.992 3.958 -0.038 5.096 -2.402 3.18 -6.6 9.332 -11.34 5.36 -15.154 -0.87 -0.836 -0.234 -2.338 1.268 -1.978 2.356 0.564 3.6 3.51 3.518 5.618h0.002Z" stroke-width="2"></path>
      <path id="vector_31" fill="#191919" d="M270.304 212.022c-1.066 -0.114 -2.322 -0.098 -2.482 -1.158 -0.114 -0.752 0.458 -1.098 1.048 -1.286 3.884 -1.234 6.514 -3.99 8.764 -7.21 3.534 -5.0596 5.684 -6.8956 2.228 -9.3916 -0.816 -0.588 -1.986 -0.84 -1.718 -1.736 0.714 -2.398 8.742 1.044 6.446 6.764 -1.99 4.9596 -8.518 13.6556 -14.284 14.0176h-0.002Z" stroke-width="2"></path>
      <path id="vector_32" fill="#0a1628" d="M23.664 299.78c-1.07 1.308 -3.2 0.544 -3.216 -1.146 -0.042 -4.252 0.68 -9.668 2.376 -21.122 2.526 -17.044 9.822 -30.218 13.368 -27.954 7.398 4.72 16.41 4.154 24.47 2.512 -0.106 9.858 7.328 25.866 -1.494 44.586 -2.012 4.27 -4.996 -5.118 -18.142 -5.118 -6.926 0 -13.028 2.946 -17.362 8.242Z" stroke-width="2"></path>
      <path id="vector_33" fill="#0a1628" d="M210.83 300.04c-17.29 0 -21.972 -25.668 29.13 -75.168 3.632 -3.518 6.802 -2.974 10.542 -2.152 7.422 1.634 9.716 5.614 9.142 10.576 -1.79 15.456 -14.006 33.27 -25.184 47.714 -5.336 6.896 -15.01 19.03 -23.63 19.03Z" stroke-width="2"></path>
      <path id="vector_34" fill="#0a1628" d="M51.622 316.96c15.078 -7.736 52.692 1.472 64.29 11.54 2.772 2.406 2.338 3.912 -1.09 10.534 -2.198 4.244 -2.81 6.816 -9.026 8.398 -43.924 11.188 -93.84002 -10.118 -54.172 -30.47l-0.002 -0.002Z" stroke-width="2"></path>
      <path id="vector_35" fill="#0a1628" d="M187.272 291.576c0.182 1.168 -1.218 1.892 -2.066 1.074 -1.608 -1.552 -3.502 -3.51 -5.856 -5.942 -5.572 -5.754 -1.43 -1.24 -1.294 -23.35 0.014 -2.148 9.182 -1.64 13.67 -16.526 0.284 -0.942 1.502 -1.188 2.126 -0.432 6.142 7.43 6.24 7.592 5.474 8.682 -6.984 9.956 -13.944 24.378 -12.052 36.492l-0.002 0.002Z" stroke-width="2"></path>
      <path id="vector_36" fill="#0a1628" d="M164.428 228.064c-3.754 -11.636 -6.876 -13.452 -13.712 -17.426 -6.35 -3.69 -9.66 -5.658 -23.15 -5.848 0.604 5.122 1.014 7.788 -2.8 11.056 -6.276 5.376 -18.088 8.072 -29.668 4.436 -4.944 -1.554 -4.472 -8.678 -5.416 -15.906 -2.126 0.216 -6.908 0.968 -14.468 1.888 7.054 9.03 6.12 23.142 3.034 32.814 -2.054 6.442 -5.918 8.706 -8.23 10.058 -0.734 0.43 -0.616 0.038 0.302 4.782 2.58 13.36 5.016 25.976 2.148 37.694 -3.756 15.346 -10.864 13.13 -4.294 13.13 11.042 0 42.698 4.996 55.416 18.698 7.448 -2.228 12.872 -0.34 28.222 -1.06 7.848 -18.244 4.532 -11.734 10.89 -29.626 5.062 -14.246 6.842 -48.838 1.728 -64.688l-0.002 -0.002Zm-12.604 54.062c-0.102 0.572 -0.704 1.01 -1.434 1.044 -64.396 2.896 -62.908 2.97 -62.704 1.044 3.272 -30.74 -1.756 -34.324 1.96 -34.354 15.758 -0.128 44.84 -0.718 62.614 -2.844 3.874 -0.464 -0.06 32.988 -0.436 35.11Z" stroke-width="2"></path>
    </g>
  </g>
</svg>