<svg xmlns="http://www.w3.org/2000/svg" fill="none" viewBox="0 -0.995 400 400" id="Empty-Order-E-Commerce--Streamline-Brooklyn" height="400" width="400">
  <desc>
    Empty Order E Commerce Streamline Illustration: https://streamlinehq.com
  </desc>
  <g id="empty-order-E-commerce--Shopping-empty-order-E-commerce">
    <g id="person_1_">
      <g id="Group">
        <path id="Vector" fill="#191919" d="M269.8567164179105 181.73751243781095c0.9950248756218906 -1.1940298507462686 1.1920398009950248 -1.1940298507462686 9.15223880597015 0.5970149253731343 6.169154228855722 1.3930348258706466 5.773134328358209 1.791044776119403 12.738308457711442 4.975124378109453 6.3681592039801 2.7860696517412933 6.963184079601991 2.5870646766169156 5.172139303482588 2.985074626865672 -8.955223880597016 1.592039800995025 -38.20696517412936 16.51721393034826 -46.16716417910448 25.671442786069655 -0.19900497512437812 0.19900497512437812 -0.7980099502487563 1.9900497512437811 1.391044776119403 0.7960199004975125 2.388059701492537 -1.3930348258706466 6.967164179104477 -4.776119402985074 11.743283582089552 -7.562189054726368 31.8407960199005 -18.706268656716418 32.43582089552239 -16.318407960199004 36.41592039800995 -17.711442786069654 4.577114427860696 -1.592039800995025 -4.577114427860696 -4.776119402985074 -14.328358208955224 -8.955223880597016 8.557213930348258 -2.1890547263681595 10.945273631840797 -16.318407960199004 6.965174129353234 -26.268656716417908 -5.373134328358209 -13.134328358208954 -16.714427860696517 -19.303482587064675 -29.052736318407963 -27.860696517412936 -14.129353233830845 -9.950248756218906 -0.9970149253731343 -23.084577114427862 -19.703482587064677 -35.820895522388064 -5.572139303482587 -3.781094527363184 -14.925373134328359 -6.367960199004975 -20.497512437810947 -4.377910447761194 -2.1890547263681595 0.7960199004975125 -0.5950248756218905 1.592039800995025 1.7930348258706468 4.975124378109453 0.7960199004975125 0.9950248756218906 5.174129353233831 6.566965174129353 3.9800995024875623 7.760995024875623 -4.179104477611941 -4.776119402985074 -8.955223880597016 -9.353233830845772 -14.527363184079602 -12.338308457711443 -20.896517412935324 -10.348258706467663 -51.14507462686567 -4.377910447761194 -53.13512437810945 21.094726368159204 -1.3930348258706466 15.92039800995025 19.900497512437813 25.671641791044777 41.7918407960199 10.348258706467663 8.159203980099502 -5.7711442786069655 12.338308457711443 -12.736517412935324 14.925373134328359 -14.527562189054725 4.577114427860696 7.164179104477612 3.383084577114428 11.74129353233831 11.940298507462687 13.930348258706468 4.179104477611941 0.9950248756218906 4.973134328358209 4.975323383084578 9.15223880597015 7.562388059701493 3.781094527363184 2.388059701492537 5.773134328358209 0.19880597014925375 9.156218905472636 -0.5972139303482586 2.1890547263681595 -0.39800995024875624 4.376119402985075 1.1940298507462686 3.3810945273631843 3.9800995024875623 -0.7960199004975125 2.1890547263681595 -0.9950248756218906 1.1940298507462686 -6.567164179104477 8.358208955223882 -3.582089552238806 4.776119402985074 -2.386069651741294 7.562388059701493 -0.5950248756218905 18.109651741293533 0.7960199004975125 4.577114427860696 2.5870646766169156 8.756417910447762 3.781094527363184 13.13452736318408 0.9950248756218906 3.18407960199005 2.7860696517412933 5.770746268656716 5.970149253731344 7.163781094527364 -2.985074626865672 5.174129353233831 -8.75820895522388 12.139303482587064 -15.126368159203981 14.328358208955224 -8.159203980099502 2.7860696517412933 -12.137313432835821 -2.5870646766169156 -15.122388059701493 -9.950248756218906 -0.7960199004975125 -1.9900497512437811 -1.592039800995025 -0.9948258706467662 -5.970149253731344 2.1892537313432836 -3.9800995024875623 0.5970149253731343 -17.116417910447762 6.766169154228856 -20.697711442786073 8.557213930348258 -9.353233830845772 4.577114427860696 -8.954825870646765 4.776119402985074 -6.566766169154229 5.970149253731344 10.34905472636816 5.571940298507463 14.924179104477611 9.15402985074627 23.48139303482587 15.920199004975125 10.547263681592039 8.358208955223882 -6.965174129353234 -10.348258706467663 -22.884776119402982 -17.31303482587065 29.84995024875622 -11.343283582089553 25.871840796019903 -13.333333333333334 26.269850746268656 -10.945273631840797 4.975124378109453 23.28318407960199 8.356218905472637 36.61651741293532 9.550248756218906 64.67621890547264 1.592039800995025 38.00995024875622 -7.162189054726369 74.22885572139303 -6.1671641791044784 77.01492537313433 1.3930348258706466 -0.39800995024875624 7.164179104477612 -24.079601990049753 8.557213930348258 -54.5273631840796 1.1940298507462686 -24.278606965174127 -1.1960199004975125 -25.671641791044777 0.5950248756218905 -29.850746268656717 9.751243781094528 -21.094527363184078 25.07661691542289 -43.78109452736319 39.20597014925373 -61.49233830845771Z" stroke-width="1.99"></path>
        <path id="Vector_2" fill="#191919" d="M329.5582089552239 233.6776119402985c3.582089552238806 0.5970149253731343 -0.2009950248756219 1.9900497512437811 4.575124378109453 71.24378109452736 0.9950248756218906 14.328358208955224 0.9970149253731343 14.328358208955224 1.3950248756218906 14.328358208955224 1.791044776119403 0 0 -17.711442786069654 -2.1890547263681595 -74.82587064676618 -0.5970149253731343 -12.935323383084578 0.9930348258706468 -11.940298507462687 -7.5641791044776125 -13.134328358208954 7.562189054726368 -10.348258706467663 19.30547263681592 -15.522388059701493 13.1363184079602 -22.487562189054728 -9.950248756218906 -10.945273631840797 -19.104477611940297 -11.94049751243781 -19.502487562189057 -11.1444776119403 -0.39800995024875624 1.1940298507462686 5.570149253731343 0 18.306467661691542 12.537512437810944 2.985074626865672 2.985074626865672 0.19900497512437812 5.970149253731344 -2.985074626865672 9.154228855721392 -11.542288557213931 11.542288557213931 -9.353233830845772 11.940298507462687 -11.940298507462687 11.74129353233831 -8.358208955223882 -0.19900497512437812 -16.913432835820895 0.19900497512437812 -25.271641791044775 0.5970149253731343 -3.582089552238806 0.19900497512437812 -6.567164179104477 1.592039800995025 -8.756218905472638 4.577114427860696 -2.5870646766169156 3.582089552238806 -19.900497512437813 37.21393034825871 -21.094527363184078 40.199004975124375 -0.39800995024875624 0.7960199004975125 0.19701492537313434 1.1940298507462686 0.7940298507462688 0.39800995024875624 13.930348258706468 -22.686567164179106 17.713432835820896 -33.6318407960199 21.693532338308458 -38.80597014925373 4.179104477611941 -5.373134328358209 8.358208955223882 -4.975124378109453 26.268656716417908 -5.373134328358209 4.378109452736319 0.19900497512437812 8.756218905472638 0.19900497512437812 13.134328358208954 0.9950248756218906Z" stroke-width="1.99"></path>
        <path id="Vector_3" fill="#191919" d="M354.23283582089556 242.8318407960199c-4.577114427860696 -7.7611940298507465 -22.089552238805968 -29.054726368159205 -9.353233830845772 -11.144278606965173 9.154228855721392 12.935323383084578 14.527363184079602 23.880597014925375 15.124378109452737 40.199004975124375 0.7960199004975125 21.492537313432837 -8.159203980099502 42.38805970149254 -27.2636815920398 56.91542288557214 -11.343283582089553 8.557213930348258 -24.278606965174127 11.74129353233831 -20.497512437810947 11.542288557213931 6.169154228855722 0 35.02487562189055 -12.935323383084578 45.37313432835821 -40.995024875621894 7.960199004975125 -21.492537313432837 5.174129353233831 -42.189054726368155 -3.383084577114428 -56.51741293532338Z" stroke-width="1.99"></path>
        <path id="Vector_4" fill="#191919" d="M147.06925373134328 194.27482587064677c0.5970149253731343 0.19900497512437812 0.7962189054726369 -0.39800995024875624 1.194228855721393 -0.9950248756218906 5.174129353233831 -10.746268656716419 9.751243781094528 -17.711243781094527 14.527363184079602 -36.21870646766169 1.1940298507462686 -4.776119402985074 4.576915422885572 -23.283781094527367 2.785870646766169 -23.084776119402985 -1.791044776119403 0.19900497512437812 -2.5870646766169156 12.935124378109453 -4.577114427860696 20.298308457711443 -6.766169154228856 26.46766169154229 -16.716417910447763 39.20417910447761 -13.930348258706468 40.00019900497513Z" stroke-width="1.99"></path>
        <path id="Vector_5" fill="#191919" d="M200.00398009950248 150.29472636815922c-8.755223880597015 7.7611940298507465 -15.123582089552238 14.726567164179105 -19.501691542288558 25.074825870646766 -5.373134328358209 12.7363184079602 -7.362985074626866 27.263283582089553 -4.7759203980099505 27.263283582089553 1.9900497512437811 0 -1.7908457711442787 -20.696119402985076 19.50268656716418 -45.173731343283585 2.5870646766169156 -3.383084577114428 7.76 -9.95044776119403 4.774925373134328 -7.164378109452736Z" stroke-width="1.99"></path>
        <path id="Vector_6" fill="#191919" d="M301.09850746268654 225.31940298507462c1.592039800995025 0.39800995024875624 0.9950248756218906 -6.965174129353234 10.348258706467663 -26.069651741293534 4.378109452736319 -8.557213930348258 12.935323383084578 -21.49273631840796 15.124378109452737 -24.079800995024875 -1.1940298507462686 0 -3.781094527363184 3.1842786069651745 -4.577114427860696 4.1793034825870645 -17.910447761194032 22.686567164179106 -22.885572139303484 45.37313432835821 -20.895522388059703 45.97014925373135Z" stroke-width="1.99"></path>
        <path id="Vector_7" fill="#191919" d="M200.8 154.0758208955224c-1.1940298507462686 0.5970149253731343 5.373134328358209 11.74089552238806 16.318407960199004 13.531940298507463 6.169154228855722 0.9950248756218906 9.154228855721392 -1.1938308457711442 8.955223880597016 0.1992039800995025 -0.39800995024875624 2.7860696517412933 -0.39800995024875624 5.571940298507463 -0.9950248756218906 8.358009950248757 -1.592039800995025 7.562189054726368 2.5870646766169156 -1.5918407960199006 2.985074626865672 -8.756019900497511 0 -1.791044776119403 2.985074626865672 -0.39800995024875624 7.36318407960199 -5.572139303482587 3.383084577114428 -3.9800995024875623 6.169154228855722 -11.741094527363185 0 -2.785870646766169 -5.970149253731344 8.557213930348258 -19.900497512437813 10.148855721393035 -29.054726368159205 1.19363184079602 -3.781094527363184 -3.781094527363184 -4.975124378109453 -6.566766169154229 -5.572139303482587 -6.168756218905473Z" stroke-width="1.99"></path>
        <path id="Vector_8" fill="#191919" d="M330.9492537313433 196.46348258706468c-0.9950248756218906 0.9950248756218906 -0.39800995024875624 2.189452736318408 0.9950248756218906 1.3934328358208956 7.7611940298507465 -4.378109452736319 1.9900497512437811 -2.58726368159204 27.064676616915424 -13.532537313432835 4.975124378109453 -2.1890547263681595 -17.512437810945276 2.785870646766169 -28.059701492537314 12.13910447761194Z" stroke-width="1.99"></path>
        <path id="Vector_9" fill="#191919" d="M320.99900497512436 193.87701492537312c-1.592039800995025 4.378109452736319 8.159203980099502 -6.766567164179104 28.059701492537314 -15.72179104477612 0.19900497512437812 0 0.5970149253731343 -0.19880597014925375 0.39800995024875624 -0.39781094527363187 -0.39800995024875624 -1.9900497512437811 -26.46766169154229 10.547462686567163 -28.45771144278607 16.119601990049752Z" stroke-width="1.99"></path>
        <path id="Vector_10" fill="#191919" d="M279.0089552238806 246.01592039800997c3.383084577114428 0 2.589054726368159 -0.9950248756218906 -0.19701492537313434 -1.3930348258706466 -7.562189054726368 -0.7960199004975125 -30.64676616915423 -1.1940298507462686 -30.845771144278608 0.39800995024875624 -0.19900497512437812 1.9900497512437811 31.042786069651743 0.9950248756218906 31.042786069651743 0.9950248756218906Z" stroke-width="1.99"></path>
        <path id="Vector_11" fill="#191919" d="M337.71542288557214 202.83184079601992c0.5970149253731343 0.7960199004975125 0.39800995024875624 0.39800995024875624 10.149253731343283 -3.9800995024875623 3.781094527363184 -1.592039800995025 5.373134328358209 -1.9902487562189055 15.323383084577115 -5.77134328358209 -0.7960199004975125 -2.388059701492537 -27.46268656716418 6.766368159203981 -25.4726368159204 9.751442786069653Z" stroke-width="1.99"></path>
        <path id="Vector_12" fill="#191919" d="M187.66666666666666 134.77194029850745c-11.542288557213931 4.378109452736319 -22.487960199004977 19.70189054726368 -20.69691542288557 20.69691542288557 1.592039800995025 0.7960199004975125 3.1842786069651745 -7.164378109452736 21.094726368159204 -20.099701492537314 0.5970149253731343 -0.39800995024875624 0.5972139303482586 -0.9952238805970149 -0.39781094527363187 -0.5972139303482586Z" stroke-width="1.99"></path>
        <path id="Vector_13" fill="#191919" d="M171.94507462686568 159.84696517412934c0.9950248756218906 0.7960199004975125 0.00039800995024875626 -1.3930348258706466 19.303880597014928 -18.507462686567166 -2.1890547263681595 -1.3930348258706466 -22.089950248756217 16.318407960199004 -19.303880597014928 18.507462686567166Z" stroke-width="1.99"></path>
        <path id="Vector_14" fill="#191919" d="M179.10965174129353 163.22965174129354c10.746268656716419 -13.134328358208954 17.114427860696516 -15.323184079601992 17.910447761194032 -16.716218905472637 -0.9950248756218906 -0.39800995024875624 -12.338507462686568 5.373134328358209 -17.5126368159204 13.333333333333334 -0.5970149253731343 0.9950248756218906 -2.188855721393035 3.3828855721393034 -1.3928358208955223 3.7808955223880596 0.39800995024875624 0.39800995024875624 0.7960199004975125 -0.19900497512437812 0.9950248756218906 -0.39800995024875624Z" stroke-width="1.99"></path>
        <path id="Vector_15" fill="#191919" d="M224.08557213930348 256.3641791044776c0 -4.776119402985074 -7.164179104477612 -4.776119402985074 -6.965174129353234 0 0 4.577114427860696 6.965174129353234 4.776119402985074 6.965174129353234 0Z" stroke-width="1.99"></path>
        <path id="Vector_16" fill="#191919" d="M341.49651741293536 208.20497512437814c0.19900497512437812 0.39800995024875624 0.5970149253731343 0.19900497512437812 0.9950248756218906 0.19900497512437812 11.343283582089553 -2.388059701492537 13.532338308457712 -2.985074626865672 19.701492537313435 -4.776119402985074 0.9950248756218906 -0.39800995024875624 0.5970149253731343 -0.7960199004975125 -0.5970149253731343 -0.7960199004975125 -4.577114427860696 0 -21.492537313432837 2.5870646766169156 -20.099502487562187 5.373134328358209Z" stroke-width="1.99"></path>
        <path id="Vector_17" fill="#191919" d="M209.9542288557214 145.12059701492538c-1.9900497512437811 0 -3.781094527363184 -14.527363184079602 -5.572139303482587 -13.930348258706468 -0.9950248756218906 0.39800995024875624 1.5940298507462687 7.163980099502488 2.7880597014925375 13.731144278606966 0.7960199004975125 4.179104477611941 7.361194029850746 1.1940298507462686 7.162189054726369 0.5970149253731343 0 -0.5970149253731343 -3.781094527363184 -0.39781094527363187 -4.378109452736319 -0.39781094527363187Z" stroke-width="1.99"></path>
        <path id="Vector_18" fill="#191919" d="M218.51144278606967 280.44378109452737c-3.9800995024875623 0 -4.179104477611941 6.169154228855722 -0.19900497512437812 6.169154228855722 4.179104477611941 0 4.179104477611941 -6.169154228855722 0.19900497512437812 -6.169154228855722Z" stroke-width="1.99"></path>
        <path id="Vector_19" fill="#191919" d="M214.9313432835821 308.10547263681593c-3.9800995024875623 0 -3.982089552238806 6.169154228855722 0.39601990049751246 6.169154228855722 3.582089552238806 0 3.58407960199005 -6.169154228855722 -0.39601990049751246 -6.169154228855722Z" stroke-width="1.99"></path>
        <path id="Vector_20" fill="#191919" d="M222.88955223880598 120.64278606965173c-0.7960199004975125 0 -8.95323383084577 0.3982089552238806 -9.749253731343284 0.5972139303482586 -1.1940298507462686 0.19900497512437812 -1.1940298507462686 1.5918407960199006 0 1.7908457711442787 3.781094527363184 0.7960199004975125 13.729353233830846 -2.1890547263681595 9.749253731343284 -2.388059701492537Z" stroke-width="1.99"></path>
        <path id="Vector_21" fill="#191919" d="M216.12537313432836 151.88636815920398c-0.5970149253731343 0.5970149253731343 0 1.5922388059701493 0.9950248756218906 1.194228855721393 1.3930348258706466 -0.7960199004975125 8.358208955223882 -6.766368159203981 8.358208955223882 -6.766368159203981 0.19900497512437812 -1.3930348258706466 -4.577114427860696 0.19900497512437812 -9.353233830845772 5.572139303482587Z" stroke-width="1.99"></path>
        <path id="Vector_22" fill="#191919" d="M192.6417910447761 133.57810945273633c4.975124378109453 -5.7711442786069655 6.169154228855722 -5.174129353233831 5.572139303482587 -6.3681592039801 -1.1940298507462686 -1.9900497512437811 -6.766169154228856 2.984676616915423 -6.965174129353234 6.566766169154229 0.19900497512437812 0.39800995024875624 -0.19900497512437812 1.5924378109452737 1.3930348258706466 -0.19860696517412935Z" stroke-width="1.99"></path>
        <path id="Vector_23" fill="#191919" d="M200.00597014925373 138.75223880597014c-0.7960199004975125 -0.9950248756218906 -2.78726368159204 -0.9946268656716418 -3.185273631840796 0.7964179104477612 -0.39800995024875624 2.1890547263681595 1.592039800995025 3.979900497512438 2.9842786069651743 3.3828855721393034 1.3930348258706466 -0.5970149253731343 1.1960199004975125 -2.786268656716418 0.2009950248756219 -4.1793034825870645Z" stroke-width="1.99"></path>
        <path id="Vector_24" fill="#191919" d="M222.29253731343283 135.56815920398012c1.9900497512437811 -0.5970149253731343 1.3930348258706466 -3.9800995024875623 -0.39800995024875624 -4.577114427860696 -3.18407960199005 -0.9950248756218906 -2.388059701492537 5.373134328358209 0.39800995024875624 4.577114427860696Z" stroke-width="1.99"></path>
        <path id="Subtract" fill="#191919" fill-rule="evenodd" d="M141.5176119402985 197.96119402985073c-2.6111442786069654 -1.6738308457711442 -3.1345273631840795 -2.0093532338308457 -4.796616915422885 0.6913432835820895 -10.078009950248756 16.113631840796018 -17.77532338308458 35.383283582089554 -21.151641791044778 54.14348258706468 -0.667860696517413 -0.02189054726368159 -1.335721393034826 -0.041791044776119404 -2.00318407960199 -0.061691542288557215 3.374129353233831 -20.151243781094525 11.559402985074627 -40.4 21.761990049751244 -55.67383084577114 2.29592039800995 -3.3834825870646767 3.7112437810945273 -2.5846766169154227 7.721194029850746 -0.32119402985074624 2.594029850746269 1.464278606965174 6.273830845771145 3.5412935323383086 11.980099502487562 5.495522388059701 8.159203980099502 2.985074626865672 18.30865671641791 4.378109452736319 24.079800995024875 4.378109452736319 1.592039800995025 0 1.791044776119403 0.19900497512437812 1.9900497512437811 1.791044776119403 1.9900497512437811 14.925373134328359 -0.5972139303482586 43.78109452736319 -1.194228855721393 35.820895522388064 -0.2708457711442786 -4.155223880597015 -0.1319402985074627 -8.718407960199006 0.026069651741293533 -13.916417910447763 0.19044776119402984 -6.254726368159203 0.40875621890547265 -13.42686567164179 -0.026069651741293533 -21.904477611940298 0 -0.618905472636816 -0.4734328358208955 -0.5970149253731343 -1.8943283582089552 -0.5313432835820896 -2.6981094527363183 0.12139303482587065 -8.812537313432836 0.4 -21.587860696517414 -3.2497512437810947 -8.371542288557213 -2.47363184079602 -12.513830845771144 -5.128358208955224 -14.905273631840796 -6.661691542288557Z" clip-rule="evenodd" stroke-width="1.99"></path>
      </g>
    </g>
    <g id="box_1_">
      <g id="Group_2">
        <path id="Vector_25" fill="#38a1ff" d="M102.49273631840796 213.42885572139306c23.48258706467662 -15.124179104477612 32.43781094527363 -45.373333333333335 17.910447761194032 -70.44796019900498 -17.313432835820894 -30.248756218905474 -62.48776119402985 -37.810945273631845 -90.74646766169154 -12.935323383084578 -43.18403980099502 38.00995024875622 -5.770746268656716 103.8807960199005 51.14467661691542 92.33850746268658 1.1940298507462686 -0.19900497512437812 0.7960199004975125 -0.7960199004975125 11.343283582089553 12.139303482587064 6.3681592039801 7.7611940298507465 11.741094527363185 16.318407960199004 10.746069651741292 6.567164179104477 -2.985074626865672 -27.66169154228856 -2.7860696517412933 -26.069651741293534 -0.39800995024875624 -27.66169154228856ZM70.85114427860697 183.1802985074627c0 -22.487562189054728 -1.1940298507462686 -25.472835820895526 0.39800995024875624 -25.6718407960199 33.83084577114428 -7.164179104477612 31.641592039800997 -10.547462686567163 31.641592039800997 -7.562388059701493 0 6.766169154228856 0.7960199004975125 34.03004975124379 -0.39800995024875624 36.41810945273632 -0.9950248756218906 2.1890547263681595 -28.059502487562188 12.935323383084578 -31.243582089552238 14.129353233830845 -1.1940298507462686 0.39800995024875624 -0.39800995024875624 0.7960199004975125 -0.39800995024875624 -17.31323383084577ZM68.46268656716418 157.5084577114428c-16.119402985074625 23.283582089552237 -16.119203980099503 25.4726368159204 -22.288358208955223 12.537313432835822 -2.985074626865672 -6.567164179104477 -3.7808955223880596 -6.3681592039801 -7.760995024875623 -15.522388059701493 7.36318407960199 1.592039800995025 23.084179104477613 3.18407960199005 30.049353233830846 2.985074626865672ZM38.413333333333334 192.73213930348257c0.19900497512437812 -11.343283582089553 -0.5970149253731343 -22.487562189054728 0 -33.83084577114428 8.557213930348258 16.517412935323385 8.358208955223882 15.920796019900497 7.960199004975125 16.71681592039801 -8.159203980099502 17.114427860696516 -7.562189054726368 17.11402985074627 -7.960199004975125 17.11402985074627Zm0.5970149253731343 2.786467661691542c2.5870646766169156 -6.766169154228856 5.174129353233831 -11.74129353233831 7.960199004975125 -19.303482587064675 2.1890547263681595 2.7860696517412933 4.178905472636815 5.372736318407961 7.760995024875623 2.586666666666667 5.373134328358209 -4.179104477611941 -1.592039800995025 -7.562189054726368 13.930348258706468 21.890746268656716 -1.791044776119403 0.19900497512437812 -30.248557213930347 -3.581890547263682 -29.651542288557216 -5.173930348258707Zm19.502089552238804 -20.69691542288557c3.582089552238806 -4.776119402985074 6.965373134328359 -9.551840796019901 10.149452736318409 -14.526965174129353 0.7960199004975125 -1.1940298507462686 0 16.51721393034826 0.39800995024875624 38.60676616915423 0 -0.39800995024875624 -11.1444776119403 -23.283781094527367 -10.547462686567163 -24.079800995024875ZM40.20417910447761 153.13034825870645c7.562189054726368 -2.388059701492537 21.293333333333333 -5.970149253731344 29.253532338308457 -7.562189054726368 7.562189054726368 -1.592039800995025 22.288756218905476 0.9950248756218906 30.04995024875622 2.985074626865672 -10.348258706467663 3.18407960199005 -12.7363184079602 3.980298507462687 -29.45273631840796 7.761393034825871 -1.791044776119403 0.19900497512437812 -26.865671641791046 -2.1892537313432836 -29.850746268656717 -3.1842786069651745Z" stroke-width="1.99"></path>
        <path id="Vector_26" fill="#38a1ff" d="M82.19462686567164 164.47343283582092c3.781094527363184 -2.5870646766169156 9.552238805970148 -1.194228855721393 7.960199004975125 3.3828855721393034 -0.5970149253731343 1.791044776119403 -2.786268656716418 4.179104477611941 -4.577313432835821 6.965174129353234 -1.592039800995025 2.388059701492537 1.393233830845771 4.776119402985074 1.5922388059701493 2.985074626865672 0 -1.3930348258706466 10.746268656716419 -11.542089552238807 2.985074626865672 -15.721194029850746 -3.582089552238806 -1.9900497512437811 -7.960597014925374 0.19880597014925375 -8.756616915422885 1.7908457711442787 -0.5970149253731343 0.5970149253731343 -0.19860696517412935 1.393233830845771 0.7964179104477612 0.5972139303482586Z" stroke-width="1.99"></path>
        <path id="Vector_27" fill="#38a1ff" d="M86.97034825870647 182.1852736318408c-1.9900497512437811 0 -1.9900497512437811 3.183681592039801 0 3.183681592039801s1.9900497512437811 -3.183681592039801 0 -3.183681592039801Z" stroke-width="1.99"></path>
      </g>
    </g>
    <g id="question_marks_1_">
      <g id="Group_3">
        <path id="Vector_28" fill="#191919" d="M282.9910447761194 97.6081592039801c2.5870646766169156 -1.791044776119403 8.159203980099502 -2.58726368159204 11.940298507462687 0.795820895522388 5.7711442786069655 4.975124378109453 -1.3930348258706466 8.955024875621891 -3.582089552238806 10.746069651741292 -6.567164179104477 5.174129353233831 -2.1890547263681595 11.940696517412936 -1.3930348258706466 7.3635820895522395 0.5970149253731343 -2.7860696517412933 1.9900497512437811 -4.7763184079602 4.378109452736319 -6.169353233830845 4.179104477611941 -2.7860696517412933 6.965174129353234 -6.567164179104477 4.577114427860696 -10.945273631840797 -4.378109452736319 -7.7611940298507465 -15.124378109452737 -5.970149253731344 -16.716417910447763 -2.5870646766169156 -0.5970149253731343 0.5970149253731343 -0.19900497512437812 1.393233830845771 0.7960199004975125 0.7962189054726369Z" stroke-width="1.99"></path>
        <path id="Vector_29" fill="#191919" d="M287.7671641791045 122.08557213930348c0 2.1890547263681595 2.7860696517412933 1.791044776119403 2.7860696517412933 0s-2.7860696517412933 -1.9900497512437811 -2.7860696517412933 0Z" stroke-width="1.99"></path>
      </g>
      <g id="Group_4">
        <path id="Vector_30" fill="#191919" d="M255.926368159204 71.14049751243782c8.358208955223882 -3.582089552238806 11.940298507462687 1.5918407960199006 9.950248756218906 5.173930348258707 -1.1940298507462686 2.388059701492537 -7.36318407960199 6.368557213930349 -4.975124378109453 9.35363184079602 0.39800995024875624 0.5970149253731343 0.5970149253731343 0.59681592039801 0.9950248756218906 -0.1992039800995025 1.791044776119403 -5.174129353233831 4.776119402985074 -4.378308457711443 6.3681592039801 -9.552437810945273 1.592039800995025 -4.776119402985074 -2.985074626865672 -9.552039800995026 -10.149253731343283 -7.760995024875623 -3.781094527363184 1.3930348258706466 -3.582089552238806 3.781094527363184 -2.1890547263681595 2.985074626865672Z" stroke-width="1.99"></path>
        <path id="Vector_31" fill="#191919" d="M260.50348258706464 89.6481592039801c0 1.791044776119403 2.7860696517412933 1.3928358208955223 2.7860696517412933 -0.1992039800995025 0 -1.592039800995025 -2.7860696517412933 -1.5918407960199006 -2.7860696517412933 0.1992039800995025Z" stroke-width="1.99"></path>
      </g>
      <g id="Group_5">
        <path id="Vector_32" fill="#191919" d="M175.32935323383083 51.83681592039801c9.552238805970148 -3.781094527363184 14.72636815920398 1.7906467661691543 7.960199004975125 8.158805970149254 -5.373134328358209 4.975124378109453 -1.3930348258706466 12.139303482587064 -0.9950248756218906 7.36318407960199 0.5970149253731343 -6.169154228855722 6.965174129353234 -6.169154228855722 6.3681592039801 -13.930348258706468 -0.5970149253731343 -7.7611940298507465 -16.517611940298508 -4.775721393034826 -14.527562189054725 -1.591641791044776 0.19900497512437812 0.39800995024875624 0.5972139303482586 0 1.194228855721393 0Z" stroke-width="1.99"></path>
        <path id="Vector_33" fill="#191919" d="M180.50328358208955 72.13572139303483c0 1.592039800995025 2.188855721393035 1.791044776119403 2.387860696517413 0 -0.19900497512437812 -1.791044776119403 -2.387860696517413 -1.592039800995025 -2.387860696517413 0Z" stroke-width="1.99"></path>
      </g>
    </g>
    <g id="Group_6">
      <path id="Vector_34" fill="#191919" d="M229.0587064676617 338.6029850746269c5.7711442786069655 -0.19900497512437812 6.567164179104477 -0.9950248756218906 6.3681592039801 -3.383084577114428 -0.19900497512437812 -1.9900497512437811 -0.19900497512437812 -1.9900497512437811 -1.9900497512437811 -1.9900497512437811 -23.084577114427862 -1.1940298507462686 -36.61651741293532 1.9900497512437811 -37.21353233830846 -0.5970149253731343 -16.119402985074625 -70.44776119402985 -17.7118407960199 -75.42288557213931 -21.29393034825871 -75.62189054726369 -111.04477611940298 -3.9800995024875623 -120.19900497512438 -5.572139303482587 -118.40796019900498 4.577114427860696 1.791044776119403 11.144278606965173 10.94547263681592 64.87562189054727 16.517611940298508 74.6268656716418 1.592039800995025 2.7860696517412933 0 1.791044776119403 82.18905472636816 2.985074626865672 15.721393034825871 0.19900497512437812 30.845572139303485 -0.39800995024875624 36.616716417910446 0 0.7960199004975125 0 1.1940298507462686 0.9950248756218906 0 0.9950248756218906 -120.9950248756219 1.791044776119403 -119.00477611940299 0 -120.7958208955224 -3.9800995024875623 -4.179104477611941 -9.552238805970148 -7.163980099502488 -23.48258706467662 -9.15402985074627 -33.6318407960199 -9.552238805970148 -46.766169154228855 -7.960597014925374 -46.766169154228855 -2.388457711442786 -48.557213930348254 14.72636815920398 -4.776119402985074 97.51283582089552 0.19900497512437812 112.83621890547265 1.3930348258706466 3.18407960199005 0.19900497512437812 5.970149253731344 0 6.965174129353234 2.985074626865672 5.572139303482587 14.925373134328359 14.925174129353234 57.114427860696516 18.109253731343284 72.83582089552239 0.7960199004975125 3.582089552238806 0.59681592039801 -0.5970149253731343 32.23860696517413 0.19900497512437812 3.383084577114428 0 7.36318407960199 -0.19900497512437812 7.36318407960199 2.1890547263681595 0 2.5870646766169156 0.7960199004975125 5.174129353233831 -3.18407960199005 6.169154228855722 -7.7611940298507465 1.791044776119403 -31.044776119402986 -0.39800995024875624 -4.776119402985074 -1.1940298507462686Z" stroke-width="1.99"></path>
      <path id="Vector_35" fill="#191919" d="M151.2481592039801 348.75223880597014c-322.9850746268657 -1.1940298507462686 236.8155223880597 -3.582089552238806 237.61154228855722 -0.5970149253731343 0.39800995024875624 1.9900497512437811 13.930348258706468 1.3930348258706466 -237.61154228855722 0.5970149253731343Z" stroke-width="1.99"></path>
      <path id="Vector_36" fill="#191919" d="M192.24358208955226 335.8169154228856c-3.18407960199005 -9.751243781094528 -19.303880597014928 -72.83582089552239 -19.303880597014928 -73.23383084577114 -0.19900497512437812 -0.7960199004975125 0.3982089552238806 -0.7960199004975125 0.5972139303482586 -0.39800995024875624 1.791044776119403 2.388059701492537 17.512437810945276 62.885572139303484 19.502487562189057 73.23383084577114 0.5970149253731343 2.5870646766169156 -0.59681592039801 0.5970149253731343 -0.795820895522388 0.39800995024875624Z" stroke-width="1.99"></path>
      <path id="Vector_37" fill="#38a1ff" d="M294.1333333333333 304.5731343283582c3.9800995024875623 -4.378109452736319 9.751243781094528 -5.7711442786069655 14.527363184079602 -4.577114427860696 5.970149253731344 1.592039800995025 6.766169154228856 9.154228855721392 6.3681592039801 15.124378109452737 -0.5970149253731343 9.552238805970148 -1.592039800995025 16.318407960199004 -10.945273631840797 16.716417910447763 -10.945273631840797 0.39800995024875624 -10.149253731343283 -8.358208955223882 -10.348258706467663 3.781094527363184 -0.19900497512437812 6.567164179104477 -1.3930348258706466 5.7711442786069655 -28.25870646766169 6.567164179104477 -3.383084577114428 0.19900497512437812 -16.318407960199004 0.19900497512437812 -19.502487562189057 -0.7960199004975125 -0.9950248756218906 -0.39800995024875624 -1.592039800995025 -0.9950248756218906 -1.791044776119403 -1.9900497512437811 -1.1940298507462686 -9.552238805970148 -1.3930348258706466 -35.223880597014926 -1.3930348258706466 -44.776119402985074 0 -3.383084577114428 -0.5970149253731343 -4.577114427860696 29.253731343283583 -3.9800995024875623 22.288557213930346 0.39800995024875624 22.089552238805968 -1.3930348258706466 22.089552238805968 13.930348258706468Zm0 14.328358208955224c0.39800995024875624 0 -0.39800995024875624 7.164179104477612 0.5970149253731343 7.562189054726368 6.567164179104477 3.582089552238806 14.72636815920398 4.378109452736319 16.517412935323385 -3.18407960199005 0.9950248756218906 -3.781094527363184 1.592039800995025 -11.940298507462687 0.39800995024875624 -15.92039800995025 -1.9900497512437811 -6.965174129353234 -10.945273631840797 -5.572139303482587 -16.517412935323385 0 -1.3930348258706466 1.1940298507462686 -0.9950248756218906 1.1940298507462686 -0.9950248756218906 11.542288557213931Zm-42.985074626865675 14.527363184079602c3.582089552238806 0 1.592039800995025 -37.01492537313433 -0.9950248756218906 -37.21393034825871 -3.383084577114428 -0.19900497512437812 -2.5870646766169156 37.21393034825871 0.9950248756218906 37.21393034825871Z" stroke-width="1.99"></path>
      <path id="Vector_38" fill="#38a1ff" d="M104.68139303482587 296.6129353233831c4.378109452736319 -8.955223880597016 17.711243781094527 -10.547263681592039 22.089353233830845 -4.179104477611941 0.39800995024875624 0.5970149253731343 0.3982089552238806 0.7960199004975125 -0.19880597014925375 1.1940298507462686 -2.1890547263681595 1.3930348258706466 -3.582089552238806 4.378109452736319 -2.985074626865672 6.965174129353234 0.9950248756218906 3.9800995024875623 4.179104477611941 3.781094527363184 5.970149253731344 4.378109452736319 2.985074626865672 0.9950248756218906 -0.9954228855721393 4.577114427860696 -3.3834825870646767 6.3681592039801 -11.542288557213931 8.955223880597016 -28.059303482587065 -1.1940298507462686 -21.492139303482585 -14.72636815920398Z" stroke-width="1.99"></path>
      <path id="Vector_39" fill="#38a1ff" d="M113.0392039800995 280.2945273631841c0 -5.970149253731344 6.3681592039801 -8.756218905472638 11.940298507462687 -10.746268656716419 2.7860696517412933 -0.9950248756218906 0.5972139303482586 4.975124378109453 -0.39781094527363187 7.960199004975125 -1.3930348258706466 3.781094527363184 -3.7812935323383083 5.970149253731344 -7.562388059701493 7.36318407960199 -3.18407960199005 1.1940298507462686 -3.383084577114428 0.19900497512437812 -3.9800995024875623 -4.577114427860696Z" stroke-width="1.99"></path>
    </g>
  </g>
</svg>