<svg xmlns="http://www.w3.org/2000/svg" fill="none" viewBox="0 0 400 400" id="Team-Brainstorming-5--Streamline-Brooklyn" height="400" width="400">
  <desc>
    Team Brainstorming 5 Streamline Illustration: https://streamlinehq.com
  </desc>
  <g id="team-brainstorming-5--work-team-brainstorming">
    <g id="table">
      <path id="Subtract" fill="#191919" fill-rule="evenodd" d="M39.9266 339.72c-15.349 0.13 -24.45934 0.208 -24.4546 0.208 -2.509 0.07 -2.50638 1.506 -2.49628 7.026 0.0037 2.026 0.00842 4.602 -0.10972 7.864 -0.00186 0.05 -0.00448 0.1 -0.00706 0.15 -0.01022 0.196 -0.0198 0.378 0.02148 0.55 0.58904 2.438 11.53618 2.372 178.76518 1.386 49.5264 -0.292 112.7604 -0.664 193.4924 -1.076 2.208 -0.012 2.894 -0.238 2.502 -13.966h-0.002c-0.02 -0.666 -0.02 -1.244 -0.022 -1.748v-0.002c-0.004 -1.444 -0.006 -2.27 -0.416 -2.74 -0.552 -0.63 -1.842 -0.614 -4.866 -0.576 -0.276 0.004 -0.566 0.008 -0.872 0.012l-2.912 0.024c-1.238 1.096 -2.564 2.06 -3.96 2.896l8.712 -0.062c1.746 -0.1 1.748 0.916 1.768 9.83 0.004 1.054 0.006 2.22 0.012 3.508 -1.554 0.528 -9.256 0.524 -41.536 0.512 -33.254 -0.012 -92.586 -0.034 -198.144 0.506h0.002c-43.1116 0.218 -71.9204 0.462 -91.1686 0.624 -35.15402 0.298 -38.41854 0.324 -38.68356 -0.554 -0.02712 -0.088 -0.02282 -0.188 -0.01808 -0.298l0.00224 -0.054c0.14284 -3.974 0.12018 -6.584 0.10534 -8.296 -0.01906 -2.194 -0.0253 -2.914 0.34666 -3.136l26.9632 -0.194c-1.0666 -0.742 -2.0764 -1.542 -3.0246 -2.394Zm41.3556 2.118 0.7566 -0.006c-0.1066 -0.112 -0.21 -0.242 -0.315 -0.4 -0.1322 0.132 -0.2796 0.268 -0.4416 0.406Zm10.9184 -0.078c0.2074 -0.218 0.4048 -0.494 0.5812 -0.842 0.999 -0.06 1.8976 -0.69 2.2786 -1.668l39.5738 -0.338c0.868 0.916 1.7864 1.754 2.7466 2.522l-45.1802 0.326Zm103.574 -0.746 -16.9252 0.122c0.1924 -0.27 0.363 -0.546 0.5106 -0.826 2.278 0.574 8.5014 0.284 11.0492 -1.872l4.9552 -0.042c-0.1386 0.934 0.047 1.772 0.4102 2.618Zm82.6554 -0.594 62.856 -0.452c-1.73 -0.806 -3.426 -1.732 -5.068 -2.774l-1.868 0.016c-1.05 0.4 -2.628 0.388 -4.466 0.038l-48.286 0.412c-0.994 0.998 -2.054 1.918 -3.168 2.76Z" clip-rule="evenodd" stroke-width="2"></path>
    </g>
    <g id="light bulb">
      <path id="vector" fill="#0a1628" d="M197.396 188.4082c-6.192 -0.124 -16.68 0.8 -20.054 -2.956 -3.968 -4.416 -9.412 -9.398 -8.81 -10.48 0.248 -0.446 6.338 -0.932 8.28 -0.76 2.67 0.238 0.916 -2.054 1.476 -5.884 0.462 -3.156 4.754 0.142 6.16 -5.75 0.632 -2.65 -1.5 -6.174 -4.56 -5.956 -1.564 0.112 -1.534 -0.49 -1.424 -5.022 0.04 -1.648 -0.96 -1.1 -2.924 -1.222 -2.842 -0.178 -2.466 6.21 -8.606 5.618 -6.92 -0.666 -3.426 -7.016 -9.602 -5.164 -1.702 0.51 -3.426 0.116 -5.136 0.254 -1.652 0.132 -10.12 -17.944 -12.562 -29.548 -0.35 -1.66 -0.876 -3.084 4.7 -2.49 6.156 0.656 2.408 -6.798 11.022 -6.184 5.98 0.426 6.252 5.848 7.082 6.004 1.11 0.21 2.288 0.132 3.426 0.06 0.648 -0.04 0.478 -0.684 0.482 -1.114 0.058 -5.026 -0.498 -6.172 1.726 -6.262 5.192 -0.208 7.156 -7.164 2.108 -9.868 -1.388 -0.744 -4.07 0.522 -3.828 -1.934 0.422 -4.274 0.502 -4.662 -1.114 -4.576 -5.112 0.27 -5.438 0.176 -5.472 -1.4 -0.12 -5.288 -6.8 -6.848 -9.558 -2.336 -1.05 1.716 0.302 3.912 -1.444 3.964 -9.446 0.288 -10.052 0.716 -9.582 -1.97 4.262 -24.394 22.246 -43.052 45.046 -50.354 1.97 -0.632 2.042 -0.592 2.022 1.456 -0.026 2.826 -0.876 5.112 1.894 6.764 5.32 3.174 3.996 10.478 -0.648 12.236 -1.23 0.466 -1.158 1.376 -1.162 2.364 -0.014 3.684 -0.016 3.624 3.724 3.708 1.456 0.032 2.168 -0.314 2.71 -1.842 2.022 -5.694 10.066 -6.898 13.298 0.378 0.47 1.058 -0.542 1.914 4.528 1.282 0.354 -0.044 0.41 0 0.132 -5.718 -0.056 -1.15 0.418 -1.644 1.6 -1.696 7.022 -0.318 7.082 -9.656 0.25 -10.23 -1.352 -0.114 -1.632 -0.664 -1.5 -1.838 0.618 -5.456 -0.51 -7.432 1.75 -6.924 19.204 4.304 39.346 21.378 45.274 42.512 0.47 1.676 0.124 2.146 -1.528 2.128 -6.748 -0.08 -8.248 0.27 -8.586 -2.284 -0.994 -7.512 -10.01 -5.284 -9.9 -0.068 0.086 4.106 -8.598 -1.472 -6.892 5.332 0.21 0.836 0.956 0.914 1.54 1.214 4.78 2.468 5.654 8.52 1.704 11.91 -2.988 2.566 -2.854 -1.038 -2.976 6.298 -0.008 0.49 0.29 0.72 0.768 0.716 3.736 -0.036 3.62 0.198 4.078 -1.054 3.034 -8.312 12.552 -5.064 13.54 0.028 0.194 0.998 0.096 1.288 9.618 1.034 1.464 -0.04 1.734 0.592 1.62 1.878 -2.388 27.164 -20.262 50 -35.258 69.45 -5.524 7.166 -16.604 6.53 -28.434 6.294l0.002 0.002Zm9.41 -9.128c0.09 0.712 0.084 1.818 1.25 1.726 2.794 -0.222 -1.488 -16.632 0.94 -36.106 0.248 -1.99 1.042 -0.608 6.434 -1.396 6.654 -0.97 11.234 -6.358 13.202 -12.172 4.306 -12.732 -3.064 -20.84 -9.844 -18.036 -8.928 3.694 -10.924 13.616 -12.57 25.024 -0.35 2.424 -0.966 0.762 -7.692 1.758 -1.846 0.272 -0.308 -0.532 -2.63 -9.844 -1.25 -5.014 -2.518 -10.092 -6.672 -13.676 -3.644 -3.144 -7.478 -4.318 -11.488 -1.314 -9.424 7.056 -1.286 31.284 15.112 29.038 1.668 -0.228 2.782 -0.474 2.75 15.61 -0.036 18.36 -1.672 20.814 0.45 20.95 3.29 0.212 2.37 -30.642 1.998 -35.27 -0.158 -1.958 0.692 -1.224 6.302 -1.488 2.936 -0.138 -0.822 9.1 2.456 35.198l0.002 -0.002Z" stroke-width="2"></path>
      <path id="vector_2" fill="#191919" d="M194.7858 191.067c22.0602 2.16 26.9382 -3.354 26.3602 1.002 -1.016 7.644 -1.91 7.624 -3.748 8.067 -10.676 2.57 -23.3282 2.04 -34.2202 0.668 -2.84 -0.358 -3.656 -1.569 -4.082 -8.221 -0.136 -2.132 0.024 -1.516 15.69 -1.516Z" stroke-width="2"></path>
      <path id="vector_3" fill="#191919" d="M198.794 213.192c-4.476 -0.068 -8.918 -0.67 -13.374 -1.058 -1.074 -0.094 -1.942 -0.478 -2.14 -1.616 -0.772 -4.452 -1.834 -7.238 0.824 -7.094 15.678 0.852 21.378 1.45 32.576 -0.628 3.16 -0.586 1.596 2.324 0.604 7.302 -0.57 2.86 -15.614 3.136 -18.49 3.092v0.002Z" stroke-width="2"></path>
      <path id="vector_4" fill="#191919" d="M202.204 228.878c-9.662 0.048 -14.594 -6.414 -16.15 -13.15 -0.334 -1.448 0.832 -1.078 1.532 -1.006 23.852 2.446 28.368 -2.836 27.228 0.848 -2.246 7.258 -5.022 12.844 -12.61 13.306v0.002Z" stroke-width="2"></path>
      <path id="vector_5" fill="#0a1628" d="M190.362 140.4712c-16.592 -0.232 -17.042 -30.432 -4.628 -22.048 5.236 3.536 7.314 13.266 7.99 19.474 0.29 2.662 0.458 2.628 -3.362 2.574Z" stroke-width="2"></path>
      <path id="vector_6" fill="#0a1628" d="M217.236 139.1438c-1.97 0.744 -4.27 0.634 -6.43 0.816 -1.03 0.088 -1.146 -0.668 -1.078 -1.516 0.214 -2.638 0.856 -5.2 1.488 -7.748 2.072 -8.356 3.664 -10.942 7.756 -13.564 9.072 -5.81 11.862 16.882 -1.738 22.012h0.002Z" stroke-width="2"></path>
    </g>
    <g id="person 4">
      <path id="vector_7" fill="#191919" d="M352.742 293.856c0.314 -1.162 -0.02 -1.724 -1.636 -2.074 -10.874 -2.36 -5.842 -18.458 -7.448 -19.53 -7.776 -5.204 -3.626 -18.386 7.444 -14.588 6.808 2.336 4.38 5.878 6.326 5.654 8.992 -1.036 12.138 5.714 10.398 12.772 -0.39 1.58 -1.202 3.028 -1.21 4.75 -0.012 2.152 -3.924 2.112 -3.688 6.204 0.1 1.718 0.1 3.442 0.1 5.168 0 4.354 -5.002 7.382 -8.94 5.452 -1.616 -0.792 -1.336 -2.224 -1.348 -3.804l0.002 -0.004Zm-6.418 -10.48c0.524 4.032 3.9 6.948 8.022 5.834 2.53 -0.684 3.53 -1.342 3.932 -0.302 0.334 0.86 -1.262 1.79 -1.684 1.87 -2.352 0.448 -2.332 2.16 -2.252 3.994 0.12 2.706 6.662 1.376 6.716 -2.936 0.016 -1.262 0.106 -2.534 0 -3.784 -0.55 -6.522 4.946 -6.446 3.68 -8.216 -0.466 -0.652 -1.288 -0.344 -1.922 -0.16 -2.616 0.75 -2.586 0.78 -2.614 -2.002 -0.032 -3.278 -0.274 -5.384 -2.9 -7.098 -1.324 -0.864 -0.266 0.54 -7.782 2.304 -1.234 0.29 -2.956 -0.676 -3.59 0.596 -0.634 1.272 0.218 8.552 0.394 9.9Z" stroke-width="2"></path>
      <path id="vector_8" fill="#191919" d="M375.51 297.924c-2.006 -1.508 -10.39 -6.492 -11.2 -4.984 -0.39 0.724 -0.078 0.874 6.286 4.074 12.584 6.328 15.618 21.182 8.754 31.69 -14.374 22.006 -47.462 2.564 -46.18 -0.476 0.652 -1.544 1.532 -2.956 2.554 -4.274 0.776 -1.002 8.484 3.598 21.412 -0.858 9.408 -3.244 12.276 -12.234 10.628 -14.208 -1.158 0.84 -5.41 18.378 -30.15 13.306 -3.45 -0.708 -3.744 0.798 -4.302 1.092 -0.608 0.92 -5.678 4.3 -0.562 8.642 15.692 13.32 40.208 13.932 49.77 -3.618 4.182 -7.676 4.76 -21.534 -7.008 -30.382l-0.002 -0.004Z" stroke-width="2"></path>
      <path id="vector_9" fill="#191919" d="M331.612 313.12c3.108 -15.04 19.408 -20.452 20.162 -18.22 0.358 1.062 -1.242 1.016 -1.982 1.318 -15.406 6.292 -16.096 19.628 -17.568 19.266 -0.784 -0.192 -0.576 -1.254 -0.612 -2.364Z" stroke-width="2"></path>
      <path id="vector_10" fill="#191919" d="M318.072 326.62c-3.796 -3.638 -2.084 -5.26 0.462 -9.072 0.366 -0.548 1.286 -1.114 0.94 -1.66 -0.616 -0.974 -2.252 0.462 -2.984 1.31 -9.866 11.43 16.462 20.234 17.218 17.794 -0.764 -0.712 -9.656 -2.638 -15.638 -8.372h0.002Z" stroke-width="2"></path>
      <path id="vector_11" fill="#191919" d="M342.69 307.614c0.266 1.926 0.118 3.212 -0.716 12.398 -0.04 0.446 -0.024 1.022 -0.624 1.054 -2.046 0.108 -0.522 -13.652 1.34 -13.45v-0.002Z" stroke-width="2"></path>
      <path id="vector_12" fill="#191919" d="M304.998 315.74c-0.14 -0.422 0.362 -0.764 0.704 -0.482 6.61 5.464 8.142 4.098 8.042 5.384 -0.158 2.026 -7.294 -0.544 -8.746 -4.902Z" stroke-width="2"></path>
      <path id="vector_13" fill="#191919" d="M317.216 315.626c1.102 -4.588 -3.578 -9.92 -4.716 -9.048 -0.688 0.526 -0.048 1.298 0.314 1.83 3.398 4.982 2.822 8.014 4.404 7.218h-0.002Z" stroke-width="2"></path>
      <path id="vector_14" fill="#191919" d="M304.918 310.206c5.03 5.348 5.152 5.244 4.766 5.726 -1.152 1.434 -6.45 -4.492 -4.766 -5.726Z" stroke-width="2"></path>
      <path id="vector_15" fill="#191919" d="M312.692 311.522c-0.136 3.346 -4.534 -3.968 -3.656 -4.644 0.85 -0.654 3.048 2.14 3.656 4.644Z" stroke-width="2"></path>
      <path id="vector_16" fill="#191919" d="M306.716 308.982c-0.546 -2.582 5.038 3.482 3.704 4.404 -1.046 0.722 -3.228 -2.156 -3.704 -4.404Z" stroke-width="2"></path>
      <path id="vector_17" fill="#191919" d="M321.764 325.472c-0.258 -0.362 0.12 -0.838 0.53 -0.668 7.924 3.282 8.986 1.528 9.268 2.786 0.444 1.982 -7.134 1.624 -9.8 -2.12l0.002 0.002Z" stroke-width="2"></path>
      <path id="vector_18" fill="#191919" d="M333.408 321.78c-0.294 -4.712 -6.334 -8.434 -7.166 -7.266 -0.502 0.704 0.334 1.254 0.836 1.656 4.712 3.766 5.05 6.832 6.33 5.61Z" stroke-width="2"></path>
      <path id="vector_19" fill="#191919" d="M320.062 320.204c6.378 3.636 6.466 3.502 6.236 4.074 -0.682 1.704 -7.484 -2.4 -6.236 -4.074Z" stroke-width="2"></path>
      <path id="vector_20" fill="#191919" d="M327.88 319.182c0.848 3.238 -5.5 -2.46 -4.858 -3.37 0.62 -0.876 3.542 1.154 4.858 3.37Z" stroke-width="2"></path>
      <path id="vector_21" fill="#191919" d="M321.418 318.51c-1.278 -2.308 5.84 1.85 4.834 3.124 -0.788 0.998 -3.72 -1.114 -4.834 -3.124Z" stroke-width="2"></path>
      <path id="vector_22" fill="#191919" d="M358.038 273.852c-0.316 0.914 -1.346 0.01 -2.826 -0.108 -0.656 -0.052 -1.596 0.148 -1.484 -0.876 0.206 -1.87 4.896 -0.702 4.31 0.986v-0.002Z" stroke-width="2"></path>
      <path id="vector_23" fill="#191919" d="M353.128 282.082c-3.582 1.074 -4.306 -0.714 -2.842 -4.054 0.182 -0.414 0.862 -0.024 0.712 0.828 -0.256 1.452 0.032 2.626 2.132 3.226h-0.002Z" stroke-width="2"></path>
      <path id="vector_24" fill="#191919" d="M353.764 286.47c-1.584 -0.092 -1.668 -2.77 -0.024 -2.79 1.644 -0.02 1.822 2.566 0.024 2.79Z" stroke-width="2"></path>
      <path id="vector_25" fill="#191919" d="M347.154 277.9c0.12 -1.834 1.738 -1.572 1.696 0.076 -0.016 0.636 -0.21 1.196 -0.932 1.166 -0.792 -0.034 -0.724 -0.724 -0.764 -1.242Z" stroke-width="2"></path>
      <path id="vector_26" fill="#191919" d="M355.156 276.404c1.376 0.1 1.278 2.296 0.088 2.348 -1.078 0.048 -1.15 -2.074 -0.088 -2.348Z" stroke-width="2"></path>
    </g>
    <g id="person 3">
      <path id="vector_27" fill="#191919" d="M264.438 266.022c2.848 -8.126 13.166 -7.744 16.688 -1.432 1.604 2.876 0.756 5.674 0.478 9.276 -0.342 4.46 4.352 3.206 3.024 6.088 -2.042 4.432 -10.442 4.44 -11.352 -1.368 -0.554 -3.542 1.142 -7.986 -4.958 -7.564 2.526 4.532 1.278 8.972 1.082 9.264 -1.52 2.268 -1.476 5.44 -4.114 7.078 -2.052 1.274 1.208 11.204 -3.322 13.564 -2.264 1.18 -4.51 1.048 -6.74 -0.184 -0.966 -0.534 -0.888 -1.4 -0.884 -2.244 0.04 -7.974 -4.684 -0.978 -7.476 -9.12 -2.79 -8.142 0.972 -11.538 -2.546 -11.166 -1.098 0.116 -2.716 0.326 -3.124 -0.764 -0.636 -1.696 2.32 -0.816 4.978 -6.144 3.562 -7.142 13.138 -9.936 18.264 -5.284h0.002Zm-17.142 15.28c0.434 3.354 0.462 13.826 10.25 10.572 0.434 -0.144 1.022 -0.974 1.42 -0.156 0.306 0.628 -0.322 1.15 -0.804 1.568 -1.094 0.948 -2.562 0.214 -2.248 3.12 0.196 1.81 -0.334 2.69 0.494 3.052 2.514 1.098 6.294 0.076 6.184 -3.49 -0.248 -8.11 0.196 -8.904 1.352 -9.948 0.84 -0.76 2.57 -1.376 1.71 -2.698 -0.904 -1.388 -2.096 -0.022 -3.084 0.55 -1.46 0.846 -2.058 -0.414 -1.898 -2.07 0.444 -4.592 1.754 -9.366 -2.968 -7.998 -1.568 0.454 -4.87 2.468 -7.374 3.274 -3.024 0.972 -3.016 1.006 -3.032 4.226l-0.002 -0.002Z" stroke-width="2"></path>
      <path id="vector_28" fill="#191919" d="M275.23 302.41c-5.786 -4.344 -9.482 -4.496 -8.862 -5.92 0.916 -2.104 19.298 5.308 20.71 21.356 1.614 18.352 -21.118 35.026 -46.558 22.88 -2.34 -1.118 -3.98 -5.142 -3.546 -7.318 1.528 -7.672 28.338 -4.134 32.118 -18.356 0.48 -1.806 1.582 -1.756 1.456 0.326 -0.93 15.368 -31.39 13.536 -30.886 19.318 0.108 1.234 0.306 2.508 1.644 3.184 30.682 15.512 58.226 -17.23 33.926 -35.472l-0.002 0.002Z" stroke-width="2"></path>
      <path id="vector_29" fill="#191919" d="M238.726 326.642c-4.668 1.444 -14.962 0.878 -27.836 7.744 -0.8 0.426 -0.99 0.732 -0.566 1.528 0.776 1.464 1.66 2.384 3.598 2.156 18.392 -2.166 9.242 3.504 -1.52 1.978 -2.046 -0.29 -4.572 -3.306 -4.334 -5.304 0.212 -1.79 9.602 -7.326 20.898 -8.932 2.802 -0.398 2.764 0.032 3.088 -2.9 2.63 -23.756 21.07 -26.712 21.396 -24.908 0.164 0.912 -0.832 0.286 -6.096 3.124 -9.258 4.994 -12.9 16.394 -13.08 22.724 -0.092 3.226 1.96 0.538 4.392 1.662 0.3 0.138 0.24 1.07 0.06 1.126v0.002Z" stroke-width="2"></path>
      <path id="vector_30" fill="#191919" d="M243.94 312.004c0.78 0.784 0.662 0.704 0.334 13.21 -0.028 1.082 -0.214 2.248 -1.106 2.2 -2.002 -0.108 -1.238 -14.162 0.772 -15.41Z" stroke-width="2"></path>
      <path id="vector_31" fill="#191919" d="M226.228 339.432c-1.7 -2.952 3.598 -7.3 8.018 -6.39 0.608 0.126 1.388 0.202 1.306 1.034 -0.17 1.762 -2.55 -2.276 -9.326 5.356h0.002Z" stroke-width="2"></path>
      <path id="vector_32" fill="#191919" d="M234.78 337.132c0.104 0.78 -0.62 0.8 -1.186 0.896 -3.638 0.616 -3.332 2.722 -4.33 1.742 -1.422 -1.396 5.182 -5.146 5.518 -2.638h-0.002Z" stroke-width="2"></path>
      <path id="vector_33" fill="#191919" d="M237.166 339.634c-0.052 0.378 -0.282 0.608 -0.562 0.608 -1.854 0 -4.34 2.61 -4.114 0.596 0.264 -2.356 4.656 -2.814 4.676 -1.202v-0.002Z" stroke-width="2"></path>
      <path id="vector_34" fill="#191919" d="M197.87 340.33c-1.7 -2.952 3.598 -7.3 8.018 -6.39 0.608 0.126 1.388 0.202 1.306 1.034 -0.17 1.762 -2.55 -2.276 -9.326 5.356h0.002Z" stroke-width="2"></path>
      <path id="vector_35" fill="#191919" d="M206.42 338.034c0.104 0.78 -0.62 0.8 -1.186 0.896 -3.638 0.616 -3.332 2.722 -4.33 1.742 -1.422 -1.396 5.182 -5.146 5.518 -2.638h-0.002Z" stroke-width="2"></path>
      <path id="vector_36" fill="#191919" d="M208.808 340.534c-0.052 0.378 -0.282 0.608 -0.562 0.608 -1.854 0 -4.34 2.61 -4.114 0.596 0.264 -2.356 4.656 -2.814 4.676 -1.202v-0.002Z" stroke-width="2"></path>
      <path id="vector_37" fill="#191919" d="M254.774 285.352c-1.826 1.572 -4.12 -0.842 -3.326 -2.3 0.434 -0.796 -0.028 -2.502 1.11 -2.336 1.226 0.18 0.454 1.62 0.31 2.478 -0.264 1.564 1.496 1.182 1.906 2.16v-0.002Z" stroke-width="2"></path>
      <path id="vector_38" fill="#191919" d="M257.444 287.246c-0.784 2.798 -3.664 2.826 -3.88 1.612 -0.254 -1.416 1.066 0.414 2.774 -2.014 0.572 -0.812 1.118 -0.214 1.106 0.402Z" stroke-width="2"></path>
      <path id="vector_39" fill="#191919" d="M257.066 279.734c1.322 0.088 1.306 2.328 0.152 2.392 -1.306 0.072 -1.286 -2.124 -0.152 -2.392Z" stroke-width="2"></path>
      <path id="vector_40" fill="#191919" d="M249.188 279.846c1.162 0.096 1.054 1.878 0.08 2.1 -1.082 0.246 -1.23 -1.664 -0.08 -2.1Z" stroke-width="2"></path>
      <path id="vector_41" fill="#191919" d="M260.206 277.402c-0.316 0.914 -1.346 0.01 -2.826 -0.108 -0.656 -0.052 -1.596 0.148 -1.484 -0.876 0.206 -1.87 4.896 -0.702 4.31 0.986v-0.002Z" stroke-width="2"></path>
    </g>
    <g id="person 2">
      <path id="vector_42" fill="#191919" d="M153.218 267.916c5.484 -3.928 15.3098 -2.288 17.9578 8.026 1.088 4.238 -3.908 -0.358 -3.028 3.74 0.758 3.53 0.35 7.09 -0.526 10.572 -0.876 3.482 -3.1478 5.338 -6.5458 5.626 -1.508 0.128 -1.1482 0.732 -1.1222 2.002 0.158 8.042 -9.1098 4.906 -9.3258 -0.184 -0.064 -1.52 0.696 -3.554 -0.414 -4.42 -0.938 -0.732 -2.864 -0.198 -4.35 -0.222 -4.134 -0.066 -4.804 0.746 -2.522 -16.338 0.064 -0.486 0.16 -0.884 -0.418 -1.314 -6.936 -5.16 5.172 -16.926 10.294 -7.488Zm-0.12 13.052c-0.008 2.88 -0.004 2.856 -2.34 2.462 -0.828 -0.14 -1.696 -0.08 -2.074 0.8 -1.198 2.784 3.224 0.904 3.37 6.426 0.128 4.882 -0.55 9.986 3.796 10.246 2.766 0.166 3.1238 -2.224 2.6618 -4.938 -0.15 -0.876 -3.3918 -0.974 -2.9638 -2.356 0.364 -1.178 1.282 -0.044 3.928 0.354 6.08 0.914 7.5278 -6.056 6.8958 -12.172 -0.438 -4.242 -0.458 -4.324 -4.696 -3.724 -1.298 0.184 -1.7578 -0.144 -1.9498 -1.326 -0.344 -2.122 -2.0082 -2.176 -2.0502 -0.024 -0.074 3.632 -5.9918 0.358 -4.5758 4.254l-0.002 -0.002Z" stroke-width="2"></path>
      <path id="vector_43" fill="#191919" d="M181.4218 322.526c-1.954 -4.704 -6.906 -18.064 -19.304 -23.14 -0.43 -0.176 -1.242 -0.25 -0.986 -1.002 0.762 -2.236 16.856 4.596 21.146 23.106 0.066 0.286 -0.006 3.088 -0.858 1.036h0.002Z" stroke-width="2"></path>
      <path id="vector_44" fill="#191919" d="M191.134 331.41c-0.35 -0.28 -2.602 1.36 -4.974 1.99 -0.804 0.214 -2.146 0.282 -2.022 1.034 0.346 2.106 8.834 -1.558 6.996 -3.024Z" stroke-width="2"></path>
      <path id="vector_45" fill="#191919" d="M190.8858 328.804c-0.35 -0.28 -2.602 1.36 -4.974 1.99 -0.804 0.214 -2.146 0.282 -2.022 1.034 0.346 2.106 8.834 -1.558 6.996 -3.024Z" stroke-width="2"></path>
      <path id="vector_46" fill="#191919" d="M188.28 325.29c-0.418 -0.164 -2.08 2.064 -4.162 3.37 -0.704 0.442 -1.968 0.906 -1.628 1.588 0.95 1.916 7.976 -4.102 5.79 -4.958Z" stroke-width="2"></path>
      <path id="vector_47" fill="#191919" d="M169.838 318.214c0 -3.51 -0.136 -4.334 0.716 -4.444 1.802 -0.23 2.474 15.716 1.006 15.812 -1.058 0.068 -0.896 -1.114 -1.722 -11.368Z" stroke-width="2"></path>
      <path id="vector_48" fill="#191919" d="M189.272 336.026c-0.33 -1.282 -5.606 0.902 -9.518 0.47 -1.21 -0.134 -0.672 1.038 -0.672 1.082 -0.002 1.592 10.738 0.582 10.19 -1.552Z" stroke-width="2"></path>
      <path id="vector_49" fill="#191919" d="M184.456 325.806c-0.634 1.576 -2.384 1.256 -6.534 6.008 -0.944 1.082 -1.78 0.182 -1.214 -0.716 2.968 -4.712 8.462 -7.06 7.748 -5.292Z" stroke-width="2"></path>
      <path id="vector_50" fill="#191919" d="M162.6398 285.312c-0.092 1.5 -1.91 1.892 -2.256 1.412 -0.09 -0.124 -0.04 -0.526 0.076 -0.592 1.942 -1.106 -1.018 -3.7 0.636 -4.11 0.824 -0.204 0.728 0.27 1.544 3.29Z" stroke-width="2"></path>
      <path id="vector_51" fill="#191919" d="M157.714 287.872c1.838 0.406 1.34 2.988 -0.206 2.794 -1.546 -0.194 -1.4 -2.718 0.206 -2.794Z" stroke-width="2"></path>
      <path id="vector_52" fill="#191919" d="M157.3 283.144c-1.392 -0.02 -1.44 -2.24 -0.258 -2.44 1.062 -0.18 1.89 2.078 0.258 2.44Z" stroke-width="2"></path>
      <path id="vector_53" fill="#191919" d="M164.856 281.588c0.04 1.396 -1.796 1.548 -1.79 -0.064 0.006 -1.468 1.738 -1.758 1.79 0.064Z" stroke-width="2"></path>
      <path id="Subtract_2" fill="#191919" fill-rule="evenodd" d="M175.986 336.966c0.254 3.078 -10.342 6.852 -17.902 6.676 -8.745 -0.206 -15.5782 -3.398 -20.1278 -8.068 -0.1714 0.876 -0.3494 1.794 -0.5322 2.756 9.3254 8.54 25.1878 11.314 38.522 2.536 2.686 -1.77 2.586 -5.618 -0.052 -7.512 -2.0182 -1.45 -5.602 -2.44 -9.615 -3.55 -7.83 -2.164 -17.2938 -4.78 -19.949 -12.132 -0.1486 -0.412 -0.2788 -0.778 -0.3944 -1.102 -0.7666 -2.148 -0.8856 -2.482 -1.4036 -2.416 -0.808 0.102 -0.632 1.29 -0.43 2.082 2.5748 10.114 13.5006 13.096 21.8534 15.374 5.4534 1.488 9.8102 2.676 10.0306 5.356Zm-46.654 -19.632c0.8326 -0.03 1.6078 -0.052 2.3288 -0.062 0.959 -7.458 5.9178 -14.704 15.5532 -18.99 0.0778 -0.036 0.161 -0.07 0.246 -0.104 0.5698 -0.234 1.2254 -0.502 0.9 -1.264 -1.0482 -2.454 -17.1696 5.89 -19.028 20.42Z" clip-rule="evenodd" stroke-width="2"></path>
    </g>
    <g id="person 1">
      <path id="vector_54" fill="#191919" d="M58.458 301.608c-4.488 0.032 -5.104 -2.448 -5.248 -6.72 -0.056 -1.68 0.322 -3.164 -2.46 -3.43 -3.29 -0.314 -5.266 -5.712 -3.848 -9.216 0.794 -1.964 2.252 -2.452 0.148 -3.968 -2.104 -1.516 -1.87 -4.65 0.302 -6.176 0.728 -0.512 1.076 -0.816 0.848 -1.846 -0.5 -2.26 1.858 -4.216 4.476 -3.76 0.904 0.158 1.362 0.12 1.858 -0.788 0.85 -1.558 2.986 -1.746 4.842 -0.538 0.514 0.334 0.772 0.586 1.416 0.08 1.642 -1.29 3.634 -0.94 4.938 0.792 0.49 0.652 0.784 0.966 1.754 0.696 6.168 -1.724 8.084 6.76 4.038 9.792 -1.138 0.852 0.274 4.58 -0.402 9.414 -0.596 4.262 -2.718 8.512 -7.178 8.846 -3.326 0.25 2.05 6.77 -5.48 6.824l-0.004 -0.002Zm10.938 -19.218c-0.116 -4.58 0.41 -4.87 -1.242 -4.806 -6.294 0.248 -5 -6.698 -9.482 -2.818 -1.89 1.636 -2.306 4.408 -2.49 7.106 -0.18 2.662 -0.84 2.348 -3.144 1.348 -1.436 -0.624 -1.998 0.598 -1.472 1.572 0.866 1.6 3.128 2.34 3.306 6.172 0.316 6.8 -0.29 7.798 2.164 8.368 1.504 0.35 4.218 -0.056 4.246 -0.612 0.06 -1.202 0.114 -2.408 0.048 -3.608 -0.046 -0.836 -0.99 -0.584 -1.452 -0.948 -0.462 -0.364 -1.112 -0.63 -0.86 -1.31 0.316 -0.852 0.896 -0.282 1.408 -0.124 6.308 1.936 9.136 -3.848 8.972 -10.338l-0.002 -0.002Z" stroke-width="2"></path>
      <path id="vector_55" fill="#191919" d="M61.72 343.112c7.56 0.176 18.156 -3.598 17.902 -6.676 -0.558 -6.784 -27.628 -4.01 -31.884 -20.73 -0.202 -0.792 -0.378 -1.98 0.43 -2.082 0.596 -0.076 0.664 0.378 1.798 3.518 4.016 11.122 23.608 11.406 29.564 15.682 2.638 1.894 2.738 5.742 0.052 7.512 -17.116 11.268 -38.398 3.502 -44.672 -11.062 -9.456 -21.948 15.766 -35.978 17.086 -32.89 0.374 0.876 -0.548 1.1 -1.146 1.368 -26.004 11.572 -17.946 44.686 10.87 45.36Z" stroke-width="2"></path>
      <path id="vector_56" fill="#191919" d="M75.07 314.992c17.388 -8.996 23.958 -25.16 23.512 -36.902 -0.04 -1.05 -0.246 -1.464 -1.368 -1.6 -3.688 -0.448 -3.672 -0.498 -4.712 2.964 -3.272 10.878 -10.774 18.248 -25.808 19.636 -0.772 0.072 -2.046 0.072 -2.022 -0.704 0.07 -2.34 17.094 0.518 24.53 -16.474 2.658 -6.076 1.874 -8.094 4.114 -7.768 6.972 1.012 6.314 0.426 6.51 2.594 1.49 16.37 -8.872 33.032 -22.506 39.002 -3.656 1.6 -0.89 3.156 -1.746 10.35 -0.262 2.2 -1.634 1.886 -1.834 0.096 -1.028 -9.188 -0.19 -2.192 -2.018 -18.316 -0.216 -1.91 1.278 -1.85 1.656 -0.294 0.582 2.396 1.102 4.806 1.692 7.42v-0.004Z" stroke-width="2"></path>
      <path id="vector_57" fill="#191919" d="M93.696 261.264c0.49 1.616 -1.57 4.186 -0.116 9.756 0.426 1.636 -0.258 2.402 -1.046 1.668 -3.234 -3.006 -0.808 -12.37 1.162 -11.424Z" stroke-width="2"></path>
      <path id="vector_58" fill="#191919" d="M85.3842 333.554c5.376 -0.234 8.324 4.234 7.556 5.026 -1.074 1.11 -2.538 -4.318 -9.654 -3.246 -2.456 0.37 -1.31 -1.93 2.1 -1.782l-0.002 0.002Z" stroke-width="2"></path>
      <path id="vector_59" fill="#191919" d="M102.86 267.24c-0.302 1.186 -0.692 3.158 -1.866 2.794 -0.986 -0.304 0.566 -2.504 -0.656 -3.944 -1.726 -2.034 2.582 -2.502 2.522 1.15Z" stroke-width="2"></path>
      <path id="vector_60" fill="#191919" d="M99.966 267.948c-0.302 1.186 -0.692 3.158 -1.866 2.794 -0.986 -0.304 0.566 -2.504 -0.656 -3.944 -1.726 -2.034 2.582 -2.502 2.522 1.15Z" stroke-width="2"></path>
      <path id="vector_61" fill="#191919" d="M96.87 268.724c-0.302 1.186 -0.692 3.158 -1.866 2.794 -0.986 -0.304 0.566 -2.504 -0.656 -3.944 -1.726 -2.034 2.582 -2.502 2.522 1.15Z" stroke-width="2"></path>
      <path id="vector_62" fill="#191919" d="M90.6322 340.188c-0.506 0.506 -0.748 -0.262 -1.074 -0.458 -1.02 -0.614 -1.97 -1.348 -3.156 -1.644 -0.55 -0.138 -1.536 0.156 -1.46 -0.728 0.204 -2.344 7.45 1.072 5.69 2.83Z" stroke-width="2"></path>
      <path id="vector_63" fill="#191919" d="M87.8382 341.512c-0.354 0.664 -0.94 -0.056 -3.358 -0.92 -0.45 -0.16 -1.154 -0.1 -0.95 -0.872 0.468 -1.758 5.072 0.354 4.306 1.794l0.002 -0.002Z" stroke-width="2"></path>
      <path id="vector_64" fill="#191919" d="M65.6042 284.418c0.132 4.262 -3.708 1.922 -2.276 1.5 2.26 -0.668 -0.084 -4.05 1.186 -4.362 0.848 -0.21 0.792 0.872 1.09 2.864v-0.002Z" stroke-width="2"></path>
      <path id="vector_65" fill="#191919" d="M60.4142 276.566c1.014 -0.016 2.4 0.808 2.054 1.548 -0.41 0.876 -1.634 -1.32 -4.014 0.97 -1.952 1.878 -1.576 -2.462 1.958 -2.518h0.002Z" stroke-width="2"></path>
      <path id="vector_66" fill="#191919" d="M61.4702 289.124c-3.188 -0.514 -2.178 -4.546 -0.554 -2.006 0.86 1.344 2.266 0.578 1.858 1.588 -0.198 0.49 -0.724 0.474 -1.302 0.418h-0.002Z" stroke-width="2"></path>
      <path id="vector_67" fill="#191919" d="M61.084 281.406c-0.006 1.714 -1.772 1.754 -1.774 -0.012 0 -1.664 1.78 -1.572 1.774 0.012Z" stroke-width="2"></path>
      <path id="vector_68" fill="#191919" d="M68.2062 281.612c-0.202 1.476 -1.678 1.194 -1.572 -0.266 0.032 -0.442 0.1358 -0.97 0.7318 -0.944 0.768 0.032 0.7402 0.696 0.8402 1.21Z" stroke-width="2"></path>
    </g>
    <g id="laptop">
      <path id="vector_69" fill="#191919" d="M118.042 319.982c-20.592 0.406 -20.294 0.306 -20.814 2.782 -4.56 21.852 -3.072 21.726 -5.952 21.762 -16.084 0.208 -17.174 -0.092 -17.604 1.648 -0.72 2.912 -0.954 3.04 29.584 2.634 30.252 -0.402 30.05 0.808 30.614 -3.14 0.624 -4.388 3.156 -15.912 3.9 -23.424 0.334 -3.366 0.306 -2.658 -19.728 -2.264v0.002Zm0.218 13.86c-1.444 0.628 -1.616 1.994 -0.39 2.972 2.16 1.718 -5.058 4.452 -5.038 -1.902 0.542 -6.378 8.542 -2.42 5.428 -1.07Zm-1.062 -4.412c-2.056 0.1 0.29 -2.996 1.652 -3.832 2.086 -1.282 0.98 3.704 -1.652 3.832Z" stroke-width="2"></path>
    </g>
    <g id="puzzle 1">
      <path id="o" fill="#191919" d="M142.614 153.4122c-6.724 6.952 -23.202 19.624 -38.438 34.112C73.986 216.232 74.664 217.08 73.736 216.26c-2.642 -2.336 57.882 -60.5238 68.88 -62.8478h-0.002Z" stroke-width="2"></path>
      <path id="vector_70" fill="#0a1628" d="M50.336 224.584c5.53 -0.036 5.876 0.418 6.538 -1.218 2.812 -6.954 10.972 -6.58 13.43 -0.088 0.588 1.552 1.118 0.866 4.194 1.186 3.716 0.388 2.646 0.64 2.9 4.684 0.13 2.066 0.172 3.758 -2.654 4.358 -2.172 0.462 -3.188 3.032 -2.88 5.3 0.648 4.748 5.478 3.222 5.44 5.216 -0.124 6.55 0.478 8.972 -2.152 8.826 -6.04 -0.334 -6.542 0.57 -6.648 -2.05 -0.214 -5.316 -7.606 -6.032 -9.514 -1.552 -0.732 1.718 0.72 3.49 -1.83 3.37 -6.776 -0.32 -8.352 0.728 -8.344 -2.224 0.064 -25.466 -1.512 -25.788 1.516 -25.808h0.004Z" stroke-width="2"></path>
    </g>
    <g id="puzzle 2">
      <path id="q" fill="#191919" d="M162.09 178.4648c1.05 2.662 -3.014 14.75 -6.294 26.1132 -0.804 2.786 -2.316 9.39 -3.246 9.236 -2.388 -0.394 6.896 -32.9172 9.538 -35.3492h0.002Z" stroke-width="2"></path>
      <path id="vector_71" fill="#0a1628" d="M159.774 250.566c-0.836 -5.452 -9.864 -5.188 -9.928 0.314 -0.036 3.024 -1.846 1.66 -8.022 1.754 -2.344 0.036 -2.202 0.156 -2.038 -24.216 0.02 -3.108 -0.314 -3.836 4.794 -3.478 5.802 0.406 2.384 -6.68 10.736 -6.274 6.522 0.318 5.112 6.21 8.388 5.98 1.138 -0.08 2.292 0.048 3.434 0.12 1.098 0.068 1.806 0.648 1.548 1.778 -1.7 7.456 7.524 3.928 6.526 12.566 -0.82 7.106 -6.952 4.5 -6.712 8.532 0.072 1.198 -0.12 2.412 -0.072 3.616 0.052 1.298 -0.566 1.756 -1.758 1.734 -6.78 -0.136 -6.434 0.6 -6.896 -2.424v-0.002Z" stroke-width="2"></path>
    </g>
    <g id="puzzle 3">
      <path id="p" fill="#191919" d="M262.048 205.86c0.442 6.12 -7.19 -11.613 -20.082 -32.163 -2.972 -4.736 -1.074 -5.762 2.432 -0.748 8.566 12.246 13.568 22.176 17.65 32.911Z" stroke-width="2"></path>
      <path id="vector_72" fill="#0a1628" d="M265.744 244.974c-0.712 -5.55 -9.012 -5.786 -9.63 0.518 -0.218 2.216 -0.844 1.438 -8.368 1.484 -1.93 0.012 -1.4 -0.856 -1.496 -8.164 -0.032 -2.372 4.604 -0.584 4.922 -5.506 0.144 -2.228 -1.282 -4.718 -3.402 -5.192 -1.68 -0.376 -1.874 -1.226 -1.778 -2.634 0.324 -4.7 -0.852 -6.256 1.95 -6.216 3.37 0.046 5.916 1.062 6.928 -2.494 1.36 -4.77 11.11 -5.308 12.772 0.788 0.518 1.902 1.19 1.54 4.038 1.604 3.466 0.078 3.084 0.152 3.04 3.594 -0.024 1.83 0.024 2.804 2.082 3.386 6.268 1.774 6.478 11.984 -0.824 13.338 -0.956 0.178 -1.392 0.546 -1.34 1.58 0.354 7.016 -0.108 6.262 -4.21 6.262 0 -0.442 -4.21 1.336 -4.684 -2.352v0.004Z" stroke-width="2"></path>
    </g>
    <g id="puzzle 4">
      <path id="n" fill="#191919" d="M258.402 151.6144c5.38 -4.282 86.496 60.1636 82.572 63.8596 -0.982 0.924 -0.616 0.688 -18.738 -15.5416 -37.752 -33.806 -60.556 -43.132 -63.832 -48.318h-0.002Z" stroke-width="2"></path>
      <path id="vector_73" fill="#0a1628" d="M352.924 245.004c-0.926 -6.45 -8.988 -4.592 -8.936 -0.116 0.036 3.008 -1.278 1.992 -7.592 2.096 -1.68 0.028 -1.88 -0.936 -1.73 -2.626 0.786 -8.746 -7.658 -1.746 -6.586 -12.682 0.224 -2.292 2.626 -5.168 4.99 -5.586 3.462 -0.612 -0.648 -7.262 3.128 -6.8 5.078 0.622 7.696 -1.58 7.764 1.806 0.084 4.102 6.892 5.79 8.666 1.022 0.982 -2.638 -0.912 -3.118 4.504 -3.012 4.318 0.084 4.36 0.1 4.29 4.464 -0.02 1.258 0.16 1.97 1.576 2.444 5.83 1.954 6.89 11.254 -0.498 13.48 -0.684 0.206 -1.074 0.462 -1.078 1.278 -0.03 7.404 -0.136 6.562 -4.206 6.562 0 -0.474 -3.776 1.274 -4.294 -2.328l0.002 -0.002Z" stroke-width="2"></path>
    </g>
  </g>
</svg>