<svg viewBox="0 0 400 400" xmlns="http://www.w3.org/2000/svg" id="Team-Brainstorming-1--Streamline-Brooklyn" height="400" width="400">
  <desc>
    Team Brainstorming 1 Streamline Illustration: https://streamlinehq.com
  </desc>
  <path d="M318.57 225.58a8.672 8.672 0 0 0 7.48 -5.172c0.55 -1.87 -1.43 -2.53 -2.092 -0.44a7.48 7.48 0 0 1 -5.938 4.182c-0.44 0.11 -1.32 1.466 0.55 1.43Z" fill="#191919" stroke-width="2"></path>
  <path d="M321.87 209.738c-0.648 -2.424 -3.962 -0.22 -1.98 2.09 0.55 0.66 2.654 0.436 1.98 -2.09Z" fill="#191919" stroke-width="2"></path>
  <path d="M317.14 199.508c-1.542 0.434 -1.54 2.2 0.438 2.2a14.63 14.63 0 0 1 6.492 1 0.656 0.656 0 0 0 0.658 -1.1 9.422 9.422 0 0 0 -7.588 -2.1Z" fill="#191919" stroke-width="2"></path>
  <path d="M311.2 205a6.6 6.6 0 0 0 -4.84 -0.66c-1 0.33 -0.88 1.43 0.11 1.54a9.842 9.842 0 0 1 3.74 0.88c1.318 0.558 1.642 -1.194 0.99 -1.76Z" fill="#191919" stroke-width="2"></path>
  <path d="M312.958 212.6a32.958 32.958 0 0 0 -0.11 7.372c0.442 2.86 6.93 0.77 5.942 -0.77 -0.55 -0.88 -2.75 1 -4.182 0.33a34.066 34.066 0 0 1 -0.438 -6.932 0.6 0.6 0 1 0 -1.212 0Z" fill="#191919" stroke-width="2"></path>
  <path d="M310.758 213.368c1.646 -1 0.112 -4.4 -1.318 -3.3 -1.102 0.66 -0.668 4.502 1.318 3.3Z" fill="#191919" stroke-width="2"></path>
  <path d="M299.648 222.28c1.54 5.06 5.28 11.66 9.57 14.74 1.98 1.43 2.97 0 1 -1.87a30.8 30.8 0 0 1 -9.24 -13.422 0.718 0.718 0 0 0 -1.33 0.552Z" fill="#191919" stroke-width="2"></path>
  <path d="M335.4 227.56c0.538 -0.454 0.11 -1.32 -0.55 -1 -6.16 2.64 -10.45 12.21 -7.48 19.032 0.44 0.88 1.65 0.55 1.43 -0.442 -1.65 -8.46 0.524 -12.466 6.6 -17.59Z" fill="#191919" stroke-width="2"></path>
  <path d="M298.658 229.65a21.428 21.428 0 0 0 10.89 12.76c1.43 0.66 2.86 -0.44 0.66 -1.87a24.556 24.556 0 0 1 -10.23 -11.33c-0.55 -0.88 -1.564 -0.544 -1.32 0.44Z" fill="#191919" stroke-width="2"></path>
  <path d="M303.388 222.06a24.866 24.866 0 0 0 11.77 11.66c7.15 3.19 8.582 -1.76 14.742 -5.83 0.66 -0.44 0.328 -1.32 -0.442 -1.1 -5.5 1.32 -6.05 8.58 -13.75 4.84a30.362 30.362 0 0 1 -11 -10.45 0.8 0.8 0 0 0 -1.32 0.88Z" fill="#191919" stroke-width="2"></path>
  <path d="M312.958 251c0.552 0.878 1.982 0.11 1.54 -0.77 -2.09 -5.612 -10.45 -6.822 -13.42 -11.772 -0.55 -0.88 -1.54 0 -1.2 0.88 3.07 5.822 9.35 5.706 13.08 11.662Z" fill="#191919" stroke-width="2"></path>
  <path d="M302.618 204.898a65.354 65.354 0 0 0 3.19 15.842c0.22 0.77 1.65 0.44 1.43 -0.44a63.47 63.47 0 0 1 -2.75 -23 5.972 5.972 0 0 0 7.81 -4.07c2.972 4.4 11.772 3.96 14.522 0 -0.77 6.05 6.27 16.72 7.7 14.74 0.66 -1 1.32 -2.09 2.53 -2.42 4.51 -1.43 5.28 7.15 2.53 8.36 -1.2 0.55 -3.63 -1 -2.2 2.86a144.418 144.418 0 0 1 4.84 15.4c0.22 0.99 1.43 0.55 1.43 -0.44a85.538 85.538 0 0 0 -4.4 -15.622 4.56 4.56 0 0 0 3.96 -4.07 8.2 8.2 0 0 0 3.082 -13.42c5.94 -5.94 4.84 -15.732 -4.292 -15.622a9.358 9.358 0 0 0 -13.642 -10.89c-3.3 -8.91 -16.83 -6.27 -17.16 1.65 -8.58 -7.04 -19.692 3.96 -13.092 12.43 -7.478 0.12 -8.138 17.942 4.512 18.712Z" fill="#191919" stroke-width="2"></path>
  <path d="M317.69 257.152a4.852 4.852 0 0 0 8.47 -3.3 39.468 39.468 0 0 0 5.28 -2.53 10.644 10.644 0 0 0 -1.65 -4.18 24.542 24.542 0 0 0 -4.95 1.87 4.77 4.77 0 0 0 -8.472 3.3c-1.1 0.66 -2.31 1.43 -2.75 1.76a7.334 7.334 0 0 0 1.2 4.29c0.89 -0.33 1.982 -0.762 2.872 -1.21Zm0.988 -4.84c0.348 -3.85 5.4 -3.41 4.952 1.43 -0.33 3.96 -5.368 3.192 -4.952 -1.43Z" fill="#191919" stroke-width="2"></path>
  <path d="M293.6 294.334c-0.33 -5.5 -0.55 -18.482 0.88 -23.322 0.22 -0.88 1.32 -1.1 1.2 0.77a189.486 189.486 0 0 0 0.22 22.442 154.156 154.156 0 0 1 24.862 1.21c-3.522 -9.24 -8.472 -37.952 -9.022 -41.692s-8.03 -6.272 -12 -10.122c-9.24 3.3 -22.112 13.642 -32.122 27.722a161.294 161.294 0 0 1 9.02 24.862 153.302 153.302 0 0 1 16.962 -1.87Z" fill="#191919" stroke-width="2"></path>
  <path d="M345.41 234.16c-4.51 4.73 -8.36 7.04 -15.18 7.15 1.43 9.8 10.012 24.092 17.492 34.544a32.55 32.55 0 0 0 2.528 -7.812c0.222 -1.54 1.2 -0.99 1.2 -0.11a32.054 32.054 0 0 1 -2.2 10.122c9.022 12.32 20.8 24.2 25.2 39.162 4.95 -6.27 24.312 -40.6 10.892 -63.364 -7.918 -13.752 -25.19 -20.792 -39.932 -19.692Z" fill="#191919" stroke-width="2"></path>
  <path d="M361.582 333.6c7.812 0.11 11.44 0.11 18.04 0.11 3.412 -8.47 6.932 -25.08 8.142 -38.832 -7.042 22.778 -17.712 33.558 -26.182 38.722Z" fill="#191919" stroke-width="2"></path>
  <path d="M331.55 326.786a216.74 216.74 0 0 0 -36.742 6.71c7.15 -0.11 32.892 -0.33 41.912 -0.11a14.512 14.512 0 0 1 -5.17 -6.6Z" fill="#191919" stroke-width="2"></path>
  <path d="M329.8 324.036c1.322 -0.2 1.1 -2.2 -0.22 -1.98 -31.822 4.466 -37.108 8.278 -50.714 9.46 -1.87 0.11 -3.4 2.09 -0.88 2.09 8.142 0 21.562 -4.18 30.362 -5.83 7.692 -1.54 13.754 -2.55 21.452 -3.74Z" fill="#191919" stroke-width="2"></path>
  <path d="M280.616 297.634c-4.844 0.968 -3.63 2.53 -1.87 2.09 12.542 -2.64 29.482 -2.09 42.024 0 1.21 0.22 1.76 -1.65 0.55 -1.87 -12.432 -2.09 -28.284 -2.698 -40.704 -0.22Z" fill="#191919" stroke-width="2"></path>
  <path d="M358.062 294.774c0.546 0.446 1.65 -0.22 1.2 -1a265.146 265.146 0 0 1 -27.612 -39.712c-0.44 -0.77 -1.76 0 -1.43 0.77 4.19 8.368 20.636 34.068 27.842 39.942Z" fill="#191919" stroke-width="2"></path>
  <path d="M371.702 318.096c0.44 -1.1 -1 -1.98 -1.54 -1 -3.3 5.83 -7.26 11.66 -13.64 14.52 -6.49 2.97 -13.642 2.09 -18.372 -3.52 -10.23 -12.1 -17.71 -50.6 -20.462 -68.094 -0.22 -1.1 -1.76 -0.66 -1.54 0.44 2.31 16.72 9.8 56.104 20.682 68.974 8.334 9.932 25.922 7.476 34.872 -11.32Z" fill="#191919" stroke-width="2"></path>
  <path d="M207.682 274.2c0.77 -0.436 0.22 -1.32 -0.66 -1.2 -3.96 0.77 -6.6 1.87 -7.812 5.832a22.894 22.894 0 0 0 -0.88 11.22c0.22 1 1.65 0.77 1.76 -0.22 0.11 -4.29 -0.55 -5.17 0.88 -9.9 1.21 -4.41 3.198 -3.732 6.712 -5.732Z" fill="#191919" stroke-width="2"></path>
  <path d="M209.112 257.372a44.048 44.048 0 0 0 0.22 7.15c0.11 0.88 1.65 0.77 1.76 0a53.476 53.476 0 0 0 -0.33 -7.15c-0.112 -0.772 -1.632 -0.772 -1.65 0Z" fill="#191919" stroke-width="2"></path>
  <path d="M217.472 256.492c2.938 -1.6 7.6 -4.73 9.57 -8.582 0.55 -1.1 0.442 -1.43 -0.33 -2.42a13.188 13.188 0 0 0 -3.4 -2.75c-1.318 -0.66 -1.43 -0.22 -2.418 0.44 -6.492 4.51 -16.4 3.63 -23.214 0.11 -0.55 -0.33 -2.09 0.55 -0.66 1.32 8.472 4.292 17.6 5.062 25.412 -0.44a16.862 16.862 0 0 1 3.412 2.86 26 26 0 0 1 -10.232 8.582c-1.54 -1.87 -3.08 -3.63 -4.62 -5.5 -2.322 -2.578 -3.274 2.062 -7.042 5.83a74.108 74.108 0 0 1 -10.89 -6.6c1.1 -1.102 2.09 -2.2 3.19 -3.302 0.66 -0.55 -0.22 -1.65 -1 -1.2a20.65 20.65 0 0 0 -3.19 2.86 2.272 2.272 0 0 0 0.22 3.2c1.76 1.65 10.67 7.37 12.102 6.71 2.42 -1.2 3.74 -4.4 5.39 -6.38 1.54 1.54 3.63 4.62 4.84 5.83 0.77 0.862 2.082 -0.144 2.86 -0.568Z" fill="#191919" stroke-width="2"></path>
  <path d="M229.134 212.268a17.722 17.722 0 0 0 0.438 -5.17c-0.22 -1.87 -1.978 -1.98 -1.87 0.11 0.22 2.75 -0.768 5.94 -0.438 6.6 0.77 1.872 3.52 -1.2 4.838 0.772 1.87 3.08 -2.2 8.91 -4.73 7.37 -0.658 -0.44 -1.2 -0.11 -1.65 1.32a27.38 27.38 0 0 1 -2.64 5.5c-5.94 8.69 -17.93 10.89 -24.53 3.4a22.254 22.254 0 0 1 -4.4 -10.34 1.428 1.428 0 0 0 -2.2 -1.1c-2.31 1.76 -4.4 -0.88 -4.62 -4.18 -0.33 -4.512 2.42 -4.842 4.4 -3.302a0.756 0.756 0 0 0 1.21 -0.77c-0.11 -1 -0.66 -6.6 -0.66 -7.81 -0.11 -1.1 -1.43 -0.66 -1.43 0.33 0.11 1.98 0.22 4.07 0.44 5.94a4.144 4.144 0 0 0 -5.94 3.4c-0.88 5.942 3.3 10.562 7.15 8.362 1.1 4.84 2.97 9.79 7.042 12.76 -0.222 1.98 -0.33 3.96 -0.55 5.94 -0.11 1.76 1.1 1.98 1.54 1.1a53.742 53.742 0 0 0 0.55 -6.05 17.066 17.066 0 0 0 17.27 -0.88c0.11 1.98 0 4.07 0.22 6.05a0.892 0.892 0 1 0 1.76 -0.22c-0.33 -3.3 -0.11 -5.39 -0.22 -7.04a20.416 20.416 0 0 0 6.932 -10.34 4.462 4.462 0 0 0 3.85 -0.88c5.168 -3.5 4.726 -12.852 -1.762 -10.872Z" fill="#191919" stroke-width="2"></path>
  <path d="M201.742 202.588a7.886 7.886 0 0 0 -5.942 2.53c-0.66 0.66 -0.22 2.09 1.1 1.43a9.522 9.522 0 0 1 4.842 -1.76c1.98 -0.22 1.658 -2.082 0 -2.2Z" fill="#191919" stroke-width="2"></path>
  <path d="M228.472 271.562a15.354 15.354 0 0 0 -9.13 -12.32c-1.2 -0.44 -1.32 0.77 -0.44 1.2 5.61 2.97 7.81 8.69 8.032 14.742 0.218 4.95 -2.092 12.65 3.738 15.4 1 0.44 1.762 -1.2 0.77 -1.65 -4.95 -2.3 -1.806 -9.884 -2.97 -17.372Z" fill="#191919" stroke-width="2"></path>
  <path d="M203.17 261.112c0.538 -0.67 -0.11 -1.54 -0.88 -1a29.326 29.326 0 0 0 -9.02 13.86c-0.77 2.862 -0.55 5.832 -1.21 8.582 -0.77 3.19 -3.52 4.4 -6.05 6.16 -0.88 0.55 -0.11 2.09 0.88 1.65a13.322 13.322 0 0 0 6.05 -4.95c2.31 -3.96 0 -8.91 4.73 -17.162a60.186 60.186 0 0 1 5.5 -7.14Z" fill="#191919" stroke-width="2"></path>
  <path d="M196.57 284.984c0.378 -3.4 0.11 -6.932 1.98 -10.012a10.8 10.8 0 0 1 7.482 -4.73c1.32 -0.22 1.2 -1.54 0 -1.54a11.092 11.092 0 0 0 -8.8 4.84 18.314 18.314 0 0 0 -2.09 11.332c-0.002 0.77 1.33 0.99 1.428 0.11Z" fill="#191919" stroke-width="2"></path>
  <path d="M210 284c-0.4 2.866 0.22 45.432 0.33 47.742 0 1.21 1.98 1.1 1.98 -0.11 0 -12.2 -0.55 -34.212 -0.77 -47.522 -0.118 -0.666 -1.426 -0.996 -1.54 -0.11Z" fill="#191919" stroke-width="2"></path>
  <path d="M221.762 304.234a8.108 8.108 0 0 1 -5.06 -5.83c-1.21 -5.83 4.84 -11.44 1.76 -17.49a5.756 5.756 0 0 0 -6.162 -3.2 0.6 0.6 0 1 0 0 1.21 5.28 5.28 0 0 1 5.062 5.722c0 3.19 -1.76 6.16 -2.42 9.24a10.054 10.054 0 0 0 6.16 12.1c1.21 0.558 1.866 -1.296 0.66 -1.752Z" fill="#191919" stroke-width="2"></path>
  <path d="M185.13 291.364c-0.116 -0.88 0 -3.85 -1.54 -3.4a23.366 23.366 0 0 0 -3.96 1.1c-1.76 0.77 -2.64 2.75 -0.22 2.09 1.1 -0.33 2.31 -0.66 3.4 -1a33.066 33.066 0 0 0 8.14 19.252 130.22 130.22 0 0 1 -20.8 14.52c-2.09 1.21 -1.54 3.08 0.22 2.09a106.118 106.118 0 0 0 22.112 -15.4c0.33 -0.33 0.77 -0.77 0.33 -1.43 -3.942 -6.162 -6.74 -10.666 -7.682 -17.822Z" fill="#191919" stroke-width="2"></path>
  <path d="M278.746 315.896c-1.218 -11.55 -9.46 -34.102 -14.08 -44.114 -7.042 -15.07 -18.152 -20.57 -33.772 -23.982a0.788 0.788 0 0 0 -0.332 1.542c13.532 4.73 23.542 6.49 30.914 20.46 5.28 10.012 16.94 40.704 15.29 52.474 -1.32 9.13 -6.16 8.69 -12.54 9.13 -11.442 0.77 -31.022 -14.52 -39.164 -22 5.5 -3.852 9.022 -12.652 10.012 -18.812a119.352 119.352 0 0 1 25.2 10.12c1.102 0.55 1.982 -0.88 0.882 -1.43a115.424 115.424 0 0 0 -15.842 -7.37 15.704 15.704 0 0 0 -3.3 -7.15c-0.88 -0.77 -1.32 0.22 -0.99 0.77a21.124 21.124 0 0 1 2.42 5.61 48.928 48.928 0 0 0 -8.03 -2.31c-2.09 -0.33 -2.09 0 -2.42 1.76 -3.632 17.492 -11.882 17.05 -9.572 19.582 8.142 9.13 27.722 22.88 40.484 23.1 11.98 0.324 16.152 -4.948 14.84 -17.38Z" fill="#191919" stroke-width="2"></path>
  <path d="M222.862 280.914a8.294 8.294 0 0 0 -5.6 -7.152 25.098 25.098 0 0 0 -5.72 -0.44c-0.882 0 -0.882 1.1 -0.11 1.322 3.19 0.88 5.83 -0.332 8.14 2.97 2.53 3.52 1.1 6.93 1.54 9.02a0.904 0.904 0 0 0 1.65 0.11 16.892 16.892 0 0 0 0.1 -5.83Z" fill="#191919" stroke-width="2"></path>
  <path d="M208.672 277.064a9.302 9.302 0 0 0 -5.722 5.17c-4.62 9.68 8.032 16.83 -10.23 23.542a0.908 0.908 0 0 0 0.44 1.76 19.212 19.212 0 0 0 7.92 -3.962c10.232 -8.58 -4.4 -16.83 8.142 -25.3 0.66 -0.55 0.332 -1.418 -0.55 -1.21Z" fill="#191919" stroke-width="2"></path>
  <path d="M199.1 212.378c1.416 1.228 3.2 -2.64 1.322 -3.63 -1.652 -0.88 -2.322 2.762 -1.322 3.63Z" fill="#191919" stroke-width="2"></path>
  <path d="M221.322 273.102c2.834 2.672 2.64 6.6 2.75 10.232 0 0.88 1.32 0.77 1.54 0 0.55 -3.96 0.11 -8.692 -2.97 -11.662 -3.3 -3.08 -8.36 -3.52 -12.54 -2.86a0.674 0.674 0 1 0 0.22 1.32c3.74 0 8 0.142 11 2.97Z" fill="#191919" stroke-width="2"></path>
  <path d="M183.7 209.628c0.988 0.882 2.09 -0.66 1.21 -1.54 -6.38 -6.38 -6.38 -16.062 -1.98 -23.542 12.65 -21.782 50.274 -17.38 58.084 5.06a17.546 17.546 0 0 1 -6.05 20.352c-0.66 0.55 -0.11 1.76 0.77 1.32 8.8 -4.4 10.34 -15.95 6.71 -24.2 -10.78 -24.532 -52.694 -25.852 -62.924 0 -3.08 7.59 -2.1 16.95 4.18 22.55Z" fill="#191919" stroke-width="2"></path>
  <path d="M187.11 203.028c6.702 0.748 14.962 -3.96 18.262 -9.68a0.75 0.75 0 0 0 -1.21 -0.88c-4.95 6.05 -9.462 8.03 -17.052 8.91a0.836 0.836 0 0 0 0 1.65Z" fill="#191919" stroke-width="2"></path>
  <path d="M208.232 219.97c0.772 -0.548 0.77 -1.32 0 -1.65 -0.55 -0.22 -3.52 0.55 -3.74 0 -0.44 -1.1 1.21 -5.832 1.54 -8.142 0.22 -1.65 -0.55 -1.65 -1.32 -0.33s-3.2 8.032 -2.092 10.012c1.102 1.65 4.516 0.884 5.612 0.11Z" fill="#191919" stroke-width="2"></path>
  <path d="M163.678 266.062c6.7 -9.358 14.082 -13.2 25.082 -16.61 1.1 -0.33 0.77 -2.09 -0.33 -1.76 -12.65 3.74 -19.142 7.26 -26.842 17.93 -1.1 1.32 0.988 1.978 2.09 0.44Z" fill="#191919" stroke-width="2"></path>
  <path d="M232 204.018a0.734 0.734 0 0 0 -0.11 -1.43c-6.822 -0.11 -15.072 -1.1 -20.242 -6.05 -4.84 -4.62 -7.26 -12.652 -7.6 -19.142 -0.11 -1.1 -1.76 -1.2 -1.65 -0.11 0.11 6.82 3.2 15.732 8.14 20.462s14.734 7.302 21.462 6.27Z" fill="#191919" stroke-width="2"></path>
  <path d="M205.262 226.24c3.566 1.894 8.03 0.77 9.24 -2.64 0.22 -0.77 -0.66 -1.43 -1.21 -0.77 -3.2 3.74 -5.94 2.2 -7.6 2.31 -0.87 -0.11 -1.082 0.754 -0.43 1.1Z" fill="#191919" stroke-width="2"></path>
  <path d="M219.452 207.648c-0.832 -2.4 -5.5 -5.06 -7.7 -4.29 -0.88 0.33 -1.21 2.09 0 2.31a12.512 12.512 0 0 1 6.6 2.97c0.55 0.44 1.408 -0.102 1.1 -0.99Z" fill="#191919" stroke-width="2"></path>
  <path d="M212.412 213.148c2.094 -0.416 1.98 -4.29 0.33 -3.85 -1.542 0.33 -2.088 4.2 -0.33 3.85Z" fill="#191919" stroke-width="2"></path>
  <path d="M273.136 143.624c1.102 -0.324 2.2 -0.66 3.3 -1 -0.66 2.75 -1.43 5.5 -2.09 8.25 -1.1 3.96 0.44 4.29 1.32 2.86 2.75 -4.29 5.61 -8.69 8.58 -12.87 4.072 -5.83 5.06 -5.28 -2.42 -5.06 1.32 -2.532 2.64 -5.062 3.85 -7.6s-6.93 0.33 -7.7 0.99a0.742 0.742 0 0 0 0.66 1.32c0.88 -0.22 2.75 -1.1 4.84 -1.54l-3.63 7.262c-0.22 0.55 0 1.21 0.66 1.21 1.43 0 2.97 -0.11 4.4 -0.11 -2.75 3.96 -5.5 8.03 -8.25 11.99l2.31 -7.92a0.922 0.922 0 0 0 -1.1 -1.21c-1.1 0.33 -2.31 0.77 -3.4 1.1 0.66 -3.19 1.54 -6.38 2.31 -9.682 0.22 -0.88 -1.1 -1.1 -1.43 -0.33a82.326 82.326 0 0 0 -3.08 11c-0.34 0.68 0.102 1.564 0.87 1.34Z" fill="#191919" stroke-width="2"></path>
  <path d="M140.246 226.8c0.552 0.44 1.432 0 1.102 -0.66 -0.772 -2.2 -1.432 -4.4 0.22 -6.71a6.212 6.212 0 0 1 5.94 -2.422 0.834 0.834 0 0 0 0.44 -1.54c-3.08 -1.43 -9.132 1.21 -9.132 7.042a5.4 5.4 0 0 0 1.43 4.29Z" fill="#191919" stroke-width="2"></path>
  <path d="M136.066 239.77a0.936 0.936 0 0 0 1.87 0 16.114 16.114 0 0 0 -0.44 -6.05c-1.1 -3.85 -4.73 -5.28 -4.62 -9.13 0.11 -2.31 0.55 -4.62 0.66 -6.82a0.72 0.72 0 0 0 -1.43 -0.11c-0.44 2.2 -0.88 4.4 -1.1 6.6 -0.44 4.84 2.86 6.16 4.18 9.24a11.238 11.238 0 0 1 0.88 6.27Z" fill="#191919" stroke-width="2"></path>
  <path d="m137.276 198.738 1.65 16.17c0.11 0.66 1.32 0.66 1.43 -0.11 0.55 -4.07 -0.88 -12.1 -1.76 -16.4 -0.11 -0.65 -1.43 -0.43 -1.32 0.34Z" fill="#191919" stroke-width="2"></path>
  <path d="M148.388 228.44c0.428 0.886 1.54 0.22 1.32 -0.55 -0.33 -1.87 -1.1 -4.07 2.53 -4.07 2.97 0 3.4 2.64 3.3 5.06 -0.22 4.51 -4.07 8.36 -4.07 12.43a0.95 0.95 0 0 0 1.87 0.22c1.1 -4.51 1.54 -4.07 3.08 -7.81a11.92 11.92 0 0 0 0.55 -8.91c-2.2 -4.95 -12.08 -3.588 -8.58 3.63Z" fill="#191919" stroke-width="2"></path>
  <path d="M143.438 222.72a7.8 7.8 0 0 0 0.88 4.73 0.67 0.67 0 0 0 1.2 -0.55c-0.44 -2.31 -0.88 -5.06 1.32 -6.27a6.8 6.8 0 0 1 6.49 -0.33c0.77 0.44 1.43 -0.77 0.88 -1.32 -1.86 -2.31 -10.11 -1.43 -10.77 3.74Z" fill="#191919" stroke-width="2"></path>
  <path d="M93.714 204.238c-0.66 0.11 -1.32 0.22 -1.87 0.33 -0.99 -3.08 -3.96 -6.27 -7.59 -4.95 -3.85 1.43 -3.962 5.61 -3.74 7.48 -3.2 0.33 -6.492 0.77 -9.682 1.1a0.782 0.782 0 0 0 0.11 1.54c3.3 -0.22 6.6 -0.44 9.902 -0.55 1.936 9.898 13.118 7.212 11.55 -2.64 0.55 -0.11 1.1 -0.11 1.54 -0.22 1.222 8.56 11.174 8.824 10.23 -1.32 0.88 0 2.75 -0.44 1.87 -1.76 -0.44 -0.66 -1.43 -0.22 -2.09 -0.11 -1.76 -7.26 -9.9 -6.38 -10.23 1.1Zm-11.44 3.74c-0.33 -2.53 0.22 -5.17 1.87 -6.16 2.75 -1.76 5.5 0.99 6.38 4.51 1.82 8.422 -7.182 10.206 -8.25 1.65Zm17.93 2.86c-4.04 1.4 -6.754 -7.778 -3.19 -10.45 4.734 -3.706 7.834 8.832 3.186 10.45Z" fill="#191919" stroke-width="2"></path>
  <path d="M93.934 216.67c-2.53 0.22 -2.31 1.32 -0.66 1.54 1.1 0.11 2.86 -0.11 3.4 -1.1 0.88 -1.54 -0.33 -4.072 -1.87 -5.502 -1.1 -1.1 -1.65 -0.11 -1.2 0.44 0.996 1.54 3.41 4.072 0.33 4.622Z" fill="#191919" stroke-width="2"></path>
  <path d="M101.964 213.698c-0.104 -1.1 -1.2 -1.1 -1.2 0 0.22 7.482 -0.55 19.472 -11.22 20.352 -4.182 0.33 -8.692 -1.65 -12.322 -3.74 -0.66 -0.44 -1.54 0.66 -0.77 1.21a22.87 22.87 0 0 0 12.432 4.29c0.22 1.76 0.66 3.63 0.88 5.39 0.55 3.41 1.87 1.76 1.65 0.66 -0.22 -2.09 -0.55 -4.18 -0.88 -6.16 10.33 -1.65 12.244 -13.424 11.43 -22.002Z" fill="#191919" stroke-width="2"></path>
  <path d="M86.894 226.57a4.8 4.8 0 0 0 6.6 -2.75c0.77 -1.65 0.33 -1.98 -1.1 -1.98a9.2 9.2 0 0 1 -7.482 -2.97c-1.812 -1.512 -2.256 6.086 1.982 7.7Zm5.28 -3.08c-1.76 3.4 -7.042 1.76 -7.15 -2.2a11.95 11.95 0 0 0 7.15 2.2Z" fill="#191919" stroke-width="2"></path>
  <path d="M86.564 207.648c-0.23 0.658 0.108 2.42 1.21 2.2 0.88 -0.11 0.88 -1.32 0.55 -2.09 -0.44 -1.1 -1.338 -1.326 -1.76 -0.11Z" fill="#191919" stroke-width="2"></path>
  <path d="M98.774 205.668c-0.236 0.766 0.11 2.75 1.2 2.31 0.55 -0.22 0.77 -0.77 0.66 -1.76 -0.21 -1.218 -1.448 -1.878 -1.86 -0.55Z" fill="#191919" stroke-width="2"></path>
  <path d="M79.632 201.158a10.51 10.51 0 0 1 6.492 -3.52 1.114 1.114 0 0 0 -0.11 -2.2 9.02 9.02 0 0 0 -6.712 3.08c-2.42 2.64 -0.348 3.392 0.33 2.64Z" fill="#191919" stroke-width="2"></path>
  <path d="M50.37 199.728a18.03 18.03 0 0 0 9.462 16.83c0.55 3.19 2.64 6.932 6.6 6.932a129.116 129.116 0 0 1 2.31 17.82 0.772 0.772 0 1 0 1.54 0 96.086 96.086 0 0 0 -1.87 -17.05c-0.22 -0.99 -0.22 -2.972 -1.32 -2.862 -2.2 0.22 -4.4 -1.65 -5.06 -5.17 -0.77 -3.74 1.32 -6.82 4.29 -5.4 0.44 0.22 0.77 -0.11 0.99 -0.33 4.29 -4.18 9.68 -11.88 9.68 -20.352 5.72 2.532 19.472 3.522 25.742 1.43 -0.44 -8.36 -8.47 -21.23 -26.292 -19.47 -19.91 1.99 -25.876 17.17 -26.072 27.622Z" fill="#191919" stroke-width="2"></path>
  <path d="M96.134 196.318a7.36 7.36 0 0 1 4.29 0c1.1 0.33 0.99 -0.77 0.11 -1.54a6.418 6.418 0 0 0 -4.95 -0.44c-1.65 0.77 -1.084 2.678 0.55 1.98Z" fill="#191919" stroke-width="2"></path>
  <path d="M54.11 181.246a12.4 12.4 0 0 1 6.162 -6.16C57.962 157.924 33.98 155.944 26.6 173s7.482 25.2 10.562 31.462c2.97 6.27 4.73 15.952 2.75 19.8 -1.98 3.74 0.44 3.96 3.19 -1.2 2.2 -4.18 6.16 -16.4 2.97 -26.512 -3.402 -10.464 5.068 -16.074 8.038 -15.304Z" fill="#191919" stroke-width="2"></path>
  <path d="M167.528 268.702c-13.97 -0.212 -37.072 -0.77 -49.722 0.33 -9.902 0.88 -12.322 3.96 -14.632 12.542 -3.3 12.54 -8.58 33.552 -10.34 45.542a372.988 372.988 0 0 0 -39.824 1.54c-4.95 0.66 -5.28 4.29 -3.74 5.83 0.77 0.77 1.76 -0.33 1.2 -1.1a1.694 1.694 0 0 1 0.66 -2.31c2.75 -1.87 36.084 -2.2 40.814 -2.2 1.76 0 2.31 -0.22 2.75 -2.09 3.3 -15.51 7.6 -33.332 11.55 -47.962 1.2 -4.732 4.84 -7.262 10.672 -7.702 14.74 -1.21 35.532 -0.55 51.152 -0.33 5.502 0.11 8.8 2.31 8.362 8.472 -0.55 8.25 -7.812 33.552 -10.452 42.902a44.986 44.986 0 0 1 -3.85 10.56c-0.66 1.1 0.99 2.312 1.65 1.2a73.134 73.134 0 0 0 4.73 -12.87c3.52 -12.32 8.472 -30.142 10.012 -41.032 0.68 -7.472 -3.51 -11.208 -10.992 -11.322Z" fill="#191919" stroke-width="2"></path>
  <path d="M137.496 295.104c-0.446 0.656 0.33 1.65 1.1 1.1a4.466 4.466 0 0 1 5.502 -0.11c1.43 1.32 1.76 4.07 -0.88 8.8 -3.302 6.052 -7.812 6.932 -9.8 4.512 -2.42 -2.97 -0.11 -9.022 2.2 -11.442 0.55 -0.66 -0.44 -1.65 -1 -1.1 -4.84 4.4 -5.72 10.892 -2.97 13.862 4.4 4.84 10.782 0.88 13.2 -4.29 1.43 -3.082 3.63 -7.262 1.65 -10.452a5.368 5.368 0 0 0 -9.002 -0.88Z" fill="#191919" stroke-width="2"></path>
  <path d="M150.698 159.906c2.542 -1.632 -0.77 -5.942 -3.4 -3.302 -2.21 2.092 1.32 4.636 3.4 3.302Z" fill="#191919" stroke-width="2"></path>
  <path d="M123.856 161.774c2.868 1.078 5.06 -2.09 3.3 -3.74 -2.42 -2.31 -6.59 2.504 -3.3 3.74Z" fill="#191919" stroke-width="2"></path>
  <path d="M136.066 161.116c3.852 1.2 5.28 -3.74 1.54 -4.62 -2.42 -0.55 -4.728 3.624 -1.54 4.62Z" fill="#191919" stroke-width="2"></path>
  <path d="M282.156 180.696c-0.538 -1.106 -1.868 -0.77 -1.76 0.22 0.442 3.4 7.26 3.96 9.242 0.22 3.518 -6.82 -7.6 -8.8 -9.02 -4.4 -0.55 1.65 0.878 1.54 1.65 0.33 0.988 -1.65 7.478 -1 5.72 2.97 -0.77 1.98 -4.93 2.52 -5.832 0.66Z" fill="#0a1628" stroke-width="2"></path>
  <path d="M263.346 157.706c-0.11 6.05 6.27 8.25 11.11 9.24 17.712 3.63 25.742 -5.83 23.542 -12.432a0.628 0.628 0 1 0 -1.2 0.33c0.66 8.032 -8.692 11 -15.182 11.112 -5.06 0.11 -19.03 -2.53 -16.06 -10.232 0.55 -1.32 -0.44 -2.09 -1.2 -1.32 -4.51 4.732 -11.332 3.412 -14.632 -2.31 -3.52 -6.16 -1.65 -14.85 6.05 -13.86a0.956 0.956 0 0 0 0.33 -1.87c-6.49 -2.64 -7.6 -12.762 0.22 -17.492 7.482 -4.51 13.752 -1.98 18.812 3.96 0.88 1.1 1.98 0.88 2.09 -1.32 0.55 -5.72 7.81 -9.02 12.982 -7.7a10.868 10.868 0 0 1 6.93 13.86c-0.33 1 0.66 1.322 1.43 1.102 6.82 -1.762 14.08 5.72 14.74 12.21 1.1 10.56 -8.36 10.89 -14.08 9.68 -1.1 -0.22 -0.88 1 0 1.32 8.25 2.75 16.83 -1.1 15.84 -11 -0.66 -7.26 -8.25 -15.182 -15.95 -13.972a12.982 12.982 0 0 0 -4.73 -13.09c-7.042 -5.17 -17.492 -0.66 -18.922 6.49a15.2 15.2 0 0 0 -19.032 -3.85c-7.48 3.85 -11 13.862 -3.958 19.582 -5.172 1.21 -7.482 6.38 -6.822 11.66 1.63 9.462 11.2 14.412 17.692 9.902Z" fill="#0a1628" stroke-width="2"></path>
  <path d="M382.6 337.348c-93.988 -0.966 -249.034 -2.8 -367.2 2.53 -0.77 0 -0.66 2.42 0.11 2.42 113.626 -2.874 217.486 -5.082 367.2 -1.76 0.984 0 0.872 -3.18 -0.11 -3.19Z" fill="#0a1628" stroke-width="2"></path>
  <path d="M127.706 266.4c5.5 0 16.282 0 23.652 -0.11a182.638 182.638 0 0 0 3.4 -22.772c-5.83 0.77 -16.832 0.22 -21.672 -1.65a158.076 158.076 0 0 1 -5.38 24.532Z" fill="#0a1628" stroke-width="2"></path>
  <path d="M46.2 333.6a6.168 6.168 0 0 1 3.3 -6.93c2.97 -1.43 33.444 -1.65 40.6 -1.98 0.33 -1.76 1.32 -6.49 2.75 -12.65a299.746 299.746 0 0 0 -54.674 -5.83c-1.65 0 -0.99 -1.542 0 -1.542 2.64 -0.11 5.28 -0.11 7.92 -0.11a99.714 99.714 0 0 1 9.022 -23.1c0.44 -0.77 1.43 -0.33 1.1 0.44a131.33 131.33 0 0 0 -8.142 22.77A302.664 302.664 0 0 1 93.4 309.84c2.42 -10.452 5.72 -23.872 8.8 -32.892 2.64 -8.032 6.82 -10.012 12.432 -10.342 2.75 -0.11 6.27 -0.22 11 -0.11 0.44 -1.32 0.88 -2.64 1.32 -4.29 -5.39 -8.8 -16.942 -16.612 -32.672 -17.822 -5.39 6.382 -20.462 5.722 -28.712 -2.09 -4.84 0.55 -20.8 4.07 -30.362 14.852 -13.422 15.4 -31.682 50.714 -22.882 69.304 4.384 9.468 28.916 7.706 33.876 7.15Z" fill="#0a1628" stroke-width="2"></path>
  <path d="M197.78 75.97c0.338 -2.75 -1.54 -16.722 -2.97 -18.042a0.736 0.736 0 0 0 -1.21 0.22c-0.44 0.99 2.2 16.06 2.53 17.822a0.846 0.846 0 0 0 1.65 0Z" fill="#0a1628" stroke-width="2"></path>
  <path d="M213.292 132.072a1.07 1.07 0 0 0 -1 -1.54c-1.87 0 -4.4 3.632 -13.642 2.31 -1 -0.11 -1.65 1.322 -0.66 1.762 5.842 2.196 14.41 -0.444 15.302 -2.532Z" fill="#0a1628" stroke-width="2"></path>
  <path d="M224.512 112.712a78.4 78.4 0 0 0 12.432 5.83 0.904 0.904 0 0 0 0.77 -1.54 70.76 70.76 0 0 0 -12.432 -5.72 0.812 0.812 0 0 0 -0.77 1.43Z" fill="#0a1628" stroke-width="2"></path>
  <path d="M203.502 137.024a0.926 0.926 0 0 0 -0.55 1.76c2.75 1.54 7.6 -0.22 5.72 -1.87 -0.872 -0.77 -2.204 0.686 -5.17 0.11Z" fill="#0a1628" stroke-width="2"></path>
  <path d="M222.092 86.86c1.642 -0.68 10.452 -11 11.882 -12.98 0.55 -0.77 -0.66 -1.54 -1.32 -0.99A141.58 141.58 0 0 0 222.312 84c-2.09 2.31 -0.994 3.18 -0.22 2.86Z" fill="#0a1628" stroke-width="2"></path>
  <path d="M194.37 121.622a0.922 0.922 0 0 0 1.76 -0.44c-0.77 -4.84 -5.17 -7.6 -7.6 -11.55 -5.06 -8.252 1.65 -17.712 10.23 -19.912 7.042 -1.87 14.962 0.66 16.832 9.13 1.65 7.262 -1.65 12.542 -3.96 19.142 -0.44 1.43 1 1.87 1.65 0.55 2.97 -5.6 5.83 -12.32 4.95 -18.702 -1.54 -10.23 -10.12 -14.74 -19.692 -12.43 -8.36 2.09 -15.51 9.35 -14.08 18.482 1.22 7.48 7.776 9.546 9.91 15.73Z" fill="#0a1628" stroke-width="2"></path>
  <path d="M196.8 129.982a17.618 17.618 0 0 0 15.4 -1.76c0.99 -0.77 0.55 -2.42 -0.88 -1.87 -5.83 2.09 -8.14 2.64 -13.862 1.87 -0.998 -0.11 -1.658 1.33 -0.658 1.76Z" fill="#0a1628" stroke-width="2"></path>
  <path d="M166.538 121.952c-0.766 1 0 2.31 2.2 0.77a70.564 70.564 0 0 0 8.692 -6.38 0.8 0.8 0 0 0 -0.88 -1.32 68.9 68.9 0 0 0 -10.012 6.93Z" fill="#0a1628" stroke-width="2"></path>
  <path d="M174.8 92.58a0.8 0.8 0 0 0 0.66 -1.43 111.684 111.684 0 0 0 -13.752 -7.6 0.872 0.872 0 0 0 -0.77 1.54A111.2 111.2 0 0 0 174.8 92.58Z" fill="#0a1628" stroke-width="2"></path>
  <path d="M196.8 125.8c3.652 1.146 12.872 -0.66 14.852 -2.2 1.32 -1.1 0.11 -2.64 -1.54 -1.98a32.516 32.516 0 0 1 -12.872 2.09c-1.99 -0.11 -2.31 1.51 -0.44 2.09Z" fill="#0a1628" stroke-width="2"></path>
  <path d="M205.702 119.422a76.73 76.73 0 0 1 1.54 -17.272 0.736 0.736 0 0 0 -1.43 -0.33 55.652 55.652 0 0 0 -1.54 17.6 0.716 0.716 0 1 0 1.43 0.002Z" fill="#0a1628" stroke-width="2"></path>
  <path d="M203.062 101.162a35.478 35.478 0 0 1 -8.912 1.2 0.926 0.926 0 0 0 -0.77 1.43 157.8 157.8 0 0 1 5.942 15.62c0.33 1 1.32 0.77 1.1 -0.22a68.72 68.72 0 0 0 -4.842 -15.07 28.842 28.842 0 0 0 8.032 -1.54 0.766 0.766 0 0 0 -0.55 -1.42Z" fill="#0a1628" stroke-width="2"></path>
  <path d="M123.306 177.836a37.916 37.916 0 0 1 -10.89 28.6c-2.09 2.09 -0.33 2.53 1.76 1.76 9.9 -3.85 18.8 -15.18 21.34 -25.302 0.44 -1.76 -1.1 -1.65 -1.32 -0.55a37.728 37.728 0 0 1 -18.7 23.432 38.968 38.968 0 0 0 9.8 -27.612c-0.11 -1.65 -0.33 -1.76 -2.31 -2.09 -16.942 -2.64 -23.212 -26.952 3.52 -36.742 23.872 -8.692 42.244 7.48 38.062 23.762 -3.08 12.21 -16.06 14.08 -26.732 14.08 -1.43 0 -1.32 1.76 0.11 1.76 11 0.22 23.542 -1.32 27.612 -12.32 8.8 -23.432 -15.84 -36.2 -36.632 -30.362 -33.672 9.682 -25.202 40.814 -5.62 41.584Z" fill="#0a1628" stroke-width="2"></path>
</svg>