<svg viewBox="0 0 400 400" xmlns="http://www.w3.org/2000/svg" id="Team-Coding-3--Streamline-Brooklyn" height="400" width="400">
  <desc>
    Team Coding 3 Streamline Illustration: https://streamlinehq.com
  </desc>
  <path d="M315.428 307c-17.132 3.968 -43.88 -6.5 -50.8 -18.904 -10.46 -18.738 4.726 -35.19 6 -36.626q1.774 5.698 3.8 11.4a0.844 0.844 0 0 0 0.336 0.422 11.886 11.886 0 0 0 -1.686 8.354c0.916 6.332 5.822 10.8 10.548 14.6 0.084 0.084 0.254 0.17 0.338 0.254a201.588 201.588 0 0 0 18.988 13.586 131.478 131.478 0 0 0 12.476 6.914Z" fill="#0a1628" stroke-width="2"></path>
  <path d="M385.642 280.242c-2.254 6.254 -11.814 13.588 -17.3 13.082 -2.87 -3.376 -5.738 -6.752 -8.692 -10.044 6.076 -2.11 9.822 -9.11 9.368 -15.444 -0.478 -6.662 -6.836 -11.476 -11.984 -15.106 10.042 -6.666 15.4 -20.858 11.054 -32.322 -4.768 -12.59 -17.3 -23.038 -30.634 -27.6 0.844 -1.772 0.36 -3.378 0.084 -6a8 8 0 0 0 -5.148 -6.752 0.676 0.676 0 0 1 -0.336 -1.012 40.014 40.014 0 0 0 4.388 -8.946c40.716 0.608 63.706 69.916 49.2 110.144Z" fill="#0a1628" stroke-width="2"></path>
  <path d="M158.712 369.108a9.106 9.106 0 0 1 5.57 4.556c0.252 0.508 1.096 2.11 0.758 2.786 0.774 -0.516 0.922 -0.422 0.6 -0.422a0.864 0.864 0 0 0 -0.422 1.6c0.084 0 0.084 0.084 0.168 0.084a0.898 0.898 0 0 0 1.098 -0.17c1.434 -1.35 -0.52 -4.714 -1.436 -5.906a9.854 9.854 0 0 0 -6 -3.8 0.654 0.654 0 0 0 -0.336 1.272Z" fill="#191919" stroke-width="2"></path>
  <path d="M58.116 311.974a3 3 0 0 1 -2.954 -2.954l-1.688 -69.37c0 -1.6 3.038 -2.532 4.642 -2.532s4.556 1.518 4.556 3.122l-1.6 68.78a3 3 0 0 1 -2.956 2.954Z" fill="#0a1628" stroke-width="2"></path>
  <path d="M187.912 280.748a3.26 3.26 0 0 0 -0.422 5.908c2.764 1.958 6.816 -1.02 5.906 -3.628a3.942 3.942 0 0 0 -5.484 -2.28Z" fill="#191919" stroke-width="2"></path>
  <path d="M223.44 275.094c-0.156 0.762 0.922 1.096 1.098 0.338a86.562 86.562 0 0 1 3.882 -11.308c0.226 -0.6 -0.55 -1.436 -1.098 -1.436 -19.748 1.352 -39.6 2.45 -59.328 4.474a0.6 0.6 0 0 0 0 1.182c19.4 -1.6 38.906 -3.124 58.4 -3.968 -0.928 3.546 -2.216 7.102 -2.954 10.718Z" fill="#191919" stroke-width="2"></path>
  <path d="M153.9 127.238a0.904 0.904 0 0 0 0.844 0.844c27.23 -0.456 159.108 -3.368 171.064 -5.232a0.92 0.92 0 0 0 0.6 -0.844c0.042 -14.43 -0.676 -28.778 -1.688 -43.2 12.32 -0.17 24.642 -0.38 36.878 -0.422a0.844 0.844 0 0 0 0.844 -0.844c-0.372 -58.554 2.76 -60.51 0.508 -60.51 -29.8 0 -59.582 0.634 -89.288 0.6a0.862 0.862 0 0 0 -0.506 1.518c0.084 2.11 0.168 4.304 0.252 6.414 -40.086 -1.012 -80.496 1.94 -120.6 2.532a0.85 0.85 0 0 0 -0.844 0.844c0.6 10.548 0.38 21.182 0.6 31.646 0.194 10.242 1.262 58.098 1.336 66.654ZM274.244 19.3c29.284 0.086 58.568 -0.59 87.854 -0.59 -1.182 19.326 -1.52 38.652 -1.266 58.062 -12.068 0.084 -74.52 1.246 -77.136 1.35 -1.772 0.072 -6.896 1 -7.932 -0.506a17.458 17.458 0 0 1 -0.084 -4.642c0 -2.4 -0.17 -4.882 -0.17 -15.274 0 -10.128 -1.012 -36.29 -1.266 -38.4Zm-0.758 7.934c0.6 17.3 0.506 34.68 0.758 51.986 0 0.422 0.338 0.844 0.76 0.76 16.034 -0.6 31.984 -0.93 48.02 -1.182 1.112 16.122 1.518 26.906 1.688 37.048a27.2 27.2 0 0 1 0.084 5.316c-1.924 1.2 -144.53 4.238 -169.292 5.064 -0.422 -28.6 -1.688 -93.084 -1.856 -96.63 21.52 -0.674 101.44 -2.196 119.838 -2.362Z" fill="#191919" stroke-width="2"></path>
  <path d="M274.244 19.3c0.17 2.11 1.224 28.272 1.266 38.4 0 1.9 0.074 13.568 0.17 15.274a20.75 20.75 0 0 0 0.084 4.642c1 1.448 6.16 0.536 7.932 0.506 2.618 -0.042 65.068 -1.266 77.136 -1.35 -0.254 -19.41 0.084 -38.736 1.266 -58.062 -29.286 0.09 -58.57 0.676 -87.854 0.59Z" fill="#0a1628" stroke-width="2"></path>
  <path d="M100.228 97.448a3.026 3.026 0 0 1 3.712 -0.168c0.682 0.498 1.436 -0.6 0.844 -1.098a3.576 3.576 0 0 0 -5.4 0.338c-0.338 0.59 0.416 1.266 0.844 0.928Z" fill="#191919" stroke-width="2"></path>
  <path d="M109.848 98.292a3.446 3.446 0 0 1 2.448 0.254 0.682 0.682 0 0 0 0.674 -1.182 3.51 3.51 0 0 0 -3.628 -0.338c-0.762 0.418 -0.254 1.35 0.506 1.266Z" fill="#191919" stroke-width="2"></path>
  <path d="M97.864 112.892a0.71 0.71 0 0 0 -1.182 0.676c0.312 2.282 3.464 3.138 5.318 2.784 0.844 -0.162 0.674 -1.6 -0.17 -1.518a4.256 4.256 0 0 1 -2.278 -0.422c-0.682 -0.322 -1.096 -1.012 -1.688 -1.52Z" fill="#191919" stroke-width="2"></path>
  <path d="M307.242 167.326a0.92 0.92 0 0 0 -1.098 1.096c0 0.084 0.086 0.17 0.086 0.254a0.952 0.952 0 0 0 1.6 0.422 0.976 0.976 0 0 0 -0.422 -1.6c-0.082 -0.172 -0.082 -0.172 -0.166 -0.172Z" fill="#191919" stroke-width="2"></path>
  <path d="M296.524 166.228a0.972 0.972 0 0 0 0 1.942 0.972 0.972 0 0 0 0 -1.942Z" fill="#191919" stroke-width="2"></path>
  <path d="M298.634 173.232a1.912 1.912 0 0 0 2.616 1.52c0.59 -0.254 0.254 -1.182 -0.338 -1.182 -0.758 0.084 -1.08 -0.924 -0.928 -1.6 0.128 -0.566 1.358 -3.6 1.434 -3.8 0.262 -0.674 -0.832 -1.092 -1.096 -0.508 -0.722 1.618 -2.07 3.874 -1.688 5.57Z" fill="#191919" stroke-width="2"></path>
  <path d="M305.386 162.178a2.4 2.4 0 0 1 2.784 1.012 0.65 0.65 0 0 0 1.098 -0.6 3.272 3.272 0 0 0 -4.39 -1.6 0.65 0.65 0 0 0 0.508 1.188Z" fill="#191919" stroke-width="2"></path>
  <path d="M294.92 162.852a7.714 7.714 0 0 1 3.546 -1.434c0.674 0 0.928 -1.098 0.168 -1.266a4.534 4.534 0 0 0 -4.642 1.772c-0.252 0.676 0.338 1.276 0.928 0.928Z" fill="#191919" stroke-width="2"></path>
  <path d="M302.684 159.4a0.97 0.97 0 0 0 0 -1.94 0.97 0.97 0 0 0 0 1.94Z" fill="#191919" stroke-width="2"></path>
  <path d="M304.12 179.646a4.256 4.256 0 0 0 5.316 -3.376c0.076 -0.676 -1 -0.922 -1.266 -0.336a3.444 3.444 0 0 1 -3.628 2.278c-0.928 -0.084 -1.342 1.188 -0.422 1.434Z" fill="#191919" stroke-width="2"></path>
  <path d="M377.626 304.2c-6 -7 -11.9 -14.094 -18.06 -21.014 6.076 -2.11 9.82 -9.11 9.366 -15.444 -0.476 -6.662 -6.834 -11.308 -11.982 -15.022 10.042 -6.666 15.4 -21.028 11.054 -32.4 -4.77 -12.506 -17.384 -23.04 -30.634 -27.6 0.844 -1.772 0.36 -3.378 0.084 -6a8 8 0 0 0 -5.148 -6.752 0.676 0.676 0 0 1 -0.336 -1.012c3.544 -5.74 6.78 -12.414 5.146 -18.904 -1.656 -6.6 -7.34 -11.31 -13.418 -13.672 -7.172 -2.786 -12.548 -1.8 -19.494 0.928 -1.766 0.692 -3.708 0.776 -5.57 1.35 -8.106 2.506 -8.636 13.55 -8.862 21.52a93.322 93.322 0 0 1 -2.024 21.022 0.818 0.818 0 0 1 -0.844 0.6 6.574 6.574 0 0 0 -7 4.388 16.042 16.042 0 0 0 -0.336 8.27 37.072 37.072 0 0 0 -6.668 7.342c-2.438 3.636 -3.038 7.258 -4.304 11.224 -1.35 0.084 -2.704 0.142 -4.05 0.338a1.074 1.074 0 0 0 -1.014 1.012c0.086 5.15 2.252 10.642 3.63 15.614 2.152 7.774 4.472 15.528 7.088 23.122a0.838 0.838 0 0 0 0.338 0.422 11.658 11.658 0 0 0 -1.688 8.272c0.916 6.33 5.828 10.8 10.55 14.6a162.062 162.062 0 0 0 37.048 23.2 75 75 0 0 0 16.118 5.99 21.8 21.8 0 0 0 -1.94 3.714c-1.6 4 -3.884 13.924 3.29 13.84 5.614 -0.066 12.044 -6.61 14.77 -10.548 5.038 -7.282 3.464 -10.942 -2.87 -16.372q5.064 3.544 10.128 6.836c-5.656 6.06 -3.576 16.816 5.906 15.528 6.754 -0.918 14.952 -5.312 17.976 -11.732a9.07 9.07 0 0 0 -6.25 -12.66Zm5.232 7.848 -21.6 -0.338c-11.732 -8.186 -23.736 -16.266 -33.926 -26.414a113.268 113.268 0 0 1 -12.576 -13.756c-3.878 -5.4 -8.774 -14.768 -3.29 -20.76 6.33 -6.92 15.718 2.844 20.508 7 16.508 14.336 28.466 29.462 43.884 47.514 -2.51 1.766 -9.39 2.516 -14.604 6.426Zm5.148 -47c2.638 6.152 -1.436 15.19 -7.85 17.216 -7.444 -8.486 -11.728 -12.74 -16.54 -17.554 0.59 -2.616 1.096 -5.316 1.688 -7.932a21.82 21.82 0 0 0 11.646 -2.7c-18.228 3.632 -12.724 5.564 -10.55 10.636ZM345.64 210.7c-4.036 4.234 -11.732 4.588 -17.216 4.22 -4.644 -0.312 -9.304 -1.934 -10.97 -6.752a22.8 22.8 0 0 1 -0.086 -10.972c1.182 -0.422 2.364 -0.758 3.546 -1.096 2.622 5.508 18.2 4.476 22.786 -3.63a47.368 47.368 0 0 1 6 0.086c-21.276 5.826 -21.174 13.1 -25.664 17.81Zm-29.2 -51.226a17.474 17.474 0 0 0 8.018 -7.428 0.71 0.71 0 0 1 1.182 0 12.762 12.762 0 0 0 11.4 6.33c1.736 0 0.086 3.532 -0.084 6.246 -0.132 2.112 1.014 4.74 3.2 4.64 1.6 -0.072 2.866 -1.746 4.474 -1.518a2.524 2.524 0 0 1 1.6 1.096 3.96 3.96 0 0 1 -3.038 6.33 0.642 0.642 0 0 0 -0.674 0.506l-3.376 13.504a2.738 2.738 0 0 0 2.7 3.376 15.344 15.344 0 0 1 -7.932 4.894c-2.614 0.684 -9.114 1.096 -11.224 -1.688a0.918 0.918 0 0 0 0.6 -0.844 45.586 45.586 0 0 0 -0.254 -4.81l0.17 -2.616c5.232 0.422 10.618 -3.8 13.334 -8.186 0.42 -0.678 -0.586 -1.178 -1.012 -0.6 -4.832 6.63 -13.972 10.578 -19.074 1.858a21.816 21.816 0 0 1 -2.2 -13.25 60.6 60.6 0 0 1 2.026 -7.258c-21.692 -0.656 -21.608 -0.832 -21.44 -0.916Zm-21.182 54.686a44.578 44.578 0 0 1 20.508 -16.456c-2.25 10.348 0.988 17.718 11.73 18.734 5.91 0.56 14.288 0.2 18.904 -4.136 5.092 -4.778 5.738 -13 5.064 -19.662a29.952 29.952 0 0 1 5.232 1.266c11.614 3.722 23.856 12.68 29.8 24.136a24.572 24.572 0 0 1 -0.254 23.8c-4.218 7.6 -11.73 13.418 -20.59 13.25 2.024 -9.452 3.864 -19.036 6.328 -28.356a0.848 0.848 0 0 0 -0.844 -1.098c-2.7 -0.252 -5.316 -0.42 -8.016 -0.6a9.112 9.112 0 0 0 -2.448 -8.018c-0.59 -0.59 -1.35 0.254 -0.844 0.844a8.684 8.684 0 0 1 1.772 7.09c-8.6 -0.59 -17.216 -1.026 -25.74 -1.434a397 397 0 0 0 -44.052 -0.422 40.878 40.878 0 0 1 -18.154 -9.272ZM269.6 240.24c-1.326 -4.816 -3.46 -10.126 -3.882 -15.106 26.27 -2.346 53.878 0.11 82.622 2.026 -2.618 12.068 -5.318 24.136 -7.6 36.288 -3.966 -3.8 -8.2 -7.498 -12.4 -10.97 -3.976 -3.28 -8.944 -6.832 -14.346 -5.148 -12.488 3.892 -4.524 20.65 0.422 27.174 1.274 1.682 2.616 3.292 4.05 4.894 -11.662 -9.718 -30.508 -27.928 -42.364 -17.554 -2.364 -7.256 -4.524 -14.444 -6.502 -21.604ZM337.2 314c-8.524 -1.942 -16.8 -6.486 -24.558 -10.466a147.8 147.8 0 0 1 -16.372 -10.126 105.104 105.104 0 0 1 -16.458 -13c-4.748 -4.958 -8.444 -14.864 -0.506 -18.99 11.114 -5.774 27.4 10.15 36.88 18.314 5.214 4.494 10.626 8.784 15.782 13.418 4.888 4.4 10.294 8.356 15.19 12.744a24.854 24.854 0 0 0 -9.622 8.354 1.16 1.16 0 0 0 -0.336 -0.248Zm-1.858 9.282a25.306 25.306 0 0 1 13 -16.118v0.084c0.758 0.676 1.6 1.35 2.278 2.026 -6.498 3.46 -13.672 9.114 -14.768 16.8a7.502 7.502 0 0 0 0.252 3.628c-1.322 -1.856 -1.688 -2.59 -0.76 -6.42Zm24.052 0.254c-2.832 -5.926 3.11 -11 7.68 -13 7.69 -3.358 8.706 -3.228 9.622 -4.052a1.52 1.52 0 0 1 0.42 -0.338h0.086a7.448 7.448 0 0 1 5.148 4.22c-2.448 -1.18 -4.984 0.078 -7.258 1.35a37.274 37.274 0 0 0 -9.2 6.668c-1.266 1.35 -3.8 5.486 -3.374 8.018a5.514 5.514 0 0 1 -3.118 -2.866Z" fill="#191919" stroke-width="2"></path>
  <path d="M191.118 208.172a14.026 14.026 0 0 1 -5.148 -1.688c-0.762 -0.502 -1.434 0.674 -0.76 1.266a7.332 7.332 0 0 0 5.908 1.688 0.674 0.674 0 0 0 0 -1.266Z" fill="#191919" stroke-width="2"></path>
  <path d="M284.372 53.4c5.57 1.6 11.252 3.166 16.962 4.556a1 1 0 0 0 0.506 -1.94 129.056 129.056 0 0 0 -15.696 -4.304c2.436 -4.36 5.054 -5.646 15.528 -16.12 0.59 -0.6 -0.338 -1.518 -0.928 -0.928 -5.738 4.896 -13.828 10.138 -17.048 17.216a1.04 1.04 0 0 0 0.676 1.52Z" fill="#191919" stroke-width="2"></path>
  <path d="M306.904 69.684c4.93 -6.642 8.428 -14.6 12.66 -21.69 4.29 -7.18 9.066 -14.106 13.248 -21.35 0.436 -0.754 -0.676 -1.352 -1.18 -0.676 -5.162 6.91 -9.614 14.266 -14.094 21.688 -4.128 6.84 -9.226 13.882 -12.068 21.352 -0.352 0.924 0.93 1.352 1.434 0.676Z" fill="#191919" stroke-width="2"></path>
  <path d="M336.02 35.842c4.962 3.064 10.8 4.81 15.612 8.018a14.726 14.726 0 0 0 -1.012 1.18c-3.692 4.26 -9.046 9.508 -12.068 12.576a1.014 1.014 0 0 0 1.434 1.434c3.716 -3.548 7.274 -7.16 10.718 -10.886 0.932 -1 3.87 -3.288 3.376 -4.896 -0.518 -1.684 -4.65 -2.852 -6.076 -3.544a102.93 102.93 0 0 0 -11.478 -5.232c-0.674 -0.338 -1.184 0.932 -0.506 1.35Z" fill="#191919" stroke-width="2"></path>
  <path d="M172.382 51.37H213.4a4.558 4.558 0 0 0 0 -9.114H172.382a4.538 4.538 0 0 0 -4.556 4.556 4.6 4.6 0 0 0 4.556 4.558Z" fill="#191919" stroke-width="2"></path>
  <path d="M232.132 51.37h14.094a4.558 4.558 0 1 0 0 -9.114h-14.094a4.538 4.538 0 0 0 -4.556 4.556 4.6 4.6 0 0 0 4.556 4.558Z" fill="#191919" stroke-width="2"></path>
  <path d="M213.4 103.61H172.382a4.558 4.558 0 0 0 0 9.114H213.4a4.558 4.558 0 0 0 0 -9.114Z" fill="#191919" stroke-width="2"></path>
  <path d="M246.31 103.61h-14.092a4.558 4.558 0 1 0 0 9.114h14.092a4.558 4.558 0 1 0 0 -9.114Z" fill="#191919" stroke-width="2"></path>
  <path d="M171.96 72.046h22.364a4.558 4.558 0 1 0 0 -9.114H171.96a4.566 4.566 0 0 0 -4.56 4.558 4.51 4.51 0 0 0 4.56 4.556Z" fill="#191919" stroke-width="2"></path>
  <path d="M212.554 62.932a4.558 4.558 0 1 0 0 9.114h4.472a4.558 4.558 0 1 0 0 -9.114Z" fill="#191919" stroke-width="2"></path>
  <path d="M172.72 93.65h14.094a4.558 4.558 0 1 0 0 -9.114H172.72a4.558 4.558 0 0 0 0 9.114Z" fill="#191919" stroke-width="2"></path>
  <path d="M206.308 89.094a4.538 4.538 0 0 0 4.558 4.556h14.094a4.558 4.558 0 0 0 0 -9.114h-14.094a4.488 4.488 0 0 0 -4.558 4.558Z" fill="#191919" stroke-width="2"></path>
  <path d="M181.834 193.4a16.71 16.71 0 0 1 6 -0.422c0.678 0.07 0.758 -0.922 0.17 -1.096a9.422 9.422 0 0 0 -6.584 0.422c-0.766 0.254 -0.26 1.268 0.414 1.096Z" fill="#191919" stroke-width="2"></path>
  <path d="M194.324 193.824a17.776 17.776 0 0 1 6.668 0.506c0.676 0.254 1.012 -0.758 0.506 -1.096a11.502 11.502 0 0 0 -7.342 -0.506c-0.59 0.084 -0.422 1.096 0.168 1.096Z" fill="#191919" stroke-width="2"></path>
  <path d="M185.716 195.934a15.976 15.976 0 0 0 -2.784 -0.674c-0.506 -0.088 -1.102 0.6 -0.59 1.012a7.24 7.24 0 0 0 2.952 1.012 0.708 0.708 0 1 0 0.422 -1.35Z" fill="#191919" stroke-width="2"></path>
  <path d="M199.304 196.018a14.066 14.066 0 0 0 -3.292 0.508c-0.674 0.168 -0.6 1.336 0.17 1.266a16.784 16.784 0 0 0 3.29 -0.6 0.6 0.6 0 0 0 -0.168 -1.174Z" fill="#191919" stroke-width="2"></path>
  <path d="M188.418 202.096a2.932 2.932 0 0 0 2.784 -1.182 3.51 3.51 0 0 0 0.254 -1.858c-0.084 -1.012 -0.148 -1.942 -0.254 -2.952 -0.07 -0.678 -1.096 -0.76 -1.096 0 0 4.616 0.348 4.308 -1.772 4.8a0.6 0.6 0 0 0 0.084 1.192Z" fill="#191919" stroke-width="2"></path>
  <path d="M301.926 244.292a3.274 3.274 0 0 0 -0.254 5.316c2.7 4.22 10.032 -1.338 6.33 -5.064a5.222 5.222 0 0 0 -6.076 -0.252Zm0.758 4.388c-2.36 -3.436 2.954 -4.444 4.304 -2.87 1.43 1.664 -1.208 4.934 -4.304 2.87Z" fill="#191919" stroke-width="2"></path>
  <path d="M102.168 100.148a0.93 0.93 0 0 0 0 1.858 0.93 0.93 0 0 0 0 -1.858Z" fill="#191919" stroke-width="2"></path>
  <path d="M111.8 102.174a0.294 0.294 0 0 1 -0.17 -0.084c-1.434 -0.506 -1.518 2.278 0 1.772 0.084 0 0.17 0 0.17 -0.084a0.824 0.824 0 0 0 0 -1.604Z" fill="#191919" stroke-width="2"></path>
  <path d="M270.616 228.6c14.516 -1.012 29.024 -0.422 43.63 -0.168 0.928 0.016 0.93 -1.458 0 -1.52 -14.748 -0.964 -29.668 -1.638 -44.306 0.422a0.652 0.652 0 0 0 -0.506 0.928v0.086a17.4 17.4 0 0 0 1.012 4.388c0.47 1.76 0.676 3.544 1.014 5.316a0.654 0.654 0 0 0 1.266 -0.168 82.334 82.334 0 0 0 -2.11 -9.284Z" fill="#191919" stroke-width="2"></path>
  <path d="M104.954 176.778a0.53 0.53 0 0 0 -0.6 0.6c0.06 3.4 -1.298 3.644 -3.2 14.6 -0.162 0.93 1.268 1.35 1.434 0.422 0.514 -2.868 0.944 -5.734 1.688 -8.524a26.516 26.516 0 0 0 1.266 -5.908c12.322 0.17 24.642 0.212 36.88 0.254a0.76 0.76 0 0 0 0 -1.52c-40.074 -0.146 -37.206 -0.188 -37.468 0.076Z" fill="#191919" stroke-width="2"></path>
  <path d="M81.07 139.138a0.928 0.928 0 0 0 0 -1.856 0.928 0.928 0 0 0 0 1.856Z" fill="#191919" stroke-width="2"></path>
  <path d="M80.648 144.624a1.77 1.77 0 0 0 -0.252 -0.6 0.8 0.8 0 0 0 -1.352 0 4.034 4.034 0 0 0 -0.252 0.6c-0.254 1.518 2.194 1.518 1.856 0Z" fill="#191919" stroke-width="2"></path>
  <path d="M250.2 282.6c12.74 -14.56 -0.75 -33.294 -16.962 -44.138a77.826 77.826 0 0 0 -38.062 -12.912 93.452 93.452 0 0 1 -0.422 -10.886c10.312 -3.75 11.038 -14.832 10.212 -25.572a8.462 8.462 0 0 0 5.654 -3.628 12.4 12.4 0 0 0 1.52 -12.238c-2.112 -4.8 -5.824 -6.576 -10.886 -6.414a24.476 24.476 0 0 0 -7.85 1.6c-2.624 1 -4.64 3.128 -7.088 4.136 -3.71 1.526 -7.512 -1.732 -11.31 -1.6 -6.714 0.228 -9.728 6.154 -6.75 10.296a5.726 5.726 0 0 0 -2.7 6.668 5.812 5.812 0 0 0 5.146 4.304c-0.336 1.772 -1.262 8.6 1.688 11.054 0.508 0.422 1.6 1.52 2.28 1.182 0.084 0 0.084 -0.084 0.168 -0.084a13.158 13.158 0 0 0 5.232 8.946c-0.168 4.388 -0.674 8.776 -0.928 13.248 -19.502 -0.5 -41.242 8.638 -53.342 24.058 -9.09 11.582 -11.99 28.868 -1.096 40.34 8.096 8.528 20.682 11.052 31.9 11.9 1.012 0.076 1.012 -1.512 0 -1.6a71.8 71.8 0 0 1 -15.614 -3.2 0.712 0.712 0 0 0 0.17 -0.508 19.752 19.752 0 0 1 8.86 -18.312c0.8 -0.56 -1.126 -1.416 3.714 1.35 2.448 8.692 4.894 17.47 7.174 26.162 -2.532 0.422 -4.558 0.76 -6.162 1.096 1.774 0.76 3.474 1.574 5.234 2.364a170.352 170.352 0 0 1 16.286 7.68c0.852 0.494 0.086 1.688 -0.758 1.35 -13.752 -6.4 -42.8 -20.658 -57.556 -17.216a13.878 13.878 0 0 0 -10.464 11.646 16.258 16.258 0 0 0 -12.322 8.524c-0.5 0.932 0.906 1.76 1.434 0.844a14.984 14.984 0 0 1 3.46 -4.052 5.978 5.978 0 0 0 0.76 5.148 0.68 0.68 0 0 0 1.182 -0.674 5.986 5.986 0 0 1 0.506 -6.246 12.572 12.572 0 0 1 4.472 -1.688 5.516 5.516 0 0 0 -1.266 8.6c0.58 0.52 1.514 -0.164 1.098 -0.844a4.736 4.736 0 0 1 0.422 -6.328 19.136 19.136 0 0 0 4.136 11.73 57.738 57.738 0 0 1 -17.386 -0.254 32 32 0 0 1 -6 -0.758c-1.78 -0.652 -1.514 -1.436 -1.688 -3.376 -0.164 -1.858 -0.084 -3.8 -0.168 -5.654a109.836 109.836 0 0 1 13.756 -2.618c1.8 -52.6 8.132 -75.4 8.354 -86.754 26.702 -1.388 31.962 -2.186 37.048 -4.052a19.788 19.788 0 0 0 11.816 -10.296 12.504 12.504 0 0 0 -2.364 -13.502c3.376 -9.536 7.098 -18.928 10.212 -28.524a0.8 0.8 0 0 0 -0.76 -1.014c-15.274 -0.042 -30.55 -0.168 -45.824 -0.168 0 -15.576 -5.972 -28.646 -25.15 -39.834 1.352 -3.46 2.28 -7.172 3.376 -10.718a14.126 14.126 0 0 0 9.2 -1.266 7.698 7.698 0 0 0 2.278 -1.35 11.584 11.584 0 0 0 1.856 -1.6c5.908 -6 6.836 -18.06 4.22 -25.91 3.762 -2.82 2.454 -10.226 -6.498 -14.514 -7.84 -3.756 -17.272 -3.776 -22.026 3.374a24.47 24.47 0 0 0 -3.968 11.14c-0.8 8.06 -1.17 11.168 0.6 15.698 0.084 0.338 2.278 3.46 2.7 3.038 -2.11 6 -3.882 12.152 -6.582 17.976 -11.9 -0.508 -25.388 4.4 -33.336 13.334 -7 7.858 -12.178 19.326 -11.898 30.042 0.308 11.816 8.6 19.834 18.566 24.982a50.446 50.446 0 0 0 -5.654 18.566c6 0.252 11.98 0.21 18.06 0.084 0.758 -0.016 0.76 1.102 0 1.182a155.332 155.332 0 0 1 -18.23 0.844c0 0.244 0.096 -0.106 -1.856 0.674 -6.498 -0.506 -12.912 -0.422 -17.976 4.052A58.834 58.834 0 0 0 10.35 244.2c-2.278 6.5 7.178 7.612 11.476 6a24.78 24.78 0 0 0 8.946 -6.836c3.468 -3.706 7 -7.426 10.38 -11.138 6.498 -0.508 12.49 -0.844 17.976 -1.098a71.904 71.904 0 0 0 15.106 0.254c-1.02 24.466 3.814 54.014 8.27 76.458a76.032 76.032 0 0 0 2.28 10.212c-0.17 2.616 -0.926 6.836 -0.17 9.284 0.34 1.096 0.18 1.078 1.098 1.6 2.136 1.224 6.748 0.948 9.2 1.266 5.482 0.716 12.068 1.436 17.722 0 6.33 7 16.63 10.11 25.656 12.068a183.116 183.116 0 0 0 37.64 3.8 36.426 36.426 0 0 1 1.856 -4.556 26.6 26.6 0 0 1 5.4 -7.68c0.51 -0.502 1.434 0.17 1.012 0.76a39.4 39.4 0 0 0 -5.148 8.6c-0.354 0.922 -2.364 5.484 -1.098 6.16a42.946 42.946 0 0 0 -5.822 2.026 55.528 55.528 0 0 0 -14.178 8.27c-5.216 4.156 -18.144 15.274 -8.524 21.772 11.298 7.634 29.686 -15.294 39.074 -26.33a6.02 6.02 0 0 0 1.518 0.676 43.108 43.108 0 0 0 18.904 10.548 47 47 0 0 0 22.618 0.76c4.81 -1.27 7.4 -5.642 4.726 -10.212 -3.4 -5.8 -11.502 -8.678 -17.638 -10.2 -1.272 -0.318 -1.862 1.71 -0.6 2.024a32.522 32.522 0 0 1 14 6.498 17.65 17.65 0 0 0 -3.712 -1.686 81.044 81.044 0 0 0 -21.774 -4.052 327.294 327.294 0 0 0 41.69 -33.588c4.478 -4.13 9.19 -8.226 12.236 -13.502 5.792 -10.002 1.6 -19.758 -10.27 -19.758ZM32.376 238.722a9.756 9.756 0 0 0 -6.246 -5.4 0.618 0.618 0 0 0 -0.336 1.182 8.354 8.354 0 0 1 5.484 5.4c-1.434 1.52 -2.954 3.038 -4.472 4.474 -0.59 -2.786 -2.964 -4.374 -5.316 -5.824 -0.678 -0.418 -1.27 0.68 -0.676 1.098 1.932 1.362 4.304 2.954 4.472 5.486 0 0.168 0.086 0.252 0.086 0.422a12.336 12.336 0 0 1 -9.79 3.2c-6.242 -1.116 -1.26 -8.6 0.422 -11.478a52.158 52.158 0 0 1 12.828 -15.612c3.4 -2.51 8.1 -3.038 12.742 -2.954a16.11 16.11 0 0 0 -6.16 6.668c-0.922 2.28 -1.688 3.712 -0.76 5.57a2.914 2.914 0 0 0 2.87 1.434 2.356 2.356 0 0 0 0.76 -0.084c-2.026 2.198 -3.968 4.308 -5.908 6.418Zm130.554 -65.4c-2.952 9.03 -6.412 17.89 -9.62 26.836 -3.46 -2.278 -9.2 -5.246 -13.25 -4.726 -15.518 2 -22.4 5.626 -45.656 10.128 2.616 -10.296 7.934 -31.902 8.102 -32.492 2.194 0.31 -5.568 -0.292 60.424 0.25Zm-60.6 -64.4c0.34 0.34 6.916 2.614 5.148 6.582 -1.354 3.036 -6.158 3.244 -9.03 3.038a12.322 12.322 0 0 1 -4.558 -0.928 3.692 3.692 0 0 1 -1.6 -5.738c2.416 -2.814 6.51 -3.372 10.048 -2.95Zm-9.368 -13.082c2.448 -2.898 2.2 -7.2 5.064 -9.704a3.816 3.816 0 0 1 1.6 -0.928 5.456 5.456 0 0 1 3.882 1.6c3.496 2.6 4.32 0.434 5.4 0.254a2.4 2.4 0 0 1 2.278 0.844c0.76 0.76 0.76 2.364 1.6 3.038a30.8 30.8 0 0 1 -1.688 21.52 16.548 16.548 0 0 1 -1.266 1.856 7.278 7.278 0 0 0 -4.22 -6c3.684 -1.052 2.762 -5.8 3.038 -8.016 0.074 -0.6 -1 -0.758 -1.096 -0.17 -0.236 1.522 -0.072 3.042 -0.422 4.558a2.282 2.282 0 0 1 -3.8 1.6 0.622 0.622 0 0 0 -0.844 0.844c0.084 0.168 0.254 0.252 0.338 0.422 -0.084 0 -0.084 0 -0.17 0.084a11.94 11.94 0 0 0 -12.826 4.472c-1.702 2.6 -0.338 4.812 1.856 6.33a9.838 9.838 0 0 0 3.544 2.278 83.854 83.854 0 0 0 -4.03 11.75c-1.942 1.518 -4.128 3.272 -6.668 2.11 -2.438 -1.116 -3.628 -3.968 -4.726 -6.246a151.83 151.83 0 0 0 8.27 -23.968V104.2a0.772 0.772 0 0 0 -0.674 -1.35 1.748 1.748 0 0 1 -1.942 -0.676c-0.314 -0.314 -0.928 -0.92 -0.928 -1.35 0 -0.168 -0.084 -0.338 0 -0.506a2.352 2.352 0 0 1 4.304 -0.506c0.254 0.6 1.278 0.164 1.098 -0.422a2.788 2.788 0 0 0 -1.35 -1.6 5.058 5.058 0 0 0 4.386 -1.946Zm-57.64 80c-2.45 -9.704 1.766 -20.932 7 -28.946 7.678 -11.728 22.038 -18.22 36.048 -17.968 1.096 2.87 2.954 6.162 5.908 7.258 0.084 0 0.168 0.084 0.336 0.084 0 0.966 0.046 -1.282 -2.954 13.42 -0.188 0.924 1.256 1.348 1.436 0.422 0.818 -4.21 2.784 -12.754 2.784 -13.504a8.458 8.458 0 0 0 6.414 -3.038 0.576 0.576 0 0 0 0.506 -0.506c19.828 12.706 23.442 23.738 23.884 38.568h-14.6a41.436 41.436 0 0 0 -1.35 -14.6 0.574 0.574 0 0 0 -1.098 0.338 42.456 42.456 0 0 1 1.014 17.13s-2.364 9.958 -3.63 14.854a62.232 62.232 0 0 0 -16.2 -9.706 76.4 76.4 0 0 0 -19.746 -6.498 35.356 35.356 0 0 1 5.148 -15.696c0.34 -0.6 -0.584 -1.178 -0.93 -0.6A36.528 36.528 0 0 0 59.8 172.98a12.8 12.8 0 0 0 -1.688 -0.17c-0.76 -0.084 -0.758 1.086 0 1.182 0.6 0.076 1.18 0.17 1.772 0.254a0.662 0.662 0 0 0 0.928 0.084 75 75 0 0 1 20.508 6.92c5.312 2.542 11.224 5.486 15.444 9.706 -2.952 11.8 -2.546 11.224 -2.786 11.224 -2.448 0.252 -4.894 0.422 -7.426 0.506a175.816 175.816 0 0 1 -21.52 -2.954c-12.412 -3.548 -26.538 -11.348 -29.702 -23.884Zm158.158 50.054a8.926 8.926 0 0 1 -7.51 3.46 9.558 9.558 0 0 1 -5.316 -2.532 58.6 58.6 0 0 0 0.928 -12.744 17.846 17.846 0 0 0 11.898 0.93 33.698 33.698 0 0 0 0 10.886Zm-17.8 -27.682c0.328 -5.906 -0.326 -9.09 0 -12.32 0.334 -3.292 3.71 -2.274 5.738 -1.35a66.868 66.868 0 0 0 7.68 3.712 36.21 36.21 0 0 0 14.178 1.014c0.254 7.172 1.084 14.924 -4.134 20.506a14.478 14.478 0 0 1 -12.912 3.8c-8.616 -1.088 -9.712 -8.104 -10.556 -15.362Zm3.714 29.454a0.082 0.082 0 0 1 0.084 0.084c4.136 4.98 11.308 4.052 15.274 -0.844a89.328 89.328 0 0 1 14.516 2.7c-1.772 9.284 -1.856 19.158 -2.532 28.61 -10.904 0.674 -18.498 1.734 -33.166 3.46a131.2 131.2 0 0 0 -2.954 -14.6c-1.4 -5.832 -2.7 -12.4 -5.654 -17.722a56.2 56.2 0 0 1 14.426 -1.688Zm-39.75 69.8a36.958 36.958 0 0 1 -7.848 -3.628c0.084 -0.928 0.254 -1.858 0.422 -2.786h0.168a10.97 10.97 0 0 1 4.052 0.76c1.098 0.244 2.2 0.506 3.29 0.76a21.37 21.37 0 0 0 -0.09 4.886Zm0.422 -6.414c-1.518 -0.422 -3.13 -0.722 -4.642 -1.096a6.736 6.736 0 0 0 -2.784 -0.422 26.826 26.826 0 0 1 1.856 -5.148c2.364 0.844 4.726 1.434 7.174 2.2a28.182 28.182 0 0 0 -1.61 4.458Zm2.364 -6a71.384 71.384 0 0 0 -7.258 -2.024 18.422 18.422 0 0 1 3.544 -4.558 15.2 15.2 0 0 0 2.954 1.52 19.054 19.054 0 0 0 3.46 1.35 27.78 27.78 0 0 0 -2.706 3.712Zm6.92 -7a15.018 15.018 0 0 0 -3.2 2.364c-0.514 -1.03 -4.814 -2.418 -6.244 -2.954a22.188 22.188 0 0 1 3.122 -2.11 41.964 41.964 0 0 1 6.316 2.696Zm-4.896 -3.882c-0.084 -0.338 -0.336 -0.59 -0.674 -0.506 -0.168 0.084 -0.254 0.084 -0.422 0.168a22.332 22.332 0 0 0 -6.246 -0.844 0.632 0.632 0 1 0 0 1.266 21.24 21.24 0 0 1 4.052 0.6c-6.582 3.46 -9.536 11.054 -10.55 18.228a23.512 23.512 0 0 1 -11.14 -18.314c-1.838 -22.68 22.22 -39.97 44.306 -45.4a126.58 126.58 0 0 1 8.356 32.322c-22.822 2.91 -22.37 2.15 -22.37 3.11 -0.8 0.538 0.08 1.432 3.46 13.504 -2.902 -1.164 -5.226 -3.168 -8.778 -4.138Zm42.704 79.666c-4.136 4.39 -8.102 8.946 -12.322 13.25 -0.844 -3.2 -4.732 -5.044 -7.68 -5.908a0.656 0.656 0 1 0 -0.338 1.266c3.2 1.182 5.824 2.786 6.5 6.246 -4.6 4.6 -9.896 9.97 -16.372 11.646 -3.884 1 -9.552 -0.678 -8.862 -5.908 0.578 -4.39 5.58 -8.6 8.692 -11.4a57.022 57.022 0 0 1 11.816 -8.102A37.17 37.17 0 0 1 180.4 350.8c0.76 0.078 7.512 2.358 6.752 3.032Zm36.626 -0.422c5.238 1.498 9.452 2.786 11.308 8.102a2.966 2.966 0 0 1 -0.338 0.928c-1.562 3.516 -11.926 3.314 -15.78 3.038 -1.6 -1.856 -0.704 -6.18 0.506 -7.932 0.412 -0.6 -0.506 -1.266 -1.012 -0.76a7.384 7.384 0 0 0 -1.774 4.98 9.496 9.496 0 0 0 0.254 3.544 58.052 58.052 0 0 1 -6.836 -1.096c-2.278 -2.532 0.826 -6.86 2.87 -8.356a0.55 0.55 0 1 0 -0.6 -0.928 8.922 8.922 0 0 0 -4.64 8.6 49.724 49.724 0 0 1 -15.442 -7.934c3.586 -0.298 9.528 -3.676 12.574 -5.568a0.464 0.464 0 0 0 0.422 0.252 87.43 87.43 0 0 1 18.482 3.126Zm23.546 -70.636c-8.946 1.098 -15.942 5.836 -23.124 10.972a163.4 163.4 0 0 0 -24.136 20.506c-0.6 0.676 -1.6 -0.342 -1.014 -1.012a136.4 136.4 0 0 1 12.66 -12.322c-4.81 0.6 -9.706 1.35 -14.516 2.11 -7.744 0.53 -23.836 1.838 -34.6 3.376 -1.94 -7.754 -8.1 -30.42 -11.4 -40.762 27.512 -1.94 54.264 -7.51 82.03 -6.076 -2.448 9.284 -5.636 18.52 -8.946 27.512 -0.654 1.78 -1.266 3.63 -1.94 5.4 0.844 -0.6 1.688 -1.266 2.53 -1.858 1.092 -2.958 6.374 -18.472 7.344 -21.52 0.928 -0.252 1.772 -0.59 2.7 -0.844 0.674 -0.252 0.422 -1.35 -0.338 -1.096 -0.674 0.168 -1.266 0.422 -1.94 0.6 0.6 -1.94 1.172 -3.884 1.772 -5.908a8.12 8.12 0 0 0 0.758 -3.122c-0.422 -1.518 -2.954 -0.99 -4.218 -1.012 -6.424 -0.11 -13.9 -0.238 -22.534 0.338 0.676 -9.368 1.942 -18.736 2.2 -28.104 15.95 4.558 31.2 13.814 39.412 28.188 4.836 8.456 4.426 17.498 -2.706 24.63Z" fill="#191919" stroke-width="2"></path>
  <path d="M100.058 136.354c12.958 9.502 18.23 20.72 18.23 35.276h14.6c0 -4.474 0.022 -26.774 -3.882 -31.142 -3.944 -4.41 -23.968 -4.304 -28.948 -4.134Z" fill="#0a1628" stroke-width="2"></path>
  <path d="M121.832 246.908a4.514 4.514 0 0 0 2.87 -1.266c1.328 -1.288 8.27 -6.752 10.8 -8.44a5.026 5.026 0 0 0 2.7 -4.894 39.91 39.91 0 0 0 -1.266 -5.318c-6.36 0.848 -24.114 1.866 -28.778 2.11 -0.13 6.662 -1.548 12.384 -2.11 17.724a125.548 125.548 0 0 0 15.784 0.084Z" fill="#0a1628" stroke-width="2"></path>
  <path d="M74.234 231.21a62.052 62.052 0 0 1 -15.106 -0.252c-3.628 0.168 -7.426 0.422 -11.4 0.674 -1.78 7.47 0.34 9.848 4.64 10.718 11.652 2.356 12.818 1.688 21.858 1.688 0.008 -2.14 -0.184 -8.19 0.008 -12.828Z" fill="#0a1628" stroke-width="2"></path>
</svg>