<svg xmlns="http://www.w3.org/2000/svg" fill="none" viewBox="0 0 400 400" id="We-Got-A-Problem--Streamline-Tokyo" height="400" width="400">
  <desc>
    We Got A Problem Streamline Illustration: https://streamlinehq.com
  </desc>
  <path fill="#1c3b67" d="m340.214 91.1128 -0.784 -0.112c1.902 -1.6 1.902 -5.646 1.916 -7.742 0.03 -1.3106 -0.124 -2.619 -0.462 -3.886l0.51 -0.154c1.524 1.186 11.716 3.55 17.058 26.75 2.848 12.37 1.386 25 3.214 37.428 0.84 5.704 3.418 10.8 4.906 16.312 1.682 6.3102 2.306 12.8556 1.846 19.37 -9.144 -7.21 -20.07 -13.4 -30.636 -19.734l0.084 -0.14c-9.258 -8.982 -1.73 -26.97 1.284 -43.34 1.406 -7.3192 1.974 -14.7746 1.692 -22.222 -0.04 -0.5872 -0.12 -1.1712 -0.238 -1.748 -0.052 -0.252 -0.502 -0.67 -0.39 -0.782Z" stroke-width="2"></path>
  <path fill="#ffffff" d="M341.22 81.0004c0.284 2.678 0.336 8.18 -1.8 10 -0.702 0.5464 -1.592 0.7924 -2.474 0.684 -0.028 -1.872 -0.07 -10.732 -0.07 -10.732 0.2 -1.776 0.35 -3.648 0.4 -5.55h0.2c0 0.084 0.306 0.114 0.42 0.182 0.952 0.565 1.752 1.3534 2.332 2.297 0.578 0.9436 0.92 2.0142 0.992 3.119Z" stroke-width="2"></path>
  <path fill="#1c3b67" d="M332.246 52.914c4.876 7.8 5.71 18.986 4.64 28.038 -0.056 1.042 0.11 14.752 0.112 14.954 0.106 8.776 0.476 17.8 -6.834 24.024 -5.65 4.4456 -12.72 6.6942 -19.902 6.33 -4.08 -0.2472 -8.052 -1.4026 -11.628 -3.382 0.07 -0.182 -0.334 -0.2 -0.49 -0.322 -1.426 -1.0732 -2.538 -2.5118 -3.214 -4.164l-0.532 -0.838c1.956 -1.1546 3.566 -2.812 4.664 -4.8 2.936 -5.332 1.916 -14.516 -4.2 -16.128 -1.422 -0.355 -2.91 -0.3426 -4.326 0.0364 -1.416 0.379 -2.712 1.1118 -3.766 2.1296l-0.028 -0.042c-6.904 0.028 -11.6 -5.244 -15.08 -10.552 -10.176 -15.506 -12.344 -25.822 -19.036 -33.486 -2.04 -2.336 -5.622 -4.768 -8.89 -3.942 -0.866 0.22 -5.562 2.81 -4.304 4.346 -1.862 2.3352 -3.356 4.9422 -4.43 7.73 -0.406 1.1392 -0.73 2.3072 -0.964 3.494 -0.424 -0.1894 -0.814 -0.4438 -1.16 -0.754 -2.438 -2.3504 -3.936 -5.5074 -4.216 -8.882 -0.282 -3.3744 0.676 -6.7356 2.692 -9.456 7.246 -10.382 21.932 -13.868 33.752 -15.08 16.182 -1.7544 32.548 0.3928 47.73 6.262 7.542 2.97 15.034 7.484 19.41 14.484Z" stroke-width="2"></path>
  <path fill="#ffffff" d="m317.32 145.6026 0.14 -0.07c0.298 0.1444 0.58 0.3222 0.838 0.53 2.942 2.7002 6.134 5.115 9.532 7.212 -0.476 0.9828 -1.072 1.9032 -1.774 2.74 -1.542 2.2712 -3.198 4.4634 -4.962 6.568 -9.648 11.512 -26.218 18.712 -40.14 13.976 -5.6 -1.902 -10.482 -5.65 -11.544 -11.698 -0.496 -3.184 -0.458 -6.4286 0.112 -9.6 0.054 -0.292 0.362 -0.95 0.362 -1.146l0.364 -0.152c-5.324 -12.988 -21.058 -0.552 -28.582 -7.4 -2.464 -2.246 -1.984 -6.108 -3.4 -8.904l0.084 -0.042c-0.842 -1.101 -1.244 -2.475 -1.132 -3.856 0.306 -0.9676 0.714 -1.9002 1.216 -2.782 2.13 -5.188 -0.456 -10.266 -3.466 -10.4 -0.902 -0.009 -1.802 0.1136 -2.67 0.364 -1.956 -0.882 -1.12 -5.324 -1.886 -7.03 -2.2 -4.904 -8.578 -6.444 -10.022 -11.936 -1.506 -5.732 7.364 -8.624 9.714 -13.04 4.4 -8.284 1.834 -17.6 4.892 -26.094 1.072 -2.7884 2.566 -5.3954 4.43 -7.73 -1.258 -1.536 3.438 -4.126 4.304 -4.346 3.268 -0.826 6.85 1.6 8.89 3.942 6.67 7.638 8.886 18.018 19.036 33.486 3.484 5.308 8.176 10.58 15.08 10.552l0.028 0.042c1.054 -1.018 2.35 -1.751 3.766 -2.13 1.416 -0.3788 2.904 -0.3912 4.326 -0.036 6.096 1.6 7.146 10.782 4.2 16.128 -1.098 1.9878 -2.708 3.6454 -4.664 4.8l0.532 0.838c0.676 1.6522 1.788 3.0908 3.214 4.164 0.156 0.126 0.56 0.14 0.49 0.322 3.58 1.9692 7.55 3.124 11.628 3.382 0.006 1.658 4.944 14.86 7.064 19.346Z" stroke-width="2"></path>
  <path fill="#ffffff" d="m165.4964 278.674 -1.3 -0.63c-0.4578 -1.266 -0.7444 -2.588 -0.852 -3.928 -0.1566 -1.64 0.2582 -3.284 1.174 -4.654 2.622 -3.852 9.252 -4.34 13.892 -4.752 1.846 -0.164 3.718 -0.252 5.576 -0.28 -4.304 -3.424 -8.8 -7.678 -14.744 -8.568 -6.276 -0.94 -15.27 0.374 -17.484 -2.626 -2.108 -2.852 4.018 -5.018 6.064 -5.492 6.4894 -1.458 13.2546 -1.1 19.554 1.034 6.642 1.75 14.062 7.06 19.65 11.028 5.4616 3.876 11.7076 7.35 16.4356 11.934 3.284 3.184 4.232 5.564 6.654 8.024 2.808 2.87 5.764 5.59 8.86 8.148l0.14 0.252c12.062 7.14 41.286 17.512 54.564 22.026l0.4 -0.042c0.618 4.268 2.826 7.75 3.242 16.786 0.368 7.964 -1.494 15.8 -1.844 23.73l-0.42 -0.014c-7.558 -2.522 -14.954 -5.5 -22.152 -8.916 -14.552 -8.156 -27.988 -18.164 -39.972 -29.77l-0.378 -0.644c-4.432 -3.474 -10.73 -6.752 -16.31 -7.056 -6.04 -0.33 -11.2276 1.94 -17.2596 -0.028 -3.668 -1.2 -5.282 -3.158 -7.742 -5.618 -0.056 -0.056 -0.742 -0.812 -0.84 -0.756 -0.182 0.11 1.104 1.986 1.2 2.152 0.8578 1.268 1.395 2.728 1.566 4.25 0.258 2.6 -2.168 6.852 -6.052 5.45 -2.74 -0.988 -4.088 -4.3 -5.4 -6.33 -1.66 -2.58 -6.25 -6.504 -4.906 -9.686 0.238 -0.556 0.577 -1.064 1 -1.496l-0.49 -0.462c-4.988 -3.694 -5.37 -9.62 -1.826 -13.066Z" stroke-width="2"></path>
  <path fill="#ffffff" d="M386.572 257.694c-1.072 -8.868 3.104 -17.858 2.95 -39.93 -0.056 -3.13 -0.168 -6.246 -0.2 -9.378 0 -0.222 0.07 -2.962 0.042 -3.032 -9.868 -24.9306 -37.696 -36.9706 -61.524 -52.0766 -0.476 0.983 -1.072 1.9032 -1.774 2.74 -1.542 2.2718 -3.198 4.464 -4.962 6.568 -6.22 7.424 -14.704 12.6 -24.152 14.732 -11.218 2.326 -25.48 -1.36 -27.532 -12.454 -0.508 -3.1832 -0.47 -6.4296 0.112 -9.6 0.07 -0.374 0.586 -1.428 0.25 -1.16l-0.166 -0.082c-0.448 -0.252 -0.688 0.734 -1.066 1.068 -3.322 2.8536 -6.982 5.2874 -10.898 7.246 -5.284 2.656 -16.45 3.286 -19.958 8.122 -11.56 15.946 -11.656 55.5406 -11.8 57.0006 -0.19 4.76 -0.62 9.51 -1.286 14.228 -1.146 6.988 -1.922 14.032 -2.32 21.104 -0.546 6.052 -1.146 10.496 -1.51 16.562l-0.656 0.4c2.796 2.882 5.754 5.602 8.86 8.148l0.14 0.252c12.062 7.14 41.286 17.512 54.564 22.026l0.4 -0.042c0.576 3.984 2.754 7.69 3.242 16.786 0.492 12.698 -5.7 33.96 1.874 36.086 2.2 0.628 4.556 -1.188 6.2 -2.39 2.836 -2.082 5.338 -3.9 9.042 -3.522 5 0.504 9.686 3.522 14.536 3.858 4.16 -0.006 8.306 -0.462 12.368 -1.356 5.282 -0.84 10.65 -1.37 15.976 -1.86 6.892 -0.65 15.308 0.568 20.768 -4.696 2.892 -2.84 4.806 -6.526 5.464 -10.524 0.574 -2.948 0.42 -5.856 1.818 -8.6 2.026 -3.984 6.176 -7.968 6.428 -12.636 0.238 -4.514 -3.87 -7.868 -3.312 -12.48 0.77 -3.388 2.148 -6.608 4.068 -9.504 2.956 -4.852 5.244 -10.08 6.8 -15.542 2.162 -9.248 -1.724 -17.074 -2.786 -26.062Z" stroke-width="2"></path>
  <path fill="#1c3b67" fill-rule="evenodd" d="M364.42 174.8198c11.238 8.0642 20.838 17.4448 25.874 30.1662 0 0 0.164 9.168 0.228 12.76l0 0.012c0.078 11.106 -0.936 18.928 -1.83 25.066 -0.078 0.54 -0.156 1.066 -0.232 1.578 -0.788 5.352 -1.366 9.276 -0.896 13.172l0 0.002c0.342 2.888 0.968 5.6 1.6 8.338 0.344 1.488 0.688 2.984 0.99 4.52 0.846 4.296 1.306 8.726 0.178 13.55 -0.004 0.016 -0.008 0.03 -0.012 0.046 -1.582 5.55 -3.906 10.86 -6.908 15.788 -0.006 0.012 -0.014 0.022 -0.02 0.032 -1.844 2.782 -3.17 5.872 -3.916 9.122 0.002 -0.016 0.004 -0.034 0.006 -0.05l-0.018 0.102c0.004 -0.018 0.008 -0.034 0.012 -0.052 -0.222 1.964 0.524 3.696 1.456 5.682 0.042 0.092 0.084 0.182 0.128 0.276 0.874 1.856 1.868 3.972 1.74 6.404 -0.1 1.864 -0.754 3.59 -1.598 5.18 -0.694 1.308 -1.566 2.552 -2.398 3.738 -0.23 0.33 -0.456 0.654 -0.676 0.972 -1.034 1.51 -1.934 2.97 -2.444 4.574 -0.332 1.044 -0.502 2.126 -0.646 3.286 -0.03 0.248 -0.06 0.5 -0.09 0.756 -0.106 0.92 -0.22 1.89 -0.408 2.856 0 -0.006 0.002 -0.01 0.002 -0.016l-0.004 0.03c0 -0.006 0.002 -0.01 0.002 -0.014 -0.696 4.202 -2.708 8.074 -5.748 11.06l-1.402 -1.428c2.742 -2.69 4.554 -6.182 5.178 -9.972l0.006 -0.028c0.174 -0.89 0.276 -1.766 0.382 -2.676 0.032 -0.268 0.064 -0.538 0.098 -0.812 0.146 -1.186 0.334 -2.42 0.724 -3.648 0.604 -1.9 1.648 -3.562 2.702 -5.098 0.244 -0.358 0.488 -0.706 0.728 -1.05 0.82 -1.17 1.596 -2.28 2.228 -3.468 0.77 -1.452 1.288 -2.882 1.368 -4.348 0.1 -1.92 -0.696 -3.62 -1.626 -5.602l-0.058 -0.122c-0.916 -1.956 -1.94 -4.194 -1.624 -6.822 0.004 -0.034 0.01 -0.068 0.018 -0.102 0.796 -3.5 2.218 -6.826 4.2 -9.818 -0.004 0.006 -0.008 0.01 -0.01 0.016l0.02 -0.032c-0.004 0.006 -0.006 0.01 -0.01 0.016 2.9 -4.762 5.146 -9.894 6.676 -15.256 -0.002 0.008 -0.004 0.014 -0.006 0.022l0.012 -0.046 -0.006 0.024c1.026 -4.416 0.624 -8.516 -0.198 -12.686 -0.276 -1.402 -0.606 -2.836 -0.942 -4.298 -0.648 -2.812 -1.318 -5.726 -1.672 -8.71 -0.504 -4.176 0.116 -8.376 0.896 -13.644 0.078 -0.532 0.158 -1.076 0.238 -1.632 0.888 -6.09 1.886 -13.798 1.81 -24.76l0 0.006 0 -0.01 0 0.004c-0.024 -1.27 -0.056 -2.55 -0.088 -3.836 -0.046 -1.846 -0.094 -3.7 -0.112 -5.544l0 -0.01c0 -0.072 0.006 -0.37 0.014 -0.746 0.006 -0.26 0.012 -0.558 0.018 -0.846 0.032 -1.676 0.168 -0.882 -0.282 -1.96 -4.922 -11.7638 -13.99 -20.619 -24.818 -28.3894 -6.95 -4.987 -14.53 -9.467 -22.166 -13.98 -4.616 -2.7288 -9.254 -5.4696 -13.784 -8.3418l1.072 -1.6892c4.412 2.7976 9 5.5104 13.6 8.2302 7.702 4.5552 15.44 9.1302 22.444 14.156Z" clip-rule="evenodd" stroke-width="2"></path>
  <path fill="#ffffff" d="m368.082 353.056 0.908 0.014c-0.544 3.272 -0.114 6.778 -2.362 9.574 -1.37 1.704 -4.972 2.858 -6.834 3.788 -35.378 17.686 -76.352 17.6 -107.506 4.026 -7.544 -3.29 -16.144 -7.654 -17.162 -16.702 -0.786 -7 2.046 -13.87 2.348 -23.916 0.026 -0.882 -0.642 -4.942 -0.658 -5.2l0.2 -0.336c8.114 6.548 16.778 12.38 25.898 17.43 7.196 3.418 14.594 6.396 22.152 8.916l0.42 0.014c-0.222 4.322 -0.362 11.2 3.718 12.356 4.464 1.266 8.25 -6.618 15.234 -5.912 5 0.506 9.684 3.53 14.536 3.858 4.16 0 8.306 -0.456 12.368 -1.356 5.284 -0.836 10.65 -1.362 15.976 -1.86 7.418 -0.688 15.056 0.614 20.764 -4.694Z" stroke-width="2"></path>
  <path fill="#ffffff" d="m211.534 306.5 0.21 -1.132c3.904 1.388 7.556 3.398 10.816 5.954l0.378 0.644c4.514 4.304 9.2 8.442 14.074 12.34l-0.2 0.336c0.014 0.218 0.684 4.342 0.658 5.2 -0.242 8.058 -1.856 12.838 -2.348 18.632l-0.4 -0.044c-7.422 1.16 -14.524 -0.76 -21.566 -3.172 -2.152 -0.738 -6.3 -1.986 -7.1 -4.474 -0.696 -2.166 0.924 -4.612 0.476 -6.918 -1.118 -5.758 -6 -7.894 -2.976 -14.38 2.046 -4.082 4.42 -7.99 7.1 -11.686 0.094 -0.152 0.654 -1.3 0.878 -1.3Z" stroke-width="2"></path>
  <path fill="#e8a849" d="M330.368 207.044c-0.006 0.752 -0.234 1.482 -0.654 2.104 -0.422 0.62 -1.018 1.104 -1.712 1.386 -0.696 0.284 -1.458 0.354 -2.194 0.204 -0.734 -0.15 -1.41 -0.514 -1.938 -1.046 -0.528 -0.534 -0.886 -1.21 -1.032 -1.946 -0.144 -0.738 -0.066 -1.5 0.222 -2.192 0.288 -0.692 0.776 -1.284 1.4 -1.7 0.624 -0.418 1.358 -0.64 2.108 -0.64 0.502 0.002 0.996 0.102 1.46 0.296 0.462 0.194 0.882 0.476 1.234 0.832 0.354 0.356 0.632 0.778 0.822 1.242 0.19 0.464 0.286 0.96 0.284 1.46Z" stroke-width="2"></path>
  <path fill="#e8a849" d="M322.784 320.912c-0.006 0.75 -0.234 1.482 -0.654 2.102 -0.422 0.622 -1.018 1.104 -1.712 1.388 -0.696 0.282 -1.458 0.354 -2.194 0.204 -0.734 -0.15 -1.41 -0.514 -1.938 -1.048 -0.528 -0.532 -0.886 -1.21 -1.032 -1.946 -0.144 -0.736 -0.066 -1.498 0.222 -2.192 0.288 -0.692 0.776 -1.284 1.4 -1.7 0.624 -0.416 1.358 -0.638 2.108 -0.638 0.502 0.002 0.996 0.102 1.46 0.296 0.462 0.192 0.882 0.476 1.234 0.832 0.354 0.354 0.632 0.776 0.822 1.24 0.19 0.464 0.286 0.96 0.284 1.462Z" stroke-width="2"></path>
  <path fill="#e8a849" d="M241.452 240.178c-0.006 0.75 -0.234 1.482 -0.656 2.102 -0.42 0.622 -1.016 1.104 -1.71 1.386 -0.696 0.284 -1.458 0.354 -2.194 0.204 -0.734 -0.15 -1.41 -0.514 -1.938 -1.046s-0.886 -1.21 -1.032 -1.946c-0.144 -0.736 -0.066 -1.498 0.222 -2.192 0.288 -0.692 0.776 -1.284 1.4 -1.7 0.624 -0.416 1.358 -0.638 2.108 -0.638 0.5 0.002 0.996 0.102 1.458 0.296 0.464 0.194 0.882 0.476 1.236 0.832 0.352 0.356 0.632 0.776 0.822 1.24 0.19 0.464 0.286 0.96 0.284 1.462Z" stroke-width="2"></path>
  <path fill="#e8a849" d="M366.4 332.4c-0.006 0.75 -0.234 1.482 -0.654 2.104 -0.422 0.62 -1.018 1.102 -1.712 1.386 -0.696 0.282 -1.458 0.354 -2.194 0.204 -0.734 -0.15 -1.408 -0.514 -1.938 -1.048 -0.528 -0.532 -0.886 -1.21 -1.03 -1.946 -0.146 -0.736 -0.068 -1.498 0.22 -2.19 0.288 -0.694 0.776 -1.286 1.4 -1.702 0.624 -0.416 1.358 -0.638 2.108 -0.638 0.502 0.002 0.998 0.102 1.46 0.296 0.462 0.194 0.882 0.476 1.234 0.832 0.354 0.356 0.632 0.776 0.822 1.24 0.19 0.464 0.286 0.962 0.284 1.462Z" stroke-width="2"></path>
  <path fill="#e8a849" d="M315.2 237.694c-0.006 0.75 -0.234 1.482 -0.654 2.102 -0.422 0.622 -1.018 1.104 -1.712 1.386 -0.696 0.284 -1.458 0.354 -2.194 0.204 -0.734 -0.15 -1.408 -0.514 -1.938 -1.046 -0.528 -0.532 -0.886 -1.21 -1.032 -1.946 -0.144 -0.736 -0.066 -1.5 0.222 -2.192 0.288 -0.692 0.776 -1.284 1.4 -1.7 0.624 -0.416 1.358 -0.638 2.108 -0.638 0.502 0 0.996 0.102 1.46 0.294 0.462 0.194 0.882 0.476 1.234 0.832 0.354 0.356 0.632 0.778 0.822 1.242 0.19 0.464 0.286 0.96 0.284 1.462Z" stroke-width="2"></path>
  <path fill="#e8a849" d="M315.2 189.8008c-0.006 0.7502 -0.234 1.4816 -0.656 2.1024 -0.422 0.6206 -1.016 1.1026 -1.712 1.3854 -0.694 0.2828 -1.458 0.3534 -2.192 0.2032 -0.736 -0.1502 -1.41 -0.5146 -1.938 -1.0474 -0.528 -0.5326 -0.888 -1.2098 -1.032 -1.946 -0.144 -0.7362 -0.066 -1.4986 0.222 -2.1912 0.288 -0.6924 0.776 -1.284 1.4 -1.7002 0.624 -0.4162 1.358 -0.6382 2.108 -0.6382 0.502 0.0016 0.998 0.102 1.46 0.2954 0.462 0.1936 0.882 0.4764 1.234 0.8324 0.354 0.3558 0.634 0.778 0.822 1.242 0.19 0.464 0.286 0.9608 0.284 1.4622Z" stroke-width="2"></path>
  <path fill="#e8a849" d="M261.462 274.798c-0.006 0.75 -0.234 1.482 -0.654 2.104 -0.422 0.62 -1.018 1.104 -1.712 1.386 -0.696 0.284 -1.458 0.354 -2.194 0.204 -0.734 -0.15 -1.408 -0.514 -1.938 -1.046 -0.528 -0.534 -0.886 -1.21 -1.03 -1.946 -0.146 -0.738 -0.068 -1.5 0.22 -2.192 0.288 -0.692 0.776 -1.284 1.4 -1.7 0.624 -0.418 1.358 -0.64 2.108 -0.64 0.502 0.002 0.996 0.104 1.46 0.296 0.462 0.194 0.88 0.476 1.234 0.832 0.352 0.356 0.632 0.778 0.822 1.242 0.19 0.464 0.286 0.96 0.284 1.46Z" stroke-width="2"></path>
  <path fill="#e8a849" d="M349.328 174.4784c-0.006 0.7504 -0.234 1.482 -0.654 2.103 -0.422 0.621 -1.018 1.1034 -1.712 1.3864 -0.694 0.283 -1.458 0.354 -2.194 0.204 -0.734 -0.15 -1.408 -0.5144 -1.938 -1.047 -0.528 -0.5326 -0.886 -1.2096 -1.03 -1.946 -0.144 -0.7362 -0.068 -1.4988 0.22 -2.1914 0.29 -0.6926 0.776 -1.2844 1.4 -1.7006 0.624 -0.4162 1.358 -0.6384 2.108 -0.6384 0.502 0.0018 0.998 0.1024 1.46 0.296 0.462 0.1934 0.882 0.476 1.234 0.8318 0.352 0.3556 0.632 0.7774 0.822 1.241 0.19 0.4636 0.286 0.9602 0.284 1.4612Z" stroke-width="2"></path>
  <path fill="#e8a849" d="M300.032 212.8c-0.006 0.75 -0.234 1.482 -0.656 2.104 -0.422 0.62 -1.016 1.102 -1.712 1.384 -0.694 0.284 -1.458 0.354 -2.192 0.204 -0.736 -0.15 -1.41 -0.514 -1.938 -1.048 -0.528 -0.532 -0.888 -1.21 -1.032 -1.946 -0.144 -0.736 -0.066 -1.498 0.222 -2.19 0.288 -0.694 0.776 -1.284 1.4 -1.7 0.624 -0.418 1.358 -0.64 2.108 -0.64 0.502 0.002 0.998 0.102 1.46 0.296 0.462 0.194 0.882 0.476 1.236 0.832 0.352 0.356 0.632 0.778 0.822 1.242 0.188 0.464 0.284 0.962 0.282 1.462Z" stroke-width="2"></path>
  <path fill="#e8a849" d="M277.28 189.8008c-0.006 0.7502 -0.234 1.4816 -0.656 2.1024 -0.422 0.6206 -1.016 1.1026 -1.712 1.3854 -0.694 0.2828 -1.458 0.3534 -2.192 0.2032 -0.736 -0.1502 -1.41 -0.5146 -1.938 -1.0474 -0.528 -0.5326 -0.888 -1.2098 -1.032 -1.946 -0.144 -0.7362 -0.066 -1.4986 0.222 -2.1912 0.288 -0.6924 0.776 -1.284 1.4 -1.7002 0.624 -0.4162 1.358 -0.6382 2.108 -0.6382 0.502 0.0016 0.998 0.102 1.46 0.2954 0.462 0.1936 0.882 0.4764 1.234 0.8324 0.354 0.3558 0.634 0.778 0.822 1.242 0.19 0.464 0.286 0.9608 0.284 1.4622Z" stroke-width="2"></path>
  <path fill="#e8a849" d="M381.56 201.296c-0.006 0.752 -0.234 1.482 -0.656 2.104 -0.42 0.62 -1.016 1.102 -1.712 1.384 -0.694 0.284 -1.458 0.354 -2.192 0.204 -0.736 -0.15 -1.41 -0.514 -1.938 -1.048 -0.528 -0.532 -0.886 -1.21 -1.03 -1.946 -0.144 -0.736 -0.068 -1.498 0.22 -2.1906 0.29 -0.6926 0.776 -1.2842 1.4 -1.7002 0.624 -0.4162 1.358 -0.6384 2.108 -0.6384 0.502 0.0014 0.998 0.1016 1.46 0.295 0.462 0.1934 0.882 0.4762 1.236 0.8322 0.352 0.356 0.632 0.7782 0.822 1.2424 0.19 0.4636 0.286 0.9616 0.282 1.4616Z" stroke-width="2"></path>
  <path fill="#e8a849" d="M381.452 289.554c-0.006 0.75 -0.234 1.482 -0.656 2.104 -0.42 0.62 -1.016 1.102 -1.712 1.384 -0.694 0.284 -1.458 0.354 -2.192 0.204 -0.736 -0.15 -1.41 -0.514 -1.938 -1.048 -0.528 -0.532 -0.886 -1.21 -1.03 -1.946 -0.144 -0.736 -0.068 -1.498 0.22 -2.19 0.29 -0.694 0.776 -1.284 1.4 -1.702 0.624 -0.416 1.358 -0.638 2.108 -0.638 0.502 0.002 0.998 0.102 1.46 0.296 0.462 0.194 0.882 0.476 1.236 0.832 0.352 0.356 0.632 0.778 0.822 1.242 0.19 0.464 0.286 0.962 0.282 1.462Z" stroke-width="2"></path>
  <path fill="#e8a849" d="M351.224 239.61c-0.006 0.75 -0.234 1.482 -0.656 2.102 -0.42 0.62 -1.016 1.102 -1.712 1.386 -0.694 0.282 -1.458 0.352 -2.192 0.202 -0.736 -0.15 -1.41 -0.514 -1.938 -1.046 -0.528 -0.534 -0.886 -1.21 -1.03 -1.948 -0.144 -0.736 -0.068 -1.498 0.22 -2.19 0.29 -0.692 0.776 -1.284 1.4 -1.7 0.624 -0.416 1.358 -0.638 2.108 -0.638 0.502 0 0.998 0.102 1.46 0.294 0.462 0.194 0.882 0.478 1.236 0.834 0.352 0.356 0.632 0.778 0.822 1.242 0.188 0.464 0.286 0.96 0.282 1.462Z" stroke-width="2"></path>
  <path fill="#e8a849" d="M387.248 230.034c-0.006 0.75 -0.236 1.482 -0.658 2.102 -0.422 0.62 -1.018 1.102 -1.714 1.384 -0.694 0.282 -1.458 0.352 -2.194 0.202 -0.734 -0.152 -1.408 -0.518 -1.936 -1.052s-0.886 -1.212 -1.028 -1.948c-0.142 -0.736 -0.064 -1.5 0.226 -2.192 0.29 -0.692 0.778 -1.282 1.404 -1.698 0.626 -0.414 1.36 -0.634 2.11 -0.632 0.5 0.002 0.996 0.104 1.458 0.298 0.46 0.194 0.88 0.478 1.232 0.834s0.63 0.778 0.818 1.24c0.19 0.464 0.286 0.96 0.282 1.462Z" stroke-width="2"></path>
  <path fill="#e8a849" d="M334.16 264.516c-0.006 0.75 -0.234 1.482 -0.656 2.102 -0.42 0.62 -1.016 1.102 -1.712 1.386 -0.694 0.282 -1.458 0.352 -2.192 0.202 -0.736 -0.15 -1.41 -0.514 -1.938 -1.046 -0.528 -0.534 -0.886 -1.21 -1.03 -1.946 -0.144 -0.738 -0.068 -1.5 0.22 -2.192 0.29 -0.692 0.776 -1.284 1.4 -1.7 0.624 -0.416 1.358 -0.638 2.108 -0.638 0.502 0 0.998 0.098 1.462 0.292 0.464 0.192 0.884 0.476 1.236 0.832 0.354 0.356 0.634 0.778 0.822 1.244 0.19 0.464 0.284 0.962 0.28 1.464Z" stroke-width="2"></path>
  <path fill="#e8a849" d="M269.696 241.528c-0.006 0.75 -0.234 1.482 -0.656 2.102 -0.422 0.62 -1.016 1.102 -1.712 1.386 -0.694 0.282 -1.458 0.352 -2.192 0.202 -0.736 -0.15 -1.41 -0.514 -1.938 -1.046 -0.528 -0.534 -0.888 -1.21 -1.032 -1.948 -0.144 -0.736 -0.066 -1.498 0.222 -2.19 0.29 -0.692 0.776 -1.284 1.4 -1.7 0.624 -0.416 1.358 -0.638 2.108 -0.638 0.502 0 0.998 0.102 1.46 0.294 0.462 0.194 0.882 0.478 1.234 0.834 0.354 0.356 0.634 0.778 0.822 1.242 0.19 0.464 0.286 0.96 0.284 1.462Z" stroke-width="2"></path>
  <path fill="#e8a849" d="M294.344 277.924c-0.006 0.75 -0.234 1.482 -0.654 2.102 -0.422 0.622 -1.018 1.104 -1.712 1.388 -0.696 0.282 -1.458 0.354 -2.194 0.204 -0.734 -0.15 -1.408 -0.516 -1.938 -1.048 -0.528 -0.532 -0.886 -1.21 -1.032 -1.946 -0.144 -0.736 -0.066 -1.498 0.222 -2.192 0.288 -0.692 0.776 -1.284 1.4 -1.7 0.624 -0.416 1.358 -0.638 2.108 -0.638 0.502 0.002 0.998 0.102 1.46 0.296 0.462 0.192 0.882 0.476 1.234 0.83 0.354 0.356 0.632 0.778 0.822 1.242 0.19 0.464 0.286 0.96 0.284 1.462Z" stroke-width="2"></path>
  <path fill="#e8a849" d="M366.4 258.768c-0.006 0.75 -0.234 1.482 -0.654 2.102 -0.422 0.622 -1.018 1.104 -1.712 1.386 -0.696 0.284 -1.458 0.354 -2.194 0.204 -0.734 -0.15 -1.408 -0.514 -1.938 -1.046 -0.528 -0.532 -0.886 -1.21 -1.03 -1.946 -0.146 -0.736 -0.068 -1.498 0.22 -2.192 0.288 -0.692 0.776 -1.284 1.4 -1.7 0.624 -0.416 1.358 -0.638 2.108 -0.638 0.502 0.002 0.998 0.102 1.46 0.294 0.462 0.194 0.882 0.476 1.234 0.832 0.354 0.356 0.632 0.778 0.822 1.242 0.19 0.464 0.286 0.96 0.284 1.462Z" stroke-width="2"></path>
  <path fill="#e8a849" d="M346.8 295.262c-0.006 0.75 -0.234 1.482 -0.656 2.102 -0.422 0.62 -1.016 1.102 -1.712 1.386 -0.694 0.282 -1.458 0.352 -2.192 0.202 -0.736 -0.15 -1.41 -0.514 -1.938 -1.046 -0.528 -0.534 -0.888 -1.21 -1.032 -1.946 -0.144 -0.736 -0.066 -1.5 0.222 -2.192 0.29 -0.692 0.776 -1.284 1.4 -1.7 0.624 -0.416 1.358 -0.638 2.108 -0.638 0.502 0 0.998 0.102 1.46 0.294 0.462 0.194 0.882 0.476 1.236 0.832 0.352 0.356 0.632 0.78 0.822 1.244 0.188 0.464 0.284 0.96 0.282 1.462Z" stroke-width="2"></path>
  <path fill="#e8a849" d="M360.704 214.704c-0.006 0.752 -0.234 1.482 -0.654 2.104 -0.422 0.62 -1.018 1.104 -1.712 1.386 -0.694 0.284 -1.458 0.354 -2.194 0.204 -0.734 -0.15 -1.408 -0.514 -1.938 -1.046 -0.528 -0.534 -0.886 -1.21 -1.03 -1.946 -0.144 -0.736 -0.068 -1.5 0.22 -2.192 0.29 -0.692 0.776 -1.284 1.4 -1.7 0.624 -0.416 1.358 -0.638 2.108 -0.638 0.502 0 0.998 0.1 1.46 0.294 0.462 0.194 0.882 0.476 1.234 0.832 0.354 0.356 0.632 0.778 0.822 1.242 0.19 0.464 0.286 0.96 0.284 1.46Z" stroke-width="2"></path>
  <path fill="#e8a849" d="M296.24 340.068c-0.006 0.75 -0.234 1.482 -0.654 2.104 -0.422 0.62 -1.018 1.102 -1.712 1.386 -0.696 0.282 -1.458 0.354 -2.194 0.204 -0.734 -0.15 -1.408 -0.514 -1.938 -1.048 -0.528 -0.532 -0.886 -1.21 -1.032 -1.946 -0.144 -0.736 -0.066 -1.498 0.222 -2.19 0.288 -0.694 0.776 -1.286 1.4 -1.702 0.624 -0.416 1.358 -0.638 2.108 -0.638 0.502 0.002 0.996 0.102 1.46 0.296 0.462 0.194 0.882 0.476 1.234 0.832 0.354 0.356 0.632 0.776 0.822 1.24 0.19 0.464 0.286 0.962 0.284 1.462Z" stroke-width="2"></path>
  <path fill="#e8a849" d="M260.216 353.476c-0.006 0.75 -0.234 1.482 -0.656 2.102 -0.422 0.622 -1.016 1.104 -1.712 1.386 -0.694 0.284 -1.458 0.354 -2.192 0.204 -0.736 -0.15 -1.41 -0.516 -1.938 -1.048s-0.888 -1.21 -1.032 -1.946c-0.144 -0.736 -0.066 -1.498 0.222 -2.19 0.29 -0.694 0.776 -1.286 1.4 -1.702 0.624 -0.416 1.358 -0.638 2.108 -0.638 0.502 0.002 0.998 0.102 1.46 0.296 0.462 0.194 0.882 0.476 1.234 0.832 0.354 0.356 0.634 0.778 0.822 1.242 0.19 0.464 0.286 0.962 0.284 1.462Z" stroke-width="2"></path>
  <path fill="#e8a849" d="M322.784 364.972c-0.006 0.75 -0.234 1.482 -0.656 2.102 -0.422 0.622 -1.016 1.104 -1.712 1.386 -0.694 0.284 -1.458 0.354 -2.192 0.204 -0.736 -0.15 -1.41 -0.514 -1.938 -1.048 -0.528 -0.532 -0.888 -1.21 -1.032 -1.946 -0.144 -0.736 -0.066 -1.498 0.222 -2.19 0.288 -0.694 0.776 -1.284 1.4 -1.702 0.624 -0.416 1.358 -0.638 2.108 -0.638 0.502 0.002 0.998 0.102 1.46 0.296 0.462 0.194 0.882 0.476 1.234 0.832 0.354 0.356 0.634 0.778 0.822 1.242 0.19 0.464 0.286 0.962 0.284 1.462Z" stroke-width="2"></path>
  <path fill="#e8a849" d="M230.942 328.578c-0.006 0.75 -0.234 1.482 -0.656 2.102 -0.422 0.622 -1.016 1.104 -1.712 1.386 -0.694 0.282 -1.458 0.354 -2.192 0.204 -0.736 -0.152 -1.41 -0.516 -1.938 -1.048s-0.886 -1.21 -1.032 -1.946c-0.144 -0.736 -0.066 -1.498 0.222 -2.192 0.29 -0.692 0.776 -1.284 1.4 -1.7 0.624 -0.416 1.358 -0.638 2.108 -0.638 0.502 0.002 0.998 0.102 1.46 0.296 0.462 0.194 0.882 0.476 1.234 0.832 0.354 0.356 0.634 0.778 0.822 1.242 0.19 0.464 0.286 0.96 0.284 1.462Z" stroke-width="2"></path>
  <path fill="#e8a849" d="M256.424 295.262c-0.006 0.75 -0.234 1.482 -0.656 2.102 -0.422 0.62 -1.016 1.102 -1.712 1.386 -0.694 0.282 -1.458 0.352 -2.192 0.202 -0.736 -0.15 -1.41 -0.514 -1.938 -1.046 -0.528 -0.534 -0.888 -1.21 -1.032 -1.946 -0.144 -0.736 -0.066 -1.5 0.222 -2.192 0.29 -0.692 0.776 -1.284 1.4 -1.7 0.624 -0.416 1.358 -0.638 2.108 -0.638 0.502 0 0.998 0.102 1.46 0.294 0.462 0.194 0.882 0.476 1.236 0.832 0.352 0.356 0.632 0.78 0.822 1.244 0.188 0.464 0.284 0.96 0.282 1.462Z" stroke-width="2"></path>
  <path fill="#e8a849" d="M277.28 368.8c-0.006 0.75 -0.234 1.482 -0.656 2.104 -0.422 0.62 -1.016 1.102 -1.712 1.384 -0.694 0.284 -1.458 0.354 -2.192 0.204 -0.736 -0.15 -1.41 -0.514 -1.938 -1.048 -0.528 -0.532 -0.888 -1.21 -1.032 -1.946 -0.144 -0.736 -0.066 -1.498 0.222 -2.19 0.288 -0.694 0.776 -1.284 1.4 -1.7 0.624 -0.418 1.358 -0.64 2.108 -0.64 0.502 0.002 0.998 0.102 1.46 0.296 0.462 0.194 0.882 0.476 1.236 0.832 0.352 0.356 0.632 0.778 0.822 1.242 0.188 0.464 0.284 0.962 0.282 1.462Z" stroke-width="2"></path>
  <path fill="#e8a849" d="M245.428 185.6796c-0.006 0.7502 -0.234 1.4818 -0.656 2.1024 -0.422 0.6208 -1.016 1.1028 -1.712 1.3854 -0.694 0.2828 -1.458 0.3536 -2.192 0.2032 -0.736 -0.1502 -1.41 -0.5146 -1.938 -1.0472 -0.528 -0.5328 -0.888 -1.2098 -1.032 -1.946 -0.144 -0.7364 -0.066 -1.4988 0.222 -2.1912 0.288 -0.6926 0.776 -1.2842 1.4 -1.7002 0.624 -0.4162 1.358 -0.6384 2.108 -0.6384 0.502 0.0014 0.998 0.1016 1.46 0.295 0.462 0.1934 0.882 0.4762 1.236 0.8322 0.352 0.356 0.632 0.7782 0.822 1.2424 0.188 0.4642 0.284 0.961 0.282 1.4624Z" stroke-width="2"></path>
  <path fill="#e8a849" d="M227.15 271.238c-0.006 0.75 -0.234 1.482 -0.656 2.102 -0.422 0.622 -1.016 1.104 -1.712 1.386 -0.694 0.282 -1.458 0.354 -2.192 0.204 -0.736 -0.15 -1.41 -0.516 -1.938 -1.048s-0.886 -1.21 -1.03 -1.946c-0.146 -0.736 -0.068 -1.498 0.22 -2.192 0.29 -0.692 0.776 -1.284 1.4 -1.7 0.624 -0.416 1.358 -0.638 2.108 -0.638 0.502 0.002 0.998 0.102 1.46 0.296 0.462 0.192 0.882 0.476 1.236 0.832 0.352 0.356 0.632 0.778 0.822 1.242 0.188 0.464 0.286 0.96 0.282 1.462Z" stroke-width="2"></path>
  <path fill="#e8a849" d="M265.254 210.874c-0.006 0.752 -0.234 1.482 -0.656 2.104 -0.422 0.62 -1.016 1.102 -1.712 1.384 -0.694 0.284 -1.458 0.354 -2.192 0.204 -0.736 -0.15 -1.41 -0.514 -1.938 -1.048 -0.528 -0.532 -0.886 -1.21 -1.03 -1.946 -0.146 -0.736 -0.068 -1.498 0.22 -2.19 0.29 -0.694 0.776 -1.284 1.4 -1.7 0.624 -0.416 1.358 -0.64 2.108 -0.64 0.502 0.002 0.998 0.102 1.46 0.296 0.462 0.194 0.882 0.476 1.236 0.832 0.352 0.356 0.632 0.778 0.822 1.242 0.188 0.464 0.286 0.962 0.282 1.462Z" stroke-width="2"></path>
  <path fill="#fdf0d5" d="m178.7322 248.302 -0.294 0.826c-0.3466 -0.138 -0.7014 -0.254 -1.062 -0.35l0.07 -0.252c-1.356 -2.8 -5.088 -13.068 -6.556 -15.8 -2.2 -4.124 -5.866 -6.768 -8.818 -10.246 -3.838 -4.518 -5.058 -9.744 -11.446 -11.572 -9.294 -2.66 -20.558 1.4 -27.422 7.744 -2.8098 2.29 -4.969 5.278 -6.262 8.664 -0.432 1.496 -0.516 3.73 1.384 4.222 5.724 1.48 11.212 -10.134 22.894 -11.656l0.222 1.676c-3.0132 2.332 -5.6036 5.164 -7.658 8.372 -0.9998 1.58 -1.5152 3.42 -1.483 5.29 0.0324 1.87 0.6112 3.69 1.665 5.234 0.672 0.96 1.746 2.306 3.074 2.25 1.02 -0.042 1.914 -1.02 2.726 -1.524l0.558 0.2c-1.244 4.11 -0.852 8.078 4.096 10.064h0.894c-1.88 6.15 2.688 10.444 8.162 7.854 0.302 0.452 2.282 2.708 2.502 2.962 2.344 2.704 4.864 5.898 8.4 7.072l0.14 0.14c-0.9096 1.372 -1.3236 3.014 -1.174 4.654 0.1076 1.342 0.3942 2.662 0.852 3.928l1.3 0.63c-3.67 3.568 -3.03 9.47 1.844 13.066l0.49 0.462c-3.63 3.726 1.688 7.744 3.9 11.182 1.306 2.03 2.654 5.342 5.4 6.33 3.884 1.4 6.31 -2.856 6.052 -5.45 -0.171 -1.522 -0.7082 -2.98 -1.566 -4.25 -0.098 -0.166 -1.384 -2.042 -1.2 -2.152 0.098 -0.056 0.784 0.7 0.84 0.756 2.442 2.442 4.086 4.44 7.742 5.618l-0.028 0.084c1.4834 7.944 1.7704 16.066 0.852 24.094 -0.456 3.848 -1.214 8.15 -3.94 10.6 -3.744 3.358 -9.784 2.626 -14.116 2.544 -11 -0.2 -22.536 -1.4 -33.614 -1.69 -10.17 -0.266 -26.782 0.352 -35.848 -2.126 -0.296 -0.08 -1.314 -0.46 -1.412 -0.46 -0.114 -0.25 0.6 -0.386 -5.982 2.32 -7.154 2.938 -15.108 7.108 -22.824 6.904 -7.086 -0.188 -15.504 -6.8 -20.056 -13.138 -1.758 -2.448 -1.8 -9.07 -0.894 -14.34l0.112 -0.978c2.2 0.28 4.4 0.4 6.61 0.504 3.0224 0.196 6.046 -0.362 8.8 -1.622 0.9316 -0.522 1.7604 -1.208 2.446 -2.026 0.2782 -0.478 0.5254 -0.972 0.74 -1.482l-0.014 -0.154c1.6 -0.168 3.186 -0.266 4.752 -0.322 3.298 -0.116 9.66 1.482 11.012 -2.166 0.2024 -0.544 0.2516 -1.134 0.142 -1.704 -0.07 -0.504 -0.966 -1.034 -0.6 -1.412l0.028 -0.434c0.2 0.028 0.4 0.032 0.588 0.042 1.578 0.084 6.526 0.238 7.518 -1.83 0.262 0.098 -1.918 0.434 20.364 -3 10.496 -1.62 8.8 -6.708 8.8 -6.708s-8.4 -43.746 -13.712 -72.788l0.266 -0.168 0.936 1.412 5.702 -4.276 -4.766 -7.17 9.086 -6.374 -4.376 -5.646 -8.674 6.064 -1.176 -1.786 0.084 -0.056 -1.23 -6.7076c-1.552 -8.512 -5.94 -8.666 -5.94 -8.666s-48.556 -7.832 -63.104 -9.936c-9.13 -1.334 -6.274 6.352 -6.274 6.352l14 78.2936 -4.218 -2.894c-6.9572 -4.756 -14.1548 -9.15 -21.56392 -13.166 -2.362 -1.09 -5.49 -2.366 -6.584 -4.334 -2.438 -4.4 0.84 -14.074 1.622 -18.576 1.902 -10.956 4.2 -21.844 6.234 -32.7876 1.31192 -7.086 2.00992 -15.234 5.67392 -21.6 5.4 -9.4 19.318 -15.454 27.98 -21.342 4.9262 -3.5284 10.1018 -6.6946 15.486 -9.474 -1.212 7.03 2 13.168 5.268 19.566 4.018 7.862 9.312 19.546 14.97 18.4 3.766 -0.766 5.786 -8.316 10.2 -13.178 5.906 -5.788 9.328 -6.36 9.112 -8.26l0.364 -0.048c2.236 1.844 5.338 2.4 6.89 4.932 0.28 -0.6 1.4 -3.926 1.048 -4.332l0.2 -0.168c0.7784 0.6886 1.6372 1.2804 2.558 1.762 1.5504 1.1498 2.925 2.5196 4.08 4.066 1.776 2.362 3.844 6.2 5.312 5.814 0.964 -0.252 1.4 -1.758 1.634 -2.558 2.428 -8.474 2.284 -25.4 -3.718 -40.488 0.14 -0.2 0.28 -0.42 0.42 -0.644l0.506 0.32c0.74 0.882 3.382 1.44 4.388 1.888 11.656 5.2 24.972 11.01 36.702 15.416 6.12 2.298 12.734 4.19 18.434 7.434 8.906 5.07 12.716 16.118 16.8698 24.85 3.366 7.074 6.83 14.098 10.51 21 1.584 2.976 4.864 7.0996 5.018 10.5996 -0.136 1.25 -0.682 2.42 -1.552 3.328 -8.462 11.466 -27.7598 28.98 -38.3678 38.482Z" stroke-width="2"></path>
  <path fill="#ffffff" d="M217.292 263.956c0.632 3.55 2.068 9.154 0.6 12.718l-0.2 0.154c-5.57 -8.05 -12.108 -10.944 -20.6718 -17.022 -4.78 -3.4 -12.368 -8.872 -18.588 -10.678l0.294 -0.826c8.036 -7.2 22.5298 -20.474 30.8178 -29.49 0.642 4.488 1.84 13.95 2.472 18.03 1.422 9.114 3.662 18.042 5.276 27.114Z" stroke-width="2"></path>
  <path fill="#e8a849" d="M216.566 34.401c1.618 7.31 -2.11 14.968 -7.842 19.496 -1.498 1.186 -6.142 2.632 -6.988 4.222 -1.026 1.932 5.776 6.59 2.236 8.302 -4.1736 2.02 -9.7036 -6.278 -8.7476 -9.714 0.848 -3.048 6.0916 -4.42 8.5376 -5.772 6 -3.32 7.38 -9.168 5.2 -15.444 -1.636 -4.71 -10.2156 -11.724 -15.4576 -6.708 -3.214 3.076 3.0178 13.332 0.2798 15.22 -3.748 2.584 -7.02 -6.418 -8.022 -9.77 -0.5076 -2.8014 -0.3838 -5.6806 0.362 -8.428 6.422 -13.15206 28.0338 -2.28 30.4418 8.596Z" stroke-width="2"></path>
  <path fill="#e8a849" d="M210.43 69.4004c0.326 0.3584 0.536 0.8082 0.6 1.2888 0.062 0.4808 -0.022 0.9694 -0.244 1.4004 -0.222 0.431 -0.57 0.784 -0.998 1.0114 -0.428 0.2276 -0.916 0.3186 -1.398 0.2614 -0.374 -0.0754 -0.722 -0.249 -1.006 -0.503 -0.286 -0.2542 -0.498 -0.5798 -0.616 -0.943 -0.1 -0.7484 0.032 -1.5096 0.378 -2.18 0.178 -0.258 0.412 -0.4742 0.682 -0.6338 0.27 -0.1594 0.57 -0.2586 0.884 -0.2906 0.312 -0.0318 0.626 0.0042 0.924 0.1058 0.296 0.1014 0.568 0.2662 0.794 0.4826Z" stroke-width="2"></path>
  <path fill="#e8a849" d="M187.174 58.9118c0.724 7.45 -3.906 14.612 -10.148 18.422 -1.622 1 -6.416 1.872 -7.45 3.354 -1.258 1.8 4.95 7.228 1.23 8.512 -4.386 1.512 -8.882 -7.384 -7.518 -10.678 1.2 -2.924 6.58 -3.668 9.182 -4.724 6.354 -2.584 8.438 -8.222 7.03 -14.718 -1.054 -4.866 -8.732 -12.84 -14.55 -8.484 -3.548 2.658 1.382 13.6 -1.55 15.136 -4.03 2.12 -6.2 -7.2 -6.8 -10.65 -0.1556 -2.8454 0.3226 -5.6898 1.4 -8.328 7.962 -12.288 28.094 1.076 29.174 12.158Z" stroke-width="2"></path>
  <path fill="#ffffff" d="M183.986 264.432c-1.858 0.028 -3.73 0.116 -5.576 0.28 -4.64 0.414 -11.236 0.922 -13.892 4.752l-0.14 -0.14c-3.536 -1.174 -6.056 -4.368 -8.4 -7.072 -0.234 -0.27 -2.2 -2.508 -2.502 -2.962 1.7602 -0.88 3.3168 -2.12 4.57 -3.636l0.028 -0.376c3.718 0.294 7.476 0.034 11.168 0.586 5.938 0.89 10.44 5.138 14.744 8.568Z" stroke-width="2"></path>
  <path fill="#ffffff" d="M153.4762 259.29c-5.4 2.628 -10.054 -1.668 -8.162 -7.854h-0.894c-4.948 -1.986 -5.34 -5.954 -4.096 -10.064l-0.558 -0.2c-1.546 0.96 -3.022 3.24 -5.8 -0.726 -1.0534 -1.544 -1.6318 -3.364 -1.6642 -5.234 -0.0324 -1.87 0.4828 -3.708 1.4822 -5.29 2.0544 -3.208 4.6448 -6.04 7.658 -8.372l-0.222 -1.676c-11.6 1.51 -17.222 13.122 -22.894 11.656 -1.9 -0.492 -1.816 -2.726 -1.384 -4.222 1.2928 -3.386 3.4522 -6.374 6.262 -8.664 6.864 -6.344 18.128 -10.4 27.422 -7.744 6.388 1.828 7.6 7.054 11.446 11.572 2.952 3.478 6.6 6.122 8.818 10.246 1.468 2.738 5.2 13.012 6.556 15.8l-0.07 0.252c-6.2994 -2.132 -13.0646 -2.49 -19.554 -1.034 -2.046 0.474 -8.172 2.64 -6.064 5.492 1.3696 1.24 3.1528 1.924 5 1.916 0.434 0.052 0.882 0.096 1.314 0.124l-0.028 0.376c-1.2444 1.528 -2.8022 2.772 -4.568 3.646Z" stroke-width="2"></path>
  <path fill="#e8a849" d="M176.8584 92.9146c0.2752 0.398 0.4234 0.8698 0.4256 1.3536 0.0024 0.4836 -0.1418 0.9568 -0.413 1.3572 -0.2714 0.4006 -0.6576 0.7096 -1.1076 0.8868 -0.4502 0.1774 -0.9434 0.2144 -1.415 0.1064 -0.3638 -0.12 -0.6894 -0.3346 -0.943 -0.6216 -0.2538 -0.2872 -0.4266 -0.6366 -0.501 -1.0124 -0.0074 -0.7552 0.222 -1.4938 0.656 -2.112 0.2066 -0.2358 0.4618 -0.4242 0.7482 -0.5518 0.2864 -0.1278 0.597 -0.1918 0.9106 -0.1878 0.3134 0.004 0.6224 0.076 0.9054 0.2108 0.283 0.135 0.5334 0.3298 0.7338 0.5708Z" stroke-width="2"></path>
  <path fill="#1c3b67" d="M129.91 51.4008c-12.944 10.77 -30.78 18.756 -48.218 18.4l-0.014 0.684c-0.084 1.118 -0.574 2.502 -0.712 3.676 -0.58 4.934 -1.104 11.266 0.446 16.102l-0.292 0.126c-1.538 -3.69 -7.45 -7.7 -11.182 -5.718 -4.376 2.326 -5.942 10.668 -1.216 16.018l-0.8 0.252c-2.516 -1.776 -3.012 -5.2 -5.214 -7.142 -0.742 -0.654 -1.382 0.8 -2.068 0.95 -1 0.216 -2 -1.7 -2.306 -2.32 -1.1284 -2.372 -1.9052 -4.896 -2.306 -7.492 -0.116 -0.672 -0.116 -2.634 -0.768 -3.074 -1.088 -0.734 -2.4 6.952 -4.334 1.76 -3.086 -8.33 -0.436 -18.52 2.88 -26.316 5.932 -13.952 17.57 -25.252 32.746 -28.4 6.4578 -1.2828 13.0888 -1.439 19.6 -0.462 5.6 0.8 11.946 1.726 16.772 4.892 2.8956 2.2538 5.4312 4.9352 7.52 7.952l0.168 -0.14c11.53 3.494 13.262 5.844 15.778 8.6 10.128 11.074 4.85 27.128 -6.262 35.2l-0.672 0.042c-0.55 -7.34 3.142 -17.372 -1.188 -25.38 -4.846 -8.99 -6.836 -6.888 -8.358 -8.21Z" stroke-width="2"></path>
  <path fill="#ffffff" d="M118.5182 132.1044c-0.368 4.9106 -0.2468 9.8456 0.362 14.732l0.056 0.014c-0.646 2.032 -2 4.574 -2.878 6.778 -0.4812 0.8672 -0.6446 1.8752 -0.462 2.85 0.302 0.7 0.49 0.414 0.142 0.712 0.35 0.4 -0.768 3.732 -1.048 4.332 -1.552 -2.522 -4.654 -3.088 -6.89 -4.922 -0.578 0.066 -0.242 0.106 -0.448 -0.306 -0.782 -1.888 -4.54 -2.788 -6.232 -3.44 -7.29 -2.8 -14.36 -4.136 -20.84 -9.084l0.294 -0.4c-1.076 -4.278 -1.902 -8.6 -2.572 -12.984 -2.432 -15.902 -1.212 -17.506 -2.756 -22.586 -1 -3.298 -4.4 -4.686 -6.524 -7.114 -4.738 -5.424 -3.148 -13.698 1.216 -16.018 3.732 -1.982 9.644 2.028 11.182 5.718l0.292 -0.126c-1.55 -4.836 -1.026 -11.168 -0.446 -16.102 0.138 -1.174 0.628 -2.558 0.712 -3.676l0.014 -0.684c17.4 0.362 35.234 -7.588 48.218 -18.4 1.666 1.456 3.44 -0.906 8.358 8.19 4.326 8 0.654 17.938 1.188 25.38 0.382 5.324 2.6 9.742 0.976 15.416 -1.624 5.674 -5.256 10.468 -8.652 15.234 -4.46 6.258 -5.906 13.196 -13.262 16.486Z" stroke-width="2"></path>
  <path fill="#fdf0d5" d="m118.9362 146.8492 -0.056 -0.014c-0.5892 -4.888 -0.7104 -9.821 -0.362 -14.732 3.0352 -1.3638 5.5776 -3.6282 7.282 -6.486 7.878 19.79 5.22 42.222 2.084 43.046 -0.686 0.18 -1.34 -0.49 -1.748 -0.936 -2.47 -2.714 -3.4 -5.812 -7.644 -8.944 -0.9208 -0.4816 -1.7798 -1.0734 -2.558 -1.762 -0.1384 -0.164 -0.2522 -0.3472 -0.338 -0.544 -0.1826 -0.9748 -0.0192 -1.9828 0.462 -2.85 0.848 -2.116 2.37 -5.112 2.878 -6.778Z" stroke-width="2"></path>
  <path fill="#e8a849" d="M122.4224 295.726s1.704 5.088 -8.8 6.708c-22.372 3.456 -20.1 3.104 -20.364 3 0.1162 -0.26 0.1736 -0.54 0.168 -0.824 -0.04 -2.056 -3.046 -3.316 -4.612 -3.942 -5.8132 -2.036 -11.8814 -3.254 -18.03 -3.62 -1.4 -0.138 -6.926 -0.654 -9.252 -0.574l-0.14 -0.628c5.2 -1.064 10.374 -0.484 15.472 -1.984 1.8 -0.532 7.522 -2.502 6.5 -5.354 -1.174 -3.27 -8.444 -2.762 -11 -2.682 -8.2648 0.462 -16.4882 1.49 -24.612 3.08 -0.45 -1.8 -0.094 0 -1.8 -9.538l-0.042 -0.056c0.8132 -0.556 1.5594 -1.202 2.224 -1.928 1.328 -1.468 2.2 -4.086 -0.168 -5.074 -1.064 -0.442 -2.221 -0.616 -3.368 -0.504 0 -0.2 0.226 1.242 -15.346 -85.8142 0 0 -2.866 -7.682 6.274 -6.358 14.548 2.104 63.104 9.936 63.104 9.936s4.388 0.154 5.94 8.666l1.23 6.7082 -0.084 0.056 -4.752 -7.1422 -5.684 4.2842 6.232 9.378 -9.042 6.526 3.914 5.312 8.776 -6.332 3.816 5.744 -0.266 0.168c5.312 29.042 13.712 72.788 13.712 72.788Z" stroke-width="2"></path>
  <path fill="#fdf0d5" d="M80.2804 143.7606c6.484 4.952 13.508 6.262 20.84 9.084 1.692 0.652 5.45 1.552 6.232 3.44 0.0546 0.108 0.084 0.227 0.086 0.348 0.214 1.888 -3.226 2.492 -9.112 8.26 -4.384 4.826 -6.452 12.414 -10.2 13.178 -4 0.814 -7.372 -4.636 -9.072 -7.364 -2.2 -3.532 -4 -7.32 -5.898 -11.028 -3.644 -7.134 -6.95 -13.524 -4.89 -21.2 0.844 -3.154 5 -10.358 9.642 -8.092l0.092 -0.014c0.672 4.374 1.496 8.706 2.572 12.984l-0.292 0.404Z" stroke-width="2"></path>
  <path fill="#ffffff" d="m119.9342 206.362 -4.376 -5.646 -8.662 6.076 -5.928 -8.9288 -5.688 4.2788 6.232 9.378 -9.042 6.526 3.914 5.312 8.776 -6.332 4.752 7.156 5.702 -4.276 -4.722 -7.108 9.042 -6.436Z" stroke-width="2"></path>
  <path fill="#ffffff" d="m85.1602 307.228 -0.028 0.434c-0.364 0.378 0.532 0.908 0.6 1.412 0.111 0.57 0.0626 1.16 -0.1394 1.706 -0.2022 0.544 -0.5504 1.022 -1.0066 1.382 -2.388 1.8 -7.212 0.684 -10 0.782 -1.566 0.056 -3.158 0.154 -4.752 0.322l0.014 0.154c-0.2126 0.51 -0.4598 1.006 -0.74 1.482 -5.08 6.072 -16.136 2.836 -25.298 2.474 -8.106 -0.32 -16.702 1.314 -20.572 -7.632l-0.504 -0.376c-1.1632 -1.198 -2.5246 -2.186 -4.02398 -2.922 -1.59364 -1.098 -2.91136 -2.55 -3.85 -4.244 -5.154 -9.324 0.02 -21.638 1.496 -31.266 1.01158 -6.414 1.42802 -12.908 1.244 -19.4 -0.02388 -0.856 -0.13172 -1.708 -0.322 -2.544l0.2 -0.77c0.544 0.252 1.046 0.492 1.466 0.726 11.37998 6.35 19.69798 12.164 24.31998 15.332 1.364 7.618 1.342 7.32 1.342 7.52 1.147 -0.112 2.304 0.062 3.368 0.504 2.364 0.988 1.496 3.6 0.168 5.074 -2.334 2.578 -5.788 3.652 -7.716 6.54 -0.2786 0.314 -0.4862 0.684 -0.6088 1.084 -0.1224 0.4 -0.157 0.824 -0.1012 1.238 0.056 0.416 0.2008 0.814 0.4248 1.168s0.5218 0.656 0.8732 0.884c2.1244 0.932 4.4948 1.142 6.75 0.6 8.1236 -1.59 16.347 -2.618 24.612 -3.08 2.556 -0.08 9.826 -0.588 11 2.682 1.022 2.852 -4.696 4.822 -6.5 5.354 -5.098 1.5 -10.266 0.92 -15.472 1.984l0.14 0.628c-0.238 0.2 0.658 -0.03 0.978 -0.028 1.648 0.016 6.6 0.436 8.274 0.6 6.1486 0.366 12.2168 1.584 18.03 3.62 1.566 0.626 4.572 1.886 4.612 3.942 0.054 2.708 -4.968 2.8 -7.686 2.654 -0.2 0.012 -0.396 0.008 -0.592 -0.02Z" stroke-width="2"></path>
  <path fill="#1c3b67" d="M289.536 108.6448c0.788 0.947 1.37 2.0468 1.71 3.23 0.076 0.2542 0.25 0.4674 0.484 0.5932 0.234 0.1256 0.508 0.1532 0.762 0.0768 0.254 -0.0764 0.468 -0.2506 0.594 -0.4842 0.126 -0.2336 0.152 -0.5076 0.076 -0.7618 -0.424 -1.4428 -1.14 -2.7836 -2.102 -3.94 1.25 -0.8904 2.654 -1.5396 4.142 -1.914 0.258 -0.0646 0.48 -0.229 0.616 -0.4568 0.136 -0.228 0.176 -0.5006 0.112 -0.7582 -0.066 -0.2574 -0.23 -0.4788 -0.458 -0.615 -0.228 -0.1364 -0.5 -0.1766 -0.758 -0.112 -3.318 0.835 -6.226 2.83 -8.2 5.624 -2.102 2.888 -1.894 3.63 -1.824 3.874 0.05 0.2086 0.166 0.396 0.328 0.5358 0.162 0.14 0.364 0.2256 0.578 0.2444 0.214 0.019 0.428 -0.0294 0.614 -0.1384 0.184 -0.1092 0.33 -0.2734 0.416 -0.4698 0.07 -0.1688 0.092 -0.3532 0.066 -0.534 0.748 -1.4626 1.708 -2.8082 2.844 -3.994Z" stroke-width="2"></path>
  <path fill="#1c3b67" d="M279.35 87.78c5.72 4.1686 12.806 6.0224 19.834 5.19 0.136 -0.0094 0.266 -0.0462 0.388 -0.108 0.12 -0.0618 0.226 -0.1474 0.312 -0.2516 0.086 -0.1042 0.152 -0.2248 0.19 -0.3546 0.038 -0.1298 0.05 -0.266 0.034 -0.4004 -0.016 -0.1344 -0.06 -0.2642 -0.126 -0.3814 -0.068 -0.1174 -0.158 -0.2198 -0.268 -0.301 -0.108 -0.0812 -0.23 -0.1398 -0.362 -0.1718 -0.132 -0.0322 -0.268 -0.0374 -0.402 -0.0152 -6.342 0.7926 -12.752 -0.8162 -17.968 -4.51 -1.814 -1.0118 -3.372 -2.4242 -4.558 -4.13 -0.052 -0.1232 -0.13 -0.2348 -0.226 -0.3278 -0.096 -0.093 -0.21 -0.1658 -0.336 -0.2138 -0.126 -0.0478 -0.258 -0.0702 -0.392 -0.0656 -0.134 0.0048 -0.266 0.0364 -0.388 0.093s-0.23 0.137 -0.32 0.2366 -0.158 0.2162 -0.202 0.343c-0.044 0.1266 -0.062 0.261 -0.054 0.3946 0.01 0.1338 0.046 0.2644 0.106 0.384 1.17 1.9034 2.798 3.4818 4.738 4.59Z" stroke-width="2"></path>
  <path fill="#1c3b67" d="M290.222 87.3858c3.02 0.5272 6.092 0.6724 9.148 0.432 0.266 -0.0212 0.512 -0.147 0.684 -0.3494 0.172 -0.2026 0.258 -0.4654 0.236 -0.7306 -0.022 -0.2652 -0.146 -0.5112 -0.35 -0.6836 -0.202 -0.1726 -0.464 -0.2576 -0.73 -0.2364 -2.796 0.1976 -5.606 0.0748 -8.376 -0.366 -0.636 -0.0546 -1.26 -0.2008 -1.854 -0.434 -0.148 -0.2134 -0.372 -0.3614 -0.626 -0.4124 -0.254 -0.051 -0.518 -0.001 -0.738 0.139 -0.218 0.1402 -0.372 0.3598 -0.432 0.6122 -0.06 0.2526 -0.018 0.5184 0.114 0.7412 0.478 0.836 1.658 1.08 2.924 1.288Z" stroke-width="2"></path>
  <path fill="#1c3b67" d="M367.4 352.324c-4.11 3.824 -9.308 4 -15.334 4.182 -6.994 0.34 -13.964 1.048 -20.884 2.118 -3.988 0.884 -8.06 1.336 -12.144 1.344 -4.65 -0.318 -9.346 -3.336 -14.502 -3.852 -4.038 -0.432 -6.698 1.468 -9.906 3.836 -1.48 1.092 -3.512 2.582 -5.16 2.106 -2.616 -0.734 -3.01 -4.734 -3.058 -8.132 -0.174 -13.672 4.788 -23.42 -0.468 -40.272 -0.398 -1.252 -0.698 -2.534 -0.902 -3.832 -0.206 -1.294 0.096 -2.618 0.846 -3.692 1.57 -1.526 3.628 -2.45 5.812 -2.61 8.742 -1.476 17.538 2.088 28.122 0.2 4.242 -0.85 8.31 -2.536 12.462 -2.536 4.332 0.142 8.526 1.56 12.052 4.08 0.074 0.136 0.178 0.254 0.302 0.344 0.126 0.092 0.27 0.152 0.422 0.18 3.158 2.244 6 4.9 8.452 7.9 0.084 0.102 0.186 0.186 0.302 0.248 0.116 0.062 0.242 0.102 0.372 0.114 0.132 0.014 0.264 0.002 0.39 -0.036s0.242 -0.1 0.344 -0.184c0.102 -0.084 0.186 -0.186 0.248 -0.302 0.062 -0.114 0.102 -0.242 0.114 -0.372 0.014 -0.132 0.002 -0.264 -0.036 -0.39 -0.038 -0.124 -0.1 -0.242 -0.184 -0.344 -1.86 -2.274 -3.936 -4.362 -6.2 -6.236 5.874 1.1 9.948 3.668 15.174 4.2 0.134 0.02 0.27 0.012 0.4 -0.022 0.132 -0.036 0.254 -0.096 0.36 -0.18 0.106 -0.082 0.194 -0.186 0.26 -0.304s0.106 -0.25 0.12 -0.384c0.012 -0.134 -0.002 -0.27 -0.042 -0.398 -0.04 -0.13 -0.106 -0.248 -0.194 -0.352 -0.088 -0.102 -0.194 -0.186 -0.316 -0.246s-0.252 -0.094 -0.388 -0.102c-5.69 -0.582 -11.234 -4.288 -18.526 -4.6 -3.864 -2.872 -8.522 -4.478 -13.336 -4.6 -4.642 -0.086 -8.718 1.728 -12.926 2.572 -10.484 1.87 -18.756 -1.782 -28.086 -0.2 -4 0.694 -7.354 2.022 -8.22 5.96 -0.102 0.456 -0.156 0.922 -0.164 1.388 -8.6 -2.94 -30.188 -10.5 -44.622 -17.136 -0.522 -5.426 -0.102 -10.978 -1.482 -16.422 -2.5 -9.822 -7.234 -17.242 -4.96 -26.97 2.226 -9.516 5.718 -15.928 9.1 -23.108 0.564 -0.984 0.874 -1.528 0.55 -2.12 -0.102 -0.186 -0.26 -0.334 -0.452 -0.424 -0.19 -0.09 -0.406 -0.118 -0.614 -0.078 -0.208 0.04 -0.398 0.146 -0.542 0.3 -0.144 0.156 -0.236 0.352 -0.262 0.562 -0.096 0.22 -0.304 0.572 -0.416 0.766 -0.152 0.284 -2.31 4.824 -2.436 5.1 -3.004 5.894 -5.31 12.116 -6.874 18.544 -1.81 7.74 0.428 13.93 2.648 20.452 2.324 5.66 3.49 11.73 3.426 17.85 0.054 1.498 0.11 3.034 0.224 4.568 -4.886 -2.332 -7.212 -3.242 -15.448 -11.728 -0.674 -0.718 -1.31 -1.472 -1.902 -2.26 1.42 -3.838 0.034 -9.188 -0.642 -13.012 -1.624 -9.088 -3.85 -18.04 -5.266 -27.09 -0.362 -2.356 -2.14 -15.674 -2.4 -17.55 0.654 -0.716 1.268 -1.4 1.828 -2.052 0.09 -0.1 0.16 -0.216 0.204 -0.342 0.044 -0.126 0.062 -0.26 0.054 -0.394 -0.01 -0.134 -0.044 -0.264 -0.104 -0.384s-0.144 -0.226 -0.246 -0.314c-0.102 -0.086 -0.22 -0.152 -0.348 -0.192 -0.128 -0.04 -0.262 -0.054 -0.396 -0.042 -0.134 0.014 -0.262 0.054 -0.38 0.116 -0.118 0.064 -0.222 0.152 -0.306 0.256 -0.418 0.49 -0.87 1 -1.346 1.522 -0.152 -0.014 -0.306 0.008 -0.448 0.064 -0.144 0.056 -0.272 0.144 -0.376 0.256 -0.102 0.112 -0.18 0.248 -0.222 0.396 -0.044 0.146 -0.052 0.302 -0.026 0.452 -8.8778 9.6 -24.1658 23.468 -30.3998 29.058 -1.4 -3.162 -4.924 -12.692 -6.316 -15.292 -2.316 -4.324 -5.986 -6.934 -8.938 -10.42 -3.8 -4.462 -5.106 -9.928 -11.934 -11.884 -10.366 -2.962 -21.976 2.054 -28.374 7.968 -2.9474 2.412 -5.205 5.56 -6.544 9.124 -0.682 2.354 -0.252 4.862 2.092 5.466 6.368 1.656 11.422 -9.524 22.464 -11.508 -2.9792 2.362 -5.5472 5.2 -7.6 8.4 -1.1048 1.75 -1.6734 3.784 -1.6354 5.854 0.038 2.07 0.681 4.082 1.8494 5.79 1.638 2.276 3.4 3.536 5.75 2 -0.4896 1.92 -0.2294 3.954 0.7278 5.688 0.9572 1.734 2.5392 3.038 4.4242 3.646 -1.14 6.4 3.8 10.142 9.108 8.142 3.564 4.182 6.312 7.8 9.954 9.4 -0.6412 1.334 -0.908 2.816 -0.772 4.288 0.108 1.436 0.415 2.85 0.912 4.2 0.0526 0.14 0.1362 0.268 0.2446 0.372 0.1084 0.104 0.2388 0.182 0.3814 0.228 -2.958 3.958 -2.172 9.6 2.564 13.324 -2.2 3.236 0.286 6.4 2.8 9.474 0.9446 1.062 1.7634 2.228 2.44 3.478 1.0124 2.336 2.8152 4.242 5.092 5.382 0.7854 0.308 1.637 0.406 2.4722 0.288 0.8352 -0.118 1.6254 -0.452 2.2938 -0.966 0.8684 -0.694 1.5586 -1.586 2.0134 -2.602 0.455 -1.014 0.6616 -2.124 0.6026 -3.234 -0.0612 -0.542 -0.169 -1.076 -0.322 -1.6 1.2602 1.04 2.685 1.862 4.216 2.432 1.3578 7.698 1.6138 15.55 0.76 23.32 -1.338 10.524 -4.052 12.722 -15.306 12.32 -4.512 -0.176 -4.734 0 -17.98 -0.836 -5.8 -0.37 -11.656 -0.758 -17.366 -0.91 -11 -0.284 -24.584 0.342 -34.574 -1.842 10.5006 -4.782 21.2586 -8.978 32.224 -12.568 0.1298 -0.034 0.2514 -0.094 0.3576 -0.176 0.1062 -0.082 0.1946 -0.186 0.2602 -0.302 0.0656 -0.118 0.107 -0.246 0.1216 -0.38 0.0146 -0.134 0.0022 -0.268 -0.0366 -0.398 -0.0386 -0.128 -0.1028 -0.248 -0.1886 -0.35 -0.0858 -0.104 -0.1916 -0.188 -0.311 -0.25 -0.1192 -0.062 -0.2498 -0.098 -0.3836 -0.108 -0.134 -0.01 -0.2684 0.006 -0.3956 0.05 -9.9462 3.192 -19.7042 6.942 -29.228 11.232 -1.864 0.8 -14 5.914 -15.272 6.466 -6.13 2.646 -12.472 5.366 -18.638 5.226 -6.734 -0.186 -14.954 -6.692 -19.272 -12.72 -1.386 -1.926 -1.702 -7.896 -0.72 -13.586v-0.038c2.852 0.32 6.352 0.444 7.08 0.444 2.7494 -0.002 5.4636 -0.618 7.946 -1.8 1.0836 -0.608 2.0404 -1.418 2.818 -2.388 0.2326 -0.392 0.4398 -0.798 0.62 -1.216 1.276 -0.118 2.6 -0.2 4.034 -0.25 3.064 -0.092 7.86 1.054 10.6 -1 0.691 -0.53 1.19 -1.272 1.4212 -2.112 0.231 -0.84 0.1814 -1.732 -0.1412 -2.542 2.276 0.036 5.772 -0.084 7.264 -1.8 1.028 -0.166 12.812 -1.956 20.03 -3.07 4.64 -0.716 7.674 -2.2 9.02 -4.4 0.333 -0.508 0.558 -1.078 0.6612 -1.676 0.1032 -0.598 0.0824 -1.212 -0.0612 -1.802 -0.082 -0.424 -8 -41.708 -13.272 -70.382 0.296 -0.066 -0.116 0.2 6.082 -4.45 0.2046 -0.152 0.3428 -0.378 0.3864 -0.63 0.0436 -0.252 -0.011 -0.512 -0.1524 -0.724l-4.224 -6.35 8.282 -5.82c0.1108 -0.078 0.2048 -0.178 0.2762 -0.292 0.0712 -0.116 0.1184 -0.244 0.1386 -0.378 0.0202 -0.134 0.013 -0.27 -0.0212 -0.402 -0.0342 -0.13 -0.0946 -0.252 -0.1776 -0.36l-4.376 -5.646c-0.1582 -0.2018 -0.3882 -0.3352 -0.642 -0.3726 -0.254 -0.0372 -0.5124 0.0246 -0.722 0.1726l-7.814 5.494 -0.376 -0.564 -1.238 -6.764c-1.662 -9.128 -6.6 -9.472 -6.76 -9.472 -0.486 -0.08 -48.732 -7.866 -63.122 -9.942 -3.256 -0.466 -5.552 0.086 -6.82 1.656 -0.5366 0.87 -0.868 1.8508 -0.9688 2.8678 -0.1008 1.0172 0.0314 2.044 0.3868 3.0022l13.584 75.946c-5.732 -3.93 -18.336 -12.23 -24.65 -15.106 -2.054 -0.936 -4.612 -2.098 -5.44 -3.6 -0.12996 -0.228 -0.34502 -0.398 -0.59846 -0.468 -0.25346 -0.072 -0.52486 -0.04 -0.75528 0.086 -0.23042 0.128 -0.40128 0.342 -0.47546 0.594 -0.0742 0.252 -0.04574 0.524 0.0792 0.756 1.132 2.05 3.85 3.304 6.27 4.4 -0.038 0.134 -0.04712 0.274 -0.02678 0.412 0.02034 0.138 0.06968 0.27 0.14478 0.388 0.07 0.33 0.174 1.574 0.2 2 0.1787 6.424 -0.2337 12.852 -1.232 19.2 -1.462 9.57 -6.748 22.2 -1.384 31.9 1.29638 2.326 3.24238 4.222 5.6 5.46 2.814 1.612 2.038 1.87 2.8 2.15 4.218 9.482 13.548 7.756 21.38 8.074 2.144 0.082 4.29 0.33 6.364 0.556 -0.9 5.276 -0.944 12.2 1.078 15.016 4.714 6.58 13.386 13.348 20.846 13.554 6.722 0.14 13.218 -2.686 19.484 -5.388 1.268 -0.55 7.354 -3.088 9.16 -3.856 1.4054 0.506 2.86 0.864 4.34 1.068 14.096 2.338 20.922 0.58 48.52 2.326 6.098 0.386 12 0.8 18.18 0.902 1.478 0.028 2.912 0.124 4.674 0.124 10.452 0 13.166 -4.488 14.4 -14.152 0.844 -7.632 0.6422 -15.342 -0.6 -22.92 5.726 1.292 10.6538 -0.6 15.9998 -0.344 5.792 0.758 11.252 3.132 15.758 6.848 0.032 0.222 0.138 0.428 0.3 0.582 4.522 4.31 9.084 8.324 13.57 11.94 0 0.23 0.668 4.454 0.656 5.166 -0.362 8.37 -1.664 12.18 -2.258 17.698 -7.42 1.054 -14.588 -1.084 -20.738 -3.186 -0.124 -0.042 -0.256 -0.06 -0.388 -0.052 -0.13 0.01 -0.258 0.044 -0.376 0.102 -0.118 0.058 -0.224 0.138 -0.312 0.236 -0.086 0.1 -0.152 0.214 -0.194 0.34 -0.044 0.124 -0.06 0.256 -0.052 0.386 0.008 0.132 0.042 0.26 0.1 0.378s0.14 0.224 0.238 0.31c0.098 0.088 0.214 0.154 0.338 0.196 6.934 2.366 13.836 4.26 21.2 3.332 -0.732 11.944 6.768 17.012 17.856 21.836 0.122 0.058 0.252 0.09 0.386 0.096 0.134 0.006 0.268 -0.016 0.394 -0.064 0.124 -0.046 0.24 -0.118 0.336 -0.21 0.098 -0.092 0.176 -0.202 0.228 -0.326 0.054 -0.122 0.082 -0.254 0.084 -0.388 0.002 -0.134 -0.024 -0.268 -0.074 -0.39 -0.052 -0.124 -0.126 -0.238 -0.222 -0.332 -0.094 -0.094 -0.208 -0.168 -0.332 -0.218 -7.494 -3.262 -15.574 -7.45 -16.566 -15.894 -0.734 -6.836 1.872 -12.69 2.354 -23.8 -0.07 -1.144 -0.2 -2.284 -0.39 -3.416 7.67 6.032 15.81 11.438 24.342 16.17 7.152 3.404 14.506 6.372 22.018 8.884 -0.17 4.696 -0.06 11.212 4.48 12.486 2.462 0.706 4.87 -0.93 6.892 -2.42 5.464 -4.024 6.984 -4.6 15.452 -1.574 6.32 2.262 8.2 2.676 17.812 1.018 6.248 -1.092 11.672 -1.646 18.328 -2.258 7.514 -0.712 15.312 0.66 21.356 -4.958 0.194 -0.18 0.31 -0.432 0.318 -0.696 0.01 -0.266 -0.086 -0.524 -0.266 -0.718 -0.182 -0.196 -0.432 -0.31 -0.698 -0.32 -0.266 -0.01 -0.524 0.088 -0.718 0.268l-0.026 0.012ZM110.1602 222.746l-13.526 -20.372 4.088 -3.074 13.538 20.372 -4.1 3.074Zm-6.384 -6 -7.176 5.218 -2.728 -3.7 7.364 -5.344 2.54 3.826Zm11.576 -14.666 3.148 4.064 -7.38 5.186 -2.842 -4.274 7.074 -4.976Zm-84.942 -20.52c0.988 -1.222 3.252 -1.184 4.978 -0.932 14.374 2.074 62.6 9.856 63.2 9.946 0.148 0.012 3.646 0.36 5.01 7.848l0.402 2.18 -2.2 -3.292c-0.0756 -0.113 -0.1734 -0.2094 -0.2874 -0.2834 -0.114 -0.074 -0.242 -0.1238 -0.376 -0.1468 -0.1342 -0.0228 -0.2714 -0.018 -0.4036 0.014 -0.132 0.032 -0.2562 0.0906 -0.365 0.1722l-5.69 4.276c-0.2038 0.154 -0.3412 0.378 -0.3844 0.63 -0.043 0.252 0.0114 0.51 0.1524 0.722l5.682 8.56 -8.246 5.984c-0.1064 0.078 -0.1966 0.176 -0.2652 0.288 -0.0686 0.112 -0.1142 0.236 -0.1346 0.366 -0.0202 0.13 -0.0146 0.264 0.0166 0.392s0.0874 0.248 0.1652 0.354l3.914 5.312c0.0778 0.106 0.1756 0.196 0.2882 0.264 0.1124 0.068 0.2374 0.114 0.3674 0.134 0.13 0.02 0.2628 0.014 0.3904 -0.018 0.1278 -0.032 0.248 -0.088 0.354 -0.166l7.912 -5.75 2.852 4.296c-0.158 0.684 13.444 71.922 13.732 73.318 0.0728 0.344 0.075 0.698 0.0062 1.042 -0.0688 0.344 -0.207 0.67 -0.4062 0.958 -0.72 1.138 -2.62 2.654 -7.584 3.422 -7.216 1.112 -18.09 2.766 -19.058 2.916 -0.246 -2.618 -3.718 -4.012 -5.228 -4.62 -6.2082 -2.148 -12.6862 -3.418 -19.246 -3.774 2.4372 -0.124 4.8542 -0.508 7.21 -1.144 3.436 -1.014 8.37 -3.26 7.158 -6.65 -1.314 -3.652 -7.716 -3.464 -11.158 -3.366 -8.2616 0.378 -16.4838 1.366 -24.6 2.954l-1.518 -8.036c4.62 -3.536 4.022 -7.2 1.306 -8.34 -0.9242 -0.382 -1.9118 -0.59 -2.912 -0.61l-15.244 -85.132c-0.016 -0.024 -0.948 -2.646 0.21 -4.088Zm14.824 99.442 1.3 7.122c-1.7072 0.224 -3.4434 -0.012 -5.028 -0.686 -0.1868 -0.096 -0.3508 -0.232 -0.481 -0.396 -0.13 -0.164 -0.2232 -0.356 -0.273 -0.56 -0.284 -1.216 0.448 -2.74 4.482 -5.48Zm-1.4 35.374c-8.456 -0.324 -16.124 1.222 -19.694 -7.028 -0.0556 -0.128 -0.1378 -0.244 -0.2412 -0.34 -0.1034 -0.094 -0.2256 -0.168 -0.3588 -0.212 -1.694 -2.566 -5.2 -2.338 -7.816 -7.072 -3.72 -6.722 -1.8 -15.07 0.068 -23.144 1.78736 -7.268 2.73952 -14.716 2.838 -22.2 0.07486 -2.182 0.0134 -4.368 -0.184 -6.542 9.928 5.456 18.588 11.4 23.892 15.04l1.09 6.094c-8.092 1.692 -15.286 13.262 -19.016 16.828 -0.1678 0.126 -0.292 0.302 -0.3546 0.502 -0.0624 0.2 -0.0604 0.416 0.006 0.614 0.0662 0.2 0.1936 0.372 0.3638 0.496 0.1704 0.122 0.375 0.188 0.5848 0.188 2.4 0 13.512 -20.116 22.562 -16.376 0.63 0.266 0.776 0.612 0.83 0.85 0.0282 0.484 -0.0464 0.966 -0.2188 1.42 -0.1724 0.452 -0.4386 0.862 -0.7812 1.204 -2.4 2.6 -5.75 3.6 -7.814 6.668 -0.365 0.432 -0.6306 0.938 -0.7786 1.484 -0.1478 0.546 -0.174 1.118 -0.077 1.674 0.097 0.558 0.3152 1.086 0.6388 1.55 0.3238 0.464 0.7452 0.852 1.2348 1.134 2.3378 1.016 4.9416 1.248 7.422 0.66 8.3148 -1.63 16.737 -2.656 25.2 -3.07 2.296 -0.064 8.4 -0.244 9.216 2.042 0.628 1.77 -4.036 3.526 -5.84 4.058 -5.016 1.474 -10.66 0.912 -15.424 1.97 -3.4082 0.794 -6.7512 1.846 -10 3.146 -0.2372 0.104 -0.4252 0.294 -0.5244 0.532 -0.0994 0.24 -0.1024 0.508 -0.0086 0.748 0.094 0.242 0.2776 0.436 0.5124 0.544 0.2346 0.11 0.5022 0.122 0.7466 0.038 2.8634 -1.114 5.7914 -2.056 8.768 -2.818 0.364 0.62 1.07 0.506 1.548 0.432 0.12 -0.02 0.244 -0.042 0.302 -0.046 0.738 0.012 1.474 0.054 2.22 0.108 7.436 0.476 17.102 1.4 23.73 4.04 0.978 0.4 3.956 1.59 3.984 3.03 0.038 1.734 -5.146 1.718 -6.85 1.628 -3.588 -0.19 -8.43 -1.084 -12.38 -1.316 -4.5562 -0.162 -9.1164 0.174 -13.6 1 -0.1344 0.018 -0.2638 0.064 -0.3802 0.132 -0.1164 0.07 -0.2174 0.162 -0.297 0.272 -0.0796 0.11 -0.136 0.234 -0.166 0.368 -0.0298 0.132 -0.0324 0.268 -0.0078 0.402 0.0248 0.132 0.0764 0.26 0.1516 0.372 0.0752 0.114 0.1726 0.21 0.2864 0.284 0.1136 0.074 0.241 0.124 0.3746 0.146 0.1336 0.024 0.2706 0.02 0.4024 -0.012 11.918 -2.212 17.452 -0.254 24.114 0.242 0.1342 0.414 0.3598 0.79 0.66 1.104 0.0752 0.388 0.0434 0.788 -0.0918 1.158 -0.1354 0.372 -0.3692 0.698 -0.6762 0.946 -1.462 1.042 -4.34 0.856 -6.654 0.698 -7.4208 -0.054 -14.8182 0.842 -22.012 2.664 -0.258 0.062 -0.481 0.224 -0.62 0.45s-0.1826 0.498 -0.121 0.756c0.0616 0.258 0.223 0.48 0.449 0.62 0.226 0.138 0.498 0.182 0.756 0.12 4.0738 -0.97 8.2 -1.704 12.358 -2.2 -0.5544 0.626 -1.2078 1.154 -1.934 1.568 -2.6032 1.23 -5.484 1.756 -8.354 1.524 -5.772 -0.146 -8.59 -0.956 -14.024 -1.172h-0.01Zm164.9998 -95.344c3.856 28.054 1.572 12.56 7.766 44.73 0.732 2.924 0.994 5.948 0.778 8.954 -5.29 -6.884 -11.166 -9.6 -19.7858 -15.726 -5.414 -4.228 -11.3586 -7.728 -17.682 -10.412 6.29 -5.628 20.1298 -18.222 28.9378 -27.546h-0.014Zm-62.5598 30.682c1.076 -3.7 4.148 -7.488 6.488 -10.664 0.7696 -1.358 1.6692 -2.64 2.686 -3.824 0.2502 -0.066 0.4648 -0.226 0.5992 -0.448 0.1342 -0.22 0.1774 -0.486 0.1208 -0.738s-0.209 -0.472 -0.425 -0.616c-0.2158 -0.142 -0.4786 -0.196 -0.733 -0.148 -1.544 0.29 -3.14 3.614 -3.864 4.6 -2.6788 3.184 -4.8874 6.736 -6.558 10.548 -3.6 -1.528 -4.652 -4.316 -3.322 -8.71 1.2452 -3.44 2.9522 -6.696 5.074 -9.676 2.4 -3.588 3.308 -4.6 3.826 -5.34 0.2194 -0.34 0.4634 -0.664 0.73 -0.968 0.2226 -0.078 0.4106 -0.232 0.5308 -0.434 0.12 -0.204 0.1646 -0.442 0.1256 -0.676 -0.0392 -0.232 -0.159 -0.444 -0.3388 -0.596 -0.1798 -0.152 -0.4078 -0.238 -0.6436 -0.238 -0.782 0 -1.346 0.74 -2.158 1.934 -1.154 1.476 -2.338 3.128 -3.718 5.178 -2.0412 2.876 -3.716 5.994 -4.986 9.284 -0.762 0.044 -1.894 1.484 -2.71 1.522 -1.66 0.076 -5.824 -5.782 -2.374 -11.236 2.0084 -3.124 4.5352 -5.882 7.472 -8.156 0.9854 -0.852 2.0134 -1.652 3.08 -2.4 0.384 -0.186 1.6 -0.114 1.988 -1.022 0.512 -1.226 -1.142 -2.2 -1.812 -1.08 -0.984 0.2 -1.014 0.184 -2.726 1.494 -0.0956 -0.16 -0.2336 -0.292 -0.3986 -0.378 -0.165 -0.088 -0.351 -0.128 -0.5374 -0.118 -11.724 1 -18.248 13.034 -23.114 11.756 -1.138 -0.29 -0.974 -1.928 -0.672 -2.974 1.2478 -3.208 3.3078 -6.038 5.978 -8.21 6 -5.546 16.844 -10.268 26.468 -7.514 5.962 1.708 7.058 6.674 10.96 11.258 2.962 3.498 6.578 6.11 8.698 10.07 1.152 2.148 4.274 10.46 5.782 14.058 -5.9388 -1.628 -12.1836 -1.792 -18.2 -0.48 -0.622 0.152 -6.094 1.578 -7.1 4.37 -0.1612 0.45 -0.2028 0.934 -0.1208 1.406 0.082 0.472 0.285 0.912 0.5888 1.282 1.4142 1.416 3.3226 2.23 5.324 2.27 -0.8668 0.838 -1.8462 1.554 -2.91 2.122 -0.263 0.014 -0.5094 0.132 -0.686 0.328 -4.592 1.896 -7.97 -1.748 -6.412 -6.836Zm10.97 10.48s-1.782 -2.048 -2.244 -2.6c1.4364 -0.868 2.7168 -1.972 3.788 -3.264 3.446 0.2 6.962 0.02 10.306 0.526 4.728 0.7 8.526 3.69 12.176 6.664 -1.018 0.048 -2 0.118 -2.946 0.2 -4.726 0.414 -10.956 0.944 -14.086 4.492 -2.7766 -1.418 -5.1744 -3.478 -6.994 -6.01v-0.008Zm127.3038 87.22c-7.214 -2.422 -14.278 -5.278 -21.148 -8.552 -14.486 -8.104 -27.854 -18.062 -39.766 -29.62 -0.024 -0.024 -0.05 -0.046 -0.078 -0.066 -0.036 -0.254 -0.168 -0.484 -0.372 -0.642 -4.826 -3.972 -10.678 -6.492 -16.88 -7.268 -7.3198 -0.35 -15.4598 3.322 -21.9238 -2.936 -3.03 -2.926 -3.444 -3.932 -4.488 -3.322 -0.118 0.074 -0.2202 0.17 -0.301 0.284 -0.0806 0.112 -0.138 0.24 -0.169 0.376 -0.304 1.352 2.416 3.218 2.762 6.672 0.0248 0.77 -0.1282 1.536 -0.447 2.236 -0.3186 0.702 -0.7946 1.32 -1.391 1.808 -0.4024 0.312 -0.8804 0.514 -1.3854 0.582 -0.5052 0.068 -1.0194 0.002 -1.4906 -0.192 -1.8104 -1.008 -3.2316 -2.592 -4.038 -4.5 -0.7298 -1.344 -1.6102 -2.6 -2.624 -3.746 -1.69 -2.064 -3.8 -4.63 -3.064 -6.428 1.454 -3.296 12.4 -8.1 15.688 -9.448 0.5652 -0.33 1.1886 -0.548 1.836 -0.642 0.2626 -0.038 0.4992 -0.18 0.6578 -0.392 0.1588 -0.212 0.2264 -0.48 0.1882 -0.742 -0.0382 -0.262 -0.1792 -0.5 -0.3918 -0.658 -0.2126 -0.158 -0.4796 -0.226 -0.7422 -0.188 -0.8546 0.118 -1.6784 0.402 -2.426 0.832 -5.654 2.292 -5.128 2.518 -5.086 2.036 -1.946 -0.378 -2 -0.4 -2.664 -0.552 -0.308 -0.114 -1.132 -0.414 -1.562 0.342 -0.1148 0.21 -0.1524 0.454 -0.1062 0.69 0.046 0.234 0.1726 0.446 0.3582 0.598 0.228 0.188 0.242 0.142 1.358 0.43 -2.485 1.246 -4.8416 2.732 -7.036 4.438 -1.5814 -1.172 -2.7642 -2.802 -3.388 -4.67 -0.351 -1.178 -0.3748 -2.428 -0.0686 -3.618s0.9308 -2.274 1.8066 -3.136c2.0074 -1.8 4.3704 -3.158 6.936 -3.986 3.1816 -1.218 6.4688 -2.14 9.82 -2.752 0.2636 -0.028 0.505 -0.16 0.6712 -0.368 0.1662 -0.206 0.2434 -0.47 0.2148 -0.734 -0.0124 -0.13 -0.051 -0.258 -0.1132 -0.374 -0.0624 -0.116 -0.1474 -0.218 -0.25 -0.3 -0.1024 -0.084 -0.2204 -0.144 -0.347 -0.18 -0.1266 -0.038 -0.2592 -0.048 -0.3898 -0.032 -3.5052 0.62 -6.9428 1.574 -10.266 2.85 -2.6764 0.902 -5.1574 2.302 -7.312 4.128 -0.4268 -1.174 -0.6912 -2.402 -0.786 -3.648 -0.1336 -1.404 0.2194 -2.812 1 -3.988 2.4 -3.47 8.902 -3.956 13.16 -4.328 1.626 -0.14 3.328 -0.234 5.182 -0.268 0.1398 0.07 0.2944 0.108 0.451 0.108 0.1566 0 0.3112 -0.038 0.451 -0.108 0.8102 -0.052 1.6232 -0.044 2.432 0.028 0.1882 0.158 0.4272 0.24 0.6722 0.232 0.2448 -0.008 0.4782 -0.106 0.6562 -0.274 0.1778 -0.168 0.2876 -0.396 0.3086 -0.64 0.0208 -0.244 -0.0484 -0.488 -0.195 -0.684 -0.572 -0.758 -1.472 -0.666 -4.118 -0.666 -9.482 -7.6 -11.224 -8.786 -21.72 -8.98 -2.35 -0.042 -8.742 -0.022 -10.06 -1.81 -0.1064 -0.104 -0.1816 -0.236 -0.217 -0.382 -0.0352 -0.144 -0.0294 -0.296 0.017 -0.438 0.458 -1.274 3.67 -2.6 5.67 -3.102 7.1212 -1.522 14.5334 -0.902 21.304 1.778 6.1122 2.63 11.8618 6.034 17.108 10.126 5.8898 4.18 11.9498 7.6 16.3058 11.824 3.346 3.244 4.228 5.6 6.644 8.012 3.56 3.928 7.636 7.356 12.118 10.186 14.234 7.48 42.668 17.372 51.724 20.456 0.194 1.072 0.462 2.128 0.8 3.162 4.452 14.27 1.28 22.666 0.51 35.146Z" stroke-width="2"></path>
  <path fill="#1c3b67" d="M383.278 204.694c-0.038 -0.126 -0.102 -0.242 -0.186 -0.342 -0.086 -0.102 -0.188 -0.184 -0.304 -0.246 -0.118 -0.06 -0.244 -0.098 -0.376 -0.11 -0.13 -0.012 -0.262 0.002 -0.388 0.042 -6 1.984 -11.614 4.982 -16.6 8.866 -6.112 -8.076 -12.76 -15.7322 -19.898 -22.9178 -3.94 -4.244 -7.614 -7.664 -9.926 -9.966 -0.248 -0.2376 -0.484 -0.488 -0.708 -0.75 -0.172 -0.202 -0.416 -0.3276 -0.682 -0.349 -0.264 -0.0214 -0.526 0.0632 -0.728 0.235 -0.202 0.172 -0.328 0.417 -0.348 0.6814 -0.022 0.2644 0.062 0.5266 0.234 0.7286 0.27 0.316 0.558 0.614 0.838 0.886 3.978 3.858 7.108 6.936 9.856 9.896 7.094 7.1426 13.702 14.7538 19.778 22.7798 -10.716 8.492 -21.856 22 -25.8 29.488 -0.586 1.324 -0.814 2 -0.384 2.584 0.118 0.148 0.272 0.264 0.446 0.336 0.176 0.072 0.366 0.1 0.554 0.078 0.14 -0.018 0.274 -0.066 0.394 -0.14 0.12 -0.074 0.224 -0.172 0.302 -0.288 0.08 -0.118 0.134 -0.25 0.158 -0.388 0.026 -0.138 0.02 -0.28 -0.014 -0.418 1.2 -3.674 8.58 -12.778 11.476 -16.024 11.058 -12.546 21.4 -20.2 31.652 -23.4 0.126 -0.04 0.244 -0.104 0.344 -0.188 0.102 -0.084 0.186 -0.188 0.246 -0.306 0.062 -0.118 0.098 -0.246 0.11 -0.378 0.01 -0.132 -0.006 -0.264 -0.046 -0.39Z" stroke-width="2"></path>
  <path fill="#1c3b67" d="M332.4 78.8886c0.094 0.0984 0.206 0.1768 0.33 0.2304 0.124 0.0536 0.258 0.0814 0.394 0.0816 0.196 -0.0004 0.388 -0.058 0.55 -0.166 0.164 -0.1078 0.292 -0.2612 0.368 -0.4412 0.076 -0.1798 0.1 -0.3782 0.064 -0.5706 -0.034 -0.1926 -0.124 -0.3706 -0.26 -0.5122 -4.644 -5.1688 -8.684 -10.8502 -12.042 -16.934 -0.028 -0.2116 -0.12 -0.4096 -0.264 -0.567 -0.144 -0.1574 -0.332 -0.2666 -0.542 -0.313 -0.208 -0.0462 -0.426 -0.0274 -0.622 0.0542 -0.198 0.0816 -0.364 0.2218 -0.48 0.4018 -0.124 0.2454 -0.168 0.5234 -0.126 0.7952 0.042 0.2718 0.166 0.5238 0.358 0.7208 3.368 6.222 7.49 12.0056 12.272 17.22Z" stroke-width="2"></path>
  <path fill="#1c3b67" d="M319.2 77.4264v0.024l0.014 0.062c0.038 0.1412 0.106 0.2728 0.2 0.386 1.132 1.3362 2.522 2.4296 4.088 3.214 3.096 2.0646 6.852 2.8984 10.53 2.338 0.262 -0.0398 0.498 -0.1822 0.656 -0.3958 0.156 -0.2136 0.222 -0.481 0.182 -0.7432 -0.038 -0.2624 -0.182 -0.4982 -0.394 -0.6554 -0.214 -0.1574 -0.482 -0.2234 -0.744 -0.1836 -3.208 0.483 -6.482 -0.251 -9.176 -2.058 -1.432 -0.6614 -2.69 -1.6482 -3.672 -2.882 -0.152 -0.1488 -0.346 -0.2454 -0.556 -0.276 -0.212 -0.0304 -0.426 0.0068 -0.614 0.1064 -0.186 0.0996 -0.338 0.2564 -0.43 0.4476 -0.094 0.1912 -0.122 0.407 -0.084 0.616Z" stroke-width="2"></path>
  <path fill="#1c3b67" d="M229.504 114.3172c0.692 1.534 -0.298 6.326 2.388 7.534 0.708 0.312 1.188 -0.322 3.03 -0.278 2.25 0.114 4.432 4.506 2.648 8.906 -0.58 1.0068 -1.032 2.0816 -1.346 3.2 -0.114 1.4742 0.262 2.9446 1.068 4.184 0.018 0.0852 0.048 0.168 0.086 0.246 1.342 2.658 0.844 6.656 3.616 9.19 8.022 7.29 22.35 -4.582 27.954 6.244 -0.074 0.1092 -0.128 0.2324 -0.154 0.362 -0.028 0.1298 -0.028 0.2638 -0.004 0.394 -0.866 3.52 -0.99 7.1816 -0.364 10.752 1.022 5.52 5.156 9.922 11.372 12.176 0.172 0.8658 0.392 1.7218 0.656 2.564 -2.914 -0.1772 -5.72 -1.165 -8.104 -2.852 -0.2 -0.1664 -0.456 -0.2486 -0.716 -0.229 -0.258 0.0196 -0.5 0.1394 -0.672 0.3338 -0.172 0.1946 -0.262 0.4486 -0.252 0.7084 0.012 0.2596 0.126 0.5046 0.314 0.6828 1.966 1.742 5.264 2.874 10.064 3.454 0.972 3.0252 2.106 5.9956 3.4 8.898 -1.454 1.2458 -2.99 2.3918 -4.6 3.43 -0.23 0.131 -0.4 0.3484 -0.47 0.6042 -0.07 0.2558 -0.036 0.529 0.094 0.7598 0.132 0.2308 0.348 0.4 0.604 0.4704 0.256 0.0706 0.53 0.0366 0.76 -0.0944 1.562 -0.9928 3.056 -2.0878 4.474 -3.278 0.62 1.3334 1.26 2.6574 1.918 3.972 0.058 0.1176 0.14 0.2224 0.24 0.3084 0.098 0.0862 0.214 0.152 0.338 0.1936 0.126 0.0416 0.256 0.0582 0.388 0.049 0.13 -0.0094 0.258 -0.0444 0.376 -0.103 0.118 -0.0588 0.222 -0.14 0.308 -0.2392 0.086 -0.0992 0.152 -0.2144 0.194 -0.339 0.042 -0.1246 0.058 -0.2562 0.05 -0.3874 -0.01 -0.131 -0.046 -0.2588 -0.104 -0.3764 -0.738 -1.4746 -1.45 -2.958 -2.136 -4.45 3.068 -2.8754 5.872 -6.0214 8.376 -9.4 9.742 -1.235 18.842 -5.5202 26 -12.242 0.102 -0.0878 0.186 -0.1954 0.246 -0.3164 0.06 -0.121 0.096 -0.253 0.104 -0.3878 0.006 -0.1348 -0.014 -0.2698 -0.06 -0.3968s-0.116 -0.2434 -0.208 -0.342c-0.092 -0.0988 -0.204 -0.1778 -0.328 -0.2322 -0.124 -0.0546 -0.256 -0.0836 -0.392 -0.0852 -0.134 -0.0016 -0.268 0.0242 -0.394 0.076 -0.124 0.0516 -0.238 0.1278 -0.332 0.2244 -6.388 5.9994 -14.406 9.9796 -23.048 11.442 0.646 -0.96 0.564 -0.91 0.686 -1.084 0.166 -0.1108 0.296 -0.268 0.374 -0.452 9.344 -2.305 17.716 -7.5148 23.912 -14.88 1.766 -2.1028 3.422 -4.295 4.962 -6.568 4.492 -5.348 0.298 -5.344 0.108 -3.816 -0.458 0.9374 -1.028 1.8148 -1.702 2.612 -1.522 2.2438 -3.158 4.4092 -4.9 6.488 -6.086 7.239 -14.368 12.2948 -23.588 14.4 -10.568 2.2 -24.4 -1.116 -26.344 -11.638 -0.426 -2.618 -0.458 -5.285 -0.092 -7.912 0.224 0.624 0.43 1.2492 0.62 1.876 0.076 0.254 0.25 0.4674 0.484 0.5934 0.234 0.1258 0.508 0.1536 0.762 0.0776 0.254 -0.0762 0.466 -0.25 0.592 -0.4836 0.126 -0.2334 0.154 -0.5074 0.078 -0.7614 -0.462 -1.5356 -1.018 -3.0412 -1.666 -4.508 -0.672 -1.6628 -1.712 -3.1528 -3.038 -4.36 -7 -6.27 -19.766 2.066 -25.8 -3.4 -1.976 -1.8 -1.748 -5.068 -2.85 -7.878 0.066 -0.922 -1.418 -1.6 -1.282 -4 0.298 -0.9026 0.684 -1.7734 1.154 -2.6 2.4 -5.848 -0.614 -11.588 -4.354 -11.778 -0.844 -0.0284 -1.686 0.0728 -2.5 0.3 -0.89 -0.97 -0.454 -4.762 -1.182 -6.376 -2.322 -5.2 -8.636 -6.702 -9.966 -11.782 -1.284 -4.902 7.186 -7.716 9.646 -12.316 5.762 -10.83 0.01 -21.98 8.718 -32.93 0.532 -0.67 1.036 -1.292 0.508 -1.936 0.052 -0.74 2.898 -2.572 3.758 -2.8 2.682 -0.672 5.896 1.344 7.894 3.63 6.47 7.418 8.318 16.916 18.958 33.38 3.078 4.616 7.35 9.842 13.692 10.832 -0.998 1.1176 -1.842 2.364 -2.508 3.706 -0.49 0.968 -0.666 1.486 -0.4 1.99 0.094 0.2182 0.264 0.3958 0.476 0.5008 0.214 0.1048 0.458 0.1304 0.688 0.0718 0.23 -0.0584 0.432 -0.1972 0.57 -0.3912 0.138 -0.194 0.202 -0.4306 0.18 -0.6674 0.89 -2.0406 2.24 -3.8472 3.944 -5.278 0.932 -0.8998 2.078 -1.5474 3.33 -1.882 4.622 -1.236 8.8 1.63 8.84 8.64 0.088 2.859 -0.872 5.6514 -2.698 7.8532 -1.826 2.2016 -4.392 3.6612 -7.218 4.1048 -0.128 0.0262 -0.25 0.0776 -0.36 0.1512 -0.108 0.0736 -0.202 0.1678 -0.274 0.2776 -0.074 0.1096 -0.124 0.2324 -0.148 0.3616 -0.026 0.129 -0.026 0.2618 0.002 0.3906 0.026 0.1288 0.076 0.2512 0.15 0.3602 0.074 0.109 0.168 0.2024 0.278 0.2748 0.11 0.0726 0.232 0.1228 0.362 0.1478 0.128 0.025 0.262 0.0244 0.39 -0.0018 1.362 -0.2726 2.682 -0.716 3.932 -1.32 0.794 1.9074 2.134 3.5376 3.852 4.686 3.516 2.0678 7.454 3.3148 11.518 3.648 0.506 2.22 2.376 7.3 3.182 9.438 2.484 6.6 4.548 12.024 8.556 17.302 0.16 0.2122 0.4 0.3518 0.664 0.3882 0.262 0.0364 0.53 -0.0336 0.742 -0.1942 0.212 -0.1608 0.352 -0.3992 0.388 -0.6628 0.036 -0.2638 -0.034 -0.531 -0.194 -0.7432 -3.97 -5.224 -5.898 -10.538 -8.376 -17.054 -0.968 -2.546 -2.588 -7.2 -2.876 -8.372 7.01 0.0926 13.834 -2.239 19.322 -6.6 8.224 -7.028 7.268 -17.182 7.154 -28.034 0.588 -0.0566 1.156 -0.2498 1.656 -0.564 1.066 5.488 -0.314 17.526 -1.458 23.6 -2.836 15.762 -10.84 34.684 -1 44.236 0.094 0.0918 0.206 0.1644 0.328 0.2132 0.122 0.049 0.252 0.0734 0.384 0.0718 0.132 -0.0016 0.262 -0.0292 0.382 -0.081 0.122 -0.0518 0.232 -0.1268 0.324 -0.221s0.164 -0.2056 0.212 -0.3276c0.05 -0.1222 0.074 -0.2528 0.072 -0.3844 -0.002 -0.1316 -0.028 -0.2616 -0.08 -0.3826 -0.052 -0.121 -0.128 -0.2306 -0.222 -0.3224 -6.544 -6.352 -3.87 -18.246 -2.09 -26.114 2.812 -12.43 5.142 -20.23 5.482 -33.448 0.104 -2.4218 -0.022 -4.8478 -0.374 -7.246 -0.06 -0.2376 -0.168 -0.4612 -0.314 -0.658 -0.014 -0.174 -0.078 -0.3398 -0.188 -0.476 1.01 -2.2898 1.446 -4.7916 1.268 -7.288 0.18 -1.46 0.002 -2.942 -0.522 -4.317 -0.522 -1.3752 -1.374 -2.6016 -2.478 -3.573 -0.354 -0.3114 -0.752 -0.5682 -1.182 -0.762 -0.166 -0.1176 -0.358 -0.1914 -0.56 -0.2144 -0.2 -0.023 -0.404 0.0056 -0.592 0.0828 -0.188 0.0774 -0.354 0.201 -0.48 0.3594 -0.126 0.1582 -0.212 0.3462 -0.246 0.5462 -0.086 3.97 -0.498 5.246 -0.418 7.386l0.15 13.856c0.128 8.632 0.248 16.786 -6.492 22.546 -5.446 4.2978 -12.272 6.4648 -19.2 6.096 -3.82 -0.2476 -7.544 -1.3064 -10.924 -3.106 -0.158 -0.2018 -0.384 -0.338 -0.636 -0.382 -1.346 -1.001 -2.384 -2.358 -3 -3.918 1.86 -1.2982 3.368 -3.0374 4.39 -5.0618 1.024 -2.0246 1.528 -4.271 1.468 -6.5382 -0.054 -8.344 -5.472 -12.128 -11.356 -10.562 -1.42 0.3806 -2.734 1.0804 -3.844 2.046 -6.468 -0.136 -10.842 -5.456 -13.934 -10.092 -10.44 -16.16 -12.484 -25.988 -19.122 -33.6 -2.222 -2.542 -6.14 -5.174 -9.892 -4.252 -0.8 0.2 -4.504 2.082 -5.156 4.082 -0.134 0.3872 -0.144 0.8066 -0.03 1.2 -0.056 0.0444 -0.108 0.0954 -0.152 0.152 -5.978 7.514 -5.694 14.338 -6 19.266 -0.306 4.928 -0.6 9.586 -2.924 13.97 -2.2 4.15 -11.51 7.264 -9.8 13.762 1.528 5.878 7.996 7.458 10.058 12.068Zm56.552 75.056c-1.15 -2.646 -2 -4.908 -2.8 -7.264 3.094 0.2856 6.206 0.313 9.304 0.082 -1.998 2.5426 -4.172 4.9426 -6.504 7.182Zm9.094 -10.726c-0.302 0.448 -0.6 0.896 -0.946 1.376 -3.854 0.4278 -7.744 0.4338 -11.6 0.018 0 0 -0.554 -1.898 -0.612 -2.122 4.294 1.1104 8.768 1.3578 13.158 0.728Zm45.2 -95.188c-0.03 2.306 -0.106 6.75 -2.4 7.184 -0.268 -4.5336 -0.176 -9.081 0.274 -13.6 0.83 0.83 1.452 1.8426 1.82 2.9568 0.368 1.114 0.47 2.2986 0.298 3.4592h0.008Z" stroke-width="2"></path>
  <path fill="#1c3b67" d="M248.578 80.9826c0.156 0.2088 0.386 0.3484 0.644 0.3894 0.258 0.041 0.52 -0.0202 0.734 -0.1704 0.212 -0.15 0.358 -0.3774 0.406 -0.6334 0.048 -0.256 -0.006 -0.5208 -0.15 -0.7376 -2.114 -2.9792 -5.122 -5.2054 -8.59 -6.354 -0.04 -0.014 -4.278 -0.924 -5.336 0.054 -0.14 0.15 -0.246 0.3306 -0.304 0.5278 -0.06 0.1972 -0.072 0.4054 -0.036 0.6082 0.044 0.176 0.136 0.3368 0.264 0.4652 0.128 0.1282 0.288 0.219 0.464 0.2628 0.178 0.0438 0.362 0.0388 0.536 -0.0144 0.172 -0.0532 0.328 -0.1526 0.45 -0.2876 1.116 0.0002 2.23 0.0946 3.33 0.282 3.062 1.0128 5.722 2.9776 7.588 5.608Z" stroke-width="2"></path>
  <path fill="#1c3b67" d="M240.188 84.2018c-0.188 -0.0716 -0.392 -0.096 -0.592 -0.0714 -0.2 0.0248 -0.39 0.098 -0.556 0.2134 -0.08 -0.003 -0.162 0.003 -0.242 0.018 -0.338 0.072 -1.04 0.224 -1.232 2.772 -0.17 2.36 -0.138 6.2 2.226 6.2 1.16 0 1.72 -1.2 1.906 -2.352 0.01 -0.052 0.902 -5.898 -1.51 -6.78Z" stroke-width="2"></path>
  <path fill="#1c3b67" d="M142.9144 73.418c-0.0402 0.1272 -0.0546 0.261 -0.0424 0.3938 0.0124 0.1328 0.051 0.2616 0.1138 0.3792 0.0628 0.1176 0.1486 0.2214 0.2522 0.3054 0.1034 0.084 0.2228 0.1464 0.3508 0.1836 0.128 0.0372 0.2622 0.0484 0.3946 0.033 0.1324 -0.0154 0.2604 -0.057 0.3764 -0.1226 0.116 -0.0656 0.2178 -0.1538 0.2994 -0.2592 0.0814 -0.1056 0.141 -0.2262 0.1752 -0.3552 1.546 -5.31 2.304 -12.564 -0.2 -17 -0.135 -0.2216 -0.351 -0.3822 -0.6022 -0.4476 -0.2514 -0.0654 -0.5182 -0.0306 -0.7442 0.0972 -0.226 0.1278 -0.3934 0.3386 -0.4668 0.5876 -0.0736 0.249 -0.0472 0.5168 0.0732 0.7468 2.2 3.9 1.388 10.764 0.02 15.458Z" stroke-width="2"></path>
  <path fill="#1c3b67" d="M80.6464 65.373c4.136 0 16.376 -4.308 20.262 -5.738 0.249 -0.0918 0.4514 -0.2786 0.5626 -0.5196 0.1112 -0.241 0.1222 -0.5164 0.0304 -0.7654s-0.2786 -0.4514 -0.5196 -0.5626c-0.241 -0.1112 -0.5164 -0.1222 -0.7654 -0.0304 -6.3268 2.5836 -12.9174 4.4676 -19.654 5.618 -0.2652 0.0112 -0.5152 0.1272 -0.6948 0.3226 -0.1796 0.1954 -0.2744 0.4542 -0.2632 0.7194 0.0112 0.2652 0.1272 0.5152 0.3226 0.6948 0.1954 0.1796 0.4542 0.2744 0.7194 0.2632v-0.002Z" stroke-width="2"></path>
  <path fill="#1c3b67" d="M140.4002 83.286c0.11 -7.87 2.822 -16.632 -1.252 -24.18 -0.11 -0.2 -0.23 -0.456 -0.366 -0.742 -1.265 -3.2256 -3.732 -5.8348 -6.882 -7.278 1.686 -1.298 2.444 -2.04 2.462 -2.86 0.0068 -0.2502 -0.0808 -0.494 -0.245 -0.683 -0.1642 -0.1888 -0.3934 -0.3092 -0.6422 -0.3374 -0.2488 -0.0282 -0.499 0.038 -0.7014 0.1854 -0.2024 0.1476 -0.342 0.3656 -0.3914 0.611 -3.6002 3.1902 -7.438 6.102 -11.48 8.71 -13.728 8.78 -30.252 13.906 -46.076 11.51 -0.1298 -0.0196 -0.2624 -0.0134 -0.3898 0.0182 -0.1274 0.0316 -0.2474 0.0882 -0.3532 0.1662 -0.1056 0.078 -0.195 0.176 -0.2626 0.2884 -0.0678 0.1126 -0.1128 0.2374 -0.1324 0.3672 -0.0196 0.1298 -0.0134 0.2624 0.0182 0.3898 0.0316 0.1274 0.0882 0.2474 0.1662 0.3532 0.078 0.1056 0.176 0.195 0.2884 0.2626 0.1126 0.0678 0.2374 0.1128 0.3672 0.1324 2.0248 0.3048 4.0656 0.4912 6.112 0.558 -0.146 0.98 -0.538 2.174 -0.668 3.272 -0.5956 4.173 -0.7104 8.4008 -0.342 12.6 -2.672 -2.6 -6.924 -4.574 -10.16 -2.848 -3.738 1.982 -5.122 7.15 -4.48 11.218 -0.4388 -0.728 -0.9826 -1.387 -1.614 -1.956 -1.156 -1.028 -2.288 0.072 -2.66 0.43 -0.1 0.096 -0.244 0.238 -0.2 0.278 -0.122 -0.058 -0.56 -0.336 -1.268 -1.758 -1.1952 -2.4662 -1.9698 -5.1146 -2.292 -7.836 -0.106 -1.132 -0.238 -2.544 -1.116 -3.124 -0.292 -0.1728 -0.6346 -0.2392 -0.97 -0.188 -1.226 0.278 -1.788 2.378 -2.54 3.4 -0.1806 -0.3092 -0.3318 -0.6346 -0.452 -0.972 -0.0902 -0.2482 -0.2752 -0.4508 -0.5142 -0.5632 -0.2392 -0.1124 -0.513 -0.1256 -0.7618 -0.0368 -0.2488 0.0902 -0.4516 0.2754 -0.564 0.515 -0.1126 0.2396 -0.1254 0.514 -0.036 0.763 0.1438 0.4008 0.3196 0.7894 0.526 1.162 0.1374 0.3724 0.3812 0.6962 0.7014 0.9308 0.32 0.2348 0.7022 0.3702 1.0986 0.3892 1.278 0 2 -1.53 2.582 -2.688 0.028 0.232 0.048 0.448 0.062 0.6 0.3424 2.971 1.187 5.862 2.498 8.55 0.48 0.966 1.674 3.186 3.4 2.822 0.5516 -0.185 1.041 -0.5194 1.414 -0.966 1.878 1.864 2.4 5.114 5.072 7 0.1524 0.1076 0.332 0.1704 0.5182 0.1814 0.1862 0.011 0.3718 -0.0304 0.5358 -0.1194 2.094 2.158 5.064 3.542 5.888 6.276 1.4 4.582 0.416 6.572 2.496 20.926 -0.985 -0.1324 -1.9872 0.0204 -2.888 0.44 -3.586 1.6 -6 6.6 -6.6 8.78 -2.026 7.864 0.95 14 4.628 21.232 5.046 9.916 10.058 20.866 16.4 19.6 4.438 -0.91 6.336 -8.628 10.702 -13.442 5.092 -5 7.928 -5.758 9.058 -7.57 2.07 1.362 4.434 2.04 5.656 3.858 0.047 0.1292 0.1198 0.2476 0.214 0.348 1.894 3.42 -1.216 7.726 -0.076 11.922 0.8894 1.9444 2.254 3.6336 3.968 4.912 0.091 0.1024 0.202 0.185 0.3262 0.2428 0.1242 0.0576 0.259 0.0894 0.3958 0.0928 0.137 0.0036 0.2732 -0.021 0.4002 -0.0724 0.127 -0.0512 0.242 -0.128 0.3382 -0.2256 0.096 -0.0976 0.171 -0.214 0.2202 -0.3418 0.0494 -0.1278 0.072 -0.2642 0.0662 -0.4012 -0.0056 -0.1368 -0.0394 -0.271 -0.099 -0.3942 -0.0596 -0.1234 -0.144 -0.233 -0.2478 -0.3224 -3.356 -3.33 -4.34 -3.25 -3.172 -8.932 0.7812 -2.377 0.6826 -4.9556 -0.278 -7.266 0.3436 -0.8528 0.619 -1.7316 0.824 -2.628 0.4086 0.2812 0.8348 0.5358 1.276 0.762 4.17 3.076 4.97 6.05 7.496 8.812 0.2682 0.3566 0.6058 0.6554 0.9924 0.8782 0.3868 0.2226 0.8146 0.3648 1.2576 0.4178 1.674 0 2.386 -1.81 2.838 -3.324 2.586 -9.416 2.272 -25.664 -3.564 -40.638 2.726 -4.228 3.114 -5.966 6.454 -10.63 3.4856 -4.327 6.1988 -9.2228 8.02 -14.472 1.876 -6.582 -1.13 -11.628 -1 -17.368Zm-35.242 74.828c-2.718 1.7816 -5.2542 3.826 -7.572 6.104 -4.27 4.698 -6.556 12.238 -9.662 12.87 -3.278 0.694 -6.454 -4.4 -8.022 -6.912 -1.706 -2.75 -3.2 -5.724 -4.658 -8.6 -3.352 -6.62 -7.318 -13.34 -6.544 -20.152 0.488 -4.848 3.65 -9.098 6.022 -10.162 0.3702 -0.183 0.7736 -0.2894 1.186 -0.3132 0.4124 -0.0236 0.8252 0.0358 1.214 0.1752 0.584 3.736 1.24 7.158 2 10.384 -0.644 -0.554 -1.272 -1.13 -1.878 -1.724 -3.484 -3.426 -3.564 -4.186 -4.56 -3.77 -0.1792 0.0766 -0.3326 0.203 -0.442 0.3642 -0.1094 0.1614 -0.1704 0.3506 -0.1754 0.5454 -0.005 0.1948 0.046 0.387 0.1468 0.5536 0.101 0.1668 0.2476 0.301 0.4226 0.3868 2.1454 2.4372 4.5086 4.6738 7.06 6.682 4.7182 3.3094 9.9758 5.7734 15.538 7.282 5.318 1.776 4.668 1.656 6.728 2.358 1.506 0.508 4.028 1.358 4.504 2.55 0.02 0.366 -0.936 1.092 -1.308 1.378Zm22.496 9.584c-0.6 -0.07 -2.6 -3.04 -2.908 -3.494 -1.5004 -2.4594 -3.4672 -4.6016 -5.79 -6.306 -2.244 -1.168 -3.08 -1.846 -1.966 -3.898 1.578 -3.93 3.864 -7.238 4.888 -15.874 0.01 -0.1 0.146 -1.058 0.146 -1.158 0.0052 -0.1336 -0.0176 -0.2668 -0.0666 -0.391 -0.049 -0.1244 -0.1234 -0.2372 -0.2184 -0.3312 -0.095 -0.094 -0.2084 -0.1672 -0.3332 -0.215 -0.1248 -0.048 -0.2582 -0.0692 -0.3918 -0.0628 -0.2712 0.0164 -0.526 0.136 -0.712 0.3342 -0.186 0.1982 -0.289 0.46 -0.288 0.7318 -0.172 1.234 -0.254 2.148 -0.612 4.114 -0.1866 -2.8266 -0.0974 -5.6646 0.266 -8.474 2.3142 -1.1666 4.3282 -2.8508 5.886 -4.922 7.446 20.248 3.598 39.51 2.1 39.946Zm11.82 -67.6c-1.562 5.466 -5.156 10.236 -8.504 14.928 -1.932 2.708 -3.622 6.31 -5.6 9.414 -1.6242 2.9822 -4.1746 5.3548 -7.266 6.76 -11.158 5.14 -24.824 -4.514 -33.9 -15.25 -0.0818 -0.1086 -0.185 -0.1994 -0.303 -0.267 -0.1182 -0.0674 -0.2488 -0.11 -0.384 -0.1252 -0.135 -0.0152 -0.2718 -0.0028 -0.402 0.0368 -0.1302 0.0394 -0.251 0.105 -0.3548 0.1928 -0.104 0.0876 -0.189 0.1956 -0.2498 0.3174 -0.0606 0.1216 -0.096 0.2544 -0.1036 0.3902 -0.0078 0.1358 0.0124 0.2716 0.059 0.3994 0.0466 0.1278 0.1188 0.2448 0.2122 0.3436 8.528 10.094 22.298 20.886 34.8 16.378 -0.3084 4.4196 -0.1744 8.859 0.4 13.252 -0.702 2.02 -1.938 4.346 -2.694 6.278 -0.3542 0.6708 -0.5702 1.4058 -0.6352 2.1616 -0.0648 0.7558 0.0226 1.517 0.2572 2.2384 -0.0954 0.6752 -0.2534 1.34 -0.472 1.986 -0.9828 -0.8364 -2.0724 -1.5384 -3.24 -2.088 -1.0262 -0.5166 -2.007 -1.1186 -2.932 -1.8 -1.132 -2.172 -4.8 -3.018 -6.686 -3.748 -6.968 -2.664 -13.844 -4.064 -19.91 -8.442 -1.7704 -7.6176 -3.0616 -15.3388 -3.866 -23.118 -0.462 -4.086 -0.228 -8.72 -1.492 -12.84 -0.988 -3.276 -3.956 -4.8 -6.046 -6.772 -5.032 -4.704 -3.864 -13 0.248 -15.186 3.156 -1.676 8.762 2.172 9.892 5.47 0.0748 0.2116 0.2186 0.392 0.4082 0.512 0.1898 0.12 0.4144 0.1726 0.6376 0.1496 0.2232 -0.023 0.4322 -0.1206 0.5934 -0.277 0.161 -0.1562 0.265 -0.3622 0.2948 -0.5846 0.902 -1.304 -2 -1.75 -0.276 -16.552 0.118 -1 0.562 -2.318 0.694 -3.468 17.218 0.05 34.508 -7.634 47.432 -18.252 1.572 0.5332 3.0058 1.409 4.1978 2.5644 1.192 1.1552 2.1122 2.561 2.6942 4.1156 0.154 0.324 0.29 0.6 0.412 0.834 4.138 7.668 0.502 17.4 1.07 24.976 0.374 5.47 2.558 9.68 1.014 15.078v-0.006Z" stroke-width="2"></path>
  <path fill="#1c3b67" d="M69.6464 92.031c1.3904 0.7514 2.6408 1.7372 3.696 2.914 -0.558 0.178 -1.158 0.388 -1.728 0.584 -0.2318 0.0658 -0.432 0.213 -0.564 0.4146 -0.1318 0.2016 -0.1864 0.4442 -0.1538 0.6828 0.0326 0.2388 0.1502 0.4576 0.3314 0.6164 0.181 0.159 0.4134 0.247 0.6544 0.2482 0.326 0 2 -0.672 2.686 -0.82 0.098 -0.021 0.1924 -0.0568 0.28 -0.106 1.1352 1.2926 2.1766 2.6648 3.116 4.106 0.1478 0.2146 0.3736 0.3628 0.6292 0.4134 0.2556 0.0506 0.5208 -0.0006 0.7392 -0.1426 0.2184 -0.1422 0.3728 -0.3638 0.4302 -0.618 0.0574 -0.254 0.0134 -0.5206 -0.1226 -0.7428 -2.2782 -3.687 -5.324 -6.8398 -8.93 -9.244 -1.622 -1.042 -2.42 1.228 -1.064 1.694Z" stroke-width="2"></path>
  <path fill="#1c3b67" d="M178.984 232.96c0.2568 0.066 0.5294 0.028 0.7578 -0.108 0.2284 -0.134 0.394 -0.354 0.4602 -0.61 2.9934 -11.524 6.93 -22.782 11.77 -33.6586 2.82 -6.482 3.078 -6.614 3.686 -7.952 0.2136 -0.5306 0.486 -1.0358 0.812 -1.506 0.2354 -0.0898 0.428 -0.2652 0.5396 -0.491 0.1114 -0.2258 0.1338 -0.4854 0.0622 -0.7268 -0.0714 -0.2416 -0.2314 -0.4472 -0.4478 -0.5758 -0.2166 -0.1286 -0.4736 -0.171 -0.72 -0.1184 -0.936 0.2 -1.49 1.302 -2.074 2.6 -0.886 1.978 -0.538 0.724 -3.692 7.968 -4.8822 10.9746 -8.853 22.3306 -11.872 33.9566 -0.0334 0.126 -0.0412 0.26 -0.0232 0.39 0.018 0.13 0.0616 0.256 0.1284 0.37 0.0668 0.114 0.1552 0.212 0.2604 0.292 0.1052 0.078 0.225 0.136 0.3524 0.17Z" stroke-width="2"></path>
  <path fill="#1c3b67" d="M175.906 223.788c0.1304 0.016 0.2626 0.006 0.3894 -0.028 0.1268 -0.034 0.2456 -0.092 0.3496 -0.172 0.104 -0.082 0.1912 -0.182 0.2566 -0.294 0.0654 -0.114 0.1076 -0.24 0.1244 -0.37 1.2742 -9.354 3.1778 -18.612 5.698 -27.7088 0.087 -0.1462 0.138 -0.3108 0.149 -0.4806 0.011 -0.1696 -0.0184 -0.3394 -0.0858 -0.4956 -0.0672 -0.156 -0.1706 -0.294 -0.3016 -0.4024 -0.1308 -0.1084 -0.2856 -0.1844 -0.4516 -0.2214 -0.922 -0.164 -1.124 0.644 -1.346 1.484 -2.4582 9.0568 -4.344 18.2608 -5.646 27.5568 -0.0184 0.13 -0.0108 0.264 0.0228 0.392 0.0334 0.128 0.0922 0.248 0.1726 0.354 0.0802 0.106 0.1808 0.194 0.2956 0.26 0.1148 0.066 0.2416 0.108 0.373 0.126Z" stroke-width="2"></path>
  <path fill="#1c3b67" d="M90.9184 79.7158c0.1482 -0.0002 0.2944 -0.0334 0.4282 -0.097 0.1336 -0.0638 0.2516 -0.1564 0.3452 -0.2712 0.0936 -0.1148 0.1604 -0.249 0.1958 -0.3928 0.0354 -0.1438 0.0384 -0.2938 0.0088 -0.439 -0.08 -0.376 0.484 -1.638 2 -3.28 3.046 -3.342 7.2 -4.334 12.348 -2.952 0.1284 0.0394 0.2632 0.0526 0.3968 0.0386 0.1334 -0.014 0.2628 -0.0546 0.3802 -0.1194 0.1174 -0.065 0.2206 -0.153 0.3034 -0.2586 0.0828 -0.1056 0.1434 -0.2268 0.1782 -0.3564 0.035 -0.1296 0.0434 -0.265 0.025 -0.3978 -0.0184 -0.133 -0.0636 -0.2608 -0.1324 -0.376 -0.069 -0.1152 -0.1604 -0.2152 -0.2688 -0.2944 -0.1084 -0.079 -0.2316 -0.1354 -0.3624 -0.166 -5.846 -1.572 -10.8 -0.35 -14.342 3.532 -1.32 1.428 -2.82 3.468 -2.478 5.052 0.0502 0.2208 0.174 0.418 0.351 0.5594 0.1768 0.1414 0.3966 0.2184 0.623 0.2186Z" stroke-width="2"></path>
  <path fill="#1c3b67" d="M126.7782 73.1024c1.0548 -0.3044 2.1322 -0.5238 3.222 -0.656 1.3036 -0.0242 2.5866 0.3282 3.6948 1.015 1.1084 0.6868 1.9948 1.6788 2.5532 2.8572 0.125 0.2196 0.3286 0.384 0.57 0.4596 0.2412 0.0758 0.5022 0.0572 0.7304 -0.0518 0.228 -0.109 0.4064 -0.3004 0.4992 -0.5356 0.0928 -0.2354 0.0928 -0.497 0.0004 -0.7322 -0.7228 -1.5224 -1.8684 -2.8044 -3.3 -3.6932 -1.4318 -0.8888 -3.089 -1.3466 -4.774 -1.319 -0.042 0 -4.452 0.356 -5.046 1.656 -0.0756 0.2028 -0.0988 0.4212 -0.0674 0.6352 0.0314 0.214 0.1166 0.4166 0.2474 0.5888 0.1084 0.1282 0.2474 0.227 0.404 0.2874 0.1566 0.0602 0.326 0.0802 0.4924 0.0578 0.1664 -0.0222 0.3244 -0.086 0.4596 -0.1856 0.1352 -0.0994 0.2432 -0.2314 0.314 -0.3836Z" stroke-width="2"></path>
  <path fill="#1c3b67" d="M100.6202 81.3306c-0.4914 0.9826 -0.78 2.0538 -0.8488 3.1504 -0.0688 1.0964 0.084 2.1954 0.4488 3.2316 0.1008 0.3972 0.3376 0.7466 0.669 0.9874 0.3316 0.241 0.737 0.3582 1.146 0.3312 0.409 -0.0268 0.7956 -0.196 1.0928 -0.4782s0.4862 -0.6594 0.5342 -1.0664c0.3148 -1.658 0.1766 -3.37 -0.4 -4.956 -0.606 -1.838 -1.452 -2.73 -2.642 -1.2Z" stroke-width="2"></path>
  <path fill="#1c3b67" d="M130.4702 84.1782c-0.3508 1.5126 -0.1546 3.1004 0.554 4.482 0.1892 0.2074 0.4274 0.3636 0.6928 0.4546 0.2654 0.091 0.5496 0.1138 0.826 0.0662 0.2766 -0.0476 0.5366 -0.164 0.7564 -0.3386 0.2196 -0.1746 0.392 -0.4016 0.5008 -0.6602 0.3998 -0.8506 0.6044 -1.7796 0.5992 -2.7194 -0.0052 -0.9398 -0.22 -1.8664 -0.6292 -2.7126 -0.692 -1.122 -2.804 -2.148 -3.3 1.428Z" stroke-width="2"></path>
  <path fill="#1c3b67" d="M113.0364 106.2678c2.256 1.922 5.698 4.288 8.188 2.658 2.646 -1.732 2.428 -6.8 1.852 -12.02 -0.4382 -2.9436 -0.7264 -5.9074 -0.864 -8.88 -0.136 -1.674 -2.148 -2.326 -2 0.178 0.462 7.458 2.534 17.33 -0.092 19.048 -1.456 0.96 -4.472 -1.38 -5.8 -2.508 -0.1002 -0.0854 -0.216 -0.15 -0.341 -0.1904 -0.1252 -0.0404 -0.257 -0.056 -0.388 -0.0454 -0.131 0.0104 -0.2586 0.0466 -0.3758 0.1066 -0.117 0.0598 -0.221 0.142 -0.3062 0.2422 -0.1722 0.202 -0.257 0.4642 -0.2358 0.7288 0.0212 0.2646 0.1466 0.51 0.3488 0.6822h0.014Z" stroke-width="2"></path>
  <path fill="#1c3b67" d="M111.6482 125.1538c5.432 1.38 10.476 -6.884 7.528 -11.35 -0.91 -1.4 -3.378 -0.654 -5.28 0.2 -2.4842 1.0154 -4.472 2.9632 -5.538 5.426 -0.1988 0.5916 -0.2698 1.2186 -0.2084 1.8396 0.0616 0.621 0.2542 1.2218 0.5652 1.7628 0.311 0.541 0.7332 1.01 1.2388 1.3756 0.5056 0.3658 1.0832 0.62 1.6944 0.746Zm-1.386 -5.11c0.7262 -1.3634 1.7702 -2.5316 3.0438 -3.4058 1.2734 -0.8742 2.7388 -1.4286 4.2722 -1.6162 1.828 3.046 -1.95 9.074 -5.442 8.2 -0.3476 -0.0566 -0.6784 -0.1888 -0.969 -0.3876 -0.2906 -0.1986 -0.534 -0.4588 -0.713 -0.7622 -0.1788 -0.3032 -0.2886 -0.6422 -0.3218 -0.9926 -0.0332 -0.3506 0.011 -0.704 0.1298 -1.0356Z" stroke-width="2"></path>
  <path fill="#1c3b67" d="M113.6002 125.899c-0.8436 0.3588 -1.7724 0.4678 -2.676 0.314 -0.1298 -0.0232 -0.2628 -0.02 -0.3914 0.0092 -0.1286 0.029 -0.2502 0.0836 -0.3572 0.1604 -0.1072 0.0768 -0.198 0.1742 -0.2668 0.2866 -0.069 0.1124 -0.1148 0.2374 -0.1346 0.3678 -0.0434 0.2616 0.0188 0.5296 0.173 0.7452 0.1542 0.2156 0.3876 0.3612 0.649 0.4048 1.2772 0.2134 2.589 0.0594 3.782 -0.444 0.2446 -0.1032 0.438 -0.2992 0.538 -0.5452 0.1 -0.2458 0.0982 -0.5212 -0.005 -0.7658 -0.1032 -0.2446 -0.2992 -0.438 -0.545 -0.538 -0.246 -0.1 -0.5214 -0.0982 -0.766 0.005Z" stroke-width="2"></path>
  <path fill="#1c3b67" d="M47.0542 268.236c0.0224 0.13 0.07 0.254 0.1402 0.364 0.0702 0.112 0.1614 0.208 0.2688 0.284 0.1074 0.076 0.2286 0.13 0.3568 0.158 0.1282 0.028 0.2608 0.032 0.3902 0.01 0.1296 -0.022 0.2534 -0.07 0.3644 -0.14 0.1112 -0.07 0.2072 -0.162 0.283 -0.268 0.0758 -0.108 0.1298 -0.23 0.1586 -0.358 0.029 -0.128 0.0324 -0.26 0.01 -0.39l-14.256 -82.71c-0.045 -0.2614 -0.1922 -0.4944 -0.409 -0.6474 -0.2168 -0.153 -0.4854 -0.2136 -0.747 -0.1686 -0.2614 0.0452 -0.4944 0.1922 -0.6474 0.409 -0.153 0.2168 -0.2136 0.4856 -0.1686 0.747l14.256 82.71Z" stroke-width="2"></path>
  <path fill="#1c3b67" d="M61.8582 248.064c0.492 0.484 -0.576 -1.434 5.334 9.948l-2.02 3.54 -7.784 -0.426c-0.1316 -0.01 -0.264 0.008 -0.389 0.05 -0.1248 0.044 -0.2398 0.11 -0.3382 0.198 -0.0982 0.088 -0.1776 0.196 -0.2334 0.316 -0.0558 0.12 -0.087 0.248 -0.0914 0.38 -0.0074 0.132 0.0112 0.264 0.0548 0.388s0.111 0.238 0.1986 0.336c0.0878 0.098 0.1938 0.176 0.3124 0.234 0.1184 0.056 0.247 0.09 0.3782 0.096l8.454 0.462c0.1762 0 0.3494 -0.046 0.5018 -0.134 0.1524 -0.09 0.2788 -0.216 0.3662 -0.37l2.024 -3.548 8.464 7.27 -5.75 5.8c-0.1626 0.194 -0.2466 0.44 -0.235 0.692 0.0114 0.252 0.1174 0.49 0.2968 0.666 0.1794 0.176 0.419 0.28 0.6708 0.288 0.2518 0.008 0.4972 -0.08 0.6874 -0.246l5.85 -5.9 3.954 3.4 4.916 7.188c0.0734 0.11 0.168 0.206 0.2782 0.278 0.1102 0.074 0.2338 0.124 0.3638 0.15 0.13 0.024 0.2636 0.024 0.3932 -0.004 0.1296 -0.026 0.2526 -0.078 0.3618 -0.154 0.1092 -0.074 0.2024 -0.17 0.2744 -0.28 0.0718 -0.112 0.121 -0.236 0.1446 -0.366 0.0234 -0.13 0.021 -0.264 -0.0076 -0.394 -0.0284 -0.128 -0.0824 -0.252 -0.1584 -0.36l-4.99 -7.296c-0.138 -0.2 -0.186 -0.2 -4.232 -3.68l7.53 -10.098 14.324 5.632c0.2472 0.098 0.5228 0.092 0.7662 -0.014 0.2434 -0.106 0.4346 -0.304 0.5318 -0.552 0.097 -0.246 0.092 -0.522 -0.0142 -0.766 -0.1062 -0.242 -0.3046 -0.434 -0.5518 -0.532l-13.954 -5.484 2.436 -8.772 11.948 -2.38c0.21 -0.042 0.401 -0.15 0.545 -0.308 0.144 -0.158 0.2334 -0.358 0.255 -0.572l0.544 -5.296c0.0264 -0.264 -0.053 -0.526 -0.2208 -0.732 -0.1678 -0.206 -0.4104 -0.336 -0.6742 -0.362 -0.264 -0.026 -0.5276 0.052 -0.733 0.22 -0.2052 0.168 -0.3356 0.41 -0.362 0.674l-0.468 4.562c-9.0458 2 -18.1922 3.512 -27.4 4.53h-6.88l17.452 -7.896c0.2418 -0.108 0.4304 -0.308 0.5244 -0.558 0.094 -0.248 0.0856 -0.522 -0.0234 -0.764s-0.3096 -0.43 -0.5578 -0.524c-0.2482 -0.094 -0.5234 -0.086 -0.7652 0.022l-18.96 8.55 8.018 -13.922 12.388 -9.888c0.2074 -0.164 0.3404 -0.406 0.3702 -0.67 0.0296 -0.264 -0.0468 -0.528 -0.2122 -0.736 -0.1656 -0.206 -0.4066 -0.34 -0.6704 -0.37 -0.2636 -0.03 -0.5282 0.048 -0.7356 0.212l-11.82 9.436 -5.6 -7.174c-0.081 -0.102 -0.1814 -0.19 -0.2958 -0.254s-0.2402 -0.106 -0.3706 -0.122 -0.2626 -0.006 -0.3892 0.028c-0.1266 0.036 -0.245 0.096 -0.3484 0.176 -0.1036 0.082 -0.19 0.182 -0.2548 0.296 -0.0646 0.114 -0.106 0.24 -0.122 0.372 -0.016 0.13 -0.0062 0.262 0.029 0.388s0.0948 0.246 0.1758 0.348l5.824 7.468 -7.456 12.946 -0.466 -12.556c-0.0098 -0.264 -0.1246 -0.516 -0.3192 -0.696 -0.1944 -0.18 -0.4526 -0.276 -0.7178 -0.266 -0.2652 0.01 -0.5158 0.124 -0.6964 0.318 -0.1806 0.196 -0.2764 0.454 -0.2666 0.718l0.516 13.896 -11.2 -11.6 1.248 -11.472c0.022 -0.26 -0.0588 -0.518 -0.225 -0.72 -0.1662 -0.202 -0.4046 -0.33 -0.6644 -0.358 -0.2598 -0.028 -0.5202 0.046 -0.7256 0.208 -0.2052 0.162 -0.3392 0.398 -0.373 0.656l-1.3 11.936c-0.0154 0.146 0.0014 0.294 0.0492 0.432 0.0476 0.138 0.125 0.264 0.2268 0.368 14.674 15.214 12.81 13.272 13.042 13.5Zm2.542 0.248h8.318l-4.346 7.632 -3.972 -7.632Zm22.212 5.934 -14.268 -1.224c0.9896 -1.554 1.8924 -3.162 2.704 -4.816l13.76 -1.88 -2.196 7.92Zm-16.976 3.52 1.614 -2.83 13.966 1.2 -6.822 9.16 -8.758 -7.53Z" stroke-width="2"></path>
  <path fill="#1c3b67" fill-rule="evenodd" d="M269.916 153.0614c0.054 0.0026 0.11 0.0096 0.168 0.0224 0.41 0.0894 0.642 0.3882 0.736 0.6276 0.078 0.1966 0.076 0.3698 0.074 0.4406 -0.004 0.156 -0.042 0.2958 -0.06 0.3648 -0.024 0.0866 -0.052 0.175 -0.08 0.2526 -0.03 0.0898 -0.072 0.2046 -0.11 0.3056 -0.02 0.0566 -0.04 0.109 -0.054 0.15 -0.026 0.0686 -0.046 0.1248 -0.06 0.17 -0.012 0.0392 -0.016 0.0558 -0.016 0.0558s0 -0.0012 0.002 -0.0036l-0.86 -0.161c-0.09 0.1452 -0.238 0.3702 -0.444 0.5524l-0.01 0.0092 0 -0.0002c-3.384 2.907 -7.112 5.3862 -11.102 7.3814l0 0.0006 -0.448 -0.8944 0.45 0.8936 -0.002 0.0002c-1.414 0.7112 -3.184 1.2698 -5.036 1.7798 -0.852 0.2348 -1.738 0.4632 -2.624 0.6922 -0.084 0.0214 -0.166 0.043 -0.25 0.0644 -0.974 0.2516 -1.95 0.5058 -2.912 0.776 -1.928 0.5422 -3.752 1.1388 -5.294 1.8812 -1.55 0.7454 -2.74 1.6018 -3.48 2.6216l-0.808 -0.5862 0.808 0.5864c-2.788 3.8452 -4.922 9.177 -6.546 15.1052 -1.62 5.9146 -2.712 12.353 -3.452 18.3624 -0.74 6.006 -1.126 11.566 -1.334 15.716 -0.104 2.074 -0.166 3.796 -0.204 5.046 -0.01 0.336 -0.02 0.644 -0.028 0.918 -0.018 0.666 -0.032 1.134 -0.048 1.328 -0.192 4.786 -0.624 9.562 -1.294 14.306l-0.002 0.022 -0.002 0c-1.14 6.952 -1.91 13.962 -2.308 20.998l-0.002 0.034c-0.194 2.16 -0.396 4.106 -0.59 5.986 -0.352 3.428 -0.684 6.638 -0.918 10.546 -0.02 0.326 -0.198 0.622 -0.478 0.794l-0.656 0.4 -0.798 -1.31 -0.064 -0.004c0.002 -0.032 0.004 -0.062 0.006 -0.092l-0.184 -0.302 0.21 -0.128c0.234 -3.716 0.558 -6.862 0.9 -10.166 0.192 -1.868 0.39 -3.786 0.578 -5.888 0.402 -7.096 1.178 -14.168 2.33 -21.182 0.66 -4.682 1.086 -9.392 1.274 -14.116 0.002 -0.02 0.004 -0.04 0.006 -0.058l0 -0.014 0.002 -0.04c0.002 -0.034 0.004 -0.08 0.006 -0.136 0.006 -0.112 0.01 -0.262 0.016 -0.448 0.004 -0.146 0.01 -0.314 0.014 -0.502 0.01 -0.29 0.02 -0.63 0.03 -1.008 0.04 -1.258 0.1 -2.994 0.206 -5.084 0.21 -4.182 0.6 -9.792 1.346 -15.86 0.748 -6.066 1.856 -12.607 3.51 -18.6468 1.65 -6.026 3.862 -11.6232 6.854 -15.751l0 -0.0002c1.014 -1.3982 2.536 -2.434 4.232 -3.2496 1.702 -0.8188 3.658 -1.4526 5.62 -2.0044 0.984 -0.2766 1.98 -0.5356 2.954 -0.787 0.082 -0.0214 0.164 -0.0426 0.246 -0.0638 0.892 -0.23 1.76 -0.4544 2.596 -0.6846 1.838 -0.506 3.444 -1.0222 4.672 -1.6388l0 -0.001c3.836 -1.9178 7.42 -4.2996 10.674 -7.0922 0.004 -0.006 0.03 -0.0394 0.082 -0.1234 0.008 -0.0134 0.028 -0.0488 0.056 -0.0944 0.06 -0.1024 0.15 -0.2568 0.198 -0.3318 0.086 -0.1378 0.262 -0.404 0.538 -0.5908 0.154 -0.1054 0.368 -0.2062 0.636 -0.2248 0.192 -0.0132 0.37 0.0186 0.528 0.078Zm0.486 1.8258c0.002 -0.0008 0.002 -0.0016 0.004 -0.002l0 -0.0002c-0.002 0.0008 -0.002 0.0016 -0.004 0.0022Zm-1.496 -0.9032c0.002 -0.0052 0.002 -0.0082 0.002 -0.0082 0 -0.0002 0 0.0024 -0.002 0.0082Z" clip-rule="evenodd" stroke-width="2"></path>
</svg>